<?xml version="1.0" encoding="UTF-8" standalone="no"?>
<svg
   width="166.00012mm"
   height="152.75101mm"
   viewBox="0 0 166.00012 152.75101"
   version="1.1"
   id="svg891"
   inkscape:version="1.1.2 (0a00cf5339, 2022-02-04)"
   sodipodi:docname="case-boundary.svg"
   xmlns:inkscape="http://www.inkscape.org/namespaces/inkscape"
   xmlns:sodipodi="http://sodipodi.sourceforge.net/DTD/sodipodi-0.dtd"
   xmlns="http://www.w3.org/2000/svg"
   xmlns:svg="http://www.w3.org/2000/svg"
   xmlns:rdf="http://www.w3.org/1999/02/22-rdf-syntax-ns#"
   xmlns:cc="http://creativecommons.org/ns#"
   xmlns:dc="http://purl.org/dc/elements/1.1/">
  <defs
     id="defs885" />
  <sodipodi:namedview
     id="base"
     pagecolor="#ffffff"
     bordercolor="#666666"
     borderopacity="1.0"
     inkscape:pageopacity="0.0"
     inkscape:pageshadow="2"
     inkscape:zoom="1.4142136"
     inkscape:cx="422.84984"
     inkscape:cy="281.78204"
     inkscape:document-units="mm"
     inkscape:current-layer="layer3"
     inkscape:document-rotation="0"
     showgrid="false"
     fit-margin-top="-0.05"
     fit-margin-left="-0.05"
     fit-margin-right="-0.05"
     fit-margin-bottom="-0.05"
     inkscape:window-width="1920"
     inkscape:window-height="1062"
     inkscape:window-x="0"
     inkscape:window-y="0"
     inkscape:window-maximized="0"
     showguides="true"
     inkscape:guide-bbox="true"
     inkscape:snap-object-midpoints="true"
     inkscape:pagecheckerboard="0" />
  <metadata
     id="metadata888">
    <rdf:RDF>
      <cc:Work
         rdf:about="">
        <dc:format>image/svg+xml</dc:format>
        <dc:type
           rdf:resource="http://purl.org/dc/dcmitype/StillImage" />
      </cc:Work>
    </rdf:RDF>
  </metadata>
  <g
     inkscape:label="Bottom"
     inkscape:groupmode="layer"
     id="layer1"
     style="display:inline"
     transform="translate(1.0000748,1.000855)">
    <path
       style="color:#000000;font-style:normal;font-variant:normal;font-weight:normal;font-stretch:normal;font-size:medium;line-height:normal;font-family:sans-serif;font-variant-ligatures:normal;font-variant-position:normal;font-variant-caps:normal;font-variant-numeric:normal;font-variant-alternates:normal;font-variant-east-asian:normal;font-feature-settings:normal;font-variation-settings:normal;text-indent:0;text-align:start;text-decoration:none;text-decoration-line:none;text-decoration-style:solid;text-decoration-color:#000000;letter-spacing:normal;word-spacing:normal;text-transform:none;writing-mode:lr-tb;direction:ltr;text-orientation:mixed;dominant-baseline:auto;baseline-shift:baseline;text-anchor:start;white-space:normal;shape-padding:0;shape-margin:0;inline-size:0;clip-rule:nonzero;display:inline;overflow:visible;visibility:visible;opacity:1;isolation:auto;mix-blend-mode:normal;color-interpolation:sRGB;color-interpolation-filters:linearRGB;solid-color:#000000;solid-opacity:1;vector-effect:none;fill:none;fill-opacity:1;fill-rule:nonzero;stroke:#000000;stroke-width:0.1;stroke-linecap:round;stroke-linejoin:round;stroke-miterlimit:4;stroke-dasharray:none;stroke-dashoffset:0;stroke-opacity:1;color-rendering:auto;image-rendering:auto;shape-rendering:auto;text-rendering:auto;enable-background:accumulate;stop-color:#000000;stop-opacity:1"
       d="m 62.396484,-1 c -0.299552,0.005892 -0.641371,0.0240407 -1.009765,0.10546875 h -0.0039 L 5.9570312,10.775391 c -0.00718,0.0012 -0.014337,0.0025 -0.021484,0.0039 -0.90976,0.212609 -1.7893374,0.650145 -2.4882813,1.357422 l -2.98437498,2.982422 c -0.005277,0.0058 -0.0104857,0.01166 -0.015625,0.01758 C -0.43857073,16.067911 -1.0075788,17.308223 -1,18.660156 v 69.832032 c -6.36e-5,0.0065 -6.36e-5,0.01302 0,0.01953 0.0250913,1.296421 0.5147475,2.567557 1.46289062,3.515625 h 0.001953 l 2.65625008,2.658203 c 0.0058,0.0053 0.011658,0.01049 0.017578,0.01563 0.9323953,0.888058 2.1713081,1.449103 3.5175781,1.447266 H 45.074219 c 0.822834,0.01507 1.578066,0.314929 2.138672,0.876953 v 0.002 l 53.158199,53.257815 c 0.006,0.006 0.0129,0.0118 0.0195,0.0176 0.93204,0.88445 2.16751,1.44923 3.51563,1.44727 h 0.6875 c 0.008,9e-5 0.0156,9e-5 0.0234,0 1.2873,-0.0323 2.56128,-0.5116 3.51172,-1.4668 l 55.40625,-55.406246 c 0.006,-0.0058 0.0118,-0.01165 0.0176,-0.01758 0.88752,-0.932552 1.44979,-2.171914 1.44727,-3.519531 V 25.654297 c 1.1e-4,-0.0085 1.1e-4,-0.01693 0,-0.02539 -0.0323,-1.287884 -0.51298,-2.559097 -1.4668,-3.509765 l -6.02929,-6.03125 c -0.006,-0.0059 -0.0129,-0.0118 -0.0195,-0.01758 -0.63762,-0.606284 -1.42544,-1.092134 -2.34766,-1.308593 h 0.006 C 133.5691,9.5540036 111.99403,4.3389879 90.421876,-0.86718712 90.080628,-0.94024615 89.690509,-1.0093669 89.251953,-1 H 62.416016 c -0.0065,-6.36e-5 -0.01302,-6.36e-5 -0.01953,0 z"
       id="path2178"
       sodipodi:nodetypes="cccccccccccccccccccccccccccccccccccccccc" />
  </g>
  <g
     inkscape:groupmode="layer"
     id="layer3"
     inkscape:label="Plate"
     style="display:inline" />
  <g
     inkscape:groupmode="layer"
     id="layer4"
     inkscape:label="MCU"
     style="display:inline" />
</svg>
