<?xml version="1.0" standalone="no"?>
 <!DOCTYPE svg PUBLIC "-//W3C//DTD SVG 1.1//EN" 
 "http://www.w3.org/Graphics/SVG/1.1/DTD/svg11.dtd"> 
<svg
  xmlns:svg="http://www.w3.org/2000/svg"
  xmlns="http://www.w3.org/2000/svg"
  xmlns:xlink="http://www.w3.org/1999/xlink"
  version="1.1"
  width="13.964920cm" height="9.329420cm" viewBox="0 0 139649200 93294200">
<title>SVG Picture created as corne-cherry-Nutzer_5.svg date 2022/05/10 19:19:53 </title>
  <desc>Picture generated by PCBNEW </desc>
<g style="fill:#000000; fill-opacity:1.000000;stroke:#000000; stroke-opacity:1.000000;
stroke-linecap:round; stroke-linejoin:round;"
 transform="translate(0 0) scale(1 1)">
</g>
<g style="fill:#000000; fill-opacity:0.0; 
stroke:#000000; stroke-width:0.000000; stroke-opacity:1; 
stroke-linecap:round; stroke-linejoin:round;">
</g>
<g style="fill:#000000; fill-opacity:0.0; 
stroke:#000000; stroke-width:150000.000000; stroke-opacity:1; 
stroke-linecap:round; stroke-linejoin:round;">
<path style="fill:#000000; fill-opacity:0.0; 
stroke:#000000; stroke-width:150000.000000; stroke-opacity:1; 
stroke-linecap:round; stroke-linejoin:round;fill:none"
d="M 75456290.000000,739982.000000
75602737.000000,1093535.000000
75602737.000000,2343535.000000
75749184.000000,2697088.000000
76102737.000000,2843535.000000
94102737.000000,2843535.000000
94456290.000000,2989982.000000
94602737.000000,3343535.000000
94602737.000000,4843535.000000
94749184.000000,5197088.000000
95102737.000000,5343535.000000
113102737.000000,5343535.000000
113456290.000000,5489982.000000
113602737.000000,5843535.000000
113602737.000000,7093535.000000
113749184.000000,7447088.000000
114102737.000000,7593535.000000
133852737.000000,7593535.000000
134206290.000000,7739982.000000
134352737.000000,8093535.000000
134352737.000000,67568535.000000
134297958.000000,68020204.000000
134125501.000000,68441231.000000
120900000.000000,91375000.000000
120897263.000000,91381465.000000
120550000.000000,91750000.000000
120012069.000000,91971617.000000
119425000.000000,91975000.000000
118969251.000000,91760956.000000
104677737.000000,83493535.000000
104353689.000000,83412684.000000
104052737.000000,83368535.000000
67352737.000000,78593535.000000
67161395.000000,78555475.000000
66999184.000000,78447088.000000
56452737.000000,63993535.000000
56294079.000000,63881595.000000
56102737.000000,63843535.000000
1102737.000000,63843535.000000
749184.000000,63697088.000000
602737.000000,63343535.000000
602737.000000,8093535.000000
749184.000000,7739982.000000
1102737.000000,7593535.000000
38102737.000000,7593535.000000
38456290.000000,7447088.000000
38602737.000000,7093535.000000
38602737.000000,3343535.000000
38749184.000000,2989982.000000
39102737.000000,2843535.000000
57102737.000000,2843535.000000
57456290.000000,2697088.000000
57602737.000000,2343535.000000
57602737.000000,1093535.000000
57749184.000000,739982.000000
58102737.000000,593535.000000
75102737.000000,593535.000000
Z" /> 
<g >
</g>
<g >
</g>
<g >
</g>
<g >
</g>
<g >
</g>
<g >
</g>
<g >
</g>
<g >
</g>
<g >
</g>
<g >
</g>
<g >
</g>
<g >
</g>
<g >
</g>
<g >
</g>
<g >
</g>
<g >
</g>
<g >
</g>
<g >
</g>
<g >
</g>
<g >
</g>
<g >
</g>
<g >
</g>
<g >
</g>
<g >
</g>
<g >
</g>
<g >
</g>
<g >
</g>
<g >
</g>
<g >
</g>
<g >
</g>
<g >
</g>
<g >
</g>
<g >
</g>
<g >
</g>
<g >
</g>
<g >
</g>
<g >
</g>
<g >
</g>
<g >
</g>
<g >
</g>
<g >
</g>
<g >
</g>
<g >
</g>
<g >
</g>
<g >
</g>
<g >
</g>
<g >
</g>
<g >
</g>
<g >
</g>
<g >
</g>
<g >
</g>
<g >
</g>
<g >
</g>
<g >
</g>
<g >
</g>
<g >
</g>
<g >
</g>
<g >
</g>
<g >
</g>
<g >
</g>
<g >
</g>
<g >
</g>
<g >
</g>
<g >
</g>
<g >
</g>
<g >
</g>
<g >
</g>
<g >
</g>
<g >
</g>
<g >
</g>
<g >
</g>
<g >
</g>
<g >
</g>
<g >
</g>
<g >
</g>
<g >
</g>
<g >
</g>
<g >
</g>
<g >
</g>
<g >
</g>
<g >
</g>
<g >
</g>
<g >
</g>
<g >
</g>
<g >
</g>
<g >
</g>
<g >
</g>
<g >
</g>
<g >
</g>
<g >
</g>
<g >
</g>
<g >
</g>
<g >
</g>
<g >
</g>
<g >
</g>
<g >
</g>
<g >
</g>
<g >
</g>
<g >
</g>
</g> 
</svg>
