<?xml version="1.0" standalone="no"?>
 <!DOCTYPE svg PUBLIC "-//W3C//DTD SVG 1.1//EN" 
 "http://www.w3.org/Graphics/SVG/1.1/DTD/svg11.dtd"> 
<svg
  xmlns:svg="http://www.w3.org/2000/svg"
  xmlns="http://www.w3.org/2000/svg"
  xmlns:xlink="http://www.w3.org/1999/xlink"
  version="1.1"
  width="13.964920cm" height="9.329420cm" viewBox="0 0 139649200 93294200">
<title>SVG Picture created as corne-cherry-Nutzer_3.svg date 2022/05/10 19:19:53 </title>
  <desc>Picture generated by PCBNEW </desc>
<g style="fill:#000000; fill-opacity:1.000000;stroke:#000000; stroke-opacity:1.000000;
stroke-linecap:round; stroke-linejoin:round;"
 transform="translate(0 0) scale(1 1)">
</g>
<g style="fill:#000000; fill-opacity:0.0; 
stroke:#000000; stroke-width:0.000000; stroke-opacity:1; 
stroke-linecap:round; stroke-linejoin:round;">
</g>
<g style="fill:#000000; fill-opacity:1.0; 
stroke:#000000; stroke-width:120000.000000; stroke-opacity:1; 
stroke-linecap:round; stroke-linejoin:round;">
<path style="fill:#000000; fill-opacity:1.0; 
stroke:#000000; stroke-width:120000.000000; stroke-opacity:1; 
stroke-linecap:round; stroke-linejoin:round;fill-rule:evenodd;"
d="M 114787822.000000,70001924.000000
126912178.000000,77001924.000000
127528203.000000,77934936.000000
125028203.000000,82265064.000000
123912178.000000,82198076.000000
111787822.000000,75198076.000000
111171797.000000,74265064.000000
113671797.000000,69934936.000000
Z" /> 
<path style="fill:#000000; fill-opacity:1.0; 
stroke:#000000; stroke-width:120000.000000; stroke-opacity:1; 
stroke-linecap:round; stroke-linejoin:round;fill-rule:evenodd;"
d="M 79100000.000000,62600000.000000
79100000.000000,76600000.000000
78600000.000000,77600000.000000
73600000.000000,77600000.000000
73100000.000000,76600000.000000
73100000.000000,62600000.000000
73600000.000000,61600000.000000
78600000.000000,61600000.000000
Z" /> 
<path style="fill:#000000; fill-opacity:1.0; 
stroke:#000000; stroke-width:120000.000000; stroke-opacity:1; 
stroke-linecap:round; stroke-linejoin:round;fill-rule:evenodd;"
d="M 107600000.000000,45350000.000000
107600000.000000,59350000.000000
107100000.000000,60350000.000000
102100000.000000,60350000.000000
101600000.000000,59350000.000000
101600000.000000,45350000.000000
102100000.000000,44350000.000000
107100000.000000,44350000.000000
Z" /> 
<path style="fill:#000000; fill-opacity:1.0; 
stroke:#000000; stroke-width:120000.000000; stroke-opacity:1; 
stroke-linecap:round; stroke-linejoin:round;fill-rule:evenodd;"
d="M 50600000.000000,42975000.000000
50600000.000000,56975000.000000
50100000.000000,57975000.000000
45100000.000000,57975000.000000
44600000.000000,56975000.000000
44600000.000000,42975000.000000
45100000.000000,41975000.000000
50100000.000000,41975000.000000
Z" /> 
<path style="fill:#000000; fill-opacity:1.0; 
stroke:#000000; stroke-width:120000.000000; stroke-opacity:1; 
stroke-linecap:round; stroke-linejoin:round;fill-rule:evenodd;"
d="M 31600000.000000,47725000.000000
31600000.000000,61725000.000000
31100000.000000,62725000.000000
26100000.000000,62725000.000000
25600000.000000,61725000.000000
25600000.000000,47725000.000000
26100000.000000,46725000.000000
31100000.000000,46725000.000000
Z" /> 
<path style="fill:#000000; fill-opacity:1.0; 
stroke:#000000; stroke-width:120000.000000; stroke-opacity:1; 
stroke-linecap:round; stroke-linejoin:round;fill-rule:evenodd;"
d="M 12600000.000000,47725000.000000
12600000.000000,61725000.000000
12100000.000000,62725000.000000
7100000.000000,62725000.000000
6600000.000000,61725000.000000
6600000.000000,47725000.000000
7100000.000000,46725000.000000
12100000.000000,46725000.000000
Z" /> 
<path style="fill:#000000; fill-opacity:1.0; 
stroke:#000000; stroke-width:120000.000000; stroke-opacity:1; 
stroke-linecap:round; stroke-linejoin:round;fill-rule:evenodd;"
d="M 107600000.000000,26350000.000000
107600000.000000,40350000.000000
107100000.000000,41350000.000000
102100000.000000,41350000.000000
101600000.000000,40350000.000000
101600000.000000,26350000.000000
102100000.000000,25350000.000000
107100000.000000,25350000.000000
Z" /> 
<path style="fill:#000000; fill-opacity:1.0; 
stroke:#000000; stroke-width:120000.000000; stroke-opacity:1; 
stroke-linecap:round; stroke-linejoin:round;fill-rule:evenodd;"
d="M 88600000.000000,23975000.000000
88600000.000000,37975000.000000
88100000.000000,38975000.000000
83100000.000000,38975000.000000
82600000.000000,37975000.000000
82600000.000000,23975000.000000
83100000.000000,22975000.000000
88100000.000000,22975000.000000
Z" /> 
<path style="fill:#000000; fill-opacity:1.0; 
stroke:#000000; stroke-width:120000.000000; stroke-opacity:1; 
stroke-linecap:round; stroke-linejoin:round;fill-rule:evenodd;"
d="M 69600000.000000,21600000.000000
69600000.000000,35600000.000000
69100000.000000,36600000.000000
64100000.000000,36600000.000000
63600000.000000,35600000.000000
63600000.000000,21600000.000000
64100000.000000,20600000.000000
69100000.000000,20600000.000000
Z" /> 
<path style="fill:#000000; fill-opacity:1.0; 
stroke:#000000; stroke-width:120000.000000; stroke-opacity:1; 
stroke-linecap:round; stroke-linejoin:round;fill-rule:evenodd;"
d="M 50600000.000000,23975000.000000
50600000.000000,37975000.000000
50100000.000000,38975000.000000
45100000.000000,38975000.000000
44600000.000000,37975000.000000
44600000.000000,23975000.000000
45100000.000000,22975000.000000
50100000.000000,22975000.000000
Z" /> 
<path style="fill:#000000; fill-opacity:1.0; 
stroke:#000000; stroke-width:120000.000000; stroke-opacity:1; 
stroke-linecap:round; stroke-linejoin:round;fill-rule:evenodd;"
d="M 31600000.000000,28725000.000000
31600000.000000,42725000.000000
31100000.000000,43725000.000000
26100000.000000,43725000.000000
25600000.000000,42725000.000000
25600000.000000,28725000.000000
26100000.000000,27725000.000000
31100000.000000,27725000.000000
Z" /> 
<path style="fill:#000000; fill-opacity:1.0; 
stroke:#000000; stroke-width:120000.000000; stroke-opacity:1; 
stroke-linecap:round; stroke-linejoin:round;fill-rule:evenodd;"
d="M 12600000.000000,28725000.000000
12600000.000000,42725000.000000
12100000.000000,43725000.000000
7100000.000000,43725000.000000
6600000.000000,42725000.000000
6600000.000000,28725000.000000
7100000.000000,27725000.000000
12100000.000000,27725000.000000
Z" /> 
<path style="fill:#000000; fill-opacity:1.0; 
stroke:#000000; stroke-width:120000.000000; stroke-opacity:1; 
stroke-linecap:round; stroke-linejoin:round;fill-rule:evenodd;"
d="M 107600000.000000,7350000.000000
107600000.000000,21350000.000000
107100000.000000,22350000.000000
102100000.000000,22350000.000000
101600000.000000,21350000.000000
101600000.000000,7350000.000000
102100000.000000,6350000.000000
107100000.000000,6350000.000000
Z" /> 
<path style="fill:#000000; fill-opacity:1.0; 
stroke:#000000; stroke-width:120000.000000; stroke-opacity:1; 
stroke-linecap:round; stroke-linejoin:round;fill-rule:evenodd;"
d="M 88600000.000000,4975000.000000
88600000.000000,18975000.000000
88100000.000000,19975000.000000
83100000.000000,19975000.000000
82600000.000000,18975000.000000
82600000.000000,4975000.000000
83100000.000000,3975000.000000
88100000.000000,3975000.000000
Z" /> 
<path style="fill:#000000; fill-opacity:1.0; 
stroke:#000000; stroke-width:120000.000000; stroke-opacity:1; 
stroke-linecap:round; stroke-linejoin:round;fill-rule:evenodd;"
d="M 50600000.000000,4975000.000000
50600000.000000,18975000.000000
50100000.000000,19975000.000000
45100000.000000,19975000.000000
44600000.000000,18975000.000000
44600000.000000,4975000.000000
45100000.000000,3975000.000000
50100000.000000,3975000.000000
Z" /> 
<path style="fill:#000000; fill-opacity:1.0; 
stroke:#000000; stroke-width:120000.000000; stroke-opacity:1; 
stroke-linecap:round; stroke-linejoin:round;fill-rule:evenodd;"
d="M 31600000.000000,9725000.000000
31600000.000000,23725000.000000
31100000.000000,24725000.000000
26100000.000000,24725000.000000
25600000.000000,23725000.000000
25600000.000000,9725000.000000
26100000.000000,8725000.000000
31100000.000000,8725000.000000
Z" /> 
<path style="fill:#000000; fill-opacity:1.0; 
stroke:#000000; stroke-width:120000.000000; stroke-opacity:1; 
stroke-linecap:round; stroke-linejoin:round;fill-rule:evenodd;"
d="M 88600000.000000,42975000.000000
88600000.000000,56975000.000000
88100000.000000,57975000.000000
83100000.000000,57975000.000000
82600000.000000,56975000.000000
82600000.000000,42975000.000000
83100000.000000,41975000.000000
88100000.000000,41975000.000000
Z" /> 
<path style="fill:#000000; fill-opacity:1.0; 
stroke:#000000; stroke-width:120000.000000; stroke-opacity:1; 
stroke-linecap:round; stroke-linejoin:round;fill-rule:evenodd;"
d="M 101585367.000000,65269641.000000
101809511.000000,66364976.000000
98186044.000000,79887938.000000
97444262.000000,80724454.000000
92614633.000000,79430359.000000
92390489.000000,78335024.000000
96013956.000000,64812062.000000
96755738.000000,63975546.000000
Z" /> 
<path style="fill:#000000; fill-opacity:1.0; 
stroke:#000000; stroke-width:120000.000000; stroke-opacity:1; 
stroke-linecap:round; stroke-linejoin:round;fill-rule:evenodd;"
d="M 69600000.000000,2600000.000000
69600000.000000,16600000.000000
69100000.000000,17600000.000000
64100000.000000,17600000.000000
63600000.000000,16600000.000000
63600000.000000,2600000.000000
64100000.000000,1600000.000000
69100000.000000,1600000.000000
Z" /> 
<path style="fill:#000000; fill-opacity:1.0; 
stroke:#000000; stroke-width:120000.000000; stroke-opacity:1; 
stroke-linecap:round; stroke-linejoin:round;fill-rule:evenodd;"
d="M 69600000.000000,40600000.000000
69600000.000000,54600000.000000
69100000.000000,55600000.000000
64100000.000000,55600000.000000
63600000.000000,54600000.000000
63600000.000000,40600000.000000
64100000.000000,39600000.000000
69100000.000000,39600000.000000
Z" /> 
<path style="fill:#000000; fill-opacity:1.0; 
stroke:#000000; stroke-width:120000.000000; stroke-opacity:1; 
stroke-linecap:round; stroke-linejoin:round;fill-rule:evenodd;"
d="M 12600000.000000,9725000.000000
12600000.000000,23725000.000000
12100000.000000,24725000.000000
7100000.000000,24725000.000000
6600000.000000,23725000.000000
6600000.000000,9725000.000000
7100000.000000,8725000.000000
12100000.000000,8725000.000000
Z" /> 
<g >
</g>
<g >
</g>
<g >
</g>
<g >
</g>
<g >
</g>
<g >
</g>
<g >
</g>
<g >
</g>
<g >
</g>
<g >
</g>
<g >
</g>
<g >
</g>
<g >
</g>
<g >
</g>
<g >
</g>
<g >
</g>
<g >
</g>
<g >
</g>
<g >
</g>
<g >
</g>
<g >
</g>
<g >
</g>
<g >
</g>
<g >
</g>
<g >
</g>
<g >
</g>
<g >
</g>
<g >
</g>
<g >
</g>
<g >
</g>
<g >
</g>
<g >
</g>
<g >
</g>
<g >
</g>
<g >
</g>
<g >
</g>
<g >
</g>
<g >
</g>
<g >
</g>
<g >
</g>
<g >
</g>
<g >
</g>
<g >
</g>
<g >
</g>
<g >
</g>
<g >
</g>
<g >
</g>
<g >
</g>
<g >
</g>
<g >
</g>
<g >
</g>
<g >
</g>
<g >
</g>
<g >
</g>
<g >
</g>
<g >
</g>
<g >
</g>
<g >
</g>
<g >
</g>
<g >
</g>
<g >
</g>
<g >
</g>
<g >
</g>
<g >
</g>
<g >
</g>
<g >
</g>
<g >
</g>
<g >
</g>
<g >
</g>
<g >
</g>
<g >
</g>
<g >
</g>
<g >
</g>
<g >
</g>
<g >
</g>
<g >
</g>
<g >
</g>
<g >
</g>
<g >
</g>
<g >
</g>
<g >
</g>
<g >
</g>
<g >
</g>
<g >
</g>
<g >
</g>
<g >
</g>
<g >
</g>
<g >
</g>
<g >
</g>
<g >
</g>
<g >
</g>
<g >
</g>
<g >
</g>
<g >
</g>
<g >
</g>
<g >
</g>
<g >
</g>
<g >
</g>
<g >
</g>
</g> 
</svg>
