<?xml version="1.0"?>
<!DOCTYPE svg PUBLIC "-//W3C//DTD SVG 1.1//EN" "http://www.w3.org/Graphics/SVG/1.1/DTD/svg11.dtd">
<svg width="136.4249999999995mm" height="94.07112028356855mm" viewBox="0 0 136.4249999999995 94.07112028356855" xmlns="http://www.w3.org/2000/svg" version="1.1">
<g id="Sketch002" transform="translate(0.734763,0.743965) scale(1,-1)">
<path id="Sketch002_w0000"  d="M 56.456289733724 -63.989982266271 L 56.102737 -63.843535000003996 L 1.1027369999999999 -63.843534999999996 Q 0.6504374639808862 -63.7958345360191 0.6027370000010002 -63.343534999999996 L 0.602737 -8.093535 Q 0.6504374639808905 -7.641235463980889 1.1027369999999999 -7.593535000001 L 38.102737 -7.593534999999999 Q 38.55503653601912 -7.545834536019115 38.602736999999 -7.093535 L 38.602737 -3.3435349999999997 Q 38.65043746398087 -2.8912354639808866 39.102737000000005 -2.843535000001 L 57.102737 -2.8435349999999997 Q 57.55503653601912 -2.795834536019113 57.60273699999899 -2.3435349999999997 L 57.602737 -1.093535 Q 57.65043746398088 -0.6412354639808863 58.102737 -0.5935350000010002 L 75.10273699999999 -0.5935349999999999 Q 75.5550365360191 -0.6412354639808842 75.602736999999 -1.0935349999999997 L 75.60273699999999 -2.3435349999999997 Q 75.65043746398086 -2.7958345360191172 76.10273699999999 -2.8435349999989974 L 94.10273699999999 -2.8435349999999997 Q 94.5550365360191 -2.891235463980884 94.602736999999 -3.3435349999999997 L 94.60273699999999 -4.843535 Q 94.65043746398086 -5.295834536019116 95.10273699999999 -5.3435349999989965 L 113.10273699999999 -5.343535 Q 113.5550365360191 -5.391235463980884 113.602736999999 -5.843535 L 113.60273699999999 -7.093534999999999 Q 113.65043746398086 -7.545834536019116 114.10273699999999 -7.593534999998997 L 133.852737 -7.593534999999999 Q 134.3050370824364 -7.641234917563613 134.352737 -8.093535 L 134.352737 -67.568535 " stroke="#191919" stroke-width="0.35 px" style="stroke-width:0.35;stroke-miterlimit:4;stroke-dasharray:none;fill:none;fill-opacity:1;fill-rule: evenodd"/>
<path id="Sketch002_w0001"  d="M 56.452737 -63.993534999999994 L 67.002737 -78.443535 " stroke="#191919" stroke-width="0.35 px" style="stroke-width:0.35;stroke-miterlimit:4;stroke-dasharray:none;fill:none;fill-opacity:1;fill-rule: evenodd"/>
<path id="Sketch002_w0002"  d="M 66.999184266276 -78.447087733729 L 67.35273699999999 -78.593534999996 L 104.052737 -83.368535 " stroke="#191919" stroke-width="0.35 px" style="stroke-width:0.35;stroke-miterlimit:4;stroke-dasharray:none;fill:none;fill-opacity:1;fill-rule: evenodd"/>
<path id="Sketch002_w0003"  d="M 104.677737 -83.493535 L 119.002737 -91.768535 " stroke="#191919" stroke-width="0.35 px" style="stroke-width:0.35;stroke-miterlimit:4;stroke-dasharray:none;fill:none;fill-opacity:1;fill-rule: evenodd"/>
<path id="Sketch002_w0004"  d="M 104.67773694553401 -83.493535180254 L 104.02329297425601 -83.36387926258699 " stroke="#191919" stroke-width="0.35 px" style="stroke-width:0.35;stroke-miterlimit:4;stroke-dasharray:none;fill:none;fill-opacity:1;fill-rule: evenodd"/>
<path id="Sketch002_w0005"  d="M 134.12550924564 -68.441235751496 Q 134.35648882472336 -68.03544424221937 134.352736655645 -67.568535004592 " stroke="#191919" stroke-width="0.35 px" style="stroke-width:0.35;stroke-miterlimit:4;stroke-dasharray:none;fill:none;fill-opacity:1;fill-rule: evenodd"/>
<path id="Sketch002_w0006"  d="M 118.96925068520699 -91.760956467113 C 119.50464067932407 -92.19719583467771 120.5671355896666 -91.9880646840657 120.897263346558 -91.38146523159 " stroke="#191919" stroke-width="0.35 px" style="stroke-width:0.35;stroke-miterlimit:4;stroke-dasharray:none;fill:none;fill-opacity:1;fill-rule: evenodd"/>
<path id="Sketch002_w0007"  d="M 120.89999999999999 -91.375 L 134.125 -68.45 " stroke="#191919" stroke-width="0.35 px" style="stroke-width:0.35;stroke-miterlimit:4;stroke-dasharray:none;fill:none;fill-opacity:1;fill-rule: evenodd"/>
<title>b'Sketch002'</title>
</g>
</svg>