<?xml version="1.0" standalone="no"?>
 <!DOCTYPE svg PUBLIC "-//W3C//DTD SVG 1.1//EN" 
 "http://www.w3.org/Graphics/SVG/1.1/DTD/svg11.dtd"> 
<svg
  xmlns:svg="http://www.w3.org/2000/svg"
  xmlns="http://www.w3.org/2000/svg"
  xmlns:xlink="http://www.w3.org/1999/xlink"
  version="1.1"
  width="13.662660cm" height="9.329420cm" viewBox="0 0 136626600 93294200">
<title>SVG Picture created as corne-cherry-Edge_Cuts.svg date 2022/05/10 17:13:09 </title>
  <desc>Picture generated by PCBNEW </desc>
<g style="fill:#000000; fill-opacity:1.000000;stroke:#000000; stroke-opacity:1.000000;
stroke-linecap:round; stroke-linejoin:round;"
 transform="translate(0 0) scale(1 1)">
</g>
<g style="fill:#000000; fill-opacity:0.0; 
stroke:#000000; stroke-width:0.000000; stroke-opacity:1; 
stroke-linecap:round; stroke-linejoin:round;">
</g>
<g style="fill:#000000; fill-opacity:0.0; 
stroke:#000000; stroke-width:150000.000000; stroke-opacity:1; 
stroke-linecap:round; stroke-linejoin:round;">
<path d="M113102737 5343535
L95102737 5343535
" />
<path d="M94602737 4843535
L94602737 3343535
" />
<path d="M94102737 2843535
L76102737 2843535
" />
<path d="M75602737 2343535
L75602737 1093535
" />
<path d="M75102737 593535
L58102737 593535
" />
<path d="M57602737 1093535
L57602737 2343535
" />
<path d="M57102737 2843535
L39102737 2843535
" />
<path d="M38602737 3343535
L38602737 7093535
" />
<path d="M38102737 7593535
L1102737 7593535
" />
<path d="M602737 8093535
L602737 63343535
" />
<path d="M56102737 63843535
L1102737 63843535
" />
<path d="M134352737 8093535
L134352737 67568535
" />
<path d="M134352737.000000 8093535.000000 A500000.000000 500000.000000 0.0 0 0 133852737.000000 7593535.000000" />
<path d="M94602737.000001 4843535.000000 A500001.000000 500001.000000 0.0 0 0 95102737.000000 5343534.999999" />
<path d="M94602736.999999 3343535.000000 A500001.000000 500001.000000 0.0 0 0 94102737.000000 2843535.000001" />
<path d="M75602737.000001 2343535.000000 A500001.000000 500001.000000 0.0 0 0 76102737.000000 2843534.999999" />
<path d="M75602736.999999 1093535.000000 A500001.000000 500001.000000 0.0 0 0 75102737.000000 593535.000001" />
<path d="M58102737.000000 593535.000001 A500001.000000 500001.000000 0.0 0 0 57602737.000001 1093535.000000" />
<path d="M57102737.000000 2843534.999999 A500001.000000 500001.000000 0.0 0 0 57602736.999999 2343535.000000" />
<path d="M39102737.000000 2843535.000001 A500001.000000 500001.000000 0.0 0 0 38602737.000001 3343535.000000" />
<path d="M38102737.000000 7593534.999999 A500001.000000 500001.000000 0.0 0 0 38602736.999999 7093535.000000" />
<path d="M1102737.000000 7593535.000001 A500001.000000 500001.000000 0.0 0 0 602737.000001 8093535.000000" />
<path d="M602737.000001 63343535.000000 A500001.000000 500001.000000 0.0 0 0 1102737.000000 63843534.999999" />
<path d="M56456289.733724 63989982.266271 A499992.000000 499992.000000 0.0 0 0 56102737.000000 63843535.000004" />
<path d="M133852737 7593535
L114102737 7593535
" />
<path d="M113602737.000001 7093535.000000 A500001.000000 500001.000000 0.0 0 0 114102737.000000 7593534.999999" />
<path d="M113602736.999999 5843535.000000 A500001.000000 500001.000000 0.0 0 0 113102737.000000 5343535.000001" />
<path d="M113602737 5843535
L113602737 7093535
" />
<path d="M56452737 63993535
L67002737 78443535
" />
<path d="M66999184.266276 78447087.733729 A499992.000000 499992.000000 0.0 0 0 67352737.000000 78593534.999996" />
<path d="M67352737 78593535
L104052737 83368535
" />
<path d="M104677737 83493535
L119002737 91768535
" />
<path d="M104677736.945534 83493535.180254 A3414392.000000 3414392.000000 0.0 0 0 104023292.974256 83363879.262587" />
<path d="M134125509.245640 68441235.751496 A1702451.000000 1702451.000000 0.0 0 0 134352736.655645 67568535.004592" />
<path d="M118969250.685207 91760956.467113 A1386767.000000 1386767.000000 0.0 0 0 120897263.346558 91381465.231590" />
<path d="M120900000 91375000
L134125000 68450000
" />
<g >
</g>
<g >
</g>
<g >
</g>
<g >
</g>
<g >
</g>
<g >
</g>
<g >
</g>
<g >
</g>
<g >
</g>
<g >
</g>
<g >
</g>
<g >
</g>
<g >
</g>
<g >
</g>
<g >
</g>
<g >
</g>
<g >
</g>
<g >
</g>
<g >
</g>
<g >
</g>
<g >
</g>
<g >
</g>
<g >
</g>
<g >
</g>
<g >
</g>
<g >
</g>
<g >
</g>
<g >
</g>
<g >
</g>
<g >
</g>
<g >
</g>
<g >
</g>
<g >
</g>
<g >
</g>
<g >
</g>
<g >
</g>
<g >
</g>
<g >
</g>
<g >
</g>
<g >
</g>
<g >
</g>
<g >
</g>
<g >
</g>
<g >
</g>
<g >
</g>
<g >
</g>
<g >
</g>
<g >
</g>
<g >
</g>
<g >
</g>
<g >
</g>
<g >
</g>
<g >
</g>
<g >
</g>
<g >
</g>
<g >
</g>
<g >
</g>
<g >
</g>
<g >
</g>
<g >
</g>
<g >
</g>
<g >
</g>
<g >
</g>
<g >
</g>
<g >
</g>
<g >
</g>
<g >
</g>
<g >
</g>
<g >
</g>
<g >
</g>
<g >
</g>
<g >
</g>
<g >
</g>
<g >
</g>
<g >
</g>
<g >
</g>
<g >
</g>
<g >
</g>
<g >
</g>
<g >
</g>
<g >
</g>
<g >
</g>
<g >
</g>
<g >
</g>
<g >
</g>
<g >
</g>
<g >
</g>
<g >
</g>
<g >
</g>
<g >
</g>
<g >
</g>
<g >
</g>
<g >
</g>
<g >
</g>
<g >
</g>
<g >
</g>
<g >
</g>
<g >
</g>
<g >
</g>
</g> 
</svg>
