solid OpenSCAD_Model
  facet normal 0 0 -1
    outer loop
      vertex 35 -164 -8
      vertex 65 -120 -8
      vertex 65 -164 -8
    endloop
  endfacet
  facet normal -0 0 -1
    outer loop
      vertex 65 -120 -8
      vertex 35 -164 -8
      vertex 35 -120 -8
    endloop
  endfacet
  facet normal 1 0 0
    outer loop
      vertex 65 -120 33
      vertex 65 -121.576 30.5
      vertex 65 -120 -8
    endloop
  endfacet
  facet normal 1 0 0
    outer loop
      vertex 65 -120 33
      vertex 65 -121.847 31.1533
      vertex 65 -121.576 30.5
    endloop
  endfacet
  facet normal 1 0 0
    outer loop
      vertex 65 -120 33
      vertex 65 -122.5 31.4239
      vertex 65 -121.847 31.1533
    endloop
  endfacet
  facet normal 1 0 0
    outer loop
      vertex 65 -120 33
      vertex 65 -161.5 31.4239
      vertex 65 -122.5 31.4239
    endloop
  endfacet
  facet normal 1 0 0
    outer loop
      vertex 65 -162.424 30.5
      vertex 65 -164 33
      vertex 65 -162.424 -5.5
    endloop
  endfacet
  facet normal 1 0 0
    outer loop
      vertex 65 -162.153 31.1533
      vertex 65 -164 33
      vertex 65 -162.424 30.5
    endloop
  endfacet
  facet normal 1 0 0
    outer loop
      vertex 65 -161.5 31.4239
      vertex 65 -164 33
      vertex 65 -162.153 31.1533
    endloop
  endfacet
  facet normal 1 -0 0
    outer loop
      vertex 65 -164 33
      vertex 65 -161.5 31.4239
      vertex 65 -120 33
    endloop
  endfacet
  facet normal 1 -0 0
    outer loop
      vertex 65 -121.576 -5.5
      vertex 65 -120 -8
      vertex 65 -121.576 30.5
    endloop
  endfacet
  facet normal 1 -0 0
    outer loop
      vertex 65 -121.847 -6.15328
      vertex 65 -120 -8
      vertex 65 -121.576 -5.5
    endloop
  endfacet
  facet normal 1 -0 0
    outer loop
      vertex 65 -122.5 -6.42388
      vertex 65 -120 -8
      vertex 65 -121.847 -6.15328
    endloop
  endfacet
  facet normal 1 -0 0
    outer loop
      vertex 65 -161.5 -6.42388
      vertex 65 -120 -8
      vertex 65 -122.5 -6.42388
    endloop
  endfacet
  facet normal 1 0 0
    outer loop
      vertex 65 -161.5 -6.42388
      vertex 65 -164 -8
      vertex 65 -120 -8
    endloop
  endfacet
  facet normal 1 0 0
    outer loop
      vertex 65 -162.153 -6.15328
      vertex 65 -164 -8
      vertex 65 -161.5 -6.42388
    endloop
  endfacet
  facet normal 1 0 0
    outer loop
      vertex 65 -162.424 -5.5
      vertex 65 -164 -8
      vertex 65 -162.153 -6.15328
    endloop
  endfacet
  facet normal 1 0 0
    outer loop
      vertex 65 -164 -8
      vertex 65 -162.424 -5.5
      vertex 65 -164 33
    endloop
  endfacet
  facet normal -1 0 0
    outer loop
      vertex 35 -164 -8
      vertex 35 -120 33
      vertex 35 -120 -8
    endloop
  endfacet
  facet normal -1 -0 0
    outer loop
      vertex 35 -120 33
      vertex 35 -164 -8
      vertex 35 -164 33
    endloop
  endfacet
  facet normal -0 0 1
    outer loop
      vertex 35 -120 33
      vertex 65 -164 33
      vertex 65 -120 33
    endloop
  endfacet
  facet normal 0 0 1
    outer loop
      vertex 65 -164 33
      vertex 35 -120 33
      vertex 35 -164 33
    endloop
  endfacet
  facet normal 0 1 -0
    outer loop
      vertex 65 -120 -8
      vertex 35 -120 33
      vertex 65 -120 33
    endloop
  endfacet
  facet normal 0 1 0
    outer loop
      vertex 35 -120 33
      vertex 65 -120 -8
      vertex 35 -120 -8
    endloop
  endfacet
  facet normal 0 -1 0
    outer loop
      vertex 35 -164 -8
      vertex 65 -164 33
      vertex 35 -164 33
    endloop
  endfacet
  facet normal 0 -1 -0
    outer loop
      vertex 65 -164 33
      vertex 35 -164 -8
      vertex 65 -164 -8
    endloop
  endfacet
  facet normal 0.67832 0.280815 0.678988
    outer loop
      vertex 37.1173 -162.153 -6.15328
      vertex 36.5761 -161.5 -5.88268
      vertex 36.5761 -161.771 -5.7706
    endloop
  endfacet
  facet normal 0.678383 0.678634 0.281518
    outer loop
      vertex 37.1173 -162.153 -6.15328
      vertex 36.5761 -161.883 -5.5
      vertex 37.1173 -162.424 -5.5
    endloop
  endfacet
  facet normal 0.678575 0.281198 0.678575
    outer loop
      vertex 37.1173 -162.153 -6.15328
      vertex 37.1173 -161.5 -6.42388
      vertex 36.5761 -161.5 -5.88268
    endloop
  endfacet
  facet normal 0.678575 -0.281198 -0.678575
    outer loop
      vertex 36.5761 -122.5 30.8827
      vertex 37.1173 -121.847 31.1533
      vertex 37.1173 -122.5 31.4239
    endloop
  endfacet
  facet normal 0.678343 0.28085 -0.678951
    outer loop
      vertex 36.5761 -161.771 30.7706
      vertex 36.5761 -161.5 30.8827
      vertex 37.1173 -162.153 31.1533
    endloop
  endfacet
  facet normal 0.678575 0.281198 -0.678575
    outer loop
      vertex 37.1173 -162.153 31.1533
      vertex 36.5761 -161.5 30.8827
      vertex 37.1173 -161.5 31.4239
    endloop
  endfacet
  facet normal 0.706976 0.707237 -0
    outer loop
      vertex 37.1173 -162.424 -5.5
      vertex 36.5761 -161.883 30.5
      vertex 37.1173 -162.424 30.5
    endloop
  endfacet
  facet normal 0.706976 0.707237 0
    outer loop
      vertex 36.5761 -161.883 30.5
      vertex 37.1173 -162.424 -5.5
      vertex 36.5761 -161.883 -5.5
    endloop
  endfacet
  facet normal 0 -1 0
    outer loop
      vertex 37.1173 -121.576 -5.5
      vertex 65 -121.576 30.5
      vertex 37.1173 -121.576 30.5
    endloop
  endfacet
  facet normal 0 -1 -0
    outer loop
      vertex 65 -121.576 30.5
      vertex 37.1173 -121.576 -5.5
      vertex 65 -121.576 -5.5
    endloop
  endfacet
  facet normal 0 -0.923682 -0.383159
    outer loop
      vertex 37.1173 -121.576 30.5
      vertex 65 -121.847 31.1533
      vertex 37.1173 -121.847 31.1533
    endloop
  endfacet
  facet normal 0 -0.923682 -0.383159
    outer loop
      vertex 65 -121.847 31.1533
      vertex 37.1173 -121.576 30.5
      vertex 65 -121.576 30.5
    endloop
  endfacet
  facet normal 0 -0.382827 0.92382
    outer loop
      vertex 37.1173 -121.847 -6.15328
      vertex 65 -122.5 -6.42388
      vertex 65 -121.847 -6.15328
    endloop
  endfacet
  facet normal 0 -0.382827 0.92382
    outer loop
      vertex 65 -122.5 -6.42388
      vertex 37.1173 -121.847 -6.15328
      vertex 37.1173 -122.5 -6.42388
    endloop
  endfacet
  facet normal 0 0.923682 -0.383159
    outer loop
      vertex 65 -162.424 30.5
      vertex 37.1173 -162.153 31.1533
      vertex 65 -162.153 31.1533
    endloop
  endfacet
  facet normal 0 0.923682 -0.383159
    outer loop
      vertex 37.1173 -162.153 31.1533
      vertex 65 -162.424 30.5
      vertex 37.1173 -162.424 30.5
    endloop
  endfacet
  facet normal 0 0 -1
    outer loop
      vertex 37.1173 -161.5 31.4239
      vertex 65 -122.5 31.4239
      vertex 65 -161.5 31.4239
    endloop
  endfacet
  facet normal -0 0 -1
    outer loop
      vertex 65 -122.5 31.4239
      vertex 37.1173 -161.5 31.4239
      vertex 37.1173 -122.5 31.4239
    endloop
  endfacet
  facet normal 0.678385 0.678636 -0.28151
    outer loop
      vertex 37.1173 -162.424 30.5
      vertex 36.5761 -161.883 30.5
      vertex 37.1173 -162.153 31.1533
    endloop
  endfacet
  facet normal 0.678096 0.679103 -0.281077
    outer loop
      vertex 36.5761 -161.883 30.5
      vertex 36.5761 -161.771 30.7706
      vertex 37.1173 -162.153 31.1533
    endloop
  endfacet
  facet normal -0 0 1
    outer loop
      vertex 37.1173 -122.5 -6.42388
      vertex 65 -161.5 -6.42388
      vertex 65 -122.5 -6.42388
    endloop
  endfacet
  facet normal 0 0 1
    outer loop
      vertex 65 -161.5 -6.42388
      vertex 37.1173 -122.5 -6.42388
      vertex 37.1173 -161.5 -6.42388
    endloop
  endfacet
  facet normal 0.67832 -0.280815 0.678988
    outer loop
      vertex 36.5761 -122.5 -5.88268
      vertex 37.1173 -121.847 -6.15328
      vertex 36.5761 -122.229 -5.7706
    endloop
  endfacet
  facet normal 0.707107 -0 0.707107
    outer loop
      vertex 36.5761 -161.5 -5.88268
      vertex 37.1173 -122.5 -6.42388
      vertex 36.5761 -122.5 -5.88268
    endloop
  endfacet
  facet normal 0.707107 0 0.707107
    outer loop
      vertex 37.1173 -122.5 -6.42388
      vertex 36.5761 -161.5 -5.88268
      vertex 37.1173 -161.5 -6.42388
    endloop
  endfacet
  facet normal 0.678385 -0.678636 -0.28151
    outer loop
      vertex 36.5761 -122.117 30.5
      vertex 37.1173 -121.576 30.5
      vertex 37.1173 -121.847 31.1533
    endloop
  endfacet
  facet normal 1 0 0
    outer loop
      vertex 36.5761 -122.5 30.8827
      vertex 36.5761 -122.117 30.5
      vertex 36.5761 -122.229 30.7706
    endloop
  endfacet
  facet normal 1 0 0
    outer loop
      vertex 36.5761 -122.117 30.5
      vertex 36.5761 -122.5 30.8827
      vertex 36.5761 -122.117 -5.5
    endloop
  endfacet
  facet normal 1 0 0
    outer loop
      vertex 36.5761 -122.5 -5.88268
      vertex 36.5761 -122.117 -5.5
      vertex 36.5761 -122.5 30.8827
    endloop
  endfacet
  facet normal 1 0 0
    outer loop
      vertex 36.5761 -122.117 -5.5
      vertex 36.5761 -122.5 -5.88268
      vertex 36.5761 -122.229 -5.7706
    endloop
  endfacet
  facet normal 1 -0 0
    outer loop
      vertex 36.5761 -161.5 30.8827
      vertex 36.5761 -122.5 -5.88268
      vertex 36.5761 -122.5 30.8827
    endloop
  endfacet
  facet normal 1 0 0
    outer loop
      vertex 36.5761 -161.5 30.8827
      vertex 36.5761 -161.5 -5.88268
      vertex 36.5761 -122.5 -5.88268
    endloop
  endfacet
  facet normal 1 0 0
    outer loop
      vertex 36.5761 -161.883 30.5
      vertex 36.5761 -161.5 30.8827
      vertex 36.5761 -161.771 30.7706
    endloop
  endfacet
  facet normal 1 0 0
    outer loop
      vertex 36.5761 -161.5 30.8827
      vertex 36.5761 -161.883 30.5
      vertex 36.5761 -161.5 -5.88268
    endloop
  endfacet
  facet normal 1 -0 0
    outer loop
      vertex 36.5761 -161.883 -5.5
      vertex 36.5761 -161.5 -5.88268
      vertex 36.5761 -161.883 30.5
    endloop
  endfacet
  facet normal 1 0 0
    outer loop
      vertex 36.5761 -161.5 -5.88268
      vertex 36.5761 -161.883 -5.5
      vertex 36.5761 -161.771 -5.7706
    endloop
  endfacet
  facet normal 0.678091 0.679108 0.281079
    outer loop
      vertex 37.1173 -162.153 -6.15328
      vertex 36.5761 -161.771 -5.7706
      vertex 36.5761 -161.883 -5.5
    endloop
  endfacet
  facet normal 0 1 -0
    outer loop
      vertex 65 -162.424 -5.5
      vertex 37.1173 -162.424 30.5
      vertex 65 -162.424 30.5
    endloop
  endfacet
  facet normal 0 1 0
    outer loop
      vertex 37.1173 -162.424 30.5
      vertex 65 -162.424 -5.5
      vertex 37.1173 -162.424 -5.5
    endloop
  endfacet
  facet normal -0 0.382827 0.92382
    outer loop
      vertex 37.1173 -161.5 -6.42388
      vertex 65 -162.153 -6.15328
      vertex 65 -161.5 -6.42388
    endloop
  endfacet
  facet normal 0 0.382827 0.92382
    outer loop
      vertex 65 -162.153 -6.15328
      vertex 37.1173 -161.5 -6.42388
      vertex 37.1173 -162.153 -6.15328
    endloop
  endfacet
  facet normal 0.707107 0 -0.707107
    outer loop
      vertex 37.1173 -161.5 31.4239
      vertex 36.5761 -122.5 30.8827
      vertex 37.1173 -122.5 31.4239
    endloop
  endfacet
  facet normal 0.707107 0 -0.707107
    outer loop
      vertex 36.5761 -122.5 30.8827
      vertex 37.1173 -161.5 31.4239
      vertex 36.5761 -161.5 30.8827
    endloop
  endfacet
  facet normal 0.678575 -0.281198 0.678575
    outer loop
      vertex 37.1173 -122.5 -6.42388
      vertex 37.1173 -121.847 -6.15328
      vertex 36.5761 -122.5 -5.88268
    endloop
  endfacet
  facet normal 0.678091 -0.679108 0.281079
    outer loop
      vertex 36.5761 -122.229 -5.7706
      vertex 37.1173 -121.847 -6.15328
      vertex 36.5761 -122.117 -5.5
    endloop
  endfacet
  facet normal 0.678383 -0.678634 0.281518
    outer loop
      vertex 37.1173 -121.847 -6.15328
      vertex 37.1173 -121.576 -5.5
      vertex 36.5761 -122.117 -5.5
    endloop
  endfacet
  facet normal 0 0.382827 -0.92382
    outer loop
      vertex 37.1173 -162.153 31.1533
      vertex 65 -161.5 31.4239
      vertex 65 -162.153 31.1533
    endloop
  endfacet
  facet normal 0 0.382827 -0.92382
    outer loop
      vertex 65 -161.5 31.4239
      vertex 37.1173 -162.153 31.1533
      vertex 37.1173 -161.5 31.4239
    endloop
  endfacet
  facet normal 0.678343 -0.28085 -0.678951
    outer loop
      vertex 36.5761 -122.5 30.8827
      vertex 36.5761 -122.229 30.7706
      vertex 37.1173 -121.847 31.1533
    endloop
  endfacet
  facet normal 0.678096 -0.679103 -0.281077
    outer loop
      vertex 36.5761 -122.229 30.7706
      vertex 36.5761 -122.117 30.5
      vertex 37.1173 -121.847 31.1533
    endloop
  endfacet
  facet normal 0 -0.382827 -0.92382
    outer loop
      vertex 37.1173 -122.5 31.4239
      vertex 65 -121.847 31.1533
      vertex 65 -122.5 31.4239
    endloop
  endfacet
  facet normal -0 -0.382827 -0.92382
    outer loop
      vertex 65 -121.847 31.1533
      vertex 37.1173 -122.5 31.4239
      vertex 37.1173 -121.847 31.1533
    endloop
  endfacet
  facet normal 0 0.923678 0.383169
    outer loop
      vertex 65 -162.153 -6.15328
      vertex 37.1173 -162.424 -5.5
      vertex 65 -162.424 -5.5
    endloop
  endfacet
  facet normal 0 0.923678 0.383169
    outer loop
      vertex 37.1173 -162.424 -5.5
      vertex 65 -162.153 -6.15328
      vertex 37.1173 -162.153 -6.15328
    endloop
  endfacet
  facet normal 0 -0.923678 0.383169
    outer loop
      vertex 37.1173 -121.847 -6.15328
      vertex 65 -121.576 -5.5
      vertex 37.1173 -121.576 -5.5
    endloop
  endfacet
  facet normal 0 -0.923678 0.383169
    outer loop
      vertex 65 -121.576 -5.5
      vertex 37.1173 -121.847 -6.15328
      vertex 65 -121.847 -6.15328
    endloop
  endfacet
  facet normal 0.706976 -0.707237 0
    outer loop
      vertex 36.5761 -122.117 30.5
      vertex 37.1173 -121.576 -5.5
      vertex 37.1173 -121.576 30.5
    endloop
  endfacet
  facet normal 0.706976 -0.707237 0
    outer loop
      vertex 37.1173 -121.576 -5.5
      vertex 36.5761 -122.117 30.5
      vertex 36.5761 -122.117 -5.5
    endloop
  endfacet
endsolid OpenSCAD_Model
