solid OpenSCAD_Model
  facet normal 1 -0 0
    outer loop
      vertex 148 -164 33
      vertex 148 -120 13
      vertex 148 -120 33
    endloop
  endfacet
  facet normal 1 0 0
    outer loop
      vertex 148 -120 13
      vertex 148 -164 33
      vertex 148 -164 13
    endloop
  endfacet
  facet normal 0 0 1
    outer loop
      vertex 148 -120 33
      vertex 146.424 -122.5 33
      vertex 148 -164 33
    endloop
  endfacet
  facet normal 0 0 1
    outer loop
      vertex 148 -120 33
      vertex 146.153 -121.847 33
      vertex 146.424 -122.5 33
    endloop
  endfacet
  facet normal 0 0 1
    outer loop
      vertex 148 -120 33
      vertex 145.5 -121.576 33
      vertex 146.153 -121.847 33
    endloop
  endfacet
  facet normal 0 0 1
    outer loop
      vertex 148 -120 33
      vertex 70.5 -121.576 33
      vertex 145.5 -121.576 33
    endloop
  endfacet
  facet normal 0 0 1
    outer loop
      vertex 69.5761 -122.5 33
      vertex 68 -120 33
      vertex 69.5761 -161.5 33
    endloop
  endfacet
  facet normal 0 0 1
    outer loop
      vertex 69.8467 -121.847 33
      vertex 68 -120 33
      vertex 69.5761 -122.5 33
    endloop
  endfacet
  facet normal 0 0 1
    outer loop
      vertex 70.5 -121.576 33
      vertex 68 -120 33
      vertex 69.8467 -121.847 33
    endloop
  endfacet
  facet normal -0 0 1
    outer loop
      vertex 68 -120 33
      vertex 70.5 -121.576 33
      vertex 148 -120 33
    endloop
  endfacet
  facet normal -0 0 1
    outer loop
      vertex 146.424 -161.5 33
      vertex 148 -164 33
      vertex 146.424 -122.5 33
    endloop
  endfacet
  facet normal -0 0 1
    outer loop
      vertex 146.153 -162.153 33
      vertex 148 -164 33
      vertex 146.424 -161.5 33
    endloop
  endfacet
  facet normal -0 0 1
    outer loop
      vertex 145.5 -162.424 33
      vertex 148 -164 33
      vertex 146.153 -162.153 33
    endloop
  endfacet
  facet normal -0 0 1
    outer loop
      vertex 70.5 -162.424 33
      vertex 148 -164 33
      vertex 145.5 -162.424 33
    endloop
  endfacet
  facet normal 0 0 1
    outer loop
      vertex 70.5 -162.424 33
      vertex 68 -164 33
      vertex 148 -164 33
    endloop
  endfacet
  facet normal 0 0 1
    outer loop
      vertex 69.8467 -162.153 33
      vertex 68 -164 33
      vertex 70.5 -162.424 33
    endloop
  endfacet
  facet normal 0 0 1
    outer loop
      vertex 69.5761 -161.5 33
      vertex 68 -164 33
      vertex 69.8467 -162.153 33
    endloop
  endfacet
  facet normal 0 0 1
    outer loop
      vertex 68 -164 33
      vertex 69.5761 -161.5 33
      vertex 68 -120 33
    endloop
  endfacet
  facet normal 0 0 -1
    outer loop
      vertex 68 -164 13
      vertex 148 -120 13
      vertex 148 -164 13
    endloop
  endfacet
  facet normal -0 0 -1
    outer loop
      vertex 148 -120 13
      vertex 68 -164 13
      vertex 68 -120 13
    endloop
  endfacet
  facet normal -1 0 0
    outer loop
      vertex 68 -164 13
      vertex 68 -120 33
      vertex 68 -120 13
    endloop
  endfacet
  facet normal -1 -0 0
    outer loop
      vertex 68 -120 33
      vertex 68 -164 13
      vertex 68 -164 33
    endloop
  endfacet
  facet normal 0 1 -0
    outer loop
      vertex 148 -120 13
      vertex 68 -120 33
      vertex 148 -120 33
    endloop
  endfacet
  facet normal 0 1 0
    outer loop
      vertex 68 -120 33
      vertex 148 -120 13
      vertex 68 -120 13
    endloop
  endfacet
  facet normal 0 -1 0
    outer loop
      vertex 68 -164 13
      vertex 148 -164 33
      vertex 68 -164 33
    endloop
  endfacet
  facet normal 0 -1 -0
    outer loop
      vertex 148 -164 33
      vertex 68 -164 13
      vertex 148 -164 13
    endloop
  endfacet
  facet normal 0.678575 -0.281198 0.678575
    outer loop
      vertex 70.1173 -122.5 14.5761
      vertex 69.8467 -121.847 15.1173
      vertex 69.5761 -122.5 15.1173
    endloop
  endfacet
  facet normal 0.678575 0.281198 0.678575
    outer loop
      vertex 69.8467 -162.153 15.1173
      vertex 70.1173 -161.5 14.5761
      vertex 69.5761 -161.5 15.1173
    endloop
  endfacet
  facet normal 0.28151 0.678636 0.678385
    outer loop
      vertex 70.5 -162.424 15.1173
      vertex 70.5 -161.883 14.5761
      vertex 69.8467 -162.153 15.1173
    endloop
  endfacet
  facet normal 1 -0 0
    outer loop
      vertex 69.5761 -161.5 33
      vertex 69.5761 -122.5 15.1173
      vertex 69.5761 -122.5 33
    endloop
  endfacet
  facet normal 1 0 0
    outer loop
      vertex 69.5761 -122.5 15.1173
      vertex 69.5761 -161.5 33
      vertex 69.5761 -161.5 15.1173
    endloop
  endfacet
  facet normal 0.383159 0.923682 -0
    outer loop
      vertex 70.5 -162.424 15.1173
      vertex 69.8467 -162.153 33
      vertex 70.5 -162.424 33
    endloop
  endfacet
  facet normal 0.383159 0.923682 0
    outer loop
      vertex 69.8467 -162.153 33
      vertex 70.5 -162.424 15.1173
      vertex 69.8467 -162.153 15.1173
    endloop
  endfacet
  facet normal 0.281077 0.679103 0.678096
    outer loop
      vertex 70.5 -161.883 14.5761
      vertex 70.2294 -161.771 14.5761
      vertex 69.8467 -162.153 15.1173
    endloop
  endfacet
  facet normal 0.281077 -0.679103 0.678096
    outer loop
      vertex 70.2294 -122.229 14.5761
      vertex 70.5 -122.117 14.5761
      vertex 69.8467 -121.847 15.1173
    endloop
  endfacet
  facet normal 0 1 -0
    outer loop
      vertex 145.5 -162.424 15.1173
      vertex 70.5 -162.424 33
      vertex 145.5 -162.424 33
    endloop
  endfacet
  facet normal 0 1 0
    outer loop
      vertex 70.5 -162.424 33
      vertex 145.5 -162.424 15.1173
      vertex 70.5 -162.424 15.1173
    endloop
  endfacet
  facet normal -0.281629 -0.678611 0.67836
    outer loop
      vertex 146.153 -121.847 15.1173
      vertex 145.5 -121.576 15.1173
      vertex 145.5 -122.117 14.5761
    endloop
  endfacet
  facet normal 0.92382 0.382827 0
    outer loop
      vertex 69.8467 -162.153 33
      vertex 69.5761 -161.5 15.1173
      vertex 69.5761 -161.5 33
    endloop
  endfacet
  facet normal 0.92382 0.382827 0
    outer loop
      vertex 69.5761 -161.5 15.1173
      vertex 69.8467 -162.153 33
      vertex 69.8467 -162.153 15.1173
    endloop
  endfacet
  facet normal 0 -0.707237 0.706976
    outer loop
      vertex 70.5 -121.576 15.1173
      vertex 145.5 -122.117 14.5761
      vertex 145.5 -121.576 15.1173
    endloop
  endfacet
  facet normal 0 -0.707237 0.706976
    outer loop
      vertex 145.5 -122.117 14.5761
      vertex 70.5 -121.576 15.1173
      vertex 70.5 -122.117 14.5761
    endloop
  endfacet
  facet normal 0 -1 0
    outer loop
      vertex 70.5 -121.576 15.1173
      vertex 145.5 -121.576 33
      vertex 70.5 -121.576 33
    endloop
  endfacet
  facet normal 0 -1 -0
    outer loop
      vertex 145.5 -121.576 33
      vertex 70.5 -121.576 15.1173
      vertex 145.5 -121.576 15.1173
    endloop
  endfacet
  facet normal 0 0.707237 0.706976
    outer loop
      vertex 145.5 -161.883 14.5761
      vertex 70.5 -162.424 15.1173
      vertex 145.5 -162.424 15.1173
    endloop
  endfacet
  facet normal 0 0.707237 0.706976
    outer loop
      vertex 70.5 -162.424 15.1173
      vertex 145.5 -161.883 14.5761
      vertex 70.5 -161.883 14.5761
    endloop
  endfacet
  facet normal -0.28082 -0.679485 0.677821
    outer loop
      vertex 145.771 -122.229 14.5761
      vertex 146.153 -121.847 15.1173
      vertex 145.5 -122.117 14.5761
    endloop
  endfacet
  facet normal -1 0 0
    outer loop
      vertex 146.424 -161.5 15.1173
      vertex 146.424 -122.5 33
      vertex 146.424 -122.5 15.1173
    endloop
  endfacet
  facet normal -1 -0 0
    outer loop
      vertex 146.424 -122.5 33
      vertex 146.424 -161.5 15.1173
      vertex 146.424 -161.5 33
    endloop
  endfacet
  facet normal 0.678951 -0.28085 0.678343
    outer loop
      vertex 70.1173 -122.5 14.5761
      vertex 70.2294 -122.229 14.5761
      vertex 69.8467 -121.847 15.1173
    endloop
  endfacet
  facet normal 0.28151 -0.678636 0.678385
    outer loop
      vertex 70.5 -122.117 14.5761
      vertex 70.5 -121.576 15.1173
      vertex 69.8467 -121.847 15.1173
    endloop
  endfacet
  facet normal 0.92382 -0.382827 0
    outer loop
      vertex 69.5761 -122.5 33
      vertex 69.8467 -121.847 15.1173
      vertex 69.8467 -121.847 33
    endloop
  endfacet
  facet normal 0.92382 -0.382827 0
    outer loop
      vertex 69.8467 -121.847 15.1173
      vertex 69.5761 -122.5 33
      vertex 69.5761 -122.5 15.1173
    endloop
  endfacet
  facet normal 0.678951 0.28085 0.678343
    outer loop
      vertex 70.2294 -161.771 14.5761
      vertex 70.1173 -161.5 14.5761
      vertex 69.8467 -162.153 15.1173
    endloop
  endfacet
  facet normal -0.28082 0.679485 0.677821
    outer loop
      vertex 146.153 -162.153 15.1173
      vertex 145.771 -161.771 14.5761
      vertex 145.5 -161.883 14.5761
    endloop
  endfacet
  facet normal -0.383309 0.92362 0
    outer loop
      vertex 146.153 -162.153 15.1173
      vertex 145.5 -162.424 33
      vertex 146.153 -162.153 33
    endloop
  endfacet
  facet normal -0.383309 0.92362 0
    outer loop
      vertex 145.5 -162.424 33
      vertex 146.153 -162.153 15.1173
      vertex 145.5 -162.424 15.1173
    endloop
  endfacet
  facet normal -0.281629 0.678611 0.67836
    outer loop
      vertex 146.153 -162.153 15.1173
      vertex 145.5 -161.883 14.5761
      vertex 145.5 -162.424 15.1173
    endloop
  endfacet
  facet normal -0.679485 0.28082 0.677821
    outer loop
      vertex 146.153 -162.153 15.1173
      vertex 145.883 -161.5 14.5761
      vertex 145.771 -161.771 14.5761
    endloop
  endfacet
  facet normal 0.707107 0 0.707107
    outer loop
      vertex 69.5761 -122.5 15.1173
      vertex 70.1173 -161.5 14.5761
      vertex 70.1173 -122.5 14.5761
    endloop
  endfacet
  facet normal 0.707107 0 0.707107
    outer loop
      vertex 70.1173 -161.5 14.5761
      vertex 69.5761 -122.5 15.1173
      vertex 69.5761 -161.5 15.1173
    endloop
  endfacet
  facet normal -0.707237 0 0.706976
    outer loop
      vertex 145.883 -161.5 14.5761
      vertex 146.424 -122.5 15.1173
      vertex 145.883 -122.5 14.5761
    endloop
  endfacet
  facet normal -0.707237 0 0.706976
    outer loop
      vertex 146.424 -122.5 15.1173
      vertex 145.883 -161.5 14.5761
      vertex 146.424 -161.5 15.1173
    endloop
  endfacet
  facet normal -0.92362 -0.383309 0
    outer loop
      vertex 146.424 -122.5 15.1173
      vertex 146.153 -121.847 33
      vertex 146.153 -121.847 15.1173
    endloop
  endfacet
  facet normal -0.92362 -0.383309 0
    outer loop
      vertex 146.153 -121.847 33
      vertex 146.424 -122.5 15.1173
      vertex 146.424 -122.5 33
    endloop
  endfacet
  facet normal -0.678611 -0.281629 0.67836
    outer loop
      vertex 146.424 -122.5 15.1173
      vertex 146.153 -121.847 15.1173
      vertex 145.883 -122.5 14.5761
    endloop
  endfacet
  facet normal -0.679485 -0.28082 0.677821
    outer loop
      vertex 145.883 -122.5 14.5761
      vertex 146.153 -121.847 15.1173
      vertex 145.771 -122.229 14.5761
    endloop
  endfacet
  facet normal -0.678611 0.281629 0.67836
    outer loop
      vertex 146.153 -162.153 15.1173
      vertex 146.424 -161.5 15.1173
      vertex 145.883 -161.5 14.5761
    endloop
  endfacet
  facet normal -0.92362 0.383309 0
    outer loop
      vertex 146.153 -162.153 15.1173
      vertex 146.424 -161.5 33
      vertex 146.424 -161.5 15.1173
    endloop
  endfacet
  facet normal -0.92362 0.383309 0
    outer loop
      vertex 146.424 -161.5 33
      vertex 146.153 -162.153 15.1173
      vertex 146.153 -162.153 33
    endloop
  endfacet
  facet normal 0.383159 -0.923682 0
    outer loop
      vertex 69.8467 -121.847 15.1173
      vertex 70.5 -121.576 33
      vertex 69.8467 -121.847 33
    endloop
  endfacet
  facet normal 0.383159 -0.923682 0
    outer loop
      vertex 70.5 -121.576 33
      vertex 69.8467 -121.847 15.1173
      vertex 70.5 -121.576 15.1173
    endloop
  endfacet
  facet normal -0.383309 -0.92362 0
    outer loop
      vertex 145.5 -121.576 15.1173
      vertex 146.153 -121.847 33
      vertex 145.5 -121.576 33
    endloop
  endfacet
  facet normal -0.383309 -0.92362 -0
    outer loop
      vertex 146.153 -121.847 33
      vertex 145.5 -121.576 15.1173
      vertex 146.153 -121.847 15.1173
    endloop
  endfacet
  facet normal 0 0 1
    outer loop
      vertex 145.5 -122.117 14.5761
      vertex 145.883 -122.5 14.5761
      vertex 145.771 -122.229 14.5761
    endloop
  endfacet
  facet normal 0 0 1
    outer loop
      vertex 145.883 -122.5 14.5761
      vertex 145.5 -122.117 14.5761
      vertex 145.883 -161.5 14.5761
    endloop
  endfacet
  facet normal 0 0 1
    outer loop
      vertex 145.5 -161.883 14.5761
      vertex 145.883 -161.5 14.5761
      vertex 145.5 -122.117 14.5761
    endloop
  endfacet
  facet normal 0 0 1
    outer loop
      vertex 145.883 -161.5 14.5761
      vertex 145.5 -161.883 14.5761
      vertex 145.771 -161.771 14.5761
    endloop
  endfacet
  facet normal -0 0 1
    outer loop
      vertex 70.5 -122.117 14.5761
      vertex 145.5 -161.883 14.5761
      vertex 145.5 -122.117 14.5761
    endloop
  endfacet
  facet normal 0 0 1
    outer loop
      vertex 70.5 -122.117 14.5761
      vertex 70.5 -161.883 14.5761
      vertex 145.5 -161.883 14.5761
    endloop
  endfacet
  facet normal 0 0 1
    outer loop
      vertex 70.1173 -122.5 14.5761
      vertex 70.5 -122.117 14.5761
      vertex 70.2294 -122.229 14.5761
    endloop
  endfacet
  facet normal 0 0 1
    outer loop
      vertex 70.5 -122.117 14.5761
      vertex 70.1173 -122.5 14.5761
      vertex 70.5 -161.883 14.5761
    endloop
  endfacet
  facet normal -0 0 1
    outer loop
      vertex 70.1173 -161.5 14.5761
      vertex 70.5 -161.883 14.5761
      vertex 70.1173 -122.5 14.5761
    endloop
  endfacet
  facet normal 0 0 1
    outer loop
      vertex 70.5 -161.883 14.5761
      vertex 70.1173 -161.5 14.5761
      vertex 70.2294 -161.771 14.5761
    endloop
  endfacet
endsolid OpenSCAD_Model
