solid OpenSCAD_Model
  facet normal -0.280944 0.67878 0.678475
    outer loop
      vertex 25.3266 -40.3266 -8.19134
      vertex 25.1353 -40.1353 -8.46194
      vertex 25 -40.1913 -8.46194
    endloop
  endfacet
  facet normal -0.707368 -0 -0.706845
    outer loop
      vertex 25.4619 49.944 8.19134
      vertex 25.4619 -40 8.19134
      vertex 25.3943 49.8087 8.25899
    endloop
  endfacet
  facet normal -0.707107 3.93674e-07 -0.707107
    outer loop
      vertex 25.1913 -40 8.46194
      vertex 25.3943 49.8087 8.25899
      vertex 25.4619 -40 8.19134
    endloop
  endfacet
  facet normal -0.70702 0 -0.707194
    outer loop
      vertex 25.3943 49.8087 8.25899
      vertex 25.1913 -40 8.46194
      vertex 25.1913 49.9071 8.46194
    endloop
  endfacet
  facet normal 0.707368 0 0.706845
    outer loop
      vertex -65.4619 49.944 -8.19134
      vertex -65.4619 -40 -8.19134
      vertex -65.3943 49.8087 -8.25899
    endloop
  endfacet
  facet normal 0.707107 3.93674e-07 0.707107
    outer loop
      vertex -65.1913 -40 -8.46194
      vertex -65.3943 49.8087 -8.25899
      vertex -65.4619 -40 -8.19134
    endloop
  endfacet
  facet normal 0.70702 0 0.707194
    outer loop
      vertex -65.3943 49.8087 -8.25899
      vertex -65.1913 -40 -8.46194
      vertex -65.1913 49.9071 -8.46194
    endloop
  endfacet
  facet normal -0.923862 0.382727 0
    outer loop
      vertex 25.3266 -40.3266 -8.19134
      vertex 25.4619 -40 8.19134
      vertex 25.4619 -40 -8.19134
    endloop
  endfacet
  facet normal -0.923862 0.382727 0
    outer loop
      vertex 25.4619 -40 8.19134
      vertex 25.3266 -40.3266 -8.19134
      vertex 25.3266 -40.3266 8.19134
    endloop
  endfacet
  facet normal -0.280944 0.67878 -0.678475
    outer loop
      vertex 25.1353 -40.1353 8.46194
      vertex 25.3266 -40.3266 8.19134
      vertex 25 -40.1913 8.46194
    endloop
  endfacet
  facet normal 0 1 -0
    outer loop
      vertex -60.4619 -40.4619 -8.19134
      vertex -65 -40.4619 8.19134
      vertex -60.4619 -40.4619 8.19134
    endloop
  endfacet
  facet normal 0 1 0
    outer loop
      vertex -65 -40.4619 8.19134
      vertex -60.4619 -40.4619 -8.19134
      vertex -65 -40.4619 -8.19134
    endloop
  endfacet
  facet normal 0 1 -0
    outer loop
      vertex 25 -40.4619 -8.19134
      vertex 20.4619 -40.4619 8.19134
      vertex 25 -40.4619 8.19134
    endloop
  endfacet
  facet normal 0 1 0
    outer loop
      vertex 20.4619 -40.4619 8.19134
      vertex 25 -40.4619 -8.19134
      vertex 20.4619 -40.4619 -8.19134
    endloop
  endfacet
  facet normal -0.281119 0.678591 0.678591
    outer loop
      vertex 25.3266 -40.3266 -8.19134
      vertex 25 -40.1913 -8.46194
      vertex 25 -40.4619 -8.19134
    endloop
  endfacet
  facet normal 0 0.707107 0.707107
    outer loop
      vertex 25 -40.1913 -8.46194
      vertex 20.4619 -40.4619 -8.19134
      vertex 25 -40.4619 -8.19134
    endloop
  endfacet
  facet normal 0 0.707107 0.707107
    outer loop
      vertex 20.4619 -40.4619 -8.19134
      vertex 25 -40.1913 -8.46194
      vertex 20.1913 -40.1913 -8.46194
    endloop
  endfacet
  facet normal -0 0.707107 0.707107
    outer loop
      vertex -65 -40.1913 -8.46194
      vertex -60.4619 -40.4619 -8.19134
      vertex -60.1913 -40.1913 -8.46194
    endloop
  endfacet
  facet normal 0 0.707107 0.707107
    outer loop
      vertex -60.4619 -40.4619 -8.19134
      vertex -65 -40.1913 -8.46194
      vertex -65 -40.4619 -8.19134
    endloop
  endfacet
  facet normal 0.678591 0.281119 0.678591
    outer loop
      vertex -65.3266 -40.3266 -8.19134
      vertex -65.1913 -40 -8.46194
      vertex -65.4619 -40 -8.19134
    endloop
  endfacet
  facet normal 0.281119 0.678591 0.678591
    outer loop
      vertex -65 -40.4619 -8.19134
      vertex -65 -40.1913 -8.46194
      vertex -65.3266 -40.3266 -8.19134
    endloop
  endfacet
  facet normal -0 0 1
    outer loop
      vertex 25.1353 49.8647 -8.46194
      vertex 25.1913 -40 -8.46194
      vertex 25.1913 49.9071 -8.46194
    endloop
  endfacet
  facet normal -0 0 1
    outer loop
      vertex 25 49.8087 -8.46194
      vertex 25.1913 -40 -8.46194
      vertex 25.1353 49.8647 -8.46194
    endloop
  endfacet
  facet normal 0 0 1
    outer loop
      vertex 20.1913 -40.1913 -8.46194
      vertex 25.1913 -40 -8.46194
      vertex 25 49.8087 -8.46194
    endloop
  endfacet
  facet normal 0 -0 1
    outer loop
      vertex 25 -40.1913 -8.46194
      vertex 25.1913 -40 -8.46194
      vertex 20.1913 -40.1913 -8.46194
    endloop
  endfacet
  facet normal 0 0 1
    outer loop
      vertex 25.1913 -40 -8.46194
      vertex 25 -40.1913 -8.46194
      vertex 25.1353 -40.1353 -8.46194
    endloop
  endfacet
  facet normal 0 0 1
    outer loop
      vertex 20.1913 -40.1913 -8.46194
      vertex 20.1353 -49.8647 -8.46194
      vertex 20.1913 -49.9071 -8.46194
    endloop
  endfacet
  facet normal 0 0 1
    outer loop
      vertex 20.1913 -40.1913 -8.46194
      vertex 20 -49.8087 -8.46194
      vertex 20.1353 -49.8647 -8.46194
    endloop
  endfacet
  facet normal 0 0 1
    outer loop
      vertex 20.1913 -40.1913 -8.46194
      vertex -60 -49.8087 -8.46194
      vertex 20 -49.8087 -8.46194
    endloop
  endfacet
  facet normal 0 0 1
    outer loop
      vertex -60.1913 -40.1913 -8.46194
      vertex 20.1913 -40.1913 -8.46194
      vertex 25 49.8087 -8.46194
    endloop
  endfacet
  facet normal 0 0 1
    outer loop
      vertex 20.1913 -40.1913 -8.46194
      vertex -60.1913 -40.1913 -8.46194
      vertex -60 -49.8087 -8.46194
    endloop
  endfacet
  facet normal 0 0 1
    outer loop
      vertex -60 -49.8087 -8.46194
      vertex -60.1913 -40.1913 -8.46194
      vertex -60.1353 -49.8647 -8.46194
    endloop
  endfacet
  facet normal -0 0 1
    outer loop
      vertex -65 49.8087 -8.46194
      vertex -60.1913 -40.1913 -8.46194
      vertex 25 49.8087 -8.46194
    endloop
  endfacet
  facet normal -0 0 1
    outer loop
      vertex -65.1913 -40 -8.46194
      vertex -60.1913 -40.1913 -8.46194
      vertex -65 49.8087 -8.46194
    endloop
  endfacet
  facet normal 0 0 1
    outer loop
      vertex -65.1913 -40 -8.46194
      vertex -65 49.8087 -8.46194
      vertex -65.1353 49.8647 -8.46194
    endloop
  endfacet
  facet normal 0 0 1
    outer loop
      vertex -60.1913 -40.1913 -8.46194
      vertex -65.1913 -40 -8.46194
      vertex -65 -40.1913 -8.46194
    endloop
  endfacet
  facet normal 0 0 1
    outer loop
      vertex -65.1913 -40 -8.46194
      vertex -65.1353 49.8647 -8.46194
      vertex -65.1913 49.9071 -8.46194
    endloop
  endfacet
  facet normal 0 0 1
    outer loop
      vertex -65 -40.1913 -8.46194
      vertex -65.1913 -40 -8.46194
      vertex -65.1353 -40.1353 -8.46194
    endloop
  endfacet
  facet normal 0 0 1
    outer loop
      vertex -60.1353 -49.8647 -8.46194
      vertex -60.1913 -40.1913 -8.46194
      vertex -60.1913 -49.9071 -8.46194
    endloop
  endfacet
  facet normal 0.923862 0.382727 0
    outer loop
      vertex -65.3266 -40.3266 8.19134
      vertex -65.4619 -40 -8.19134
      vertex -65.4619 -40 8.19134
    endloop
  endfacet
  facet normal 0.923862 0.382727 0
    outer loop
      vertex -65.4619 -40 -8.19134
      vertex -65.3266 -40.3266 8.19134
      vertex -65.3266 -40.3266 -8.19134
    endloop
  endfacet
  facet normal 0.678591 0.281119 -0.678591
    outer loop
      vertex -65.1913 -40 8.46194
      vertex -65.3266 -40.3266 8.19134
      vertex -65.4619 -40 8.19134
    endloop
  endfacet
  facet normal 0.70702 0 -0.707194
    outer loop
      vertex -65.1913 49.9071 8.46194
      vertex -65.1913 -40 8.46194
      vertex -65.3943 49.8087 8.25899
    endloop
  endfacet
  facet normal 0.707107 3.93674e-07 -0.707107
    outer loop
      vertex -65.4619 -40 8.19134
      vertex -65.3943 49.8087 8.25899
      vertex -65.1913 -40 8.46194
    endloop
  endfacet
  facet normal 0.707368 0 -0.706845
    outer loop
      vertex -65.3943 49.8087 8.25899
      vertex -65.4619 -40 8.19134
      vertex -65.4619 49.944 8.19134
    endloop
  endfacet
  facet normal -0.70702 0 0.707194
    outer loop
      vertex 25.1913 49.9071 -8.46194
      vertex 25.1913 -40 -8.46194
      vertex 25.3943 49.8087 -8.25899
    endloop
  endfacet
  facet normal -0.707107 3.93674e-07 0.707107
    outer loop
      vertex 25.4619 -40 -8.19134
      vertex 25.3943 49.8087 -8.25899
      vertex 25.1913 -40 -8.46194
    endloop
  endfacet
  facet normal -0.707368 0 0.706845
    outer loop
      vertex 25.3943 49.8087 -8.25899
      vertex 25.4619 -40 -8.19134
      vertex 25.4619 49.944 -8.19134
    endloop
  endfacet
  facet normal 0.280944 0.67878 0.678475
    outer loop
      vertex -65 -40.1913 -8.46194
      vertex -65.1353 -40.1353 -8.46194
      vertex -65.3266 -40.3266 -8.19134
    endloop
  endfacet
  facet normal -1 0 0
    outer loop
      vertex 25.4619 -40 -8.19134
      vertex 25.4619 49.944 8.19134
      vertex 25.4619 49.944 -8.19134
    endloop
  endfacet
  facet normal -1 -0 0
    outer loop
      vertex 25.4619 49.944 8.19134
      vertex 25.4619 -40 -8.19134
      vertex 25.4619 -40 8.19134
    endloop
  endfacet
  facet normal 1 -0 0
    outer loop
      vertex -65.4619 -40 8.19134
      vertex -65.4619 49.944 -8.19134
      vertex -65.4619 49.944 8.19134
    endloop
  endfacet
  facet normal 1 0 0
    outer loop
      vertex -65.4619 49.944 -8.19134
      vertex -65.4619 -40 8.19134
      vertex -65.4619 -40 -8.19134
    endloop
  endfacet
  facet normal 0.67878 0.280944 0.678475
    outer loop
      vertex -65.1353 -40.1353 -8.46194
      vertex -65.1913 -40 -8.46194
      vertex -65.3266 -40.3266 -8.19134
    endloop
  endfacet
  facet normal -0.678591 0.281119 0.678591
    outer loop
      vertex 25.3266 -40.3266 -8.19134
      vertex 25.4619 -40 -8.19134
      vertex 25.1913 -40 -8.46194
    endloop
  endfacet
  facet normal -0.67878 0.280944 0.678475
    outer loop
      vertex 25.3266 -40.3266 -8.19134
      vertex 25.1913 -40 -8.46194
      vertex 25.1353 -40.1353 -8.46194
    endloop
  endfacet
  facet normal -0.382727 0.923862 0
    outer loop
      vertex 25.3266 -40.3266 -8.19134
      vertex 25 -40.4619 8.19134
      vertex 25.3266 -40.3266 8.19134
    endloop
  endfacet
  facet normal -0.382727 0.923862 0
    outer loop
      vertex 25 -40.4619 8.19134
      vertex 25.3266 -40.3266 -8.19134
      vertex 25 -40.4619 -8.19134
    endloop
  endfacet
  facet normal 0.281119 0.678591 -0.678591
    outer loop
      vertex -65 -40.1913 8.46194
      vertex -65 -40.4619 8.19134
      vertex -65.3266 -40.3266 8.19134
    endloop
  endfacet
  facet normal 0.382727 0.923862 -0
    outer loop
      vertex -65 -40.4619 -8.19134
      vertex -65.3266 -40.3266 8.19134
      vertex -65 -40.4619 8.19134
    endloop
  endfacet
  facet normal 0.382727 0.923862 0
    outer loop
      vertex -65.3266 -40.3266 8.19134
      vertex -65 -40.4619 -8.19134
      vertex -65.3266 -40.3266 -8.19134
    endloop
  endfacet
  facet normal -0.678591 0.281119 -0.678591
    outer loop
      vertex 25.4619 -40 8.19134
      vertex 25.3266 -40.3266 8.19134
      vertex 25.1913 -40 8.46194
    endloop
  endfacet
  facet normal 0.280944 0.67878 -0.678475
    outer loop
      vertex -65.1353 -40.1353 8.46194
      vertex -65 -40.1913 8.46194
      vertex -65.3266 -40.3266 8.19134
    endloop
  endfacet
  facet normal 0.67878 0.280944 -0.678475
    outer loop
      vertex -65.1913 -40 8.46194
      vertex -65.1353 -40.1353 8.46194
      vertex -65.3266 -40.3266 8.19134
    endloop
  endfacet
  facet normal 0 0 -1
    outer loop
      vertex 20.1913 -49.9071 8.46194
      vertex 20.1353 -49.8647 8.46194
      vertex 20.1913 -40.1913 8.46194
    endloop
  endfacet
  facet normal 0 0 -1
    outer loop
      vertex 25 -40.1913 8.46194
      vertex 25.1913 -40 8.46194
      vertex 25.1353 -40.1353 8.46194
    endloop
  endfacet
  facet normal 0 0 -1
    outer loop
      vertex 25.1913 -40 8.46194
      vertex 25.1353 49.8647 8.46194
      vertex 25.1913 49.9071 8.46194
    endloop
  endfacet
  facet normal 0 0 -1
    outer loop
      vertex 25.1913 -40 8.46194
      vertex 25 -40.1913 8.46194
      vertex 20.1913 -40.1913 8.46194
    endloop
  endfacet
  facet normal 0 0 -1
    outer loop
      vertex 25.1913 -40 8.46194
      vertex 25 49.8087 8.46194
      vertex 25.1353 49.8647 8.46194
    endloop
  endfacet
  facet normal -0 0 -1
    outer loop
      vertex 25.1913 -40 8.46194
      vertex 20.1913 -40.1913 8.46194
      vertex 25 49.8087 8.46194
    endloop
  endfacet
  facet normal 0 0 -1
    outer loop
      vertex 20 -49.8087 8.46194
      vertex 20.1913 -40.1913 8.46194
      vertex 20.1353 -49.8647 8.46194
    endloop
  endfacet
  facet normal 0 0 -1
    outer loop
      vertex -60 -49.8087 8.46194
      vertex 20.1913 -40.1913 8.46194
      vertex 20 -49.8087 8.46194
    endloop
  endfacet
  facet normal 0 0 -1
    outer loop
      vertex -60.1913 -40.1913 8.46194
      vertex 20.1913 -40.1913 8.46194
      vertex -60 -49.8087 8.46194
    endloop
  endfacet
  facet normal 0 0 -1
    outer loop
      vertex -60.1913 -40.1913 8.46194
      vertex -60 -49.8087 8.46194
      vertex -60.1353 -49.8647 8.46194
    endloop
  endfacet
  facet normal 0 0 -1
    outer loop
      vertex -60.1913 -40.1913 8.46194
      vertex -60.1353 -49.8647 8.46194
      vertex -60.1913 -49.9071 8.46194
    endloop
  endfacet
  facet normal 0 0 -1
    outer loop
      vertex 20.1913 -40.1913 8.46194
      vertex -60.1913 -40.1913 8.46194
      vertex 25 49.8087 8.46194
    endloop
  endfacet
  facet normal 0 0 -1
    outer loop
      vertex -65.1913 -40 8.46194
      vertex -60.1913 -40.1913 8.46194
      vertex -65 -40.1913 8.46194
    endloop
  endfacet
  facet normal 0 0 -1
    outer loop
      vertex -60.1913 -40.1913 8.46194
      vertex -65 49.8087 8.46194
      vertex 25 49.8087 8.46194
    endloop
  endfacet
  facet normal 0 0 -1
    outer loop
      vertex -65.1913 -40 8.46194
      vertex -65 -40.1913 8.46194
      vertex -65.1353 -40.1353 8.46194
    endloop
  endfacet
  facet normal 0 0 -1
    outer loop
      vertex -60.1913 -40.1913 8.46194
      vertex -65.1913 -40 8.46194
      vertex -65 49.8087 8.46194
    endloop
  endfacet
  facet normal -0 0 -1
    outer loop
      vertex -65 49.8087 8.46194
      vertex -65.1913 -40 8.46194
      vertex -65.1353 49.8647 8.46194
    endloop
  endfacet
  facet normal -0 0 -1
    outer loop
      vertex -65.1353 49.8647 8.46194
      vertex -65.1913 -40 8.46194
      vertex -65.1913 49.9071 8.46194
    endloop
  endfacet
  facet normal -0.67878 0.280944 -0.678475
    outer loop
      vertex 25.1913 -40 8.46194
      vertex 25.3266 -40.3266 8.19134
      vertex 25.1353 -40.1353 8.46194
    endloop
  endfacet
  facet normal 0 0.707107 -0.707107
    outer loop
      vertex -60.4619 -40.4619 8.19134
      vertex -65 -40.1913 8.46194
      vertex -60.1913 -40.1913 8.46194
    endloop
  endfacet
  facet normal 0 0.707107 -0.707107
    outer loop
      vertex -65 -40.1913 8.46194
      vertex -60.4619 -40.4619 8.19134
      vertex -65 -40.4619 8.19134
    endloop
  endfacet
  facet normal 0 0.707107 -0.707107
    outer loop
      vertex 20.4619 -40.4619 8.19134
      vertex 25 -40.1913 8.46194
      vertex 25 -40.4619 8.19134
    endloop
  endfacet
  facet normal 0 0.707107 -0.707107
    outer loop
      vertex 25 -40.1913 8.46194
      vertex 20.4619 -40.4619 8.19134
      vertex 20.1913 -40.1913 8.46194
    endloop
  endfacet
  facet normal -0.281119 0.678591 -0.678591
    outer loop
      vertex 25 -40.1913 8.46194
      vertex 25.3266 -40.3266 8.19134
      vertex 25 -40.4619 8.19134
    endloop
  endfacet
  facet normal -0.67878 0.280944 0.678475
    outer loop
      vertex 26.3266 51.6734 -9.19134
      vertex 26.1913 52 -9.46194
      vertex 26.1353 51.8647 -9.46194
    endloop
  endfacet
  facet normal 0 0 -1
    outer loop
      vertex 26 51.8087 9.46194
      vertex 26.1913 52 9.46194
      vertex 26.1353 51.8647 9.46194
    endloop
  endfacet
  facet normal 0 0 -1
    outer loop
      vertex -66 51.8087 9.46194
      vertex 26.1913 52 9.46194
      vertex 26 51.8087 9.46194
    endloop
  endfacet
  facet normal 0 0 -1
    outer loop
      vertex -66.1913 52 9.46194
      vertex -66 51.8087 9.46194
      vertex -66.1353 51.8647 9.46194
    endloop
  endfacet
  facet normal 0 0 -1
    outer loop
      vertex -66 51.8087 9.46194
      vertex -66.1913 52 9.46194
      vertex 26.1913 52 9.46194
    endloop
  endfacet
  facet normal 0.215552 0.520788 0.826025
    outer loop
      vertex -66 51.8087 -9.46194
      vertex -65.1353 49.8647 -8.46194
      vertex -65 49.8087 -8.46194
    endloop
  endfacet
  facet normal 0.215552 0.520788 0.826025
    outer loop
      vertex -65.1353 49.8647 -8.46194
      vertex -66 51.8087 -9.46194
      vertex -66.1353 51.8647 -9.46194
    endloop
  endfacet
  facet normal -0.678591 0.281119 0.678591
    outer loop
      vertex 26.3266 51.6734 -9.19134
      vertex 26.4619 52 -9.19134
      vertex 26.1913 52 -9.46194
    endloop
  endfacet
  facet normal -0.923862 0.382727 0
    outer loop
      vertex 26.3266 51.6734 -9.19134
      vertex 26.4619 52 9.19134
      vertex 26.4619 52 -9.19134
    endloop
  endfacet
  facet normal -0.923862 0.382727 0
    outer loop
      vertex 26.4619 52 9.19134
      vertex 26.3266 51.6734 -9.19134
      vertex 26.3266 51.6734 9.19134
    endloop
  endfacet
  facet normal 0.215552 0.520788 -0.826025
    outer loop
      vertex -65.1353 49.8647 8.46194
      vertex -66 51.8087 9.46194
      vertex -65 49.8087 8.46194
    endloop
  endfacet
  facet normal 0.215552 0.520788 -0.826025
    outer loop
      vertex -66 51.8087 9.46194
      vertex -65.1353 49.8647 8.46194
      vertex -66.1353 51.8647 9.46194
    endloop
  endfacet
  facet normal -0.429033 0.566353 0.703686
    outer loop
      vertex 25.1913 49.9071 -8.46194
      vertex 26.3266 51.6734 -9.19134
      vertex 26.1353 51.8647 -9.46194
    endloop
  endfacet
  facet normal -0.429009 0.566346 0.703707
    outer loop
      vertex 26.3266 51.6734 -9.19134
      vertex 25.1913 49.9071 -8.46194
      vertex 25.3943 49.8087 -8.25899
    endloop
  endfacet
  facet normal -0.428788 0.566324 0.70386
    outer loop
      vertex 25.1913 49.9071 -8.46194
      vertex 26.1353 51.8647 -9.46194
      vertex 25.1353 49.8647 -8.46194
    endloop
  endfacet
  facet normal 0.67878 0.280944 -0.678475
    outer loop
      vertex -66.1913 52 9.46194
      vertex -66.1353 51.8647 9.46194
      vertex -66.3266 51.6734 9.19134
    endloop
  endfacet
  facet normal 0 0 1
    outer loop
      vertex 26.1913 52 -9.46194
      vertex 26 51.8087 -9.46194
      vertex 26.1353 51.8647 -9.46194
    endloop
  endfacet
  facet normal 0 0 1
    outer loop
      vertex 26.1913 52 -9.46194
      vertex -66 51.8087 -9.46194
      vertex 26 51.8087 -9.46194
    endloop
  endfacet
  facet normal -0 0 1
    outer loop
      vertex -66.1913 52 -9.46194
      vertex -66 51.8087 -9.46194
      vertex 26.1913 52 -9.46194
    endloop
  endfacet
  facet normal 0 0 1
    outer loop
      vertex -66 51.8087 -9.46194
      vertex -66.1913 52 -9.46194
      vertex -66.1353 51.8647 -9.46194
    endloop
  endfacet
  facet normal 0 0.447214 -0.894427
    outer loop
      vertex -65 49.8087 8.46194
      vertex 26 51.8087 9.46194
      vertex 25 49.8087 8.46194
    endloop
  endfacet
  facet normal 0 0.447214 -0.894427
    outer loop
      vertex 26 51.8087 9.46194
      vertex -65 49.8087 8.46194
      vertex -66 51.8087 9.46194
    endloop
  endfacet
  facet normal -0.678591 0.281119 -0.678591
    outer loop
      vertex 26.4619 52 9.19134
      vertex 26.3266 51.6734 9.19134
      vertex 26.1913 52 9.46194
    endloop
  endfacet
  facet normal 0.923862 0.382727 0
    outer loop
      vertex -66.3266 51.6734 9.19134
      vertex -66.4619 52 -9.19134
      vertex -66.4619 52 9.19134
    endloop
  endfacet
  facet normal 0.923862 0.382727 0
    outer loop
      vertex -66.4619 52 -9.19134
      vertex -66.3266 51.6734 9.19134
      vertex -66.3266 51.6734 -9.19134
    endloop
  endfacet
  facet normal -0.894427 0.447214 0
    outer loop
      vertex 26.3266 51.6734 -9.19134
      vertex 25.4619 49.944 -8.19134
      vertex 26.3266 51.6734 9.19134
    endloop
  endfacet
  facet normal -0.894498 0.447072 -0.000306576
    outer loop
      vertex 25.4619 49.944 -8.19134
      vertex 26.3266 51.6734 -9.19134
      vertex 25.3943 49.8087 -8.25899
    endloop
  endfacet
  facet normal -0.894427 0.447214 0
    outer loop
      vertex 25.4619 49.944 8.19134
      vertex 26.3266 51.6734 9.19134
      vertex 25.4619 49.944 -8.19134
    endloop
  endfacet
  facet normal -0.894498 0.447072 0.000306576
    outer loop
      vertex 26.3266 51.6734 9.19134
      vertex 25.4619 49.944 8.19134
      vertex 25.3943 49.8087 8.25899
    endloop
  endfacet
  facet normal 0 0.447214 0.894427
    outer loop
      vertex 26 51.8087 -9.46194
      vertex -65 49.8087 -8.46194
      vertex 25 49.8087 -8.46194
    endloop
  endfacet
  facet normal 0 0.447214 0.894427
    outer loop
      vertex -65 49.8087 -8.46194
      vertex 26 51.8087 -9.46194
      vertex -66 51.8087 -9.46194
    endloop
  endfacet
  facet normal 0.428788 0.566324 -0.70386
    outer loop
      vertex -65.1913 49.9071 8.46194
      vertex -66.1353 51.8647 9.46194
      vertex -65.1353 49.8647 8.46194
    endloop
  endfacet
  facet normal 0.429009 0.566346 -0.703707
    outer loop
      vertex -66.3266 51.6734 9.19134
      vertex -65.1913 49.9071 8.46194
      vertex -65.3943 49.8087 8.25899
    endloop
  endfacet
  facet normal 0.429033 0.566353 -0.703686
    outer loop
      vertex -65.1913 49.9071 8.46194
      vertex -66.3266 51.6734 9.19134
      vertex -66.1353 51.8647 9.46194
    endloop
  endfacet
  facet normal -0.215552 0.520788 -0.826025
    outer loop
      vertex 25.1353 49.8647 8.46194
      vertex 26 51.8087 9.46194
      vertex 26.1353 51.8647 9.46194
    endloop
  endfacet
  facet normal -0.215552 0.520788 -0.826025
    outer loop
      vertex 26 51.8087 9.46194
      vertex 25.1353 49.8647 8.46194
      vertex 25 49.8087 8.46194
    endloop
  endfacet
  facet normal -0.215552 0.520788 0.826025
    outer loop
      vertex 26 51.8087 -9.46194
      vertex 25.1353 49.8647 -8.46194
      vertex 26.1353 51.8647 -9.46194
    endloop
  endfacet
  facet normal -0.215552 0.520788 0.826025
    outer loop
      vertex 25.1353 49.8647 -8.46194
      vertex 26 51.8087 -9.46194
      vertex 25 49.8087 -8.46194
    endloop
  endfacet
  facet normal -0.429009 0.566346 -0.703707
    outer loop
      vertex 25.1913 49.9071 8.46194
      vertex 26.3266 51.6734 9.19134
      vertex 25.3943 49.8087 8.25899
    endloop
  endfacet
  facet normal -0.429033 0.566353 -0.703686
    outer loop
      vertex 26.3266 51.6734 9.19134
      vertex 25.1913 49.9071 8.46194
      vertex 26.1353 51.8647 9.46194
    endloop
  endfacet
  facet normal -0.428788 0.566324 -0.70386
    outer loop
      vertex 26.1353 51.8647 9.46194
      vertex 25.1913 49.9071 8.46194
      vertex 25.1353 49.8647 8.46194
    endloop
  endfacet
  facet normal -0.67878 0.280944 -0.678475
    outer loop
      vertex 26.1913 52 9.46194
      vertex 26.3266 51.6734 9.19134
      vertex 26.1353 51.8647 9.46194
    endloop
  endfacet
  facet normal 0.428788 0.566324 0.70386
    outer loop
      vertex -66.1353 51.8647 -9.46194
      vertex -65.1913 49.9071 -8.46194
      vertex -65.1353 49.8647 -8.46194
    endloop
  endfacet
  facet normal 0.429033 0.566353 0.703686
    outer loop
      vertex -66.3266 51.6734 -9.19134
      vertex -65.1913 49.9071 -8.46194
      vertex -66.1353 51.8647 -9.46194
    endloop
  endfacet
  facet normal 0.429009 0.566346 0.703707
    outer loop
      vertex -65.1913 49.9071 -8.46194
      vertex -66.3266 51.6734 -9.19134
      vertex -65.3943 49.8087 -8.25899
    endloop
  endfacet
  facet normal 0.678591 0.281119 0.678591
    outer loop
      vertex -66.3266 51.6734 -9.19134
      vertex -66.1913 52 -9.46194
      vertex -66.4619 52 -9.19134
    endloop
  endfacet
  facet normal 0.67878 0.280944 0.678475
    outer loop
      vertex -66.1353 51.8647 -9.46194
      vertex -66.1913 52 -9.46194
      vertex -66.3266 51.6734 -9.19134
    endloop
  endfacet
  facet normal 0.678591 0.281119 -0.678591
    outer loop
      vertex -66.1913 52 9.46194
      vertex -66.3266 51.6734 9.19134
      vertex -66.4619 52 9.19134
    endloop
  endfacet
  facet normal 0.894427 0.447214 0
    outer loop
      vertex -66.3266 51.6734 9.19134
      vertex -65.4619 49.944 8.19134
      vertex -66.3266 51.6734 -9.19134
    endloop
  endfacet
  facet normal 0.894498 0.447072 0.000306576
    outer loop
      vertex -65.4619 49.944 8.19134
      vertex -66.3266 51.6734 9.19134
      vertex -65.3943 49.8087 8.25899
    endloop
  endfacet
  facet normal 0.894427 0.447214 -0
    outer loop
      vertex -65.4619 49.944 -8.19134
      vertex -66.3266 51.6734 -9.19134
      vertex -65.4619 49.944 8.19134
    endloop
  endfacet
  facet normal 0.894498 0.447072 -0.000306576
    outer loop
      vertex -66.3266 51.6734 -9.19134
      vertex -65.4619 49.944 -8.19134
      vertex -65.3943 49.8087 -8.25899
    endloop
  endfacet
  facet normal -0.707107 0 0.707107
    outer loop
      vertex 20.1913 -49.9071 -8.46194
      vertex 20.4619 -40.4619 -8.19134
      vertex 20.1913 -40.1913 -8.46194
    endloop
  endfacet
  facet normal -0.707018 -5.06061e-06 0.707195
    outer loop
      vertex 20.4619 -40.4619 -8.19134
      vertex 20.1913 -49.9071 -8.46194
      vertex 20.3943 -49.8087 -8.25899
    endloop
  endfacet
  facet normal -0.707368 0 0.706845
    outer loop
      vertex 20.4619 -40.4619 -8.19134
      vertex 20.3943 -49.8087 -8.25899
      vertex 20.4619 -49.944 -8.19134
    endloop
  endfacet
  facet normal 1 -0 0
    outer loop
      vertex -60.4619 -49.944 8.19134
      vertex -60.4619 -40.4619 -8.19134
      vertex -60.4619 -40.4619 8.19134
    endloop
  endfacet
  facet normal 1 0 0
    outer loop
      vertex -60.4619 -40.4619 -8.19134
      vertex -60.4619 -49.944 8.19134
      vertex -60.4619 -49.944 -8.19134
    endloop
  endfacet
  facet normal -1 0 0
    outer loop
      vertex 20.4619 -49.944 -8.19134
      vertex 20.4619 -40.4619 8.19134
      vertex 20.4619 -40.4619 -8.19134
    endloop
  endfacet
  facet normal -1 -0 0
    outer loop
      vertex 20.4619 -40.4619 8.19134
      vertex 20.4619 -49.944 -8.19134
      vertex 20.4619 -49.944 8.19134
    endloop
  endfacet
  facet normal 0.707368 0 0.706845
    outer loop
      vertex -60.4619 -40.4619 -8.19134
      vertex -60.4619 -49.944 -8.19134
      vertex -60.3943 -49.8087 -8.25899
    endloop
  endfacet
  facet normal 0.707018 -5.06061e-06 0.707195
    outer loop
      vertex -60.1913 -49.9071 -8.46194
      vertex -60.4619 -40.4619 -8.19134
      vertex -60.3943 -49.8087 -8.25899
    endloop
  endfacet
  facet normal 0.707107 0 0.707107
    outer loop
      vertex -60.4619 -40.4619 -8.19134
      vertex -60.1913 -49.9071 -8.46194
      vertex -60.1913 -40.1913 -8.46194
    endloop
  endfacet
  facet normal -0.707368 -0 -0.706845
    outer loop
      vertex 20.4619 -40.4619 8.19134
      vertex 20.4619 -49.944 8.19134
      vertex 20.3943 -49.8087 8.25899
    endloop
  endfacet
  facet normal -0.707018 -5.06061e-06 -0.707195
    outer loop
      vertex 20.1913 -49.9071 8.46194
      vertex 20.4619 -40.4619 8.19134
      vertex 20.3943 -49.8087 8.25899
    endloop
  endfacet
  facet normal -0.707107 0 -0.707107
    outer loop
      vertex 20.4619 -40.4619 8.19134
      vertex 20.1913 -49.9071 8.46194
      vertex 20.1913 -40.1913 8.46194
    endloop
  endfacet
  facet normal 0.707107 0 -0.707107
    outer loop
      vertex -60.1913 -49.9071 8.46194
      vertex -60.4619 -40.4619 8.19134
      vertex -60.1913 -40.1913 8.46194
    endloop
  endfacet
  facet normal 0.707018 -5.06061e-06 -0.707195
    outer loop
      vertex -60.4619 -40.4619 8.19134
      vertex -60.1913 -49.9071 8.46194
      vertex -60.3943 -49.8087 8.25899
    endloop
  endfacet
  facet normal 0.707368 0 -0.706845
    outer loop
      vertex -60.4619 -40.4619 8.19134
      vertex -60.3943 -49.8087 8.25899
      vertex -60.4619 -49.944 8.19134
    endloop
  endfacet
  facet normal 0.215566 -0.520822 -0.826
    outer loop
      vertex -60.3457 -50.5 8.80761
      vertex -60.1353 -49.8647 8.46194
      vertex -60 -49.8087 8.46194
    endloop
  endfacet
  facet normal 0.215872 -0.520865 -0.825892
    outer loop
      vertex -60.1353 -49.8647 8.46194
      vertex -60.3457 -50.5 8.80761
      vertex -60.4529 -50.5 8.77959
    endloop
  endfacet
  facet normal -0.215872 -0.520865 -0.825892
    outer loop
      vertex 20.3457 -50.5 8.80761
      vertex 20.1353 -49.8647 8.46194
      vertex 20.4529 -50.5 8.77959
    endloop
  endfacet
  facet normal -0.215566 -0.520822 -0.826
    outer loop
      vertex 20.1353 -49.8647 8.46194
      vertex 20.3457 -50.5 8.80761
      vertex 20 -49.8087 8.46194
    endloop
  endfacet
  facet normal 0.894363 -0.447342 0
    outer loop
      vertex -60.4619 -49.944 8.19134
      vertex -60.74 -50.5 8.60466
      vertex -60.4619 -49.944 -8.19134
    endloop
  endfacet
  facet normal 0.89448 -0.447107 0.000395239
    outer loop
      vertex -60.74 -50.5 8.60466
      vertex -60.4619 -49.944 8.19134
      vertex -60.3943 -49.8087 8.25899
    endloop
  endfacet
  facet normal 0.89448 -0.447107 -0.000395239
    outer loop
      vertex -60.4619 -49.944 -8.19134
      vertex -60.74 -50.5 -8.60466
      vertex -60.3943 -49.8087 -8.25899
    endloop
  endfacet
  facet normal 0.894363 -0.447342 0
    outer loop
      vertex -60.74 -50.5 -8.60466
      vertex -60.4619 -49.944 -8.19134
      vertex -60.74 -50.5 8.60466
    endloop
  endfacet
  facet normal -0.428827 -0.566366 -0.703802
    outer loop
      vertex 20.4529 -50.5 8.77959
      vertex 20.3943 -49.8087 8.25899
      vertex 20.74 -50.5 8.60466
    endloop
  endfacet
  facet normal -0.429032 -0.566318 -0.703716
    outer loop
      vertex 20.4529 -50.5 8.77959
      vertex 20.1913 -49.9071 8.46194
      vertex 20.3943 -49.8087 8.25899
    endloop
  endfacet
  facet normal -0.428768 -0.566297 -0.703894
    outer loop
      vertex 20.1913 -49.9071 8.46194
      vertex 20.4529 -50.5 8.77959
      vertex 20.1353 -49.8647 8.46194
    endloop
  endfacet
  facet normal 0 -0.447234 -0.894417
    outer loop
      vertex 20.3457 -50.5 8.80761
      vertex -60 -49.8087 8.46194
      vertex 20 -49.8087 8.46194
    endloop
  endfacet
  facet normal 0 -0.447234 -0.894417
    outer loop
      vertex -60 -49.8087 8.46194
      vertex 20.3457 -50.5 8.80761
      vertex -60.3457 -50.5 8.80761
    endloop
  endfacet
  facet normal 0 -0.447234 0.894417
    outer loop
      vertex -60 -49.8087 -8.46194
      vertex 20.3457 -50.5 -8.80761
      vertex 20 -49.8087 -8.46194
    endloop
  endfacet
  facet normal 0 -0.447234 0.894417
    outer loop
      vertex 20.3457 -50.5 -8.80761
      vertex -60 -49.8087 -8.46194
      vertex -60.3457 -50.5 -8.80761
    endloop
  endfacet
  facet normal -0.894363 -0.447342 0
    outer loop
      vertex 20.4619 -49.944 -8.19134
      vertex 20.74 -50.5 -8.60466
      vertex 20.4619 -49.944 8.19134
    endloop
  endfacet
  facet normal -0.89448 -0.447107 -0.000395239
    outer loop
      vertex 20.74 -50.5 -8.60466
      vertex 20.4619 -49.944 -8.19134
      vertex 20.3943 -49.8087 -8.25899
    endloop
  endfacet
  facet normal -0.89448 -0.447107 0.000395239
    outer loop
      vertex 20.4619 -49.944 8.19134
      vertex 20.74 -50.5 8.60466
      vertex 20.3943 -49.8087 8.25899
    endloop
  endfacet
  facet normal -0.894363 -0.447342 -0
    outer loop
      vertex 20.74 -50.5 8.60466
      vertex 20.4619 -49.944 8.19134
      vertex 20.74 -50.5 -8.60466
    endloop
  endfacet
  facet normal 0.428768 -0.566297 -0.703894
    outer loop
      vertex -60.4529 -50.5 8.77959
      vertex -60.1913 -49.9071 8.46194
      vertex -60.1353 -49.8647 8.46194
    endloop
  endfacet
  facet normal 0.429032 -0.566318 -0.703716
    outer loop
      vertex -60.4529 -50.5 8.77959
      vertex -60.3943 -49.8087 8.25899
      vertex -60.1913 -49.9071 8.46194
    endloop
  endfacet
  facet normal 0.428827 -0.566366 -0.703802
    outer loop
      vertex -60.3943 -49.8087 8.25899
      vertex -60.4529 -50.5 8.77959
      vertex -60.74 -50.5 8.60466
    endloop
  endfacet
  facet normal 0.215566 -0.520822 0.826
    outer loop
      vertex -60.1353 -49.8647 -8.46194
      vertex -60.3457 -50.5 -8.80761
      vertex -60 -49.8087 -8.46194
    endloop
  endfacet
  facet normal 0.215872 -0.520865 0.825892
    outer loop
      vertex -60.3457 -50.5 -8.80761
      vertex -60.1353 -49.8647 -8.46194
      vertex -60.4529 -50.5 -8.77959
    endloop
  endfacet
  facet normal -0.215872 -0.520865 0.825892
    outer loop
      vertex 20.1353 -49.8647 -8.46194
      vertex 20.3457 -50.5 -8.80761
      vertex 20.4529 -50.5 -8.77959
    endloop
  endfacet
  facet normal -0.215566 -0.520822 0.826
    outer loop
      vertex 20.3457 -50.5 -8.80761
      vertex 20.1353 -49.8647 -8.46194
      vertex 20 -49.8087 -8.46194
    endloop
  endfacet
  facet normal 0.428768 -0.566297 0.703894
    outer loop
      vertex -60.1913 -49.9071 -8.46194
      vertex -60.4529 -50.5 -8.77959
      vertex -60.1353 -49.8647 -8.46194
    endloop
  endfacet
  facet normal 0.429032 -0.566318 0.703716
    outer loop
      vertex -60.3943 -49.8087 -8.25899
      vertex -60.4529 -50.5 -8.77959
      vertex -60.1913 -49.9071 -8.46194
    endloop
  endfacet
  facet normal 0.428827 -0.566366 0.703802
    outer loop
      vertex -60.4529 -50.5 -8.77959
      vertex -60.3943 -49.8087 -8.25899
      vertex -60.74 -50.5 -8.60466
    endloop
  endfacet
  facet normal -0.428827 -0.566366 0.703802
    outer loop
      vertex 20.3943 -49.8087 -8.25899
      vertex 20.4529 -50.5 -8.77959
      vertex 20.74 -50.5 -8.60466
    endloop
  endfacet
  facet normal -0.429032 -0.566318 0.703716
    outer loop
      vertex 20.1913 -49.9071 -8.46194
      vertex 20.4529 -50.5 -8.77959
      vertex 20.3943 -49.8087 -8.25899
    endloop
  endfacet
  facet normal -0.428768 -0.566297 0.703894
    outer loop
      vertex 20.4529 -50.5 -8.77959
      vertex 20.1913 -49.9071 -8.46194
      vertex 20.1353 -49.8647 -8.46194
    endloop
  endfacet
  facet normal 0.280944 0.67878 -0.678475
    outer loop
      vertex 28.8647 -33.1353 4.46194
      vertex 29 -33.1913 4.46194
      vertex 28.6734 -33.3266 4.19134
    endloop
  endfacet
  facet normal -0.70528 0 -0.708929
    outer loop
      vertex 147.462 -33 4.19134
      vertex 147.394 49.8087 4.25899
      vertex 147.462 49.944 4.19134
    endloop
  endfacet
  facet normal -0.706584 -2.13318e-06 -0.707629
    outer loop
      vertex 147.191 -33 4.46194
      vertex 147.394 49.8087 4.25899
      vertex 147.462 -33 4.19134
    endloop
  endfacet
  facet normal -0.70702 0 -0.707194
    outer loop
      vertex 147.394 49.8087 4.25899
      vertex 147.191 -33 4.46194
      vertex 147.191 49.9071 4.46194
    endloop
  endfacet
  facet normal 0.281119 0.678591 0.678591
    outer loop
      vertex 29 -33.4619 -8.19134
      vertex 29 -33.1913 -8.46194
      vertex 28.6734 -33.3266 -8.19134
    endloop
  endfacet
  facet normal 0.678591 0.281119 -0.678591
    outer loop
      vertex 28.8087 -33 4.46194
      vertex 28.6734 -33.3266 4.19134
      vertex 28.5381 -33 4.19134
    endloop
  endfacet
  facet normal 0.281119 0.678591 -0.678591
    outer loop
      vertex 29 -33.1913 4.46194
      vertex 29 -33.4619 4.19134
      vertex 28.6734 -33.3266 4.19134
    endloop
  endfacet
  facet normal 0.382727 0.923862 -0
    outer loop
      vertex 29 -33.4619 -8.19134
      vertex 28.6734 -33.3266 4.19134
      vertex 29 -33.4619 4.19134
    endloop
  endfacet
  facet normal 0.382727 0.923862 0
    outer loop
      vertex 28.6734 -33.3266 4.19134
      vertex 29 -33.4619 -8.19134
      vertex 28.6734 -33.3266 -8.19134
    endloop
  endfacet
  facet normal 0 1 -0
    outer loop
      vertex 147 -33.4619 -8.19134
      vertex 29 -33.4619 4.19134
      vertex 147 -33.4619 4.19134
    endloop
  endfacet
  facet normal 0 1 0
    outer loop
      vertex 29 -33.4619 4.19134
      vertex 147 -33.4619 -8.19134
      vertex 29 -33.4619 -8.19134
    endloop
  endfacet
  facet normal -1 0 0
    outer loop
      vertex 147.462 -33 -8.19134
      vertex 147.462 49.944 4.19134
      vertex 147.462 49.944 -8.19134
    endloop
  endfacet
  facet normal -1 -0 0
    outer loop
      vertex 147.462 49.944 4.19134
      vertex 147.462 -33 -8.19134
      vertex 147.462 -33 4.19134
    endloop
  endfacet
  facet normal 0 0.707107 0.707107
    outer loop
      vertex 147 -33.1913 -8.46194
      vertex 29 -33.4619 -8.19134
      vertex 147 -33.4619 -8.19134
    endloop
  endfacet
  facet normal 0 0.707107 0.707107
    outer loop
      vertex 29 -33.4619 -8.19134
      vertex 147 -33.1913 -8.46194
      vertex 29 -33.1913 -8.46194
    endloop
  endfacet
  facet normal 1 -0 0
    outer loop
      vertex 28.5381 -33 4.19134
      vertex 28.5381 49.944 -8.19134
      vertex 28.5381 49.944 4.19134
    endloop
  endfacet
  facet normal 1 0 0
    outer loop
      vertex 28.5381 49.944 -8.19134
      vertex 28.5381 -33 4.19134
      vertex 28.5381 -33 -8.19134
    endloop
  endfacet
  facet normal -0.281295 0.678123 0.678986
    outer loop
      vertex 147.327 -33.3266 -8.19134
      vertex 147.135 -33.1353 -8.46194
      vertex 147 -33.1913 -8.46194
    endloop
  endfacet
  facet normal -0.281295 0.678123 -0.678986
    outer loop
      vertex 147.135 -33.1353 4.46194
      vertex 147.327 -33.3266 4.19134
      vertex 147 -33.1913 4.46194
    endloop
  endfacet
  facet normal -0.280802 0.678657 -0.678657
    outer loop
      vertex 147 -33.1913 4.46194
      vertex 147.327 -33.3266 4.19134
      vertex 147 -33.4619 4.19134
    endloop
  endfacet
  facet normal 0.70702 0 -0.707194
    outer loop
      vertex 28.8087 49.9071 4.46194
      vertex 28.8087 -33 4.46194
      vertex 28.6057 49.8087 4.25899
    endloop
  endfacet
  facet normal 0.707107 4.26952e-07 -0.707107
    outer loop
      vertex 28.5381 -33 4.19134
      vertex 28.6057 49.8087 4.25899
      vertex 28.8087 -33 4.46194
    endloop
  endfacet
  facet normal 0.707368 0 -0.706845
    outer loop
      vertex 28.6057 49.8087 4.25899
      vertex 28.5381 -33 4.19134
      vertex 28.5381 49.944 4.19134
    endloop
  endfacet
  facet normal 0.67878 0.280944 0.678475
    outer loop
      vertex 28.8647 -33.1353 -8.46194
      vertex 28.8087 -33 -8.46194
      vertex 28.6734 -33.3266 -8.19134
    endloop
  endfacet
  facet normal -0.678248 0.280354 -0.679251
    outer loop
      vertex 147.462 -33 4.19134
      vertex 147.327 -33.3266 4.19134
      vertex 147.191 -33 4.46194
    endloop
  endfacet
  facet normal 0 0.707107 -0.707107
    outer loop
      vertex 147 -33.4619 4.19134
      vertex 29 -33.1913 4.46194
      vertex 147 -33.1913 4.46194
    endloop
  endfacet
  facet normal 0 0.707107 -0.707107
    outer loop
      vertex 29 -33.1913 4.46194
      vertex 147 -33.4619 4.19134
      vertex 29 -33.4619 4.19134
    endloop
  endfacet
  facet normal 0 0 -1
    outer loop
      vertex 147 -33.1913 4.46194
      vertex 147.191 -33 4.46194
      vertex 147.135 -33.1353 4.46194
    endloop
  endfacet
  facet normal 0 0 -1
    outer loop
      vertex 147.191 -33 4.46194
      vertex 147.135 49.8647 4.46194
      vertex 147.191 49.9071 4.46194
    endloop
  endfacet
  facet normal -0 0 -1
    outer loop
      vertex 147.191 -33 4.46194
      vertex 147 -33.1913 4.46194
      vertex 147 49.8087 4.46194
    endloop
  endfacet
  facet normal 0 0 -1
    outer loop
      vertex 147.191 -33 4.46194
      vertex 147 49.8087 4.46194
      vertex 147.135 49.8647 4.46194
    endloop
  endfacet
  facet normal 0 0 -1
    outer loop
      vertex 29 -33.1913 4.46194
      vertex 147 49.8087 4.46194
      vertex 147 -33.1913 4.46194
    endloop
  endfacet
  facet normal 0 0 -1
    outer loop
      vertex 29 -33.1913 4.46194
      vertex 29 49.8087 4.46194
      vertex 147 49.8087 4.46194
    endloop
  endfacet
  facet normal 0 0 -1
    outer loop
      vertex 28.8087 -33 4.46194
      vertex 29 -33.1913 4.46194
      vertex 28.8647 -33.1353 4.46194
    endloop
  endfacet
  facet normal 0 0 -1
    outer loop
      vertex 29 -33.1913 4.46194
      vertex 28.8087 -33 4.46194
      vertex 29 49.8087 4.46194
    endloop
  endfacet
  facet normal -0 0 -1
    outer loop
      vertex 29 49.8087 4.46194
      vertex 28.8087 -33 4.46194
      vertex 28.8647 49.8647 4.46194
    endloop
  endfacet
  facet normal -0 0 -1
    outer loop
      vertex 28.8647 49.8647 4.46194
      vertex 28.8087 -33 4.46194
      vertex 28.8087 49.9071 4.46194
    endloop
  endfacet
  facet normal 0.67878 0.280944 -0.678475
    outer loop
      vertex 28.8087 -33 4.46194
      vertex 28.8647 -33.1353 4.46194
      vertex 28.6734 -33.3266 4.19134
    endloop
  endfacet
  facet normal 0.678591 0.281119 0.678591
    outer loop
      vertex 28.6734 -33.3266 -8.19134
      vertex 28.8087 -33 -8.46194
      vertex 28.5381 -33 -8.19134
    endloop
  endfacet
  facet normal 0.923862 0.382727 0
    outer loop
      vertex 28.6734 -33.3266 4.19134
      vertex 28.5381 -33 -8.19134
      vertex 28.5381 -33 4.19134
    endloop
  endfacet
  facet normal 0.923862 0.382727 0
    outer loop
      vertex 28.5381 -33 -8.19134
      vertex 28.6734 -33.3266 4.19134
      vertex 28.6734 -33.3266 -8.19134
    endloop
  endfacet
  facet normal -0.382327 0.924027 0
    outer loop
      vertex 147.327 -33.3266 -8.19134
      vertex 147 -33.4619 4.19134
      vertex 147.327 -33.3266 4.19134
    endloop
  endfacet
  facet normal -0.382327 0.924027 0
    outer loop
      vertex 147 -33.4619 4.19134
      vertex 147.327 -33.3266 -8.19134
      vertex 147 -33.4619 -8.19134
    endloop
  endfacet
  facet normal -0.924162 0.382002 0
    outer loop
      vertex 147.327 -33.3266 -8.19134
      vertex 147.462 -33 4.19134
      vertex 147.462 -33 -8.19134
    endloop
  endfacet
  facet normal -0.924162 0.382002 0
    outer loop
      vertex 147.462 -33 4.19134
      vertex 147.327 -33.3266 -8.19134
      vertex 147.327 -33.3266 4.19134
    endloop
  endfacet
  facet normal -0.677972 0.280609 -0.679421
    outer loop
      vertex 147.191 -33 4.46194
      vertex 147.327 -33.3266 4.19134
      vertex 147.135 -33.1353 4.46194
    endloop
  endfacet
  facet normal -0.677972 0.280609 0.679421
    outer loop
      vertex 147.327 -33.3266 -8.19134
      vertex 147.191 -33 -8.46194
      vertex 147.135 -33.1353 -8.46194
    endloop
  endfacet
  facet normal -0 0 1
    outer loop
      vertex 147.135 49.8647 -8.46194
      vertex 147.191 -33 -8.46194
      vertex 147.191 49.9071 -8.46194
    endloop
  endfacet
  facet normal -0 0 1
    outer loop
      vertex 147 49.8087 -8.46194
      vertex 147.191 -33 -8.46194
      vertex 147.135 49.8647 -8.46194
    endloop
  endfacet
  facet normal 0 0 1
    outer loop
      vertex 147 -33.1913 -8.46194
      vertex 147.191 -33 -8.46194
      vertex 147 49.8087 -8.46194
    endloop
  endfacet
  facet normal 0 0 1
    outer loop
      vertex 147.191 -33 -8.46194
      vertex 147 -33.1913 -8.46194
      vertex 147.135 -33.1353 -8.46194
    endloop
  endfacet
  facet normal -0 0 1
    outer loop
      vertex 29 49.8087 -8.46194
      vertex 147 -33.1913 -8.46194
      vertex 147 49.8087 -8.46194
    endloop
  endfacet
  facet normal 0 0 1
    outer loop
      vertex 29 49.8087 -8.46194
      vertex 29 -33.1913 -8.46194
      vertex 147 -33.1913 -8.46194
    endloop
  endfacet
  facet normal 0 0 1
    outer loop
      vertex 28.8087 -33 -8.46194
      vertex 29 49.8087 -8.46194
      vertex 28.8647 49.8647 -8.46194
    endloop
  endfacet
  facet normal 0 0 1
    outer loop
      vertex 29 49.8087 -8.46194
      vertex 28.8087 -33 -8.46194
      vertex 29 -33.1913 -8.46194
    endloop
  endfacet
  facet normal 0 0 1
    outer loop
      vertex 28.8087 -33 -8.46194
      vertex 28.8647 49.8647 -8.46194
      vertex 28.8087 49.9071 -8.46194
    endloop
  endfacet
  facet normal 0 0 1
    outer loop
      vertex 29 -33.1913 -8.46194
      vertex 28.8087 -33 -8.46194
      vertex 28.8647 -33.1353 -8.46194
    endloop
  endfacet
  facet normal 0.707368 0 0.706845
    outer loop
      vertex 28.5381 49.944 -8.19134
      vertex 28.5381 -33 -8.19134
      vertex 28.6057 49.8087 -8.25899
    endloop
  endfacet
  facet normal 0.707107 4.26952e-07 0.707107
    outer loop
      vertex 28.8087 -33 -8.46194
      vertex 28.6057 49.8087 -8.25899
      vertex 28.5381 -33 -8.19134
    endloop
  endfacet
  facet normal 0.70702 0 0.707194
    outer loop
      vertex 28.6057 49.8087 -8.25899
      vertex 28.8087 -33 -8.46194
      vertex 28.8087 49.9071 -8.46194
    endloop
  endfacet
  facet normal 0.280944 0.67878 0.678475
    outer loop
      vertex 29 -33.1913 -8.46194
      vertex 28.8647 -33.1353 -8.46194
      vertex 28.6734 -33.3266 -8.19134
    endloop
  endfacet
  facet normal -0.280802 0.678657 0.678657
    outer loop
      vertex 147.327 -33.3266 -8.19134
      vertex 147 -33.1913 -8.46194
      vertex 147 -33.4619 -8.19134
    endloop
  endfacet
  facet normal -0.70528 0 0.708929
    outer loop
      vertex 147.394 49.8087 -8.25899
      vertex 147.462 -33 -8.19134
      vertex 147.462 49.944 -8.19134
    endloop
  endfacet
  facet normal -0.70702 0 0.707194
    outer loop
      vertex 147.191 -33 -8.46194
      vertex 147.394 49.8087 -8.25899
      vertex 147.191 49.9071 -8.46194
    endloop
  endfacet
  facet normal -0.706584 -2.13318e-06 0.707629
    outer loop
      vertex 147.394 49.8087 -8.25899
      vertex 147.191 -33 -8.46194
      vertex 147.462 -33 -8.19134
    endloop
  endfacet
  facet normal -0.678248 0.280354 0.679251
    outer loop
      vertex 147.327 -33.3266 -8.19134
      vertex 147.462 -33 -8.19134
      vertex 147.191 -33 -8.46194
    endloop
  endfacet
  facet normal 0.678591 0.281119 -0.678591
    outer loop
      vertex 27.8087 52 5.46194
      vertex 27.6734 51.6734 5.19134
      vertex 27.5381 52 5.19134
    endloop
  endfacet
  facet normal 0.67878 0.280944 0.678475
    outer loop
      vertex 27.8647 51.8647 -9.46194
      vertex 27.8087 52 -9.46194
      vertex 27.6734 51.6734 -9.19134
    endloop
  endfacet
  facet normal -0.428294 0.566264 0.704208
    outer loop
      vertex 147.191 49.9071 -8.46194
      vertex 148.327 51.6734 -9.19134
      vertex 148.135 51.8647 -9.46194
    endloop
  endfacet
  facet normal -0.428926 0.56645 0.703674
    outer loop
      vertex 148.327 51.6734 -9.19134
      vertex 147.191 49.9071 -8.46194
      vertex 147.394 49.8087 -8.25899
    endloop
  endfacet
  facet normal -0.428788 0.566324 0.70386
    outer loop
      vertex 147.191 49.9071 -8.46194
      vertex 148.135 51.8647 -9.46194
      vertex 147.135 49.8647 -8.46194
    endloop
  endfacet
  facet normal -0.216094 0.520941 0.825787
    outer loop
      vertex 148 51.8087 -9.46194
      vertex 147.135 49.8647 -8.46194
      vertex 148.135 51.8647 -9.46194
    endloop
  endfacet
  facet normal -0.216094 0.520941 0.825787
    outer loop
      vertex 147.135 49.8647 -8.46194
      vertex 148 51.8087 -9.46194
      vertex 147 49.8087 -8.46194
    endloop
  endfacet
  facet normal 0 0.447214 -0.894427
    outer loop
      vertex 29 49.8087 4.46194
      vertex 148 51.8087 5.46194
      vertex 147 49.8087 4.46194
    endloop
  endfacet
  facet normal 0 0.447214 -0.894427
    outer loop
      vertex 148 51.8087 5.46194
      vertex 29 49.8087 4.46194
      vertex 28 51.8087 5.46194
    endloop
  endfacet
  facet normal -0.894365 0.447338 0
    outer loop
      vertex 148.327 51.6734 -9.19134
      vertex 147.462 49.944 -8.19134
      vertex 148.327 51.6734 5.19134
    endloop
  endfacet
  facet normal -0.8939 0.448262 0.00200078
    outer loop
      vertex 147.462 49.944 -8.19134
      vertex 148.327 51.6734 -9.19134
      vertex 147.394 49.8087 -8.25899
    endloop
  endfacet
  facet normal -0.894365 0.447338 0
    outer loop
      vertex 147.462 49.944 4.19134
      vertex 148.327 51.6734 5.19134
      vertex 147.462 49.944 -8.19134
    endloop
  endfacet
  facet normal -0.8939 0.448262 -0.00200078
    outer loop
      vertex 148.327 51.6734 5.19134
      vertex 147.462 49.944 4.19134
      vertex 147.394 49.8087 4.25899
    endloop
  endfacet
  facet normal -0.677972 0.280609 -0.679421
    outer loop
      vertex 148.191 52 5.46194
      vertex 148.327 51.6734 5.19134
      vertex 148.135 51.8647 5.46194
    endloop
  endfacet
  facet normal 0.678591 0.281119 0.678591
    outer loop
      vertex 27.6734 51.6734 -9.19134
      vertex 27.8087 52 -9.46194
      vertex 27.5381 52 -9.19134
    endloop
  endfacet
  facet normal 0 0.447214 0.894427
    outer loop
      vertex 148 51.8087 -9.46194
      vertex 29 49.8087 -8.46194
      vertex 147 49.8087 -8.46194
    endloop
  endfacet
  facet normal 0 0.447214 0.894427
    outer loop
      vertex 29 49.8087 -8.46194
      vertex 148 51.8087 -9.46194
      vertex 28 51.8087 -9.46194
    endloop
  endfacet
  facet normal -0.677972 0.280609 0.679421
    outer loop
      vertex 148.327 51.6734 -9.19134
      vertex 148.191 52 -9.46194
      vertex 148.135 51.8647 -9.46194
    endloop
  endfacet
  facet normal -0.678248 0.280354 0.679251
    outer loop
      vertex 148.327 51.6734 -9.19134
      vertex 148.462 52 -9.19134
      vertex 148.191 52 -9.46194
    endloop
  endfacet
  facet normal 0.215552 0.520788 0.826025
    outer loop
      vertex 28 51.8087 -9.46194
      vertex 28.8647 49.8647 -8.46194
      vertex 29 49.8087 -8.46194
    endloop
  endfacet
  facet normal 0.215552 0.520788 0.826025
    outer loop
      vertex 28.8647 49.8647 -8.46194
      vertex 28 51.8087 -9.46194
      vertex 27.8647 51.8647 -9.46194
    endloop
  endfacet
  facet normal 0.894427 0.447214 0
    outer loop
      vertex 27.6734 51.6734 5.19134
      vertex 28.5381 49.944 4.19134
      vertex 27.6734 51.6734 -9.19134
    endloop
  endfacet
  facet normal 0.894498 0.447072 0.000306576
    outer loop
      vertex 28.5381 49.944 4.19134
      vertex 27.6734 51.6734 5.19134
      vertex 28.6057 49.8087 4.25899
    endloop
  endfacet
  facet normal 0.894427 0.447214 -0
    outer loop
      vertex 28.5381 49.944 -8.19134
      vertex 27.6734 51.6734 -9.19134
      vertex 28.5381 49.944 4.19134
    endloop
  endfacet
  facet normal 0.894498 0.447072 -0.000306576
    outer loop
      vertex 27.6734 51.6734 -9.19134
      vertex 28.5381 49.944 -8.19134
      vertex 28.6057 49.8087 -8.25899
    endloop
  endfacet
  facet normal 0 0 1
    outer loop
      vertex 148.191 52 -9.46194
      vertex 148 51.8087 -9.46194
      vertex 148.135 51.8647 -9.46194
    endloop
  endfacet
  facet normal 0 0 1
    outer loop
      vertex 148.191 52 -9.46194
      vertex 28 51.8087 -9.46194
      vertex 148 51.8087 -9.46194
    endloop
  endfacet
  facet normal -0 0 1
    outer loop
      vertex 27.8087 52 -9.46194
      vertex 28 51.8087 -9.46194
      vertex 148.191 52 -9.46194
    endloop
  endfacet
  facet normal 0 0 1
    outer loop
      vertex 28 51.8087 -9.46194
      vertex 27.8087 52 -9.46194
      vertex 27.8647 51.8647 -9.46194
    endloop
  endfacet
  facet normal 0.923862 0.382727 0
    outer loop
      vertex 27.6734 51.6734 5.19134
      vertex 27.5381 52 -9.19134
      vertex 27.5381 52 5.19134
    endloop
  endfacet
  facet normal 0.923862 0.382727 0
    outer loop
      vertex 27.5381 52 -9.19134
      vertex 27.6734 51.6734 5.19134
      vertex 27.6734 51.6734 -9.19134
    endloop
  endfacet
  facet normal 0.215552 0.520788 -0.826025
    outer loop
      vertex 28.8647 49.8647 4.46194
      vertex 28 51.8087 5.46194
      vertex 29 49.8087 4.46194
    endloop
  endfacet
  facet normal 0.215552 0.520788 -0.826025
    outer loop
      vertex 28 51.8087 5.46194
      vertex 28.8647 49.8647 4.46194
      vertex 27.8647 51.8647 5.46194
    endloop
  endfacet
  facet normal 0 0 -1
    outer loop
      vertex 148 51.8087 5.46194
      vertex 148.191 52 5.46194
      vertex 148.135 51.8647 5.46194
    endloop
  endfacet
  facet normal 0 0 -1
    outer loop
      vertex 28 51.8087 5.46194
      vertex 148.191 52 5.46194
      vertex 148 51.8087 5.46194
    endloop
  endfacet
  facet normal 0 0 -1
    outer loop
      vertex 27.8087 52 5.46194
      vertex 28 51.8087 5.46194
      vertex 27.8647 51.8647 5.46194
    endloop
  endfacet
  facet normal 0 0 -1
    outer loop
      vertex 28 51.8087 5.46194
      vertex 27.8087 52 5.46194
      vertex 148.191 52 5.46194
    endloop
  endfacet
  facet normal 0.428788 0.566324 0.70386
    outer loop
      vertex 27.8647 51.8647 -9.46194
      vertex 28.8087 49.9071 -8.46194
      vertex 28.8647 49.8647 -8.46194
    endloop
  endfacet
  facet normal 0.429033 0.566353 0.703686
    outer loop
      vertex 27.6734 51.6734 -9.19134
      vertex 28.8087 49.9071 -8.46194
      vertex 27.8647 51.8647 -9.46194
    endloop
  endfacet
  facet normal 0.429009 0.566346 0.703707
    outer loop
      vertex 28.8087 49.9071 -8.46194
      vertex 27.6734 51.6734 -9.19134
      vertex 28.6057 49.8087 -8.25899
    endloop
  endfacet
  facet normal 0.67878 0.280944 -0.678475
    outer loop
      vertex 27.8087 52 5.46194
      vertex 27.8647 51.8647 5.46194
      vertex 27.6734 51.6734 5.19134
    endloop
  endfacet
  facet normal 0.428788 0.566324 -0.70386
    outer loop
      vertex 28.8087 49.9071 4.46194
      vertex 27.8647 51.8647 5.46194
      vertex 28.8647 49.8647 4.46194
    endloop
  endfacet
  facet normal 0.429009 0.566346 -0.703707
    outer loop
      vertex 27.6734 51.6734 5.19134
      vertex 28.8087 49.9071 4.46194
      vertex 28.6057 49.8087 4.25899
    endloop
  endfacet
  facet normal 0.429033 0.566353 -0.703686
    outer loop
      vertex 28.8087 49.9071 4.46194
      vertex 27.6734 51.6734 5.19134
      vertex 27.8647 51.8647 5.46194
    endloop
  endfacet
  facet normal -0.216094 0.520941 -0.825787
    outer loop
      vertex 147.135 49.8647 4.46194
      vertex 148 51.8087 5.46194
      vertex 148.135 51.8647 5.46194
    endloop
  endfacet
  facet normal -0.216094 0.520941 -0.825787
    outer loop
      vertex 148 51.8087 5.46194
      vertex 147.135 49.8647 4.46194
      vertex 147 49.8087 4.46194
    endloop
  endfacet
  facet normal -0.678248 0.280354 -0.679251
    outer loop
      vertex 148.462 52 5.19134
      vertex 148.327 51.6734 5.19134
      vertex 148.191 52 5.46194
    endloop
  endfacet
  facet normal -0.924162 0.382002 0
    outer loop
      vertex 148.327 51.6734 -9.19134
      vertex 148.462 52 5.19134
      vertex 148.462 52 -9.19134
    endloop
  endfacet
  facet normal -0.924162 0.382002 0
    outer loop
      vertex 148.462 52 5.19134
      vertex 148.327 51.6734 -9.19134
      vertex 148.327 51.6734 5.19134
    endloop
  endfacet
  facet normal -0.428926 0.56645 -0.703674
    outer loop
      vertex 147.191 49.9071 4.46194
      vertex 148.327 51.6734 5.19134
      vertex 147.394 49.8087 4.25899
    endloop
  endfacet
  facet normal -0.428294 0.566264 -0.704208
    outer loop
      vertex 148.327 51.6734 5.19134
      vertex 147.191 49.9071 4.46194
      vertex 148.135 51.8647 5.46194
    endloop
  endfacet
  facet normal -0.428788 0.566324 -0.70386
    outer loop
      vertex 148.135 51.8647 5.46194
      vertex 147.191 49.9071 4.46194
      vertex 147.135 49.8647 4.46194
    endloop
  endfacet
  facet normal 1 -0 0
    outer loop
      vertex 150 -50.5 10
      vertex 150 52 -10
      vertex 150 52 10
    endloop
  endfacet
  facet normal 1 0 0
    outer loop
      vertex 150 52 -10
      vertex 150 -50.5 10
      vertex 150 -50.5 -10
    endloop
  endfacet
  facet normal -0 0 1
    outer loop
      vertex -68 52 10
      vertex 150 -50.5 10
      vertex 150 52 10
    endloop
  endfacet
  facet normal 0 0 1
    outer loop
      vertex 150 -50.5 10
      vertex -68 52 10
      vertex -68 -50.5 10
    endloop
  endfacet
  facet normal 0 0 -1
    outer loop
      vertex -68 -50.5 -10
      vertex 150 52 -10
      vertex 150 -50.5 -10
    endloop
  endfacet
  facet normal -0 0 -1
    outer loop
      vertex 150 52 -10
      vertex -68 -50.5 -10
      vertex -68 52 -10
    endloop
  endfacet
  facet normal -1 0 0
    outer loop
      vertex -68 -50.5 -10
      vertex -68 52 10
      vertex -68 52 -10
    endloop
  endfacet
  facet normal -1 -0 0
    outer loop
      vertex -68 52 10
      vertex -68 -50.5 -10
      vertex -68 -50.5 10
    endloop
  endfacet
  facet normal 0 1 0
    outer loop
      vertex 150 52 10
      vertex 26.1913 52 9.46194
      vertex -68 52 10
    endloop
  endfacet
  facet normal 0 1 0
    outer loop
      vertex 150 52 10
      vertex 26.4619 52 9.19134
      vertex 26.1913 52 9.46194
    endloop
  endfacet
  facet normal 0 1 0
    outer loop
      vertex 150 52 10
      vertex 148.191 52 5.46194
      vertex 26.4619 52 9.19134
    endloop
  endfacet
  facet normal 0 1 0
    outer loop
      vertex 150 52 10
      vertex 148.462 52 5.19134
      vertex 148.191 52 5.46194
    endloop
  endfacet
  facet normal 0 1 -0
    outer loop
      vertex 150 52 -10
      vertex 148.462 52 5.19134
      vertex 150 52 10
    endloop
  endfacet
  facet normal 0 1 0
    outer loop
      vertex 150 52 -10
      vertex 27.8087 52 -9.46194
      vertex 148.191 52 -9.46194
    endloop
  endfacet
  facet normal 0 1 0
    outer loop
      vertex 27.8087 52 -9.46194
      vertex 150 52 -10
      vertex 26.1913 52 -9.46194
    endloop
  endfacet
  facet normal 0 1 0
    outer loop
      vertex -68 52 -10
      vertex 26.1913 52 -9.46194
      vertex 150 52 -10
    endloop
  endfacet
  facet normal 0 1 0
    outer loop
      vertex 148.462 52 -9.19134
      vertex 150 52 -10
      vertex 148.191 52 -9.46194
    endloop
  endfacet
  facet normal 0 1 0
    outer loop
      vertex 148.462 52 5.19134
      vertex 150 52 -10
      vertex 148.462 52 -9.19134
    endloop
  endfacet
  facet normal 0 1 -0
    outer loop
      vertex -66.1913 52 9.46194
      vertex -68 52 10
      vertex 26.1913 52 9.46194
    endloop
  endfacet
  facet normal 0 1 -0
    outer loop
      vertex -66.4619 52 9.19134
      vertex -68 52 10
      vertex -66.1913 52 9.46194
    endloop
  endfacet
  facet normal 0 1 -0
    outer loop
      vertex -66.4619 52 -9.19134
      vertex -68 52 10
      vertex -66.4619 52 9.19134
    endloop
  endfacet
  facet normal 0 1 0
    outer loop
      vertex -66.4619 52 -9.19134
      vertex -68 52 -10
      vertex -68 52 10
    endloop
  endfacet
  facet normal 0 1 0
    outer loop
      vertex -66.1913 52 -9.46194
      vertex -68 52 -10
      vertex -66.4619 52 -9.19134
    endloop
  endfacet
  facet normal 0 1 0
    outer loop
      vertex 26.1913 52 -9.46194
      vertex -68 52 -10
      vertex -66.1913 52 -9.46194
    endloop
  endfacet
  facet normal 0 1 -0
    outer loop
      vertex 27.8087 52 5.46194
      vertex 26.4619 52 9.19134
      vertex 148.191 52 5.46194
    endloop
  endfacet
  facet normal 0 1 -0
    outer loop
      vertex 27.5381 52 5.19134
      vertex 26.4619 52 9.19134
      vertex 27.8087 52 5.46194
    endloop
  endfacet
  facet normal 0 1 0
    outer loop
      vertex 26.4619 52 -9.19134
      vertex 27.5381 52 5.19134
      vertex 27.5381 52 -9.19134
    endloop
  endfacet
  facet normal 0 1 0
    outer loop
      vertex 27.5381 52 5.19134
      vertex 26.4619 52 -9.19134
      vertex 26.4619 52 9.19134
    endloop
  endfacet
  facet normal 0 1 0
    outer loop
      vertex 27.8087 52 -9.46194
      vertex 26.4619 52 -9.19134
      vertex 27.5381 52 -9.19134
    endloop
  endfacet
  facet normal 0 1 0
    outer loop
      vertex 26.4619 52 -9.19134
      vertex 27.8087 52 -9.46194
      vertex 26.1913 52 -9.46194
    endloop
  endfacet
  facet normal 0 -1 0
    outer loop
      vertex 20.3457 -50.5 8.80761
      vertex -68 -50.5 10
      vertex -60.3457 -50.5 8.80761
    endloop
  endfacet
  facet normal 0 -1 0
    outer loop
      vertex -68 -50.5 10
      vertex -60.4529 -50.5 8.77959
      vertex -60.3457 -50.5 8.80761
    endloop
  endfacet
  facet normal 0 -1 0
    outer loop
      vertex -68 -50.5 10
      vertex -60.74 -50.5 8.60466
      vertex -60.4529 -50.5 8.77959
    endloop
  endfacet
  facet normal 0 -1 0
    outer loop
      vertex -68 -50.5 10
      vertex -60.74 -50.5 -8.60466
      vertex -60.74 -50.5 8.60466
    endloop
  endfacet
  facet normal 0 -1 -0
    outer loop
      vertex -60.3457 -50.5 -8.80761
      vertex -68 -50.5 -10
      vertex 20.3457 -50.5 -8.80761
    endloop
  endfacet
  facet normal 0 -1 -0
    outer loop
      vertex -60.4529 -50.5 -8.77959
      vertex -68 -50.5 -10
      vertex -60.3457 -50.5 -8.80761
    endloop
  endfacet
  facet normal 0 -1 -0
    outer loop
      vertex -60.74 -50.5 -8.60466
      vertex -68 -50.5 -10
      vertex -60.4529 -50.5 -8.77959
    endloop
  endfacet
  facet normal 0 -1 0
    outer loop
      vertex -68 -50.5 -10
      vertex -60.74 -50.5 -8.60466
      vertex -68 -50.5 10
    endloop
  endfacet
  facet normal 0 -1 0
    outer loop
      vertex -68 -50.5 10
      vertex 20.3457 -50.5 8.80761
      vertex 150 -50.5 10
    endloop
  endfacet
  facet normal 0 -1 0
    outer loop
      vertex 20.4529 -50.5 8.77959
      vertex 150 -50.5 10
      vertex 20.3457 -50.5 8.80761
    endloop
  endfacet
  facet normal 0 -1 0
    outer loop
      vertex 20.74 -50.5 8.60466
      vertex 150 -50.5 10
      vertex 20.4529 -50.5 8.77959
    endloop
  endfacet
  facet normal 0 -1 0
    outer loop
      vertex 20.74 -50.5 -8.60466
      vertex 150 -50.5 10
      vertex 20.74 -50.5 8.60466
    endloop
  endfacet
  facet normal 0 -1 0
    outer loop
      vertex 150 -50.5 -10
      vertex 20.74 -50.5 -8.60466
      vertex 20.4529 -50.5 -8.77959
    endloop
  endfacet
  facet normal 0 -1 0
    outer loop
      vertex 150 -50.5 -10
      vertex 20.4529 -50.5 -8.77959
      vertex 20.3457 -50.5 -8.80761
    endloop
  endfacet
  facet normal 0 -1 0
    outer loop
      vertex 20.74 -50.5 -8.60466
      vertex 150 -50.5 -10
      vertex 150 -50.5 10
    endloop
  endfacet
  facet normal 0 -1 0
    outer loop
      vertex 150 -50.5 -10
      vertex 20.3457 -50.5 -8.80761
      vertex -68 -50.5 -10
    endloop
  endfacet
endsolid OpenSCAD_Model
