solid OpenSCAD_Model
  facet normal -0.28085 -0.678951 0.678343
    outer loop
      vertex 126.153 -54.5967 -5.88268
      vertex 125.5 -54.8673 -6.42388
      vertex 125.771 -54.9794 -6.42388
    endloop
  endfacet
  facet normal -0.281198 -0.678575 -0.678575
    outer loop
      vertex 125.5 -54.3261 10.8827
      vertex 126.153 -54.5967 10.8827
      vertex 125.5 -54.8673 11.4239
    endloop
  endfacet
  facet normal -0.383309 0.92362 0
    outer loop
      vertex 126.153 -114.403 -5.88268
      vertex 125.5 -114.674 10.8827
      vertex 126.153 -114.403 10.8827
    endloop
  endfacet
  facet normal -0.383309 0.92362 0
    outer loop
      vertex 125.5 -114.674 10.8827
      vertex 126.153 -114.403 -5.88268
      vertex 125.5 -114.674 -5.88268
    endloop
  endfacet
  facet normal -0.679103 -0.281077 0.678096
    outer loop
      vertex 126.153 -54.5967 -5.88268
      vertex 125.771 -54.9794 -6.42388
      vertex 125.883 -55.25 -6.42388
    endloop
  endfacet
  facet normal 0 -0.707107 -0.707107
    outer loop
      vertex 32.129 -54.5967 11.1533
      vertex 125.5 -54.8673 11.4239
      vertex 31.7682 -54.8673 11.4239
    endloop
  endfacet
  facet normal -0 -0.707107 -0.707107
    outer loop
      vertex 125.5 -54.3261 10.8827
      vertex 32.129 -54.5967 11.1533
      vertex 31.7682 -54.3261 10.8827
    endloop
  endfacet
  facet normal 0 -0.707107 -0.707107
    outer loop
      vertex 32.129 -54.5967 11.1533
      vertex 125.5 -54.3261 10.8827
      vertex 125.5 -54.8673 11.4239
    endloop
  endfacet
  facet normal 0 -0.707107 0.707107
    outer loop
      vertex 32.129 -54.5967 -6.15328
      vertex 125.5 -54.3261 -5.88268
      vertex 31.7682 -54.3261 -5.88268
    endloop
  endfacet
  facet normal 0 -0.707107 0.707107
    outer loop
      vertex 125.5 -54.8673 -6.42388
      vertex 32.129 -54.5967 -6.15328
      vertex 31.7682 -54.8673 -6.42388
    endloop
  endfacet
  facet normal 0 -0.707107 0.707107
    outer loop
      vertex 32.129 -54.5967 -6.15328
      vertex 125.5 -54.8673 -6.42388
      vertex 125.5 -54.3261 -5.88268
    endloop
  endfacet
  facet normal 0 0 1
    outer loop
      vertex 125.5 -54.8673 -6.42388
      vertex 125.883 -55.25 -6.42388
      vertex 125.771 -54.9794 -6.42388
    endloop
  endfacet
  facet normal 0 0 1
    outer loop
      vertex 125.883 -55.25 -6.42388
      vertex 125.5 -54.8673 -6.42388
      vertex 125.883 -113.75 -6.42388
    endloop
  endfacet
  facet normal 0 0 1
    outer loop
      vertex 125.5 -114.133 -6.42388
      vertex 125.883 -113.75 -6.42388
      vertex 125.5 -54.8673 -6.42388
    endloop
  endfacet
  facet normal 0 0 1
    outer loop
      vertex 125.883 -113.75 -6.42388
      vertex 125.5 -114.133 -6.42388
      vertex 125.771 -114.021 -6.42388
    endloop
  endfacet
  facet normal 0 0 1
    outer loop
      vertex 125.5 -54.8673 -6.42388
      vertex 45.2388 -84.5 -6.42388
      vertex 125.5 -114.133 -6.42388
    endloop
  endfacet
  facet normal 0 0 1
    outer loop
      vertex 125.5 -54.8673 -6.42388
      vertex 42.5328 -77.9672 -6.42388
      vertex 45.2388 -84.5 -6.42388
    endloop
  endfacet
  facet normal -0 0 1
    outer loop
      vertex 31.7682 -54.8673 -6.42388
      vertex 42.5328 -77.9672 -6.42388
      vertex 125.5 -54.8673 -6.42388
    endloop
  endfacet
  facet normal 0 0 1
    outer loop
      vertex 42.5328 -77.9672 -6.42388
      vertex 31.7682 -54.8673 -6.42388
      vertex 36 -75.2612 -6.42388
    endloop
  endfacet
  facet normal 0 0 1
    outer loop
      vertex 36 -75.2612 -6.42388
      vertex 31.7682 -54.8673 -6.42388
      vertex 31.7682 -75.2612 -6.42388
    endloop
  endfacet
  facet normal -0 0 1
    outer loop
      vertex 42.5328 -91.0328 -6.42388
      vertex 125.5 -114.133 -6.42388
      vertex 45.2388 -84.5 -6.42388
    endloop
  endfacet
  facet normal 0 0 1
    outer loop
      vertex 31.7682 -114.133 -6.42388
      vertex 42.5328 -91.0328 -6.42388
      vertex 36 -93.7388 -6.42388
    endloop
  endfacet
  facet normal 0 0 1
    outer loop
      vertex 31.7682 -114.133 -6.42388
      vertex 36 -93.7388 -6.42388
      vertex 31.7682 -93.7388 -6.42388
    endloop
  endfacet
  facet normal 0 0 1
    outer loop
      vertex 42.5328 -91.0328 -6.42388
      vertex 31.7682 -114.133 -6.42388
      vertex 125.5 -114.133 -6.42388
    endloop
  endfacet
  facet normal -0.28082 0.679485 0.677821
    outer loop
      vertex 125.771 -114.021 -6.42388
      vertex 125.5 -114.133 -6.42388
      vertex 126.153 -114.403 -5.88268
    endloop
  endfacet
  facet normal 3.78724e-06 0.707237 0.706976
    outer loop
      vertex 125.5 -114.133 -6.42388
      vertex 32.129 -114.403 -6.15328
      vertex 125.5 -114.674 -5.88268
    endloop
  endfacet
  facet normal 0 0.707891 0.706322
    outer loop
      vertex 32.129 -114.403 -6.15328
      vertex 125.5 -114.133 -6.42388
      vertex 31.7682 -114.133 -6.42388
    endloop
  endfacet
  facet normal 0 0.706584 0.707629
    outer loop
      vertex 125.5 -114.674 -5.88268
      vertex 32.129 -114.403 -6.15328
      vertex 31.7682 -114.674 -5.88268
    endloop
  endfacet
  facet normal 0 -1 0
    outer loop
      vertex 31.7682 -54.3261 -5.88268
      vertex 125.5 -54.3261 10.8827
      vertex 31.7682 -54.3261 10.8827
    endloop
  endfacet
  facet normal 0 -1 -0
    outer loop
      vertex 125.5 -54.3261 10.8827
      vertex 31.7682 -54.3261 -5.88268
      vertex 125.5 -54.3261 -5.88268
    endloop
  endfacet
  facet normal -0.707237 0 0.706976
    outer loop
      vertex 125.883 -55.25 -6.42388
      vertex 126.424 -113.75 -5.88268
      vertex 126.424 -55.25 -5.88268
    endloop
  endfacet
  facet normal -0.707237 0 0.706976
    outer loop
      vertex 126.424 -113.75 -5.88268
      vertex 125.883 -55.25 -6.42388
      vertex 125.883 -113.75 -6.42388
    endloop
  endfacet
  facet normal -1 0 0
    outer loop
      vertex 126.424 -113.75 -5.88268
      vertex 126.424 -55.25 10.8827
      vertex 126.424 -55.25 -5.88268
    endloop
  endfacet
  facet normal -1 -0 0
    outer loop
      vertex 126.424 -55.25 10.8827
      vertex 126.424 -113.75 -5.88268
      vertex 126.424 -113.75 10.8827
    endloop
  endfacet
  facet normal -0.678636 -0.28151 -0.678385
    outer loop
      vertex 125.883 -55.25 11.4239
      vertex 126.153 -54.5967 10.8827
      vertex 126.424 -55.25 10.8827
    endloop
  endfacet
  facet normal -0.28085 -0.678951 -0.678343
    outer loop
      vertex 125.5 -54.8673 11.4239
      vertex 126.153 -54.5967 10.8827
      vertex 125.771 -54.9794 11.4239
    endloop
  endfacet
  facet normal -0.679103 -0.281077 -0.678096
    outer loop
      vertex 125.771 -54.9794 11.4239
      vertex 126.153 -54.5967 10.8827
      vertex 125.883 -55.25 11.4239
    endloop
  endfacet
  facet normal -0.281198 -0.678575 0.678575
    outer loop
      vertex 126.153 -54.5967 -5.88268
      vertex 125.5 -54.3261 -5.88268
      vertex 125.5 -54.8673 -6.42388
    endloop
  endfacet
  facet normal -0.382827 -0.92382 0
    outer loop
      vertex 125.5 -54.3261 -5.88268
      vertex 126.153 -54.5967 10.8827
      vertex 125.5 -54.3261 10.8827
    endloop
  endfacet
  facet normal -0.382827 -0.92382 -0
    outer loop
      vertex 126.153 -54.5967 10.8827
      vertex 125.5 -54.3261 -5.88268
      vertex 126.153 -54.5967 -5.88268
    endloop
  endfacet
  facet normal -0.281629 0.678611 0.67836
    outer loop
      vertex 126.153 -114.403 -5.88268
      vertex 125.5 -114.133 -6.42388
      vertex 125.5 -114.674 -5.88268
    endloop
  endfacet
  facet normal -0.678611 0.281629 -0.67836
    outer loop
      vertex 125.883 -113.75 11.4239
      vertex 126.424 -113.75 10.8827
      vertex 126.153 -114.403 10.8827
    endloop
  endfacet
  facet normal -0.28082 0.679485 -0.677821
    outer loop
      vertex 125.5 -114.133 11.4239
      vertex 125.771 -114.021 11.4239
      vertex 126.153 -114.403 10.8827
    endloop
  endfacet
  facet normal -0.707237 0 -0.706976
    outer loop
      vertex 125.883 -113.75 11.4239
      vertex 126.424 -55.25 10.8827
      vertex 126.424 -113.75 10.8827
    endloop
  endfacet
  facet normal -0.707237 0 -0.706976
    outer loop
      vertex 126.424 -55.25 10.8827
      vertex 125.883 -113.75 11.4239
      vertex 125.883 -55.25 11.4239
    endloop
  endfacet
  facet normal -0.92362 0.383309 0
    outer loop
      vertex 126.153 -114.403 -5.88268
      vertex 126.424 -113.75 10.8827
      vertex 126.424 -113.75 -5.88268
    endloop
  endfacet
  facet normal -0.92362 0.383309 0
    outer loop
      vertex 126.424 -113.75 10.8827
      vertex 126.153 -114.403 -5.88268
      vertex 126.153 -114.403 10.8827
    endloop
  endfacet
  facet normal -0.923682 -0.383159 0
    outer loop
      vertex 126.424 -55.25 -5.88268
      vertex 126.153 -54.5967 10.8827
      vertex 126.153 -54.5967 -5.88268
    endloop
  endfacet
  facet normal -0.923682 -0.383159 0
    outer loop
      vertex 126.153 -54.5967 10.8827
      vertex 126.424 -55.25 -5.88268
      vertex 126.424 -55.25 10.8827
    endloop
  endfacet
  facet normal -0.678636 -0.28151 0.678385
    outer loop
      vertex 126.153 -54.5967 -5.88268
      vertex 125.883 -55.25 -6.42388
      vertex 126.424 -55.25 -5.88268
    endloop
  endfacet
  facet normal -0.281629 0.678611 -0.67836
    outer loop
      vertex 125.5 -114.133 11.4239
      vertex 126.153 -114.403 10.8827
      vertex 125.5 -114.674 10.8827
    endloop
  endfacet
  facet normal 3.78724e-06 0.707237 -0.706976
    outer loop
      vertex 125.5 -114.674 10.8827
      vertex 32.129 -114.403 11.1533
      vertex 125.5 -114.133 11.4239
    endloop
  endfacet
  facet normal 0 0.706584 -0.707629
    outer loop
      vertex 32.129 -114.403 11.1533
      vertex 125.5 -114.674 10.8827
      vertex 31.7682 -114.674 10.8827
    endloop
  endfacet
  facet normal 0 0.707891 -0.706322
    outer loop
      vertex 125.5 -114.133 11.4239
      vertex 32.129 -114.403 11.1533
      vertex 31.7682 -114.133 11.4239
    endloop
  endfacet
  facet normal -0.679485 0.28082 0.677821
    outer loop
      vertex 125.883 -113.75 -6.42388
      vertex 125.771 -114.021 -6.42388
      vertex 126.153 -114.403 -5.88268
    endloop
  endfacet
  facet normal -0.678611 0.281629 0.67836
    outer loop
      vertex 126.424 -113.75 -5.88268
      vertex 125.883 -113.75 -6.42388
      vertex 126.153 -114.403 -5.88268
    endloop
  endfacet
  facet normal 0 0 -1
    outer loop
      vertex 125.5 -114.133 11.4239
      vertex 125.883 -113.75 11.4239
      vertex 125.771 -114.021 11.4239
    endloop
  endfacet
  facet normal -0 0 -1
    outer loop
      vertex 125.883 -113.75 11.4239
      vertex 125.5 -114.133 11.4239
      vertex 125.883 -55.25 11.4239
    endloop
  endfacet
  facet normal 0 0 -1
    outer loop
      vertex 125.5 -54.8673 11.4239
      vertex 125.883 -55.25 11.4239
      vertex 125.5 -114.133 11.4239
    endloop
  endfacet
  facet normal 0 0 -1
    outer loop
      vertex 125.883 -55.25 11.4239
      vertex 125.5 -54.8673 11.4239
      vertex 125.771 -54.9794 11.4239
    endloop
  endfacet
  facet normal 0 0 -1
    outer loop
      vertex 125.5 -114.133 11.4239
      vertex 45.2388 -84.5 11.4239
      vertex 125.5 -54.8673 11.4239
    endloop
  endfacet
  facet normal 0 0 -1
    outer loop
      vertex 125.5 -114.133 11.4239
      vertex 42.5328 -91.0328 11.4239
      vertex 45.2388 -84.5 11.4239
    endloop
  endfacet
  facet normal 0 0 -1
    outer loop
      vertex 31.7682 -114.133 11.4239
      vertex 42.5328 -91.0328 11.4239
      vertex 125.5 -114.133 11.4239
    endloop
  endfacet
  facet normal 0 0 -1
    outer loop
      vertex 42.5328 -91.0328 11.4239
      vertex 31.7682 -114.133 11.4239
      vertex 36 -93.7388 11.4239
    endloop
  endfacet
  facet normal -0 0 -1
    outer loop
      vertex 36 -93.7388 11.4239
      vertex 31.7682 -114.133 11.4239
      vertex 31.7682 -93.7388 11.4239
    endloop
  endfacet
  facet normal 0 0 -1
    outer loop
      vertex 42.5328 -77.9672 11.4239
      vertex 125.5 -54.8673 11.4239
      vertex 45.2388 -84.5 11.4239
    endloop
  endfacet
  facet normal 0 0 -1
    outer loop
      vertex 31.7682 -54.8673 11.4239
      vertex 42.5328 -77.9672 11.4239
      vertex 36 -75.2612 11.4239
    endloop
  endfacet
  facet normal 0 0 -1
    outer loop
      vertex 31.7682 -54.8673 11.4239
      vertex 36 -75.2612 11.4239
      vertex 31.7682 -75.2612 11.4239
    endloop
  endfacet
  facet normal 0 0 -1
    outer loop
      vertex 42.5328 -77.9672 11.4239
      vertex 31.7682 -54.8673 11.4239
      vertex 125.5 -54.8673 11.4239
    endloop
  endfacet
  facet normal -0.679485 0.28082 -0.677821
    outer loop
      vertex 125.771 -114.021 11.4239
      vertex 125.883 -113.75 11.4239
      vertex 126.153 -114.403 10.8827
    endloop
  endfacet
  facet normal 0 1 -0
    outer loop
      vertex 125.5 -114.674 -5.88268
      vertex 31.7682 -114.674 10.8827
      vertex 125.5 -114.674 10.8827
    endloop
  endfacet
  facet normal 0 1 0
    outer loop
      vertex 31.7682 -114.674 10.8827
      vertex 125.5 -114.674 -5.88268
      vertex 31.7682 -114.674 -5.88268
    endloop
  endfacet
  facet normal -0.600385 0.799711 -0.000379185
    outer loop
      vertex 31.7682 -114.674 10.8827
      vertex 31.5 -114.875 11.625
      vertex 32.129 -114.403 11.1533
    endloop
  endfacet
  facet normal -0.599714 0.800215 0
    outer loop
      vertex 31.7682 -114.674 -5.88268
      vertex 31.5 -114.875 11.625
      vertex 31.7682 -114.674 10.8827
    endloop
  endfacet
  facet normal -0.599714 0.800215 0
    outer loop
      vertex 31.7682 -114.674 -5.88268
      vertex 31.5 -114.875 -6.625
      vertex 31.5 -114.875 11.625
    endloop
  endfacet
  facet normal -0.600385 0.799711 0.000379177
    outer loop
      vertex 31.5 -114.875 -6.625
      vertex 31.7682 -114.674 -5.88268
      vertex 32.129 -114.403 -6.15328
    endloop
  endfacet
  facet normal -0.59998 4.24319e-05 -0.800015
    outer loop
      vertex 31.5 -114.875 11.625
      vertex 31.7682 -114.133 11.4239
      vertex 32.129 -114.403 11.1533
    endloop
  endfacet
  facet normal -0.599905 -0 -0.800072
    outer loop
      vertex 31.5 -93.7388 11.625
      vertex 31.7682 -114.133 11.4239
      vertex 31.5 -114.875 11.625
    endloop
  endfacet
  facet normal -0.599905 0 -0.800072
    outer loop
      vertex 31.7682 -114.133 11.4239
      vertex 31.5 -93.7388 11.625
      vertex 31.7682 -93.7388 11.4239
    endloop
  endfacet
  facet normal -0.599905 0 -0.800072
    outer loop
      vertex 31.7682 -75.2612 11.4239
      vertex 31.5 -75.2612 11.625
      vertex 31.7682 -54.8673 11.4239
    endloop
  endfacet
  facet normal -0.59998 -4.23984e-05 -0.800015
    outer loop
      vertex 31.7682 -54.8673 11.4239
      vertex 31.5 -54.125 11.625
      vertex 32.129 -54.5967 11.1533
    endloop
  endfacet
  facet normal -0.599905 -0 -0.800072
    outer loop
      vertex 31.5 -54.125 11.625
      vertex 31.7682 -54.8673 11.4239
      vertex 31.5 -75.2612 11.625
    endloop
  endfacet
  facet normal -0.59998 -0.800015 -4.23984e-05
    outer loop
      vertex 31.5 -54.125 11.625
      vertex 31.7682 -54.3261 10.8827
      vertex 32.129 -54.5967 11.1533
    endloop
  endfacet
  facet normal -0.599905 -0.800072 0
    outer loop
      vertex 31.5 -54.125 11.625
      vertex 31.7682 -54.3261 -5.88268
      vertex 31.7682 -54.3261 10.8827
    endloop
  endfacet
  facet normal -0.59998 -0.800015 4.23975e-05
    outer loop
      vertex 31.7682 -54.3261 -5.88268
      vertex 31.5 -54.125 -6.625
      vertex 32.129 -54.5967 -6.15328
    endloop
  endfacet
  facet normal -0.599905 -0.800072 0
    outer loop
      vertex 31.5 -54.125 -6.625
      vertex 31.7682 -54.3261 -5.88268
      vertex 31.5 -54.125 11.625
    endloop
  endfacet
  facet normal -0.599943 0 0.800043
    outer loop
      vertex 31.7682 -93.7388 -6.42388
      vertex 31.5 -93.7388 -6.625
      vertex 31.7682 -114.133 -6.42388
    endloop
  endfacet
  facet normal -0.599988 2.5459e-05 0.800009
    outer loop
      vertex 31.7682 -114.133 -6.42388
      vertex 31.5 -114.875 -6.625
      vertex 32.129 -114.403 -6.15328
    endloop
  endfacet
  facet normal -0.599943 0 0.800043
    outer loop
      vertex 31.5 -114.875 -6.625
      vertex 31.7682 -114.133 -6.42388
      vertex 31.5 -93.7388 -6.625
    endloop
  endfacet
  facet normal -0.599988 -2.54388e-05 0.800009
    outer loop
      vertex 31.5 -54.125 -6.625
      vertex 31.7682 -54.8673 -6.42388
      vertex 32.129 -54.5967 -6.15328
    endloop
  endfacet
  facet normal -0.599943 0 0.800043
    outer loop
      vertex 31.5 -75.2612 -6.625
      vertex 31.7682 -54.8673 -6.42388
      vertex 31.5 -54.125 -6.625
    endloop
  endfacet
  facet normal -0.599943 0 0.800043
    outer loop
      vertex 31.7682 -54.8673 -6.42388
      vertex 31.5 -75.2612 -6.625
      vertex 31.7682 -75.2612 -6.42388
    endloop
  endfacet
  facet normal 0 1 -0
    outer loop
      vertex 36 -93.7388 -8
      vertex 31.7682 -93.7388 -6.42388
      vertex 36 -93.7388 -6.42388
    endloop
  endfacet
  facet normal 0 1 0
    outer loop
      vertex 31.5 -93.7388 -8
      vertex 31.7682 -93.7388 -6.42388
      vertex 36 -93.7388 -8
    endloop
  endfacet
  facet normal 0 1 0
    outer loop
      vertex 31.7682 -93.7388 -6.42388
      vertex 31.5 -93.7388 -8
      vertex 31.5 -93.7388 -6.625
    endloop
  endfacet
  facet normal 0 1 0
    outer loop
      vertex 31.7682 -93.7388 11.4239
      vertex 31.7682 -93.7388 13.5761
      vertex 36 -93.7388 13.5761
    endloop
  endfacet
  facet normal 0 1 0
    outer loop
      vertex 31.7682 -93.7388 13.5761
      vertex 31.7682 -93.7388 11.4239
      vertex 31.5 -93.7388 13.375
    endloop
  endfacet
  facet normal 0 1 0
    outer loop
      vertex 31.7682 -93.7388 11.4239
      vertex 36 -93.7388 13.5761
      vertex 36 -93.7388 11.4239
    endloop
  endfacet
  facet normal 0 1 0
    outer loop
      vertex 31.5 -93.7388 13.375
      vertex 31.7682 -93.7388 11.4239
      vertex 31.5 -93.7388 11.625
    endloop
  endfacet
  facet normal -0.923878 -0.382687 0
    outer loop
      vertex 45.2388 -84.5 -8
      vertex 42.5328 -77.9672 -6.42388
      vertex 42.5328 -77.9672 -8
    endloop
  endfacet
  facet normal -0.923878 -0.382687 0
    outer loop
      vertex 42.5328 -77.9672 -6.42388
      vertex 45.2388 -84.5 -8
      vertex 45.2388 -84.5 -6.42388
    endloop
  endfacet
  facet normal -0.923878 -0.382687 0
    outer loop
      vertex 45.2388 -84.5 11.4239
      vertex 42.5328 -77.9672 13.5761
      vertex 42.5328 -77.9672 11.4239
    endloop
  endfacet
  facet normal -0.923878 -0.382687 0
    outer loop
      vertex 42.5328 -77.9672 13.5761
      vertex 45.2388 -84.5 11.4239
      vertex 45.2388 -84.5 13.5761
    endloop
  endfacet
  facet normal -0.382687 -0.923878 0
    outer loop
      vertex 36 -75.2612 -8
      vertex 42.5328 -77.9672 -6.42388
      vertex 36 -75.2612 -6.42388
    endloop
  endfacet
  facet normal -0.382687 -0.923878 -0
    outer loop
      vertex 42.5328 -77.9672 -6.42388
      vertex 36 -75.2612 -8
      vertex 42.5328 -77.9672 -8
    endloop
  endfacet
  facet normal -0.382687 -0.923878 0
    outer loop
      vertex 36 -75.2612 11.4239
      vertex 42.5328 -77.9672 13.5761
      vertex 36 -75.2612 13.5761
    endloop
  endfacet
  facet normal -0.382687 -0.923878 -0
    outer loop
      vertex 42.5328 -77.9672 13.5761
      vertex 36 -75.2612 11.4239
      vertex 42.5328 -77.9672 11.4239
    endloop
  endfacet
  facet normal 0 -1 0
    outer loop
      vertex 31.5 -75.2612 -8
      vertex 31.7682 -75.2612 -6.42388
      vertex 31.5 -75.2612 -6.625
    endloop
  endfacet
  facet normal 0 -1 -0
    outer loop
      vertex 31.7682 -75.2612 -6.42388
      vertex 31.5 -75.2612 -8
      vertex 36 -75.2612 -8
    endloop
  endfacet
  facet normal 0 -1 0
    outer loop
      vertex 31.7682 -75.2612 -6.42388
      vertex 36 -75.2612 -8
      vertex 36 -75.2612 -6.42388
    endloop
  endfacet
  facet normal 0 -1 0
    outer loop
      vertex 31.7682 -75.2612 11.4239
      vertex 31.7682 -75.2612 13.5761
      vertex 31.5 -75.2612 13.375
    endloop
  endfacet
  facet normal 0 -1 0
    outer loop
      vertex 31.7682 -75.2612 11.4239
      vertex 31.5 -75.2612 13.375
      vertex 31.5 -75.2612 11.625
    endloop
  endfacet
  facet normal 0 -1 0
    outer loop
      vertex 31.7682 -75.2612 13.5761
      vertex 31.7682 -75.2612 11.4239
      vertex 36 -75.2612 13.5761
    endloop
  endfacet
  facet normal 0 -1 -0
    outer loop
      vertex 36 -75.2612 13.5761
      vertex 31.7682 -75.2612 11.4239
      vertex 36 -75.2612 11.4239
    endloop
  endfacet
  facet normal -0.382687 0.923878 0
    outer loop
      vertex 42.5328 -91.0328 -8
      vertex 36 -93.7388 -6.42388
      vertex 42.5328 -91.0328 -6.42388
    endloop
  endfacet
  facet normal -0.382687 0.923878 0
    outer loop
      vertex 36 -93.7388 -6.42388
      vertex 42.5328 -91.0328 -8
      vertex 36 -93.7388 -8
    endloop
  endfacet
  facet normal -0.382687 0.923878 0
    outer loop
      vertex 42.5328 -91.0328 11.4239
      vertex 36 -93.7388 13.5761
      vertex 42.5328 -91.0328 13.5761
    endloop
  endfacet
  facet normal -0.382687 0.923878 0
    outer loop
      vertex 36 -93.7388 13.5761
      vertex 42.5328 -91.0328 11.4239
      vertex 36 -93.7388 11.4239
    endloop
  endfacet
  facet normal -0.923878 0.382687 0
    outer loop
      vertex 42.5328 -91.0328 -8
      vertex 45.2388 -84.5 -6.42388
      vertex 45.2388 -84.5 -8
    endloop
  endfacet
  facet normal -0.923878 0.382687 0
    outer loop
      vertex 45.2388 -84.5 -6.42388
      vertex 42.5328 -91.0328 -8
      vertex 42.5328 -91.0328 -6.42388
    endloop
  endfacet
  facet normal -0.923878 0.382687 0
    outer loop
      vertex 42.5328 -91.0328 11.4239
      vertex 45.2388 -84.5 13.5761
      vertex 45.2388 -84.5 11.4239
    endloop
  endfacet
  facet normal -0.923878 0.382687 0
    outer loop
      vertex 45.2388 -84.5 13.5761
      vertex 42.5328 -91.0328 11.4239
      vertex 42.5328 -91.0328 13.5761
    endloop
  endfacet
  facet normal 0 1 -0
    outer loop
      vertex 127 -52.5 -8
      vertex 31.5 -52.5 33
      vertex 127 -52.5 33
    endloop
  endfacet
  facet normal 0 1 0
    outer loop
      vertex 31.5 -52.5 33
      vertex 127 -52.5 -8
      vertex 31.5 -52.5 -8
    endloop
  endfacet
  facet normal 0 0 -1
    outer loop
      vertex 127 -116.5 -8
      vertex 45.2388 -84.5 -8
      vertex 127 -52.5 -8
    endloop
  endfacet
  facet normal 0 0 -1
    outer loop
      vertex 127 -116.5 -8
      vertex 42.5328 -91.0328 -8
      vertex 45.2388 -84.5 -8
    endloop
  endfacet
  facet normal 0 0 -1
    outer loop
      vertex 31.5 -116.5 -8
      vertex 42.5328 -91.0328 -8
      vertex 127 -116.5 -8
    endloop
  endfacet
  facet normal 0 0 -1
    outer loop
      vertex 42.5328 -91.0328 -8
      vertex 31.5 -116.5 -8
      vertex 36 -93.7388 -8
    endloop
  endfacet
  facet normal -0 0 -1
    outer loop
      vertex 36 -93.7388 -8
      vertex 31.5 -116.5 -8
      vertex 31.5 -93.7388 -8
    endloop
  endfacet
  facet normal 0 0 -1
    outer loop
      vertex 42.5328 -77.9672 -8
      vertex 127 -52.5 -8
      vertex 45.2388 -84.5 -8
    endloop
  endfacet
  facet normal 0 0 -1
    outer loop
      vertex 31.5 -52.5 -8
      vertex 42.5328 -77.9672 -8
      vertex 36 -75.2612 -8
    endloop
  endfacet
  facet normal 0 0 -1
    outer loop
      vertex 31.5 -52.5 -8
      vertex 36 -75.2612 -8
      vertex 31.5 -75.2612 -8
    endloop
  endfacet
  facet normal 0 0 -1
    outer loop
      vertex 42.5328 -77.9672 -8
      vertex 31.5 -52.5 -8
      vertex 127 -52.5 -8
    endloop
  endfacet
  facet normal 0 -1 0
    outer loop
      vertex 31.5 -116.5 -8
      vertex 127 -116.5 33
      vertex 31.5 -116.5 33
    endloop
  endfacet
  facet normal 0 -1 -0
    outer loop
      vertex 127 -116.5 33
      vertex 31.5 -116.5 -8
      vertex 127 -116.5 -8
    endloop
  endfacet
  facet normal -1 0 0
    outer loop
      vertex 31.5 -93.7388 -8
      vertex 31.5 -114.875 -6.625
      vertex 31.5 -93.7388 -6.625
    endloop
  endfacet
  facet normal -1 0 0
    outer loop
      vertex 31.5 -116.5 -8
      vertex 31.5 -114.875 11.625
      vertex 31.5 -114.875 -6.625
    endloop
  endfacet
  facet normal -1 -0 0
    outer loop
      vertex 31.5 -114.875 11.625
      vertex 31.5 -116.5 -8
      vertex 31.5 -114.875 13.375
    endloop
  endfacet
  facet normal -1 0 0
    outer loop
      vertex 31.5 -116.5 33
      vertex 31.5 -114.875 13.375
      vertex 31.5 -116.5 -8
    endloop
  endfacet
  facet normal -1 0 0
    outer loop
      vertex 31.5 -114.875 13.375
      vertex 31.5 -116.5 33
      vertex 31.5 -114.875 19.625
    endloop
  endfacet
  facet normal -1 0 0
    outer loop
      vertex 31.5 -114.875 19.625
      vertex 31.5 -116.5 33
      vertex 31.5 -114.875 21.875
    endloop
  endfacet
  facet normal -1 0 0
    outer loop
      vertex 31.5 -116.5 -8
      vertex 31.5 -114.875 -6.625
      vertex 31.5 -93.7388 -8
    endloop
  endfacet
  facet normal -1 0 0
    outer loop
      vertex 31.5 -114.875 11.625
      vertex 31.5 -93.7388 13.375
      vertex 31.5 -93.7388 11.625
    endloop
  endfacet
  facet normal -1 -0 0
    outer loop
      vertex 31.5 -93.7388 13.375
      vertex 31.5 -114.875 11.625
      vertex 31.5 -114.875 13.375
    endloop
  endfacet
  facet normal -1 0 0
    outer loop
      vertex 31.5 -114.875 19.625
      vertex 31.5 -93.7388 21.875
      vertex 31.5 -93.7388 19.625
    endloop
  endfacet
  facet normal -1 -0 0
    outer loop
      vertex 31.5 -93.7388 21.875
      vertex 31.5 -114.875 19.625
      vertex 31.5 -114.875 21.875
    endloop
  endfacet
  facet normal -1 0 0
    outer loop
      vertex 31.5 -114.875 31.125
      vertex 31.5 -93.7388 33
      vertex 31.5 -93.7388 31.125
    endloop
  endfacet
  facet normal -1 0 0
    outer loop
      vertex 31.5 -114.875 31.125
      vertex 31.5 -116.5 33
      vertex 31.5 -93.7388 33
    endloop
  endfacet
  facet normal -1 0 0
    outer loop
      vertex 31.5 -114.875 21.875
      vertex 31.5 -116.5 33
      vertex 31.5 -114.875 31.125
    endloop
  endfacet
  facet normal -1 0 0
    outer loop
      vertex 31.5 -75.2612 19.625
      vertex 31.5 -54.125 21.875
      vertex 31.5 -54.125 19.625
    endloop
  endfacet
  facet normal -1 -0 0
    outer loop
      vertex 31.5 -54.125 21.875
      vertex 31.5 -75.2612 19.625
      vertex 31.5 -75.2612 21.875
    endloop
  endfacet
  facet normal -1 0 0
    outer loop
      vertex 31.5 -75.2612 11.625
      vertex 31.5 -54.125 13.375
      vertex 31.5 -54.125 11.625
    endloop
  endfacet
  facet normal -1 -0 0
    outer loop
      vertex 31.5 -54.125 13.375
      vertex 31.5 -75.2612 11.625
      vertex 31.5 -75.2612 13.375
    endloop
  endfacet
  facet normal -1 0 0
    outer loop
      vertex 31.5 -54.125 11.625
      vertex 31.5 -52.5 -8
      vertex 31.5 -54.125 -6.625
    endloop
  endfacet
  facet normal -1 0 0
    outer loop
      vertex 31.5 -75.2612 -8
      vertex 31.5 -54.125 -6.625
      vertex 31.5 -52.5 -8
    endloop
  endfacet
  facet normal -1 -0 0
    outer loop
      vertex 31.5 -54.125 -6.625
      vertex 31.5 -75.2612 -8
      vertex 31.5 -75.2612 -6.625
    endloop
  endfacet
  facet normal -1 0 0
    outer loop
      vertex 31.5 -52.5 -8
      vertex 31.5 -54.125 11.625
      vertex 31.5 -52.5 33
    endloop
  endfacet
  facet normal -1 0 0
    outer loop
      vertex 31.5 -54.125 13.375
      vertex 31.5 -52.5 33
      vertex 31.5 -54.125 11.625
    endloop
  endfacet
  facet normal -1 0 0
    outer loop
      vertex 31.5 -54.125 19.625
      vertex 31.5 -52.5 33
      vertex 31.5 -54.125 13.375
    endloop
  endfacet
  facet normal -1 0 0
    outer loop
      vertex 31.5 -54.125 21.875
      vertex 31.5 -52.5 33
      vertex 31.5 -54.125 19.625
    endloop
  endfacet
  facet normal -1 0 0
    outer loop
      vertex 31.5 -54.125 31.125
      vertex 31.5 -52.5 33
      vertex 31.5 -54.125 21.875
    endloop
  endfacet
  facet normal -1 0 0
    outer loop
      vertex 31.5 -75.2612 33
      vertex 31.5 -54.125 31.125
      vertex 31.5 -75.2612 31.125
    endloop
  endfacet
  facet normal -1 0 0
    outer loop
      vertex 31.5 -54.125 31.125
      vertex 31.5 -75.2612 33
      vertex 31.5 -52.5 33
    endloop
  endfacet
  facet normal 1 -0 0
    outer loop
      vertex 127 -116.5 33
      vertex 127 -52.5 -8
      vertex 127 -52.5 33
    endloop
  endfacet
  facet normal 1 0 0
    outer loop
      vertex 127 -52.5 -8
      vertex 127 -116.5 33
      vertex 127 -116.5 -8
    endloop
  endfacet
  facet normal -0.28085 -0.678951 0.678343
    outer loop
      vertex 126.153 -54.5967 14.1173
      vertex 125.5 -54.8673 13.5761
      vertex 125.771 -54.9794 13.5761
    endloop
  endfacet
  facet normal -0.281198 -0.678575 -0.678575
    outer loop
      vertex 125.5 -54.3261 18.8827
      vertex 126.153 -54.5967 18.8827
      vertex 125.5 -54.8673 19.4239
    endloop
  endfacet
  facet normal -0.383309 0.92362 0
    outer loop
      vertex 126.153 -114.403 14.1173
      vertex 125.5 -114.674 18.8827
      vertex 126.153 -114.403 18.8827
    endloop
  endfacet
  facet normal -0.383309 0.92362 0
    outer loop
      vertex 125.5 -114.674 18.8827
      vertex 126.153 -114.403 14.1173
      vertex 125.5 -114.674 14.1173
    endloop
  endfacet
  facet normal -0.679103 -0.281077 0.678096
    outer loop
      vertex 126.153 -54.5967 14.1173
      vertex 125.771 -54.9794 13.5761
      vertex 125.883 -55.25 13.5761
    endloop
  endfacet
  facet normal 0 -0.707107 -0.707107
    outer loop
      vertex 32.129 -54.5967 19.1533
      vertex 125.5 -54.8673 19.4239
      vertex 31.7682 -54.8673 19.4239
    endloop
  endfacet
  facet normal -0 -0.707107 -0.707107
    outer loop
      vertex 125.5 -54.3261 18.8827
      vertex 32.129 -54.5967 19.1533
      vertex 31.7682 -54.3261 18.8827
    endloop
  endfacet
  facet normal -1.33994e-17 -0.707107 -0.707107
    outer loop
      vertex 32.129 -54.5967 19.1533
      vertex 125.5 -54.3261 18.8827
      vertex 125.5 -54.8673 19.4239
    endloop
  endfacet
  facet normal 0 -0.707107 0.707107
    outer loop
      vertex 32.129 -54.5967 13.8467
      vertex 125.5 -54.3261 14.1173
      vertex 31.7682 -54.3261 14.1173
    endloop
  endfacet
  facet normal 0 -0.707107 0.707107
    outer loop
      vertex 125.5 -54.8673 13.5761
      vertex 32.129 -54.5967 13.8467
      vertex 31.7682 -54.8673 13.5761
    endloop
  endfacet
  facet normal 0 -0.707107 0.707107
    outer loop
      vertex 32.129 -54.5967 13.8467
      vertex 125.5 -54.8673 13.5761
      vertex 125.5 -54.3261 14.1173
    endloop
  endfacet
  facet normal 0 0 1
    outer loop
      vertex 125.5 -54.8673 13.5761
      vertex 125.883 -55.25 13.5761
      vertex 125.771 -54.9794 13.5761
    endloop
  endfacet
  facet normal 0 0 1
    outer loop
      vertex 125.883 -55.25 13.5761
      vertex 125.5 -54.8673 13.5761
      vertex 125.883 -113.75 13.5761
    endloop
  endfacet
  facet normal 0 0 1
    outer loop
      vertex 125.5 -114.133 13.5761
      vertex 125.883 -113.75 13.5761
      vertex 125.5 -54.8673 13.5761
    endloop
  endfacet
  facet normal 0 0 1
    outer loop
      vertex 125.883 -113.75 13.5761
      vertex 125.5 -114.133 13.5761
      vertex 125.771 -114.021 13.5761
    endloop
  endfacet
  facet normal 0 0 1
    outer loop
      vertex 125.5 -54.8673 13.5761
      vertex 45.2388 -84.5 13.5761
      vertex 125.5 -114.133 13.5761
    endloop
  endfacet
  facet normal 0 0 1
    outer loop
      vertex 125.5 -54.8673 13.5761
      vertex 42.5328 -77.9672 13.5761
      vertex 45.2388 -84.5 13.5761
    endloop
  endfacet
  facet normal -0 0 1
    outer loop
      vertex 31.7682 -54.8673 13.5761
      vertex 42.5328 -77.9672 13.5761
      vertex 125.5 -54.8673 13.5761
    endloop
  endfacet
  facet normal 0 0 1
    outer loop
      vertex 42.5328 -77.9672 13.5761
      vertex 31.7682 -54.8673 13.5761
      vertex 36 -75.2612 13.5761
    endloop
  endfacet
  facet normal 0 0 1
    outer loop
      vertex 36 -75.2612 13.5761
      vertex 31.7682 -54.8673 13.5761
      vertex 31.7682 -75.2612 13.5761
    endloop
  endfacet
  facet normal -0 0 1
    outer loop
      vertex 42.5328 -91.0328 13.5761
      vertex 125.5 -114.133 13.5761
      vertex 45.2388 -84.5 13.5761
    endloop
  endfacet
  facet normal 0 0 1
    outer loop
      vertex 31.7682 -114.133 13.5761
      vertex 42.5328 -91.0328 13.5761
      vertex 36 -93.7388 13.5761
    endloop
  endfacet
  facet normal 0 0 1
    outer loop
      vertex 31.7682 -114.133 13.5761
      vertex 36 -93.7388 13.5761
      vertex 31.7682 -93.7388 13.5761
    endloop
  endfacet
  facet normal 0 0 1
    outer loop
      vertex 42.5328 -91.0328 13.5761
      vertex 31.7682 -114.133 13.5761
      vertex 125.5 -114.133 13.5761
    endloop
  endfacet
  facet normal -0.28082 0.679485 0.677821
    outer loop
      vertex 125.771 -114.021 13.5761
      vertex 125.5 -114.133 13.5761
      vertex 126.153 -114.403 14.1173
    endloop
  endfacet
  facet normal 3.78724e-06 0.707237 0.706976
    outer loop
      vertex 125.5 -114.133 13.5761
      vertex 32.129 -114.403 13.8467
      vertex 125.5 -114.674 14.1173
    endloop
  endfacet
  facet normal 0 0.707891 0.706322
    outer loop
      vertex 32.129 -114.403 13.8467
      vertex 125.5 -114.133 13.5761
      vertex 31.7682 -114.133 13.5761
    endloop
  endfacet
  facet normal 0 0.706584 0.707629
    outer loop
      vertex 125.5 -114.674 14.1173
      vertex 32.129 -114.403 13.8467
      vertex 31.7682 -114.674 14.1173
    endloop
  endfacet
  facet normal 0 -1 0
    outer loop
      vertex 31.7682 -54.3261 14.1173
      vertex 125.5 -54.3261 18.8827
      vertex 31.7682 -54.3261 18.8827
    endloop
  endfacet
  facet normal 0 -1 -0
    outer loop
      vertex 125.5 -54.3261 18.8827
      vertex 31.7682 -54.3261 14.1173
      vertex 125.5 -54.3261 14.1173
    endloop
  endfacet
  facet normal -0.707237 0 0.706976
    outer loop
      vertex 125.883 -55.25 13.5761
      vertex 126.424 -113.75 14.1173
      vertex 126.424 -55.25 14.1173
    endloop
  endfacet
  facet normal -0.707237 0 0.706976
    outer loop
      vertex 126.424 -113.75 14.1173
      vertex 125.883 -55.25 13.5761
      vertex 125.883 -113.75 13.5761
    endloop
  endfacet
  facet normal -1 0 0
    outer loop
      vertex 126.424 -113.75 14.1173
      vertex 126.424 -55.25 18.8827
      vertex 126.424 -55.25 14.1173
    endloop
  endfacet
  facet normal -1 -0 0
    outer loop
      vertex 126.424 -55.25 18.8827
      vertex 126.424 -113.75 14.1173
      vertex 126.424 -113.75 18.8827
    endloop
  endfacet
  facet normal -0.678636 -0.28151 -0.678385
    outer loop
      vertex 125.883 -55.25 19.4239
      vertex 126.153 -54.5967 18.8827
      vertex 126.424 -55.25 18.8827
    endloop
  endfacet
  facet normal -0.28085 -0.678951 -0.678343
    outer loop
      vertex 125.5 -54.8673 19.4239
      vertex 126.153 -54.5967 18.8827
      vertex 125.771 -54.9794 19.4239
    endloop
  endfacet
  facet normal -0.679103 -0.281077 -0.678096
    outer loop
      vertex 125.771 -54.9794 19.4239
      vertex 126.153 -54.5967 18.8827
      vertex 125.883 -55.25 19.4239
    endloop
  endfacet
  facet normal -0.281198 -0.678575 0.678575
    outer loop
      vertex 126.153 -54.5967 14.1173
      vertex 125.5 -54.3261 14.1173
      vertex 125.5 -54.8673 13.5761
    endloop
  endfacet
  facet normal -0.382827 -0.92382 0
    outer loop
      vertex 125.5 -54.3261 14.1173
      vertex 126.153 -54.5967 18.8827
      vertex 125.5 -54.3261 18.8827
    endloop
  endfacet
  facet normal -0.382827 -0.92382 -0
    outer loop
      vertex 126.153 -54.5967 18.8827
      vertex 125.5 -54.3261 14.1173
      vertex 126.153 -54.5967 14.1173
    endloop
  endfacet
  facet normal -0.281629 0.678611 0.67836
    outer loop
      vertex 126.153 -114.403 14.1173
      vertex 125.5 -114.133 13.5761
      vertex 125.5 -114.674 14.1173
    endloop
  endfacet
  facet normal -0.678611 0.281629 -0.67836
    outer loop
      vertex 125.883 -113.75 19.4239
      vertex 126.424 -113.75 18.8827
      vertex 126.153 -114.403 18.8827
    endloop
  endfacet
  facet normal -0.707237 0 -0.706976
    outer loop
      vertex 125.883 -113.75 19.4239
      vertex 126.424 -55.25 18.8827
      vertex 126.424 -113.75 18.8827
    endloop
  endfacet
  facet normal -0.707237 0 -0.706976
    outer loop
      vertex 126.424 -55.25 18.8827
      vertex 125.883 -113.75 19.4239
      vertex 125.883 -55.25 19.4239
    endloop
  endfacet
  facet normal -0.92362 0.383309 0
    outer loop
      vertex 126.153 -114.403 14.1173
      vertex 126.424 -113.75 18.8827
      vertex 126.424 -113.75 14.1173
    endloop
  endfacet
  facet normal -0.92362 0.383309 0
    outer loop
      vertex 126.424 -113.75 18.8827
      vertex 126.153 -114.403 14.1173
      vertex 126.153 -114.403 18.8827
    endloop
  endfacet
  facet normal -0.923682 -0.383159 0
    outer loop
      vertex 126.424 -55.25 14.1173
      vertex 126.153 -54.5967 18.8827
      vertex 126.153 -54.5967 14.1173
    endloop
  endfacet
  facet normal -0.923682 -0.383159 0
    outer loop
      vertex 126.153 -54.5967 18.8827
      vertex 126.424 -55.25 14.1173
      vertex 126.424 -55.25 18.8827
    endloop
  endfacet
  facet normal -0.678636 -0.28151 0.678385
    outer loop
      vertex 126.153 -54.5967 14.1173
      vertex 125.883 -55.25 13.5761
      vertex 126.424 -55.25 14.1173
    endloop
  endfacet
  facet normal -0.28082 0.679485 -0.677821
    outer loop
      vertex 125.5 -114.133 19.4239
      vertex 125.771 -114.021 19.4239
      vertex 126.153 -114.403 18.8827
    endloop
  endfacet
  facet normal -0.679485 0.28082 -0.677821
    outer loop
      vertex 125.771 -114.021 19.4239
      vertex 125.883 -113.75 19.4239
      vertex 126.153 -114.403 18.8827
    endloop
  endfacet
  facet normal 0 0 -1
    outer loop
      vertex 125.5 -114.133 19.4239
      vertex 125.883 -113.75 19.4239
      vertex 125.771 -114.021 19.4239
    endloop
  endfacet
  facet normal -0 0 -1
    outer loop
      vertex 125.883 -113.75 19.4239
      vertex 125.5 -114.133 19.4239
      vertex 125.883 -55.25 19.4239
    endloop
  endfacet
  facet normal 0 0 -1
    outer loop
      vertex 125.5 -54.8673 19.4239
      vertex 125.883 -55.25 19.4239
      vertex 125.5 -114.133 19.4239
    endloop
  endfacet
  facet normal 0 0 -1
    outer loop
      vertex 125.883 -55.25 19.4239
      vertex 125.5 -54.8673 19.4239
      vertex 125.771 -54.9794 19.4239
    endloop
  endfacet
  facet normal 0 0 -1
    outer loop
      vertex 125.5 -114.133 19.4239
      vertex 45.2388 -84.5 19.4239
      vertex 125.5 -54.8673 19.4239
    endloop
  endfacet
  facet normal 0 0 -1
    outer loop
      vertex 125.5 -114.133 19.4239
      vertex 42.5328 -91.0328 19.4239
      vertex 45.2388 -84.5 19.4239
    endloop
  endfacet
  facet normal 0 0 -1
    outer loop
      vertex 31.7682 -114.133 19.4239
      vertex 42.5328 -91.0328 19.4239
      vertex 125.5 -114.133 19.4239
    endloop
  endfacet
  facet normal 0 0 -1
    outer loop
      vertex 42.5328 -91.0328 19.4239
      vertex 31.7682 -114.133 19.4239
      vertex 36 -93.7388 19.4239
    endloop
  endfacet
  facet normal -0 0 -1
    outer loop
      vertex 36 -93.7388 19.4239
      vertex 31.7682 -114.133 19.4239
      vertex 31.7682 -93.7388 19.4239
    endloop
  endfacet
  facet normal 0 0 -1
    outer loop
      vertex 42.5328 -77.9672 19.4239
      vertex 125.5 -54.8673 19.4239
      vertex 45.2388 -84.5 19.4239
    endloop
  endfacet
  facet normal 0 0 -1
    outer loop
      vertex 31.7682 -54.8673 19.4239
      vertex 42.5328 -77.9672 19.4239
      vertex 36 -75.2612 19.4239
    endloop
  endfacet
  facet normal 0 0 -1
    outer loop
      vertex 31.7682 -54.8673 19.4239
      vertex 36 -75.2612 19.4239
      vertex 31.7682 -75.2612 19.4239
    endloop
  endfacet
  facet normal 0 0 -1
    outer loop
      vertex 42.5328 -77.9672 19.4239
      vertex 31.7682 -54.8673 19.4239
      vertex 125.5 -54.8673 19.4239
    endloop
  endfacet
  facet normal -0.679485 0.28082 0.677821
    outer loop
      vertex 125.883 -113.75 13.5761
      vertex 125.771 -114.021 13.5761
      vertex 126.153 -114.403 14.1173
    endloop
  endfacet
  facet normal -0.678611 0.281629 0.67836
    outer loop
      vertex 126.424 -113.75 14.1173
      vertex 125.883 -113.75 13.5761
      vertex 126.153 -114.403 14.1173
    endloop
  endfacet
  facet normal -0.281629 0.678611 -0.67836
    outer loop
      vertex 125.5 -114.133 19.4239
      vertex 126.153 -114.403 18.8827
      vertex 125.5 -114.674 18.8827
    endloop
  endfacet
  facet normal 3.78724e-06 0.707237 -0.706976
    outer loop
      vertex 125.5 -114.674 18.8827
      vertex 32.129 -114.403 19.1533
      vertex 125.5 -114.133 19.4239
    endloop
  endfacet
  facet normal 0 0.706584 -0.707629
    outer loop
      vertex 32.129 -114.403 19.1533
      vertex 125.5 -114.674 18.8827
      vertex 31.7682 -114.674 18.8827
    endloop
  endfacet
  facet normal 0 0.707891 -0.706322
    outer loop
      vertex 125.5 -114.133 19.4239
      vertex 32.129 -114.403 19.1533
      vertex 31.7682 -114.133 19.4239
    endloop
  endfacet
  facet normal 0 1 -0
    outer loop
      vertex 125.5 -114.674 14.1173
      vertex 31.7682 -114.674 18.8827
      vertex 125.5 -114.674 18.8827
    endloop
  endfacet
  facet normal 0 1 0
    outer loop
      vertex 31.7682 -114.674 18.8827
      vertex 125.5 -114.674 14.1173
      vertex 31.7682 -114.674 14.1173
    endloop
  endfacet
  facet normal -0.600385 0.799711 -0.000379185
    outer loop
      vertex 31.7682 -114.674 18.8827
      vertex 31.5 -114.875 19.625
      vertex 32.129 -114.403 19.1533
    endloop
  endfacet
  facet normal -0.599714 0.800215 0
    outer loop
      vertex 31.7682 -114.674 14.1173
      vertex 31.5 -114.875 19.625
      vertex 31.7682 -114.674 18.8827
    endloop
  endfacet
  facet normal -0.599714 0.800215 0
    outer loop
      vertex 31.7682 -114.674 14.1173
      vertex 31.5 -114.875 13.375
      vertex 31.5 -114.875 19.625
    endloop
  endfacet
  facet normal -0.600385 0.799711 0.000379185
    outer loop
      vertex 31.5 -114.875 13.375
      vertex 31.7682 -114.674 14.1173
      vertex 32.129 -114.403 13.8467
    endloop
  endfacet
  facet normal -0.59998 4.24319e-05 -0.800015
    outer loop
      vertex 31.5 -114.875 19.625
      vertex 31.7682 -114.133 19.4239
      vertex 32.129 -114.403 19.1533
    endloop
  endfacet
  facet normal -0.599905 -0 -0.800072
    outer loop
      vertex 31.5 -93.7388 19.625
      vertex 31.7682 -114.133 19.4239
      vertex 31.5 -114.875 19.625
    endloop
  endfacet
  facet normal -0.599905 0 -0.800072
    outer loop
      vertex 31.7682 -114.133 19.4239
      vertex 31.5 -93.7388 19.625
      vertex 31.7682 -93.7388 19.4239
    endloop
  endfacet
  facet normal -0.599905 0 -0.800072
    outer loop
      vertex 31.7682 -75.2612 19.4239
      vertex 31.5 -75.2612 19.625
      vertex 31.7682 -54.8673 19.4239
    endloop
  endfacet
  facet normal -0.59998 -4.23984e-05 -0.800015
    outer loop
      vertex 31.7682 -54.8673 19.4239
      vertex 31.5 -54.125 19.625
      vertex 32.129 -54.5967 19.1533
    endloop
  endfacet
  facet normal -0.599905 -0 -0.800072
    outer loop
      vertex 31.5 -54.125 19.625
      vertex 31.7682 -54.8673 19.4239
      vertex 31.5 -75.2612 19.625
    endloop
  endfacet
  facet normal -0.59998 -0.800015 -4.23984e-05
    outer loop
      vertex 31.5 -54.125 19.625
      vertex 31.7682 -54.3261 18.8827
      vertex 32.129 -54.5967 19.1533
    endloop
  endfacet
  facet normal -0.599905 -0.800072 0
    outer loop
      vertex 31.5 -54.125 19.625
      vertex 31.7682 -54.3261 14.1173
      vertex 31.7682 -54.3261 18.8827
    endloop
  endfacet
  facet normal -0.59998 -0.800015 4.23984e-05
    outer loop
      vertex 31.7682 -54.3261 14.1173
      vertex 31.5 -54.125 13.375
      vertex 32.129 -54.5967 13.8467
    endloop
  endfacet
  facet normal -0.599905 -0.800072 0
    outer loop
      vertex 31.5 -54.125 13.375
      vertex 31.7682 -54.3261 14.1173
      vertex 31.5 -54.125 19.625
    endloop
  endfacet
  facet normal -0.599905 0 0.800072
    outer loop
      vertex 31.7682 -93.7388 13.5761
      vertex 31.5 -93.7388 13.375
      vertex 31.7682 -114.133 13.5761
    endloop
  endfacet
  facet normal -0.59998 4.24319e-05 0.800015
    outer loop
      vertex 31.7682 -114.133 13.5761
      vertex 31.5 -114.875 13.375
      vertex 32.129 -114.403 13.8467
    endloop
  endfacet
  facet normal -0.599905 0 0.800072
    outer loop
      vertex 31.5 -114.875 13.375
      vertex 31.7682 -114.133 13.5761
      vertex 31.5 -93.7388 13.375
    endloop
  endfacet
  facet normal -0.59998 -4.23984e-05 0.800015
    outer loop
      vertex 31.5 -54.125 13.375
      vertex 31.7682 -54.8673 13.5761
      vertex 32.129 -54.5967 13.8467
    endloop
  endfacet
  facet normal -0.599905 0 0.800072
    outer loop
      vertex 31.5 -75.2612 13.375
      vertex 31.7682 -54.8673 13.5761
      vertex 31.5 -54.125 13.375
    endloop
  endfacet
  facet normal -0.599905 0 0.800072
    outer loop
      vertex 31.7682 -54.8673 13.5761
      vertex 31.5 -75.2612 13.375
      vertex 31.7682 -75.2612 13.5761
    endloop
  endfacet
  facet normal -0.382687 0.923878 0
    outer loop
      vertex 42.5328 -91.0328 19.4239
      vertex 36 -93.7388 22.0761
      vertex 42.5328 -91.0328 22.0761
    endloop
  endfacet
  facet normal -0.382687 0.923878 0
    outer loop
      vertex 36 -93.7388 22.0761
      vertex 42.5328 -91.0328 19.4239
      vertex 36 -93.7388 19.4239
    endloop
  endfacet
  facet normal -0.923878 -0.382687 0
    outer loop
      vertex 45.2388 -84.5 19.4239
      vertex 42.5328 -77.9672 22.0761
      vertex 42.5328 -77.9672 19.4239
    endloop
  endfacet
  facet normal -0.923878 -0.382687 0
    outer loop
      vertex 42.5328 -77.9672 22.0761
      vertex 45.2388 -84.5 19.4239
      vertex 45.2388 -84.5 22.0761
    endloop
  endfacet
  facet normal -0.923878 0.382687 0
    outer loop
      vertex 42.5328 -91.0328 19.4239
      vertex 45.2388 -84.5 22.0761
      vertex 45.2388 -84.5 19.4239
    endloop
  endfacet
  facet normal -0.923878 0.382687 0
    outer loop
      vertex 45.2388 -84.5 22.0761
      vertex 42.5328 -91.0328 19.4239
      vertex 42.5328 -91.0328 22.0761
    endloop
  endfacet
  facet normal 0 1 0
    outer loop
      vertex 31.7682 -93.7388 19.4239
      vertex 31.7682 -93.7388 22.0761
      vertex 36 -93.7388 22.0761
    endloop
  endfacet
  facet normal 0 1 0
    outer loop
      vertex 31.7682 -93.7388 22.0761
      vertex 31.7682 -93.7388 19.4239
      vertex 31.5 -93.7388 21.875
    endloop
  endfacet
  facet normal 0 1 0
    outer loop
      vertex 31.7682 -93.7388 19.4239
      vertex 36 -93.7388 22.0761
      vertex 36 -93.7388 19.4239
    endloop
  endfacet
  facet normal 0 1 0
    outer loop
      vertex 31.5 -93.7388 21.875
      vertex 31.7682 -93.7388 19.4239
      vertex 31.5 -93.7388 19.625
    endloop
  endfacet
  facet normal -0.382687 -0.923878 0
    outer loop
      vertex 36 -75.2612 19.4239
      vertex 42.5328 -77.9672 22.0761
      vertex 36 -75.2612 22.0761
    endloop
  endfacet
  facet normal -0.382687 -0.923878 -0
    outer loop
      vertex 42.5328 -77.9672 22.0761
      vertex 36 -75.2612 19.4239
      vertex 42.5328 -77.9672 19.4239
    endloop
  endfacet
  facet normal 0 -1 0
    outer loop
      vertex 31.7682 -75.2612 19.4239
      vertex 31.7682 -75.2612 22.0761
      vertex 31.5 -75.2612 21.875
    endloop
  endfacet
  facet normal 0 -1 0
    outer loop
      vertex 31.7682 -75.2612 19.4239
      vertex 31.5 -75.2612 21.875
      vertex 31.5 -75.2612 19.625
    endloop
  endfacet
  facet normal 0 -1 0
    outer loop
      vertex 31.7682 -75.2612 22.0761
      vertex 31.7682 -75.2612 19.4239
      vertex 36 -75.2612 22.0761
    endloop
  endfacet
  facet normal 0 -1 -0
    outer loop
      vertex 36 -75.2612 22.0761
      vertex 31.7682 -75.2612 19.4239
      vertex 36 -75.2612 19.4239
    endloop
  endfacet
  facet normal -0.28085 -0.678951 0.678343
    outer loop
      vertex 126.153 -54.5967 22.6173
      vertex 125.5 -54.8673 22.0761
      vertex 125.771 -54.9794 22.0761
    endloop
  endfacet
  facet normal -0.281198 -0.678575 -0.678575
    outer loop
      vertex 125.5 -54.3261 30.3827
      vertex 126.153 -54.5967 30.3827
      vertex 125.5 -54.8673 30.9239
    endloop
  endfacet
  facet normal -0.383309 0.92362 0
    outer loop
      vertex 126.153 -114.403 22.6173
      vertex 125.5 -114.674 30.3827
      vertex 126.153 -114.403 30.3827
    endloop
  endfacet
  facet normal -0.383309 0.92362 0
    outer loop
      vertex 125.5 -114.674 30.3827
      vertex 126.153 -114.403 22.6173
      vertex 125.5 -114.674 22.6173
    endloop
  endfacet
  facet normal -0.679103 -0.281077 0.678096
    outer loop
      vertex 126.153 -54.5967 22.6173
      vertex 125.771 -54.9794 22.0761
      vertex 125.883 -55.25 22.0761
    endloop
  endfacet
  facet normal 0 -0.707107 -0.707107
    outer loop
      vertex 32.129 -54.5967 30.6533
      vertex 125.5 -54.8673 30.9239
      vertex 31.7682 -54.8673 30.9239
    endloop
  endfacet
  facet normal -0 -0.707107 -0.707107
    outer loop
      vertex 125.5 -54.3261 30.3827
      vertex 32.129 -54.5967 30.6533
      vertex 31.7682 -54.3261 30.3827
    endloop
  endfacet
  facet normal -1.33994e-17 -0.707107 -0.707107
    outer loop
      vertex 32.129 -54.5967 30.6533
      vertex 125.5 -54.3261 30.3827
      vertex 125.5 -54.8673 30.9239
    endloop
  endfacet
  facet normal 0 -0.707107 0.707107
    outer loop
      vertex 32.129 -54.5967 22.3467
      vertex 125.5 -54.3261 22.6173
      vertex 31.7682 -54.3261 22.6173
    endloop
  endfacet
  facet normal 0 -0.707107 0.707107
    outer loop
      vertex 125.5 -54.8673 22.0761
      vertex 32.129 -54.5967 22.3467
      vertex 31.7682 -54.8673 22.0761
    endloop
  endfacet
  facet normal -1.33994e-17 -0.707107 0.707107
    outer loop
      vertex 32.129 -54.5967 22.3467
      vertex 125.5 -54.8673 22.0761
      vertex 125.5 -54.3261 22.6173
    endloop
  endfacet
  facet normal 0 0 1
    outer loop
      vertex 125.5 -54.8673 22.0761
      vertex 125.883 -55.25 22.0761
      vertex 125.771 -54.9794 22.0761
    endloop
  endfacet
  facet normal 0 0 1
    outer loop
      vertex 125.883 -55.25 22.0761
      vertex 125.5 -54.8673 22.0761
      vertex 125.883 -113.75 22.0761
    endloop
  endfacet
  facet normal 0 0 1
    outer loop
      vertex 125.5 -114.133 22.0761
      vertex 125.883 -113.75 22.0761
      vertex 125.5 -54.8673 22.0761
    endloop
  endfacet
  facet normal 0 0 1
    outer loop
      vertex 125.883 -113.75 22.0761
      vertex 125.5 -114.133 22.0761
      vertex 125.771 -114.021 22.0761
    endloop
  endfacet
  facet normal 0 0 1
    outer loop
      vertex 125.5 -54.8673 22.0761
      vertex 45.2388 -84.5 22.0761
      vertex 125.5 -114.133 22.0761
    endloop
  endfacet
  facet normal 0 0 1
    outer loop
      vertex 125.5 -54.8673 22.0761
      vertex 42.5328 -77.9672 22.0761
      vertex 45.2388 -84.5 22.0761
    endloop
  endfacet
  facet normal -0 0 1
    outer loop
      vertex 31.7682 -54.8673 22.0761
      vertex 42.5328 -77.9672 22.0761
      vertex 125.5 -54.8673 22.0761
    endloop
  endfacet
  facet normal 0 0 1
    outer loop
      vertex 42.5328 -77.9672 22.0761
      vertex 31.7682 -54.8673 22.0761
      vertex 36 -75.2612 22.0761
    endloop
  endfacet
  facet normal 0 0 1
    outer loop
      vertex 36 -75.2612 22.0761
      vertex 31.7682 -54.8673 22.0761
      vertex 31.7682 -75.2612 22.0761
    endloop
  endfacet
  facet normal -0 0 1
    outer loop
      vertex 42.5328 -91.0328 22.0761
      vertex 125.5 -114.133 22.0761
      vertex 45.2388 -84.5 22.0761
    endloop
  endfacet
  facet normal 0 0 1
    outer loop
      vertex 31.7682 -114.133 22.0761
      vertex 42.5328 -91.0328 22.0761
      vertex 36 -93.7388 22.0761
    endloop
  endfacet
  facet normal 0 0 1
    outer loop
      vertex 31.7682 -114.133 22.0761
      vertex 36 -93.7388 22.0761
      vertex 31.7682 -93.7388 22.0761
    endloop
  endfacet
  facet normal 0 0 1
    outer loop
      vertex 42.5328 -91.0328 22.0761
      vertex 31.7682 -114.133 22.0761
      vertex 125.5 -114.133 22.0761
    endloop
  endfacet
  facet normal -0.28082 0.679485 0.677821
    outer loop
      vertex 125.771 -114.021 22.0761
      vertex 125.5 -114.133 22.0761
      vertex 126.153 -114.403 22.6173
    endloop
  endfacet
  facet normal 3.78724e-06 0.707237 0.706976
    outer loop
      vertex 125.5 -114.133 22.0761
      vertex 32.129 -114.403 22.3467
      vertex 125.5 -114.674 22.6173
    endloop
  endfacet
  facet normal 0 0.707891 0.706322
    outer loop
      vertex 32.129 -114.403 22.3467
      vertex 125.5 -114.133 22.0761
      vertex 31.7682 -114.133 22.0761
    endloop
  endfacet
  facet normal 0 0.706584 0.707629
    outer loop
      vertex 125.5 -114.674 22.6173
      vertex 32.129 -114.403 22.3467
      vertex 31.7682 -114.674 22.6173
    endloop
  endfacet
  facet normal 0 -1 0
    outer loop
      vertex 31.7682 -54.3261 22.6173
      vertex 125.5 -54.3261 30.3827
      vertex 31.7682 -54.3261 30.3827
    endloop
  endfacet
  facet normal 0 -1 -0
    outer loop
      vertex 125.5 -54.3261 30.3827
      vertex 31.7682 -54.3261 22.6173
      vertex 125.5 -54.3261 22.6173
    endloop
  endfacet
  facet normal -0.707237 0 0.706976
    outer loop
      vertex 125.883 -55.25 22.0761
      vertex 126.424 -113.75 22.6173
      vertex 126.424 -55.25 22.6173
    endloop
  endfacet
  facet normal -0.707237 0 0.706976
    outer loop
      vertex 126.424 -113.75 22.6173
      vertex 125.883 -55.25 22.0761
      vertex 125.883 -113.75 22.0761
    endloop
  endfacet
  facet normal -1 0 0
    outer loop
      vertex 126.424 -113.75 22.6173
      vertex 126.424 -55.25 30.3827
      vertex 126.424 -55.25 22.6173
    endloop
  endfacet
  facet normal -1 -0 0
    outer loop
      vertex 126.424 -55.25 30.3827
      vertex 126.424 -113.75 22.6173
      vertex 126.424 -113.75 30.3827
    endloop
  endfacet
  facet normal -0.678636 -0.28151 -0.678385
    outer loop
      vertex 125.883 -55.25 30.9239
      vertex 126.153 -54.5967 30.3827
      vertex 126.424 -55.25 30.3827
    endloop
  endfacet
  facet normal -0.92362 0.383309 0
    outer loop
      vertex 126.153 -114.403 22.6173
      vertex 126.424 -113.75 30.3827
      vertex 126.424 -113.75 22.6173
    endloop
  endfacet
  facet normal -0.92362 0.383309 0
    outer loop
      vertex 126.424 -113.75 30.3827
      vertex 126.153 -114.403 22.6173
      vertex 126.153 -114.403 30.3827
    endloop
  endfacet
  facet normal -0.28085 -0.678951 -0.678343
    outer loop
      vertex 125.5 -54.8673 30.9239
      vertex 126.153 -54.5967 30.3827
      vertex 125.771 -54.9794 30.9239
    endloop
  endfacet
  facet normal -0.679103 -0.281077 -0.678096
    outer loop
      vertex 125.771 -54.9794 30.9239
      vertex 126.153 -54.5967 30.3827
      vertex 125.883 -55.25 30.9239
    endloop
  endfacet
  facet normal -0.281198 -0.678575 0.678575
    outer loop
      vertex 126.153 -54.5967 22.6173
      vertex 125.5 -54.3261 22.6173
      vertex 125.5 -54.8673 22.0761
    endloop
  endfacet
  facet normal -0.382827 -0.92382 0
    outer loop
      vertex 125.5 -54.3261 22.6173
      vertex 126.153 -54.5967 30.3827
      vertex 125.5 -54.3261 30.3827
    endloop
  endfacet
  facet normal -0.382827 -0.92382 -0
    outer loop
      vertex 126.153 -54.5967 30.3827
      vertex 125.5 -54.3261 22.6173
      vertex 126.153 -54.5967 22.6173
    endloop
  endfacet
  facet normal -0.281629 0.678611 0.67836
    outer loop
      vertex 126.153 -114.403 22.6173
      vertex 125.5 -114.133 22.0761
      vertex 125.5 -114.674 22.6173
    endloop
  endfacet
  facet normal -0.678611 0.281629 -0.67836
    outer loop
      vertex 125.883 -113.75 30.9239
      vertex 126.424 -113.75 30.3827
      vertex 126.153 -114.403 30.3827
    endloop
  endfacet
  facet normal -0.28082 0.679485 -0.677821
    outer loop
      vertex 125.5 -114.133 30.9239
      vertex 125.771 -114.021 30.9239
      vertex 126.153 -114.403 30.3827
    endloop
  endfacet
  facet normal -0.707237 0 -0.706976
    outer loop
      vertex 125.883 -113.75 30.9239
      vertex 126.424 -55.25 30.3827
      vertex 126.424 -113.75 30.3827
    endloop
  endfacet
  facet normal -0.707237 0 -0.706976
    outer loop
      vertex 126.424 -55.25 30.3827
      vertex 125.883 -113.75 30.9239
      vertex 125.883 -55.25 30.9239
    endloop
  endfacet
  facet normal -0.923682 -0.383159 0
    outer loop
      vertex 126.424 -55.25 22.6173
      vertex 126.153 -54.5967 30.3827
      vertex 126.153 -54.5967 22.6173
    endloop
  endfacet
  facet normal -0.923682 -0.383159 0
    outer loop
      vertex 126.153 -54.5967 30.3827
      vertex 126.424 -55.25 22.6173
      vertex 126.424 -55.25 30.3827
    endloop
  endfacet
  facet normal -0.678636 -0.28151 0.678385
    outer loop
      vertex 126.153 -54.5967 22.6173
      vertex 125.883 -55.25 22.0761
      vertex 126.424 -55.25 22.6173
    endloop
  endfacet
  facet normal -0.281629 0.678611 -0.67836
    outer loop
      vertex 125.5 -114.133 30.9239
      vertex 126.153 -114.403 30.3827
      vertex 125.5 -114.674 30.3827
    endloop
  endfacet
  facet normal 3.78724e-06 0.707237 -0.706976
    outer loop
      vertex 125.5 -114.674 30.3827
      vertex 32.129 -114.403 30.6533
      vertex 125.5 -114.133 30.9239
    endloop
  endfacet
  facet normal 0 0.706584 -0.707629
    outer loop
      vertex 32.129 -114.403 30.6533
      vertex 125.5 -114.674 30.3827
      vertex 31.7682 -114.674 30.3827
    endloop
  endfacet
  facet normal 0 0.707891 -0.706322
    outer loop
      vertex 125.5 -114.133 30.9239
      vertex 32.129 -114.403 30.6533
      vertex 31.7682 -114.133 30.9239
    endloop
  endfacet
  facet normal -0.679485 0.28082 0.677821
    outer loop
      vertex 125.883 -113.75 22.0761
      vertex 125.771 -114.021 22.0761
      vertex 126.153 -114.403 22.6173
    endloop
  endfacet
  facet normal -0.678611 0.281629 0.67836
    outer loop
      vertex 126.424 -113.75 22.6173
      vertex 125.883 -113.75 22.0761
      vertex 126.153 -114.403 22.6173
    endloop
  endfacet
  facet normal 0 0 -1
    outer loop
      vertex 125.5 -114.133 30.9239
      vertex 125.883 -113.75 30.9239
      vertex 125.771 -114.021 30.9239
    endloop
  endfacet
  facet normal -0 0 -1
    outer loop
      vertex 125.883 -113.75 30.9239
      vertex 125.5 -114.133 30.9239
      vertex 125.883 -55.25 30.9239
    endloop
  endfacet
  facet normal 0 0 -1
    outer loop
      vertex 125.5 -54.8673 30.9239
      vertex 125.883 -55.25 30.9239
      vertex 125.5 -114.133 30.9239
    endloop
  endfacet
  facet normal 0 0 -1
    outer loop
      vertex 125.883 -55.25 30.9239
      vertex 125.5 -54.8673 30.9239
      vertex 125.771 -54.9794 30.9239
    endloop
  endfacet
  facet normal 0 0 -1
    outer loop
      vertex 125.5 -114.133 30.9239
      vertex 45.2388 -84.5 30.9239
      vertex 125.5 -54.8673 30.9239
    endloop
  endfacet
  facet normal 0 0 -1
    outer loop
      vertex 125.5 -114.133 30.9239
      vertex 42.5328 -91.0328 30.9239
      vertex 45.2388 -84.5 30.9239
    endloop
  endfacet
  facet normal 0 0 -1
    outer loop
      vertex 31.7682 -114.133 30.9239
      vertex 42.5328 -91.0328 30.9239
      vertex 125.5 -114.133 30.9239
    endloop
  endfacet
  facet normal 0 0 -1
    outer loop
      vertex 42.5328 -91.0328 30.9239
      vertex 31.7682 -114.133 30.9239
      vertex 36 -93.7388 30.9239
    endloop
  endfacet
  facet normal -0 0 -1
    outer loop
      vertex 36 -93.7388 30.9239
      vertex 31.7682 -114.133 30.9239
      vertex 31.7682 -93.7388 30.9239
    endloop
  endfacet
  facet normal 0 0 -1
    outer loop
      vertex 42.5328 -77.9672 30.9239
      vertex 125.5 -54.8673 30.9239
      vertex 45.2388 -84.5 30.9239
    endloop
  endfacet
  facet normal 0 0 -1
    outer loop
      vertex 31.7682 -54.8673 30.9239
      vertex 42.5328 -77.9672 30.9239
      vertex 36 -75.2612 30.9239
    endloop
  endfacet
  facet normal 0 0 -1
    outer loop
      vertex 31.7682 -54.8673 30.9239
      vertex 36 -75.2612 30.9239
      vertex 31.7682 -75.2612 30.9239
    endloop
  endfacet
  facet normal 0 0 -1
    outer loop
      vertex 42.5328 -77.9672 30.9239
      vertex 31.7682 -54.8673 30.9239
      vertex 125.5 -54.8673 30.9239
    endloop
  endfacet
  facet normal -0.679485 0.28082 -0.677821
    outer loop
      vertex 125.771 -114.021 30.9239
      vertex 125.883 -113.75 30.9239
      vertex 126.153 -114.403 30.3827
    endloop
  endfacet
  facet normal 0 1 -0
    outer loop
      vertex 125.5 -114.674 22.6173
      vertex 31.7682 -114.674 30.3827
      vertex 125.5 -114.674 30.3827
    endloop
  endfacet
  facet normal 0 1 0
    outer loop
      vertex 31.7682 -114.674 30.3827
      vertex 125.5 -114.674 22.6173
      vertex 31.7682 -114.674 22.6173
    endloop
  endfacet
  facet normal -0.600385 0.799711 -0.000379185
    outer loop
      vertex 31.7682 -114.674 30.3827
      vertex 31.5 -114.875 31.125
      vertex 32.129 -114.403 30.6533
    endloop
  endfacet
  facet normal -0.599714 0.800215 0
    outer loop
      vertex 31.7682 -114.674 22.6173
      vertex 31.5 -114.875 31.125
      vertex 31.7682 -114.674 30.3827
    endloop
  endfacet
  facet normal -0.599714 0.800215 0
    outer loop
      vertex 31.7682 -114.674 22.6173
      vertex 31.5 -114.875 21.875
      vertex 31.5 -114.875 31.125
    endloop
  endfacet
  facet normal -0.600385 0.799711 0.000379185
    outer loop
      vertex 31.5 -114.875 21.875
      vertex 31.7682 -114.674 22.6173
      vertex 32.129 -114.403 22.3467
    endloop
  endfacet
  facet normal -0.59998 4.24319e-05 -0.800015
    outer loop
      vertex 31.5 -114.875 31.125
      vertex 31.7682 -114.133 30.9239
      vertex 32.129 -114.403 30.6533
    endloop
  endfacet
  facet normal -0.599905 -0 -0.800072
    outer loop
      vertex 31.5 -93.7388 31.125
      vertex 31.7682 -114.133 30.9239
      vertex 31.5 -114.875 31.125
    endloop
  endfacet
  facet normal -0.599905 0 -0.800072
    outer loop
      vertex 31.7682 -114.133 30.9239
      vertex 31.5 -93.7388 31.125
      vertex 31.7682 -93.7388 30.9239
    endloop
  endfacet
  facet normal -0.599905 0 -0.800072
    outer loop
      vertex 31.7682 -75.2612 30.9239
      vertex 31.5 -75.2612 31.125
      vertex 31.7682 -54.8673 30.9239
    endloop
  endfacet
  facet normal -0.59998 -4.23984e-05 -0.800015
    outer loop
      vertex 31.7682 -54.8673 30.9239
      vertex 31.5 -54.125 31.125
      vertex 32.129 -54.5967 30.6533
    endloop
  endfacet
  facet normal -0.599905 -0 -0.800072
    outer loop
      vertex 31.5 -54.125 31.125
      vertex 31.7682 -54.8673 30.9239
      vertex 31.5 -75.2612 31.125
    endloop
  endfacet
  facet normal -0.59998 -0.800015 -4.23984e-05
    outer loop
      vertex 31.5 -54.125 31.125
      vertex 31.7682 -54.3261 30.3827
      vertex 32.129 -54.5967 30.6533
    endloop
  endfacet
  facet normal -0.599905 -0.800072 0
    outer loop
      vertex 31.5 -54.125 31.125
      vertex 31.7682 -54.3261 22.6173
      vertex 31.7682 -54.3261 30.3827
    endloop
  endfacet
  facet normal -0.59998 -0.800015 4.23984e-05
    outer loop
      vertex 31.7682 -54.3261 22.6173
      vertex 31.5 -54.125 21.875
      vertex 32.129 -54.5967 22.3467
    endloop
  endfacet
  facet normal -0.599905 -0.800072 0
    outer loop
      vertex 31.5 -54.125 21.875
      vertex 31.7682 -54.3261 22.6173
      vertex 31.5 -54.125 31.125
    endloop
  endfacet
  facet normal -0.599905 0 0.800072
    outer loop
      vertex 31.7682 -93.7388 22.0761
      vertex 31.5 -93.7388 21.875
      vertex 31.7682 -114.133 22.0761
    endloop
  endfacet
  facet normal -0.59998 4.24319e-05 0.800015
    outer loop
      vertex 31.7682 -114.133 22.0761
      vertex 31.5 -114.875 21.875
      vertex 32.129 -114.403 22.3467
    endloop
  endfacet
  facet normal -0.599905 0 0.800072
    outer loop
      vertex 31.5 -114.875 21.875
      vertex 31.7682 -114.133 22.0761
      vertex 31.5 -93.7388 21.875
    endloop
  endfacet
  facet normal -0.59998 -4.23984e-05 0.800015
    outer loop
      vertex 31.5 -54.125 21.875
      vertex 31.7682 -54.8673 22.0761
      vertex 32.129 -54.5967 22.3467
    endloop
  endfacet
  facet normal -0.599905 0 0.800072
    outer loop
      vertex 31.5 -75.2612 21.875
      vertex 31.7682 -54.8673 22.0761
      vertex 31.5 -54.125 21.875
    endloop
  endfacet
  facet normal -0.599905 0 0.800072
    outer loop
      vertex 31.7682 -54.8673 22.0761
      vertex 31.5 -75.2612 21.875
      vertex 31.7682 -75.2612 22.0761
    endloop
  endfacet
  facet normal 0 1 -0
    outer loop
      vertex 31.7682 -93.7388 30.9239
      vertex 31.5 -93.7388 33
      vertex 36 -93.7388 33
    endloop
  endfacet
  facet normal 0 1 0
    outer loop
      vertex 31.7682 -93.7388 30.9239
      vertex 36 -93.7388 33
      vertex 36 -93.7388 30.9239
    endloop
  endfacet
  facet normal 0 1 0
    outer loop
      vertex 31.5 -93.7388 33
      vertex 31.7682 -93.7388 30.9239
      vertex 31.5 -93.7388 31.125
    endloop
  endfacet
  facet normal -0.382687 0.923878 0
    outer loop
      vertex 42.5328 -91.0328 30.9239
      vertex 36 -93.7388 33
      vertex 42.5328 -91.0328 33
    endloop
  endfacet
  facet normal -0.382687 0.923878 0
    outer loop
      vertex 36 -93.7388 33
      vertex 42.5328 -91.0328 30.9239
      vertex 36 -93.7388 30.9239
    endloop
  endfacet
  facet normal -0.923878 -0.382687 0
    outer loop
      vertex 45.2388 -84.5 30.9239
      vertex 42.5328 -77.9672 33
      vertex 42.5328 -77.9672 30.9239
    endloop
  endfacet
  facet normal -0.923878 -0.382687 0
    outer loop
      vertex 42.5328 -77.9672 33
      vertex 45.2388 -84.5 30.9239
      vertex 45.2388 -84.5 33
    endloop
  endfacet
  facet normal -0.382687 -0.923878 0
    outer loop
      vertex 36 -75.2612 30.9239
      vertex 42.5328 -77.9672 33
      vertex 36 -75.2612 33
    endloop
  endfacet
  facet normal -0.382687 -0.923878 -0
    outer loop
      vertex 42.5328 -77.9672 33
      vertex 36 -75.2612 30.9239
      vertex 42.5328 -77.9672 30.9239
    endloop
  endfacet
  facet normal -0.923878 0.382687 0
    outer loop
      vertex 42.5328 -91.0328 30.9239
      vertex 45.2388 -84.5 33
      vertex 45.2388 -84.5 30.9239
    endloop
  endfacet
  facet normal -0.923878 0.382687 0
    outer loop
      vertex 45.2388 -84.5 33
      vertex 42.5328 -91.0328 30.9239
      vertex 42.5328 -91.0328 33
    endloop
  endfacet
  facet normal 0 -1 0
    outer loop
      vertex 31.7682 -75.2612 30.9239
      vertex 31.5 -75.2612 33
      vertex 31.5 -75.2612 31.125
    endloop
  endfacet
  facet normal 0 -1 0
    outer loop
      vertex 31.5 -75.2612 33
      vertex 31.7682 -75.2612 30.9239
      vertex 36 -75.2612 33
    endloop
  endfacet
  facet normal 0 -1 -0
    outer loop
      vertex 36 -75.2612 33
      vertex 31.7682 -75.2612 30.9239
      vertex 36 -75.2612 30.9239
    endloop
  endfacet
  facet normal 0 0 1
    outer loop
      vertex 127 -52.5 33
      vertex 45.2388 -84.5 33
      vertex 127 -116.5 33
    endloop
  endfacet
  facet normal 0 0 1
    outer loop
      vertex 127 -52.5 33
      vertex 42.5328 -77.9672 33
      vertex 45.2388 -84.5 33
    endloop
  endfacet
  facet normal -0 0 1
    outer loop
      vertex 31.5 -52.5 33
      vertex 42.5328 -77.9672 33
      vertex 127 -52.5 33
    endloop
  endfacet
  facet normal 0 0 1
    outer loop
      vertex 42.5328 -77.9672 33
      vertex 31.5 -52.5 33
      vertex 36 -75.2612 33
    endloop
  endfacet
  facet normal 0 0 1
    outer loop
      vertex 36 -75.2612 33
      vertex 31.5 -52.5 33
      vertex 31.5 -75.2612 33
    endloop
  endfacet
  facet normal -0 0 1
    outer loop
      vertex 42.5328 -91.0328 33
      vertex 127 -116.5 33
      vertex 45.2388 -84.5 33
    endloop
  endfacet
  facet normal 0 0 1
    outer loop
      vertex 31.5 -116.5 33
      vertex 42.5328 -91.0328 33
      vertex 36 -93.7388 33
    endloop
  endfacet
  facet normal 0 0 1
    outer loop
      vertex 31.5 -116.5 33
      vertex 36 -93.7388 33
      vertex 31.5 -93.7388 33
    endloop
  endfacet
  facet normal 0 0 1
    outer loop
      vertex 42.5328 -91.0328 33
      vertex 31.5 -116.5 33
      vertex 127 -116.5 33
    endloop
  endfacet
endsolid OpenSCAD_Model
