solid OpenSCAD_Model
  facet normal -0.923882 -0.382677 0
    outer loop
      vertex 28.4239 -55.25 -5.88268
      vertex 28.1533 -54.5967 30.8827
      vertex 28.1533 -54.5967 -5.88268
    endloop
  endfacet
  facet normal -0.923882 -0.382677 0
    outer loop
      vertex 28.1533 -54.5967 30.8827
      vertex 28.4239 -55.25 -5.88268
      vertex 28.4239 -55.25 30.8827
    endloop
  endfacet
  facet normal -0.281107 -0.678569 0.678618
    outer loop
      vertex 28.1533 -54.5967 -5.88268
      vertex 27.5 -54.8673 -6.42388
      vertex 27.7706 -54.9794 -6.42388
    endloop
  endfacet
  facet normal -0.678569 -0.281107 0.678618
    outer loop
      vertex 28.1533 -54.5967 -5.88268
      vertex 27.7706 -54.9794 -6.42388
      vertex 27.8827 -55.25 -6.42388
    endloop
  endfacet
  facet normal -0.382677 -0.923882 0
    outer loop
      vertex 27.5 -54.3261 -5.88268
      vertex 28.1533 -54.5967 30.8827
      vertex 27.5 -54.3261 30.8827
    endloop
  endfacet
  facet normal -0.382677 -0.923882 -0
    outer loop
      vertex 28.1533 -54.5967 30.8827
      vertex 27.5 -54.3261 -5.88268
      vertex 28.1533 -54.5967 -5.88268
    endloop
  endfacet
  facet normal -0.678599 -0.281079 0.678599
    outer loop
      vertex 28.1533 -54.5967 -5.88268
      vertex 27.8827 -55.25 -6.42388
      vertex 28.4239 -55.25 -5.88268
    endloop
  endfacet
  facet normal -0.28151 0.678636 0.678385
    outer loop
      vertex 28.1533 -114.403 -5.88268
      vertex 27.5 -114.133 -6.42388
      vertex 27.5 -114.674 -5.88268
    endloop
  endfacet
  facet normal -0.678575 0.281198 0.678575
    outer loop
      vertex 28.4239 -113.75 -5.88268
      vertex 27.8827 -113.75 -6.42388
      vertex 28.1533 -114.403 -5.88268
    endloop
  endfacet
  facet normal 3.78724e-06 0.707237 -0.706976
    outer loop
      vertex 27.5 -114.674 30.8827
      vertex -65.871 -114.403 31.1533
      vertex 27.5 -114.133 31.4239
    endloop
  endfacet
  facet normal 0 0.706584 -0.707629
    outer loop
      vertex -65.871 -114.403 31.1533
      vertex 27.5 -114.674 30.8827
      vertex -66.2318 -114.674 30.8827
    endloop
  endfacet
  facet normal 0 0.707891 -0.706322
    outer loop
      vertex 27.5 -114.133 31.4239
      vertex -65.871 -114.403 31.1533
      vertex -66.2318 -114.133 31.4239
    endloop
  endfacet
  facet normal 0 0 1
    outer loop
      vertex 27.5 -54.8673 -6.42388
      vertex 27.8827 -55.25 -6.42388
      vertex 27.7706 -54.9794 -6.42388
    endloop
  endfacet
  facet normal 0 0 1
    outer loop
      vertex 27.8827 -55.25 -6.42388
      vertex 27.5 -54.8673 -6.42388
      vertex 27.8827 -113.75 -6.42388
    endloop
  endfacet
  facet normal 0 0 1
    outer loop
      vertex 27.5 -114.133 -6.42388
      vertex 27.8827 -113.75 -6.42388
      vertex 27.5 -54.8673 -6.42388
    endloop
  endfacet
  facet normal 0 0 1
    outer loop
      vertex 27.8827 -113.75 -6.42388
      vertex 27.5 -114.133 -6.42388
      vertex 27.7706 -114.021 -6.42388
    endloop
  endfacet
  facet normal 0 0 1
    outer loop
      vertex 27.5 -54.8673 -6.42388
      vertex -52.7612 -84.5 -6.42388
      vertex 27.5 -114.133 -6.42388
    endloop
  endfacet
  facet normal 0 0 1
    outer loop
      vertex 27.5 -54.8673 -6.42388
      vertex -55.4672 -77.9672 -6.42388
      vertex -52.7612 -84.5 -6.42388
    endloop
  endfacet
  facet normal -0 0 1
    outer loop
      vertex -66.2318 -54.8673 -6.42388
      vertex -55.4672 -77.9672 -6.42388
      vertex 27.5 -54.8673 -6.42388
    endloop
  endfacet
  facet normal 0 0 1
    outer loop
      vertex -55.4672 -77.9672 -6.42388
      vertex -66.2318 -54.8673 -6.42388
      vertex -62 -75.2612 -6.42388
    endloop
  endfacet
  facet normal 0 0 1
    outer loop
      vertex -62 -75.2612 -6.42388
      vertex -66.2318 -54.8673 -6.42388
      vertex -66.2318 -75.2612 -6.42388
    endloop
  endfacet
  facet normal -0 0 1
    outer loop
      vertex -55.4672 -91.0328 -6.42388
      vertex 27.5 -114.133 -6.42388
      vertex -52.7612 -84.5 -6.42388
    endloop
  endfacet
  facet normal 0 0 1
    outer loop
      vertex -66.2318 -114.133 -6.42388
      vertex -55.4672 -91.0328 -6.42388
      vertex -62 -93.7388 -6.42388
    endloop
  endfacet
  facet normal 0 0 1
    outer loop
      vertex -66.2318 -114.133 -6.42388
      vertex -62 -93.7388 -6.42388
      vertex -66.2318 -93.7388 -6.42388
    endloop
  endfacet
  facet normal 0 0 1
    outer loop
      vertex -55.4672 -91.0328 -6.42388
      vertex -66.2318 -114.133 -6.42388
      vertex 27.5 -114.133 -6.42388
    endloop
  endfacet
  facet normal -0.707107 0 0.707107
    outer loop
      vertex 27.8827 -113.75 -6.42388
      vertex 28.4239 -55.25 -5.88268
      vertex 27.8827 -55.25 -6.42388
    endloop
  endfacet
  facet normal -0.707107 0 0.707107
    outer loop
      vertex 28.4239 -55.25 -5.88268
      vertex 27.8827 -113.75 -6.42388
      vertex 28.4239 -113.75 -5.88268
    endloop
  endfacet
  facet normal -0.678569 -0.281107 -0.678618
    outer loop
      vertex 27.7706 -54.9794 31.4239
      vertex 28.1533 -54.5967 30.8827
      vertex 27.8827 -55.25 31.4239
    endloop
  endfacet
  facet normal -1 0 0
    outer loop
      vertex 28.4239 -113.75 -5.88268
      vertex 28.4239 -55.25 30.8827
      vertex 28.4239 -55.25 -5.88268
    endloop
  endfacet
  facet normal -1 -0 0
    outer loop
      vertex 28.4239 -55.25 30.8827
      vertex 28.4239 -113.75 -5.88268
      vertex 28.4239 -113.75 30.8827
    endloop
  endfacet
  facet normal 0 -0.707107 -0.707107
    outer loop
      vertex -65.871 -54.5967 31.1533
      vertex 27.5 -54.8673 31.4239
      vertex -66.2318 -54.8673 31.4239
    endloop
  endfacet
  facet normal -0 -0.707107 -0.707107
    outer loop
      vertex 27.5 -54.3261 30.8827
      vertex -65.871 -54.5967 31.1533
      vertex -66.2318 -54.3261 30.8827
    endloop
  endfacet
  facet normal -1.33994e-17 -0.707107 -0.707107
    outer loop
      vertex -65.871 -54.5967 31.1533
      vertex 27.5 -54.3261 30.8827
      vertex 27.5 -54.8673 31.4239
    endloop
  endfacet
  facet normal 0 -1 0
    outer loop
      vertex -66.2318 -54.3261 -5.88268
      vertex 27.5 -54.3261 30.8827
      vertex -66.2318 -54.3261 30.8827
    endloop
  endfacet
  facet normal 0 -1 -0
    outer loop
      vertex 27.5 -54.3261 30.8827
      vertex -66.2318 -54.3261 -5.88268
      vertex 27.5 -54.3261 -5.88268
    endloop
  endfacet
  facet normal 3.78724e-06 0.707237 0.706976
    outer loop
      vertex 27.5 -114.133 -6.42388
      vertex -65.871 -114.403 -6.15328
      vertex 27.5 -114.674 -5.88268
    endloop
  endfacet
  facet normal 0 0.707891 0.706322
    outer loop
      vertex -65.871 -114.403 -6.15328
      vertex 27.5 -114.133 -6.42388
      vertex -66.2318 -114.133 -6.42388
    endloop
  endfacet
  facet normal 0 0.706584 0.707629
    outer loop
      vertex 27.5 -114.674 -5.88268
      vertex -65.871 -114.403 -6.15328
      vertex -66.2318 -114.674 -5.88268
    endloop
  endfacet
  facet normal 0 -0.707107 0.707107
    outer loop
      vertex -65.871 -54.5967 -6.15328
      vertex 27.5 -54.3261 -5.88268
      vertex -66.2318 -54.3261 -5.88268
    endloop
  endfacet
  facet normal 0 -0.707107 0.707107
    outer loop
      vertex 27.5 -54.8673 -6.42388
      vertex -65.871 -54.5967 -6.15328
      vertex -66.2318 -54.8673 -6.42388
    endloop
  endfacet
  facet normal 0 -0.707107 0.707107
    outer loop
      vertex -65.871 -54.5967 -6.15328
      vertex 27.5 -54.8673 -6.42388
      vertex 27.5 -54.3261 -5.88268
    endloop
  endfacet
  facet normal -0.92382 0.382827 0
    outer loop
      vertex 28.1533 -114.403 -5.88268
      vertex 28.4239 -113.75 30.8827
      vertex 28.4239 -113.75 -5.88268
    endloop
  endfacet
  facet normal -0.92382 0.382827 0
    outer loop
      vertex 28.4239 -113.75 30.8827
      vertex 28.1533 -114.403 -5.88268
      vertex 28.1533 -114.403 30.8827
    endloop
  endfacet
  facet normal -0.678599 -0.281079 -0.678599
    outer loop
      vertex 27.8827 -55.25 31.4239
      vertex 28.1533 -54.5967 30.8827
      vertex 28.4239 -55.25 30.8827
    endloop
  endfacet
  facet normal -0.281079 -0.678599 -0.678599
    outer loop
      vertex 27.5 -54.3261 30.8827
      vertex 28.1533 -54.5967 30.8827
      vertex 27.5 -54.8673 31.4239
    endloop
  endfacet
  facet normal -0.281079 -0.678599 0.678599
    outer loop
      vertex 28.1533 -54.5967 -5.88268
      vertex 27.5 -54.3261 -5.88268
      vertex 27.5 -54.8673 -6.42388
    endloop
  endfacet
  facet normal -0.281107 -0.678569 -0.678618
    outer loop
      vertex 27.5 -54.8673 31.4239
      vertex 28.1533 -54.5967 30.8827
      vertex 27.7706 -54.9794 31.4239
    endloop
  endfacet
  facet normal -0.678951 0.28085 -0.678343
    outer loop
      vertex 27.7706 -114.021 31.4239
      vertex 27.8827 -113.75 31.4239
      vertex 28.1533 -114.403 30.8827
    endloop
  endfacet
  facet normal -0.383159 0.923682 0
    outer loop
      vertex 28.1533 -114.403 -5.88268
      vertex 27.5 -114.674 30.8827
      vertex 28.1533 -114.403 30.8827
    endloop
  endfacet
  facet normal -0.383159 0.923682 0
    outer loop
      vertex 27.5 -114.674 30.8827
      vertex 28.1533 -114.403 -5.88268
      vertex 27.5 -114.674 -5.88268
    endloop
  endfacet
  facet normal -0.28151 0.678636 -0.678385
    outer loop
      vertex 27.5 -114.133 31.4239
      vertex 28.1533 -114.403 30.8827
      vertex 27.5 -114.674 30.8827
    endloop
  endfacet
  facet normal -0.281077 0.679103 0.678096
    outer loop
      vertex 27.7706 -114.021 -6.42388
      vertex 27.5 -114.133 -6.42388
      vertex 28.1533 -114.403 -5.88268
    endloop
  endfacet
  facet normal -0.678951 0.28085 0.678343
    outer loop
      vertex 27.8827 -113.75 -6.42388
      vertex 27.7706 -114.021 -6.42388
      vertex 28.1533 -114.403 -5.88268
    endloop
  endfacet
  facet normal 0 1 -0
    outer loop
      vertex 27.5 -114.674 -5.88268
      vertex -66.2318 -114.674 30.8827
      vertex 27.5 -114.674 30.8827
    endloop
  endfacet
  facet normal 0 1 0
    outer loop
      vertex -66.2318 -114.674 30.8827
      vertex 27.5 -114.674 -5.88268
      vertex -66.2318 -114.674 -5.88268
    endloop
  endfacet
  facet normal -0.281077 0.679103 -0.678096
    outer loop
      vertex 27.5 -114.133 31.4239
      vertex 27.7706 -114.021 31.4239
      vertex 28.1533 -114.403 30.8827
    endloop
  endfacet
  facet normal 0 0 -1
    outer loop
      vertex 27.5 -114.133 31.4239
      vertex 27.8827 -113.75 31.4239
      vertex 27.7706 -114.021 31.4239
    endloop
  endfacet
  facet normal -0 0 -1
    outer loop
      vertex 27.8827 -113.75 31.4239
      vertex 27.5 -114.133 31.4239
      vertex 27.8827 -55.25 31.4239
    endloop
  endfacet
  facet normal 0 0 -1
    outer loop
      vertex 27.5 -54.8673 31.4239
      vertex 27.8827 -55.25 31.4239
      vertex 27.5 -114.133 31.4239
    endloop
  endfacet
  facet normal 0 0 -1
    outer loop
      vertex 27.8827 -55.25 31.4239
      vertex 27.5 -54.8673 31.4239
      vertex 27.7706 -54.9794 31.4239
    endloop
  endfacet
  facet normal 0 0 -1
    outer loop
      vertex 27.5 -114.133 31.4239
      vertex -52.7612 -84.5 31.4239
      vertex 27.5 -54.8673 31.4239
    endloop
  endfacet
  facet normal 0 0 -1
    outer loop
      vertex 27.5 -114.133 31.4239
      vertex -55.4672 -91.0328 31.4239
      vertex -52.7612 -84.5 31.4239
    endloop
  endfacet
  facet normal 0 0 -1
    outer loop
      vertex -66.2318 -114.133 31.4239
      vertex -55.4672 -91.0328 31.4239
      vertex 27.5 -114.133 31.4239
    endloop
  endfacet
  facet normal 0 0 -1
    outer loop
      vertex -55.4672 -91.0328 31.4239
      vertex -66.2318 -114.133 31.4239
      vertex -62 -93.7388 31.4239
    endloop
  endfacet
  facet normal -0 0 -1
    outer loop
      vertex -62 -93.7388 31.4239
      vertex -66.2318 -114.133 31.4239
      vertex -66.2318 -93.7388 31.4239
    endloop
  endfacet
  facet normal 0 0 -1
    outer loop
      vertex -55.4672 -77.9672 31.4239
      vertex 27.5 -54.8673 31.4239
      vertex -52.7612 -84.5 31.4239
    endloop
  endfacet
  facet normal 0 0 -1
    outer loop
      vertex -66.2318 -54.8673 31.4239
      vertex -55.4672 -77.9672 31.4239
      vertex -62 -75.2612 31.4239
    endloop
  endfacet
  facet normal 0 0 -1
    outer loop
      vertex -66.2318 -54.8673 31.4239
      vertex -62 -75.2612 31.4239
      vertex -66.2318 -75.2612 31.4239
    endloop
  endfacet
  facet normal 0 0 -1
    outer loop
      vertex -55.4672 -77.9672 31.4239
      vertex -66.2318 -54.8673 31.4239
      vertex 27.5 -54.8673 31.4239
    endloop
  endfacet
  facet normal -0.678575 0.281198 -0.678575
    outer loop
      vertex 27.8827 -113.75 31.4239
      vertex 28.4239 -113.75 30.8827
      vertex 28.1533 -114.403 30.8827
    endloop
  endfacet
  facet normal -0.707107 0 -0.707107
    outer loop
      vertex 28.4239 -113.75 30.8827
      vertex 27.8827 -55.25 31.4239
      vertex 28.4239 -55.25 30.8827
    endloop
  endfacet
  facet normal -0.707107 -0 -0.707107
    outer loop
      vertex 27.8827 -55.25 31.4239
      vertex 28.4239 -113.75 30.8827
      vertex 27.8827 -113.75 31.4239
    endloop
  endfacet
  facet normal -0.600385 0.799711 -0.000379185
    outer loop
      vertex -66.2318 -114.674 30.8827
      vertex -66.5 -114.875 31.625
      vertex -65.871 -114.403 31.1533
    endloop
  endfacet
  facet normal -0.599714 0.800215 0
    outer loop
      vertex -66.2318 -114.674 -5.88268
      vertex -66.5 -114.875 31.625
      vertex -66.2318 -114.674 30.8827
    endloop
  endfacet
  facet normal -0.599714 0.800215 0
    outer loop
      vertex -66.2318 -114.674 -5.88268
      vertex -66.5 -114.875 -6.625
      vertex -66.5 -114.875 31.625
    endloop
  endfacet
  facet normal -0.600385 0.799711 0.000379177
    outer loop
      vertex -66.5 -114.875 -6.625
      vertex -66.2318 -114.674 -5.88268
      vertex -65.871 -114.403 -6.15328
    endloop
  endfacet
  facet normal -0.59998 4.24319e-05 -0.800015
    outer loop
      vertex -66.5 -114.875 31.625
      vertex -66.2318 -114.133 31.4239
      vertex -65.871 -114.403 31.1533
    endloop
  endfacet
  facet normal -0.599905 -0 -0.800072
    outer loop
      vertex -66.5 -93.7388 31.625
      vertex -66.2318 -114.133 31.4239
      vertex -66.5 -114.875 31.625
    endloop
  endfacet
  facet normal -0.599905 0 -0.800072
    outer loop
      vertex -66.2318 -114.133 31.4239
      vertex -66.5 -93.7388 31.625
      vertex -66.2318 -93.7388 31.4239
    endloop
  endfacet
  facet normal -0.599905 0 -0.800072
    outer loop
      vertex -66.2318 -75.2612 31.4239
      vertex -66.5 -75.2612 31.625
      vertex -66.2318 -54.8673 31.4239
    endloop
  endfacet
  facet normal -0.59998 -4.23984e-05 -0.800015
    outer loop
      vertex -66.2318 -54.8673 31.4239
      vertex -66.5 -54.125 31.625
      vertex -65.871 -54.5967 31.1533
    endloop
  endfacet
  facet normal -0.599905 -0 -0.800072
    outer loop
      vertex -66.5 -54.125 31.625
      vertex -66.2318 -54.8673 31.4239
      vertex -66.5 -75.2612 31.625
    endloop
  endfacet
  facet normal -0.59998 -0.800015 -4.23984e-05
    outer loop
      vertex -66.5 -54.125 31.625
      vertex -66.2318 -54.3261 30.8827
      vertex -65.871 -54.5967 31.1533
    endloop
  endfacet
  facet normal -0.599905 -0.800072 0
    outer loop
      vertex -66.5 -54.125 31.625
      vertex -66.2318 -54.3261 -5.88268
      vertex -66.2318 -54.3261 30.8827
    endloop
  endfacet
  facet normal -0.59998 -0.800015 4.23975e-05
    outer loop
      vertex -66.2318 -54.3261 -5.88268
      vertex -66.5 -54.125 -6.625
      vertex -65.871 -54.5967 -6.15328
    endloop
  endfacet
  facet normal -0.599905 -0.800072 0
    outer loop
      vertex -66.5 -54.125 -6.625
      vertex -66.2318 -54.3261 -5.88268
      vertex -66.5 -54.125 31.625
    endloop
  endfacet
  facet normal -0.599943 0 0.800043
    outer loop
      vertex -66.2318 -93.7388 -6.42388
      vertex -66.5 -93.7388 -6.625
      vertex -66.2318 -114.133 -6.42388
    endloop
  endfacet
  facet normal -0.599988 2.5459e-05 0.800009
    outer loop
      vertex -66.2318 -114.133 -6.42388
      vertex -66.5 -114.875 -6.625
      vertex -65.871 -114.403 -6.15328
    endloop
  endfacet
  facet normal -0.599943 0 0.800043
    outer loop
      vertex -66.5 -114.875 -6.625
      vertex -66.2318 -114.133 -6.42388
      vertex -66.5 -93.7388 -6.625
    endloop
  endfacet
  facet normal -0.599988 -2.54388e-05 0.800009
    outer loop
      vertex -66.5 -54.125 -6.625
      vertex -66.2318 -54.8673 -6.42388
      vertex -65.871 -54.5967 -6.15328
    endloop
  endfacet
  facet normal -0.599943 0 0.800043
    outer loop
      vertex -66.5 -75.2612 -6.625
      vertex -66.2318 -54.8673 -6.42388
      vertex -66.5 -54.125 -6.625
    endloop
  endfacet
  facet normal -0.599943 0 0.800043
    outer loop
      vertex -66.2318 -54.8673 -6.42388
      vertex -66.5 -75.2612 -6.625
      vertex -66.2318 -75.2612 -6.42388
    endloop
  endfacet
  facet normal -0.923878 0.382687 0
    outer loop
      vertex -55.4672 -91.0328 -8
      vertex -52.7612 -84.5 -6.42388
      vertex -52.7612 -84.5 -8
    endloop
  endfacet
  facet normal -0.923878 0.382687 0
    outer loop
      vertex -52.7612 -84.5 -6.42388
      vertex -55.4672 -91.0328 -8
      vertex -55.4672 -91.0328 -6.42388
    endloop
  endfacet
  facet normal -0.923878 0.382687 0
    outer loop
      vertex -55.4672 -91.0328 31.4239
      vertex -52.7612 -84.5 33
      vertex -52.7612 -84.5 31.4239
    endloop
  endfacet
  facet normal -0.923878 0.382687 0
    outer loop
      vertex -52.7612 -84.5 33
      vertex -55.4672 -91.0328 31.4239
      vertex -55.4672 -91.0328 33
    endloop
  endfacet
  facet normal 0 -1 0
    outer loop
      vertex -66.5 -75.2612 -8
      vertex -66.2318 -75.2612 -6.42388
      vertex -66.5 -75.2612 -6.625
    endloop
  endfacet
  facet normal 0 -1 -0
    outer loop
      vertex -66.2318 -75.2612 -6.42388
      vertex -66.5 -75.2612 -8
      vertex -62 -75.2612 -8
    endloop
  endfacet
  facet normal 0 -1 0
    outer loop
      vertex -66.2318 -75.2612 -6.42388
      vertex -62 -75.2612 -8
      vertex -62 -75.2612 -6.42388
    endloop
  endfacet
  facet normal 0 -1 0
    outer loop
      vertex -66.2318 -75.2612 31.4239
      vertex -66.5 -75.2612 33
      vertex -66.5 -75.2612 31.625
    endloop
  endfacet
  facet normal 0 -1 0
    outer loop
      vertex -66.5 -75.2612 33
      vertex -66.2318 -75.2612 31.4239
      vertex -62 -75.2612 33
    endloop
  endfacet
  facet normal 0 -1 -0
    outer loop
      vertex -62 -75.2612 33
      vertex -66.2318 -75.2612 31.4239
      vertex -62 -75.2612 31.4239
    endloop
  endfacet
  facet normal -0.923878 -0.382687 0
    outer loop
      vertex -52.7612 -84.5 -8
      vertex -55.4672 -77.9672 -6.42388
      vertex -55.4672 -77.9672 -8
    endloop
  endfacet
  facet normal -0.923878 -0.382687 0
    outer loop
      vertex -55.4672 -77.9672 -6.42388
      vertex -52.7612 -84.5 -8
      vertex -52.7612 -84.5 -6.42388
    endloop
  endfacet
  facet normal -0.923878 -0.382687 0
    outer loop
      vertex -52.7612 -84.5 31.4239
      vertex -55.4672 -77.9672 33
      vertex -55.4672 -77.9672 31.4239
    endloop
  endfacet
  facet normal -0.923878 -0.382687 0
    outer loop
      vertex -55.4672 -77.9672 33
      vertex -52.7612 -84.5 31.4239
      vertex -52.7612 -84.5 33
    endloop
  endfacet
  facet normal -0.382687 0.923878 0
    outer loop
      vertex -55.4672 -91.0328 -8
      vertex -62 -93.7388 -6.42388
      vertex -55.4672 -91.0328 -6.42388
    endloop
  endfacet
  facet normal -0.382687 0.923878 0
    outer loop
      vertex -62 -93.7388 -6.42388
      vertex -55.4672 -91.0328 -8
      vertex -62 -93.7388 -8
    endloop
  endfacet
  facet normal -0.382687 0.923878 0
    outer loop
      vertex -55.4672 -91.0328 31.4239
      vertex -62 -93.7388 33
      vertex -55.4672 -91.0328 33
    endloop
  endfacet
  facet normal -0.382687 0.923878 0
    outer loop
      vertex -62 -93.7388 33
      vertex -55.4672 -91.0328 31.4239
      vertex -62 -93.7388 31.4239
    endloop
  endfacet
  facet normal 0 1 -0
    outer loop
      vertex -62 -93.7388 -8
      vertex -66.2318 -93.7388 -6.42388
      vertex -62 -93.7388 -6.42388
    endloop
  endfacet
  facet normal 0 1 0
    outer loop
      vertex -66.5 -93.7388 -8
      vertex -66.2318 -93.7388 -6.42388
      vertex -62 -93.7388 -8
    endloop
  endfacet
  facet normal 0 1 0
    outer loop
      vertex -66.2318 -93.7388 -6.42388
      vertex -66.5 -93.7388 -8
      vertex -66.5 -93.7388 -6.625
    endloop
  endfacet
  facet normal 0 1 -0
    outer loop
      vertex -66.2318 -93.7388 31.4239
      vertex -66.5 -93.7388 33
      vertex -62 -93.7388 33
    endloop
  endfacet
  facet normal 0 1 0
    outer loop
      vertex -66.2318 -93.7388 31.4239
      vertex -62 -93.7388 33
      vertex -62 -93.7388 31.4239
    endloop
  endfacet
  facet normal 0 1 0
    outer loop
      vertex -66.5 -93.7388 33
      vertex -66.2318 -93.7388 31.4239
      vertex -66.5 -93.7388 31.625
    endloop
  endfacet
  facet normal -0.382687 -0.923878 0
    outer loop
      vertex -62 -75.2612 -8
      vertex -55.4672 -77.9672 -6.42388
      vertex -62 -75.2612 -6.42388
    endloop
  endfacet
  facet normal -0.382687 -0.923878 -0
    outer loop
      vertex -55.4672 -77.9672 -6.42388
      vertex -62 -75.2612 -8
      vertex -55.4672 -77.9672 -8
    endloop
  endfacet
  facet normal -0.382687 -0.923878 0
    outer loop
      vertex -62 -75.2612 31.4239
      vertex -55.4672 -77.9672 33
      vertex -62 -75.2612 33
    endloop
  endfacet
  facet normal -0.382687 -0.923878 -0
    outer loop
      vertex -55.4672 -77.9672 33
      vertex -62 -75.2612 31.4239
      vertex -55.4672 -77.9672 31.4239
    endloop
  endfacet
  facet normal 0 1 -0
    outer loop
      vertex 29 -52.5 -8
      vertex -66.5 -52.5 33
      vertex 29 -52.5 33
    endloop
  endfacet
  facet normal 0 1 0
    outer loop
      vertex -66.5 -52.5 33
      vertex 29 -52.5 -8
      vertex -66.5 -52.5 -8
    endloop
  endfacet
  facet normal 0 0 1
    outer loop
      vertex 29 -52.5 33
      vertex -52.7612 -84.5 33
      vertex 29 -116.5 33
    endloop
  endfacet
  facet normal 0 0 1
    outer loop
      vertex 29 -52.5 33
      vertex -55.4672 -77.9672 33
      vertex -52.7612 -84.5 33
    endloop
  endfacet
  facet normal -0 0 1
    outer loop
      vertex -66.5 -52.5 33
      vertex -55.4672 -77.9672 33
      vertex 29 -52.5 33
    endloop
  endfacet
  facet normal 0 0 1
    outer loop
      vertex -55.4672 -77.9672 33
      vertex -66.5 -52.5 33
      vertex -62 -75.2612 33
    endloop
  endfacet
  facet normal 0 0 1
    outer loop
      vertex -62 -75.2612 33
      vertex -66.5 -52.5 33
      vertex -66.5 -75.2612 33
    endloop
  endfacet
  facet normal -0 0 1
    outer loop
      vertex -55.4672 -91.0328 33
      vertex 29 -116.5 33
      vertex -52.7612 -84.5 33
    endloop
  endfacet
  facet normal 0 0 1
    outer loop
      vertex -66.5 -116.5 33
      vertex -55.4672 -91.0328 33
      vertex -62 -93.7388 33
    endloop
  endfacet
  facet normal 0 0 1
    outer loop
      vertex -66.5 -116.5 33
      vertex -62 -93.7388 33
      vertex -66.5 -93.7388 33
    endloop
  endfacet
  facet normal 0 0 1
    outer loop
      vertex -55.4672 -91.0328 33
      vertex -66.5 -116.5 33
      vertex 29 -116.5 33
    endloop
  endfacet
  facet normal 0 0 -1
    outer loop
      vertex 29 -116.5 -8
      vertex -52.7612 -84.5 -8
      vertex 29 -52.5 -8
    endloop
  endfacet
  facet normal 0 0 -1
    outer loop
      vertex 29 -116.5 -8
      vertex -55.4672 -91.0328 -8
      vertex -52.7612 -84.5 -8
    endloop
  endfacet
  facet normal 0 0 -1
    outer loop
      vertex -66.5 -116.5 -8
      vertex -55.4672 -91.0328 -8
      vertex 29 -116.5 -8
    endloop
  endfacet
  facet normal 0 0 -1
    outer loop
      vertex -55.4672 -91.0328 -8
      vertex -66.5 -116.5 -8
      vertex -62 -93.7388 -8
    endloop
  endfacet
  facet normal -0 0 -1
    outer loop
      vertex -62 -93.7388 -8
      vertex -66.5 -116.5 -8
      vertex -66.5 -93.7388 -8
    endloop
  endfacet
  facet normal 0 0 -1
    outer loop
      vertex -55.4672 -77.9672 -8
      vertex 29 -52.5 -8
      vertex -52.7612 -84.5 -8
    endloop
  endfacet
  facet normal 0 0 -1
    outer loop
      vertex -66.5 -52.5 -8
      vertex -55.4672 -77.9672 -8
      vertex -62 -75.2612 -8
    endloop
  endfacet
  facet normal 0 0 -1
    outer loop
      vertex -66.5 -52.5 -8
      vertex -62 -75.2612 -8
      vertex -66.5 -75.2612 -8
    endloop
  endfacet
  facet normal 0 0 -1
    outer loop
      vertex -55.4672 -77.9672 -8
      vertex -66.5 -52.5 -8
      vertex 29 -52.5 -8
    endloop
  endfacet
  facet normal 0 -1 0
    outer loop
      vertex -66.5 -116.5 -8
      vertex 29 -116.5 33
      vertex -66.5 -116.5 33
    endloop
  endfacet
  facet normal 0 -1 -0
    outer loop
      vertex 29 -116.5 33
      vertex -66.5 -116.5 -8
      vertex 29 -116.5 -8
    endloop
  endfacet
  facet normal -1 0 0
    outer loop
      vertex -66.5 -93.7388 -8
      vertex -66.5 -114.875 -6.625
      vertex -66.5 -93.7388 -6.625
    endloop
  endfacet
  facet normal -1 -0 0
    outer loop
      vertex -66.5 -114.875 -6.625
      vertex -66.5 -116.5 -8
      vertex -66.5 -114.875 31.625
    endloop
  endfacet
  facet normal -1 0 0
    outer loop
      vertex -66.5 -116.5 -8
      vertex -66.5 -114.875 -6.625
      vertex -66.5 -93.7388 -8
    endloop
  endfacet
  facet normal -1 0 0
    outer loop
      vertex -66.5 -114.875 31.625
      vertex -66.5 -93.7388 33
      vertex -66.5 -93.7388 31.625
    endloop
  endfacet
  facet normal -1 0 0
    outer loop
      vertex -66.5 -114.875 31.625
      vertex -66.5 -116.5 33
      vertex -66.5 -93.7388 33
    endloop
  endfacet
  facet normal -1 0 0
    outer loop
      vertex -66.5 -116.5 33
      vertex -66.5 -114.875 31.625
      vertex -66.5 -116.5 -8
    endloop
  endfacet
  facet normal -1 0 0
    outer loop
      vertex -66.5 -52.5 -8
      vertex -66.5 -54.125 -6.625
      vertex -66.5 -52.5 33
    endloop
  endfacet
  facet normal -1 0 0
    outer loop
      vertex -66.5 -75.2612 -8
      vertex -66.5 -54.125 -6.625
      vertex -66.5 -52.5 -8
    endloop
  endfacet
  facet normal -1 -0 0
    outer loop
      vertex -66.5 -54.125 -6.625
      vertex -66.5 -75.2612 -8
      vertex -66.5 -75.2612 -6.625
    endloop
  endfacet
  facet normal -1 0 0
    outer loop
      vertex -66.5 -54.125 31.625
      vertex -66.5 -52.5 33
      vertex -66.5 -54.125 -6.625
    endloop
  endfacet
  facet normal -1 0 0
    outer loop
      vertex -66.5 -75.2612 33
      vertex -66.5 -54.125 31.625
      vertex -66.5 -75.2612 31.625
    endloop
  endfacet
  facet normal -1 0 0
    outer loop
      vertex -66.5 -54.125 31.625
      vertex -66.5 -75.2612 33
      vertex -66.5 -52.5 33
    endloop
  endfacet
  facet normal 1 -0 0
    outer loop
      vertex 29 -116.5 33
      vertex 29 -52.5 -8
      vertex 29 -52.5 33
    endloop
  endfacet
  facet normal 1 0 0
    outer loop
      vertex 29 -52.5 -8
      vertex 29 -116.5 33
      vertex 29 -116.5 -8
    endloop
  endfacet
endsolid OpenSCAD_Model
