solid OpenSCAD_Model
  facet normal 1 -0 0
    outer loop
      vertex 148 -99 10
      vertex 148 -53.5 -8
      vertex 148 -53.5 10
    endloop
  endfacet
  facet normal 1 0 0
    outer loop
      vertex 148 -53.5 -8
      vertex 148 -99 10
      vertex 148 -99 -8
    endloop
  endfacet
  facet normal 0 0 1
    outer loop
      vertex 148 -53.5 10
      vertex 146.424 -56 10
      vertex 148 -99 10
    endloop
  endfacet
  facet normal 0 0 1
    outer loop
      vertex 148 -53.5 10
      vertex 146.153 -55.3467 10
      vertex 146.424 -56 10
    endloop
  endfacet
  facet normal 0 0 1
    outer loop
      vertex 148 -53.5 10
      vertex 145.5 -55.0761 10
      vertex 146.153 -55.3467 10
    endloop
  endfacet
  facet normal 0 0 1
    outer loop
      vertex 148 -53.5 10
      vertex 70.5 -55.0761 10
      vertex 145.5 -55.0761 10
    endloop
  endfacet
  facet normal 0 0 1
    outer loop
      vertex 69.5761 -56 10
      vertex 68 -53.5 10
      vertex 69.5761 -96.5 10
    endloop
  endfacet
  facet normal 0 0 1
    outer loop
      vertex 69.8467 -55.3467 10
      vertex 68 -53.5 10
      vertex 69.5761 -56 10
    endloop
  endfacet
  facet normal 0 0 1
    outer loop
      vertex 70.5 -55.0761 10
      vertex 68 -53.5 10
      vertex 69.8467 -55.3467 10
    endloop
  endfacet
  facet normal -0 0 1
    outer loop
      vertex 68 -53.5 10
      vertex 70.5 -55.0761 10
      vertex 148 -53.5 10
    endloop
  endfacet
  facet normal -0 0 1
    outer loop
      vertex 146.424 -96.5 10
      vertex 148 -99 10
      vertex 146.424 -56 10
    endloop
  endfacet
  facet normal -0 0 1
    outer loop
      vertex 146.153 -97.1533 10
      vertex 148 -99 10
      vertex 146.424 -96.5 10
    endloop
  endfacet
  facet normal -0 0 1
    outer loop
      vertex 145.5 -97.4239 10
      vertex 148 -99 10
      vertex 146.153 -97.1533 10
    endloop
  endfacet
  facet normal -0 0 1
    outer loop
      vertex 70.5 -97.4239 10
      vertex 148 -99 10
      vertex 145.5 -97.4239 10
    endloop
  endfacet
  facet normal 0 0 1
    outer loop
      vertex 70.5 -97.4239 10
      vertex 68 -99 10
      vertex 148 -99 10
    endloop
  endfacet
  facet normal 0 0 1
    outer loop
      vertex 69.8467 -97.1533 10
      vertex 68 -99 10
      vertex 70.5 -97.4239 10
    endloop
  endfacet
  facet normal 0 0 1
    outer loop
      vertex 69.5761 -96.5 10
      vertex 68 -99 10
      vertex 69.8467 -97.1533 10
    endloop
  endfacet
  facet normal 0 0 1
    outer loop
      vertex 68 -99 10
      vertex 69.5761 -96.5 10
      vertex 68 -53.5 10
    endloop
  endfacet
  facet normal 0 0 -1
    outer loop
      vertex 68 -99 -8
      vertex 148 -53.5 -8
      vertex 148 -99 -8
    endloop
  endfacet
  facet normal -0 0 -1
    outer loop
      vertex 148 -53.5 -8
      vertex 68 -99 -8
      vertex 68 -53.5 -8
    endloop
  endfacet
  facet normal -1 0 0
    outer loop
      vertex 68 -99 -8
      vertex 68 -53.5 10
      vertex 68 -53.5 -8
    endloop
  endfacet
  facet normal -1 -0 0
    outer loop
      vertex 68 -53.5 10
      vertex 68 -99 -8
      vertex 68 -99 10
    endloop
  endfacet
  facet normal 0 1 -0
    outer loop
      vertex 148 -53.5 -8
      vertex 68 -53.5 10
      vertex 148 -53.5 10
    endloop
  endfacet
  facet normal 0 1 0
    outer loop
      vertex 68 -53.5 10
      vertex 148 -53.5 -8
      vertex 68 -53.5 -8
    endloop
  endfacet
  facet normal 0 -1 0
    outer loop
      vertex 68 -99 -8
      vertex 148 -99 10
      vertex 68 -99 10
    endloop
  endfacet
  facet normal 0 -1 -0
    outer loop
      vertex 148 -99 10
      vertex 68 -99 -8
      vertex 148 -99 -8
    endloop
  endfacet
  facet normal -0.28085 0.678951 0.678343
    outer loop
      vertex 146.153 -97.1533 -5.88268
      vertex 145.771 -96.7706 -6.42388
      vertex 145.5 -96.8827 -6.42388
    endloop
  endfacet
  facet normal 0 -1 0
    outer loop
      vertex 70.5 -55.0761 -5.88268
      vertex 145.5 -55.0761 10
      vertex 70.5 -55.0761 10
    endloop
  endfacet
  facet normal 0 -1 -0
    outer loop
      vertex 145.5 -55.0761 10
      vertex 70.5 -55.0761 -5.88268
      vertex 145.5 -55.0761 -5.88268
    endloop
  endfacet
  facet normal -1 0 0
    outer loop
      vertex 146.424 -96.5 -5.88268
      vertex 146.424 -56 10
      vertex 146.424 -56 -5.88268
    endloop
  endfacet
  facet normal -1 -0 0
    outer loop
      vertex 146.424 -56 10
      vertex 146.424 -96.5 -5.88268
      vertex 146.424 -96.5 10
    endloop
  endfacet
  facet normal -0.281198 -0.678575 0.678575
    outer loop
      vertex 146.153 -55.3467 -5.88268
      vertex 145.5 -55.0761 -5.88268
      vertex 145.5 -55.6173 -6.42388
    endloop
  endfacet
  facet normal -0.28085 -0.678951 0.678343
    outer loop
      vertex 145.771 -55.7294 -6.42388
      vertex 146.153 -55.3467 -5.88268
      vertex 145.5 -55.6173 -6.42388
    endloop
  endfacet
  facet normal -0.923682 0.383159 0
    outer loop
      vertex 146.153 -97.1533 -5.88268
      vertex 146.424 -96.5 10
      vertex 146.424 -96.5 -5.88268
    endloop
  endfacet
  facet normal -0.923682 0.383159 0
    outer loop
      vertex 146.424 -96.5 10
      vertex 146.153 -97.1533 -5.88268
      vertex 146.153 -97.1533 10
    endloop
  endfacet
  facet normal 0.281079 0.678599 0.678599
    outer loop
      vertex 70.5 -97.4239 -5.88268
      vertex 70.5 -96.8827 -6.42388
      vertex 69.8467 -97.1533 -5.88268
    endloop
  endfacet
  facet normal 0.281107 0.678569 0.678618
    outer loop
      vertex 70.5 -96.8827 -6.42388
      vertex 70.2294 -96.7706 -6.42388
      vertex 69.8467 -97.1533 -5.88268
    endloop
  endfacet
  facet normal -0.707237 0 0.706976
    outer loop
      vertex 145.883 -96.5 -6.42388
      vertex 146.424 -56 -5.88268
      vertex 145.883 -56 -6.42388
    endloop
  endfacet
  facet normal -0.707237 0 0.706976
    outer loop
      vertex 146.424 -56 -5.88268
      vertex 145.883 -96.5 -6.42388
      vertex 146.424 -96.5 -5.88268
    endloop
  endfacet
  facet normal 0.382677 -0.923882 0
    outer loop
      vertex 69.8467 -55.3467 -5.88268
      vertex 70.5 -55.0761 10
      vertex 69.8467 -55.3467 10
    endloop
  endfacet
  facet normal 0.382677 -0.923882 0
    outer loop
      vertex 70.5 -55.0761 10
      vertex 69.8467 -55.3467 -5.88268
      vertex 70.5 -55.0761 -5.88268
    endloop
  endfacet
  facet normal -0.678636 0.28151 0.678385
    outer loop
      vertex 146.153 -97.1533 -5.88268
      vertex 146.424 -96.5 -5.88268
      vertex 145.883 -96.5 -6.42388
    endloop
  endfacet
  facet normal -0.281198 0.678575 0.678575
    outer loop
      vertex 146.153 -97.1533 -5.88268
      vertex 145.5 -96.8827 -6.42388
      vertex 145.5 -97.4239 -5.88268
    endloop
  endfacet
  facet normal -0.382827 0.92382 0
    outer loop
      vertex 146.153 -97.1533 -5.88268
      vertex 145.5 -97.4239 10
      vertex 146.153 -97.1533 10
    endloop
  endfacet
  facet normal -0.382827 0.92382 0
    outer loop
      vertex 145.5 -97.4239 10
      vertex 146.153 -97.1533 -5.88268
      vertex 145.5 -97.4239 -5.88268
    endloop
  endfacet
  facet normal -0.923682 -0.383159 0
    outer loop
      vertex 146.424 -56 -5.88268
      vertex 146.153 -55.3467 10
      vertex 146.153 -55.3467 -5.88268
    endloop
  endfacet
  facet normal -0.923682 -0.383159 0
    outer loop
      vertex 146.153 -55.3467 10
      vertex 146.424 -56 -5.88268
      vertex 146.424 -56 10
    endloop
  endfacet
  facet normal 0.382677 0.923882 -0
    outer loop
      vertex 70.5 -97.4239 -5.88268
      vertex 69.8467 -97.1533 10
      vertex 70.5 -97.4239 10
    endloop
  endfacet
  facet normal 0.382677 0.923882 0
    outer loop
      vertex 69.8467 -97.1533 10
      vertex 70.5 -97.4239 -5.88268
      vertex 69.8467 -97.1533 -5.88268
    endloop
  endfacet
  facet normal 0.923882 -0.382677 0
    outer loop
      vertex 69.5761 -56 10
      vertex 69.8467 -55.3467 -5.88268
      vertex 69.8467 -55.3467 10
    endloop
  endfacet
  facet normal 0.923882 -0.382677 0
    outer loop
      vertex 69.8467 -55.3467 -5.88268
      vertex 69.5761 -56 10
      vertex 69.5761 -56 -5.88268
    endloop
  endfacet
  facet normal 0.678569 -0.281107 0.678618
    outer loop
      vertex 70.1173 -56 -6.42388
      vertex 70.2294 -55.7294 -6.42388
      vertex 69.8467 -55.3467 -5.88268
    endloop
  endfacet
  facet normal -0.678636 -0.28151 0.678385
    outer loop
      vertex 146.424 -56 -5.88268
      vertex 146.153 -55.3467 -5.88268
      vertex 145.883 -56 -6.42388
    endloop
  endfacet
  facet normal 0.678569 0.281107 0.678618
    outer loop
      vertex 70.2294 -96.7706 -6.42388
      vertex 70.1173 -96.5 -6.42388
      vertex 69.8467 -97.1533 -5.88268
    endloop
  endfacet
  facet normal 0 1 -0
    outer loop
      vertex 145.5 -97.4239 -5.88268
      vertex 70.5 -97.4239 10
      vertex 145.5 -97.4239 10
    endloop
  endfacet
  facet normal 0 1 0
    outer loop
      vertex 70.5 -97.4239 10
      vertex 145.5 -97.4239 -5.88268
      vertex 70.5 -97.4239 -5.88268
    endloop
  endfacet
  facet normal 0 -0.707107 0.707107
    outer loop
      vertex 70.5 -55.6173 -6.42388
      vertex 145.5 -55.0761 -5.88268
      vertex 70.5 -55.0761 -5.88268
    endloop
  endfacet
  facet normal 0 -0.707107 0.707107
    outer loop
      vertex 145.5 -55.0761 -5.88268
      vertex 70.5 -55.6173 -6.42388
      vertex 145.5 -55.6173 -6.42388
    endloop
  endfacet
  facet normal 0.678599 -0.281079 0.678599
    outer loop
      vertex 70.1173 -56 -6.42388
      vertex 69.8467 -55.3467 -5.88268
      vertex 69.5761 -56 -5.88268
    endloop
  endfacet
  facet normal -0.382827 -0.92382 0
    outer loop
      vertex 145.5 -55.0761 -5.88268
      vertex 146.153 -55.3467 10
      vertex 145.5 -55.0761 10
    endloop
  endfacet
  facet normal -0.382827 -0.92382 -0
    outer loop
      vertex 146.153 -55.3467 10
      vertex 145.5 -55.0761 -5.88268
      vertex 146.153 -55.3467 -5.88268
    endloop
  endfacet
  facet normal -0.679103 0.281077 0.678096
    outer loop
      vertex 146.153 -97.1533 -5.88268
      vertex 145.883 -96.5 -6.42388
      vertex 145.771 -96.7706 -6.42388
    endloop
  endfacet
  facet normal -0.679103 -0.281077 0.678096
    outer loop
      vertex 145.883 -56 -6.42388
      vertex 146.153 -55.3467 -5.88268
      vertex 145.771 -55.7294 -6.42388
    endloop
  endfacet
  facet normal 0 0 1
    outer loop
      vertex 145.5 -55.6173 -6.42388
      vertex 145.883 -56 -6.42388
      vertex 145.771 -55.7294 -6.42388
    endloop
  endfacet
  facet normal 0 0 1
    outer loop
      vertex 145.883 -56 -6.42388
      vertex 145.5 -55.6173 -6.42388
      vertex 145.883 -96.5 -6.42388
    endloop
  endfacet
  facet normal 0 0 1
    outer loop
      vertex 145.5 -96.8827 -6.42388
      vertex 145.883 -96.5 -6.42388
      vertex 145.5 -55.6173 -6.42388
    endloop
  endfacet
  facet normal 0 0 1
    outer loop
      vertex 145.883 -96.5 -6.42388
      vertex 145.5 -96.8827 -6.42388
      vertex 145.771 -96.7706 -6.42388
    endloop
  endfacet
  facet normal -0 0 1
    outer loop
      vertex 70.5 -55.6173 -6.42388
      vertex 145.5 -96.8827 -6.42388
      vertex 145.5 -55.6173 -6.42388
    endloop
  endfacet
  facet normal 0 0 1
    outer loop
      vertex 70.5 -55.6173 -6.42388
      vertex 70.5 -96.8827 -6.42388
      vertex 145.5 -96.8827 -6.42388
    endloop
  endfacet
  facet normal 0 0 1
    outer loop
      vertex 70.1173 -56 -6.42388
      vertex 70.5 -55.6173 -6.42388
      vertex 70.2294 -55.7294 -6.42388
    endloop
  endfacet
  facet normal 0 0 1
    outer loop
      vertex 70.5 -55.6173 -6.42388
      vertex 70.1173 -56 -6.42388
      vertex 70.5 -96.8827 -6.42388
    endloop
  endfacet
  facet normal -0 0 1
    outer loop
      vertex 70.1173 -96.5 -6.42388
      vertex 70.5 -96.8827 -6.42388
      vertex 70.1173 -56 -6.42388
    endloop
  endfacet
  facet normal 0 0 1
    outer loop
      vertex 70.5 -96.8827 -6.42388
      vertex 70.1173 -96.5 -6.42388
      vertex 70.2294 -96.7706 -6.42388
    endloop
  endfacet
  facet normal 0.923882 0.382677 0
    outer loop
      vertex 69.8467 -97.1533 10
      vertex 69.5761 -96.5 -5.88268
      vertex 69.5761 -96.5 10
    endloop
  endfacet
  facet normal 0.923882 0.382677 0
    outer loop
      vertex 69.5761 -96.5 -5.88268
      vertex 69.8467 -97.1533 10
      vertex 69.8467 -97.1533 -5.88268
    endloop
  endfacet
  facet normal 0.678599 0.281079 0.678599
    outer loop
      vertex 69.8467 -97.1533 -5.88268
      vertex 70.1173 -96.5 -6.42388
      vertex 69.5761 -96.5 -5.88268
    endloop
  endfacet
  facet normal -0 0.707107 0.707107
    outer loop
      vertex 70.5 -96.8827 -6.42388
      vertex 145.5 -97.4239 -5.88268
      vertex 145.5 -96.8827 -6.42388
    endloop
  endfacet
  facet normal 0 0.707107 0.707107
    outer loop
      vertex 145.5 -97.4239 -5.88268
      vertex 70.5 -96.8827 -6.42388
      vertex 70.5 -97.4239 -5.88268
    endloop
  endfacet
  facet normal 0.281079 -0.678599 0.678599
    outer loop
      vertex 70.5 -55.6173 -6.42388
      vertex 70.5 -55.0761 -5.88268
      vertex 69.8467 -55.3467 -5.88268
    endloop
  endfacet
  facet normal 0.281107 -0.678569 0.678618
    outer loop
      vertex 70.2294 -55.7294 -6.42388
      vertex 70.5 -55.6173 -6.42388
      vertex 69.8467 -55.3467 -5.88268
    endloop
  endfacet
  facet normal 0.707107 0 0.707107
    outer loop
      vertex 69.5761 -56 -5.88268
      vertex 70.1173 -96.5 -6.42388
      vertex 70.1173 -56 -6.42388
    endloop
  endfacet
  facet normal 0.707107 0 0.707107
    outer loop
      vertex 70.1173 -96.5 -6.42388
      vertex 69.5761 -56 -5.88268
      vertex 69.5761 -96.5 -5.88268
    endloop
  endfacet
  facet normal 1 -0 0
    outer loop
      vertex 69.5761 -96.5 10
      vertex 69.5761 -56 -5.88268
      vertex 69.5761 -56 10
    endloop
  endfacet
  facet normal 1 0 0
    outer loop
      vertex 69.5761 -56 -5.88268
      vertex 69.5761 -96.5 10
      vertex 69.5761 -96.5 -5.88268
    endloop
  endfacet
endsolid OpenSCAD_Model
