solid OpenSCAD_Model
  facet normal 1 0 0
    outer loop
      vertex 148 -101 33
      vertex 148 -102.576 30.8827
      vertex 148 -101 -8
    endloop
  endfacet
  facet normal 1 0 0
    outer loop
      vertex 148 -101 33
      vertex 148 -103.117 31.4239
      vertex 148 -102.576 30.8827
    endloop
  endfacet
  facet normal 1 0 0
    outer loop
      vertex 148 -101 33
      vertex 148 -162.883 31.4239
      vertex 148 -103.117 31.4239
    endloop
  endfacet
  facet normal 1 0 0
    outer loop
      vertex 148 -163.424 30.8827
      vertex 148 -165 33
      vertex 148 -163.424 -5.88268
    endloop
  endfacet
  facet normal 1 0 0
    outer loop
      vertex 148 -162.883 31.4239
      vertex 148 -165 33
      vertex 148 -163.424 30.8827
    endloop
  endfacet
  facet normal 1 -0 0
    outer loop
      vertex 148 -165 33
      vertex 148 -162.883 31.4239
      vertex 148 -101 33
    endloop
  endfacet
  facet normal 1 -0 0
    outer loop
      vertex 148 -102.576 -5.88268
      vertex 148 -101 -8
      vertex 148 -102.576 30.8827
    endloop
  endfacet
  facet normal 1 -0 0
    outer loop
      vertex 148 -103.117 -6.42388
      vertex 148 -101 -8
      vertex 148 -102.576 -5.88268
    endloop
  endfacet
  facet normal 1 -0 0
    outer loop
      vertex 148 -162.883 -6.42388
      vertex 148 -101 -8
      vertex 148 -103.117 -6.42388
    endloop
  endfacet
  facet normal 1 0 0
    outer loop
      vertex 148 -162.883 -6.42388
      vertex 148 -165 -8
      vertex 148 -101 -8
    endloop
  endfacet
  facet normal 1 0 0
    outer loop
      vertex 148 -163.424 -5.88268
      vertex 148 -165 -8
      vertex 148 -162.883 -6.42388
    endloop
  endfacet
  facet normal 1 0 0
    outer loop
      vertex 148 -165 -8
      vertex 148 -163.424 -5.88268
      vertex 148 -165 33
    endloop
  endfacet
  facet normal -0 0 1
    outer loop
      vertex 130 -101 33
      vertex 148 -165 33
      vertex 148 -101 33
    endloop
  endfacet
  facet normal 0 0 1
    outer loop
      vertex 148 -165 33
      vertex 130 -101 33
      vertex 130 -165 33
    endloop
  endfacet
  facet normal 0 0 -1
    outer loop
      vertex 130 -165 -8
      vertex 148 -101 -8
      vertex 148 -165 -8
    endloop
  endfacet
  facet normal -0 0 -1
    outer loop
      vertex 148 -101 -8
      vertex 130 -165 -8
      vertex 130 -101 -8
    endloop
  endfacet
  facet normal -1 0 0
    outer loop
      vertex 130 -165 -8
      vertex 130 -101 33
      vertex 130 -101 -8
    endloop
  endfacet
  facet normal -1 -0 0
    outer loop
      vertex 130 -101 33
      vertex 130 -165 -8
      vertex 130 -165 33
    endloop
  endfacet
  facet normal 0 1 -0
    outer loop
      vertex 148 -101 -8
      vertex 130 -101 33
      vertex 148 -101 33
    endloop
  endfacet
  facet normal 0 1 0
    outer loop
      vertex 130 -101 33
      vertex 148 -101 -8
      vertex 130 -101 -8
    endloop
  endfacet
  facet normal 0 -1 0
    outer loop
      vertex 130 -165 -8
      vertex 148 -165 33
      vertex 130 -165 33
    endloop
  endfacet
  facet normal 0 -1 -0
    outer loop
      vertex 148 -165 33
      vertex 130 -165 -8
      vertex 148 -165 -8
    endloop
  endfacet
  facet normal 0.28082 -0.679485 0.677821
    outer loop
      vertex 132.229 -103.229 -6.42388
      vertex 132.5 -103.117 -6.42388
      vertex 131.847 -102.847 -5.88268
    endloop
  endfacet
  facet normal 0.707237 -0 0.706976
    outer loop
      vertex 131.576 -162.5 -5.88268
      vertex 132.117 -103.5 -6.42388
      vertex 131.576 -103.5 -5.88268
    endloop
  endfacet
  facet normal 0.707237 0 0.706976
    outer loop
      vertex 132.117 -103.5 -6.42388
      vertex 131.576 -162.5 -5.88268
      vertex 132.117 -162.5 -6.42388
    endloop
  endfacet
  facet normal 0.679485 -0.28082 0.677821
    outer loop
      vertex 132.117 -103.5 -6.42388
      vertex 132.229 -103.229 -6.42388
      vertex 131.847 -102.847 -5.88268
    endloop
  endfacet
  facet normal 0.92362 -0.383309 0
    outer loop
      vertex 131.576 -103.5 30.8827
      vertex 131.847 -102.847 -5.88268
      vertex 131.847 -102.847 30.8827
    endloop
  endfacet
  facet normal 0.92362 -0.383309 0
    outer loop
      vertex 131.847 -102.847 -5.88268
      vertex 131.576 -103.5 30.8827
      vertex 131.576 -103.5 -5.88268
    endloop
  endfacet
  facet normal 0.281629 -0.678611 0.67836
    outer loop
      vertex 132.5 -103.117 -6.42388
      vertex 132.5 -102.576 -5.88268
      vertex 131.847 -102.847 -5.88268
    endloop
  endfacet
  facet normal 0 0.707237 0.706976
    outer loop
      vertex 148 -162.883 -6.42388
      vertex 132.5 -163.424 -5.88268
      vertex 148 -163.424 -5.88268
    endloop
  endfacet
  facet normal 0 0.707237 0.706976
    outer loop
      vertex 132.5 -163.424 -5.88268
      vertex 148 -162.883 -6.42388
      vertex 132.5 -162.883 -6.42388
    endloop
  endfacet
  facet normal 1 -0 0
    outer loop
      vertex 131.576 -162.5 30.8827
      vertex 131.576 -103.5 -5.88268
      vertex 131.576 -103.5 30.8827
    endloop
  endfacet
  facet normal 1 0 0
    outer loop
      vertex 131.576 -103.5 -5.88268
      vertex 131.576 -162.5 30.8827
      vertex 131.576 -162.5 -5.88268
    endloop
  endfacet
  facet normal 0 -1 0
    outer loop
      vertex 132.5 -102.576 -5.88268
      vertex 148 -102.576 30.8827
      vertex 132.5 -102.576 30.8827
    endloop
  endfacet
  facet normal 0 -1 -0
    outer loop
      vertex 148 -102.576 30.8827
      vertex 132.5 -102.576 -5.88268
      vertex 148 -102.576 -5.88268
    endloop
  endfacet
  facet normal 0.383309 0.92362 -0
    outer loop
      vertex 132.5 -163.424 -5.88268
      vertex 131.847 -163.153 30.8827
      vertex 132.5 -163.424 30.8827
    endloop
  endfacet
  facet normal 0.383309 0.92362 0
    outer loop
      vertex 131.847 -163.153 30.8827
      vertex 132.5 -163.424 -5.88268
      vertex 131.847 -163.153 -5.88268
    endloop
  endfacet
  facet normal 0.707237 0 -0.706976
    outer loop
      vertex 132.117 -162.5 31.4239
      vertex 131.576 -103.5 30.8827
      vertex 132.117 -103.5 31.4239
    endloop
  endfacet
  facet normal 0.707237 0 -0.706976
    outer loop
      vertex 131.576 -103.5 30.8827
      vertex 132.117 -162.5 31.4239
      vertex 131.576 -162.5 30.8827
    endloop
  endfacet
  facet normal 0.28082 0.679485 0.677821
    outer loop
      vertex 132.5 -162.883 -6.42388
      vertex 132.229 -162.771 -6.42388
      vertex 131.847 -163.153 -5.88268
    endloop
  endfacet
  facet normal 0 1 -0
    outer loop
      vertex 148 -163.424 -5.88268
      vertex 132.5 -163.424 30.8827
      vertex 148 -163.424 30.8827
    endloop
  endfacet
  facet normal 0 1 0
    outer loop
      vertex 132.5 -163.424 30.8827
      vertex 148 -163.424 -5.88268
      vertex 132.5 -163.424 -5.88268
    endloop
  endfacet
  facet normal 0.678611 0.281629 0.67836
    outer loop
      vertex 131.847 -163.153 -5.88268
      vertex 132.117 -162.5 -6.42388
      vertex 131.576 -162.5 -5.88268
    endloop
  endfacet
  facet normal 0 -0.707237 0.706976
    outer loop
      vertex 132.5 -102.576 -5.88268
      vertex 148 -103.117 -6.42388
      vertex 148 -102.576 -5.88268
    endloop
  endfacet
  facet normal 0 -0.707237 0.706976
    outer loop
      vertex 148 -103.117 -6.42388
      vertex 132.5 -102.576 -5.88268
      vertex 132.5 -103.117 -6.42388
    endloop
  endfacet
  facet normal 0.383309 -0.92362 0
    outer loop
      vertex 131.847 -102.847 -5.88268
      vertex 132.5 -102.576 30.8827
      vertex 131.847 -102.847 30.8827
    endloop
  endfacet
  facet normal 0.383309 -0.92362 0
    outer loop
      vertex 132.5 -102.576 30.8827
      vertex 131.847 -102.847 -5.88268
      vertex 132.5 -102.576 -5.88268
    endloop
  endfacet
  facet normal 0.678611 -0.281629 0.67836
    outer loop
      vertex 132.117 -103.5 -6.42388
      vertex 131.847 -102.847 -5.88268
      vertex 131.576 -103.5 -5.88268
    endloop
  endfacet
  facet normal 0.281629 0.678611 0.67836
    outer loop
      vertex 132.5 -163.424 -5.88268
      vertex 132.5 -162.883 -6.42388
      vertex 131.847 -163.153 -5.88268
    endloop
  endfacet
  facet normal 0 0 -1
    outer loop
      vertex 132.117 -162.5 31.4239
      vertex 148 -162.883 31.4239
      vertex 132.5 -162.883 31.4239
    endloop
  endfacet
  facet normal 0 0 -1
    outer loop
      vertex 148 -162.883 31.4239
      vertex 132.117 -162.5 31.4239
      vertex 148 -103.117 31.4239
    endloop
  endfacet
  facet normal 0 0 -1
    outer loop
      vertex 132.117 -162.5 31.4239
      vertex 132.5 -162.883 31.4239
      vertex 132.229 -162.771 31.4239
    endloop
  endfacet
  facet normal 0 0 -1
    outer loop
      vertex 132.117 -103.5 31.4239
      vertex 148 -103.117 31.4239
      vertex 132.117 -162.5 31.4239
    endloop
  endfacet
  facet normal -0 0 -1
    outer loop
      vertex 148 -103.117 31.4239
      vertex 132.117 -103.5 31.4239
      vertex 132.5 -103.117 31.4239
    endloop
  endfacet
  facet normal 0 0 -1
    outer loop
      vertex 132.5 -103.117 31.4239
      vertex 132.117 -103.5 31.4239
      vertex 132.229 -103.229 31.4239
    endloop
  endfacet
  facet normal 0.679485 0.28082 0.677821
    outer loop
      vertex 132.229 -162.771 -6.42388
      vertex 132.117 -162.5 -6.42388
      vertex 131.847 -163.153 -5.88268
    endloop
  endfacet
  facet normal 0.28082 -0.679485 -0.677821
    outer loop
      vertex 132.5 -103.117 31.4239
      vertex 132.229 -103.229 31.4239
      vertex 131.847 -102.847 30.8827
    endloop
  endfacet
  facet normal 0 -0.707237 -0.706976
    outer loop
      vertex 132.5 -103.117 31.4239
      vertex 148 -102.576 30.8827
      vertex 148 -103.117 31.4239
    endloop
  endfacet
  facet normal -0 -0.707237 -0.706976
    outer loop
      vertex 148 -102.576 30.8827
      vertex 132.5 -103.117 31.4239
      vertex 132.5 -102.576 30.8827
    endloop
  endfacet
  facet normal 0.678611 -0.281629 -0.67836
    outer loop
      vertex 131.847 -102.847 30.8827
      vertex 132.117 -103.5 31.4239
      vertex 131.576 -103.5 30.8827
    endloop
  endfacet
  facet normal 0.281629 0.678611 -0.67836
    outer loop
      vertex 132.5 -162.883 31.4239
      vertex 132.5 -163.424 30.8827
      vertex 131.847 -163.153 30.8827
    endloop
  endfacet
  facet normal 0.28082 0.679485 -0.677821
    outer loop
      vertex 132.229 -162.771 31.4239
      vertex 132.5 -162.883 31.4239
      vertex 131.847 -163.153 30.8827
    endloop
  endfacet
  facet normal 0.281629 -0.678611 -0.67836
    outer loop
      vertex 132.5 -102.576 30.8827
      vertex 132.5 -103.117 31.4239
      vertex 131.847 -102.847 30.8827
    endloop
  endfacet
  facet normal 0.679485 -0.28082 -0.677821
    outer loop
      vertex 132.229 -103.229 31.4239
      vertex 132.117 -103.5 31.4239
      vertex 131.847 -102.847 30.8827
    endloop
  endfacet
  facet normal 0 0.707237 -0.706976
    outer loop
      vertex 148 -163.424 30.8827
      vertex 132.5 -162.883 31.4239
      vertex 148 -162.883 31.4239
    endloop
  endfacet
  facet normal 0 0.707237 -0.706976
    outer loop
      vertex 132.5 -162.883 31.4239
      vertex 148 -163.424 30.8827
      vertex 132.5 -163.424 30.8827
    endloop
  endfacet
  facet normal 0 0 1
    outer loop
      vertex 132.117 -103.5 -6.42388
      vertex 148 -103.117 -6.42388
      vertex 132.5 -103.117 -6.42388
    endloop
  endfacet
  facet normal 0 0 1
    outer loop
      vertex 148 -103.117 -6.42388
      vertex 132.117 -103.5 -6.42388
      vertex 148 -162.883 -6.42388
    endloop
  endfacet
  facet normal 0 0 1
    outer loop
      vertex 132.117 -103.5 -6.42388
      vertex 132.5 -103.117 -6.42388
      vertex 132.229 -103.229 -6.42388
    endloop
  endfacet
  facet normal -0 0 1
    outer loop
      vertex 132.117 -162.5 -6.42388
      vertex 148 -162.883 -6.42388
      vertex 132.117 -103.5 -6.42388
    endloop
  endfacet
  facet normal 0 0 1
    outer loop
      vertex 148 -162.883 -6.42388
      vertex 132.117 -162.5 -6.42388
      vertex 132.5 -162.883 -6.42388
    endloop
  endfacet
  facet normal 0 0 1
    outer loop
      vertex 132.5 -162.883 -6.42388
      vertex 132.117 -162.5 -6.42388
      vertex 132.229 -162.771 -6.42388
    endloop
  endfacet
  facet normal 0.678611 0.281629 -0.67836
    outer loop
      vertex 132.117 -162.5 31.4239
      vertex 131.847 -163.153 30.8827
      vertex 131.576 -162.5 30.8827
    endloop
  endfacet
  facet normal 0.92362 0.383309 0
    outer loop
      vertex 131.847 -163.153 30.8827
      vertex 131.576 -162.5 -5.88268
      vertex 131.576 -162.5 30.8827
    endloop
  endfacet
  facet normal 0.92362 0.383309 0
    outer loop
      vertex 131.576 -162.5 -5.88268
      vertex 131.847 -163.153 30.8827
      vertex 131.847 -163.153 -5.88268
    endloop
  endfacet
  facet normal 0.679485 0.28082 -0.677821
    outer loop
      vertex 132.117 -162.5 31.4239
      vertex 132.229 -162.771 31.4239
      vertex 131.847 -163.153 30.8827
    endloop
  endfacet
endsolid OpenSCAD_Model
