solid OpenSCAD_Model
  facet normal 0.678657 -0.280802 0.678657
    outer loop
      vertex 67.8087 -120 -8.46194
      vertex 67.6734 -119.673 -8.19134
      vertex 67.5381 -120 -8.19134
    endloop
  endfacet
  facet normal -0.677316 -0.280961 0.67993
    outer loop
      vertex 148.191 -120 -8.46194
      vertex 148.327 -119.673 -8.19134
      vertex 148.135 -119.865 -8.46194
    endloop
  endfacet
  facet normal 0.678657 -0.280802 -0.678657
    outer loop
      vertex 67.6734 -119.673 10.1913
      vertex 67.8087 -120 10.4619
      vertex 67.5381 -120 10.1913
    endloop
  endfacet
  facet normal 0.280609 -0.677972 0.679421
    outer loop
      vertex 67.8647 -119.865 -8.46194
      vertex 68 -119.809 -8.46194
      vertex 67.6734 -119.673 -8.19134
    endloop
  endfacet
  facet normal 0.924027 -0.382327 0
    outer loop
      vertex 67.5381 -120 10.1913
      vertex 67.6734 -119.673 -8.19134
      vertex 67.6734 -119.673 10.1913
    endloop
  endfacet
  facet normal 0.924027 -0.382327 0
    outer loop
      vertex 67.6734 -119.673 -8.19134
      vertex 67.5381 -120 10.1913
      vertex 67.5381 -120 -8.19134
    endloop
  endfacet
  facet normal -0.280961 -0.677316 0.67993
    outer loop
      vertex 148.135 -119.865 -8.46194
      vertex 148.327 -119.673 -8.19134
      vertex 148 -119.809 -8.46194
    endloop
  endfacet
  facet normal -0.280961 -0.677316 -0.67993
    outer loop
      vertex 148.327 -119.673 10.1913
      vertex 148.135 -119.865 10.4619
      vertex 148 -119.809 10.4619
    endloop
  endfacet
  facet normal -0.280038 -0.678313 0.679316
    outer loop
      vertex 148.327 -119.673 -8.19134
      vertex 148 -119.538 -8.19134
      vertex 148 -119.809 -8.46194
    endloop
  endfacet
  facet normal 0.678123 -0.281295 0.678986
    outer loop
      vertex 67.8087 -120 -8.46194
      vertex 67.8647 -119.865 -8.46194
      vertex 67.6734 -119.673 -8.19134
    endloop
  endfacet
  facet normal 0 -1 0
    outer loop
      vertex 68 -119.538 -8.19134
      vertex 148 -119.538 10.1913
      vertex 68 -119.538 10.1913
    endloop
  endfacet
  facet normal 0 -1 -0
    outer loop
      vertex 148 -119.538 10.1913
      vertex 68 -119.538 -8.19134
      vertex 148 -119.538 -8.19134
    endloop
  endfacet
  facet normal -0.70528 0 0.708929
    outer loop
      vertex 148.462 -120 -8.19134
      vertex 148.394 -163.809 -8.25899
      vertex 148.462 -163.944 -8.19134
    endloop
  endfacet
  facet normal -0.706584 4.03219e-06 0.707629
    outer loop
      vertex 148.191 -120 -8.46194
      vertex 148.394 -163.809 -8.25899
      vertex 148.462 -120 -8.19134
    endloop
  endfacet
  facet normal -0.70702 0 0.707194
    outer loop
      vertex 148.394 -163.809 -8.25899
      vertex 148.191 -120 -8.46194
      vertex 148.191 -163.907 -8.46194
    endloop
  endfacet
  facet normal 0.280354 -0.678248 -0.679251
    outer loop
      vertex 68 -119.538 10.1913
      vertex 68 -119.809 10.4619
      vertex 67.6734 -119.673 10.1913
    endloop
  endfacet
  facet normal 0 -0.706584 -0.707629
    outer loop
      vertex 68 -119.538 10.1913
      vertex 148 -119.809 10.4619
      vertex 68 -119.809 10.4619
    endloop
  endfacet
  facet normal 0 -0.706584 -0.707629
    outer loop
      vertex 148 -119.809 10.4619
      vertex 68 -119.538 10.1913
      vertex 148 -119.538 10.1913
    endloop
  endfacet
  facet normal 1 -0 0
    outer loop
      vertex 67.5381 -163.944 10.1913
      vertex 67.5381 -120 -8.19134
      vertex 67.5381 -120 10.1913
    endloop
  endfacet
  facet normal 1 0 0
    outer loop
      vertex 67.5381 -120 -8.19134
      vertex 67.5381 -163.944 10.1913
      vertex 67.5381 -163.944 -8.19134
    endloop
  endfacet
  facet normal -0.678313 -0.280038 -0.679316
    outer loop
      vertex 148.327 -119.673 10.1913
      vertex 148.462 -120 10.1913
      vertex 148.191 -120 10.4619
    endloop
  endfacet
  facet normal -1 0 0
    outer loop
      vertex 148.462 -163.944 -8.19134
      vertex 148.462 -120 10.1913
      vertex 148.462 -120 -8.19134
    endloop
  endfacet
  facet normal -1 -0 0
    outer loop
      vertex 148.462 -120 10.1913
      vertex 148.462 -163.944 -8.19134
      vertex 148.462 -163.944 10.1913
    endloop
  endfacet
  facet normal -0.678313 -0.280038 0.679316
    outer loop
      vertex 148.462 -120 -8.19134
      vertex 148.327 -119.673 -8.19134
      vertex 148.191 -120 -8.46194
    endloop
  endfacet
  facet normal 0.707107 -8.07034e-07 0.707107
    outer loop
      vertex 67.5381 -120 -8.19134
      vertex 67.6057 -163.809 -8.25899
      vertex 67.8087 -120 -8.46194
    endloop
  endfacet
  facet normal 0.707368 0 0.706845
    outer loop
      vertex 67.6057 -163.809 -8.25899
      vertex 67.5381 -120 -8.19134
      vertex 67.5381 -163.944 -8.19134
    endloop
  endfacet
  facet normal 0.70702 0 0.707194
    outer loop
      vertex 67.8087 -120 -8.46194
      vertex 67.6057 -163.809 -8.25899
      vertex 67.8087 -163.907 -8.46194
    endloop
  endfacet
  facet normal -0.677316 -0.280961 -0.67993
    outer loop
      vertex 148.327 -119.673 10.1913
      vertex 148.191 -120 10.4619
      vertex 148.135 -119.865 10.4619
    endloop
  endfacet
  facet normal -0.280038 -0.678313 -0.679316
    outer loop
      vertex 148 -119.538 10.1913
      vertex 148.327 -119.673 10.1913
      vertex 148 -119.809 10.4619
    endloop
  endfacet
  facet normal 0.382002 -0.924162 0
    outer loop
      vertex 67.6734 -119.673 -8.19134
      vertex 68 -119.538 10.1913
      vertex 67.6734 -119.673 10.1913
    endloop
  endfacet
  facet normal 0.382002 -0.924162 0
    outer loop
      vertex 68 -119.538 10.1913
      vertex 67.6734 -119.673 -8.19134
      vertex 68 -119.538 -8.19134
    endloop
  endfacet
  facet normal -0.705542 0 -0.708668
    outer loop
      vertex 148.394 -163.809 10.259
      vertex 148.462 -120 10.1913
      vertex 148.462 -163.944 10.1913
    endloop
  endfacet
  facet normal -0.706933 -0 -0.707281
    outer loop
      vertex 148.191 -120 10.4619
      vertex 148.394 -163.809 10.259
      vertex 148.191 -163.907 10.4619
    endloop
  endfacet
  facet normal -0.706584 3.22456e-06 -0.707629
    outer loop
      vertex 148.394 -163.809 10.259
      vertex 148.191 -120 10.4619
      vertex 148.462 -120 10.1913
    endloop
  endfacet
  facet normal 0 0 1
    outer loop
      vertex 148 -119.809 -8.46194
      vertex 148.191 -120 -8.46194
      vertex 148.135 -119.865 -8.46194
    endloop
  endfacet
  facet normal 0 0 1
    outer loop
      vertex 148.191 -120 -8.46194
      vertex 148.135 -163.865 -8.46194
      vertex 148.191 -163.907 -8.46194
    endloop
  endfacet
  facet normal 0 0 1
    outer loop
      vertex 148.191 -120 -8.46194
      vertex 148 -119.809 -8.46194
      vertex 148 -163.809 -8.46194
    endloop
  endfacet
  facet normal 0 0 1
    outer loop
      vertex 148.191 -120 -8.46194
      vertex 148 -163.809 -8.46194
      vertex 148.135 -163.865 -8.46194
    endloop
  endfacet
  facet normal -0 0 1
    outer loop
      vertex 68 -119.809 -8.46194
      vertex 148 -163.809 -8.46194
      vertex 148 -119.809 -8.46194
    endloop
  endfacet
  facet normal 0 0 1
    outer loop
      vertex 68 -119.809 -8.46194
      vertex 68 -163.809 -8.46194
      vertex 148 -163.809 -8.46194
    endloop
  endfacet
  facet normal 0 0 1
    outer loop
      vertex 67.8087 -120 -8.46194
      vertex 68 -119.809 -8.46194
      vertex 67.8647 -119.865 -8.46194
    endloop
  endfacet
  facet normal 0 0 1
    outer loop
      vertex 68 -119.809 -8.46194
      vertex 67.8087 -120 -8.46194
      vertex 68 -163.809 -8.46194
    endloop
  endfacet
  facet normal 0 0 1
    outer loop
      vertex 68 -163.809 -8.46194
      vertex 67.8087 -120 -8.46194
      vertex 67.8647 -163.865 -8.46194
    endloop
  endfacet
  facet normal 0 0 1
    outer loop
      vertex 67.8647 -163.865 -8.46194
      vertex 67.8087 -120 -8.46194
      vertex 67.8087 -163.907 -8.46194
    endloop
  endfacet
  facet normal 0.280609 -0.677972 -0.679421
    outer loop
      vertex 68 -119.809 10.4619
      vertex 67.8647 -119.865 10.4619
      vertex 67.6734 -119.673 10.1913
    endloop
  endfacet
  facet normal 0.678123 -0.281295 -0.678986
    outer loop
      vertex 67.8647 -119.865 10.4619
      vertex 67.8087 -120 10.4619
      vertex 67.6734 -119.673 10.1913
    endloop
  endfacet
  facet normal 0.280354 -0.678248 0.679251
    outer loop
      vertex 68 -119.809 -8.46194
      vertex 68 -119.538 -8.19134
      vertex 67.6734 -119.673 -8.19134
    endloop
  endfacet
  facet normal -0.924326 -0.381603 0
    outer loop
      vertex 148.462 -120 -8.19134
      vertex 148.327 -119.673 10.1913
      vertex 148.327 -119.673 -8.19134
    endloop
  endfacet
  facet normal -0.924326 -0.381603 0
    outer loop
      vertex 148.327 -119.673 10.1913
      vertex 148.462 -120 -8.19134
      vertex 148.462 -120 10.1913
    endloop
  endfacet
  facet normal 0 0 -1
    outer loop
      vertex 148.135 -163.865 10.4619
      vertex 148.191 -120 10.4619
      vertex 148.191 -163.907 10.4619
    endloop
  endfacet
  facet normal 0 0 -1
    outer loop
      vertex 148 -163.809 10.4619
      vertex 148.191 -120 10.4619
      vertex 148.135 -163.865 10.4619
    endloop
  endfacet
  facet normal 0 0 -1
    outer loop
      vertex 148 -119.809 10.4619
      vertex 148.191 -120 10.4619
      vertex 148 -163.809 10.4619
    endloop
  endfacet
  facet normal 0 0 -1
    outer loop
      vertex 148.191 -120 10.4619
      vertex 148 -119.809 10.4619
      vertex 148.135 -119.865 10.4619
    endloop
  endfacet
  facet normal 0 0 -1
    outer loop
      vertex 68 -163.809 10.4619
      vertex 148 -119.809 10.4619
      vertex 148 -163.809 10.4619
    endloop
  endfacet
  facet normal 0 0 -1
    outer loop
      vertex 68 -163.809 10.4619
      vertex 68 -119.809 10.4619
      vertex 148 -119.809 10.4619
    endloop
  endfacet
  facet normal 0 0 -1
    outer loop
      vertex 67.8087 -120 10.4619
      vertex 68 -163.809 10.4619
      vertex 67.8647 -163.865 10.4619
    endloop
  endfacet
  facet normal 0 0 -1
    outer loop
      vertex 68 -163.809 10.4619
      vertex 67.8087 -120 10.4619
      vertex 68 -119.809 10.4619
    endloop
  endfacet
  facet normal 0 0 -1
    outer loop
      vertex 67.8087 -120 10.4619
      vertex 67.8647 -163.865 10.4619
      vertex 67.8087 -163.907 10.4619
    endloop
  endfacet
  facet normal 0 0 -1
    outer loop
      vertex 68 -119.809 10.4619
      vertex 67.8087 -120 10.4619
      vertex 67.8647 -119.865 10.4619
    endloop
  endfacet
  facet normal 0.707107 -1.61407e-06 -0.707107
    outer loop
      vertex 67.8087 -120 10.4619
      vertex 67.6057 -163.809 10.259
      vertex 67.5381 -120 10.1913
    endloop
  endfacet
  facet normal 0.706933 0 -0.707281
    outer loop
      vertex 67.6057 -163.809 10.259
      vertex 67.8087 -120 10.4619
      vertex 67.8087 -163.907 10.4619
    endloop
  endfacet
  facet normal 0.707629 0 -0.706584
    outer loop
      vertex 67.5381 -120 10.1913
      vertex 67.6057 -163.809 10.259
      vertex 67.5381 -163.944 10.1913
    endloop
  endfacet
  facet normal 0 -0.706584 0.707629
    outer loop
      vertex 68 -119.809 -8.46194
      vertex 148 -119.538 -8.19134
      vertex 68 -119.538 -8.19134
    endloop
  endfacet
  facet normal 0 -0.706584 0.707629
    outer loop
      vertex 148 -119.538 -8.19134
      vertex 68 -119.809 -8.46194
      vertex 148 -119.809 -8.46194
    endloop
  endfacet
  facet normal -0.381603 -0.924326 0
    outer loop
      vertex 148 -119.538 -8.19134
      vertex 148.327 -119.673 10.1913
      vertex 148 -119.538 10.1913
    endloop
  endfacet
  facet normal -0.381603 -0.924326 -0
    outer loop
      vertex 148.327 -119.673 10.1913
      vertex 148 -119.538 -8.19134
      vertex 148.327 -119.673 -8.19134
    endloop
  endfacet
  facet normal -0.677316 -0.280961 -0.67993
    outer loop
      vertex 149.327 -165.673 11.1913
      vertex 149.191 -166 11.4619
      vertex 149.135 -165.865 11.4619
    endloop
  endfacet
  facet normal -0.427401 -0.566073 -0.704904
    outer loop
      vertex 148.191 -163.907 10.4619
      vertex 149.327 -165.673 11.1913
      vertex 149.135 -165.865 11.4619
    endloop
  endfacet
  facet normal -0.429354 -0.566647 -0.703254
    outer loop
      vertex 149.327 -165.673 11.1913
      vertex 148.191 -163.907 10.4619
      vertex 148.394 -163.809 10.259
    endloop
  endfacet
  facet normal -0.424264 -0.565685 -0.707107
    outer loop
      vertex 148.191 -163.907 10.4619
      vertex 149.135 -165.865 11.4619
      vertex 148.135 -163.865 10.4619
    endloop
  endfacet
  facet normal -0.678313 -0.280038 -0.679316
    outer loop
      vertex 149.327 -165.673 11.1913
      vertex 149.462 -166 11.1913
      vertex 149.191 -166 11.4619
    endloop
  endfacet
  facet normal -0.429441 -0.566673 0.70318
    outer loop
      vertex 148.191 -163.907 -8.46194
      vertex 149.327 -165.673 -9.19134
      vertex 148.394 -163.809 -8.25899
    endloop
  endfacet
  facet normal -0.427401 -0.566073 0.704904
    outer loop
      vertex 149.327 -165.673 -9.19134
      vertex 148.191 -163.907 -8.46194
      vertex 149.135 -165.865 -9.46194
    endloop
  endfacet
  facet normal -0.424264 -0.565685 0.707107
    outer loop
      vertex 149.135 -165.865 -9.46194
      vertex 148.191 -163.907 -8.46194
      vertex 148.135 -163.865 -8.46194
    endloop
  endfacet
  facet normal 0 -0.447214 -0.894427
    outer loop
      vertex 149 -165.809 11.4619
      vertex 68 -163.809 10.4619
      vertex 148 -163.809 10.4619
    endloop
  endfacet
  facet normal 0 -0.447214 -0.894427
    outer loop
      vertex 68 -163.809 10.4619
      vertex 149 -165.809 11.4619
      vertex 67 -165.809 11.4619
    endloop
  endfacet
  facet normal -0.894324 -0.44742 0
    outer loop
      vertex 148.462 -163.944 -8.19134
      vertex 149.327 -165.673 -9.19134
      vertex 148.462 -163.944 10.1913
    endloop
  endfacet
  facet normal -0.893665 -0.448726 0.00282676
    outer loop
      vertex 149.327 -165.673 -9.19134
      vertex 148.462 -163.944 -8.19134
      vertex 148.394 -163.809 -8.25899
    endloop
  endfacet
  facet normal -0.893665 -0.448725 -0.0028258
    outer loop
      vertex 148.462 -163.944 10.1913
      vertex 149.327 -165.673 11.1913
      vertex 148.394 -163.809 10.259
    endloop
  endfacet
  facet normal -0.894324 -0.44742 -0
    outer loop
      vertex 149.327 -165.673 11.1913
      vertex 148.462 -163.944 10.1913
      vertex 149.327 -165.673 -9.19134
    endloop
  endfacet
  facet normal -0.678313 -0.280038 0.679316
    outer loop
      vertex 149.462 -166 -9.19134
      vertex 149.327 -165.673 -9.19134
      vertex 149.191 -166 -9.46194
    endloop
  endfacet
  facet normal -0.216094 -0.520941 0.825787
    outer loop
      vertex 148.135 -163.865 -8.46194
      vertex 149 -165.809 -9.46194
      vertex 149.135 -165.865 -9.46194
    endloop
  endfacet
  facet normal -0.216094 -0.520941 0.825787
    outer loop
      vertex 149 -165.809 -9.46194
      vertex 148.135 -163.865 -8.46194
      vertex 148 -163.809 -8.46194
    endloop
  endfacet
  facet normal 0 -0.447214 0.894427
    outer loop
      vertex 68 -163.809 -8.46194
      vertex 149 -165.809 -9.46194
      vertex 148 -163.809 -8.46194
    endloop
  endfacet
  facet normal 0 -0.447214 0.894427
    outer loop
      vertex 149 -165.809 -9.46194
      vertex 68 -163.809 -8.46194
      vertex 67 -165.809 -9.46194
    endloop
  endfacet
  facet normal -0.924326 -0.381603 0
    outer loop
      vertex 149.462 -166 -9.19134
      vertex 149.327 -165.673 11.1913
      vertex 149.327 -165.673 -9.19134
    endloop
  endfacet
  facet normal -0.924326 -0.381603 0
    outer loop
      vertex 149.327 -165.673 11.1913
      vertex 149.462 -166 -9.19134
      vertex 149.462 -166 11.1913
    endloop
  endfacet
  facet normal 0.924027 -0.382327 0
    outer loop
      vertex 66.5381 -166 11.1913
      vertex 66.6734 -165.673 -9.19134
      vertex 66.6734 -165.673 11.1913
    endloop
  endfacet
  facet normal 0.924027 -0.382327 0
    outer loop
      vertex 66.6734 -165.673 -9.19134
      vertex 66.5381 -166 11.1913
      vertex 66.5381 -166 -9.19134
    endloop
  endfacet
  facet normal 0 0 1
    outer loop
      vertex 149 -165.809 -9.46194
      vertex 149.191 -166 -9.46194
      vertex 149.135 -165.865 -9.46194
    endloop
  endfacet
  facet normal -0 0 1
    outer loop
      vertex 67 -165.809 -9.46194
      vertex 149.191 -166 -9.46194
      vertex 149 -165.809 -9.46194
    endloop
  endfacet
  facet normal 0 0 1
    outer loop
      vertex 66.8087 -166 -9.46194
      vertex 67 -165.809 -9.46194
      vertex 66.8647 -165.865 -9.46194
    endloop
  endfacet
  facet normal 0 0 1
    outer loop
      vertex 67 -165.809 -9.46194
      vertex 66.8087 -166 -9.46194
      vertex 149.191 -166 -9.46194
    endloop
  endfacet
  facet normal 0.424264 -0.565685 -0.707107
    outer loop
      vertex 66.8647 -165.865 11.4619
      vertex 67.8087 -163.907 10.4619
      vertex 67.8647 -163.865 10.4619
    endloop
  endfacet
  facet normal 0.428139 -0.566163 -0.704384
    outer loop
      vertex 66.6734 -165.673 11.1913
      vertex 67.8087 -163.907 10.4619
      vertex 66.8647 -165.865 11.4619
    endloop
  endfacet
  facet normal 0.429436 -0.566544 -0.703287
    outer loop
      vertex 67.8087 -163.907 10.4619
      vertex 66.6734 -165.673 11.1913
      vertex 67.6057 -163.809 10.259
    endloop
  endfacet
  facet normal -0.677316 -0.280961 0.67993
    outer loop
      vertex 149.191 -166 -9.46194
      vertex 149.327 -165.673 -9.19134
      vertex 149.135 -165.865 -9.46194
    endloop
  endfacet
  facet normal -0.216094 -0.520941 -0.825787
    outer loop
      vertex 149 -165.809 11.4619
      vertex 148.135 -163.865 10.4619
      vertex 149.135 -165.865 11.4619
    endloop
  endfacet
  facet normal -0.216094 -0.520941 -0.825787
    outer loop
      vertex 148.135 -163.865 10.4619
      vertex 149 -165.809 11.4619
      vertex 148 -163.809 10.4619
    endloop
  endfacet
  facet normal 0.215552 -0.520788 -0.826025
    outer loop
      vertex 67 -165.809 11.4619
      vertex 67.8647 -163.865 10.4619
      vertex 68 -163.809 10.4619
    endloop
  endfacet
  facet normal 0.215552 -0.520788 -0.826025
    outer loop
      vertex 67.8647 -163.865 10.4619
      vertex 67 -165.809 11.4619
      vertex 66.8647 -165.865 11.4619
    endloop
  endfacet
  facet normal 0.678657 -0.280802 -0.678657
    outer loop
      vertex 66.6734 -165.673 11.1913
      vertex 66.8087 -166 11.4619
      vertex 66.5381 -166 11.1913
    endloop
  endfacet
  facet normal 0.215552 -0.520788 0.826025
    outer loop
      vertex 67.8647 -163.865 -8.46194
      vertex 67 -165.809 -9.46194
      vertex 68 -163.809 -8.46194
    endloop
  endfacet
  facet normal 0.215552 -0.520788 0.826025
    outer loop
      vertex 67 -165.809 -9.46194
      vertex 67.8647 -163.865 -8.46194
      vertex 66.8647 -165.865 -9.46194
    endloop
  endfacet
  facet normal 0.678123 -0.281295 0.678986
    outer loop
      vertex 66.8087 -166 -9.46194
      vertex 66.8647 -165.865 -9.46194
      vertex 66.6734 -165.673 -9.19134
    endloop
  endfacet
  facet normal 0.424264 -0.565685 0.707107
    outer loop
      vertex 67.8087 -163.907 -8.46194
      vertex 66.8647 -165.865 -9.46194
      vertex 67.8647 -163.865 -8.46194
    endloop
  endfacet
  facet normal 0.429524 -0.566569 0.703213
    outer loop
      vertex 66.6734 -165.673 -9.19134
      vertex 67.8087 -163.907 -8.46194
      vertex 67.6057 -163.809 -8.25899
    endloop
  endfacet
  facet normal 0.428139 -0.566163 0.704384
    outer loop
      vertex 67.8087 -163.907 -8.46194
      vertex 66.6734 -165.673 -9.19134
      vertex 66.8647 -165.865 -9.46194
    endloop
  endfacet
  facet normal 0.678657 -0.280802 0.678657
    outer loop
      vertex 66.8087 -166 -9.46194
      vertex 66.6734 -165.673 -9.19134
      vertex 66.5381 -166 -9.19134
    endloop
  endfacet
  facet normal 0.894386 -0.447296 0
    outer loop
      vertex 67.5381 -163.944 10.1913
      vertex 66.6734 -165.673 11.1913
      vertex 67.5381 -163.944 -8.19134
    endloop
  endfacet
  facet normal 0.894266 -0.447536 -0.000517642
    outer loop
      vertex 66.6734 -165.673 11.1913
      vertex 67.5381 -163.944 10.1913
      vertex 67.6057 -163.809 10.259
    endloop
  endfacet
  facet normal 0.894266 -0.447536 0.00051782
    outer loop
      vertex 67.5381 -163.944 -8.19134
      vertex 66.6734 -165.673 -9.19134
      vertex 67.6057 -163.809 -8.25899
    endloop
  endfacet
  facet normal 0.894386 -0.447296 0
    outer loop
      vertex 66.6734 -165.673 -9.19134
      vertex 67.5381 -163.944 -8.19134
      vertex 66.6734 -165.673 11.1913
    endloop
  endfacet
  facet normal 0.678123 -0.281295 -0.678986
    outer loop
      vertex 66.8647 -165.865 11.4619
      vertex 66.8087 -166 11.4619
      vertex 66.6734 -165.673 11.1913
    endloop
  endfacet
  facet normal 0 0 -1
    outer loop
      vertex 149.191 -166 11.4619
      vertex 149 -165.809 11.4619
      vertex 149.135 -165.865 11.4619
    endloop
  endfacet
  facet normal 0 0 -1
    outer loop
      vertex 149.191 -166 11.4619
      vertex 67 -165.809 11.4619
      vertex 149 -165.809 11.4619
    endloop
  endfacet
  facet normal 0 0 -1
    outer loop
      vertex 66.8087 -166 11.4619
      vertex 67 -165.809 11.4619
      vertex 149.191 -166 11.4619
    endloop
  endfacet
  facet normal 0 0 -1
    outer loop
      vertex 67 -165.809 11.4619
      vertex 66.8087 -166 11.4619
      vertex 66.8647 -165.865 11.4619
    endloop
  endfacet
  facet normal 0.280609 -0.677972 -0.679421
    outer loop
      vertex 68 -119.809 33.4619
      vertex 67.8647 -119.865 33.4619
      vertex 67.6734 -119.673 33.1913
    endloop
  endfacet
  facet normal 0.707107 -1.61407e-06 0.707107
    outer loop
      vertex 67.5381 -120 12.8087
      vertex 67.6057 -163.809 12.741
      vertex 67.8087 -120 12.5381
    endloop
  endfacet
  facet normal 0.707629 0 0.706584
    outer loop
      vertex 67.6057 -163.809 12.741
      vertex 67.5381 -120 12.8087
      vertex 67.5381 -163.944 12.8087
    endloop
  endfacet
  facet normal 0.706933 0 0.707281
    outer loop
      vertex 67.8087 -120 12.5381
      vertex 67.6057 -163.809 12.741
      vertex 67.8087 -163.907 12.5381
    endloop
  endfacet
  facet normal -0.280038 -0.678313 0.679316
    outer loop
      vertex 148.327 -119.673 12.8087
      vertex 148 -119.538 12.8087
      vertex 148 -119.809 12.5381
    endloop
  endfacet
  facet normal -0.381603 -0.924326 0
    outer loop
      vertex 148 -119.538 12.8087
      vertex 148.327 -119.673 33.1913
      vertex 148 -119.538 33.1913
    endloop
  endfacet
  facet normal -0.381603 -0.924326 -0
    outer loop
      vertex 148.327 -119.673 33.1913
      vertex 148 -119.538 12.8087
      vertex 148.327 -119.673 12.8087
    endloop
  endfacet
  facet normal 0.280354 -0.678248 -0.679251
    outer loop
      vertex 68 -119.538 33.1913
      vertex 68 -119.809 33.4619
      vertex 67.6734 -119.673 33.1913
    endloop
  endfacet
  facet normal 0.382002 -0.924162 0
    outer loop
      vertex 67.6734 -119.673 12.8087
      vertex 68 -119.538 33.1913
      vertex 67.6734 -119.673 33.1913
    endloop
  endfacet
  facet normal 0.382002 -0.924162 0
    outer loop
      vertex 68 -119.538 33.1913
      vertex 67.6734 -119.673 12.8087
      vertex 68 -119.538 12.8087
    endloop
  endfacet
  facet normal 0.678657 -0.280802 -0.678657
    outer loop
      vertex 67.6734 -119.673 33.1913
      vertex 67.8087 -120 33.4619
      vertex 67.5381 -120 33.1913
    endloop
  endfacet
  facet normal 0.678123 -0.281295 -0.678986
    outer loop
      vertex 67.8647 -119.865 33.4619
      vertex 67.8087 -120 33.4619
      vertex 67.6734 -119.673 33.1913
    endloop
  endfacet
  facet normal -0.677316 -0.280961 -0.67993
    outer loop
      vertex 148.327 -119.673 33.1913
      vertex 148.191 -120 33.4619
      vertex 148.135 -119.865 33.4619
    endloop
  endfacet
  facet normal 0.678123 -0.281295 0.678986
    outer loop
      vertex 67.8087 -120 12.5381
      vertex 67.8647 -119.865 12.5381
      vertex 67.6734 -119.673 12.8087
    endloop
  endfacet
  facet normal 0 -1 0
    outer loop
      vertex 68 -119.538 12.8087
      vertex 148 -119.538 33.1913
      vertex 68 -119.538 33.1913
    endloop
  endfacet
  facet normal 0 -1 -0
    outer loop
      vertex 148 -119.538 33.1913
      vertex 68 -119.538 12.8087
      vertex 148 -119.538 12.8087
    endloop
  endfacet
  facet normal -1 0 0
    outer loop
      vertex 148.462 -163.944 12.8087
      vertex 148.462 -120 33.1913
      vertex 148.462 -120 12.8087
    endloop
  endfacet
  facet normal -1 -0 0
    outer loop
      vertex 148.462 -120 33.1913
      vertex 148.462 -163.944 12.8087
      vertex 148.462 -163.944 33.1913
    endloop
  endfacet
  facet normal -0.677316 -0.280961 0.67993
    outer loop
      vertex 148.191 -120 12.5381
      vertex 148.327 -119.673 12.8087
      vertex 148.135 -119.865 12.5381
    endloop
  endfacet
  facet normal 0.707107 -1.61407e-06 -0.707107
    outer loop
      vertex 67.8087 -120 33.4619
      vertex 67.6057 -163.809 33.259
      vertex 67.5381 -120 33.1913
    endloop
  endfacet
  facet normal 0.706933 0 -0.707281
    outer loop
      vertex 67.6057 -163.809 33.259
      vertex 67.8087 -120 33.4619
      vertex 67.8087 -163.907 33.4619
    endloop
  endfacet
  facet normal 0.707629 0 -0.706584
    outer loop
      vertex 67.5381 -120 33.1913
      vertex 67.6057 -163.809 33.259
      vertex 67.5381 -163.944 33.1913
    endloop
  endfacet
  facet normal 1 -0 0
    outer loop
      vertex 67.5381 -163.944 33.1913
      vertex 67.5381 -120 12.8087
      vertex 67.5381 -120 33.1913
    endloop
  endfacet
  facet normal 1 0 0
    outer loop
      vertex 67.5381 -120 12.8087
      vertex 67.5381 -163.944 33.1913
      vertex 67.5381 -163.944 12.8087
    endloop
  endfacet
  facet normal 0.678657 -0.280802 0.678657
    outer loop
      vertex 67.8087 -120 12.5381
      vertex 67.6734 -119.673 12.8087
      vertex 67.5381 -120 12.8087
    endloop
  endfacet
  facet normal -0.678313 -0.280038 -0.679316
    outer loop
      vertex 148.327 -119.673 33.1913
      vertex 148.462 -120 33.1913
      vertex 148.191 -120 33.4619
    endloop
  endfacet
  facet normal -0.280961 -0.677316 0.67993
    outer loop
      vertex 148.135 -119.865 12.5381
      vertex 148.327 -119.673 12.8087
      vertex 148 -119.809 12.5381
    endloop
  endfacet
  facet normal 0.280609 -0.677972 0.679421
    outer loop
      vertex 67.8647 -119.865 12.5381
      vertex 68 -119.809 12.5381
      vertex 67.6734 -119.673 12.8087
    endloop
  endfacet
  facet normal 0.924027 -0.382327 0
    outer loop
      vertex 67.5381 -120 33.1913
      vertex 67.6734 -119.673 12.8087
      vertex 67.6734 -119.673 33.1913
    endloop
  endfacet
  facet normal 0.924027 -0.382327 0
    outer loop
      vertex 67.6734 -119.673 12.8087
      vertex 67.5381 -120 33.1913
      vertex 67.5381 -120 12.8087
    endloop
  endfacet
  facet normal 0.280354 -0.678248 0.679251
    outer loop
      vertex 68 -119.809 12.5381
      vertex 68 -119.538 12.8087
      vertex 67.6734 -119.673 12.8087
    endloop
  endfacet
  facet normal 0 -0.706584 0.707629
    outer loop
      vertex 68 -119.809 12.5381
      vertex 148 -119.538 12.8087
      vertex 68 -119.538 12.8087
    endloop
  endfacet
  facet normal 0 -0.706584 0.707629
    outer loop
      vertex 148 -119.538 12.8087
      vertex 68 -119.809 12.5381
      vertex 148 -119.809 12.5381
    endloop
  endfacet
  facet normal 0 0 1
    outer loop
      vertex 148 -119.809 12.5381
      vertex 148.191 -120 12.5381
      vertex 148.135 -119.865 12.5381
    endloop
  endfacet
  facet normal 0 0 1
    outer loop
      vertex 148.191 -120 12.5381
      vertex 148.135 -163.865 12.5381
      vertex 148.191 -163.907 12.5381
    endloop
  endfacet
  facet normal 0 0 1
    outer loop
      vertex 148.191 -120 12.5381
      vertex 148 -119.809 12.5381
      vertex 148 -163.809 12.5381
    endloop
  endfacet
  facet normal 0 0 1
    outer loop
      vertex 148.191 -120 12.5381
      vertex 148 -163.809 12.5381
      vertex 148.135 -163.865 12.5381
    endloop
  endfacet
  facet normal -0 0 1
    outer loop
      vertex 68 -119.809 12.5381
      vertex 148 -163.809 12.5381
      vertex 148 -119.809 12.5381
    endloop
  endfacet
  facet normal 0 0 1
    outer loop
      vertex 68 -119.809 12.5381
      vertex 68 -163.809 12.5381
      vertex 148 -163.809 12.5381
    endloop
  endfacet
  facet normal 0 0 1
    outer loop
      vertex 67.8087 -120 12.5381
      vertex 68 -119.809 12.5381
      vertex 67.8647 -119.865 12.5381
    endloop
  endfacet
  facet normal 0 0 1
    outer loop
      vertex 68 -119.809 12.5381
      vertex 67.8087 -120 12.5381
      vertex 68 -163.809 12.5381
    endloop
  endfacet
  facet normal 0 0 1
    outer loop
      vertex 68 -163.809 12.5381
      vertex 67.8087 -120 12.5381
      vertex 67.8647 -163.865 12.5381
    endloop
  endfacet
  facet normal 0 0 1
    outer loop
      vertex 67.8647 -163.865 12.5381
      vertex 67.8087 -120 12.5381
      vertex 67.8087 -163.907 12.5381
    endloop
  endfacet
  facet normal 0 0 -1
    outer loop
      vertex 148.135 -163.865 33.4619
      vertex 148.191 -120 33.4619
      vertex 148.191 -163.907 33.4619
    endloop
  endfacet
  facet normal 0 0 -1
    outer loop
      vertex 148 -163.809 33.4619
      vertex 148.191 -120 33.4619
      vertex 148.135 -163.865 33.4619
    endloop
  endfacet
  facet normal 0 0 -1
    outer loop
      vertex 148 -119.809 33.4619
      vertex 148.191 -120 33.4619
      vertex 148 -163.809 33.4619
    endloop
  endfacet
  facet normal 0 0 -1
    outer loop
      vertex 148.191 -120 33.4619
      vertex 148 -119.809 33.4619
      vertex 148.135 -119.865 33.4619
    endloop
  endfacet
  facet normal 0 0 -1
    outer loop
      vertex 68 -163.809 33.4619
      vertex 148 -119.809 33.4619
      vertex 148 -163.809 33.4619
    endloop
  endfacet
  facet normal 0 0 -1
    outer loop
      vertex 68 -163.809 33.4619
      vertex 68 -119.809 33.4619
      vertex 148 -119.809 33.4619
    endloop
  endfacet
  facet normal 0 0 -1
    outer loop
      vertex 67.8087 -120 33.4619
      vertex 68 -163.809 33.4619
      vertex 67.8647 -163.865 33.4619
    endloop
  endfacet
  facet normal 0 0 -1
    outer loop
      vertex 68 -163.809 33.4619
      vertex 67.8087 -120 33.4619
      vertex 68 -119.809 33.4619
    endloop
  endfacet
  facet normal 0 0 -1
    outer loop
      vertex 67.8087 -120 33.4619
      vertex 67.8647 -163.865 33.4619
      vertex 67.8087 -163.907 33.4619
    endloop
  endfacet
  facet normal 0 0 -1
    outer loop
      vertex 68 -119.809 33.4619
      vertex 67.8087 -120 33.4619
      vertex 67.8647 -119.865 33.4619
    endloop
  endfacet
  facet normal 0 -0.706584 -0.707629
    outer loop
      vertex 68 -119.538 33.1913
      vertex 148 -119.809 33.4619
      vertex 68 -119.809 33.4619
    endloop
  endfacet
  facet normal 0 -0.706584 -0.707629
    outer loop
      vertex 148 -119.809 33.4619
      vertex 68 -119.538 33.1913
      vertex 148 -119.538 33.1913
    endloop
  endfacet
  facet normal -0.280961 -0.677316 -0.67993
    outer loop
      vertex 148.327 -119.673 33.1913
      vertex 148.135 -119.865 33.4619
      vertex 148 -119.809 33.4619
    endloop
  endfacet
  facet normal -0.678313 -0.280038 0.679316
    outer loop
      vertex 148.462 -120 12.8087
      vertex 148.327 -119.673 12.8087
      vertex 148.191 -120 12.5381
    endloop
  endfacet
  facet normal -0.705542 0 -0.708668
    outer loop
      vertex 148.394 -163.809 33.259
      vertex 148.462 -120 33.1913
      vertex 148.462 -163.944 33.1913
    endloop
  endfacet
  facet normal -0.706933 -0 -0.707281
    outer loop
      vertex 148.191 -120 33.4619
      vertex 148.394 -163.809 33.259
      vertex 148.191 -163.907 33.4619
    endloop
  endfacet
  facet normal -0.706584 3.22456e-06 -0.707629
    outer loop
      vertex 148.394 -163.809 33.259
      vertex 148.191 -120 33.4619
      vertex 148.462 -120 33.1913
    endloop
  endfacet
  facet normal -0.280038 -0.678313 -0.679316
    outer loop
      vertex 148 -119.538 33.1913
      vertex 148.327 -119.673 33.1913
      vertex 148 -119.809 33.4619
    endloop
  endfacet
  facet normal -0.705542 0 0.708668
    outer loop
      vertex 148.462 -120 12.8087
      vertex 148.394 -163.809 12.741
      vertex 148.462 -163.944 12.8087
    endloop
  endfacet
  facet normal -0.706584 3.22456e-06 0.707629
    outer loop
      vertex 148.191 -120 12.5381
      vertex 148.394 -163.809 12.741
      vertex 148.462 -120 12.8087
    endloop
  endfacet
  facet normal -0.706933 0 0.707281
    outer loop
      vertex 148.394 -163.809 12.741
      vertex 148.191 -120 12.5381
      vertex 148.191 -163.907 12.5381
    endloop
  endfacet
  facet normal -0.924326 -0.381603 0
    outer loop
      vertex 148.462 -120 12.8087
      vertex 148.327 -119.673 33.1913
      vertex 148.327 -119.673 12.8087
    endloop
  endfacet
  facet normal -0.924326 -0.381603 0
    outer loop
      vertex 148.327 -119.673 33.1913
      vertex 148.462 -120 12.8087
      vertex 148.462 -120 33.1913
    endloop
  endfacet
  facet normal 0.894386 -0.447296 0
    outer loop
      vertex 67.5381 -163.944 33.1913
      vertex 66.6734 -165.673 34.1913
      vertex 67.5381 -163.944 12.8087
    endloop
  endfacet
  facet normal 0.894266 -0.447536 -0.000517642
    outer loop
      vertex 66.6734 -165.673 34.1913
      vertex 67.5381 -163.944 33.1913
      vertex 67.6057 -163.809 33.259
    endloop
  endfacet
  facet normal 0.894266 -0.447536 0.000517642
    outer loop
      vertex 67.5381 -163.944 12.8087
      vertex 66.6734 -165.673 11.8087
      vertex 67.6057 -163.809 12.741
    endloop
  endfacet
  facet normal 0.894386 -0.447296 0
    outer loop
      vertex 66.6734 -165.673 11.8087
      vertex 67.5381 -163.944 12.8087
      vertex 66.6734 -165.673 34.1913
    endloop
  endfacet
  facet normal -0.427401 -0.566073 -0.704904
    outer loop
      vertex 148.191 -163.907 33.4619
      vertex 149.327 -165.673 34.1913
      vertex 149.135 -165.865 34.4619
    endloop
  endfacet
  facet normal -0.429354 -0.566647 -0.703254
    outer loop
      vertex 149.327 -165.673 34.1913
      vertex 148.191 -163.907 33.4619
      vertex 148.394 -163.809 33.259
    endloop
  endfacet
  facet normal -0.424264 -0.565685 -0.707107
    outer loop
      vertex 148.191 -163.907 33.4619
      vertex 149.135 -165.865 34.4619
      vertex 148.135 -163.865 33.4619
    endloop
  endfacet
  facet normal 0 -0.447214 0.894427
    outer loop
      vertex 68 -163.809 12.5381
      vertex 149 -165.809 11.5381
      vertex 148 -163.809 12.5381
    endloop
  endfacet
  facet normal 0 -0.447214 0.894427
    outer loop
      vertex 149 -165.809 11.5381
      vertex 68 -163.809 12.5381
      vertex 67 -165.809 11.5381
    endloop
  endfacet
  facet normal -0.429354 -0.566647 0.703254
    outer loop
      vertex 148.191 -163.907 12.5381
      vertex 149.327 -165.673 11.8087
      vertex 148.394 -163.809 12.741
    endloop
  endfacet
  facet normal -0.427401 -0.566073 0.704904
    outer loop
      vertex 149.327 -165.673 11.8087
      vertex 148.191 -163.907 12.5381
      vertex 149.135 -165.865 11.5381
    endloop
  endfacet
  facet normal -0.424264 -0.565685 0.707107
    outer loop
      vertex 149.135 -165.865 11.5381
      vertex 148.191 -163.907 12.5381
      vertex 148.135 -163.865 12.5381
    endloop
  endfacet
  facet normal 0.678123 -0.281295 0.678986
    outer loop
      vertex 66.8087 -166 11.5381
      vertex 66.8647 -165.865 11.5381
      vertex 66.6734 -165.673 11.8087
    endloop
  endfacet
  facet normal 0.678657 -0.280802 -0.678657
    outer loop
      vertex 66.6734 -165.673 34.1913
      vertex 66.8087 -166 34.4619
      vertex 66.5381 -166 34.1913
    endloop
  endfacet
  facet normal -0.678313 -0.280038 -0.679316
    outer loop
      vertex 149.327 -165.673 34.1913
      vertex 149.462 -166 34.1913
      vertex 149.191 -166 34.4619
    endloop
  endfacet
  facet normal 0 -0.447214 -0.894427
    outer loop
      vertex 149 -165.809 34.4619
      vertex 68 -163.809 33.4619
      vertex 148 -163.809 33.4619
    endloop
  endfacet
  facet normal 0 -0.447214 -0.894427
    outer loop
      vertex 68 -163.809 33.4619
      vertex 149 -165.809 34.4619
      vertex 67 -165.809 34.4619
    endloop
  endfacet
  facet normal -0.678313 -0.280038 0.679316
    outer loop
      vertex 149.462 -166 11.8087
      vertex 149.327 -165.673 11.8087
      vertex 149.191 -166 11.5381
    endloop
  endfacet
  facet normal 0.215552 -0.520788 -0.826025
    outer loop
      vertex 67 -165.809 34.4619
      vertex 67.8647 -163.865 33.4619
      vertex 68 -163.809 33.4619
    endloop
  endfacet
  facet normal 0.215552 -0.520788 -0.826025
    outer loop
      vertex 67.8647 -163.865 33.4619
      vertex 67 -165.809 34.4619
      vertex 66.8647 -165.865 34.4619
    endloop
  endfacet
  facet normal -0.216094 -0.520941 -0.825787
    outer loop
      vertex 149 -165.809 34.4619
      vertex 148.135 -163.865 33.4619
      vertex 149.135 -165.865 34.4619
    endloop
  endfacet
  facet normal -0.216094 -0.520941 -0.825787
    outer loop
      vertex 148.135 -163.865 33.4619
      vertex 149 -165.809 34.4619
      vertex 148 -163.809 33.4619
    endloop
  endfacet
  facet normal -0.924326 -0.381603 0
    outer loop
      vertex 149.462 -166 11.8087
      vertex 149.327 -165.673 34.1913
      vertex 149.327 -165.673 11.8087
    endloop
  endfacet
  facet normal -0.924326 -0.381603 0
    outer loop
      vertex 149.327 -165.673 34.1913
      vertex 149.462 -166 11.8087
      vertex 149.462 -166 34.1913
    endloop
  endfacet
  facet normal -0.677316 -0.280961 0.67993
    outer loop
      vertex 149.191 -166 11.5381
      vertex 149.327 -165.673 11.8087
      vertex 149.135 -165.865 11.5381
    endloop
  endfacet
  facet normal 0.678657 -0.280802 0.678657
    outer loop
      vertex 66.8087 -166 11.5381
      vertex 66.6734 -165.673 11.8087
      vertex 66.5381 -166 11.8087
    endloop
  endfacet
  facet normal -0.677316 -0.280961 -0.67993
    outer loop
      vertex 149.327 -165.673 34.1913
      vertex 149.191 -166 34.4619
      vertex 149.135 -165.865 34.4619
    endloop
  endfacet
  facet normal 0.215552 -0.520788 0.826025
    outer loop
      vertex 67.8647 -163.865 12.5381
      vertex 67 -165.809 11.5381
      vertex 68 -163.809 12.5381
    endloop
  endfacet
  facet normal 0.215552 -0.520788 0.826025
    outer loop
      vertex 67 -165.809 11.5381
      vertex 67.8647 -163.865 12.5381
      vertex 66.8647 -165.865 11.5381
    endloop
  endfacet
  facet normal 0.424264 -0.565685 0.707107
    outer loop
      vertex 67.8087 -163.907 12.5381
      vertex 66.8647 -165.865 11.5381
      vertex 67.8647 -163.865 12.5381
    endloop
  endfacet
  facet normal 0.429436 -0.566544 0.703287
    outer loop
      vertex 66.6734 -165.673 11.8087
      vertex 67.8087 -163.907 12.5381
      vertex 67.6057 -163.809 12.741
    endloop
  endfacet
  facet normal 0.428139 -0.566163 0.704384
    outer loop
      vertex 67.8087 -163.907 12.5381
      vertex 66.6734 -165.673 11.8087
      vertex 66.8647 -165.865 11.5381
    endloop
  endfacet
  facet normal 0.678123 -0.281295 -0.678986
    outer loop
      vertex 66.8647 -165.865 34.4619
      vertex 66.8087 -166 34.4619
      vertex 66.6734 -165.673 34.1913
    endloop
  endfacet
  facet normal 0.924027 -0.382327 0
    outer loop
      vertex 66.5381 -166 34.1913
      vertex 66.6734 -165.673 11.8087
      vertex 66.6734 -165.673 34.1913
    endloop
  endfacet
  facet normal 0.924027 -0.382327 0
    outer loop
      vertex 66.6734 -165.673 11.8087
      vertex 66.5381 -166 34.1913
      vertex 66.5381 -166 11.8087
    endloop
  endfacet
  facet normal -0.216094 -0.520941 0.825787
    outer loop
      vertex 148.135 -163.865 12.5381
      vertex 149 -165.809 11.5381
      vertex 149.135 -165.865 11.5381
    endloop
  endfacet
  facet normal -0.216094 -0.520941 0.825787
    outer loop
      vertex 149 -165.809 11.5381
      vertex 148.135 -163.865 12.5381
      vertex 148 -163.809 12.5381
    endloop
  endfacet
  facet normal -0.894324 -0.44742 0
    outer loop
      vertex 148.462 -163.944 12.8087
      vertex 149.327 -165.673 11.8087
      vertex 148.462 -163.944 33.1913
    endloop
  endfacet
  facet normal -0.893665 -0.448725 0.0028258
    outer loop
      vertex 149.327 -165.673 11.8087
      vertex 148.462 -163.944 12.8087
      vertex 148.394 -163.809 12.741
    endloop
  endfacet
  facet normal -0.893665 -0.448725 -0.0028258
    outer loop
      vertex 148.462 -163.944 33.1913
      vertex 149.327 -165.673 34.1913
      vertex 148.394 -163.809 33.259
    endloop
  endfacet
  facet normal -0.894324 -0.44742 -0
    outer loop
      vertex 149.327 -165.673 34.1913
      vertex 148.462 -163.944 33.1913
      vertex 149.327 -165.673 11.8087
    endloop
  endfacet
  facet normal 0 0 1
    outer loop
      vertex 149 -165.809 11.5381
      vertex 149.191 -166 11.5381
      vertex 149.135 -165.865 11.5381
    endloop
  endfacet
  facet normal -0 0 1
    outer loop
      vertex 67 -165.809 11.5381
      vertex 149.191 -166 11.5381
      vertex 149 -165.809 11.5381
    endloop
  endfacet
  facet normal 0 0 1
    outer loop
      vertex 66.8087 -166 11.5381
      vertex 67 -165.809 11.5381
      vertex 66.8647 -165.865 11.5381
    endloop
  endfacet
  facet normal 0 0 1
    outer loop
      vertex 67 -165.809 11.5381
      vertex 66.8087 -166 11.5381
      vertex 149.191 -166 11.5381
    endloop
  endfacet
  facet normal 0.424264 -0.565685 -0.707107
    outer loop
      vertex 66.8647 -165.865 34.4619
      vertex 67.8087 -163.907 33.4619
      vertex 67.8647 -163.865 33.4619
    endloop
  endfacet
  facet normal 0.428139 -0.566163 -0.704384
    outer loop
      vertex 66.6734 -165.673 34.1913
      vertex 67.8087 -163.907 33.4619
      vertex 66.8647 -165.865 34.4619
    endloop
  endfacet
  facet normal 0.429436 -0.566544 -0.703287
    outer loop
      vertex 67.8087 -163.907 33.4619
      vertex 66.6734 -165.673 34.1913
      vertex 67.6057 -163.809 33.259
    endloop
  endfacet
  facet normal 0 0 -1
    outer loop
      vertex 149.191 -166 34.4619
      vertex 149 -165.809 34.4619
      vertex 149.135 -165.865 34.4619
    endloop
  endfacet
  facet normal 0 0 -1
    outer loop
      vertex 149.191 -166 34.4619
      vertex 67 -165.809 34.4619
      vertex 149 -165.809 34.4619
    endloop
  endfacet
  facet normal 0 0 -1
    outer loop
      vertex 66.8087 -166 34.4619
      vertex 67 -165.809 34.4619
      vertex 149.191 -166 34.4619
    endloop
  endfacet
  facet normal 0 0 -1
    outer loop
      vertex 67 -165.809 34.4619
      vertex 66.8087 -166 34.4619
      vertex 66.8647 -165.865 34.4619
    endloop
  endfacet
  facet normal 0 -1 0
    outer loop
      vertex 35 -119.538 -8.19134
      vertex 65 -119.538 33.1913
      vertex 35 -119.538 33.1913
    endloop
  endfacet
  facet normal 0 -1 -0
    outer loop
      vertex 65 -119.538 33.1913
      vertex 35 -119.538 -8.19134
      vertex 65 -119.538 -8.19134
    endloop
  endfacet
  facet normal 0.924027 -0.382327 0
    outer loop
      vertex 34.5381 -120 33.1913
      vertex 34.6734 -119.673 -8.19134
      vertex 34.6734 -119.673 33.1913
    endloop
  endfacet
  facet normal 0.924027 -0.382327 0
    outer loop
      vertex 34.6734 -119.673 -8.19134
      vertex 34.5381 -120 33.1913
      vertex 34.5381 -120 -8.19134
    endloop
  endfacet
  facet normal 0.678657 -0.280802 0.678657
    outer loop
      vertex 34.8087 -120 -8.46194
      vertex 34.6734 -119.673 -8.19134
      vertex 34.5381 -120 -8.19134
    endloop
  endfacet
  facet normal 0.280609 -0.677972 -0.679421
    outer loop
      vertex 35 -119.809 33.4619
      vertex 34.8647 -119.865 33.4619
      vertex 34.6734 -119.673 33.1913
    endloop
  endfacet
  facet normal 0 -0.706584 0.707629
    outer loop
      vertex 35 -119.809 -8.46194
      vertex 65 -119.538 -8.19134
      vertex 35 -119.538 -8.19134
    endloop
  endfacet
  facet normal 0 -0.706584 0.707629
    outer loop
      vertex 65 -119.538 -8.19134
      vertex 35 -119.809 -8.46194
      vertex 65 -119.809 -8.46194
    endloop
  endfacet
  facet normal 0.280354 -0.678248 -0.679251
    outer loop
      vertex 35 -119.538 33.1913
      vertex 35 -119.809 33.4619
      vertex 34.6734 -119.673 33.1913
    endloop
  endfacet
  facet normal -1 0 0
    outer loop
      vertex 65.4619 -163.944 -8.19134
      vertex 65.4619 -120 33.1913
      vertex 65.4619 -120 -8.19134
    endloop
  endfacet
  facet normal -1 -0 0
    outer loop
      vertex 65.4619 -120 33.1913
      vertex 65.4619 -163.944 -8.19134
      vertex 65.4619 -163.944 33.1913
    endloop
  endfacet
  facet normal 0.678657 -0.280802 -0.678657
    outer loop
      vertex 34.6734 -119.673 33.1913
      vertex 34.8087 -120 33.4619
      vertex 34.5381 -120 33.1913
    endloop
  endfacet
  facet normal 0.382002 -0.924162 0
    outer loop
      vertex 34.6734 -119.673 -8.19134
      vertex 35 -119.538 33.1913
      vertex 34.6734 -119.673 33.1913
    endloop
  endfacet
  facet normal 0.382002 -0.924162 0
    outer loop
      vertex 35 -119.538 33.1913
      vertex 34.6734 -119.673 -8.19134
      vertex 35 -119.538 -8.19134
    endloop
  endfacet
  facet normal -0.924027 -0.382327 0
    outer loop
      vertex 65.4619 -120 -8.19134
      vertex 65.3266 -119.673 33.1913
      vertex 65.3266 -119.673 -8.19134
    endloop
  endfacet
  facet normal -0.924027 -0.382327 0
    outer loop
      vertex 65.3266 -119.673 33.1913
      vertex 65.4619 -120 -8.19134
      vertex 65.4619 -120 33.1913
    endloop
  endfacet
  facet normal -0.707107 -8.07034e-07 0.707107
    outer loop
      vertex 65.1913 -120 -8.46194
      vertex 65.3943 -163.809 -8.25899
      vertex 65.4619 -120 -8.19134
    endloop
  endfacet
  facet normal -0.70702 0 0.707194
    outer loop
      vertex 65.3943 -163.809 -8.25899
      vertex 65.1913 -120 -8.46194
      vertex 65.1913 -163.907 -8.46194
    endloop
  endfacet
  facet normal -0.707368 0 0.706845
    outer loop
      vertex 65.4619 -120 -8.19134
      vertex 65.3943 -163.809 -8.25899
      vertex 65.4619 -163.944 -8.19134
    endloop
  endfacet
  facet normal -0.382002 -0.924162 0
    outer loop
      vertex 65 -119.538 -8.19134
      vertex 65.3266 -119.673 33.1913
      vertex 65 -119.538 33.1913
    endloop
  endfacet
  facet normal -0.382002 -0.924162 -0
    outer loop
      vertex 65.3266 -119.673 33.1913
      vertex 65 -119.538 -8.19134
      vertex 65.3266 -119.673 -8.19134
    endloop
  endfacet
  facet normal 0 0 1
    outer loop
      vertex 65 -119.809 -8.46194
      vertex 65.1913 -120 -8.46194
      vertex 65.1353 -119.865 -8.46194
    endloop
  endfacet
  facet normal 0 0 1
    outer loop
      vertex 65.1913 -120 -8.46194
      vertex 65.1353 -163.865 -8.46194
      vertex 65.1913 -163.907 -8.46194
    endloop
  endfacet
  facet normal 0 0 1
    outer loop
      vertex 34.8087 -120 -8.46194
      vertex 65.1913 -120 -8.46194
      vertex 65 -119.809 -8.46194
    endloop
  endfacet
  facet normal 0 0 1
    outer loop
      vertex 65.1913 -120 -8.46194
      vertex 65 -163.809 -8.46194
      vertex 65.1353 -163.865 -8.46194
    endloop
  endfacet
  facet normal 0 0 1
    outer loop
      vertex 34.8087 -120 -8.46194
      vertex 65 -119.809 -8.46194
      vertex 35 -119.809 -8.46194
    endloop
  endfacet
  facet normal 0 0 1
    outer loop
      vertex 65.1913 -120 -8.46194
      vertex 34.8087 -120 -8.46194
      vertex 65 -163.809 -8.46194
    endloop
  endfacet
  facet normal 0 0 1
    outer loop
      vertex 34.8087 -120 -8.46194
      vertex 35 -119.809 -8.46194
      vertex 34.8647 -119.865 -8.46194
    endloop
  endfacet
  facet normal 0 0 1
    outer loop
      vertex 65 -163.809 -8.46194
      vertex 34.8087 -120 -8.46194
      vertex 35 -163.809 -8.46194
    endloop
  endfacet
  facet normal 0 0 1
    outer loop
      vertex 35 -163.809 -8.46194
      vertex 34.8087 -120 -8.46194
      vertex 34.8647 -163.865 -8.46194
    endloop
  endfacet
  facet normal 0 0 1
    outer loop
      vertex 34.8647 -163.865 -8.46194
      vertex 34.8087 -120 -8.46194
      vertex 34.8087 -163.907 -8.46194
    endloop
  endfacet
  facet normal 0.707107 -1.61407e-06 -0.707107
    outer loop
      vertex 34.8087 -120 33.4619
      vertex 34.6057 -163.809 33.259
      vertex 34.5381 -120 33.1913
    endloop
  endfacet
  facet normal 0.706933 0 -0.707281
    outer loop
      vertex 34.6057 -163.809 33.259
      vertex 34.8087 -120 33.4619
      vertex 34.8087 -163.907 33.4619
    endloop
  endfacet
  facet normal 0.707629 0 -0.706584
    outer loop
      vertex 34.5381 -120 33.1913
      vertex 34.6057 -163.809 33.259
      vertex 34.5381 -163.944 33.1913
    endloop
  endfacet
  facet normal 0.678123 -0.281295 -0.678986
    outer loop
      vertex 34.8647 -119.865 33.4619
      vertex 34.8087 -120 33.4619
      vertex 34.6734 -119.673 33.1913
    endloop
  endfacet
  facet normal 1 -0 0
    outer loop
      vertex 34.5381 -163.944 33.1913
      vertex 34.5381 -120 -8.19134
      vertex 34.5381 -120 33.1913
    endloop
  endfacet
  facet normal 1 0 0
    outer loop
      vertex 34.5381 -120 -8.19134
      vertex 34.5381 -163.944 33.1913
      vertex 34.5381 -163.944 -8.19134
    endloop
  endfacet
  facet normal -0.280354 -0.678248 0.679251
    outer loop
      vertex 65.3266 -119.673 -8.19134
      vertex 65 -119.538 -8.19134
      vertex 65 -119.809 -8.46194
    endloop
  endfacet
  facet normal -0.678657 -0.280802 -0.678657
    outer loop
      vertex 65.3266 -119.673 33.1913
      vertex 65.4619 -120 33.1913
      vertex 65.1913 -120 33.4619
    endloop
  endfacet
  facet normal -0.280354 -0.678248 -0.679251
    outer loop
      vertex 65 -119.538 33.1913
      vertex 65.3266 -119.673 33.1913
      vertex 65 -119.809 33.4619
    endloop
  endfacet
  facet normal -0.707107 -1.61407e-06 -0.707107
    outer loop
      vertex 65.4619 -120 33.1913
      vertex 65.3943 -163.809 33.259
      vertex 65.1913 -120 33.4619
    endloop
  endfacet
  facet normal -0.707629 0 -0.706584
    outer loop
      vertex 65.3943 -163.809 33.259
      vertex 65.4619 -120 33.1913
      vertex 65.4619 -163.944 33.1913
    endloop
  endfacet
  facet normal -0.706933 -0 -0.707281
    outer loop
      vertex 65.1913 -120 33.4619
      vertex 65.3943 -163.809 33.259
      vertex 65.1913 -163.907 33.4619
    endloop
  endfacet
  facet normal -0.280609 -0.677972 0.679421
    outer loop
      vertex 65.1353 -119.865 -8.46194
      vertex 65.3266 -119.673 -8.19134
      vertex 65 -119.809 -8.46194
    endloop
  endfacet
  facet normal -0.678123 -0.281295 -0.678986
    outer loop
      vertex 65.3266 -119.673 33.1913
      vertex 65.1913 -120 33.4619
      vertex 65.1353 -119.865 33.4619
    endloop
  endfacet
  facet normal 0.678123 -0.281295 0.678986
    outer loop
      vertex 34.8087 -120 -8.46194
      vertex 34.8647 -119.865 -8.46194
      vertex 34.6734 -119.673 -8.19134
    endloop
  endfacet
  facet normal 0 0 -1
    outer loop
      vertex 65.1353 -163.865 33.4619
      vertex 65.1913 -120 33.4619
      vertex 65.1913 -163.907 33.4619
    endloop
  endfacet
  facet normal 0 0 -1
    outer loop
      vertex 65 -163.809 33.4619
      vertex 65.1913 -120 33.4619
      vertex 65.1353 -163.865 33.4619
    endloop
  endfacet
  facet normal 0 0 -1
    outer loop
      vertex 35 -163.809 33.4619
      vertex 65.1913 -120 33.4619
      vertex 65 -163.809 33.4619
    endloop
  endfacet
  facet normal 0 0 -1
    outer loop
      vertex 65.1913 -120 33.4619
      vertex 65 -119.809 33.4619
      vertex 65.1353 -119.865 33.4619
    endloop
  endfacet
  facet normal 0 0 -1
    outer loop
      vertex 34.8087 -120 33.4619
      vertex 65.1913 -120 33.4619
      vertex 35 -163.809 33.4619
    endloop
  endfacet
  facet normal 0 0 -1
    outer loop
      vertex 65.1913 -120 33.4619
      vertex 34.8087 -120 33.4619
      vertex 65 -119.809 33.4619
    endloop
  endfacet
  facet normal 0 0 -1
    outer loop
      vertex 34.8087 -120 33.4619
      vertex 35 -163.809 33.4619
      vertex 34.8647 -163.865 33.4619
    endloop
  endfacet
  facet normal -0 0 -1
    outer loop
      vertex 65 -119.809 33.4619
      vertex 34.8087 -120 33.4619
      vertex 35 -119.809 33.4619
    endloop
  endfacet
  facet normal 0 0 -1
    outer loop
      vertex 34.8087 -120 33.4619
      vertex 34.8647 -163.865 33.4619
      vertex 34.8087 -163.907 33.4619
    endloop
  endfacet
  facet normal 0 0 -1
    outer loop
      vertex 35 -119.809 33.4619
      vertex 34.8087 -120 33.4619
      vertex 34.8647 -119.865 33.4619
    endloop
  endfacet
  facet normal 0.280609 -0.677972 0.679421
    outer loop
      vertex 34.8647 -119.865 -8.46194
      vertex 35 -119.809 -8.46194
      vertex 34.6734 -119.673 -8.19134
    endloop
  endfacet
  facet normal -0.678123 -0.281295 0.678986
    outer loop
      vertex 65.1913 -120 -8.46194
      vertex 65.3266 -119.673 -8.19134
      vertex 65.1353 -119.865 -8.46194
    endloop
  endfacet
  facet normal -0.678657 -0.280802 0.678657
    outer loop
      vertex 65.4619 -120 -8.19134
      vertex 65.3266 -119.673 -8.19134
      vertex 65.1913 -120 -8.46194
    endloop
  endfacet
  facet normal 0 -0.706584 -0.707629
    outer loop
      vertex 35 -119.538 33.1913
      vertex 65 -119.809 33.4619
      vertex 35 -119.809 33.4619
    endloop
  endfacet
  facet normal 0 -0.706584 -0.707629
    outer loop
      vertex 65 -119.809 33.4619
      vertex 35 -119.538 33.1913
      vertex 65 -119.538 33.1913
    endloop
  endfacet
  facet normal -0.280609 -0.677972 -0.679421
    outer loop
      vertex 65.3266 -119.673 33.1913
      vertex 65.1353 -119.865 33.4619
      vertex 65 -119.809 33.4619
    endloop
  endfacet
  facet normal 0.707107 -8.07034e-07 0.707107
    outer loop
      vertex 34.5381 -120 -8.19134
      vertex 34.6057 -163.809 -8.25899
      vertex 34.8087 -120 -8.46194
    endloop
  endfacet
  facet normal 0.707368 0 0.706845
    outer loop
      vertex 34.6057 -163.809 -8.25899
      vertex 34.5381 -120 -8.19134
      vertex 34.5381 -163.944 -8.19134
    endloop
  endfacet
  facet normal 0.70702 0 0.707194
    outer loop
      vertex 34.8087 -120 -8.46194
      vertex 34.6057 -163.809 -8.25899
      vertex 34.8087 -163.907 -8.46194
    endloop
  endfacet
  facet normal 0.280354 -0.678248 0.679251
    outer loop
      vertex 35 -119.809 -8.46194
      vertex 35 -119.538 -8.19134
      vertex 34.6734 -119.673 -8.19134
    endloop
  endfacet
  facet normal 0.678657 -0.280802 0.678657
    outer loop
      vertex 33.8087 -166 -9.46194
      vertex 33.6734 -165.673 -9.19134
      vertex 33.5381 -166 -9.19134
    endloop
  endfacet
  facet normal -0.894386 -0.447296 0
    outer loop
      vertex 65.4619 -163.944 -8.19134
      vertex 66.3266 -165.673 -9.19134
      vertex 65.4619 -163.944 33.1913
    endloop
  endfacet
  facet normal -0.894266 -0.447536 0.00051782
    outer loop
      vertex 66.3266 -165.673 -9.19134
      vertex 65.4619 -163.944 -8.19134
      vertex 65.3943 -163.809 -8.25899
    endloop
  endfacet
  facet normal -0.894266 -0.447536 -0.000517642
    outer loop
      vertex 65.4619 -163.944 33.1913
      vertex 66.3266 -165.673 34.1913
      vertex 65.3943 -163.809 33.259
    endloop
  endfacet
  facet normal -0.894386 -0.447296 -0
    outer loop
      vertex 66.3266 -165.673 34.1913
      vertex 65.4619 -163.944 33.1913
      vertex 66.3266 -165.673 -9.19134
    endloop
  endfacet
  facet normal 0.678657 -0.280802 -0.678657
    outer loop
      vertex 33.6734 -165.673 34.1913
      vertex 33.8087 -166 34.4619
      vertex 33.5381 -166 34.1913
    endloop
  endfacet
  facet normal -0.678123 -0.281295 0.678986
    outer loop
      vertex 66.1913 -166 -9.46194
      vertex 66.3266 -165.673 -9.19134
      vertex 66.1353 -165.865 -9.46194
    endloop
  endfacet
  facet normal 0.924027 -0.382327 0
    outer loop
      vertex 33.5381 -166 34.1913
      vertex 33.6734 -165.673 -9.19134
      vertex 33.6734 -165.673 34.1913
    endloop
  endfacet
  facet normal 0.924027 -0.382327 0
    outer loop
      vertex 33.6734 -165.673 -9.19134
      vertex 33.5381 -166 34.1913
      vertex 33.5381 -166 -9.19134
    endloop
  endfacet
  facet normal 0 -0.447214 -0.894427
    outer loop
      vertex 66 -165.809 34.4619
      vertex 35 -163.809 33.4619
      vertex 65 -163.809 33.4619
    endloop
  endfacet
  facet normal 0 -0.447214 -0.894427
    outer loop
      vertex 35 -163.809 33.4619
      vertex 66 -165.809 34.4619
      vertex 34 -165.809 34.4619
    endloop
  endfacet
  facet normal 0.678123 -0.281295 0.678986
    outer loop
      vertex 33.8087 -166 -9.46194
      vertex 33.8647 -165.865 -9.46194
      vertex 33.6734 -165.673 -9.19134
    endloop
  endfacet
  facet normal 0.894386 -0.447296 0
    outer loop
      vertex 34.5381 -163.944 33.1913
      vertex 33.6734 -165.673 34.1913
      vertex 34.5381 -163.944 -8.19134
    endloop
  endfacet
  facet normal 0.894266 -0.447536 -0.000517642
    outer loop
      vertex 33.6734 -165.673 34.1913
      vertex 34.5381 -163.944 33.1913
      vertex 34.6057 -163.809 33.259
    endloop
  endfacet
  facet normal 0.894266 -0.447536 0.00051782
    outer loop
      vertex 34.5381 -163.944 -8.19134
      vertex 33.6734 -165.673 -9.19134
      vertex 34.6057 -163.809 -8.25899
    endloop
  endfacet
  facet normal 0.894386 -0.447296 0
    outer loop
      vertex 33.6734 -165.673 -9.19134
      vertex 34.5381 -163.944 -8.19134
      vertex 33.6734 -165.673 34.1913
    endloop
  endfacet
  facet normal -0.924027 -0.382327 0
    outer loop
      vertex 66.4619 -166 -9.19134
      vertex 66.3266 -165.673 34.1913
      vertex 66.3266 -165.673 -9.19134
    endloop
  endfacet
  facet normal -0.924027 -0.382327 0
    outer loop
      vertex 66.3266 -165.673 34.1913
      vertex 66.4619 -166 -9.19134
      vertex 66.4619 -166 34.1913
    endloop
  endfacet
  facet normal -0.215552 -0.520788 -0.826025
    outer loop
      vertex 66 -165.809 34.4619
      vertex 65.1353 -163.865 33.4619
      vertex 66.1353 -165.865 34.4619
    endloop
  endfacet
  facet normal -0.215552 -0.520788 -0.826025
    outer loop
      vertex 65.1353 -163.865 33.4619
      vertex 66 -165.809 34.4619
      vertex 65 -163.809 33.4619
    endloop
  endfacet
  facet normal 0.424264 -0.565685 0.707107
    outer loop
      vertex 34.8087 -163.907 -8.46194
      vertex 33.8647 -165.865 -9.46194
      vertex 34.8647 -163.865 -8.46194
    endloop
  endfacet
  facet normal 0.429524 -0.566569 0.703213
    outer loop
      vertex 33.6734 -165.673 -9.19134
      vertex 34.8087 -163.907 -8.46194
      vertex 34.6057 -163.809 -8.25899
    endloop
  endfacet
  facet normal 0.428139 -0.566163 0.704384
    outer loop
      vertex 34.8087 -163.907 -8.46194
      vertex 33.6734 -165.673 -9.19134
      vertex 33.8647 -165.865 -9.46194
    endloop
  endfacet
  facet normal -0.678657 -0.280802 0.678657
    outer loop
      vertex 66.4619 -166 -9.19134
      vertex 66.3266 -165.673 -9.19134
      vertex 66.1913 -166 -9.46194
    endloop
  endfacet
  facet normal -0.215552 -0.520788 0.826025
    outer loop
      vertex 65.1353 -163.865 -8.46194
      vertex 66 -165.809 -9.46194
      vertex 66.1353 -165.865 -9.46194
    endloop
  endfacet
  facet normal -0.215552 -0.520788 0.826025
    outer loop
      vertex 66 -165.809 -9.46194
      vertex 65.1353 -163.865 -8.46194
      vertex 65 -163.809 -8.46194
    endloop
  endfacet
  facet normal -0.429524 -0.566569 0.703213
    outer loop
      vertex 65.1913 -163.907 -8.46194
      vertex 66.3266 -165.673 -9.19134
      vertex 65.3943 -163.809 -8.25899
    endloop
  endfacet
  facet normal -0.428139 -0.566163 0.704384
    outer loop
      vertex 66.3266 -165.673 -9.19134
      vertex 65.1913 -163.907 -8.46194
      vertex 66.1353 -165.865 -9.46194
    endloop
  endfacet
  facet normal -0.424264 -0.565685 0.707107
    outer loop
      vertex 66.1353 -165.865 -9.46194
      vertex 65.1913 -163.907 -8.46194
      vertex 65.1353 -163.865 -8.46194
    endloop
  endfacet
  facet normal -0.428139 -0.566163 -0.704384
    outer loop
      vertex 65.1913 -163.907 33.4619
      vertex 66.3266 -165.673 34.1913
      vertex 66.1353 -165.865 34.4619
    endloop
  endfacet
  facet normal -0.429436 -0.566544 -0.703287
    outer loop
      vertex 66.3266 -165.673 34.1913
      vertex 65.1913 -163.907 33.4619
      vertex 65.3943 -163.809 33.259
    endloop
  endfacet
  facet normal -0.424264 -0.565685 -0.707107
    outer loop
      vertex 65.1913 -163.907 33.4619
      vertex 66.1353 -165.865 34.4619
      vertex 65.1353 -163.865 33.4619
    endloop
  endfacet
  facet normal 0 -0.447214 0.894427
    outer loop
      vertex 35 -163.809 -8.46194
      vertex 66 -165.809 -9.46194
      vertex 65 -163.809 -8.46194
    endloop
  endfacet
  facet normal 0 -0.447214 0.894427
    outer loop
      vertex 66 -165.809 -9.46194
      vertex 35 -163.809 -8.46194
      vertex 34 -165.809 -9.46194
    endloop
  endfacet
  facet normal 0 0 1
    outer loop
      vertex 66 -165.809 -9.46194
      vertex 66.1913 -166 -9.46194
      vertex 66.1353 -165.865 -9.46194
    endloop
  endfacet
  facet normal -0 0 1
    outer loop
      vertex 34 -165.809 -9.46194
      vertex 66.1913 -166 -9.46194
      vertex 66 -165.809 -9.46194
    endloop
  endfacet
  facet normal 0 0 1
    outer loop
      vertex 33.8087 -166 -9.46194
      vertex 34 -165.809 -9.46194
      vertex 33.8647 -165.865 -9.46194
    endloop
  endfacet
  facet normal 0 0 1
    outer loop
      vertex 34 -165.809 -9.46194
      vertex 33.8087 -166 -9.46194
      vertex 66.1913 -166 -9.46194
    endloop
  endfacet
  facet normal -0.678657 -0.280802 -0.678657
    outer loop
      vertex 66.3266 -165.673 34.1913
      vertex 66.4619 -166 34.1913
      vertex 66.1913 -166 34.4619
    endloop
  endfacet
  facet normal -0.678123 -0.281295 -0.678986
    outer loop
      vertex 66.3266 -165.673 34.1913
      vertex 66.1913 -166 34.4619
      vertex 66.1353 -165.865 34.4619
    endloop
  endfacet
  facet normal 0.215552 -0.520788 -0.826025
    outer loop
      vertex 34 -165.809 34.4619
      vertex 34.8647 -163.865 33.4619
      vertex 35 -163.809 33.4619
    endloop
  endfacet
  facet normal 0.215552 -0.520788 -0.826025
    outer loop
      vertex 34.8647 -163.865 33.4619
      vertex 34 -165.809 34.4619
      vertex 33.8647 -165.865 34.4619
    endloop
  endfacet
  facet normal 0 0 -1
    outer loop
      vertex 66.1913 -166 34.4619
      vertex 66 -165.809 34.4619
      vertex 66.1353 -165.865 34.4619
    endloop
  endfacet
  facet normal 0 0 -1
    outer loop
      vertex 66.1913 -166 34.4619
      vertex 34 -165.809 34.4619
      vertex 66 -165.809 34.4619
    endloop
  endfacet
  facet normal 0 0 -1
    outer loop
      vertex 33.8087 -166 34.4619
      vertex 34 -165.809 34.4619
      vertex 66.1913 -166 34.4619
    endloop
  endfacet
  facet normal 0 0 -1
    outer loop
      vertex 34 -165.809 34.4619
      vertex 33.8087 -166 34.4619
      vertex 33.8647 -165.865 34.4619
    endloop
  endfacet
  facet normal 0.215552 -0.520788 0.826025
    outer loop
      vertex 34.8647 -163.865 -8.46194
      vertex 34 -165.809 -9.46194
      vertex 35 -163.809 -8.46194
    endloop
  endfacet
  facet normal 0.215552 -0.520788 0.826025
    outer loop
      vertex 34 -165.809 -9.46194
      vertex 34.8647 -163.865 -8.46194
      vertex 33.8647 -165.865 -9.46194
    endloop
  endfacet
  facet normal 0.424264 -0.565685 -0.707107
    outer loop
      vertex 33.8647 -165.865 34.4619
      vertex 34.8087 -163.907 33.4619
      vertex 34.8647 -163.865 33.4619
    endloop
  endfacet
  facet normal 0.428139 -0.566163 -0.704384
    outer loop
      vertex 33.6734 -165.673 34.1913
      vertex 34.8087 -163.907 33.4619
      vertex 33.8647 -165.865 34.4619
    endloop
  endfacet
  facet normal 0.429436 -0.566544 -0.703287
    outer loop
      vertex 34.8087 -163.907 33.4619
      vertex 33.6734 -165.673 34.1913
      vertex 34.6057 -163.809 33.259
    endloop
  endfacet
  facet normal 0.678123 -0.281295 -0.678986
    outer loop
      vertex 33.8647 -165.865 34.4619
      vertex 33.8087 -166 34.4619
      vertex 33.6734 -165.673 34.1913
    endloop
  endfacet
  facet normal 1 -0 0
    outer loop
      vertex 150 -166 35
      vertex 150 -118 -10
      vertex 150 -118 35
    endloop
  endfacet
  facet normal 1 0 0
    outer loop
      vertex 150 -118 -10
      vertex 150 -166 35
      vertex 150 -166 -10
    endloop
  endfacet
  facet normal -0 0 1
    outer loop
      vertex 32 -118 35
      vertex 150 -166 35
      vertex 150 -118 35
    endloop
  endfacet
  facet normal 0 0 1
    outer loop
      vertex 150 -166 35
      vertex 32 -118 35
      vertex 32 -166 35
    endloop
  endfacet
  facet normal 0 0 -1
    outer loop
      vertex 32 -166 -10
      vertex 150 -118 -10
      vertex 150 -166 -10
    endloop
  endfacet
  facet normal -0 0 -1
    outer loop
      vertex 150 -118 -10
      vertex 32 -166 -10
      vertex 32 -118 -10
    endloop
  endfacet
  facet normal -1 0 0
    outer loop
      vertex 32 -166 -10
      vertex 32 -118 35
      vertex 32 -118 -10
    endloop
  endfacet
  facet normal -1 -0 0
    outer loop
      vertex 32 -118 35
      vertex 32 -166 -10
      vertex 32 -166 35
    endloop
  endfacet
  facet normal 0 1 -0
    outer loop
      vertex 150 -118 -10
      vertex 32 -118 35
      vertex 150 -118 35
    endloop
  endfacet
  facet normal 0 1 0
    outer loop
      vertex 32 -118 35
      vertex 150 -118 -10
      vertex 32 -118 -10
    endloop
  endfacet
  facet normal 0 -1 0
    outer loop
      vertex 66.4619 -166 34.1913
      vertex 66.8087 -166 34.4619
      vertex 66.1913 -166 34.4619
    endloop
  endfacet
  facet normal 0 -1 0
    outer loop
      vertex 66.4619 -166 34.1913
      vertex 66.5381 -166 34.1913
      vertex 66.8087 -166 34.4619
    endloop
  endfacet
  facet normal 0 -1 0
    outer loop
      vertex 66.4619 -166 34.1913
      vertex 66.5381 -166 11.8087
      vertex 66.5381 -166 34.1913
    endloop
  endfacet
  facet normal 0 -1 0
    outer loop
      vertex 66.8087 -166 11.5381
      vertex 66.8087 -166 11.4619
      vertex 149.191 -166 11.5381
    endloop
  endfacet
  facet normal 0 -1 0
    outer loop
      vertex 66.5381 -166 11.8087
      vertex 66.8087 -166 11.4619
      vertex 66.8087 -166 11.5381
    endloop
  endfacet
  facet normal 0 -1 0
    outer loop
      vertex 66.5381 -166 11.8087
      vertex 66.5381 -166 11.1913
      vertex 66.8087 -166 11.4619
    endloop
  endfacet
  facet normal 0 -1 0
    outer loop
      vertex 66.4619 -166 34.1913
      vertex 66.5381 -166 11.1913
      vertex 66.5381 -166 11.8087
    endloop
  endfacet
  facet normal 0 -1 0
    outer loop
      vertex 66.4619 -166 -9.19134
      vertex 66.5381 -166 11.1913
      vertex 66.4619 -166 34.1913
    endloop
  endfacet
  facet normal 0 -1 0
    outer loop
      vertex 66.4619 -166 -9.19134
      vertex 66.5381 -166 -9.19134
      vertex 66.5381 -166 11.1913
    endloop
  endfacet
  facet normal 0 -1 0
    outer loop
      vertex 66.1913 -166 -9.46194
      vertex 66.5381 -166 -9.19134
      vertex 66.4619 -166 -9.19134
    endloop
  endfacet
  facet normal 0 -1 -0
    outer loop
      vertex 66.5381 -166 -9.19134
      vertex 66.1913 -166 -9.46194
      vertex 66.8087 -166 -9.46194
    endloop
  endfacet
  facet normal 0 -1 0
    outer loop
      vertex 66.1913 -166 34.4619
      vertex 32 -166 35
      vertex 33.8087 -166 34.4619
    endloop
  endfacet
  facet normal 0 -1 0
    outer loop
      vertex 32 -166 35
      vertex 33.5381 -166 34.1913
      vertex 33.8087 -166 34.4619
    endloop
  endfacet
  facet normal 0 -1 0
    outer loop
      vertex 32 -166 35
      vertex 33.5381 -166 -9.19134
      vertex 33.5381 -166 34.1913
    endloop
  endfacet
  facet normal 0 -1 0
    outer loop
      vertex 32 -166 -10
      vertex 66.1913 -166 -9.46194
      vertex 33.8087 -166 -9.46194
    endloop
  endfacet
  facet normal 0 -1 -0
    outer loop
      vertex 66.1913 -166 -9.46194
      vertex 32 -166 -10
      vertex 66.8087 -166 -9.46194
    endloop
  endfacet
  facet normal 0 -1 -0
    outer loop
      vertex 66.8087 -166 -9.46194
      vertex 32 -166 -10
      vertex 150 -166 -10
    endloop
  endfacet
  facet normal 0 -1 -0
    outer loop
      vertex 33.5381 -166 -9.19134
      vertex 32 -166 -10
      vertex 33.8087 -166 -9.46194
    endloop
  endfacet
  facet normal 0 -1 0
    outer loop
      vertex 32 -166 -10
      vertex 33.5381 -166 -9.19134
      vertex 32 -166 35
    endloop
  endfacet
  facet normal 0 -1 0
    outer loop
      vertex 32 -166 35
      vertex 66.1913 -166 34.4619
      vertex 150 -166 35
    endloop
  endfacet
  facet normal 0 -1 0
    outer loop
      vertex 66.8087 -166 34.4619
      vertex 150 -166 35
      vertex 66.1913 -166 34.4619
    endloop
  endfacet
  facet normal 0 -1 0
    outer loop
      vertex 149.191 -166 34.4619
      vertex 150 -166 35
      vertex 66.8087 -166 34.4619
    endloop
  endfacet
  facet normal 0 -1 0
    outer loop
      vertex 149.462 -166 34.1913
      vertex 150 -166 35
      vertex 149.191 -166 34.4619
    endloop
  endfacet
  facet normal 0 -1 0
    outer loop
      vertex 149.462 -166 11.8087
      vertex 150 -166 35
      vertex 149.462 -166 34.1913
    endloop
  endfacet
  facet normal 0 -1 0
    outer loop
      vertex 149.191 -166 11.4619
      vertex 149.191 -166 11.5381
      vertex 66.8087 -166 11.4619
    endloop
  endfacet
  facet normal 0 -1 0
    outer loop
      vertex 149.191 -166 11.4619
      vertex 149.462 -166 11.8087
      vertex 149.191 -166 11.5381
    endloop
  endfacet
  facet normal 0 -1 0
    outer loop
      vertex 149.462 -166 11.1913
      vertex 149.462 -166 11.8087
      vertex 149.191 -166 11.4619
    endloop
  endfacet
  facet normal 0 -1 0
    outer loop
      vertex 149.462 -166 11.1913
      vertex 150 -166 35
      vertex 149.462 -166 11.8087
    endloop
  endfacet
  facet normal 0 -1 0
    outer loop
      vertex 150 -166 -10
      vertex 149.462 -166 11.1913
      vertex 149.462 -166 -9.19134
    endloop
  endfacet
  facet normal 0 -1 0
    outer loop
      vertex 149.462 -166 11.1913
      vertex 150 -166 -10
      vertex 150 -166 35
    endloop
  endfacet
  facet normal 0 -1 0
    outer loop
      vertex 149.191 -166 -9.46194
      vertex 150 -166 -10
      vertex 149.462 -166 -9.19134
    endloop
  endfacet
  facet normal 0 -1 0
    outer loop
      vertex 66.8087 -166 -9.46194
      vertex 150 -166 -10
      vertex 149.191 -166 -9.46194
    endloop
  endfacet
endsolid OpenSCAD_Model
