solid OpenSCAD_Model
  facet normal 0 0 -1
    outer loop
      vertex 35 -99 -8
      vertex 65 -53.5 -8
      vertex 65 -99 -8
    endloop
  endfacet
  facet normal -0 0 -1
    outer loop
      vertex 65 -53.5 -8
      vertex 35 -99 -8
      vertex 35 -53.5 -8
    endloop
  endfacet
  facet normal 1 0 0
    outer loop
      vertex 65 -53.5 33
      vertex 65 -55.0761 30.5
      vertex 65 -53.5 -8
    endloop
  endfacet
  facet normal 1 0 0
    outer loop
      vertex 65 -53.5 33
      vertex 65 -55.3467 31.1533
      vertex 65 -55.0761 30.5
    endloop
  endfacet
  facet normal 1 0 0
    outer loop
      vertex 65 -53.5 33
      vertex 65 -56 31.4239
      vertex 65 -55.3467 31.1533
    endloop
  endfacet
  facet normal 1 0 0
    outer loop
      vertex 65 -53.5 33
      vertex 65 -96.5 31.4239
      vertex 65 -56 31.4239
    endloop
  endfacet
  facet normal 1 0 0
    outer loop
      vertex 65 -97.4239 30.5
      vertex 65 -99 33
      vertex 65 -97.4239 -5.5
    endloop
  endfacet
  facet normal 1 0 0
    outer loop
      vertex 65 -97.1533 31.1533
      vertex 65 -99 33
      vertex 65 -97.4239 30.5
    endloop
  endfacet
  facet normal 1 0 0
    outer loop
      vertex 65 -96.5 31.4239
      vertex 65 -99 33
      vertex 65 -97.1533 31.1533
    endloop
  endfacet
  facet normal 1 -0 0
    outer loop
      vertex 65 -99 33
      vertex 65 -96.5 31.4239
      vertex 65 -53.5 33
    endloop
  endfacet
  facet normal 1 -0 0
    outer loop
      vertex 65 -55.0761 -5.5
      vertex 65 -53.5 -8
      vertex 65 -55.0761 30.5
    endloop
  endfacet
  facet normal 1 -0 0
    outer loop
      vertex 65 -55.3467 -6.15328
      vertex 65 -53.5 -8
      vertex 65 -55.0761 -5.5
    endloop
  endfacet
  facet normal 1 -0 0
    outer loop
      vertex 65 -56 -6.42388
      vertex 65 -53.5 -8
      vertex 65 -55.3467 -6.15328
    endloop
  endfacet
  facet normal 1 -0 0
    outer loop
      vertex 65 -96.5 -6.42388
      vertex 65 -53.5 -8
      vertex 65 -56 -6.42388
    endloop
  endfacet
  facet normal 1 0 0
    outer loop
      vertex 65 -96.5 -6.42388
      vertex 65 -99 -8
      vertex 65 -53.5 -8
    endloop
  endfacet
  facet normal 1 0 0
    outer loop
      vertex 65 -97.1533 -6.15328
      vertex 65 -99 -8
      vertex 65 -96.5 -6.42388
    endloop
  endfacet
  facet normal 1 0 0
    outer loop
      vertex 65 -97.4239 -5.5
      vertex 65 -99 -8
      vertex 65 -97.1533 -6.15328
    endloop
  endfacet
  facet normal 1 0 0
    outer loop
      vertex 65 -99 -8
      vertex 65 -97.4239 -5.5
      vertex 65 -99 33
    endloop
  endfacet
  facet normal -1 0 0
    outer loop
      vertex 35 -99 -8
      vertex 35 -53.5 33
      vertex 35 -53.5 -8
    endloop
  endfacet
  facet normal -1 -0 0
    outer loop
      vertex 35 -53.5 33
      vertex 35 -99 -8
      vertex 35 -99 33
    endloop
  endfacet
  facet normal -0 0 1
    outer loop
      vertex 35 -53.5 33
      vertex 65 -99 33
      vertex 65 -53.5 33
    endloop
  endfacet
  facet normal 0 0 1
    outer loop
      vertex 65 -99 33
      vertex 35 -53.5 33
      vertex 35 -99 33
    endloop
  endfacet
  facet normal 0 1 -0
    outer loop
      vertex 65 -53.5 -8
      vertex 35 -53.5 33
      vertex 65 -53.5 33
    endloop
  endfacet
  facet normal 0 1 0
    outer loop
      vertex 35 -53.5 33
      vertex 65 -53.5 -8
      vertex 35 -53.5 -8
    endloop
  endfacet
  facet normal 0 -1 0
    outer loop
      vertex 35 -99 -8
      vertex 65 -99 33
      vertex 35 -99 33
    endloop
  endfacet
  facet normal 0 -1 -0
    outer loop
      vertex 65 -99 33
      vertex 35 -99 -8
      vertex 65 -99 -8
    endloop
  endfacet
  facet normal 0.678595 0.281073 0.678607
    outer loop
      vertex 37.1173 -97.1533 -6.15328
      vertex 36.5761 -96.5 -5.88268
      vertex 36.5761 -96.7706 -5.7706
    endloop
  endfacet
  facet normal 0.678598 0.678598 0.281087
    outer loop
      vertex 37.1173 -97.1533 -6.15328
      vertex 36.5761 -96.8827 -5.5
      vertex 37.1173 -97.4239 -5.5
    endloop
  endfacet
  facet normal 0.678599 0.281079 0.678599
    outer loop
      vertex 37.1173 -97.1533 -6.15328
      vertex 37.1173 -96.5 -6.42388
      vertex 36.5761 -96.5 -5.88268
    endloop
  endfacet
  facet normal 0.678599 -0.281079 -0.678599
    outer loop
      vertex 36.5761 -56 30.8827
      vertex 37.1173 -55.3467 31.1533
      vertex 37.1173 -56 31.4239
    endloop
  endfacet
  facet normal 0.678618 0.281107 -0.678569
    outer loop
      vertex 36.5761 -96.7706 30.7706
      vertex 36.5761 -96.5 30.8827
      vertex 37.1173 -97.1533 31.1533
    endloop
  endfacet
  facet normal 0.678599 0.281079 -0.678599
    outer loop
      vertex 37.1173 -97.1533 31.1533
      vertex 36.5761 -96.5 30.8827
      vertex 37.1173 -96.5 31.4239
    endloop
  endfacet
  facet normal 0.707107 0.707107 0
    outer loop
      vertex 37.1173 -97.4239 30.5
      vertex 36.5761 -96.8827 -5.5
      vertex 36.5761 -96.8827 30.5
    endloop
  endfacet
  facet normal 0.707107 0.707107 0
    outer loop
      vertex 36.5761 -96.8827 -5.5
      vertex 37.1173 -97.4239 30.5
      vertex 37.1173 -97.4239 -5.5
    endloop
  endfacet
  facet normal 0 -1 0
    outer loop
      vertex 37.1173 -55.0761 -5.5
      vertex 65 -55.0761 30.5
      vertex 37.1173 -55.0761 30.5
    endloop
  endfacet
  facet normal 0 -1 -0
    outer loop
      vertex 65 -55.0761 30.5
      vertex 37.1173 -55.0761 -5.5
      vertex 65 -55.0761 -5.5
    endloop
  endfacet
  facet normal 0 -0.923882 -0.382677
    outer loop
      vertex 37.1173 -55.0761 30.5
      vertex 65 -55.3467 31.1533
      vertex 37.1173 -55.3467 31.1533
    endloop
  endfacet
  facet normal 0 -0.923882 -0.382677
    outer loop
      vertex 65 -55.3467 31.1533
      vertex 37.1173 -55.0761 30.5
      vertex 65 -55.0761 30.5
    endloop
  endfacet
  facet normal 0 -0.382677 0.923882
    outer loop
      vertex 37.1173 -55.3467 -6.15328
      vertex 65 -56 -6.42388
      vertex 65 -55.3467 -6.15328
    endloop
  endfacet
  facet normal 0 -0.382677 0.923882
    outer loop
      vertex 65 -56 -6.42388
      vertex 37.1173 -55.3467 -6.15328
      vertex 37.1173 -56 -6.42388
    endloop
  endfacet
  facet normal 0 0.923882 -0.382677
    outer loop
      vertex 65 -97.4239 30.5
      vertex 37.1173 -97.1533 31.1533
      vertex 65 -97.1533 31.1533
    endloop
  endfacet
  facet normal 0 0.923882 -0.382677
    outer loop
      vertex 37.1173 -97.1533 31.1533
      vertex 65 -97.4239 30.5
      vertex 37.1173 -97.4239 30.5
    endloop
  endfacet
  facet normal 0 0 -1
    outer loop
      vertex 37.1173 -96.5 31.4239
      vertex 65 -56 31.4239
      vertex 65 -96.5 31.4239
    endloop
  endfacet
  facet normal -0 0 -1
    outer loop
      vertex 65 -56 31.4239
      vertex 37.1173 -96.5 31.4239
      vertex 37.1173 -56 31.4239
    endloop
  endfacet
  facet normal 0.678599 0.678599 -0.281079
    outer loop
      vertex 37.1173 -97.4239 30.5
      vertex 36.5761 -96.8827 30.5
      vertex 37.1173 -97.1533 31.1533
    endloop
  endfacet
  facet normal 0.678618 0.678569 -0.281107
    outer loop
      vertex 36.5761 -96.8827 30.5
      vertex 36.5761 -96.7706 30.7706
      vertex 37.1173 -97.1533 31.1533
    endloop
  endfacet
  facet normal -0 0 1
    outer loop
      vertex 37.1173 -56 -6.42388
      vertex 65 -96.5 -6.42388
      vertex 65 -56 -6.42388
    endloop
  endfacet
  facet normal 0 0 1
    outer loop
      vertex 65 -96.5 -6.42388
      vertex 37.1173 -56 -6.42388
      vertex 37.1173 -96.5 -6.42388
    endloop
  endfacet
  facet normal 0.678595 -0.281073 0.678607
    outer loop
      vertex 36.5761 -56 -5.88268
      vertex 37.1173 -55.3467 -6.15328
      vertex 36.5761 -55.7294 -5.7706
    endloop
  endfacet
  facet normal 0.707107 -0 0.707107
    outer loop
      vertex 36.5761 -96.5 -5.88268
      vertex 37.1173 -56 -6.42388
      vertex 36.5761 -56 -5.88268
    endloop
  endfacet
  facet normal 0.707107 0 0.707107
    outer loop
      vertex 37.1173 -56 -6.42388
      vertex 36.5761 -96.5 -5.88268
      vertex 37.1173 -96.5 -6.42388
    endloop
  endfacet
  facet normal 0.678599 -0.678599 -0.281079
    outer loop
      vertex 36.5761 -55.6173 30.5
      vertex 37.1173 -55.0761 30.5
      vertex 37.1173 -55.3467 31.1533
    endloop
  endfacet
  facet normal 1 0 0
    outer loop
      vertex 36.5761 -56 30.8827
      vertex 36.5761 -55.6173 30.5
      vertex 36.5761 -55.7294 30.7706
    endloop
  endfacet
  facet normal 1 0 0
    outer loop
      vertex 36.5761 -55.6173 30.5
      vertex 36.5761 -56 30.8827
      vertex 36.5761 -55.6173 -5.5
    endloop
  endfacet
  facet normal 1 0 0
    outer loop
      vertex 36.5761 -56 -5.88268
      vertex 36.5761 -55.6173 -5.5
      vertex 36.5761 -56 30.8827
    endloop
  endfacet
  facet normal 1 0 0
    outer loop
      vertex 36.5761 -55.6173 -5.5
      vertex 36.5761 -56 -5.88268
      vertex 36.5761 -55.7294 -5.7706
    endloop
  endfacet
  facet normal 1 -0 0
    outer loop
      vertex 36.5761 -96.5 30.8827
      vertex 36.5761 -56 -5.88268
      vertex 36.5761 -56 30.8827
    endloop
  endfacet
  facet normal 1 0 0
    outer loop
      vertex 36.5761 -96.5 30.8827
      vertex 36.5761 -96.5 -5.88268
      vertex 36.5761 -56 -5.88268
    endloop
  endfacet
  facet normal 1 0 0
    outer loop
      vertex 36.5761 -96.8827 30.5
      vertex 36.5761 -96.5 30.8827
      vertex 36.5761 -96.7706 30.7706
    endloop
  endfacet
  facet normal 1 0 0
    outer loop
      vertex 36.5761 -96.5 30.8827
      vertex 36.5761 -96.8827 30.5
      vertex 36.5761 -96.5 -5.88268
    endloop
  endfacet
  facet normal 1 -0 0
    outer loop
      vertex 36.5761 -96.8827 -5.5
      vertex 36.5761 -96.5 -5.88268
      vertex 36.5761 -96.8827 30.5
    endloop
  endfacet
  facet normal 1 0 0
    outer loop
      vertex 36.5761 -96.5 -5.88268
      vertex 36.5761 -96.8827 -5.5
      vertex 36.5761 -96.7706 -5.7706
    endloop
  endfacet
  facet normal 0.678613 0.678574 0.281109
    outer loop
      vertex 37.1173 -97.1533 -6.15328
      vertex 36.5761 -96.7706 -5.7706
      vertex 36.5761 -96.8827 -5.5
    endloop
  endfacet
  facet normal 0 1 -0
    outer loop
      vertex 65 -97.4239 -5.5
      vertex 37.1173 -97.4239 30.5
      vertex 65 -97.4239 30.5
    endloop
  endfacet
  facet normal 0 1 0
    outer loop
      vertex 37.1173 -97.4239 30.5
      vertex 65 -97.4239 -5.5
      vertex 37.1173 -97.4239 -5.5
    endloop
  endfacet
  facet normal -0 0.382677 0.923882
    outer loop
      vertex 37.1173 -96.5 -6.42388
      vertex 65 -97.1533 -6.15328
      vertex 65 -96.5 -6.42388
    endloop
  endfacet
  facet normal 0 0.382677 0.923882
    outer loop
      vertex 65 -97.1533 -6.15328
      vertex 37.1173 -96.5 -6.42388
      vertex 37.1173 -97.1533 -6.15328
    endloop
  endfacet
  facet normal 0.707107 0 -0.707107
    outer loop
      vertex 37.1173 -96.5 31.4239
      vertex 36.5761 -56 30.8827
      vertex 37.1173 -56 31.4239
    endloop
  endfacet
  facet normal 0.707107 0 -0.707107
    outer loop
      vertex 36.5761 -56 30.8827
      vertex 37.1173 -96.5 31.4239
      vertex 36.5761 -96.5 30.8827
    endloop
  endfacet
  facet normal 0.678599 -0.281079 0.678599
    outer loop
      vertex 37.1173 -56 -6.42388
      vertex 37.1173 -55.3467 -6.15328
      vertex 36.5761 -56 -5.88268
    endloop
  endfacet
  facet normal 0.678613 -0.678574 0.281109
    outer loop
      vertex 36.5761 -55.7294 -5.7706
      vertex 37.1173 -55.3467 -6.15328
      vertex 36.5761 -55.6173 -5.5
    endloop
  endfacet
  facet normal 0.678598 -0.678598 0.281087
    outer loop
      vertex 37.1173 -55.3467 -6.15328
      vertex 37.1173 -55.0761 -5.5
      vertex 36.5761 -55.6173 -5.5
    endloop
  endfacet
  facet normal 0 0.382677 -0.923882
    outer loop
      vertex 37.1173 -97.1533 31.1533
      vertex 65 -96.5 31.4239
      vertex 65 -97.1533 31.1533
    endloop
  endfacet
  facet normal 0 0.382677 -0.923882
    outer loop
      vertex 65 -96.5 31.4239
      vertex 37.1173 -97.1533 31.1533
      vertex 37.1173 -96.5 31.4239
    endloop
  endfacet
  facet normal 0.678618 -0.281107 -0.678569
    outer loop
      vertex 36.5761 -56 30.8827
      vertex 36.5761 -55.7294 30.7706
      vertex 37.1173 -55.3467 31.1533
    endloop
  endfacet
  facet normal 0.678618 -0.678569 -0.281107
    outer loop
      vertex 36.5761 -55.7294 30.7706
      vertex 36.5761 -55.6173 30.5
      vertex 37.1173 -55.3467 31.1533
    endloop
  endfacet
  facet normal 0 -0.382677 -0.923882
    outer loop
      vertex 37.1173 -56 31.4239
      vertex 65 -55.3467 31.1533
      vertex 65 -56 31.4239
    endloop
  endfacet
  facet normal -0 -0.382677 -0.923882
    outer loop
      vertex 65 -55.3467 31.1533
      vertex 37.1173 -56 31.4239
      vertex 37.1173 -55.3467 31.1533
    endloop
  endfacet
  facet normal 0 0.923878 0.382687
    outer loop
      vertex 65 -97.1533 -6.15328
      vertex 37.1173 -97.4239 -5.5
      vertex 65 -97.4239 -5.5
    endloop
  endfacet
  facet normal 0 0.923878 0.382687
    outer loop
      vertex 37.1173 -97.4239 -5.5
      vertex 65 -97.1533 -6.15328
      vertex 37.1173 -97.1533 -6.15328
    endloop
  endfacet
  facet normal 0 -0.923878 0.382687
    outer loop
      vertex 37.1173 -55.3467 -6.15328
      vertex 65 -55.0761 -5.5
      vertex 37.1173 -55.0761 -5.5
    endloop
  endfacet
  facet normal 0 -0.923878 0.382687
    outer loop
      vertex 65 -55.0761 -5.5
      vertex 37.1173 -55.3467 -6.15328
      vertex 65 -55.3467 -6.15328
    endloop
  endfacet
  facet normal 0.707107 -0.707107 0
    outer loop
      vertex 36.5761 -55.6173 30.5
      vertex 37.1173 -55.0761 -5.5
      vertex 37.1173 -55.0761 30.5
    endloop
  endfacet
  facet normal 0.707107 -0.707107 0
    outer loop
      vertex 37.1173 -55.0761 -5.5
      vertex 36.5761 -55.6173 30.5
      vertex 36.5761 -55.6173 -5.5
    endloop
  endfacet
endsolid OpenSCAD_Model
