solid OpenSCAD_Model
  facet normal 1 -0 0
    outer loop
      vertex 148 -99 33
      vertex 148 -53.5 13
      vertex 148 -53.5 33
    endloop
  endfacet
  facet normal 1 0 0
    outer loop
      vertex 148 -53.5 13
      vertex 148 -99 33
      vertex 148 -99 13
    endloop
  endfacet
  facet normal 0 0 1
    outer loop
      vertex 148 -53.5 33
      vertex 146.424 -56 33
      vertex 148 -99 33
    endloop
  endfacet
  facet normal 0 0 1
    outer loop
      vertex 148 -53.5 33
      vertex 146.153 -55.3467 33
      vertex 146.424 -56 33
    endloop
  endfacet
  facet normal 0 0 1
    outer loop
      vertex 148 -53.5 33
      vertex 145.5 -55.0761 33
      vertex 146.153 -55.3467 33
    endloop
  endfacet
  facet normal 0 0 1
    outer loop
      vertex 148 -53.5 33
      vertex 70.5 -55.0761 33
      vertex 145.5 -55.0761 33
    endloop
  endfacet
  facet normal 0 0 1
    outer loop
      vertex 69.5761 -56 33
      vertex 68 -53.5 33
      vertex 69.5761 -96.5 33
    endloop
  endfacet
  facet normal 0 0 1
    outer loop
      vertex 69.8467 -55.3467 33
      vertex 68 -53.5 33
      vertex 69.5761 -56 33
    endloop
  endfacet
  facet normal 0 0 1
    outer loop
      vertex 70.5 -55.0761 33
      vertex 68 -53.5 33
      vertex 69.8467 -55.3467 33
    endloop
  endfacet
  facet normal -0 0 1
    outer loop
      vertex 68 -53.5 33
      vertex 70.5 -55.0761 33
      vertex 148 -53.5 33
    endloop
  endfacet
  facet normal -0 0 1
    outer loop
      vertex 146.424 -96.5 33
      vertex 148 -99 33
      vertex 146.424 -56 33
    endloop
  endfacet
  facet normal -0 0 1
    outer loop
      vertex 146.153 -97.1533 33
      vertex 148 -99 33
      vertex 146.424 -96.5 33
    endloop
  endfacet
  facet normal -0 0 1
    outer loop
      vertex 145.5 -97.4239 33
      vertex 148 -99 33
      vertex 146.153 -97.1533 33
    endloop
  endfacet
  facet normal -0 0 1
    outer loop
      vertex 70.5 -97.4239 33
      vertex 148 -99 33
      vertex 145.5 -97.4239 33
    endloop
  endfacet
  facet normal 0 0 1
    outer loop
      vertex 70.5 -97.4239 33
      vertex 68 -99 33
      vertex 148 -99 33
    endloop
  endfacet
  facet normal 0 0 1
    outer loop
      vertex 69.8467 -97.1533 33
      vertex 68 -99 33
      vertex 70.5 -97.4239 33
    endloop
  endfacet
  facet normal 0 0 1
    outer loop
      vertex 69.5761 -96.5 33
      vertex 68 -99 33
      vertex 69.8467 -97.1533 33
    endloop
  endfacet
  facet normal 0 0 1
    outer loop
      vertex 68 -99 33
      vertex 69.5761 -96.5 33
      vertex 68 -53.5 33
    endloop
  endfacet
  facet normal 0 0 -1
    outer loop
      vertex 68 -99 13
      vertex 148 -53.5 13
      vertex 148 -99 13
    endloop
  endfacet
  facet normal -0 0 -1
    outer loop
      vertex 148 -53.5 13
      vertex 68 -99 13
      vertex 68 -53.5 13
    endloop
  endfacet
  facet normal -1 0 0
    outer loop
      vertex 68 -99 13
      vertex 68 -53.5 33
      vertex 68 -53.5 13
    endloop
  endfacet
  facet normal -1 -0 0
    outer loop
      vertex 68 -53.5 33
      vertex 68 -99 13
      vertex 68 -99 33
    endloop
  endfacet
  facet normal 0 1 -0
    outer loop
      vertex 148 -53.5 13
      vertex 68 -53.5 33
      vertex 148 -53.5 33
    endloop
  endfacet
  facet normal 0 1 0
    outer loop
      vertex 68 -53.5 33
      vertex 148 -53.5 13
      vertex 68 -53.5 13
    endloop
  endfacet
  facet normal 0 -1 0
    outer loop
      vertex 68 -99 13
      vertex 148 -99 33
      vertex 68 -99 33
    endloop
  endfacet
  facet normal 0 -1 -0
    outer loop
      vertex 148 -99 33
      vertex 68 -99 13
      vertex 148 -99 13
    endloop
  endfacet
  facet normal -0.28085 0.678951 0.678343
    outer loop
      vertex 146.153 -97.1533 15.1173
      vertex 145.771 -96.7706 14.5761
      vertex 145.5 -96.8827 14.5761
    endloop
  endfacet
  facet normal 0 -1 0
    outer loop
      vertex 70.5 -55.0761 15.1173
      vertex 145.5 -55.0761 33
      vertex 70.5 -55.0761 33
    endloop
  endfacet
  facet normal 0 -1 -0
    outer loop
      vertex 145.5 -55.0761 33
      vertex 70.5 -55.0761 15.1173
      vertex 145.5 -55.0761 15.1173
    endloop
  endfacet
  facet normal -1 0 0
    outer loop
      vertex 146.424 -96.5 15.1173
      vertex 146.424 -56 33
      vertex 146.424 -56 15.1173
    endloop
  endfacet
  facet normal -1 -0 0
    outer loop
      vertex 146.424 -56 33
      vertex 146.424 -96.5 15.1173
      vertex 146.424 -96.5 33
    endloop
  endfacet
  facet normal -0.281198 -0.678575 0.678575
    outer loop
      vertex 146.153 -55.3467 15.1173
      vertex 145.5 -55.0761 15.1173
      vertex 145.5 -55.6173 14.5761
    endloop
  endfacet
  facet normal -0.28085 -0.678951 0.678343
    outer loop
      vertex 145.771 -55.7294 14.5761
      vertex 146.153 -55.3467 15.1173
      vertex 145.5 -55.6173 14.5761
    endloop
  endfacet
  facet normal -0.923682 0.383159 0
    outer loop
      vertex 146.153 -97.1533 15.1173
      vertex 146.424 -96.5 33
      vertex 146.424 -96.5 15.1173
    endloop
  endfacet
  facet normal -0.923682 0.383159 0
    outer loop
      vertex 146.424 -96.5 33
      vertex 146.153 -97.1533 15.1173
      vertex 146.153 -97.1533 33
    endloop
  endfacet
  facet normal 0.281079 0.678599 0.678599
    outer loop
      vertex 70.5 -97.4239 15.1173
      vertex 70.5 -96.8827 14.5761
      vertex 69.8467 -97.1533 15.1173
    endloop
  endfacet
  facet normal 0.281107 0.678569 0.678618
    outer loop
      vertex 70.5 -96.8827 14.5761
      vertex 70.2294 -96.7706 14.5761
      vertex 69.8467 -97.1533 15.1173
    endloop
  endfacet
  facet normal -0.707237 0 0.706976
    outer loop
      vertex 145.883 -96.5 14.5761
      vertex 146.424 -56 15.1173
      vertex 145.883 -56 14.5761
    endloop
  endfacet
  facet normal -0.707237 0 0.706976
    outer loop
      vertex 146.424 -56 15.1173
      vertex 145.883 -96.5 14.5761
      vertex 146.424 -96.5 15.1173
    endloop
  endfacet
  facet normal 0.382677 -0.923882 0
    outer loop
      vertex 69.8467 -55.3467 15.1173
      vertex 70.5 -55.0761 33
      vertex 69.8467 -55.3467 33
    endloop
  endfacet
  facet normal 0.382677 -0.923882 0
    outer loop
      vertex 70.5 -55.0761 33
      vertex 69.8467 -55.3467 15.1173
      vertex 70.5 -55.0761 15.1173
    endloop
  endfacet
  facet normal -0.678636 0.28151 0.678385
    outer loop
      vertex 146.153 -97.1533 15.1173
      vertex 146.424 -96.5 15.1173
      vertex 145.883 -96.5 14.5761
    endloop
  endfacet
  facet normal -0.281198 0.678575 0.678575
    outer loop
      vertex 146.153 -97.1533 15.1173
      vertex 145.5 -96.8827 14.5761
      vertex 145.5 -97.4239 15.1173
    endloop
  endfacet
  facet normal -0.382827 0.92382 0
    outer loop
      vertex 146.153 -97.1533 15.1173
      vertex 145.5 -97.4239 33
      vertex 146.153 -97.1533 33
    endloop
  endfacet
  facet normal -0.382827 0.92382 0
    outer loop
      vertex 145.5 -97.4239 33
      vertex 146.153 -97.1533 15.1173
      vertex 145.5 -97.4239 15.1173
    endloop
  endfacet
  facet normal -0.923682 -0.383159 0
    outer loop
      vertex 146.424 -56 15.1173
      vertex 146.153 -55.3467 33
      vertex 146.153 -55.3467 15.1173
    endloop
  endfacet
  facet normal -0.923682 -0.383159 0
    outer loop
      vertex 146.153 -55.3467 33
      vertex 146.424 -56 15.1173
      vertex 146.424 -56 33
    endloop
  endfacet
  facet normal 0.382677 0.923882 -0
    outer loop
      vertex 70.5 -97.4239 15.1173
      vertex 69.8467 -97.1533 33
      vertex 70.5 -97.4239 33
    endloop
  endfacet
  facet normal 0.382677 0.923882 0
    outer loop
      vertex 69.8467 -97.1533 33
      vertex 70.5 -97.4239 15.1173
      vertex 69.8467 -97.1533 15.1173
    endloop
  endfacet
  facet normal 0.923882 -0.382677 0
    outer loop
      vertex 69.5761 -56 33
      vertex 69.8467 -55.3467 15.1173
      vertex 69.8467 -55.3467 33
    endloop
  endfacet
  facet normal 0.923882 -0.382677 0
    outer loop
      vertex 69.8467 -55.3467 15.1173
      vertex 69.5761 -56 33
      vertex 69.5761 -56 15.1173
    endloop
  endfacet
  facet normal 0.678569 -0.281107 0.678618
    outer loop
      vertex 70.1173 -56 14.5761
      vertex 70.2294 -55.7294 14.5761
      vertex 69.8467 -55.3467 15.1173
    endloop
  endfacet
  facet normal -0.678636 -0.28151 0.678385
    outer loop
      vertex 146.424 -56 15.1173
      vertex 146.153 -55.3467 15.1173
      vertex 145.883 -56 14.5761
    endloop
  endfacet
  facet normal 0.678569 0.281107 0.678618
    outer loop
      vertex 70.2294 -96.7706 14.5761
      vertex 70.1173 -96.5 14.5761
      vertex 69.8467 -97.1533 15.1173
    endloop
  endfacet
  facet normal 0 1 -0
    outer loop
      vertex 145.5 -97.4239 15.1173
      vertex 70.5 -97.4239 33
      vertex 145.5 -97.4239 33
    endloop
  endfacet
  facet normal 0 1 0
    outer loop
      vertex 70.5 -97.4239 33
      vertex 145.5 -97.4239 15.1173
      vertex 70.5 -97.4239 15.1173
    endloop
  endfacet
  facet normal 0 -0.707107 0.707107
    outer loop
      vertex 70.5 -55.6173 14.5761
      vertex 145.5 -55.0761 15.1173
      vertex 70.5 -55.0761 15.1173
    endloop
  endfacet
  facet normal 0 -0.707107 0.707107
    outer loop
      vertex 145.5 -55.0761 15.1173
      vertex 70.5 -55.6173 14.5761
      vertex 145.5 -55.6173 14.5761
    endloop
  endfacet
  facet normal 0.678599 -0.281079 0.678599
    outer loop
      vertex 70.1173 -56 14.5761
      vertex 69.8467 -55.3467 15.1173
      vertex 69.5761 -56 15.1173
    endloop
  endfacet
  facet normal -0.382827 -0.92382 0
    outer loop
      vertex 145.5 -55.0761 15.1173
      vertex 146.153 -55.3467 33
      vertex 145.5 -55.0761 33
    endloop
  endfacet
  facet normal -0.382827 -0.92382 -0
    outer loop
      vertex 146.153 -55.3467 33
      vertex 145.5 -55.0761 15.1173
      vertex 146.153 -55.3467 15.1173
    endloop
  endfacet
  facet normal -0.679103 0.281077 0.678096
    outer loop
      vertex 146.153 -97.1533 15.1173
      vertex 145.883 -96.5 14.5761
      vertex 145.771 -96.7706 14.5761
    endloop
  endfacet
  facet normal -0.679103 -0.281077 0.678096
    outer loop
      vertex 145.883 -56 14.5761
      vertex 146.153 -55.3467 15.1173
      vertex 145.771 -55.7294 14.5761
    endloop
  endfacet
  facet normal 0 0 1
    outer loop
      vertex 145.5 -55.6173 14.5761
      vertex 145.883 -56 14.5761
      vertex 145.771 -55.7294 14.5761
    endloop
  endfacet
  facet normal 0 0 1
    outer loop
      vertex 145.883 -56 14.5761
      vertex 145.5 -55.6173 14.5761
      vertex 145.883 -96.5 14.5761
    endloop
  endfacet
  facet normal 0 0 1
    outer loop
      vertex 145.5 -96.8827 14.5761
      vertex 145.883 -96.5 14.5761
      vertex 145.5 -55.6173 14.5761
    endloop
  endfacet
  facet normal 0 0 1
    outer loop
      vertex 145.883 -96.5 14.5761
      vertex 145.5 -96.8827 14.5761
      vertex 145.771 -96.7706 14.5761
    endloop
  endfacet
  facet normal -0 0 1
    outer loop
      vertex 70.5 -55.6173 14.5761
      vertex 145.5 -96.8827 14.5761
      vertex 145.5 -55.6173 14.5761
    endloop
  endfacet
  facet normal 0 0 1
    outer loop
      vertex 70.5 -55.6173 14.5761
      vertex 70.5 -96.8827 14.5761
      vertex 145.5 -96.8827 14.5761
    endloop
  endfacet
  facet normal 0 0 1
    outer loop
      vertex 70.1173 -56 14.5761
      vertex 70.5 -55.6173 14.5761
      vertex 70.2294 -55.7294 14.5761
    endloop
  endfacet
  facet normal 0 0 1
    outer loop
      vertex 70.5 -55.6173 14.5761
      vertex 70.1173 -56 14.5761
      vertex 70.5 -96.8827 14.5761
    endloop
  endfacet
  facet normal -0 0 1
    outer loop
      vertex 70.1173 -96.5 14.5761
      vertex 70.5 -96.8827 14.5761
      vertex 70.1173 -56 14.5761
    endloop
  endfacet
  facet normal 0 0 1
    outer loop
      vertex 70.5 -96.8827 14.5761
      vertex 70.1173 -96.5 14.5761
      vertex 70.2294 -96.7706 14.5761
    endloop
  endfacet
  facet normal 0.923882 0.382677 0
    outer loop
      vertex 69.8467 -97.1533 33
      vertex 69.5761 -96.5 15.1173
      vertex 69.5761 -96.5 33
    endloop
  endfacet
  facet normal 0.923882 0.382677 0
    outer loop
      vertex 69.5761 -96.5 15.1173
      vertex 69.8467 -97.1533 33
      vertex 69.8467 -97.1533 15.1173
    endloop
  endfacet
  facet normal 0.678599 0.281079 0.678599
    outer loop
      vertex 69.8467 -97.1533 15.1173
      vertex 70.1173 -96.5 14.5761
      vertex 69.5761 -96.5 15.1173
    endloop
  endfacet
  facet normal -0 0.707107 0.707107
    outer loop
      vertex 70.5 -96.8827 14.5761
      vertex 145.5 -97.4239 15.1173
      vertex 145.5 -96.8827 14.5761
    endloop
  endfacet
  facet normal 0 0.707107 0.707107
    outer loop
      vertex 145.5 -97.4239 15.1173
      vertex 70.5 -96.8827 14.5761
      vertex 70.5 -97.4239 15.1173
    endloop
  endfacet
  facet normal 0.281079 -0.678599 0.678599
    outer loop
      vertex 70.5 -55.6173 14.5761
      vertex 70.5 -55.0761 15.1173
      vertex 69.8467 -55.3467 15.1173
    endloop
  endfacet
  facet normal 0.281107 -0.678569 0.678618
    outer loop
      vertex 70.2294 -55.7294 14.5761
      vertex 70.5 -55.6173 14.5761
      vertex 69.8467 -55.3467 15.1173
    endloop
  endfacet
  facet normal 0.707107 0 0.707107
    outer loop
      vertex 69.5761 -56 15.1173
      vertex 70.1173 -96.5 14.5761
      vertex 70.1173 -56 14.5761
    endloop
  endfacet
  facet normal 0.707107 0 0.707107
    outer loop
      vertex 70.1173 -96.5 14.5761
      vertex 69.5761 -56 15.1173
      vertex 69.5761 -96.5 15.1173
    endloop
  endfacet
  facet normal 1 -0 0
    outer loop
      vertex 69.5761 -96.5 33
      vertex 69.5761 -56 15.1173
      vertex 69.5761 -56 33
    endloop
  endfacet
  facet normal 1 0 0
    outer loop
      vertex 69.5761 -56 15.1173
      vertex 69.5761 -96.5 33
      vertex 69.5761 -96.5 15.1173
    endloop
  endfacet
endsolid OpenSCAD_Model
