solid OpenSCAD_Model
  facet normal 0.280609 -0.677972 -0.679421
    outer loop
      vertex -66.5 -100.809 33.4619
      vertex -66.6353 -100.865 33.4619
      vertex -66.8266 -100.673 33.1913
    endloop
  endfacet
  facet normal 0 -0.706584 -0.707629
    outer loop
      vertex -66.5 -100.538 33.1913
      vertex 29 -100.809 33.4619
      vertex -66.5 -100.809 33.4619
    endloop
  endfacet
  facet normal 0 -0.706584 -0.707629
    outer loop
      vertex 29 -100.809 33.4619
      vertex -66.5 -100.538 33.1913
      vertex 29 -100.538 33.1913
    endloop
  endfacet
  facet normal 0.678123 -0.281295 -0.678986
    outer loop
      vertex -66.6353 -100.865 33.4619
      vertex -66.6913 -101 33.4619
      vertex -66.8266 -100.673 33.1913
    endloop
  endfacet
  facet normal -0.678657 -0.280802 -0.678657
    outer loop
      vertex 29.3266 -100.673 33.1913
      vertex 29.4619 -101 33.1913
      vertex 29.1913 -101 33.4619
    endloop
  endfacet
  facet normal -0.924027 -0.382327 0
    outer loop
      vertex 29.4619 -101 -8.19134
      vertex 29.3266 -100.673 33.1913
      vertex 29.3266 -100.673 -8.19134
    endloop
  endfacet
  facet normal -0.924027 -0.382327 0
    outer loop
      vertex 29.3266 -100.673 33.1913
      vertex 29.4619 -101 -8.19134
      vertex 29.4619 -101 33.1913
    endloop
  endfacet
  facet normal 0.924027 -0.382327 0
    outer loop
      vertex -66.9619 -101 33.1913
      vertex -66.8266 -100.673 -8.19134
      vertex -66.8266 -100.673 33.1913
    endloop
  endfacet
  facet normal 0.924027 -0.382327 0
    outer loop
      vertex -66.8266 -100.673 -8.19134
      vertex -66.9619 -101 33.1913
      vertex -66.9619 -101 -8.19134
    endloop
  endfacet
  facet normal 0.382002 -0.924162 0
    outer loop
      vertex -66.8266 -100.673 -8.19134
      vertex -66.5 -100.538 33.1913
      vertex -66.8266 -100.673 33.1913
    endloop
  endfacet
  facet normal 0.382002 -0.924162 0
    outer loop
      vertex -66.5 -100.538 33.1913
      vertex -66.8266 -100.673 -8.19134
      vertex -66.5 -100.538 -8.19134
    endloop
  endfacet
  facet normal -0.678657 -0.280802 0.678657
    outer loop
      vertex 29.4619 -101 -8.19134
      vertex 29.3266 -100.673 -8.19134
      vertex 29.1913 -101 -8.46194
    endloop
  endfacet
  facet normal -1 0 0
    outer loop
      vertex 29.4619 -164.944 -8.19134
      vertex 29.4619 -101 33.1913
      vertex 29.4619 -101 -8.19134
    endloop
  endfacet
  facet normal -1 -0 0
    outer loop
      vertex 29.4619 -101 33.1913
      vertex 29.4619 -164.944 -8.19134
      vertex 29.4619 -164.944 33.1913
    endloop
  endfacet
  facet normal -0.280354 -0.678248 0.679251
    outer loop
      vertex 29.3266 -100.673 -8.19134
      vertex 29 -100.538 -8.19134
      vertex 29 -100.809 -8.46194
    endloop
  endfacet
  facet normal 0.280354 -0.678248 -0.679251
    outer loop
      vertex -66.5 -100.538 33.1913
      vertex -66.5 -100.809 33.4619
      vertex -66.8266 -100.673 33.1913
    endloop
  endfacet
  facet normal 1 -0 0
    outer loop
      vertex -66.9619 -164.944 33.1913
      vertex -66.9619 -101 -8.19134
      vertex -66.9619 -101 33.1913
    endloop
  endfacet
  facet normal 1 0 0
    outer loop
      vertex -66.9619 -101 -8.19134
      vertex -66.9619 -164.944 33.1913
      vertex -66.9619 -164.944 -8.19134
    endloop
  endfacet
  facet normal 0 -1 0
    outer loop
      vertex -66.5 -100.538 -8.19134
      vertex 29 -100.538 33.1913
      vertex -66.5 -100.538 33.1913
    endloop
  endfacet
  facet normal 0 -1 -0
    outer loop
      vertex 29 -100.538 33.1913
      vertex -66.5 -100.538 -8.19134
      vertex 29 -100.538 -8.19134
    endloop
  endfacet
  facet normal 0.707107 -1.10816e-06 -0.707107
    outer loop
      vertex -66.6913 -101 33.4619
      vertex -66.8943 -164.809 33.259
      vertex -66.9619 -101 33.1913
    endloop
  endfacet
  facet normal 0.706933 0 -0.707281
    outer loop
      vertex -66.8943 -164.809 33.259
      vertex -66.6913 -101 33.4619
      vertex -66.6913 -164.907 33.4619
    endloop
  endfacet
  facet normal 0.707629 0 -0.706584
    outer loop
      vertex -66.9619 -101 33.1913
      vertex -66.8943 -164.809 33.259
      vertex -66.9619 -164.944 33.1913
    endloop
  endfacet
  facet normal 0.678657 -0.280802 -0.678657
    outer loop
      vertex -66.8266 -100.673 33.1913
      vertex -66.6913 -101 33.4619
      vertex -66.9619 -101 33.1913
    endloop
  endfacet
  facet normal -0.678123 -0.281295 -0.678986
    outer loop
      vertex 29.3266 -100.673 33.1913
      vertex 29.1913 -101 33.4619
      vertex 29.1353 -100.865 33.4619
    endloop
  endfacet
  facet normal -0.678123 -0.281295 0.678986
    outer loop
      vertex 29.1913 -101 -8.46194
      vertex 29.3266 -100.673 -8.19134
      vertex 29.1353 -100.865 -8.46194
    endloop
  endfacet
  facet normal -0.382002 -0.924162 0
    outer loop
      vertex 29 -100.538 -8.19134
      vertex 29.3266 -100.673 33.1913
      vertex 29 -100.538 33.1913
    endloop
  endfacet
  facet normal -0.382002 -0.924162 -0
    outer loop
      vertex 29.3266 -100.673 33.1913
      vertex 29 -100.538 -8.19134
      vertex 29.3266 -100.673 -8.19134
    endloop
  endfacet
  facet normal -0.707629 0 -0.706584
    outer loop
      vertex 29.3943 -164.809 33.259
      vertex 29.4619 -101 33.1913
      vertex 29.4619 -164.944 33.1913
    endloop
  endfacet
  facet normal -0.706933 -0 -0.707281
    outer loop
      vertex 29.1913 -101 33.4619
      vertex 29.3943 -164.809 33.259
      vertex 29.1913 -164.907 33.4619
    endloop
  endfacet
  facet normal -0.707107 -1.10816e-06 -0.707107
    outer loop
      vertex 29.3943 -164.809 33.259
      vertex 29.1913 -101 33.4619
      vertex 29.4619 -101 33.1913
    endloop
  endfacet
  facet normal -0.280609 -0.677972 -0.679421
    outer loop
      vertex 29.3266 -100.673 33.1913
      vertex 29.1353 -100.865 33.4619
      vertex 29 -100.809 33.4619
    endloop
  endfacet
  facet normal -0.280354 -0.678248 -0.679251
    outer loop
      vertex 29 -100.538 33.1913
      vertex 29.3266 -100.673 33.1913
      vertex 29 -100.809 33.4619
    endloop
  endfacet
  facet normal 0 0 -1
    outer loop
      vertex 29.1353 -164.865 33.4619
      vertex 29.1913 -101 33.4619
      vertex 29.1913 -164.907 33.4619
    endloop
  endfacet
  facet normal 0 0 -1
    outer loop
      vertex 29 -164.809 33.4619
      vertex 29.1913 -101 33.4619
      vertex 29.1353 -164.865 33.4619
    endloop
  endfacet
  facet normal 0 0 -1
    outer loop
      vertex 29 -100.809 33.4619
      vertex 29.1913 -101 33.4619
      vertex 29 -164.809 33.4619
    endloop
  endfacet
  facet normal 0 0 -1
    outer loop
      vertex 29.1913 -101 33.4619
      vertex 29 -100.809 33.4619
      vertex 29.1353 -100.865 33.4619
    endloop
  endfacet
  facet normal 0 0 -1
    outer loop
      vertex -66.5 -164.809 33.4619
      vertex 29 -100.809 33.4619
      vertex 29 -164.809 33.4619
    endloop
  endfacet
  facet normal 0 0 -1
    outer loop
      vertex -66.5 -164.809 33.4619
      vertex -66.5 -100.809 33.4619
      vertex 29 -100.809 33.4619
    endloop
  endfacet
  facet normal 0 0 -1
    outer loop
      vertex -66.6913 -101 33.4619
      vertex -66.5 -164.809 33.4619
      vertex -66.6353 -164.865 33.4619
    endloop
  endfacet
  facet normal 0 0 -1
    outer loop
      vertex -66.5 -164.809 33.4619
      vertex -66.6913 -101 33.4619
      vertex -66.5 -100.809 33.4619
    endloop
  endfacet
  facet normal 0 0 -1
    outer loop
      vertex -66.6913 -101 33.4619
      vertex -66.6353 -164.865 33.4619
      vertex -66.6913 -164.907 33.4619
    endloop
  endfacet
  facet normal 0 0 -1
    outer loop
      vertex -66.5 -100.809 33.4619
      vertex -66.6913 -101 33.4619
      vertex -66.6353 -100.865 33.4619
    endloop
  endfacet
  facet normal 0 -0.706584 0.707629
    outer loop
      vertex -66.5 -100.809 -8.46194
      vertex 29 -100.538 -8.19134
      vertex -66.5 -100.538 -8.19134
    endloop
  endfacet
  facet normal 0 -0.706584 0.707629
    outer loop
      vertex 29 -100.538 -8.19134
      vertex -66.5 -100.809 -8.46194
      vertex 29 -100.809 -8.46194
    endloop
  endfacet
  facet normal 0.707107 -5.54081e-07 0.707107
    outer loop
      vertex -66.9619 -101 -8.19134
      vertex -66.8943 -164.809 -8.25899
      vertex -66.6913 -101 -8.46194
    endloop
  endfacet
  facet normal 0.707368 0 0.706845
    outer loop
      vertex -66.8943 -164.809 -8.25899
      vertex -66.9619 -101 -8.19134
      vertex -66.9619 -164.944 -8.19134
    endloop
  endfacet
  facet normal 0.70702 0 0.707194
    outer loop
      vertex -66.6913 -101 -8.46194
      vertex -66.8943 -164.809 -8.25899
      vertex -66.6913 -164.907 -8.46194
    endloop
  endfacet
  facet normal -0.280609 -0.677972 0.679421
    outer loop
      vertex 29.1353 -100.865 -8.46194
      vertex 29.3266 -100.673 -8.19134
      vertex 29 -100.809 -8.46194
    endloop
  endfacet
  facet normal 0.678657 -0.280802 0.678657
    outer loop
      vertex -66.6913 -101 -8.46194
      vertex -66.8266 -100.673 -8.19134
      vertex -66.9619 -101 -8.19134
    endloop
  endfacet
  facet normal -0.707107 -5.54081e-07 0.707107
    outer loop
      vertex 29.1913 -101 -8.46194
      vertex 29.3943 -164.809 -8.25899
      vertex 29.4619 -101 -8.19134
    endloop
  endfacet
  facet normal -0.70702 0 0.707194
    outer loop
      vertex 29.3943 -164.809 -8.25899
      vertex 29.1913 -101 -8.46194
      vertex 29.1913 -164.907 -8.46194
    endloop
  endfacet
  facet normal -0.707368 0 0.706845
    outer loop
      vertex 29.4619 -101 -8.19134
      vertex 29.3943 -164.809 -8.25899
      vertex 29.4619 -164.944 -8.19134
    endloop
  endfacet
  facet normal 0.280609 -0.677972 0.679421
    outer loop
      vertex -66.6353 -100.865 -8.46194
      vertex -66.5 -100.809 -8.46194
      vertex -66.8266 -100.673 -8.19134
    endloop
  endfacet
  facet normal 0.280354 -0.678248 0.679251
    outer loop
      vertex -66.5 -100.809 -8.46194
      vertex -66.5 -100.538 -8.19134
      vertex -66.8266 -100.673 -8.19134
    endloop
  endfacet
  facet normal 0 0 1
    outer loop
      vertex 29 -100.809 -8.46194
      vertex 29.1913 -101 -8.46194
      vertex 29.1353 -100.865 -8.46194
    endloop
  endfacet
  facet normal 0 0 1
    outer loop
      vertex 29.1913 -101 -8.46194
      vertex 29.1353 -164.865 -8.46194
      vertex 29.1913 -164.907 -8.46194
    endloop
  endfacet
  facet normal 0 0 1
    outer loop
      vertex 29.1913 -101 -8.46194
      vertex 29 -100.809 -8.46194
      vertex 29 -164.809 -8.46194
    endloop
  endfacet
  facet normal 0 0 1
    outer loop
      vertex 29.1913 -101 -8.46194
      vertex 29 -164.809 -8.46194
      vertex 29.1353 -164.865 -8.46194
    endloop
  endfacet
  facet normal -0 0 1
    outer loop
      vertex -66.5 -100.809 -8.46194
      vertex 29 -164.809 -8.46194
      vertex 29 -100.809 -8.46194
    endloop
  endfacet
  facet normal 0 0 1
    outer loop
      vertex -66.5 -100.809 -8.46194
      vertex -66.5 -164.809 -8.46194
      vertex 29 -164.809 -8.46194
    endloop
  endfacet
  facet normal 0 0 1
    outer loop
      vertex -66.6913 -101 -8.46194
      vertex -66.5 -100.809 -8.46194
      vertex -66.6353 -100.865 -8.46194
    endloop
  endfacet
  facet normal 0 0 1
    outer loop
      vertex -66.5 -100.809 -8.46194
      vertex -66.6913 -101 -8.46194
      vertex -66.5 -164.809 -8.46194
    endloop
  endfacet
  facet normal 0 0 1
    outer loop
      vertex -66.5 -164.809 -8.46194
      vertex -66.6913 -101 -8.46194
      vertex -66.6353 -164.865 -8.46194
    endloop
  endfacet
  facet normal 0 0 1
    outer loop
      vertex -66.6353 -164.865 -8.46194
      vertex -66.6913 -101 -8.46194
      vertex -66.6913 -164.907 -8.46194
    endloop
  endfacet
  facet normal 0.678123 -0.281295 0.678986
    outer loop
      vertex -66.6913 -101 -8.46194
      vertex -66.6353 -100.865 -8.46194
      vertex -66.8266 -100.673 -8.19134
    endloop
  endfacet
  facet normal -0.215714 -0.520959 -0.825875
    outer loop
      vertex 29.5957 -166 34.0576
      vertex 29.1353 -164.865 33.4619
      vertex 29.7029 -166 34.0296
    endloop
  endfacet
  facet normal -0.215614 -0.520939 -0.825914
    outer loop
      vertex 29.1353 -164.865 33.4619
      vertex 29.5957 -166 34.0576
      vertex 29 -164.809 33.4619
    endloop
  endfacet
  facet normal 0 -0.447316 0.894376
    outer loop
      vertex -66.5 -164.809 -8.46194
      vertex 29.5957 -166 -9.05761
      vertex 29 -164.809 -8.46194
    endloop
  endfacet
  facet normal 0 -0.447316 0.894376
    outer loop
      vertex 29.5957 -166 -9.05761
      vertex -66.5 -164.809 -8.46194
      vertex -67.0957 -166 -9.05761
    endloop
  endfacet
  facet normal 0.894393 -0.447281 0
    outer loop
      vertex -66.9619 -164.944 33.1913
      vertex -67.49 -166 33.8547
      vertex -66.9619 -164.944 -8.19134
    endloop
  endfacet
  facet normal 0.894265 -0.447538 -0.000511404
    outer loop
      vertex -67.49 -166 33.8547
      vertex -66.9619 -164.944 33.1913
      vertex -66.8943 -164.809 33.259
    endloop
  endfacet
  facet normal 0.894265 -0.447538 0.000511606
    outer loop
      vertex -66.9619 -164.944 -8.19134
      vertex -67.49 -166 -8.85466
      vertex -66.8943 -164.809 -8.25899
    endloop
  endfacet
  facet normal 0.894393 -0.447281 0
    outer loop
      vertex -67.49 -166 -8.85466
      vertex -66.9619 -164.944 -8.19134
      vertex -67.49 -166 33.8547
    endloop
  endfacet
  facet normal -0.894393 -0.447281 0
    outer loop
      vertex 29.4619 -164.944 -8.19134
      vertex 29.99 -166 -8.85466
      vertex 29.4619 -164.944 33.1913
    endloop
  endfacet
  facet normal -0.894265 -0.447538 0.000511606
    outer loop
      vertex 29.99 -166 -8.85466
      vertex 29.4619 -164.944 -8.19134
      vertex 29.3943 -164.809 -8.25899
    endloop
  endfacet
  facet normal -0.894265 -0.447538 -0.000511404
    outer loop
      vertex 29.4619 -164.944 33.1913
      vertex 29.99 -166 33.8547
      vertex 29.3943 -164.809 33.259
    endloop
  endfacet
  facet normal -0.894393 -0.447281 -0
    outer loop
      vertex 29.99 -166 33.8547
      vertex 29.4619 -164.944 33.1913
      vertex 29.99 -166 -8.85466
    endloop
  endfacet
  facet normal -0.215856 -0.520971 0.82583
    outer loop
      vertex 29.1353 -164.865 -8.46194
      vertex 29.5957 -166 -9.05761
      vertex 29.7029 -166 -9.02959
    endloop
  endfacet
  facet normal -0.215607 -0.520921 0.825927
    outer loop
      vertex 29.5957 -166 -9.05761
      vertex 29.1353 -164.865 -8.46194
      vertex 29 -164.809 -8.46194
    endloop
  endfacet
  facet normal -0.428797 -0.566448 0.703754
    outer loop
      vertex 29.3943 -164.809 -8.25899
      vertex 29.7029 -166 -9.02959
      vertex 29.99 -166 -8.85466
    endloop
  endfacet
  facet normal -0.429684 -0.566369 0.703277
    outer loop
      vertex 29.1913 -164.907 -8.46194
      vertex 29.7029 -166 -9.02959
      vertex 29.3943 -164.809 -8.25899
    endloop
  endfacet
  facet normal -0.424343 -0.56579 0.706976
    outer loop
      vertex 29.7029 -166 -9.02959
      vertex 29.1913 -164.907 -8.46194
      vertex 29.1353 -164.865 -8.46194
    endloop
  endfacet
  facet normal 0.215607 -0.520921 0.825927
    outer loop
      vertex -66.6353 -164.865 -8.46194
      vertex -67.0957 -166 -9.05761
      vertex -66.5 -164.809 -8.46194
    endloop
  endfacet
  facet normal 0.215856 -0.520971 0.82583
    outer loop
      vertex -67.0957 -166 -9.05761
      vertex -66.6353 -164.865 -8.46194
      vertex -67.2029 -166 -9.02959
    endloop
  endfacet
  facet normal 0 -0.447334 -0.894367
    outer loop
      vertex 29.5957 -166 34.0576
      vertex -66.5 -164.809 33.4619
      vertex 29 -164.809 33.4619
    endloop
  endfacet
  facet normal 0 -0.447334 -0.894367
    outer loop
      vertex -66.5 -164.809 33.4619
      vertex 29.5957 -166 34.0576
      vertex -67.0957 -166 34.0576
    endloop
  endfacet
  facet normal -0.428742 -0.566453 -0.703784
    outer loop
      vertex 29.7029 -166 34.0296
      vertex 29.3943 -164.809 33.259
      vertex 29.99 -166 33.8547
    endloop
  endfacet
  facet normal -0.429568 -0.566379 -0.703339
    outer loop
      vertex 29.7029 -166 34.0296
      vertex 29.1913 -164.907 33.4619
      vertex 29.3943 -164.809 33.259
    endloop
  endfacet
  facet normal -0.424361 -0.565815 -0.706945
    outer loop
      vertex 29.1913 -164.907 33.4619
      vertex 29.7029 -166 34.0296
      vertex 29.1353 -164.865 33.4619
    endloop
  endfacet
  facet normal 0.424361 -0.565815 -0.706945
    outer loop
      vertex -67.2029 -166 34.0296
      vertex -66.6913 -164.907 33.4619
      vertex -66.6353 -164.865 33.4619
    endloop
  endfacet
  facet normal 0.429568 -0.566379 -0.703339
    outer loop
      vertex -67.2029 -166 34.0296
      vertex -66.8943 -164.809 33.259
      vertex -66.6913 -164.907 33.4619
    endloop
  endfacet
  facet normal 0.428742 -0.566453 -0.703784
    outer loop
      vertex -66.8943 -164.809 33.259
      vertex -67.2029 -166 34.0296
      vertex -67.49 -166 33.8547
    endloop
  endfacet
  facet normal 0.215614 -0.520939 -0.825914
    outer loop
      vertex -67.0957 -166 34.0576
      vertex -66.6353 -164.865 33.4619
      vertex -66.5 -164.809 33.4619
    endloop
  endfacet
  facet normal 0.215714 -0.520959 -0.825875
    outer loop
      vertex -66.6353 -164.865 33.4619
      vertex -67.0957 -166 34.0576
      vertex -67.2029 -166 34.0296
    endloop
  endfacet
  facet normal 0.424343 -0.56579 0.706976
    outer loop
      vertex -66.6913 -164.907 -8.46194
      vertex -67.2029 -166 -9.02959
      vertex -66.6353 -164.865 -8.46194
    endloop
  endfacet
  facet normal 0.429684 -0.566369 0.703277
    outer loop
      vertex -66.8943 -164.809 -8.25899
      vertex -67.2029 -166 -9.02959
      vertex -66.6913 -164.907 -8.46194
    endloop
  endfacet
  facet normal 0.428797 -0.566448 0.703754
    outer loop
      vertex -67.2029 -166 -9.02959
      vertex -66.8943 -164.809 -8.25899
      vertex -67.49 -166 -8.85466
    endloop
  endfacet
  facet normal 0.280609 -0.677972 -0.679421
    outer loop
      vertex 31.5 -100.809 33.4619
      vertex 31.3647 -100.865 33.4619
      vertex 31.1734 -100.673 33.1913
    endloop
  endfacet
  facet normal 0 -0.706584 -0.707629
    outer loop
      vertex 31.5 -100.538 33.1913
      vertex 127 -100.809 33.4619
      vertex 31.5 -100.809 33.4619
    endloop
  endfacet
  facet normal 0 -0.706584 -0.707629
    outer loop
      vertex 127 -100.809 33.4619
      vertex 31.5 -100.538 33.1913
      vertex 127 -100.538 33.1913
    endloop
  endfacet
  facet normal 0.678123 -0.281295 -0.678986
    outer loop
      vertex 31.3647 -100.865 33.4619
      vertex 31.3087 -101 33.4619
      vertex 31.1734 -100.673 33.1913
    endloop
  endfacet
  facet normal -0.678313 -0.280038 -0.679316
    outer loop
      vertex 127.327 -100.673 33.1913
      vertex 127.462 -101 33.1913
      vertex 127.191 -101 33.4619
    endloop
  endfacet
  facet normal -0.924326 -0.381603 0
    outer loop
      vertex 127.462 -101 -8.19134
      vertex 127.327 -100.673 33.1913
      vertex 127.327 -100.673 -8.19134
    endloop
  endfacet
  facet normal -0.924326 -0.381603 0
    outer loop
      vertex 127.327 -100.673 33.1913
      vertex 127.462 -101 -8.19134
      vertex 127.462 -101 33.1913
    endloop
  endfacet
  facet normal 0.924027 -0.382327 0
    outer loop
      vertex 31.0381 -101 33.1913
      vertex 31.1734 -100.673 -8.19134
      vertex 31.1734 -100.673 33.1913
    endloop
  endfacet
  facet normal 0.924027 -0.382327 0
    outer loop
      vertex 31.1734 -100.673 -8.19134
      vertex 31.0381 -101 33.1913
      vertex 31.0381 -101 -8.19134
    endloop
  endfacet
  facet normal 0.678123 -0.281295 0.678986
    outer loop
      vertex 31.3087 -101 -8.46194
      vertex 31.3647 -100.865 -8.46194
      vertex 31.1734 -100.673 -8.19134
    endloop
  endfacet
  facet normal 0.382002 -0.924162 0
    outer loop
      vertex 31.1734 -100.673 -8.19134
      vertex 31.5 -100.538 33.1913
      vertex 31.1734 -100.673 33.1913
    endloop
  endfacet
  facet normal 0.382002 -0.924162 0
    outer loop
      vertex 31.5 -100.538 33.1913
      vertex 31.1734 -100.673 -8.19134
      vertex 31.5 -100.538 -8.19134
    endloop
  endfacet
  facet normal -0.678313 -0.280038 0.679316
    outer loop
      vertex 127.462 -101 -8.19134
      vertex 127.327 -100.673 -8.19134
      vertex 127.191 -101 -8.46194
    endloop
  endfacet
  facet normal -1 0 0
    outer loop
      vertex 127.462 -164.944 -8.19134
      vertex 127.462 -101 33.1913
      vertex 127.462 -101 -8.19134
    endloop
  endfacet
  facet normal -1 -0 0
    outer loop
      vertex 127.462 -101 33.1913
      vertex 127.462 -164.944 -8.19134
      vertex 127.462 -164.944 33.1913
    endloop
  endfacet
  facet normal -0.280038 -0.678313 0.679316
    outer loop
      vertex 127.327 -100.673 -8.19134
      vertex 127 -100.538 -8.19134
      vertex 127 -100.809 -8.46194
    endloop
  endfacet
  facet normal 0.280354 -0.678248 -0.679251
    outer loop
      vertex 31.5 -100.538 33.1913
      vertex 31.5 -100.809 33.4619
      vertex 31.1734 -100.673 33.1913
    endloop
  endfacet
  facet normal 1 -0 0
    outer loop
      vertex 31.0381 -164.944 33.1913
      vertex 31.0381 -101 -8.19134
      vertex 31.0381 -101 33.1913
    endloop
  endfacet
  facet normal 1 0 0
    outer loop
      vertex 31.0381 -101 -8.19134
      vertex 31.0381 -164.944 33.1913
      vertex 31.0381 -164.944 -8.19134
    endloop
  endfacet
  facet normal 0 -1 0
    outer loop
      vertex 31.5 -100.538 -8.19134
      vertex 127 -100.538 33.1913
      vertex 31.5 -100.538 33.1913
    endloop
  endfacet
  facet normal 0 -1 -0
    outer loop
      vertex 127 -100.538 33.1913
      vertex 31.5 -100.538 -8.19134
      vertex 127 -100.538 -8.19134
    endloop
  endfacet
  facet normal 0 0 -1
    outer loop
      vertex 127.135 -164.865 33.4619
      vertex 127.191 -101 33.4619
      vertex 127.191 -164.907 33.4619
    endloop
  endfacet
  facet normal 0 0 -1
    outer loop
      vertex 127 -164.809 33.4619
      vertex 127.191 -101 33.4619
      vertex 127.135 -164.865 33.4619
    endloop
  endfacet
  facet normal 0 0 -1
    outer loop
      vertex 127 -100.809 33.4619
      vertex 127.191 -101 33.4619
      vertex 127 -164.809 33.4619
    endloop
  endfacet
  facet normal 0 0 -1
    outer loop
      vertex 127.191 -101 33.4619
      vertex 127 -100.809 33.4619
      vertex 127.135 -100.865 33.4619
    endloop
  endfacet
  facet normal 0 0 -1
    outer loop
      vertex 31.5 -164.809 33.4619
      vertex 127 -100.809 33.4619
      vertex 127 -164.809 33.4619
    endloop
  endfacet
  facet normal 0 0 -1
    outer loop
      vertex 31.5 -164.809 33.4619
      vertex 31.5 -100.809 33.4619
      vertex 127 -100.809 33.4619
    endloop
  endfacet
  facet normal 0 0 -1
    outer loop
      vertex 31.3087 -101 33.4619
      vertex 31.5 -164.809 33.4619
      vertex 31.3647 -164.865 33.4619
    endloop
  endfacet
  facet normal 0 0 -1
    outer loop
      vertex 31.5 -164.809 33.4619
      vertex 31.3087 -101 33.4619
      vertex 31.5 -100.809 33.4619
    endloop
  endfacet
  facet normal 0 0 -1
    outer loop
      vertex 31.3087 -101 33.4619
      vertex 31.3647 -164.865 33.4619
      vertex 31.3087 -164.907 33.4619
    endloop
  endfacet
  facet normal 0 0 -1
    outer loop
      vertex 31.5 -100.809 33.4619
      vertex 31.3087 -101 33.4619
      vertex 31.3647 -100.865 33.4619
    endloop
  endfacet
  facet normal 0.706933 0 -0.707281
    outer loop
      vertex 31.1057 -164.809 33.259
      vertex 31.3087 -101 33.4619
      vertex 31.3087 -164.907 33.4619
    endloop
  endfacet
  facet normal 0.707629 0 -0.706584
    outer loop
      vertex 31.0381 -101 33.1913
      vertex 31.1057 -164.809 33.259
      vertex 31.0381 -164.944 33.1913
    endloop
  endfacet
  facet normal 0.707107 -1.10816e-06 -0.707107
    outer loop
      vertex 31.1057 -164.809 33.259
      vertex 31.0381 -101 33.1913
      vertex 31.3087 -101 33.4619
    endloop
  endfacet
  facet normal 0.678657 -0.280802 -0.678657
    outer loop
      vertex 31.1734 -100.673 33.1913
      vertex 31.3087 -101 33.4619
      vertex 31.0381 -101 33.1913
    endloop
  endfacet
  facet normal -0.677316 -0.280961 -0.67993
    outer loop
      vertex 127.327 -100.673 33.1913
      vertex 127.191 -101 33.4619
      vertex 127.135 -100.865 33.4619
    endloop
  endfacet
  facet normal -0.677316 -0.280961 0.67993
    outer loop
      vertex 127.191 -101 -8.46194
      vertex 127.327 -100.673 -8.19134
      vertex 127.135 -100.865 -8.46194
    endloop
  endfacet
  facet normal -0.381603 -0.924326 0
    outer loop
      vertex 127 -100.538 -8.19134
      vertex 127.327 -100.673 33.1913
      vertex 127 -100.538 33.1913
    endloop
  endfacet
  facet normal -0.381603 -0.924326 -0
    outer loop
      vertex 127.327 -100.673 33.1913
      vertex 127 -100.538 -8.19134
      vertex 127.327 -100.673 -8.19134
    endloop
  endfacet
  facet normal -0.706584 2.21387e-06 -0.707629
    outer loop
      vertex 127.462 -101 33.1913
      vertex 127.394 -164.809 33.259
      vertex 127.191 -101 33.4619
    endloop
  endfacet
  facet normal -0.705542 0 -0.708668
    outer loop
      vertex 127.394 -164.809 33.259
      vertex 127.462 -101 33.1913
      vertex 127.462 -164.944 33.1913
    endloop
  endfacet
  facet normal -0.706933 -0 -0.707281
    outer loop
      vertex 127.191 -101 33.4619
      vertex 127.394 -164.809 33.259
      vertex 127.191 -164.907 33.4619
    endloop
  endfacet
  facet normal -0.280961 -0.677316 -0.67993
    outer loop
      vertex 127.327 -100.673 33.1913
      vertex 127.135 -100.865 33.4619
      vertex 127 -100.809 33.4619
    endloop
  endfacet
  facet normal -0.280038 -0.678313 -0.679316
    outer loop
      vertex 127 -100.538 33.1913
      vertex 127.327 -100.673 33.1913
      vertex 127 -100.809 33.4619
    endloop
  endfacet
  facet normal 0 0 1
    outer loop
      vertex 127 -100.809 -8.46194
      vertex 127.191 -101 -8.46194
      vertex 127.135 -100.865 -8.46194
    endloop
  endfacet
  facet normal 0 0 1
    outer loop
      vertex 127.191 -101 -8.46194
      vertex 127.135 -164.865 -8.46194
      vertex 127.191 -164.907 -8.46194
    endloop
  endfacet
  facet normal 0 0 1
    outer loop
      vertex 127.191 -101 -8.46194
      vertex 127 -100.809 -8.46194
      vertex 127 -164.809 -8.46194
    endloop
  endfacet
  facet normal 0 0 1
    outer loop
      vertex 127.191 -101 -8.46194
      vertex 127 -164.809 -8.46194
      vertex 127.135 -164.865 -8.46194
    endloop
  endfacet
  facet normal -0 0 1
    outer loop
      vertex 31.5 -100.809 -8.46194
      vertex 127 -164.809 -8.46194
      vertex 127 -100.809 -8.46194
    endloop
  endfacet
  facet normal 0 0 1
    outer loop
      vertex 31.5 -100.809 -8.46194
      vertex 31.5 -164.809 -8.46194
      vertex 127 -164.809 -8.46194
    endloop
  endfacet
  facet normal 0 0 1
    outer loop
      vertex 31.3087 -101 -8.46194
      vertex 31.5 -100.809 -8.46194
      vertex 31.3647 -100.865 -8.46194
    endloop
  endfacet
  facet normal 0 0 1
    outer loop
      vertex 31.5 -100.809 -8.46194
      vertex 31.3087 -101 -8.46194
      vertex 31.5 -164.809 -8.46194
    endloop
  endfacet
  facet normal 0 0 1
    outer loop
      vertex 31.5 -164.809 -8.46194
      vertex 31.3087 -101 -8.46194
      vertex 31.3647 -164.865 -8.46194
    endloop
  endfacet
  facet normal 0 0 1
    outer loop
      vertex 31.3647 -164.865 -8.46194
      vertex 31.3087 -101 -8.46194
      vertex 31.3087 -164.907 -8.46194
    endloop
  endfacet
  facet normal 0 -0.706584 0.707629
    outer loop
      vertex 31.5 -100.809 -8.46194
      vertex 127 -100.538 -8.19134
      vertex 31.5 -100.538 -8.19134
    endloop
  endfacet
  facet normal 0 -0.706584 0.707629
    outer loop
      vertex 127 -100.538 -8.19134
      vertex 31.5 -100.809 -8.46194
      vertex 127 -100.809 -8.46194
    endloop
  endfacet
  facet normal -0.706584 2.76836e-06 0.707629
    outer loop
      vertex 127.191 -101 -8.46194
      vertex 127.394 -164.809 -8.25899
      vertex 127.462 -101 -8.19134
    endloop
  endfacet
  facet normal -0.70702 0 0.707194
    outer loop
      vertex 127.394 -164.809 -8.25899
      vertex 127.191 -101 -8.46194
      vertex 127.191 -164.907 -8.46194
    endloop
  endfacet
  facet normal -0.70528 0 0.708929
    outer loop
      vertex 127.462 -101 -8.19134
      vertex 127.394 -164.809 -8.25899
      vertex 127.462 -164.944 -8.19134
    endloop
  endfacet
  facet normal 0.707107 -5.54081e-07 0.707107
    outer loop
      vertex 31.0381 -101 -8.19134
      vertex 31.1057 -164.809 -8.25899
      vertex 31.3087 -101 -8.46194
    endloop
  endfacet
  facet normal 0.707368 0 0.706845
    outer loop
      vertex 31.1057 -164.809 -8.25899
      vertex 31.0381 -101 -8.19134
      vertex 31.0381 -164.944 -8.19134
    endloop
  endfacet
  facet normal 0.70702 0 0.707194
    outer loop
      vertex 31.3087 -101 -8.46194
      vertex 31.1057 -164.809 -8.25899
      vertex 31.3087 -164.907 -8.46194
    endloop
  endfacet
  facet normal -0.280961 -0.677316 0.67993
    outer loop
      vertex 127.135 -100.865 -8.46194
      vertex 127.327 -100.673 -8.19134
      vertex 127 -100.809 -8.46194
    endloop
  endfacet
  facet normal 0.678657 -0.280802 0.678657
    outer loop
      vertex 31.3087 -101 -8.46194
      vertex 31.1734 -100.673 -8.19134
      vertex 31.0381 -101 -8.19134
    endloop
  endfacet
  facet normal 0.280609 -0.677972 0.679421
    outer loop
      vertex 31.3647 -100.865 -8.46194
      vertex 31.5 -100.809 -8.46194
      vertex 31.1734 -100.673 -8.19134
    endloop
  endfacet
  facet normal 0.280354 -0.678248 0.679251
    outer loop
      vertex 31.5 -100.809 -8.46194
      vertex 31.5 -100.538 -8.19134
      vertex 31.1734 -100.673 -8.19134
    endloop
  endfacet
  facet normal 0 -0.447334 -0.894367
    outer loop
      vertex 127.596 -166 34.0576
      vertex 31.5 -164.809 33.4619
      vertex 127 -164.809 33.4619
    endloop
  endfacet
  facet normal 0 -0.447334 -0.894367
    outer loop
      vertex 31.5 -164.809 33.4619
      vertex 127.596 -166 34.0576
      vertex 30.9043 -166 34.0576
    endloop
  endfacet
  facet normal -0.216067 -0.521116 -0.825684
    outer loop
      vertex 127.596 -166 34.0576
      vertex 127.135 -164.865 33.4619
      vertex 127.703 -166 34.0296
    endloop
  endfacet
  facet normal -0.216176 -0.521138 -0.825641
    outer loop
      vertex 127.135 -164.865 33.4619
      vertex 127.596 -166 34.0576
      vertex 127 -164.809 33.4619
    endloop
  endfacet
  facet normal 0 -0.447316 0.894376
    outer loop
      vertex 31.5 -164.809 -8.46194
      vertex 127.596 -166 -9.05761
      vertex 127 -164.809 -8.46194
    endloop
  endfacet
  facet normal 0 -0.447316 0.894376
    outer loop
      vertex 127.596 -166 -9.05761
      vertex 31.5 -164.809 -8.46194
      vertex 30.9043 -166 -9.05761
    endloop
  endfacet
  facet normal -0.216209 -0.521128 0.825638
    outer loop
      vertex 127.135 -164.865 -8.46194
      vertex 127.596 -166 -9.05761
      vertex 127.703 -166 -9.02959
    endloop
  endfacet
  facet normal -0.216168 -0.52112 0.825654
    outer loop
      vertex 127.596 -166 -9.05761
      vertex 127.135 -164.865 -8.46194
      vertex 127 -164.809 -8.46194
    endloop
  endfacet
  facet normal 0.894393 -0.447281 0
    outer loop
      vertex 31.0381 -164.944 33.1913
      vertex 30.51 -166 33.8547
      vertex 31.0381 -164.944 -8.19134
    endloop
  endfacet
  facet normal 0.894265 -0.447538 -0.000511404
    outer loop
      vertex 30.51 -166 33.8547
      vertex 31.0381 -164.944 33.1913
      vertex 31.1057 -164.809 33.259
    endloop
  endfacet
  facet normal 0.894265 -0.447538 0.000511606
    outer loop
      vertex 31.0381 -164.944 -8.19134
      vertex 30.51 -166 -8.85466
      vertex 31.1057 -164.809 -8.25899
    endloop
  endfacet
  facet normal 0.894393 -0.447281 0
    outer loop
      vertex 30.51 -166 -8.85466
      vertex 31.0381 -164.944 -8.19134
      vertex 30.51 -166 33.8547
    endloop
  endfacet
  facet normal -0.894427 -0.447214 0
    outer loop
      vertex 127.462 -164.944 -8.19134
      vertex 127.99 -166 -8.85466
      vertex 127.462 -164.944 33.1913
    endloop
  endfacet
  facet normal -0.893686 -0.448684 0.00293109
    outer loop
      vertex 127.99 -166 -8.85466
      vertex 127.462 -164.944 -8.19134
      vertex 127.394 -164.809 -8.25899
    endloop
  endfacet
  facet normal -0.893686 -0.448684 -0.00292993
    outer loop
      vertex 127.462 -164.944 33.1913
      vertex 127.99 -166 33.8547
      vertex 127.394 -164.809 33.259
    endloop
  endfacet
  facet normal -0.894427 -0.447214 -0
    outer loop
      vertex 127.99 -166 33.8547
      vertex 127.462 -164.944 33.1913
      vertex 127.99 -166 -8.85466
    endloop
  endfacet
  facet normal -0.428875 -0.566536 0.703636
    outer loop
      vertex 127.394 -164.809 -8.25899
      vertex 127.703 -166 -9.02959
      vertex 127.99 -166 -8.85466
    endloop
  endfacet
  facet normal -0.429602 -0.566471 0.703244
    outer loop
      vertex 127.191 -164.907 -8.46194
      vertex 127.703 -166 -9.02959
      vertex 127.394 -164.809 -8.25899
    endloop
  endfacet
  facet normal -0.424432 -0.56591 0.706826
    outer loop
      vertex 127.703 -166 -9.02959
      vertex 127.191 -164.907 -8.46194
      vertex 127.135 -164.865 -8.46194
    endloop
  endfacet
  facet normal 0.215607 -0.520921 0.825927
    outer loop
      vertex 31.3647 -164.865 -8.46194
      vertex 30.9043 -166 -9.05761
      vertex 31.5 -164.809 -8.46194
    endloop
  endfacet
  facet normal 0.215856 -0.520971 0.82583
    outer loop
      vertex 30.9043 -166 -9.05761
      vertex 31.3647 -164.865 -8.46194
      vertex 30.7971 -166 -9.02959
    endloop
  endfacet
  facet normal -0.428819 -0.566541 -0.703666
    outer loop
      vertex 127.703 -166 34.0296
      vertex 127.394 -164.809 33.259
      vertex 127.99 -166 33.8547
    endloop
  endfacet
  facet normal -0.429486 -0.566481 -0.703307
    outer loop
      vertex 127.703 -166 34.0296
      vertex 127.191 -164.907 33.4619
      vertex 127.394 -164.809 33.259
    endloop
  endfacet
  facet normal -0.424451 -0.565935 -0.706795
    outer loop
      vertex 127.191 -164.907 33.4619
      vertex 127.703 -166 34.0296
      vertex 127.135 -164.865 33.4619
    endloop
  endfacet
  facet normal 0.424361 -0.565815 -0.706945
    outer loop
      vertex 30.7971 -166 34.0296
      vertex 31.3087 -164.907 33.4619
      vertex 31.3647 -164.865 33.4619
    endloop
  endfacet
  facet normal 0.429568 -0.566379 -0.703339
    outer loop
      vertex 30.7971 -166 34.0296
      vertex 31.1057 -164.809 33.259
      vertex 31.3087 -164.907 33.4619
    endloop
  endfacet
  facet normal 0.428742 -0.566453 -0.703784
    outer loop
      vertex 31.1057 -164.809 33.259
      vertex 30.7971 -166 34.0296
      vertex 30.51 -166 33.8547
    endloop
  endfacet
  facet normal 0.215614 -0.520939 -0.825914
    outer loop
      vertex 30.9043 -166 34.0576
      vertex 31.3647 -164.865 33.4619
      vertex 31.5 -164.809 33.4619
    endloop
  endfacet
  facet normal 0.215714 -0.520959 -0.825875
    outer loop
      vertex 31.3647 -164.865 33.4619
      vertex 30.9043 -166 34.0576
      vertex 30.7971 -166 34.0296
    endloop
  endfacet
  facet normal 0.424343 -0.56579 0.706976
    outer loop
      vertex 31.3087 -164.907 -8.46194
      vertex 30.7971 -166 -9.02959
      vertex 31.3647 -164.865 -8.46194
    endloop
  endfacet
  facet normal 0.429684 -0.566369 0.703277
    outer loop
      vertex 31.1057 -164.809 -8.25899
      vertex 30.7971 -166 -9.02959
      vertex 31.3087 -164.907 -8.46194
    endloop
  endfacet
  facet normal 0.428797 -0.566448 0.703754
    outer loop
      vertex 30.7971 -166 -9.02959
      vertex 31.1057 -164.809 -8.25899
      vertex 30.51 -166 -8.85466
    endloop
  endfacet
  facet normal -0.705542 0 -0.708668
    outer loop
      vertex 148.394 -164.809 33.259
      vertex 148.462 -101 33.1913
      vertex 148.462 -164.944 33.1913
    endloop
  endfacet
  facet normal -0.706933 -0 -0.707281
    outer loop
      vertex 148.191 -101 33.4619
      vertex 148.394 -164.809 33.259
      vertex 148.191 -164.907 33.4619
    endloop
  endfacet
  facet normal -0.706584 2.21387e-06 -0.707629
    outer loop
      vertex 148.394 -164.809 33.259
      vertex 148.191 -101 33.4619
      vertex 148.462 -101 33.1913
    endloop
  endfacet
  facet normal 0.706933 0 -0.707281
    outer loop
      vertex 129.606 -164.809 33.259
      vertex 129.809 -101 33.4619
      vertex 129.809 -164.907 33.4619
    endloop
  endfacet
  facet normal 0.705542 0 -0.708668
    outer loop
      vertex 129.538 -101 33.1913
      vertex 129.606 -164.809 33.259
      vertex 129.538 -164.944 33.1913
    endloop
  endfacet
  facet normal 0.706584 2.21387e-06 -0.707629
    outer loop
      vertex 129.606 -164.809 33.259
      vertex 129.538 -101 33.1913
      vertex 129.809 -101 33.4619
    endloop
  endfacet
  facet normal -1 0 0
    outer loop
      vertex 148.462 -164.944 -8.19134
      vertex 148.462 -101 33.1913
      vertex 148.462 -101 -8.19134
    endloop
  endfacet
  facet normal -1 -0 0
    outer loop
      vertex 148.462 -101 33.1913
      vertex 148.462 -164.944 -8.19134
      vertex 148.462 -164.944 33.1913
    endloop
  endfacet
  facet normal 0.924326 -0.381603 0
    outer loop
      vertex 129.538 -101 33.1913
      vertex 129.673 -100.673 -8.19134
      vertex 129.673 -100.673 33.1913
    endloop
  endfacet
  facet normal 0.924326 -0.381603 0
    outer loop
      vertex 129.673 -100.673 -8.19134
      vertex 129.538 -101 33.1913
      vertex 129.538 -101 -8.19134
    endloop
  endfacet
  facet normal 0.381603 -0.924326 0
    outer loop
      vertex 129.673 -100.673 -8.19134
      vertex 130 -100.538 33.1913
      vertex 129.673 -100.673 33.1913
    endloop
  endfacet
  facet normal 0.381603 -0.924326 0
    outer loop
      vertex 130 -100.538 33.1913
      vertex 129.673 -100.673 -8.19134
      vertex 130 -100.538 -8.19134
    endloop
  endfacet
  facet normal 1 -0 0
    outer loop
      vertex 129.538 -164.944 33.1913
      vertex 129.538 -101 -8.19134
      vertex 129.538 -101 33.1913
    endloop
  endfacet
  facet normal 1 0 0
    outer loop
      vertex 129.538 -101 -8.19134
      vertex 129.538 -164.944 33.1913
      vertex 129.538 -164.944 -8.19134
    endloop
  endfacet
  facet normal 0 -0.706584 -0.707629
    outer loop
      vertex 130 -100.538 33.1913
      vertex 148 -100.809 33.4619
      vertex 130 -100.809 33.4619
    endloop
  endfacet
  facet normal 0 -0.706584 -0.707629
    outer loop
      vertex 148 -100.809 33.4619
      vertex 130 -100.538 33.1913
      vertex 148 -100.538 33.1913
    endloop
  endfacet
  facet normal -0.280961 -0.677316 -0.67993
    outer loop
      vertex 148.327 -100.673 33.1913
      vertex 148.135 -100.865 33.4619
      vertex 148 -100.809 33.4619
    endloop
  endfacet
  facet normal 0 0 -1
    outer loop
      vertex 148.135 -164.865 33.4619
      vertex 148.191 -101 33.4619
      vertex 148.191 -164.907 33.4619
    endloop
  endfacet
  facet normal 0 0 -1
    outer loop
      vertex 148 -164.809 33.4619
      vertex 148.191 -101 33.4619
      vertex 148.135 -164.865 33.4619
    endloop
  endfacet
  facet normal 0 0 -1
    outer loop
      vertex 130 -164.809 33.4619
      vertex 148.191 -101 33.4619
      vertex 148 -164.809 33.4619
    endloop
  endfacet
  facet normal 0 0 -1
    outer loop
      vertex 129.809 -101 33.4619
      vertex 148.191 -101 33.4619
      vertex 130 -164.809 33.4619
    endloop
  endfacet
  facet normal 0 -0 -1
    outer loop
      vertex 148 -100.809 33.4619
      vertex 148.191 -101 33.4619
      vertex 129.809 -101 33.4619
    endloop
  endfacet
  facet normal 0 0 -1
    outer loop
      vertex 148.191 -101 33.4619
      vertex 148 -100.809 33.4619
      vertex 148.135 -100.865 33.4619
    endloop
  endfacet
  facet normal 0 0 -1
    outer loop
      vertex 129.809 -101 33.4619
      vertex 130 -164.809 33.4619
      vertex 129.865 -164.865 33.4619
    endloop
  endfacet
  facet normal -0 0 -1
    outer loop
      vertex 148 -100.809 33.4619
      vertex 129.809 -101 33.4619
      vertex 130 -100.809 33.4619
    endloop
  endfacet
  facet normal 0 0 -1
    outer loop
      vertex 129.809 -101 33.4619
      vertex 129.865 -164.865 33.4619
      vertex 129.809 -164.907 33.4619
    endloop
  endfacet
  facet normal 0 0 -1
    outer loop
      vertex 130 -100.809 33.4619
      vertex 129.809 -101 33.4619
      vertex 129.865 -100.865 33.4619
    endloop
  endfacet
  facet normal -0.280038 -0.678313 -0.679316
    outer loop
      vertex 148 -100.538 33.1913
      vertex 148.327 -100.673 33.1913
      vertex 148 -100.809 33.4619
    endloop
  endfacet
  facet normal 0.280038 -0.678313 0.679316
    outer loop
      vertex 130 -100.809 -8.46194
      vertex 130 -100.538 -8.19134
      vertex 129.673 -100.673 -8.19134
    endloop
  endfacet
  facet normal -0.678313 -0.280038 -0.679316
    outer loop
      vertex 148.327 -100.673 33.1913
      vertex 148.462 -101 33.1913
      vertex 148.191 -101 33.4619
    endloop
  endfacet
  facet normal 0.677316 -0.280961 -0.67993
    outer loop
      vertex 129.865 -100.865 33.4619
      vertex 129.809 -101 33.4619
      vertex 129.673 -100.673 33.1913
    endloop
  endfacet
  facet normal -0.677316 -0.280961 0.67993
    outer loop
      vertex 148.191 -101 -8.46194
      vertex 148.327 -100.673 -8.19134
      vertex 148.135 -100.865 -8.46194
    endloop
  endfacet
  facet normal 0.678313 -0.280038 -0.679316
    outer loop
      vertex 129.673 -100.673 33.1913
      vertex 129.809 -101 33.4619
      vertex 129.538 -101 33.1913
    endloop
  endfacet
  facet normal -0.677316 -0.280961 -0.67993
    outer loop
      vertex 148.327 -100.673 33.1913
      vertex 148.191 -101 33.4619
      vertex 148.135 -100.865 33.4619
    endloop
  endfacet
  facet normal 0.280038 -0.678313 -0.679316
    outer loop
      vertex 130 -100.538 33.1913
      vertex 130 -100.809 33.4619
      vertex 129.673 -100.673 33.1913
    endloop
  endfacet
  facet normal -0.924326 -0.381603 0
    outer loop
      vertex 148.462 -101 -8.19134
      vertex 148.327 -100.673 33.1913
      vertex 148.327 -100.673 -8.19134
    endloop
  endfacet
  facet normal -0.924326 -0.381603 0
    outer loop
      vertex 148.327 -100.673 33.1913
      vertex 148.462 -101 -8.19134
      vertex 148.462 -101 33.1913
    endloop
  endfacet
  facet normal 0 -1 0
    outer loop
      vertex 130 -100.538 -8.19134
      vertex 148 -100.538 33.1913
      vertex 130 -100.538 33.1913
    endloop
  endfacet
  facet normal 0 -1 -0
    outer loop
      vertex 148 -100.538 33.1913
      vertex 130 -100.538 -8.19134
      vertex 148 -100.538 -8.19134
    endloop
  endfacet
  facet normal 0.280961 -0.677316 -0.67993
    outer loop
      vertex 130 -100.809 33.4619
      vertex 129.865 -100.865 33.4619
      vertex 129.673 -100.673 33.1913
    endloop
  endfacet
  facet normal -0.381603 -0.924326 0
    outer loop
      vertex 148 -100.538 -8.19134
      vertex 148.327 -100.673 33.1913
      vertex 148 -100.538 33.1913
    endloop
  endfacet
  facet normal -0.381603 -0.924326 -0
    outer loop
      vertex 148.327 -100.673 33.1913
      vertex 148 -100.538 -8.19134
      vertex 148.327 -100.673 -8.19134
    endloop
  endfacet
  facet normal 0 -0.706584 0.707629
    outer loop
      vertex 130 -100.809 -8.46194
      vertex 148 -100.538 -8.19134
      vertex 130 -100.538 -8.19134
    endloop
  endfacet
  facet normal 0 -0.706584 0.707629
    outer loop
      vertex 148 -100.538 -8.19134
      vertex 130 -100.809 -8.46194
      vertex 148 -100.809 -8.46194
    endloop
  endfacet
  facet normal -0.280038 -0.678313 0.679316
    outer loop
      vertex 148.327 -100.673 -8.19134
      vertex 148 -100.538 -8.19134
      vertex 148 -100.809 -8.46194
    endloop
  endfacet
  facet normal -0.70528 0 0.708929
    outer loop
      vertex 148.462 -101 -8.19134
      vertex 148.394 -164.809 -8.25899
      vertex 148.462 -164.944 -8.19134
    endloop
  endfacet
  facet normal -0.706584 2.76836e-06 0.707629
    outer loop
      vertex 148.191 -101 -8.46194
      vertex 148.394 -164.809 -8.25899
      vertex 148.462 -101 -8.19134
    endloop
  endfacet
  facet normal -0.70702 0 0.707194
    outer loop
      vertex 148.394 -164.809 -8.25899
      vertex 148.191 -101 -8.46194
      vertex 148.191 -164.907 -8.46194
    endloop
  endfacet
  facet normal -0.678313 -0.280038 0.679316
    outer loop
      vertex 148.462 -101 -8.19134
      vertex 148.327 -100.673 -8.19134
      vertex 148.191 -101 -8.46194
    endloop
  endfacet
  facet normal 0 0 1
    outer loop
      vertex 148 -100.809 -8.46194
      vertex 148.191 -101 -8.46194
      vertex 148.135 -100.865 -8.46194
    endloop
  endfacet
  facet normal 0 0 1
    outer loop
      vertex 148.191 -101 -8.46194
      vertex 148.135 -164.865 -8.46194
      vertex 148.191 -164.907 -8.46194
    endloop
  endfacet
  facet normal 0 0 1
    outer loop
      vertex 148.191 -101 -8.46194
      vertex 148 -100.809 -8.46194
      vertex 129.809 -101 -8.46194
    endloop
  endfacet
  facet normal 0 0 1
    outer loop
      vertex 148.191 -101 -8.46194
      vertex 148 -164.809 -8.46194
      vertex 148.135 -164.865 -8.46194
    endloop
  endfacet
  facet normal 0 0 1
    outer loop
      vertex 129.809 -101 -8.46194
      vertex 148 -100.809 -8.46194
      vertex 130 -100.809 -8.46194
    endloop
  endfacet
  facet normal 0 0 1
    outer loop
      vertex 148.191 -101 -8.46194
      vertex 129.809 -101 -8.46194
      vertex 148 -164.809 -8.46194
    endloop
  endfacet
  facet normal 0 0 1
    outer loop
      vertex 129.809 -101 -8.46194
      vertex 130 -100.809 -8.46194
      vertex 129.865 -100.865 -8.46194
    endloop
  endfacet
  facet normal 0 0 1
    outer loop
      vertex 148 -164.809 -8.46194
      vertex 129.809 -101 -8.46194
      vertex 130 -164.809 -8.46194
    endloop
  endfacet
  facet normal 0 0 1
    outer loop
      vertex 130 -164.809 -8.46194
      vertex 129.809 -101 -8.46194
      vertex 129.865 -164.865 -8.46194
    endloop
  endfacet
  facet normal 0 0 1
    outer loop
      vertex 129.865 -164.865 -8.46194
      vertex 129.809 -101 -8.46194
      vertex 129.809 -164.907 -8.46194
    endloop
  endfacet
  facet normal 0.280961 -0.677316 0.67993
    outer loop
      vertex 129.865 -100.865 -8.46194
      vertex 130 -100.809 -8.46194
      vertex 129.673 -100.673 -8.19134
    endloop
  endfacet
  facet normal -0.280961 -0.677316 0.67993
    outer loop
      vertex 148.135 -100.865 -8.46194
      vertex 148.327 -100.673 -8.19134
      vertex 148 -100.809 -8.46194
    endloop
  endfacet
  facet normal 0.70702 0 0.707194
    outer loop
      vertex 129.809 -101 -8.46194
      vertex 129.606 -164.809 -8.25899
      vertex 129.809 -164.907 -8.46194
    endloop
  endfacet
  facet normal 0.706584 2.76836e-06 0.707629
    outer loop
      vertex 129.538 -101 -8.19134
      vertex 129.606 -164.809 -8.25899
      vertex 129.809 -101 -8.46194
    endloop
  endfacet
  facet normal 0.70528 0 0.708929
    outer loop
      vertex 129.606 -164.809 -8.25899
      vertex 129.538 -101 -8.19134
      vertex 129.538 -164.944 -8.19134
    endloop
  endfacet
  facet normal 0.678313 -0.280038 0.679316
    outer loop
      vertex 129.809 -101 -8.46194
      vertex 129.673 -100.673 -8.19134
      vertex 129.538 -101 -8.19134
    endloop
  endfacet
  facet normal 0.677316 -0.280961 0.67993
    outer loop
      vertex 129.809 -101 -8.46194
      vertex 129.865 -100.865 -8.46194
      vertex 129.673 -100.673 -8.19134
    endloop
  endfacet
  facet normal 0 -0.447334 -0.894367
    outer loop
      vertex 148.596 -166 34.0576
      vertex 130 -164.809 33.4619
      vertex 148 -164.809 33.4619
    endloop
  endfacet
  facet normal 0 -0.447334 -0.894367
    outer loop
      vertex 130 -164.809 33.4619
      vertex 148.596 -166 34.0576
      vertex 129.404 -166 34.0576
    endloop
  endfacet
  facet normal 0 -0.447316 0.894376
    outer loop
      vertex 130 -164.809 -8.46194
      vertex 148.596 -166 -9.05761
      vertex 148 -164.809 -8.46194
    endloop
  endfacet
  facet normal 0 -0.447316 0.894376
    outer loop
      vertex 148.596 -166 -9.05761
      vertex 130 -164.809 -8.46194
      vertex 129.404 -166 -9.05761
    endloop
  endfacet
  facet normal 0.216168 -0.52112 0.825654
    outer loop
      vertex 129.865 -164.865 -8.46194
      vertex 129.404 -166 -9.05761
      vertex 130 -164.809 -8.46194
    endloop
  endfacet
  facet normal 0.216209 -0.521128 0.825638
    outer loop
      vertex 129.404 -166 -9.05761
      vertex 129.865 -164.865 -8.46194
      vertex 129.297 -166 -9.02959
    endloop
  endfacet
  facet normal -0.428875 -0.566536 0.703636
    outer loop
      vertex 148.394 -164.809 -8.25899
      vertex 148.703 -166 -9.02959
      vertex 148.99 -166 -8.85466
    endloop
  endfacet
  facet normal -0.429602 -0.566471 0.703244
    outer loop
      vertex 148.191 -164.907 -8.46194
      vertex 148.703 -166 -9.02959
      vertex 148.394 -164.809 -8.25899
    endloop
  endfacet
  facet normal -0.424432 -0.56591 0.706826
    outer loop
      vertex 148.703 -166 -9.02959
      vertex 148.191 -164.907 -8.46194
      vertex 148.135 -164.865 -8.46194
    endloop
  endfacet
  facet normal -0.894427 -0.447214 0
    outer loop
      vertex 148.462 -164.944 -8.19134
      vertex 148.99 -166 -8.85466
      vertex 148.462 -164.944 33.1913
    endloop
  endfacet
  facet normal -0.893686 -0.448684 0.00293109
    outer loop
      vertex 148.99 -166 -8.85466
      vertex 148.462 -164.944 -8.19134
      vertex 148.394 -164.809 -8.25899
    endloop
  endfacet
  facet normal -0.893686 -0.448684 -0.00292993
    outer loop
      vertex 148.462 -164.944 33.1913
      vertex 148.99 -166 33.8547
      vertex 148.394 -164.809 33.259
    endloop
  endfacet
  facet normal -0.894427 -0.447214 -0
    outer loop
      vertex 148.99 -166 33.8547
      vertex 148.462 -164.944 33.1913
      vertex 148.99 -166 -8.85466
    endloop
  endfacet
  facet normal -0.216209 -0.521128 0.825638
    outer loop
      vertex 148.135 -164.865 -8.46194
      vertex 148.596 -166 -9.05761
      vertex 148.703 -166 -9.02959
    endloop
  endfacet
  facet normal -0.216168 -0.52112 0.825654
    outer loop
      vertex 148.596 -166 -9.05761
      vertex 148.135 -164.865 -8.46194
      vertex 148 -164.809 -8.46194
    endloop
  endfacet
  facet normal 0.424451 -0.565935 -0.706795
    outer loop
      vertex 129.297 -166 34.0296
      vertex 129.809 -164.907 33.4619
      vertex 129.865 -164.865 33.4619
    endloop
  endfacet
  facet normal 0.429486 -0.566481 -0.703307
    outer loop
      vertex 129.297 -166 34.0296
      vertex 129.606 -164.809 33.259
      vertex 129.809 -164.907 33.4619
    endloop
  endfacet
  facet normal 0.428819 -0.566541 -0.703666
    outer loop
      vertex 129.606 -164.809 33.259
      vertex 129.297 -166 34.0296
      vertex 129.01 -166 33.8547
    endloop
  endfacet
  facet normal -0.428819 -0.566541 -0.703666
    outer loop
      vertex 148.703 -166 34.0296
      vertex 148.394 -164.809 33.259
      vertex 148.99 -166 33.8547
    endloop
  endfacet
  facet normal -0.429486 -0.566481 -0.703307
    outer loop
      vertex 148.703 -166 34.0296
      vertex 148.191 -164.907 33.4619
      vertex 148.394 -164.809 33.259
    endloop
  endfacet
  facet normal -0.424451 -0.565935 -0.706795
    outer loop
      vertex 148.191 -164.907 33.4619
      vertex 148.703 -166 34.0296
      vertex 148.135 -164.865 33.4619
    endloop
  endfacet
  facet normal 0.894427 -0.447214 0
    outer loop
      vertex 129.538 -164.944 33.1913
      vertex 129.01 -166 33.8547
      vertex 129.538 -164.944 -8.19134
    endloop
  endfacet
  facet normal 0.893686 -0.448684 -0.00292993
    outer loop
      vertex 129.01 -166 33.8547
      vertex 129.538 -164.944 33.1913
      vertex 129.606 -164.809 33.259
    endloop
  endfacet
  facet normal 0.893686 -0.448684 0.00293109
    outer loop
      vertex 129.538 -164.944 -8.19134
      vertex 129.01 -166 -8.85466
      vertex 129.606 -164.809 -8.25899
    endloop
  endfacet
  facet normal 0.894427 -0.447214 0
    outer loop
      vertex 129.01 -166 -8.85466
      vertex 129.538 -164.944 -8.19134
      vertex 129.01 -166 33.8547
    endloop
  endfacet
  facet normal 0.216176 -0.521138 -0.825641
    outer loop
      vertex 129.404 -166 34.0576
      vertex 129.865 -164.865 33.4619
      vertex 130 -164.809 33.4619
    endloop
  endfacet
  facet normal 0.216067 -0.521116 -0.825684
    outer loop
      vertex 129.865 -164.865 33.4619
      vertex 129.404 -166 34.0576
      vertex 129.297 -166 34.0296
    endloop
  endfacet
  facet normal 0.424432 -0.56591 0.706826
    outer loop
      vertex 129.809 -164.907 -8.46194
      vertex 129.297 -166 -9.02959
      vertex 129.865 -164.865 -8.46194
    endloop
  endfacet
  facet normal 0.429602 -0.566471 0.703244
    outer loop
      vertex 129.606 -164.809 -8.25899
      vertex 129.297 -166 -9.02959
      vertex 129.809 -164.907 -8.46194
    endloop
  endfacet
  facet normal 0.428875 -0.566536 0.703636
    outer loop
      vertex 129.297 -166 -9.02959
      vertex 129.606 -164.809 -8.25899
      vertex 129.01 -166 -8.85466
    endloop
  endfacet
  facet normal -0.216067 -0.521116 -0.825684
    outer loop
      vertex 148.596 -166 34.0576
      vertex 148.135 -164.865 33.4619
      vertex 148.703 -166 34.0296
    endloop
  endfacet
  facet normal -0.216176 -0.521138 -0.825641
    outer loop
      vertex 148.135 -164.865 33.4619
      vertex 148.596 -166 34.0576
      vertex 148 -164.809 33.4619
    endloop
  endfacet
  facet normal 1 -0 0
    outer loop
      vertex 150 -166 35
      vertex 150 -100 -10
      vertex 150 -100 35
    endloop
  endfacet
  facet normal 1 0 0
    outer loop
      vertex 150 -100 -10
      vertex 150 -166 35
      vertex 150 -166 -10
    endloop
  endfacet
  facet normal -0 0 1
    outer loop
      vertex -68 -100 35
      vertex 150 -166 35
      vertex 150 -100 35
    endloop
  endfacet
  facet normal 0 0 1
    outer loop
      vertex 150 -166 35
      vertex -68 -100 35
      vertex -68 -166 35
    endloop
  endfacet
  facet normal 0 0 -1
    outer loop
      vertex -68 -166 -10
      vertex 150 -100 -10
      vertex 150 -166 -10
    endloop
  endfacet
  facet normal -0 0 -1
    outer loop
      vertex 150 -100 -10
      vertex -68 -166 -10
      vertex -68 -100 -10
    endloop
  endfacet
  facet normal -1 0 0
    outer loop
      vertex -68 -166 -10
      vertex -68 -100 35
      vertex -68 -100 -10
    endloop
  endfacet
  facet normal -1 -0 0
    outer loop
      vertex -68 -100 35
      vertex -68 -166 -10
      vertex -68 -166 35
    endloop
  endfacet
  facet normal 0 1 -0
    outer loop
      vertex 150 -100 -10
      vertex -68 -100 35
      vertex 150 -100 35
    endloop
  endfacet
  facet normal 0 1 0
    outer loop
      vertex -68 -100 35
      vertex 150 -100 -10
      vertex -68 -100 -10
    endloop
  endfacet
  facet normal 0 -1 0
    outer loop
      vertex 127.703 -166 34.0296
      vertex 129.404 -166 34.0576
      vertex 127.596 -166 34.0576
    endloop
  endfacet
  facet normal 0 -1 0
    outer loop
      vertex 127.703 -166 34.0296
      vertex 129.297 -166 34.0296
      vertex 129.404 -166 34.0576
    endloop
  endfacet
  facet normal 0 -1 0
    outer loop
      vertex 127.99 -166 33.8547
      vertex 129.297 -166 34.0296
      vertex 127.703 -166 34.0296
    endloop
  endfacet
  facet normal 0 -1 0
    outer loop
      vertex 127.99 -166 33.8547
      vertex 129.01 -166 33.8547
      vertex 129.297 -166 34.0296
    endloop
  endfacet
  facet normal 0 -1 0
    outer loop
      vertex 127.99 -166 -8.85466
      vertex 129.01 -166 33.8547
      vertex 127.99 -166 33.8547
    endloop
  endfacet
  facet normal 0 -1 0
    outer loop
      vertex 127.99 -166 -8.85466
      vertex 129.01 -166 -8.85466
      vertex 129.01 -166 33.8547
    endloop
  endfacet
  facet normal 0 -1 0
    outer loop
      vertex 127.703 -166 -9.02959
      vertex 129.01 -166 -8.85466
      vertex 127.99 -166 -8.85466
    endloop
  endfacet
  facet normal 0 -1 0
    outer loop
      vertex 127.703 -166 -9.02959
      vertex 129.297 -166 -9.02959
      vertex 129.01 -166 -8.85466
    endloop
  endfacet
  facet normal 0 -1 0
    outer loop
      vertex 127.596 -166 -9.05761
      vertex 129.297 -166 -9.02959
      vertex 127.703 -166 -9.02959
    endloop
  endfacet
  facet normal 0 -1 -0
    outer loop
      vertex 129.297 -166 -9.02959
      vertex 127.596 -166 -9.05761
      vertex 129.404 -166 -9.05761
    endloop
  endfacet
  facet normal 0 -1 0
    outer loop
      vertex 29.7029 -166 34.0296
      vertex 30.9043 -166 34.0576
      vertex 29.5957 -166 34.0576
    endloop
  endfacet
  facet normal 0 -1 0
    outer loop
      vertex 29.7029 -166 34.0296
      vertex 30.7971 -166 34.0296
      vertex 30.9043 -166 34.0576
    endloop
  endfacet
  facet normal 0 -1 0
    outer loop
      vertex 29.99 -166 33.8547
      vertex 30.7971 -166 34.0296
      vertex 29.7029 -166 34.0296
    endloop
  endfacet
  facet normal 0 -1 0
    outer loop
      vertex 29.99 -166 33.8547
      vertex 30.51 -166 33.8547
      vertex 30.7971 -166 34.0296
    endloop
  endfacet
  facet normal 0 -1 0
    outer loop
      vertex 29.99 -166 -8.85466
      vertex 30.51 -166 33.8547
      vertex 29.99 -166 33.8547
    endloop
  endfacet
  facet normal 0 -1 0
    outer loop
      vertex 29.99 -166 -8.85466
      vertex 30.51 -166 -8.85466
      vertex 30.51 -166 33.8547
    endloop
  endfacet
  facet normal 0 -1 0
    outer loop
      vertex 29.7029 -166 -9.02959
      vertex 30.51 -166 -8.85466
      vertex 29.99 -166 -8.85466
    endloop
  endfacet
  facet normal 0 -1 0
    outer loop
      vertex 29.7029 -166 -9.02959
      vertex 30.7971 -166 -9.02959
      vertex 30.51 -166 -8.85466
    endloop
  endfacet
  facet normal 0 -1 0
    outer loop
      vertex 29.5957 -166 -9.05761
      vertex 30.7971 -166 -9.02959
      vertex 29.7029 -166 -9.02959
    endloop
  endfacet
  facet normal 0 -1 -0
    outer loop
      vertex 30.7971 -166 -9.02959
      vertex 29.5957 -166 -9.05761
      vertex 30.9043 -166 -9.05761
    endloop
  endfacet
  facet normal 0 -1 0
    outer loop
      vertex 29.5957 -166 34.0576
      vertex -68 -166 35
      vertex -67.0957 -166 34.0576
    endloop
  endfacet
  facet normal 0 -1 0
    outer loop
      vertex -68 -166 35
      vertex -67.2029 -166 34.0296
      vertex -67.0957 -166 34.0576
    endloop
  endfacet
  facet normal 0 -1 0
    outer loop
      vertex -68 -166 35
      vertex -67.49 -166 33.8547
      vertex -67.2029 -166 34.0296
    endloop
  endfacet
  facet normal 0 -1 0
    outer loop
      vertex -68 -166 35
      vertex -67.49 -166 -8.85466
      vertex -67.49 -166 33.8547
    endloop
  endfacet
  facet normal 0 -1 0
    outer loop
      vertex -68 -166 -10
      vertex 29.5957 -166 -9.05761
      vertex -67.0957 -166 -9.05761
    endloop
  endfacet
  facet normal 0 -1 -0
    outer loop
      vertex 29.5957 -166 -9.05761
      vertex -68 -166 -10
      vertex 30.9043 -166 -9.05761
    endloop
  endfacet
  facet normal 0 -1 0
    outer loop
      vertex 150 -166 -10
      vertex 30.9043 -166 -9.05761
      vertex -68 -166 -10
    endloop
  endfacet
  facet normal 0 -1 0
    outer loop
      vertex 30.9043 -166 -9.05761
      vertex 150 -166 -10
      vertex 127.596 -166 -9.05761
    endloop
  endfacet
  facet normal 0 -1 0
    outer loop
      vertex 127.596 -166 -9.05761
      vertex 150 -166 -10
      vertex 129.404 -166 -9.05761
    endloop
  endfacet
  facet normal 0 -1 -0
    outer loop
      vertex -67.2029 -166 -9.02959
      vertex -68 -166 -10
      vertex -67.0957 -166 -9.05761
    endloop
  endfacet
  facet normal 0 -1 -0
    outer loop
      vertex -67.49 -166 -8.85466
      vertex -68 -166 -10
      vertex -67.2029 -166 -9.02959
    endloop
  endfacet
  facet normal 0 -1 0
    outer loop
      vertex -68 -166 -10
      vertex -67.49 -166 -8.85466
      vertex -68 -166 35
    endloop
  endfacet
  facet normal 0 -1 0
    outer loop
      vertex -68 -166 35
      vertex 29.5957 -166 34.0576
      vertex 150 -166 35
    endloop
  endfacet
  facet normal 0 -1 0
    outer loop
      vertex 30.9043 -166 34.0576
      vertex 150 -166 35
      vertex 29.5957 -166 34.0576
    endloop
  endfacet
  facet normal 0 -1 0
    outer loop
      vertex 127.596 -166 34.0576
      vertex 150 -166 35
      vertex 30.9043 -166 34.0576
    endloop
  endfacet
  facet normal 0 -1 0
    outer loop
      vertex 129.404 -166 34.0576
      vertex 150 -166 35
      vertex 127.596 -166 34.0576
    endloop
  endfacet
  facet normal 0 -1 0
    outer loop
      vertex 148.596 -166 34.0576
      vertex 150 -166 35
      vertex 129.404 -166 34.0576
    endloop
  endfacet
  facet normal 0 -1 0
    outer loop
      vertex 148.703 -166 34.0296
      vertex 150 -166 35
      vertex 148.596 -166 34.0576
    endloop
  endfacet
  facet normal 0 -1 0
    outer loop
      vertex 148.99 -166 33.8547
      vertex 150 -166 35
      vertex 148.703 -166 34.0296
    endloop
  endfacet
  facet normal 0 -1 0
    outer loop
      vertex 148.99 -166 -8.85466
      vertex 150 -166 35
      vertex 148.99 -166 33.8547
    endloop
  endfacet
  facet normal 0 -1 0
    outer loop
      vertex 148.99 -166 -8.85466
      vertex 150 -166 -10
      vertex 150 -166 35
    endloop
  endfacet
  facet normal 0 -1 0
    outer loop
      vertex 148.703 -166 -9.02959
      vertex 150 -166 -10
      vertex 148.99 -166 -8.85466
    endloop
  endfacet
  facet normal 0 -1 0
    outer loop
      vertex 148.596 -166 -9.05761
      vertex 150 -166 -10
      vertex 148.703 -166 -9.02959
    endloop
  endfacet
  facet normal 0 -1 0
    outer loop
      vertex 129.404 -166 -9.05761
      vertex 150 -166 -10
      vertex 148.596 -166 -9.05761
    endloop
  endfacet
endsolid OpenSCAD_Model
