solid OpenSCAD_Model
  facet normal 1 -0 0
    outer loop
      vertex 148 -164 10
      vertex 148 -120 -8
      vertex 148 -120 10
    endloop
  endfacet
  facet normal 1 0 0
    outer loop
      vertex 148 -120 -8
      vertex 148 -164 10
      vertex 148 -164 -8
    endloop
  endfacet
  facet normal 0 0 1
    outer loop
      vertex 148 -120 10
      vertex 146.424 -122.5 10
      vertex 148 -164 10
    endloop
  endfacet
  facet normal 0 0 1
    outer loop
      vertex 148 -120 10
      vertex 146.153 -121.847 10
      vertex 146.424 -122.5 10
    endloop
  endfacet
  facet normal 0 0 1
    outer loop
      vertex 148 -120 10
      vertex 145.5 -121.576 10
      vertex 146.153 -121.847 10
    endloop
  endfacet
  facet normal 0 0 1
    outer loop
      vertex 148 -120 10
      vertex 70.5 -121.576 10
      vertex 145.5 -121.576 10
    endloop
  endfacet
  facet normal 0 0 1
    outer loop
      vertex 69.5761 -122.5 10
      vertex 68 -120 10
      vertex 69.5761 -161.5 10
    endloop
  endfacet
  facet normal 0 0 1
    outer loop
      vertex 69.8467 -121.847 10
      vertex 68 -120 10
      vertex 69.5761 -122.5 10
    endloop
  endfacet
  facet normal 0 0 1
    outer loop
      vertex 70.5 -121.576 10
      vertex 68 -120 10
      vertex 69.8467 -121.847 10
    endloop
  endfacet
  facet normal -0 0 1
    outer loop
      vertex 68 -120 10
      vertex 70.5 -121.576 10
      vertex 148 -120 10
    endloop
  endfacet
  facet normal -0 0 1
    outer loop
      vertex 146.424 -161.5 10
      vertex 148 -164 10
      vertex 146.424 -122.5 10
    endloop
  endfacet
  facet normal -0 0 1
    outer loop
      vertex 146.153 -162.153 10
      vertex 148 -164 10
      vertex 146.424 -161.5 10
    endloop
  endfacet
  facet normal -0 0 1
    outer loop
      vertex 145.5 -162.424 10
      vertex 148 -164 10
      vertex 146.153 -162.153 10
    endloop
  endfacet
  facet normal -0 0 1
    outer loop
      vertex 70.5 -162.424 10
      vertex 148 -164 10
      vertex 145.5 -162.424 10
    endloop
  endfacet
  facet normal 0 0 1
    outer loop
      vertex 70.5 -162.424 10
      vertex 68 -164 10
      vertex 148 -164 10
    endloop
  endfacet
  facet normal 0 0 1
    outer loop
      vertex 69.8467 -162.153 10
      vertex 68 -164 10
      vertex 70.5 -162.424 10
    endloop
  endfacet
  facet normal 0 0 1
    outer loop
      vertex 69.5761 -161.5 10
      vertex 68 -164 10
      vertex 69.8467 -162.153 10
    endloop
  endfacet
  facet normal 0 0 1
    outer loop
      vertex 68 -164 10
      vertex 69.5761 -161.5 10
      vertex 68 -120 10
    endloop
  endfacet
  facet normal 0 0 -1
    outer loop
      vertex 68 -164 -8
      vertex 148 -120 -8
      vertex 148 -164 -8
    endloop
  endfacet
  facet normal -0 0 -1
    outer loop
      vertex 148 -120 -8
      vertex 68 -164 -8
      vertex 68 -120 -8
    endloop
  endfacet
  facet normal -1 0 0
    outer loop
      vertex 68 -164 -8
      vertex 68 -120 10
      vertex 68 -120 -8
    endloop
  endfacet
  facet normal -1 -0 0
    outer loop
      vertex 68 -120 10
      vertex 68 -164 -8
      vertex 68 -164 10
    endloop
  endfacet
  facet normal 0 1 -0
    outer loop
      vertex 148 -120 -8
      vertex 68 -120 10
      vertex 148 -120 10
    endloop
  endfacet
  facet normal 0 1 0
    outer loop
      vertex 68 -120 10
      vertex 148 -120 -8
      vertex 68 -120 -8
    endloop
  endfacet
  facet normal 0 -1 0
    outer loop
      vertex 68 -164 -8
      vertex 148 -164 10
      vertex 68 -164 10
    endloop
  endfacet
  facet normal 0 -1 -0
    outer loop
      vertex 148 -164 10
      vertex 68 -164 -8
      vertex 148 -164 -8
    endloop
  endfacet
  facet normal -0.28082 0.679485 0.677821
    outer loop
      vertex 146.153 -162.153 -5.88268
      vertex 145.771 -161.771 -6.42388
      vertex 145.5 -161.883 -6.42388
    endloop
  endfacet
  facet normal 0 -1 0
    outer loop
      vertex 70.5 -121.576 -5.88268
      vertex 145.5 -121.576 10
      vertex 70.5 -121.576 10
    endloop
  endfacet
  facet normal 0 -1 -0
    outer loop
      vertex 145.5 -121.576 10
      vertex 70.5 -121.576 -5.88268
      vertex 145.5 -121.576 -5.88268
    endloop
  endfacet
  facet normal -1 0 0
    outer loop
      vertex 146.424 -161.5 -5.88268
      vertex 146.424 -122.5 10
      vertex 146.424 -122.5 -5.88268
    endloop
  endfacet
  facet normal -1 -0 0
    outer loop
      vertex 146.424 -122.5 10
      vertex 146.424 -161.5 -5.88268
      vertex 146.424 -161.5 10
    endloop
  endfacet
  facet normal -0.281629 -0.678611 0.67836
    outer loop
      vertex 146.153 -121.847 -5.88268
      vertex 145.5 -121.576 -5.88268
      vertex 145.5 -122.117 -6.42388
    endloop
  endfacet
  facet normal -0.28082 -0.679485 0.677821
    outer loop
      vertex 145.771 -122.229 -6.42388
      vertex 146.153 -121.847 -5.88268
      vertex 145.5 -122.117 -6.42388
    endloop
  endfacet
  facet normal -0.92362 0.383309 0
    outer loop
      vertex 146.153 -162.153 -5.88268
      vertex 146.424 -161.5 10
      vertex 146.424 -161.5 -5.88268
    endloop
  endfacet
  facet normal -0.92362 0.383309 0
    outer loop
      vertex 146.424 -161.5 10
      vertex 146.153 -162.153 -5.88268
      vertex 146.153 -162.153 10
    endloop
  endfacet
  facet normal 0.28151 0.678636 0.678385
    outer loop
      vertex 70.5 -162.424 -5.88268
      vertex 70.5 -161.883 -6.42388
      vertex 69.8467 -162.153 -5.88268
    endloop
  endfacet
  facet normal 0.281077 0.679103 0.678096
    outer loop
      vertex 70.5 -161.883 -6.42388
      vertex 70.2294 -161.771 -6.42388
      vertex 69.8467 -162.153 -5.88268
    endloop
  endfacet
  facet normal -0.707237 0 0.706976
    outer loop
      vertex 145.883 -161.5 -6.42388
      vertex 146.424 -122.5 -5.88268
      vertex 145.883 -122.5 -6.42388
    endloop
  endfacet
  facet normal -0.707237 0 0.706976
    outer loop
      vertex 146.424 -122.5 -5.88268
      vertex 145.883 -161.5 -6.42388
      vertex 146.424 -161.5 -5.88268
    endloop
  endfacet
  facet normal 0.383159 -0.923682 0
    outer loop
      vertex 69.8467 -121.847 -5.88268
      vertex 70.5 -121.576 10
      vertex 69.8467 -121.847 10
    endloop
  endfacet
  facet normal 0.383159 -0.923682 0
    outer loop
      vertex 70.5 -121.576 10
      vertex 69.8467 -121.847 -5.88268
      vertex 70.5 -121.576 -5.88268
    endloop
  endfacet
  facet normal -0.678611 0.281629 0.67836
    outer loop
      vertex 146.153 -162.153 -5.88268
      vertex 146.424 -161.5 -5.88268
      vertex 145.883 -161.5 -6.42388
    endloop
  endfacet
  facet normal -0.281629 0.678611 0.67836
    outer loop
      vertex 146.153 -162.153 -5.88268
      vertex 145.5 -161.883 -6.42388
      vertex 145.5 -162.424 -5.88268
    endloop
  endfacet
  facet normal -0.383309 0.92362 0
    outer loop
      vertex 146.153 -162.153 -5.88268
      vertex 145.5 -162.424 10
      vertex 146.153 -162.153 10
    endloop
  endfacet
  facet normal -0.383309 0.92362 0
    outer loop
      vertex 145.5 -162.424 10
      vertex 146.153 -162.153 -5.88268
      vertex 145.5 -162.424 -5.88268
    endloop
  endfacet
  facet normal -0.92362 -0.383309 0
    outer loop
      vertex 146.424 -122.5 -5.88268
      vertex 146.153 -121.847 10
      vertex 146.153 -121.847 -5.88268
    endloop
  endfacet
  facet normal -0.92362 -0.383309 0
    outer loop
      vertex 146.153 -121.847 10
      vertex 146.424 -122.5 -5.88268
      vertex 146.424 -122.5 10
    endloop
  endfacet
  facet normal 0.383159 0.923682 -0
    outer loop
      vertex 70.5 -162.424 -5.88268
      vertex 69.8467 -162.153 10
      vertex 70.5 -162.424 10
    endloop
  endfacet
  facet normal 0.383159 0.923682 0
    outer loop
      vertex 69.8467 -162.153 10
      vertex 70.5 -162.424 -5.88268
      vertex 69.8467 -162.153 -5.88268
    endloop
  endfacet
  facet normal 0.92382 -0.382827 0
    outer loop
      vertex 69.5761 -122.5 10
      vertex 69.8467 -121.847 -5.88268
      vertex 69.8467 -121.847 10
    endloop
  endfacet
  facet normal 0.92382 -0.382827 0
    outer loop
      vertex 69.8467 -121.847 -5.88268
      vertex 69.5761 -122.5 10
      vertex 69.5761 -122.5 -5.88268
    endloop
  endfacet
  facet normal 0.678951 -0.28085 0.678343
    outer loop
      vertex 70.1173 -122.5 -6.42388
      vertex 70.2294 -122.229 -6.42388
      vertex 69.8467 -121.847 -5.88268
    endloop
  endfacet
  facet normal -0.678611 -0.281629 0.67836
    outer loop
      vertex 146.424 -122.5 -5.88268
      vertex 146.153 -121.847 -5.88268
      vertex 145.883 -122.5 -6.42388
    endloop
  endfacet
  facet normal 0.678951 0.28085 0.678343
    outer loop
      vertex 70.2294 -161.771 -6.42388
      vertex 70.1173 -161.5 -6.42388
      vertex 69.8467 -162.153 -5.88268
    endloop
  endfacet
  facet normal 0 1 -0
    outer loop
      vertex 145.5 -162.424 -5.88268
      vertex 70.5 -162.424 10
      vertex 145.5 -162.424 10
    endloop
  endfacet
  facet normal 0 1 0
    outer loop
      vertex 70.5 -162.424 10
      vertex 145.5 -162.424 -5.88268
      vertex 70.5 -162.424 -5.88268
    endloop
  endfacet
  facet normal 0 -0.707237 0.706976
    outer loop
      vertex 70.5 -121.576 -5.88268
      vertex 145.5 -122.117 -6.42388
      vertex 145.5 -121.576 -5.88268
    endloop
  endfacet
  facet normal 0 -0.707237 0.706976
    outer loop
      vertex 145.5 -122.117 -6.42388
      vertex 70.5 -121.576 -5.88268
      vertex 70.5 -122.117 -6.42388
    endloop
  endfacet
  facet normal 0.678575 -0.281198 0.678575
    outer loop
      vertex 70.1173 -122.5 -6.42388
      vertex 69.8467 -121.847 -5.88268
      vertex 69.5761 -122.5 -5.88268
    endloop
  endfacet
  facet normal -0.383309 -0.92362 0
    outer loop
      vertex 145.5 -121.576 -5.88268
      vertex 146.153 -121.847 10
      vertex 145.5 -121.576 10
    endloop
  endfacet
  facet normal -0.383309 -0.92362 -0
    outer loop
      vertex 146.153 -121.847 10
      vertex 145.5 -121.576 -5.88268
      vertex 146.153 -121.847 -5.88268
    endloop
  endfacet
  facet normal -0.679485 0.28082 0.677821
    outer loop
      vertex 146.153 -162.153 -5.88268
      vertex 145.883 -161.5 -6.42388
      vertex 145.771 -161.771 -6.42388
    endloop
  endfacet
  facet normal -0.679485 -0.28082 0.677821
    outer loop
      vertex 145.883 -122.5 -6.42388
      vertex 146.153 -121.847 -5.88268
      vertex 145.771 -122.229 -6.42388
    endloop
  endfacet
  facet normal 0 0 1
    outer loop
      vertex 145.5 -122.117 -6.42388
      vertex 145.883 -122.5 -6.42388
      vertex 145.771 -122.229 -6.42388
    endloop
  endfacet
  facet normal 0 0 1
    outer loop
      vertex 145.883 -122.5 -6.42388
      vertex 145.5 -122.117 -6.42388
      vertex 145.883 -161.5 -6.42388
    endloop
  endfacet
  facet normal 0 0 1
    outer loop
      vertex 145.5 -161.883 -6.42388
      vertex 145.883 -161.5 -6.42388
      vertex 145.5 -122.117 -6.42388
    endloop
  endfacet
  facet normal 0 0 1
    outer loop
      vertex 145.883 -161.5 -6.42388
      vertex 145.5 -161.883 -6.42388
      vertex 145.771 -161.771 -6.42388
    endloop
  endfacet
  facet normal -0 0 1
    outer loop
      vertex 70.5 -122.117 -6.42388
      vertex 145.5 -161.883 -6.42388
      vertex 145.5 -122.117 -6.42388
    endloop
  endfacet
  facet normal 0 0 1
    outer loop
      vertex 70.5 -122.117 -6.42388
      vertex 70.5 -161.883 -6.42388
      vertex 145.5 -161.883 -6.42388
    endloop
  endfacet
  facet normal 0 0 1
    outer loop
      vertex 70.1173 -122.5 -6.42388
      vertex 70.5 -122.117 -6.42388
      vertex 70.2294 -122.229 -6.42388
    endloop
  endfacet
  facet normal 0 0 1
    outer loop
      vertex 70.5 -122.117 -6.42388
      vertex 70.1173 -122.5 -6.42388
      vertex 70.5 -161.883 -6.42388
    endloop
  endfacet
  facet normal -0 0 1
    outer loop
      vertex 70.1173 -161.5 -6.42388
      vertex 70.5 -161.883 -6.42388
      vertex 70.1173 -122.5 -6.42388
    endloop
  endfacet
  facet normal 0 0 1
    outer loop
      vertex 70.5 -161.883 -6.42388
      vertex 70.1173 -161.5 -6.42388
      vertex 70.2294 -161.771 -6.42388
    endloop
  endfacet
  facet normal 0.92382 0.382827 0
    outer loop
      vertex 69.8467 -162.153 10
      vertex 69.5761 -161.5 -5.88268
      vertex 69.5761 -161.5 10
    endloop
  endfacet
  facet normal 0.92382 0.382827 0
    outer loop
      vertex 69.5761 -161.5 -5.88268
      vertex 69.8467 -162.153 10
      vertex 69.8467 -162.153 -5.88268
    endloop
  endfacet
  facet normal 0.678575 0.281198 0.678575
    outer loop
      vertex 69.8467 -162.153 -5.88268
      vertex 70.1173 -161.5 -6.42388
      vertex 69.5761 -161.5 -5.88268
    endloop
  endfacet
  facet normal 0 0.707237 0.706976
    outer loop
      vertex 145.5 -161.883 -6.42388
      vertex 70.5 -162.424 -5.88268
      vertex 145.5 -162.424 -5.88268
    endloop
  endfacet
  facet normal 0 0.707237 0.706976
    outer loop
      vertex 70.5 -162.424 -5.88268
      vertex 145.5 -161.883 -6.42388
      vertex 70.5 -161.883 -6.42388
    endloop
  endfacet
  facet normal 0.28151 -0.678636 0.678385
    outer loop
      vertex 70.5 -122.117 -6.42388
      vertex 70.5 -121.576 -5.88268
      vertex 69.8467 -121.847 -5.88268
    endloop
  endfacet
  facet normal 0.281077 -0.679103 0.678096
    outer loop
      vertex 70.2294 -122.229 -6.42388
      vertex 70.5 -122.117 -6.42388
      vertex 69.8467 -121.847 -5.88268
    endloop
  endfacet
  facet normal 0.707107 0 0.707107
    outer loop
      vertex 69.5761 -122.5 -5.88268
      vertex 70.1173 -161.5 -6.42388
      vertex 70.1173 -122.5 -6.42388
    endloop
  endfacet
  facet normal 0.707107 0 0.707107
    outer loop
      vertex 70.1173 -161.5 -6.42388
      vertex 69.5761 -122.5 -5.88268
      vertex 69.5761 -161.5 -5.88268
    endloop
  endfacet
  facet normal 1 -0 0
    outer loop
      vertex 69.5761 -161.5 10
      vertex 69.5761 -122.5 -5.88268
      vertex 69.5761 -122.5 10
    endloop
  endfacet
  facet normal 1 0 0
    outer loop
      vertex 69.5761 -122.5 -5.88268
      vertex 69.5761 -161.5 10
      vertex 69.5761 -161.5 -5.88268
    endloop
  endfacet
endsolid OpenSCAD_Model
