solid OpenSCAD_Model
  facet normal -0.678575 0.281198 0.678575
    outer loop
      vertex 28.4239 -162.25 -5.88268
      vertex 27.8827 -162.25 -6.42388
      vertex 28.1533 -162.903 -5.88268
    endloop
  endfacet
  facet normal -0.28151 -0.678636 -0.678385
    outer loop
      vertex 27.5 -102.826 30.8827
      vertex 28.1533 -103.097 30.8827
      vertex 27.5 -103.367 31.4239
    endloop
  endfacet
  facet normal -0.678951 -0.28085 0.678343
    outer loop
      vertex 28.1533 -103.097 -5.88268
      vertex 27.7706 -103.479 -6.42388
      vertex 27.8827 -103.75 -6.42388
    endloop
  endfacet
  facet normal -0.678575 0.281198 -0.678575
    outer loop
      vertex 27.8827 -162.25 31.4239
      vertex 28.4239 -162.25 30.8827
      vertex 28.1533 -162.903 30.8827
    endloop
  endfacet
  facet normal -0.383159 -0.923682 0
    outer loop
      vertex 27.5 -102.826 -5.88268
      vertex 28.1533 -103.097 30.8827
      vertex 27.5 -102.826 30.8827
    endloop
  endfacet
  facet normal -0.383159 -0.923682 -0
    outer loop
      vertex 28.1533 -103.097 30.8827
      vertex 27.5 -102.826 -5.88268
      vertex 28.1533 -103.097 -5.88268
    endloop
  endfacet
  facet normal -0.281077 0.679103 0.678096
    outer loop
      vertex 27.7706 -162.521 -6.42388
      vertex 27.5 -162.633 -6.42388
      vertex 28.1533 -162.903 -5.88268
    endloop
  endfacet
  facet normal -0.678951 0.28085 -0.678343
    outer loop
      vertex 27.7706 -162.521 31.4239
      vertex 27.8827 -162.25 31.4239
      vertex 28.1533 -162.903 30.8827
    endloop
  endfacet
  facet normal 0 0.707891 -0.706322
    outer loop
      vertex 27.5 -162.633 31.4239
      vertex -65.871 -162.903 31.1533
      vertex -66.2318 -162.633 31.4239
    endloop
  endfacet
  facet normal 3.78724e-06 0.707237 -0.706976
    outer loop
      vertex 27.5 -163.174 30.8827
      vertex -65.871 -162.903 31.1533
      vertex 27.5 -162.633 31.4239
    endloop
  endfacet
  facet normal 0 0.706584 -0.707629
    outer loop
      vertex -65.871 -162.903 31.1533
      vertex 27.5 -163.174 30.8827
      vertex -66.2318 -163.174 30.8827
    endloop
  endfacet
  facet normal -0.92382 0.382827 0
    outer loop
      vertex 28.1533 -162.903 -5.88268
      vertex 28.4239 -162.25 30.8827
      vertex 28.4239 -162.25 -5.88268
    endloop
  endfacet
  facet normal -0.92382 0.382827 0
    outer loop
      vertex 28.4239 -162.25 30.8827
      vertex 28.1533 -162.903 -5.88268
      vertex 28.1533 -162.903 30.8827
    endloop
  endfacet
  facet normal -0.678951 0.28085 0.678343
    outer loop
      vertex 27.8827 -162.25 -6.42388
      vertex 27.7706 -162.521 -6.42388
      vertex 28.1533 -162.903 -5.88268
    endloop
  endfacet
  facet normal -0.281077 -0.679103 0.678096
    outer loop
      vertex 28.1533 -103.097 -5.88268
      vertex 27.5 -103.367 -6.42388
      vertex 27.7706 -103.479 -6.42388
    endloop
  endfacet
  facet normal -0.678575 -0.281198 0.678575
    outer loop
      vertex 28.1533 -103.097 -5.88268
      vertex 27.8827 -103.75 -6.42388
      vertex 28.4239 -103.75 -5.88268
    endloop
  endfacet
  facet normal -0.28151 -0.678636 0.678385
    outer loop
      vertex 28.1533 -103.097 -5.88268
      vertex 27.5 -102.826 -5.88268
      vertex 27.5 -103.367 -6.42388
    endloop
  endfacet
  facet normal 0 0 1
    outer loop
      vertex 27.5 -103.367 -6.42388
      vertex 27.8827 -103.75 -6.42388
      vertex 27.7706 -103.479 -6.42388
    endloop
  endfacet
  facet normal 0 0 1
    outer loop
      vertex 27.8827 -103.75 -6.42388
      vertex 27.5 -103.367 -6.42388
      vertex 27.8827 -162.25 -6.42388
    endloop
  endfacet
  facet normal 0 0 1
    outer loop
      vertex 27.5 -162.633 -6.42388
      vertex 27.8827 -162.25 -6.42388
      vertex 27.5 -103.367 -6.42388
    endloop
  endfacet
  facet normal 0 0 1
    outer loop
      vertex 27.8827 -162.25 -6.42388
      vertex 27.5 -162.633 -6.42388
      vertex 27.7706 -162.521 -6.42388
    endloop
  endfacet
  facet normal 0 0 1
    outer loop
      vertex 27.5 -103.367 -6.42388
      vertex -52.7612 -133 -6.42388
      vertex 27.5 -162.633 -6.42388
    endloop
  endfacet
  facet normal 0 0 1
    outer loop
      vertex 27.5 -103.367 -6.42388
      vertex -55.4672 -126.467 -6.42388
      vertex -52.7612 -133 -6.42388
    endloop
  endfacet
  facet normal -0 0 1
    outer loop
      vertex -66.2318 -103.367 -6.42388
      vertex -55.4672 -126.467 -6.42388
      vertex 27.5 -103.367 -6.42388
    endloop
  endfacet
  facet normal 0 0 1
    outer loop
      vertex -55.4672 -126.467 -6.42388
      vertex -66.2318 -103.367 -6.42388
      vertex -62 -123.761 -6.42388
    endloop
  endfacet
  facet normal 0 0 1
    outer loop
      vertex -62 -123.761 -6.42388
      vertex -66.2318 -103.367 -6.42388
      vertex -66.2318 -123.761 -6.42388
    endloop
  endfacet
  facet normal -0 0 1
    outer loop
      vertex -55.4672 -139.533 -6.42388
      vertex 27.5 -162.633 -6.42388
      vertex -52.7612 -133 -6.42388
    endloop
  endfacet
  facet normal 0 0 1
    outer loop
      vertex -66.2318 -162.633 -6.42388
      vertex -55.4672 -139.533 -6.42388
      vertex -62 -142.239 -6.42388
    endloop
  endfacet
  facet normal 0 0 1
    outer loop
      vertex -66.2318 -162.633 -6.42388
      vertex -62 -142.239 -6.42388
      vertex -66.2318 -142.239 -6.42388
    endloop
  endfacet
  facet normal 0 0 1
    outer loop
      vertex -55.4672 -139.533 -6.42388
      vertex -66.2318 -162.633 -6.42388
      vertex 27.5 -162.633 -6.42388
    endloop
  endfacet
  facet normal -0.28151 0.678636 -0.678385
    outer loop
      vertex 27.5 -162.633 31.4239
      vertex 28.1533 -162.903 30.8827
      vertex 27.5 -163.174 30.8827
    endloop
  endfacet
  facet normal 3.78724e-06 -0.707237 -0.706976
    outer loop
      vertex 27.5 -103.367 31.4239
      vertex -65.871 -103.097 31.1533
      vertex 27.5 -102.826 30.8827
    endloop
  endfacet
  facet normal 0 -0.707891 -0.706322
    outer loop
      vertex -65.871 -103.097 31.1533
      vertex 27.5 -103.367 31.4239
      vertex -66.2318 -103.367 31.4239
    endloop
  endfacet
  facet normal -0 -0.706584 -0.707629
    outer loop
      vertex 27.5 -102.826 30.8827
      vertex -65.871 -103.097 31.1533
      vertex -66.2318 -102.826 30.8827
    endloop
  endfacet
  facet normal -0.678951 -0.28085 -0.678343
    outer loop
      vertex 27.7706 -103.479 31.4239
      vertex 28.1533 -103.097 30.8827
      vertex 27.8827 -103.75 31.4239
    endloop
  endfacet
  facet normal -0.678575 -0.281198 -0.678575
    outer loop
      vertex 27.8827 -103.75 31.4239
      vertex 28.1533 -103.097 30.8827
      vertex 28.4239 -103.75 30.8827
    endloop
  endfacet
  facet normal 0 -1 0
    outer loop
      vertex -66.2318 -102.826 -5.88268
      vertex 27.5 -102.826 30.8827
      vertex -66.2318 -102.826 30.8827
    endloop
  endfacet
  facet normal 0 -1 -0
    outer loop
      vertex 27.5 -102.826 30.8827
      vertex -66.2318 -102.826 -5.88268
      vertex 27.5 -102.826 -5.88268
    endloop
  endfacet
  facet normal -0.707107 0 0.707107
    outer loop
      vertex 27.8827 -162.25 -6.42388
      vertex 28.4239 -103.75 -5.88268
      vertex 27.8827 -103.75 -6.42388
    endloop
  endfacet
  facet normal -0.707107 0 0.707107
    outer loop
      vertex 28.4239 -103.75 -5.88268
      vertex 27.8827 -162.25 -6.42388
      vertex 28.4239 -162.25 -5.88268
    endloop
  endfacet
  facet normal -0.281077 0.679103 -0.678096
    outer loop
      vertex 27.5 -162.633 31.4239
      vertex 27.7706 -162.521 31.4239
      vertex 28.1533 -162.903 30.8827
    endloop
  endfacet
  facet normal 0 1 -0
    outer loop
      vertex 27.5 -163.174 -5.88268
      vertex -66.2318 -163.174 30.8827
      vertex 27.5 -163.174 30.8827
    endloop
  endfacet
  facet normal 0 1 0
    outer loop
      vertex -66.2318 -163.174 30.8827
      vertex 27.5 -163.174 -5.88268
      vertex -66.2318 -163.174 -5.88268
    endloop
  endfacet
  facet normal -0.707107 0 -0.707107
    outer loop
      vertex 28.4239 -162.25 30.8827
      vertex 27.8827 -103.75 31.4239
      vertex 28.4239 -103.75 30.8827
    endloop
  endfacet
  facet normal -0.707107 -0 -0.707107
    outer loop
      vertex 27.8827 -103.75 31.4239
      vertex 28.4239 -162.25 30.8827
      vertex 27.8827 -162.25 31.4239
    endloop
  endfacet
  facet normal -1 0 0
    outer loop
      vertex 28.4239 -162.25 -5.88268
      vertex 28.4239 -103.75 30.8827
      vertex 28.4239 -103.75 -5.88268
    endloop
  endfacet
  facet normal -1 -0 0
    outer loop
      vertex 28.4239 -103.75 30.8827
      vertex 28.4239 -162.25 -5.88268
      vertex 28.4239 -162.25 30.8827
    endloop
  endfacet
  facet normal 0 0 -1
    outer loop
      vertex 27.5 -162.633 31.4239
      vertex 27.8827 -162.25 31.4239
      vertex 27.7706 -162.521 31.4239
    endloop
  endfacet
  facet normal -0 0 -1
    outer loop
      vertex 27.8827 -162.25 31.4239
      vertex 27.5 -162.633 31.4239
      vertex 27.8827 -103.75 31.4239
    endloop
  endfacet
  facet normal 0 0 -1
    outer loop
      vertex 27.5 -103.367 31.4239
      vertex 27.8827 -103.75 31.4239
      vertex 27.5 -162.633 31.4239
    endloop
  endfacet
  facet normal 0 0 -1
    outer loop
      vertex 27.8827 -103.75 31.4239
      vertex 27.5 -103.367 31.4239
      vertex 27.7706 -103.479 31.4239
    endloop
  endfacet
  facet normal 0 0 -1
    outer loop
      vertex 27.5 -162.633 31.4239
      vertex -52.7612 -133 31.4239
      vertex 27.5 -103.367 31.4239
    endloop
  endfacet
  facet normal 0 0 -1
    outer loop
      vertex 27.5 -162.633 31.4239
      vertex -55.4672 -139.533 31.4239
      vertex -52.7612 -133 31.4239
    endloop
  endfacet
  facet normal 0 0 -1
    outer loop
      vertex -66.2318 -162.633 31.4239
      vertex -55.4672 -139.533 31.4239
      vertex 27.5 -162.633 31.4239
    endloop
  endfacet
  facet normal 0 0 -1
    outer loop
      vertex -55.4672 -139.533 31.4239
      vertex -66.2318 -162.633 31.4239
      vertex -62 -142.239 31.4239
    endloop
  endfacet
  facet normal -0 0 -1
    outer loop
      vertex -62 -142.239 31.4239
      vertex -66.2318 -162.633 31.4239
      vertex -66.2318 -142.239 31.4239
    endloop
  endfacet
  facet normal 0 0 -1
    outer loop
      vertex -55.4672 -126.467 31.4239
      vertex 27.5 -103.367 31.4239
      vertex -52.7612 -133 31.4239
    endloop
  endfacet
  facet normal 0 0 -1
    outer loop
      vertex -66.2318 -103.367 31.4239
      vertex -55.4672 -126.467 31.4239
      vertex -62 -123.761 31.4239
    endloop
  endfacet
  facet normal 0 0 -1
    outer loop
      vertex -66.2318 -103.367 31.4239
      vertex -62 -123.761 31.4239
      vertex -66.2318 -123.761 31.4239
    endloop
  endfacet
  facet normal 0 0 -1
    outer loop
      vertex -55.4672 -126.467 31.4239
      vertex -66.2318 -103.367 31.4239
      vertex 27.5 -103.367 31.4239
    endloop
  endfacet
  facet normal -0.28151 0.678636 0.678385
    outer loop
      vertex 28.1533 -162.903 -5.88268
      vertex 27.5 -162.633 -6.42388
      vertex 27.5 -163.174 -5.88268
    endloop
  endfacet
  facet normal -0.281077 -0.679103 -0.678096
    outer loop
      vertex 27.5 -103.367 31.4239
      vertex 28.1533 -103.097 30.8827
      vertex 27.7706 -103.479 31.4239
    endloop
  endfacet
  facet normal -0.92382 -0.382827 0
    outer loop
      vertex 28.4239 -103.75 -5.88268
      vertex 28.1533 -103.097 30.8827
      vertex 28.1533 -103.097 -5.88268
    endloop
  endfacet
  facet normal -0.92382 -0.382827 0
    outer loop
      vertex 28.1533 -103.097 30.8827
      vertex 28.4239 -103.75 -5.88268
      vertex 28.4239 -103.75 30.8827
    endloop
  endfacet
  facet normal 3.78724e-06 -0.707237 0.706976
    outer loop
      vertex 27.5 -102.826 -5.88268
      vertex -65.871 -103.097 -6.15328
      vertex 27.5 -103.367 -6.42388
    endloop
  endfacet
  facet normal 0 -0.706584 0.707629
    outer loop
      vertex -65.871 -103.097 -6.15328
      vertex 27.5 -102.826 -5.88268
      vertex -66.2318 -102.826 -5.88268
    endloop
  endfacet
  facet normal 0 -0.707891 0.706322
    outer loop
      vertex 27.5 -103.367 -6.42388
      vertex -65.871 -103.097 -6.15328
      vertex -66.2318 -103.367 -6.42388
    endloop
  endfacet
  facet normal 0 0.706584 0.707629
    outer loop
      vertex 27.5 -163.174 -5.88268
      vertex -65.871 -162.903 -6.15328
      vertex -66.2318 -163.174 -5.88268
    endloop
  endfacet
  facet normal 3.78724e-06 0.707237 0.706976
    outer loop
      vertex 27.5 -162.633 -6.42388
      vertex -65.871 -162.903 -6.15328
      vertex 27.5 -163.174 -5.88268
    endloop
  endfacet
  facet normal 0 0.707891 0.706322
    outer loop
      vertex -65.871 -162.903 -6.15328
      vertex 27.5 -162.633 -6.42388
      vertex -66.2318 -162.633 -6.42388
    endloop
  endfacet
  facet normal -0.383159 0.923682 0
    outer loop
      vertex 28.1533 -162.903 -5.88268
      vertex 27.5 -163.174 30.8827
      vertex 28.1533 -162.903 30.8827
    endloop
  endfacet
  facet normal -0.383159 0.923682 0
    outer loop
      vertex 27.5 -163.174 30.8827
      vertex 28.1533 -162.903 -5.88268
      vertex 27.5 -163.174 -5.88268
    endloop
  endfacet
  facet normal -0.600385 0.799711 -0.000379185
    outer loop
      vertex -66.2318 -163.174 30.8827
      vertex -66.5 -163.375 31.625
      vertex -65.871 -162.903 31.1533
    endloop
  endfacet
  facet normal -0.599714 0.800215 0
    outer loop
      vertex -66.2318 -163.174 -5.88268
      vertex -66.5 -163.375 31.625
      vertex -66.2318 -163.174 30.8827
    endloop
  endfacet
  facet normal -0.599714 0.800215 0
    outer loop
      vertex -66.2318 -163.174 -5.88268
      vertex -66.5 -163.375 -6.625
      vertex -66.5 -163.375 31.625
    endloop
  endfacet
  facet normal -0.600385 0.799711 0.000379177
    outer loop
      vertex -66.5 -163.375 -6.625
      vertex -66.2318 -163.174 -5.88268
      vertex -65.871 -162.903 -6.15328
    endloop
  endfacet
  facet normal -0.59998 4.24319e-05 -0.800015
    outer loop
      vertex -66.5 -163.375 31.625
      vertex -66.2318 -162.633 31.4239
      vertex -65.871 -162.903 31.1533
    endloop
  endfacet
  facet normal -0.599905 -0 -0.800072
    outer loop
      vertex -66.5 -142.239 31.625
      vertex -66.2318 -162.633 31.4239
      vertex -66.5 -163.375 31.625
    endloop
  endfacet
  facet normal -0.599905 0 -0.800072
    outer loop
      vertex -66.2318 -162.633 31.4239
      vertex -66.5 -142.239 31.625
      vertex -66.2318 -142.239 31.4239
    endloop
  endfacet
  facet normal -0.599905 0 -0.800072
    outer loop
      vertex -66.2318 -123.761 31.4239
      vertex -66.5 -123.761 31.625
      vertex -66.2318 -103.367 31.4239
    endloop
  endfacet
  facet normal -0.59998 -4.24319e-05 -0.800015
    outer loop
      vertex -66.2318 -103.367 31.4239
      vertex -66.5 -102.625 31.625
      vertex -65.871 -103.097 31.1533
    endloop
  endfacet
  facet normal -0.599905 -0 -0.800072
    outer loop
      vertex -66.5 -102.625 31.625
      vertex -66.2318 -103.367 31.4239
      vertex -66.5 -123.761 31.625
    endloop
  endfacet
  facet normal -0.600385 -0.799711 -0.000379185
    outer loop
      vertex -66.5 -102.625 31.625
      vertex -66.2318 -102.826 30.8827
      vertex -65.871 -103.097 31.1533
    endloop
  endfacet
  facet normal -0.599714 -0.800215 0
    outer loop
      vertex -66.5 -102.625 31.625
      vertex -66.2318 -102.826 -5.88268
      vertex -66.2318 -102.826 30.8827
    endloop
  endfacet
  facet normal -0.600385 -0.799711 0.000379177
    outer loop
      vertex -66.2318 -102.826 -5.88268
      vertex -66.5 -102.625 -6.625
      vertex -65.871 -103.097 -6.15328
    endloop
  endfacet
  facet normal -0.599714 -0.800215 0
    outer loop
      vertex -66.5 -102.625 -6.625
      vertex -66.2318 -102.826 -5.88268
      vertex -66.5 -102.625 31.625
    endloop
  endfacet
  facet normal -0.599943 0 0.800043
    outer loop
      vertex -66.2318 -142.239 -6.42388
      vertex -66.5 -142.239 -6.625
      vertex -66.2318 -162.633 -6.42388
    endloop
  endfacet
  facet normal -0.599988 2.5459e-05 0.800009
    outer loop
      vertex -66.2318 -162.633 -6.42388
      vertex -66.5 -163.375 -6.625
      vertex -65.871 -162.903 -6.15328
    endloop
  endfacet
  facet normal -0.599943 0 0.800043
    outer loop
      vertex -66.5 -163.375 -6.625
      vertex -66.2318 -162.633 -6.42388
      vertex -66.5 -142.239 -6.625
    endloop
  endfacet
  facet normal -0.599988 -2.5459e-05 0.800009
    outer loop
      vertex -66.5 -102.625 -6.625
      vertex -66.2318 -103.367 -6.42388
      vertex -65.871 -103.097 -6.15328
    endloop
  endfacet
  facet normal -0.599943 0 0.800043
    outer loop
      vertex -66.5 -123.761 -6.625
      vertex -66.2318 -103.367 -6.42388
      vertex -66.5 -102.625 -6.625
    endloop
  endfacet
  facet normal -0.599943 0 0.800043
    outer loop
      vertex -66.2318 -103.367 -6.42388
      vertex -66.5 -123.761 -6.625
      vertex -66.2318 -123.761 -6.42388
    endloop
  endfacet
  facet normal -0.923882 -0.382677 0
    outer loop
      vertex -52.7612 -133 -8
      vertex -55.4672 -126.467 -6.42388
      vertex -55.4672 -126.467 -8
    endloop
  endfacet
  facet normal -0.923882 -0.382677 0
    outer loop
      vertex -55.4672 -126.467 -6.42388
      vertex -52.7612 -133 -8
      vertex -52.7612 -133 -6.42388
    endloop
  endfacet
  facet normal -0.923882 -0.382677 0
    outer loop
      vertex -52.7612 -133 31.4239
      vertex -55.4672 -126.467 33
      vertex -55.4672 -126.467 31.4239
    endloop
  endfacet
  facet normal -0.923882 -0.382677 0
    outer loop
      vertex -55.4672 -126.467 33
      vertex -52.7612 -133 31.4239
      vertex -52.7612 -133 33
    endloop
  endfacet
  facet normal -0.923882 0.382677 0
    outer loop
      vertex -55.4672 -139.533 -8
      vertex -52.7612 -133 -6.42388
      vertex -52.7612 -133 -8
    endloop
  endfacet
  facet normal -0.923882 0.382677 0
    outer loop
      vertex -52.7612 -133 -6.42388
      vertex -55.4672 -139.533 -8
      vertex -55.4672 -139.533 -6.42388
    endloop
  endfacet
  facet normal -0.923882 0.382677 0
    outer loop
      vertex -55.4672 -139.533 31.4239
      vertex -52.7612 -133 33
      vertex -52.7612 -133 31.4239
    endloop
  endfacet
  facet normal -0.923882 0.382677 0
    outer loop
      vertex -52.7612 -133 33
      vertex -55.4672 -139.533 31.4239
      vertex -55.4672 -139.533 33
    endloop
  endfacet
  facet normal -0.382687 0.923878 0
    outer loop
      vertex -55.4672 -139.533 -8
      vertex -62 -142.239 -6.42388
      vertex -55.4672 -139.533 -6.42388
    endloop
  endfacet
  facet normal -0.382687 0.923878 0
    outer loop
      vertex -62 -142.239 -6.42388
      vertex -55.4672 -139.533 -8
      vertex -62 -142.239 -8
    endloop
  endfacet
  facet normal -0.382687 0.923878 0
    outer loop
      vertex -55.4672 -139.533 31.4239
      vertex -62 -142.239 33
      vertex -55.4672 -139.533 33
    endloop
  endfacet
  facet normal -0.382687 0.923878 0
    outer loop
      vertex -62 -142.239 33
      vertex -55.4672 -139.533 31.4239
      vertex -62 -142.239 31.4239
    endloop
  endfacet
  facet normal 0 -1 0
    outer loop
      vertex -66.5 -123.761 -8
      vertex -66.2318 -123.761 -6.42388
      vertex -66.5 -123.761 -6.625
    endloop
  endfacet
  facet normal 0 -1 -0
    outer loop
      vertex -66.2318 -123.761 -6.42388
      vertex -66.5 -123.761 -8
      vertex -62 -123.761 -8
    endloop
  endfacet
  facet normal 0 -1 0
    outer loop
      vertex -66.2318 -123.761 -6.42388
      vertex -62 -123.761 -8
      vertex -62 -123.761 -6.42388
    endloop
  endfacet
  facet normal 0 -1 0
    outer loop
      vertex -66.2318 -123.761 31.4239
      vertex -66.5 -123.761 33
      vertex -66.5 -123.761 31.625
    endloop
  endfacet
  facet normal 0 -1 0
    outer loop
      vertex -66.5 -123.761 33
      vertex -66.2318 -123.761 31.4239
      vertex -62 -123.761 33
    endloop
  endfacet
  facet normal 0 -1 -0
    outer loop
      vertex -62 -123.761 33
      vertex -66.2318 -123.761 31.4239
      vertex -62 -123.761 31.4239
    endloop
  endfacet
  facet normal -0.382687 -0.923878 0
    outer loop
      vertex -62 -123.761 -8
      vertex -55.4672 -126.467 -6.42388
      vertex -62 -123.761 -6.42388
    endloop
  endfacet
  facet normal -0.382687 -0.923878 -0
    outer loop
      vertex -55.4672 -126.467 -6.42388
      vertex -62 -123.761 -8
      vertex -55.4672 -126.467 -8
    endloop
  endfacet
  facet normal -0.382687 -0.923878 0
    outer loop
      vertex -62 -123.761 31.4239
      vertex -55.4672 -126.467 33
      vertex -62 -123.761 33
    endloop
  endfacet
  facet normal -0.382687 -0.923878 -0
    outer loop
      vertex -55.4672 -126.467 33
      vertex -62 -123.761 31.4239
      vertex -55.4672 -126.467 31.4239
    endloop
  endfacet
  facet normal 0 1 -0
    outer loop
      vertex -62 -142.239 -8
      vertex -66.2318 -142.239 -6.42388
      vertex -62 -142.239 -6.42388
    endloop
  endfacet
  facet normal 0 1 0
    outer loop
      vertex -66.5 -142.239 -8
      vertex -66.2318 -142.239 -6.42388
      vertex -62 -142.239 -8
    endloop
  endfacet
  facet normal 0 1 0
    outer loop
      vertex -66.2318 -142.239 -6.42388
      vertex -66.5 -142.239 -8
      vertex -66.5 -142.239 -6.625
    endloop
  endfacet
  facet normal 0 1 -0
    outer loop
      vertex -66.2318 -142.239 31.4239
      vertex -66.5 -142.239 33
      vertex -62 -142.239 33
    endloop
  endfacet
  facet normal 0 1 0
    outer loop
      vertex -66.2318 -142.239 31.4239
      vertex -62 -142.239 33
      vertex -62 -142.239 31.4239
    endloop
  endfacet
  facet normal 0 1 0
    outer loop
      vertex -66.5 -142.239 33
      vertex -66.2318 -142.239 31.4239
      vertex -66.5 -142.239 31.625
    endloop
  endfacet
  facet normal 0 1 -0
    outer loop
      vertex 29 -101 -8
      vertex -66.5 -101 33
      vertex 29 -101 33
    endloop
  endfacet
  facet normal 0 1 0
    outer loop
      vertex -66.5 -101 33
      vertex 29 -101 -8
      vertex -66.5 -101 -8
    endloop
  endfacet
  facet normal 0 0 1
    outer loop
      vertex 29 -101 33
      vertex -52.7612 -133 33
      vertex 29 -165 33
    endloop
  endfacet
  facet normal 0 0 1
    outer loop
      vertex 29 -101 33
      vertex -55.4672 -126.467 33
      vertex -52.7612 -133 33
    endloop
  endfacet
  facet normal -0 0 1
    outer loop
      vertex -66.5 -101 33
      vertex -55.4672 -126.467 33
      vertex 29 -101 33
    endloop
  endfacet
  facet normal 0 0 1
    outer loop
      vertex -55.4672 -126.467 33
      vertex -66.5 -101 33
      vertex -62 -123.761 33
    endloop
  endfacet
  facet normal 0 0 1
    outer loop
      vertex -62 -123.761 33
      vertex -66.5 -101 33
      vertex -66.5 -123.761 33
    endloop
  endfacet
  facet normal -0 0 1
    outer loop
      vertex -55.4672 -139.533 33
      vertex 29 -165 33
      vertex -52.7612 -133 33
    endloop
  endfacet
  facet normal 0 0 1
    outer loop
      vertex -66.5 -165 33
      vertex -55.4672 -139.533 33
      vertex -62 -142.239 33
    endloop
  endfacet
  facet normal 0 0 1
    outer loop
      vertex -66.5 -165 33
      vertex -62 -142.239 33
      vertex -66.5 -142.239 33
    endloop
  endfacet
  facet normal 0 0 1
    outer loop
      vertex -55.4672 -139.533 33
      vertex -66.5 -165 33
      vertex 29 -165 33
    endloop
  endfacet
  facet normal 0 0 -1
    outer loop
      vertex 29 -165 -8
      vertex -52.7612 -133 -8
      vertex 29 -101 -8
    endloop
  endfacet
  facet normal 0 0 -1
    outer loop
      vertex 29 -165 -8
      vertex -55.4672 -139.533 -8
      vertex -52.7612 -133 -8
    endloop
  endfacet
  facet normal 0 0 -1
    outer loop
      vertex -66.5 -165 -8
      vertex -55.4672 -139.533 -8
      vertex 29 -165 -8
    endloop
  endfacet
  facet normal 0 0 -1
    outer loop
      vertex -55.4672 -139.533 -8
      vertex -66.5 -165 -8
      vertex -62 -142.239 -8
    endloop
  endfacet
  facet normal -0 0 -1
    outer loop
      vertex -62 -142.239 -8
      vertex -66.5 -165 -8
      vertex -66.5 -142.239 -8
    endloop
  endfacet
  facet normal 0 0 -1
    outer loop
      vertex -55.4672 -126.467 -8
      vertex 29 -101 -8
      vertex -52.7612 -133 -8
    endloop
  endfacet
  facet normal 0 0 -1
    outer loop
      vertex -66.5 -101 -8
      vertex -55.4672 -126.467 -8
      vertex -62 -123.761 -8
    endloop
  endfacet
  facet normal 0 0 -1
    outer loop
      vertex -66.5 -101 -8
      vertex -62 -123.761 -8
      vertex -66.5 -123.761 -8
    endloop
  endfacet
  facet normal 0 0 -1
    outer loop
      vertex -55.4672 -126.467 -8
      vertex -66.5 -101 -8
      vertex 29 -101 -8
    endloop
  endfacet
  facet normal 0 -1 0
    outer loop
      vertex -66.5 -165 -8
      vertex 29 -165 33
      vertex -66.5 -165 33
    endloop
  endfacet
  facet normal 0 -1 -0
    outer loop
      vertex 29 -165 33
      vertex -66.5 -165 -8
      vertex 29 -165 -8
    endloop
  endfacet
  facet normal -1 0 0
    outer loop
      vertex -66.5 -142.239 -8
      vertex -66.5 -163.375 -6.625
      vertex -66.5 -142.239 -6.625
    endloop
  endfacet
  facet normal -1 -0 0
    outer loop
      vertex -66.5 -163.375 -6.625
      vertex -66.5 -165 -8
      vertex -66.5 -163.375 31.625
    endloop
  endfacet
  facet normal -1 0 0
    outer loop
      vertex -66.5 -165 -8
      vertex -66.5 -163.375 -6.625
      vertex -66.5 -142.239 -8
    endloop
  endfacet
  facet normal -1 0 0
    outer loop
      vertex -66.5 -163.375 31.625
      vertex -66.5 -142.239 33
      vertex -66.5 -142.239 31.625
    endloop
  endfacet
  facet normal -1 0 0
    outer loop
      vertex -66.5 -163.375 31.625
      vertex -66.5 -165 33
      vertex -66.5 -142.239 33
    endloop
  endfacet
  facet normal -1 0 0
    outer loop
      vertex -66.5 -165 33
      vertex -66.5 -163.375 31.625
      vertex -66.5 -165 -8
    endloop
  endfacet
  facet normal -1 0 0
    outer loop
      vertex -66.5 -101 -8
      vertex -66.5 -102.625 -6.625
      vertex -66.5 -101 33
    endloop
  endfacet
  facet normal -1 0 0
    outer loop
      vertex -66.5 -123.761 -8
      vertex -66.5 -102.625 -6.625
      vertex -66.5 -101 -8
    endloop
  endfacet
  facet normal -1 -0 0
    outer loop
      vertex -66.5 -102.625 -6.625
      vertex -66.5 -123.761 -8
      vertex -66.5 -123.761 -6.625
    endloop
  endfacet
  facet normal -1 0 0
    outer loop
      vertex -66.5 -102.625 31.625
      vertex -66.5 -101 33
      vertex -66.5 -102.625 -6.625
    endloop
  endfacet
  facet normal -1 0 0
    outer loop
      vertex -66.5 -123.761 33
      vertex -66.5 -102.625 31.625
      vertex -66.5 -123.761 31.625
    endloop
  endfacet
  facet normal -1 0 0
    outer loop
      vertex -66.5 -102.625 31.625
      vertex -66.5 -123.761 33
      vertex -66.5 -101 33
    endloop
  endfacet
  facet normal 1 -0 0
    outer loop
      vertex 29 -165 33
      vertex 29 -101 -8
      vertex 29 -101 33
    endloop
  endfacet
  facet normal 1 0 0
    outer loop
      vertex 29 -101 -8
      vertex 29 -165 33
      vertex 29 -165 -8
    endloop
  endfacet
endsolid OpenSCAD_Model
