solid OpenSCAD_Model
  facet normal -0.677972 -0.280609 0.679421
    outer loop
      vertex 148.191 -53.25 -8.46194
      vertex 148.327 -52.9234 -8.19134
      vertex 148.135 -53.1147 -8.46194
    endloop
  endfacet
  facet normal 0.678591 -0.281119 0.678591
    outer loop
      vertex 67.8087 -53.25 -8.46194
      vertex 67.6734 -52.9234 -8.19134
      vertex 67.5381 -53.25 -8.19134
    endloop
  endfacet
  facet normal 0.280944 -0.67878 -0.678475
    outer loop
      vertex 68 -53.0587 10.4619
      vertex 67.8647 -53.1147 10.4619
      vertex 67.6734 -52.9234 10.1913
    endloop
  endfacet
  facet normal -0.678248 -0.280354 0.679251
    outer loop
      vertex 148.462 -53.25 -8.19134
      vertex 148.327 -52.9234 -8.19134
      vertex 148.191 -53.25 -8.46194
    endloop
  endfacet
  facet normal -0.705542 0 -0.708668
    outer loop
      vertex 148.394 -97.0587 10.259
      vertex 148.462 -53.25 10.1913
      vertex 148.462 -97.194 10.1913
    endloop
  endfacet
  facet normal -0.706933 -0 -0.707281
    outer loop
      vertex 148.191 -53.25 10.4619
      vertex 148.394 -97.0587 10.259
      vertex 148.191 -97.1571 10.4619
    endloop
  endfacet
  facet normal -0.706584 3.22458e-06 -0.707629
    outer loop
      vertex 148.394 -97.0587 10.259
      vertex 148.191 -53.25 10.4619
      vertex 148.462 -53.25 10.1913
    endloop
  endfacet
  facet normal 0.281119 -0.678591 0.678591
    outer loop
      vertex 68 -53.0587 -8.46194
      vertex 68 -52.7881 -8.19134
      vertex 67.6734 -52.9234 -8.19134
    endloop
  endfacet
  facet normal 0.67878 -0.280944 0.678475
    outer loop
      vertex 67.8087 -53.25 -8.46194
      vertex 67.8647 -53.1147 -8.46194
      vertex 67.6734 -52.9234 -8.19134
    endloop
  endfacet
  facet normal 0.67878 -0.280944 -0.678475
    outer loop
      vertex 67.8647 -53.1147 10.4619
      vertex 67.8087 -53.25 10.4619
      vertex 67.6734 -52.9234 10.1913
    endloop
  endfacet
  facet normal -0.281295 -0.678123 -0.678986
    outer loop
      vertex 148.327 -52.9234 10.1913
      vertex 148.135 -53.1147 10.4619
      vertex 148 -53.0587 10.4619
    endloop
  endfacet
  facet normal 0.707107 -1.61408e-06 -0.707107
    outer loop
      vertex 67.8087 -53.25 10.4619
      vertex 67.6057 -97.0587 10.259
      vertex 67.5381 -53.25 10.1913
    endloop
  endfacet
  facet normal 0.706933 0 -0.707281
    outer loop
      vertex 67.6057 -97.0587 10.259
      vertex 67.8087 -53.25 10.4619
      vertex 67.8087 -97.1571 10.4619
    endloop
  endfacet
  facet normal 0.707629 0 -0.706584
    outer loop
      vertex 67.5381 -53.25 10.1913
      vertex 67.6057 -97.0587 10.259
      vertex 67.5381 -97.194 10.1913
    endloop
  endfacet
  facet normal -0.70528 0 0.708929
    outer loop
      vertex 148.462 -53.25 -8.19134
      vertex 148.394 -97.0587 -8.25899
      vertex 148.462 -97.194 -8.19134
    endloop
  endfacet
  facet normal -0.706584 4.03221e-06 0.707629
    outer loop
      vertex 148.191 -53.25 -8.46194
      vertex 148.394 -97.0587 -8.25899
      vertex 148.462 -53.25 -8.19134
    endloop
  endfacet
  facet normal -0.70702 0 0.707194
    outer loop
      vertex 148.394 -97.0587 -8.25899
      vertex 148.191 -53.25 -8.46194
      vertex 148.191 -97.1571 -8.46194
    endloop
  endfacet
  facet normal -0.924162 -0.382002 0
    outer loop
      vertex 148.462 -53.25 -8.19134
      vertex 148.327 -52.9234 10.1913
      vertex 148.327 -52.9234 -8.19134
    endloop
  endfacet
  facet normal -0.924162 -0.382002 0
    outer loop
      vertex 148.327 -52.9234 10.1913
      vertex 148.462 -53.25 -8.19134
      vertex 148.462 -53.25 10.1913
    endloop
  endfacet
  facet normal -0.281295 -0.678123 0.678986
    outer loop
      vertex 148.135 -53.1147 -8.46194
      vertex 148.327 -52.9234 -8.19134
      vertex 148 -53.0587 -8.46194
    endloop
  endfacet
  facet normal 0.281119 -0.678591 -0.678591
    outer loop
      vertex 68 -52.7881 10.1913
      vertex 68 -53.0587 10.4619
      vertex 67.6734 -52.9234 10.1913
    endloop
  endfacet
  facet normal -1 0 0
    outer loop
      vertex 148.462 -97.194 -8.19134
      vertex 148.462 -53.25 10.1913
      vertex 148.462 -53.25 -8.19134
    endloop
  endfacet
  facet normal -1 -0 0
    outer loop
      vertex 148.462 -53.25 10.1913
      vertex 148.462 -97.194 -8.19134
      vertex 148.462 -97.194 10.1913
    endloop
  endfacet
  facet normal -0.382327 -0.924027 0
    outer loop
      vertex 148 -52.7881 -8.19134
      vertex 148.327 -52.9234 10.1913
      vertex 148 -52.7881 10.1913
    endloop
  endfacet
  facet normal -0.382327 -0.924027 -0
    outer loop
      vertex 148.327 -52.9234 10.1913
      vertex 148 -52.7881 -8.19134
      vertex 148.327 -52.9234 -8.19134
    endloop
  endfacet
  facet normal -0.677972 -0.280609 -0.679421
    outer loop
      vertex 148.327 -52.9234 10.1913
      vertex 148.191 -53.25 10.4619
      vertex 148.135 -53.1147 10.4619
    endloop
  endfacet
  facet normal 0.280944 -0.67878 0.678475
    outer loop
      vertex 67.8647 -53.1147 -8.46194
      vertex 68 -53.0587 -8.46194
      vertex 67.6734 -52.9234 -8.19134
    endloop
  endfacet
  facet normal 0 -0.707107 0.707107
    outer loop
      vertex 68 -53.0587 -8.46194
      vertex 148 -52.7881 -8.19134
      vertex 68 -52.7881 -8.19134
    endloop
  endfacet
  facet normal 0 -0.707107 0.707107
    outer loop
      vertex 148 -52.7881 -8.19134
      vertex 68 -53.0587 -8.46194
      vertex 148 -53.0587 -8.46194
    endloop
  endfacet
  facet normal 0.678591 -0.281119 -0.678591
    outer loop
      vertex 67.6734 -52.9234 10.1913
      vertex 67.8087 -53.25 10.4619
      vertex 67.5381 -53.25 10.1913
    endloop
  endfacet
  facet normal 0.382727 -0.923862 0
    outer loop
      vertex 67.6734 -52.9234 -8.19134
      vertex 68 -52.7881 10.1913
      vertex 67.6734 -52.9234 10.1913
    endloop
  endfacet
  facet normal 0.382727 -0.923862 0
    outer loop
      vertex 68 -52.7881 10.1913
      vertex 67.6734 -52.9234 -8.19134
      vertex 68 -52.7881 -8.19134
    endloop
  endfacet
  facet normal 0.707107 -8.07039e-07 0.707107
    outer loop
      vertex 67.5381 -53.25 -8.19134
      vertex 67.6057 -97.0587 -8.25899
      vertex 67.8087 -53.25 -8.46194
    endloop
  endfacet
  facet normal 0.707368 0 0.706845
    outer loop
      vertex 67.6057 -97.0587 -8.25899
      vertex 67.5381 -53.25 -8.19134
      vertex 67.5381 -97.194 -8.19134
    endloop
  endfacet
  facet normal 0.70702 0 0.707194
    outer loop
      vertex 67.8087 -53.25 -8.46194
      vertex 67.6057 -97.0587 -8.25899
      vertex 67.8087 -97.1571 -8.46194
    endloop
  endfacet
  facet normal -0.678248 -0.280354 -0.679251
    outer loop
      vertex 148.327 -52.9234 10.1913
      vertex 148.462 -53.25 10.1913
      vertex 148.191 -53.25 10.4619
    endloop
  endfacet
  facet normal 0 0 -1
    outer loop
      vertex 148.135 -97.1147 10.4619
      vertex 148.191 -53.25 10.4619
      vertex 148.191 -97.1571 10.4619
    endloop
  endfacet
  facet normal 0 0 -1
    outer loop
      vertex 148 -97.0587 10.4619
      vertex 148.191 -53.25 10.4619
      vertex 148.135 -97.1147 10.4619
    endloop
  endfacet
  facet normal 0 0 -1
    outer loop
      vertex 148 -53.0587 10.4619
      vertex 148.191 -53.25 10.4619
      vertex 148 -97.0587 10.4619
    endloop
  endfacet
  facet normal 0 0 -1
    outer loop
      vertex 148.191 -53.25 10.4619
      vertex 148 -53.0587 10.4619
      vertex 148.135 -53.1147 10.4619
    endloop
  endfacet
  facet normal 0 0 -1
    outer loop
      vertex 68 -97.0587 10.4619
      vertex 148 -53.0587 10.4619
      vertex 148 -97.0587 10.4619
    endloop
  endfacet
  facet normal 0 0 -1
    outer loop
      vertex 68 -97.0587 10.4619
      vertex 68 -53.0587 10.4619
      vertex 148 -53.0587 10.4619
    endloop
  endfacet
  facet normal 0 0 -1
    outer loop
      vertex 67.8087 -53.25 10.4619
      vertex 68 -97.0587 10.4619
      vertex 67.8647 -97.1147 10.4619
    endloop
  endfacet
  facet normal 0 0 -1
    outer loop
      vertex 68 -97.0587 10.4619
      vertex 67.8087 -53.25 10.4619
      vertex 68 -53.0587 10.4619
    endloop
  endfacet
  facet normal 0 0 -1
    outer loop
      vertex 67.8087 -53.25 10.4619
      vertex 67.8647 -97.1147 10.4619
      vertex 67.8087 -97.1571 10.4619
    endloop
  endfacet
  facet normal 0 0 -1
    outer loop
      vertex 68 -53.0587 10.4619
      vertex 67.8087 -53.25 10.4619
      vertex 67.8647 -53.1147 10.4619
    endloop
  endfacet
  facet normal 1 -0 0
    outer loop
      vertex 67.5381 -97.194 10.1913
      vertex 67.5381 -53.25 -8.19134
      vertex 67.5381 -53.25 10.1913
    endloop
  endfacet
  facet normal 1 0 0
    outer loop
      vertex 67.5381 -53.25 -8.19134
      vertex 67.5381 -97.194 10.1913
      vertex 67.5381 -97.194 -8.19134
    endloop
  endfacet
  facet normal 0.923862 -0.382727 0
    outer loop
      vertex 67.5381 -53.25 10.1913
      vertex 67.6734 -52.9234 -8.19134
      vertex 67.6734 -52.9234 10.1913
    endloop
  endfacet
  facet normal 0.923862 -0.382727 0
    outer loop
      vertex 67.6734 -52.9234 -8.19134
      vertex 67.5381 -53.25 10.1913
      vertex 67.5381 -53.25 -8.19134
    endloop
  endfacet
  facet normal -0.280802 -0.678657 -0.678657
    outer loop
      vertex 148 -52.7881 10.1913
      vertex 148.327 -52.9234 10.1913
      vertex 148 -53.0587 10.4619
    endloop
  endfacet
  facet normal 0 -1 0
    outer loop
      vertex 68 -52.7881 -8.19134
      vertex 148 -52.7881 10.1913
      vertex 68 -52.7881 10.1913
    endloop
  endfacet
  facet normal 0 -1 -0
    outer loop
      vertex 148 -52.7881 10.1913
      vertex 68 -52.7881 -8.19134
      vertex 148 -52.7881 -8.19134
    endloop
  endfacet
  facet normal -0.280802 -0.678657 0.678657
    outer loop
      vertex 148.327 -52.9234 -8.19134
      vertex 148 -52.7881 -8.19134
      vertex 148 -53.0587 -8.46194
    endloop
  endfacet
  facet normal 0 0 1
    outer loop
      vertex 148 -53.0587 -8.46194
      vertex 148.191 -53.25 -8.46194
      vertex 148.135 -53.1147 -8.46194
    endloop
  endfacet
  facet normal 0 0 1
    outer loop
      vertex 148.191 -53.25 -8.46194
      vertex 148.135 -97.1147 -8.46194
      vertex 148.191 -97.1571 -8.46194
    endloop
  endfacet
  facet normal 0 0 1
    outer loop
      vertex 148.191 -53.25 -8.46194
      vertex 148 -53.0587 -8.46194
      vertex 148 -97.0587 -8.46194
    endloop
  endfacet
  facet normal 0 0 1
    outer loop
      vertex 148.191 -53.25 -8.46194
      vertex 148 -97.0587 -8.46194
      vertex 148.135 -97.1147 -8.46194
    endloop
  endfacet
  facet normal -0 0 1
    outer loop
      vertex 68 -53.0587 -8.46194
      vertex 148 -97.0587 -8.46194
      vertex 148 -53.0587 -8.46194
    endloop
  endfacet
  facet normal 0 0 1
    outer loop
      vertex 68 -53.0587 -8.46194
      vertex 68 -97.0587 -8.46194
      vertex 148 -97.0587 -8.46194
    endloop
  endfacet
  facet normal 0 0 1
    outer loop
      vertex 67.8087 -53.25 -8.46194
      vertex 68 -53.0587 -8.46194
      vertex 67.8647 -53.1147 -8.46194
    endloop
  endfacet
  facet normal 0 0 1
    outer loop
      vertex 68 -53.0587 -8.46194
      vertex 67.8087 -53.25 -8.46194
      vertex 68 -97.0587 -8.46194
    endloop
  endfacet
  facet normal 0 0 1
    outer loop
      vertex 68 -97.0587 -8.46194
      vertex 67.8087 -53.25 -8.46194
      vertex 67.8647 -97.1147 -8.46194
    endloop
  endfacet
  facet normal 0 0 1
    outer loop
      vertex 67.8647 -97.1147 -8.46194
      vertex 67.8087 -53.25 -8.46194
      vertex 67.8087 -97.1571 -8.46194
    endloop
  endfacet
  facet normal 0 -0.707107 -0.707107
    outer loop
      vertex 68 -52.7881 10.1913
      vertex 148 -53.0587 10.4619
      vertex 68 -53.0587 10.4619
    endloop
  endfacet
  facet normal 0 -0.707107 -0.707107
    outer loop
      vertex 148 -53.0587 10.4619
      vertex 68 -52.7881 10.1913
      vertex 148 -52.7881 10.1913
    endloop
  endfacet
  facet normal -0.677972 -0.280609 -0.679421
    outer loop
      vertex 149.327 -98.9234 11.1913
      vertex 149.191 -99.25 11.4619
      vertex 149.135 -99.1147 11.4619
    endloop
  endfacet
  facet normal -0.216094 -0.520941 0.825787
    outer loop
      vertex 148.135 -97.1147 -8.46194
      vertex 149 -99.0587 -9.46194
      vertex 149.135 -99.1147 -9.46194
    endloop
  endfacet
  facet normal -0.216094 -0.520941 0.825787
    outer loop
      vertex 149 -99.0587 -9.46194
      vertex 148.135 -97.1147 -8.46194
      vertex 148 -97.0587 -8.46194
    endloop
  endfacet
  facet normal -0.678248 -0.280354 -0.679251
    outer loop
      vertex 149.327 -98.9234 11.1913
      vertex 149.462 -99.25 11.1913
      vertex 149.191 -99.25 11.4619
    endloop
  endfacet
  facet normal 0.67878 -0.280944 0.678475
    outer loop
      vertex 66.8087 -99.25 -9.46194
      vertex 66.8647 -99.1147 -9.46194
      vertex 66.6734 -98.9234 -9.19134
    endloop
  endfacet
  facet normal 0 0 1
    outer loop
      vertex 149 -99.0587 -9.46194
      vertex 149.191 -99.25 -9.46194
      vertex 149.135 -99.1147 -9.46194
    endloop
  endfacet
  facet normal -0 0 1
    outer loop
      vertex 67 -99.0587 -9.46194
      vertex 149.191 -99.25 -9.46194
      vertex 149 -99.0587 -9.46194
    endloop
  endfacet
  facet normal 0 0 1
    outer loop
      vertex 66.8087 -99.25 -9.46194
      vertex 67 -99.0587 -9.46194
      vertex 66.8647 -99.1147 -9.46194
    endloop
  endfacet
  facet normal 0 0 1
    outer loop
      vertex 67 -99.0587 -9.46194
      vertex 66.8087 -99.25 -9.46194
      vertex 149.191 -99.25 -9.46194
    endloop
  endfacet
  facet normal 0 0 -1
    outer loop
      vertex 149.191 -99.25 11.4619
      vertex 149 -99.0587 11.4619
      vertex 149.135 -99.1147 11.4619
    endloop
  endfacet
  facet normal 0 0 -1
    outer loop
      vertex 149.191 -99.25 11.4619
      vertex 67 -99.0587 11.4619
      vertex 149 -99.0587 11.4619
    endloop
  endfacet
  facet normal 0 0 -1
    outer loop
      vertex 66.8087 -99.25 11.4619
      vertex 67 -99.0587 11.4619
      vertex 149.191 -99.25 11.4619
    endloop
  endfacet
  facet normal 0 0 -1
    outer loop
      vertex 67 -99.0587 11.4619
      vertex 66.8087 -99.25 11.4619
      vertex 66.8647 -99.1147 11.4619
    endloop
  endfacet
  facet normal 0.428788 -0.566324 -0.70386
    outer loop
      vertex 66.8647 -99.1147 11.4619
      vertex 67.8087 -97.1571 10.4619
      vertex 67.8647 -97.1147 10.4619
    endloop
  endfacet
  facet normal 0.429033 -0.566353 -0.703686
    outer loop
      vertex 66.6734 -98.9234 11.1913
      vertex 67.8087 -97.1571 10.4619
      vertex 66.8647 -99.1147 11.4619
    endloop
  endfacet
  facet normal 0.428922 -0.566321 -0.703781
    outer loop
      vertex 67.8087 -97.1571 10.4619
      vertex 66.6734 -98.9234 11.1913
      vertex 67.6057 -97.0587 10.259
    endloop
  endfacet
  facet normal -0.428926 -0.56645 0.703674
    outer loop
      vertex 148.191 -97.1571 -8.46194
      vertex 149.327 -98.9234 -9.19134
      vertex 148.394 -97.0587 -8.25899
    endloop
  endfacet
  facet normal -0.428294 -0.566264 0.704208
    outer loop
      vertex 149.327 -98.9234 -9.19134
      vertex 148.191 -97.1571 -8.46194
      vertex 149.135 -99.1147 -9.46194
    endloop
  endfacet
  facet normal -0.428788 -0.566324 0.70386
    outer loop
      vertex 149.135 -99.1147 -9.46194
      vertex 148.191 -97.1571 -8.46194
      vertex 148.135 -97.1147 -8.46194
    endloop
  endfacet
  facet normal -0.894365 -0.447338 0
    outer loop
      vertex 148.462 -97.194 -8.19134
      vertex 149.327 -98.9234 -9.19134
      vertex 148.462 -97.194 10.1913
    endloop
  endfacet
  facet normal -0.8939 -0.448262 0.00200078
    outer loop
      vertex 149.327 -98.9234 -9.19134
      vertex 148.462 -97.194 -8.19134
      vertex 148.394 -97.0587 -8.25899
    endloop
  endfacet
  facet normal -0.8939 -0.448262 -0.0020001
    outer loop
      vertex 148.462 -97.194 10.1913
      vertex 149.327 -98.9234 11.1913
      vertex 148.394 -97.0587 10.259
    endloop
  endfacet
  facet normal -0.894365 -0.447338 -0
    outer loop
      vertex 149.327 -98.9234 11.1913
      vertex 148.462 -97.194 10.1913
      vertex 149.327 -98.9234 -9.19134
    endloop
  endfacet
  facet normal -0.924162 -0.382002 0
    outer loop
      vertex 149.462 -99.25 -9.19134
      vertex 149.327 -98.9234 11.1913
      vertex 149.327 -98.9234 -9.19134
    endloop
  endfacet
  facet normal -0.924162 -0.382002 0
    outer loop
      vertex 149.327 -98.9234 11.1913
      vertex 149.462 -99.25 -9.19134
      vertex 149.462 -99.25 11.1913
    endloop
  endfacet
  facet normal -0.678248 -0.280354 0.679251
    outer loop
      vertex 149.462 -99.25 -9.19134
      vertex 149.327 -98.9234 -9.19134
      vertex 149.191 -99.25 -9.46194
    endloop
  endfacet
  facet normal -0.216094 -0.520941 -0.825787
    outer loop
      vertex 149 -99.0587 11.4619
      vertex 148.135 -97.1147 10.4619
      vertex 149.135 -99.1147 11.4619
    endloop
  endfacet
  facet normal -0.216094 -0.520941 -0.825787
    outer loop
      vertex 148.135 -97.1147 10.4619
      vertex 149 -99.0587 11.4619
      vertex 148 -97.0587 10.4619
    endloop
  endfacet
  facet normal -0.677972 -0.280609 0.679421
    outer loop
      vertex 149.191 -99.25 -9.46194
      vertex 149.327 -98.9234 -9.19134
      vertex 149.135 -99.1147 -9.46194
    endloop
  endfacet
  facet normal 0 -0.447214 0.894427
    outer loop
      vertex 68 -97.0587 -8.46194
      vertex 149 -99.0587 -9.46194
      vertex 148 -97.0587 -8.46194
    endloop
  endfacet
  facet normal 0 -0.447214 0.894427
    outer loop
      vertex 149 -99.0587 -9.46194
      vertex 68 -97.0587 -8.46194
      vertex 67 -99.0587 -9.46194
    endloop
  endfacet
  facet normal 0 -0.447214 -0.894427
    outer loop
      vertex 149 -99.0587 11.4619
      vertex 68 -97.0587 10.4619
      vertex 148 -97.0587 10.4619
    endloop
  endfacet
  facet normal 0 -0.447214 -0.894427
    outer loop
      vertex 68 -97.0587 10.4619
      vertex 149 -99.0587 11.4619
      vertex 67 -99.0587 11.4619
    endloop
  endfacet
  facet normal -0.428294 -0.566264 -0.704208
    outer loop
      vertex 148.191 -97.1571 10.4619
      vertex 149.327 -98.9234 11.1913
      vertex 149.135 -99.1147 11.4619
    endloop
  endfacet
  facet normal -0.428839 -0.566424 -0.703748
    outer loop
      vertex 149.327 -98.9234 11.1913
      vertex 148.191 -97.1571 10.4619
      vertex 148.394 -97.0587 10.259
    endloop
  endfacet
  facet normal -0.428788 -0.566324 -0.70386
    outer loop
      vertex 148.191 -97.1571 10.4619
      vertex 149.135 -99.1147 11.4619
      vertex 148.135 -97.1147 10.4619
    endloop
  endfacet
  facet normal 0.428788 -0.566324 0.70386
    outer loop
      vertex 67.8087 -97.1571 -8.46194
      vertex 66.8647 -99.1147 -9.46194
      vertex 67.8647 -97.1147 -8.46194
    endloop
  endfacet
  facet normal 0.429009 -0.566346 0.703707
    outer loop
      vertex 66.6734 -98.9234 -9.19134
      vertex 67.8087 -97.1571 -8.46194
      vertex 67.6057 -97.0587 -8.25899
    endloop
  endfacet
  facet normal 0.429033 -0.566353 0.703686
    outer loop
      vertex 67.8087 -97.1571 -8.46194
      vertex 66.6734 -98.9234 -9.19134
      vertex 66.8647 -99.1147 -9.46194
    endloop
  endfacet
  facet normal 0.678591 -0.281119 0.678591
    outer loop
      vertex 66.8087 -99.25 -9.46194
      vertex 66.6734 -98.9234 -9.19134
      vertex 66.5381 -99.25 -9.19134
    endloop
  endfacet
  facet normal 0.215552 -0.520788 0.826025
    outer loop
      vertex 67.8647 -97.1147 -8.46194
      vertex 67 -99.0587 -9.46194
      vertex 68 -97.0587 -8.46194
    endloop
  endfacet
  facet normal 0.215552 -0.520788 0.826025
    outer loop
      vertex 67 -99.0587 -9.46194
      vertex 67.8647 -97.1147 -8.46194
      vertex 66.8647 -99.1147 -9.46194
    endloop
  endfacet
  facet normal 0.678591 -0.281119 -0.678591
    outer loop
      vertex 66.6734 -98.9234 11.1913
      vertex 66.8087 -99.25 11.4619
      vertex 66.5381 -99.25 11.1913
    endloop
  endfacet
  facet normal 0.215552 -0.520788 -0.826025
    outer loop
      vertex 67 -99.0587 11.4619
      vertex 67.8647 -97.1147 10.4619
      vertex 68 -97.0587 10.4619
    endloop
  endfacet
  facet normal 0.215552 -0.520788 -0.826025
    outer loop
      vertex 67.8647 -97.1147 10.4619
      vertex 67 -99.0587 11.4619
      vertex 66.8647 -99.1147 11.4619
    endloop
  endfacet
  facet normal 0.67878 -0.280944 -0.678475
    outer loop
      vertex 66.8647 -99.1147 11.4619
      vertex 66.8087 -99.25 11.4619
      vertex 66.6734 -98.9234 11.1913
    endloop
  endfacet
  facet normal 0.894427 -0.447214 0
    outer loop
      vertex 67.5381 -97.194 10.1913
      vertex 66.6734 -98.9234 11.1913
      vertex 67.5381 -97.194 -8.19134
    endloop
  endfacet
  facet normal 0.894498 -0.447072 0.000306471
    outer loop
      vertex 66.6734 -98.9234 11.1913
      vertex 67.5381 -97.194 10.1913
      vertex 67.6057 -97.0587 10.259
    endloop
  endfacet
  facet normal 0.894498 -0.447072 -0.000306576
    outer loop
      vertex 67.5381 -97.194 -8.19134
      vertex 66.6734 -98.9234 -9.19134
      vertex 67.6057 -97.0587 -8.25899
    endloop
  endfacet
  facet normal 0.894427 -0.447214 0
    outer loop
      vertex 66.6734 -98.9234 -9.19134
      vertex 67.5381 -97.194 -8.19134
      vertex 66.6734 -98.9234 11.1913
    endloop
  endfacet
  facet normal 0.923862 -0.382727 0
    outer loop
      vertex 66.5381 -99.25 11.1913
      vertex 66.6734 -98.9234 -9.19134
      vertex 66.6734 -98.9234 11.1913
    endloop
  endfacet
  facet normal 0.923862 -0.382727 0
    outer loop
      vertex 66.6734 -98.9234 -9.19134
      vertex 66.5381 -99.25 11.1913
      vertex 66.5381 -99.25 -9.19134
    endloop
  endfacet
  facet normal 0.280944 -0.67878 -0.678475
    outer loop
      vertex 68 -53.0587 33.4619
      vertex 67.8647 -53.1147 33.4619
      vertex 67.6734 -52.9234 33.1913
    endloop
  endfacet
  facet normal -0.677972 -0.280609 0.679421
    outer loop
      vertex 148.191 -53.25 12.5381
      vertex 148.327 -52.9234 12.8087
      vertex 148.135 -53.1147 12.5381
    endloop
  endfacet
  facet normal 0.382727 -0.923862 0
    outer loop
      vertex 67.6734 -52.9234 12.8087
      vertex 68 -52.7881 33.1913
      vertex 67.6734 -52.9234 33.1913
    endloop
  endfacet
  facet normal 0.382727 -0.923862 0
    outer loop
      vertex 68 -52.7881 33.1913
      vertex 67.6734 -52.9234 12.8087
      vertex 68 -52.7881 12.8087
    endloop
  endfacet
  facet normal -0.705542 0 0.708668
    outer loop
      vertex 148.462 -53.25 12.8087
      vertex 148.394 -97.0587 12.741
      vertex 148.462 -97.194 12.8087
    endloop
  endfacet
  facet normal -0.706584 3.22458e-06 0.707629
    outer loop
      vertex 148.191 -53.25 12.5381
      vertex 148.394 -97.0587 12.741
      vertex 148.462 -53.25 12.8087
    endloop
  endfacet
  facet normal -0.706933 0 0.707281
    outer loop
      vertex 148.394 -97.0587 12.741
      vertex 148.191 -53.25 12.5381
      vertex 148.191 -97.1571 12.5381
    endloop
  endfacet
  facet normal 0 -0.707107 -0.707107
    outer loop
      vertex 68 -52.7881 33.1913
      vertex 148 -53.0587 33.4619
      vertex 68 -53.0587 33.4619
    endloop
  endfacet
  facet normal 0 -0.707107 -0.707107
    outer loop
      vertex 148 -53.0587 33.4619
      vertex 68 -52.7881 33.1913
      vertex 148 -52.7881 33.1913
    endloop
  endfacet
  facet normal 0.67878 -0.280944 0.678475
    outer loop
      vertex 67.8087 -53.25 12.5381
      vertex 67.8647 -53.1147 12.5381
      vertex 67.6734 -52.9234 12.8087
    endloop
  endfacet
  facet normal 0.281119 -0.678591 -0.678591
    outer loop
      vertex 68 -52.7881 33.1913
      vertex 68 -53.0587 33.4619
      vertex 67.6734 -52.9234 33.1913
    endloop
  endfacet
  facet normal 0.678591 -0.281119 -0.678591
    outer loop
      vertex 67.6734 -52.9234 33.1913
      vertex 67.8087 -53.25 33.4619
      vertex 67.5381 -53.25 33.1913
    endloop
  endfacet
  facet normal 0.67878 -0.280944 -0.678475
    outer loop
      vertex 67.8647 -53.1147 33.4619
      vertex 67.8087 -53.25 33.4619
      vertex 67.6734 -52.9234 33.1913
    endloop
  endfacet
  facet normal -0.677972 -0.280609 -0.679421
    outer loop
      vertex 148.327 -52.9234 33.1913
      vertex 148.191 -53.25 33.4619
      vertex 148.135 -53.1147 33.4619
    endloop
  endfacet
  facet normal -0.280802 -0.678657 -0.678657
    outer loop
      vertex 148 -52.7881 33.1913
      vertex 148.327 -52.9234 33.1913
      vertex 148 -53.0587 33.4619
    endloop
  endfacet
  facet normal 0.280944 -0.67878 0.678475
    outer loop
      vertex 67.8647 -53.1147 12.5381
      vertex 68 -53.0587 12.5381
      vertex 67.6734 -52.9234 12.8087
    endloop
  endfacet
  facet normal 0.923862 -0.382727 0
    outer loop
      vertex 67.5381 -53.25 33.1913
      vertex 67.6734 -52.9234 12.8087
      vertex 67.6734 -52.9234 33.1913
    endloop
  endfacet
  facet normal 0.923862 -0.382727 0
    outer loop
      vertex 67.6734 -52.9234 12.8087
      vertex 67.5381 -53.25 33.1913
      vertex 67.5381 -53.25 12.8087
    endloop
  endfacet
  facet normal -0.281295 -0.678123 -0.678986
    outer loop
      vertex 148.327 -52.9234 33.1913
      vertex 148.135 -53.1147 33.4619
      vertex 148 -53.0587 33.4619
    endloop
  endfacet
  facet normal -0.705542 0 -0.708668
    outer loop
      vertex 148.394 -97.0587 33.259
      vertex 148.462 -53.25 33.1913
      vertex 148.462 -97.194 33.1913
    endloop
  endfacet
  facet normal -0.706933 -0 -0.707281
    outer loop
      vertex 148.191 -53.25 33.4619
      vertex 148.394 -97.0587 33.259
      vertex 148.191 -97.1571 33.4619
    endloop
  endfacet
  facet normal -0.706584 3.22458e-06 -0.707629
    outer loop
      vertex 148.394 -97.0587 33.259
      vertex 148.191 -53.25 33.4619
      vertex 148.462 -53.25 33.1913
    endloop
  endfacet
  facet normal 0.707107 -1.61408e-06 -0.707107
    outer loop
      vertex 67.8087 -53.25 33.4619
      vertex 67.6057 -97.0587 33.259
      vertex 67.5381 -53.25 33.1913
    endloop
  endfacet
  facet normal 0.706933 0 -0.707281
    outer loop
      vertex 67.6057 -97.0587 33.259
      vertex 67.8087 -53.25 33.4619
      vertex 67.8087 -97.1571 33.4619
    endloop
  endfacet
  facet normal 0.707629 0 -0.706584
    outer loop
      vertex 67.5381 -53.25 33.1913
      vertex 67.6057 -97.0587 33.259
      vertex 67.5381 -97.194 33.1913
    endloop
  endfacet
  facet normal 1 -0 0
    outer loop
      vertex 67.5381 -97.194 33.1913
      vertex 67.5381 -53.25 12.8087
      vertex 67.5381 -53.25 33.1913
    endloop
  endfacet
  facet normal 1 0 0
    outer loop
      vertex 67.5381 -53.25 12.8087
      vertex 67.5381 -97.194 33.1913
      vertex 67.5381 -97.194 12.8087
    endloop
  endfacet
  facet normal -0.678248 -0.280354 0.679251
    outer loop
      vertex 148.462 -53.25 12.8087
      vertex 148.327 -52.9234 12.8087
      vertex 148.191 -53.25 12.5381
    endloop
  endfacet
  facet normal -0.280802 -0.678657 0.678657
    outer loop
      vertex 148.327 -52.9234 12.8087
      vertex 148 -52.7881 12.8087
      vertex 148 -53.0587 12.5381
    endloop
  endfacet
  facet normal -0.678248 -0.280354 -0.679251
    outer loop
      vertex 148.327 -52.9234 33.1913
      vertex 148.462 -53.25 33.1913
      vertex 148.191 -53.25 33.4619
    endloop
  endfacet
  facet normal -0.281295 -0.678123 0.678986
    outer loop
      vertex 148.135 -53.1147 12.5381
      vertex 148.327 -52.9234 12.8087
      vertex 148 -53.0587 12.5381
    endloop
  endfacet
  facet normal 0.281119 -0.678591 0.678591
    outer loop
      vertex 68 -53.0587 12.5381
      vertex 68 -52.7881 12.8087
      vertex 67.6734 -52.9234 12.8087
    endloop
  endfacet
  facet normal -1 0 0
    outer loop
      vertex 148.462 -97.194 12.8087
      vertex 148.462 -53.25 33.1913
      vertex 148.462 -53.25 12.8087
    endloop
  endfacet
  facet normal -1 -0 0
    outer loop
      vertex 148.462 -53.25 33.1913
      vertex 148.462 -97.194 12.8087
      vertex 148.462 -97.194 33.1913
    endloop
  endfacet
  facet normal -0.924162 -0.382002 0
    outer loop
      vertex 148.462 -53.25 12.8087
      vertex 148.327 -52.9234 33.1913
      vertex 148.327 -52.9234 12.8087
    endloop
  endfacet
  facet normal -0.924162 -0.382002 0
    outer loop
      vertex 148.327 -52.9234 33.1913
      vertex 148.462 -53.25 12.8087
      vertex 148.462 -53.25 33.1913
    endloop
  endfacet
  facet normal 0 -1 0
    outer loop
      vertex 68 -52.7881 12.8087
      vertex 148 -52.7881 33.1913
      vertex 68 -52.7881 33.1913
    endloop
  endfacet
  facet normal 0 -1 -0
    outer loop
      vertex 148 -52.7881 33.1913
      vertex 68 -52.7881 12.8087
      vertex 148 -52.7881 12.8087
    endloop
  endfacet
  facet normal 0 -0.707107 0.707107
    outer loop
      vertex 68 -53.0587 12.5381
      vertex 148 -52.7881 12.8087
      vertex 68 -52.7881 12.8087
    endloop
  endfacet
  facet normal 0 -0.707107 0.707107
    outer loop
      vertex 148 -52.7881 12.8087
      vertex 68 -53.0587 12.5381
      vertex 148 -53.0587 12.5381
    endloop
  endfacet
  facet normal 0.678591 -0.281119 0.678591
    outer loop
      vertex 67.8087 -53.25 12.5381
      vertex 67.6734 -52.9234 12.8087
      vertex 67.5381 -53.25 12.8087
    endloop
  endfacet
  facet normal 0 0 -1
    outer loop
      vertex 148.135 -97.1147 33.4619
      vertex 148.191 -53.25 33.4619
      vertex 148.191 -97.1571 33.4619
    endloop
  endfacet
  facet normal 0 0 -1
    outer loop
      vertex 148 -97.0587 33.4619
      vertex 148.191 -53.25 33.4619
      vertex 148.135 -97.1147 33.4619
    endloop
  endfacet
  facet normal 0 0 -1
    outer loop
      vertex 148 -53.0587 33.4619
      vertex 148.191 -53.25 33.4619
      vertex 148 -97.0587 33.4619
    endloop
  endfacet
  facet normal 0 0 -1
    outer loop
      vertex 148.191 -53.25 33.4619
      vertex 148 -53.0587 33.4619
      vertex 148.135 -53.1147 33.4619
    endloop
  endfacet
  facet normal 0 0 -1
    outer loop
      vertex 68 -97.0587 33.4619
      vertex 148 -53.0587 33.4619
      vertex 148 -97.0587 33.4619
    endloop
  endfacet
  facet normal 0 0 -1
    outer loop
      vertex 68 -97.0587 33.4619
      vertex 68 -53.0587 33.4619
      vertex 148 -53.0587 33.4619
    endloop
  endfacet
  facet normal 0 0 -1
    outer loop
      vertex 67.8087 -53.25 33.4619
      vertex 68 -97.0587 33.4619
      vertex 67.8647 -97.1147 33.4619
    endloop
  endfacet
  facet normal 0 0 -1
    outer loop
      vertex 68 -97.0587 33.4619
      vertex 67.8087 -53.25 33.4619
      vertex 68 -53.0587 33.4619
    endloop
  endfacet
  facet normal 0 0 -1
    outer loop
      vertex 67.8087 -53.25 33.4619
      vertex 67.8647 -97.1147 33.4619
      vertex 67.8087 -97.1571 33.4619
    endloop
  endfacet
  facet normal 0 0 -1
    outer loop
      vertex 68 -53.0587 33.4619
      vertex 67.8087 -53.25 33.4619
      vertex 67.8647 -53.1147 33.4619
    endloop
  endfacet
  facet normal 0 0 1
    outer loop
      vertex 148 -53.0587 12.5381
      vertex 148.191 -53.25 12.5381
      vertex 148.135 -53.1147 12.5381
    endloop
  endfacet
  facet normal 0 0 1
    outer loop
      vertex 148.191 -53.25 12.5381
      vertex 148.135 -97.1147 12.5381
      vertex 148.191 -97.1571 12.5381
    endloop
  endfacet
  facet normal 0 0 1
    outer loop
      vertex 148.191 -53.25 12.5381
      vertex 148 -53.0587 12.5381
      vertex 148 -97.0587 12.5381
    endloop
  endfacet
  facet normal 0 0 1
    outer loop
      vertex 148.191 -53.25 12.5381
      vertex 148 -97.0587 12.5381
      vertex 148.135 -97.1147 12.5381
    endloop
  endfacet
  facet normal -0 0 1
    outer loop
      vertex 68 -53.0587 12.5381
      vertex 148 -97.0587 12.5381
      vertex 148 -53.0587 12.5381
    endloop
  endfacet
  facet normal 0 0 1
    outer loop
      vertex 68 -53.0587 12.5381
      vertex 68 -97.0587 12.5381
      vertex 148 -97.0587 12.5381
    endloop
  endfacet
  facet normal 0 0 1
    outer loop
      vertex 67.8087 -53.25 12.5381
      vertex 68 -53.0587 12.5381
      vertex 67.8647 -53.1147 12.5381
    endloop
  endfacet
  facet normal 0 0 1
    outer loop
      vertex 68 -53.0587 12.5381
      vertex 67.8087 -53.25 12.5381
      vertex 68 -97.0587 12.5381
    endloop
  endfacet
  facet normal 0 0 1
    outer loop
      vertex 68 -97.0587 12.5381
      vertex 67.8087 -53.25 12.5381
      vertex 67.8647 -97.1147 12.5381
    endloop
  endfacet
  facet normal 0 0 1
    outer loop
      vertex 67.8647 -97.1147 12.5381
      vertex 67.8087 -53.25 12.5381
      vertex 67.8087 -97.1571 12.5381
    endloop
  endfacet
  facet normal 0.707107 -1.61408e-06 0.707107
    outer loop
      vertex 67.5381 -53.25 12.8087
      vertex 67.6057 -97.0587 12.741
      vertex 67.8087 -53.25 12.5381
    endloop
  endfacet
  facet normal 0.707629 0 0.706584
    outer loop
      vertex 67.6057 -97.0587 12.741
      vertex 67.5381 -53.25 12.8087
      vertex 67.5381 -97.194 12.8087
    endloop
  endfacet
  facet normal 0.706933 0 0.707281
    outer loop
      vertex 67.8087 -53.25 12.5381
      vertex 67.6057 -97.0587 12.741
      vertex 67.8087 -97.1571 12.5381
    endloop
  endfacet
  facet normal -0.382327 -0.924027 0
    outer loop
      vertex 148 -52.7881 12.8087
      vertex 148.327 -52.9234 33.1913
      vertex 148 -52.7881 33.1913
    endloop
  endfacet
  facet normal -0.382327 -0.924027 -0
    outer loop
      vertex 148.327 -52.9234 33.1913
      vertex 148 -52.7881 12.8087
      vertex 148.327 -52.9234 12.8087
    endloop
  endfacet
  facet normal 0.894427 -0.447214 0
    outer loop
      vertex 67.5381 -97.194 33.1913
      vertex 66.6734 -98.9234 34.1913
      vertex 67.5381 -97.194 12.8087
    endloop
  endfacet
  facet normal 0.894498 -0.447072 0.000306471
    outer loop
      vertex 66.6734 -98.9234 34.1913
      vertex 67.5381 -97.194 33.1913
      vertex 67.6057 -97.0587 33.259
    endloop
  endfacet
  facet normal 0.894498 -0.447072 -0.000306471
    outer loop
      vertex 67.5381 -97.194 12.8087
      vertex 66.6734 -98.9234 11.8087
      vertex 67.6057 -97.0587 12.741
    endloop
  endfacet
  facet normal 0.894427 -0.447214 0
    outer loop
      vertex 66.6734 -98.9234 11.8087
      vertex 67.5381 -97.194 12.8087
      vertex 66.6734 -98.9234 34.1913
    endloop
  endfacet
  facet normal -0.428294 -0.566264 -0.704208
    outer loop
      vertex 148.191 -97.1571 33.4619
      vertex 149.327 -98.9234 34.1913
      vertex 149.135 -99.1147 34.4619
    endloop
  endfacet
  facet normal -0.428839 -0.566424 -0.703748
    outer loop
      vertex 149.327 -98.9234 34.1913
      vertex 148.191 -97.1571 33.4619
      vertex 148.394 -97.0587 33.259
    endloop
  endfacet
  facet normal -0.428788 -0.566324 -0.70386
    outer loop
      vertex 148.191 -97.1571 33.4619
      vertex 149.135 -99.1147 34.4619
      vertex 148.135 -97.1147 33.4619
    endloop
  endfacet
  facet normal 0 -0.447214 0.894427
    outer loop
      vertex 68 -97.0587 12.5381
      vertex 149 -99.0587 11.5381
      vertex 148 -97.0587 12.5381
    endloop
  endfacet
  facet normal 0 -0.447214 0.894427
    outer loop
      vertex 149 -99.0587 11.5381
      vertex 68 -97.0587 12.5381
      vertex 67 -99.0587 11.5381
    endloop
  endfacet
  facet normal -0.428839 -0.566424 0.703748
    outer loop
      vertex 148.191 -97.1571 12.5381
      vertex 149.327 -98.9234 11.8087
      vertex 148.394 -97.0587 12.741
    endloop
  endfacet
  facet normal -0.428294 -0.566264 0.704208
    outer loop
      vertex 149.327 -98.9234 11.8087
      vertex 148.191 -97.1571 12.5381
      vertex 149.135 -99.1147 11.5381
    endloop
  endfacet
  facet normal -0.428788 -0.566324 0.70386
    outer loop
      vertex 149.135 -99.1147 11.5381
      vertex 148.191 -97.1571 12.5381
      vertex 148.135 -97.1147 12.5381
    endloop
  endfacet
  facet normal 0 0 1
    outer loop
      vertex 149 -99.0587 11.5381
      vertex 149.191 -99.25 11.5381
      vertex 149.135 -99.1147 11.5381
    endloop
  endfacet
  facet normal -0 0 1
    outer loop
      vertex 67 -99.0587 11.5381
      vertex 149.191 -99.25 11.5381
      vertex 149 -99.0587 11.5381
    endloop
  endfacet
  facet normal 0 0 1
    outer loop
      vertex 66.8087 -99.25 11.5381
      vertex 67 -99.0587 11.5381
      vertex 66.8647 -99.1147 11.5381
    endloop
  endfacet
  facet normal 0 0 1
    outer loop
      vertex 67 -99.0587 11.5381
      vertex 66.8087 -99.25 11.5381
      vertex 149.191 -99.25 11.5381
    endloop
  endfacet
  facet normal 0.67878 -0.280944 0.678475
    outer loop
      vertex 66.8087 -99.25 11.5381
      vertex 66.8647 -99.1147 11.5381
      vertex 66.6734 -98.9234 11.8087
    endloop
  endfacet
  facet normal 0.678591 -0.281119 -0.678591
    outer loop
      vertex 66.6734 -98.9234 34.1913
      vertex 66.8087 -99.25 34.4619
      vertex 66.5381 -99.25 34.1913
    endloop
  endfacet
  facet normal -0.678248 -0.280354 -0.679251
    outer loop
      vertex 149.327 -98.9234 34.1913
      vertex 149.462 -99.25 34.1913
      vertex 149.191 -99.25 34.4619
    endloop
  endfacet
  facet normal 0 -0.447214 -0.894427
    outer loop
      vertex 149 -99.0587 34.4619
      vertex 68 -97.0587 33.4619
      vertex 148 -97.0587 33.4619
    endloop
  endfacet
  facet normal 0 -0.447214 -0.894427
    outer loop
      vertex 68 -97.0587 33.4619
      vertex 149 -99.0587 34.4619
      vertex 67 -99.0587 34.4619
    endloop
  endfacet
  facet normal -0.678248 -0.280354 0.679251
    outer loop
      vertex 149.462 -99.25 11.8087
      vertex 149.327 -98.9234 11.8087
      vertex 149.191 -99.25 11.5381
    endloop
  endfacet
  facet normal -0.216094 -0.520941 -0.825787
    outer loop
      vertex 149 -99.0587 34.4619
      vertex 148.135 -97.1147 33.4619
      vertex 149.135 -99.1147 34.4619
    endloop
  endfacet
  facet normal -0.216094 -0.520941 -0.825787
    outer loop
      vertex 148.135 -97.1147 33.4619
      vertex 149 -99.0587 34.4619
      vertex 148 -97.0587 33.4619
    endloop
  endfacet
  facet normal -0.924162 -0.382002 0
    outer loop
      vertex 149.462 -99.25 11.8087
      vertex 149.327 -98.9234 34.1913
      vertex 149.327 -98.9234 11.8087
    endloop
  endfacet
  facet normal -0.924162 -0.382002 0
    outer loop
      vertex 149.327 -98.9234 34.1913
      vertex 149.462 -99.25 11.8087
      vertex 149.462 -99.25 34.1913
    endloop
  endfacet
  facet normal -0.677972 -0.280609 0.679421
    outer loop
      vertex 149.191 -99.25 11.5381
      vertex 149.327 -98.9234 11.8087
      vertex 149.135 -99.1147 11.5381
    endloop
  endfacet
  facet normal 0.215552 -0.520788 -0.826025
    outer loop
      vertex 67 -99.0587 34.4619
      vertex 67.8647 -97.1147 33.4619
      vertex 68 -97.0587 33.4619
    endloop
  endfacet
  facet normal 0.215552 -0.520788 -0.826025
    outer loop
      vertex 67.8647 -97.1147 33.4619
      vertex 67 -99.0587 34.4619
      vertex 66.8647 -99.1147 34.4619
    endloop
  endfacet
  facet normal 0.678591 -0.281119 0.678591
    outer loop
      vertex 66.8087 -99.25 11.5381
      vertex 66.6734 -98.9234 11.8087
      vertex 66.5381 -99.25 11.8087
    endloop
  endfacet
  facet normal -0.677972 -0.280609 -0.679421
    outer loop
      vertex 149.327 -98.9234 34.1913
      vertex 149.191 -99.25 34.4619
      vertex 149.135 -99.1147 34.4619
    endloop
  endfacet
  facet normal 0.215552 -0.520788 0.826025
    outer loop
      vertex 67.8647 -97.1147 12.5381
      vertex 67 -99.0587 11.5381
      vertex 68 -97.0587 12.5381
    endloop
  endfacet
  facet normal 0.215552 -0.520788 0.826025
    outer loop
      vertex 67 -99.0587 11.5381
      vertex 67.8647 -97.1147 12.5381
      vertex 66.8647 -99.1147 11.5381
    endloop
  endfacet
  facet normal 0.428788 -0.566324 0.70386
    outer loop
      vertex 67.8087 -97.1571 12.5381
      vertex 66.8647 -99.1147 11.5381
      vertex 67.8647 -97.1147 12.5381
    endloop
  endfacet
  facet normal 0.428922 -0.566321 0.703781
    outer loop
      vertex 66.6734 -98.9234 11.8087
      vertex 67.8087 -97.1571 12.5381
      vertex 67.6057 -97.0587 12.741
    endloop
  endfacet
  facet normal 0.429033 -0.566353 0.703686
    outer loop
      vertex 67.8087 -97.1571 12.5381
      vertex 66.6734 -98.9234 11.8087
      vertex 66.8647 -99.1147 11.5381
    endloop
  endfacet
  facet normal 0.67878 -0.280944 -0.678475
    outer loop
      vertex 66.8647 -99.1147 34.4619
      vertex 66.8087 -99.25 34.4619
      vertex 66.6734 -98.9234 34.1913
    endloop
  endfacet
  facet normal 0.923862 -0.382727 0
    outer loop
      vertex 66.5381 -99.25 34.1913
      vertex 66.6734 -98.9234 11.8087
      vertex 66.6734 -98.9234 34.1913
    endloop
  endfacet
  facet normal 0.923862 -0.382727 0
    outer loop
      vertex 66.6734 -98.9234 11.8087
      vertex 66.5381 -99.25 34.1913
      vertex 66.5381 -99.25 11.8087
    endloop
  endfacet
  facet normal -0.216094 -0.520941 0.825787
    outer loop
      vertex 148.135 -97.1147 12.5381
      vertex 149 -99.0587 11.5381
      vertex 149.135 -99.1147 11.5381
    endloop
  endfacet
  facet normal -0.216094 -0.520941 0.825787
    outer loop
      vertex 149 -99.0587 11.5381
      vertex 148.135 -97.1147 12.5381
      vertex 148 -97.0587 12.5381
    endloop
  endfacet
  facet normal -0.894365 -0.447338 0
    outer loop
      vertex 148.462 -97.194 12.8087
      vertex 149.327 -98.9234 11.8087
      vertex 148.462 -97.194 33.1913
    endloop
  endfacet
  facet normal -0.8939 -0.448262 0.0020001
    outer loop
      vertex 149.327 -98.9234 11.8087
      vertex 148.462 -97.194 12.8087
      vertex 148.394 -97.0587 12.741
    endloop
  endfacet
  facet normal -0.8939 -0.448262 -0.0020001
    outer loop
      vertex 148.462 -97.194 33.1913
      vertex 149.327 -98.9234 34.1913
      vertex 148.394 -97.0587 33.259
    endloop
  endfacet
  facet normal -0.894365 -0.447338 -0
    outer loop
      vertex 149.327 -98.9234 34.1913
      vertex 148.462 -97.194 33.1913
      vertex 149.327 -98.9234 11.8087
    endloop
  endfacet
  facet normal 0.428788 -0.566324 -0.70386
    outer loop
      vertex 66.8647 -99.1147 34.4619
      vertex 67.8087 -97.1571 33.4619
      vertex 67.8647 -97.1147 33.4619
    endloop
  endfacet
  facet normal 0.429033 -0.566353 -0.703686
    outer loop
      vertex 66.6734 -98.9234 34.1913
      vertex 67.8087 -97.1571 33.4619
      vertex 66.8647 -99.1147 34.4619
    endloop
  endfacet
  facet normal 0.428922 -0.566321 -0.703781
    outer loop
      vertex 67.8087 -97.1571 33.4619
      vertex 66.6734 -98.9234 34.1913
      vertex 67.6057 -97.0587 33.259
    endloop
  endfacet
  facet normal 0 0 -1
    outer loop
      vertex 149.191 -99.25 34.4619
      vertex 149 -99.0587 34.4619
      vertex 149.135 -99.1147 34.4619
    endloop
  endfacet
  facet normal 0 0 -1
    outer loop
      vertex 149.191 -99.25 34.4619
      vertex 67 -99.0587 34.4619
      vertex 149 -99.0587 34.4619
    endloop
  endfacet
  facet normal 0 0 -1
    outer loop
      vertex 66.8087 -99.25 34.4619
      vertex 67 -99.0587 34.4619
      vertex 149.191 -99.25 34.4619
    endloop
  endfacet
  facet normal 0 0 -1
    outer loop
      vertex 67 -99.0587 34.4619
      vertex 66.8087 -99.25 34.4619
      vertex 66.8647 -99.1147 34.4619
    endloop
  endfacet
  facet normal -0.678591 -0.281119 -0.678591
    outer loop
      vertex 65.3266 -52.9234 33.1913
      vertex 65.4619 -53.25 33.1913
      vertex 65.1913 -53.25 33.4619
    endloop
  endfacet
  facet normal -0.281119 -0.678591 0.678591
    outer loop
      vertex 65.3266 -52.9234 -8.19134
      vertex 65 -52.7881 -8.19134
      vertex 65 -53.0587 -8.46194
    endloop
  endfacet
  facet normal -0.280944 -0.67878 0.678475
    outer loop
      vertex 65.1353 -53.1147 -8.46194
      vertex 65.3266 -52.9234 -8.19134
      vertex 65 -53.0587 -8.46194
    endloop
  endfacet
  facet normal -0.280944 -0.67878 -0.678475
    outer loop
      vertex 65.3266 -52.9234 33.1913
      vertex 65.1353 -53.1147 33.4619
      vertex 65 -53.0587 33.4619
    endloop
  endfacet
  facet normal -0.707107 -1.61408e-06 -0.707107
    outer loop
      vertex 65.4619 -53.25 33.1913
      vertex 65.3943 -97.0587 33.259
      vertex 65.1913 -53.25 33.4619
    endloop
  endfacet
  facet normal -0.707629 0 -0.706584
    outer loop
      vertex 65.3943 -97.0587 33.259
      vertex 65.4619 -53.25 33.1913
      vertex 65.4619 -97.194 33.1913
    endloop
  endfacet
  facet normal -0.706933 -0 -0.707281
    outer loop
      vertex 65.1913 -53.25 33.4619
      vertex 65.3943 -97.0587 33.259
      vertex 65.1913 -97.1571 33.4619
    endloop
  endfacet
  facet normal 0 -0.707107 -0.707107
    outer loop
      vertex 35 -52.7881 33.1913
      vertex 65 -53.0587 33.4619
      vertex 35 -53.0587 33.4619
    endloop
  endfacet
  facet normal 0 -0.707107 -0.707107
    outer loop
      vertex 65 -53.0587 33.4619
      vertex 35 -52.7881 33.1913
      vertex 65 -52.7881 33.1913
    endloop
  endfacet
  facet normal 0.678591 -0.281119 -0.678591
    outer loop
      vertex 34.6734 -52.9234 33.1913
      vertex 34.8087 -53.25 33.4619
      vertex 34.5381 -53.25 33.1913
    endloop
  endfacet
  facet normal -1 0 0
    outer loop
      vertex 65.4619 -97.194 -8.19134
      vertex 65.4619 -53.25 33.1913
      vertex 65.4619 -53.25 -8.19134
    endloop
  endfacet
  facet normal -1 -0 0
    outer loop
      vertex 65.4619 -53.25 33.1913
      vertex 65.4619 -97.194 -8.19134
      vertex 65.4619 -97.194 33.1913
    endloop
  endfacet
  facet normal 0.707107 -8.07039e-07 0.707107
    outer loop
      vertex 34.5381 -53.25 -8.19134
      vertex 34.6057 -97.0587 -8.25899
      vertex 34.8087 -53.25 -8.46194
    endloop
  endfacet
  facet normal 0.707368 0 0.706845
    outer loop
      vertex 34.6057 -97.0587 -8.25899
      vertex 34.5381 -53.25 -8.19134
      vertex 34.5381 -97.194 -8.19134
    endloop
  endfacet
  facet normal 0.70702 0 0.707194
    outer loop
      vertex 34.8087 -53.25 -8.46194
      vertex 34.6057 -97.0587 -8.25899
      vertex 34.8087 -97.1571 -8.46194
    endloop
  endfacet
  facet normal -0.678591 -0.281119 0.678591
    outer loop
      vertex 65.4619 -53.25 -8.19134
      vertex 65.3266 -52.9234 -8.19134
      vertex 65.1913 -53.25 -8.46194
    endloop
  endfacet
  facet normal 0 0 -1
    outer loop
      vertex 65.1353 -97.1147 33.4619
      vertex 65.1913 -53.25 33.4619
      vertex 65.1913 -97.1571 33.4619
    endloop
  endfacet
  facet normal 0 0 -1
    outer loop
      vertex 65 -97.0587 33.4619
      vertex 65.1913 -53.25 33.4619
      vertex 65.1353 -97.1147 33.4619
    endloop
  endfacet
  facet normal 0 0 -1
    outer loop
      vertex 35 -97.0587 33.4619
      vertex 65.1913 -53.25 33.4619
      vertex 65 -97.0587 33.4619
    endloop
  endfacet
  facet normal 0 0 -1
    outer loop
      vertex 65.1913 -53.25 33.4619
      vertex 65 -53.0587 33.4619
      vertex 65.1353 -53.1147 33.4619
    endloop
  endfacet
  facet normal 0 0 -1
    outer loop
      vertex 34.8087 -53.25 33.4619
      vertex 65.1913 -53.25 33.4619
      vertex 35 -97.0587 33.4619
    endloop
  endfacet
  facet normal 0 0 -1
    outer loop
      vertex 65.1913 -53.25 33.4619
      vertex 34.8087 -53.25 33.4619
      vertex 65 -53.0587 33.4619
    endloop
  endfacet
  facet normal 0 0 -1
    outer loop
      vertex 34.8087 -53.25 33.4619
      vertex 35 -97.0587 33.4619
      vertex 34.8647 -97.1147 33.4619
    endloop
  endfacet
  facet normal -0 0 -1
    outer loop
      vertex 65 -53.0587 33.4619
      vertex 34.8087 -53.25 33.4619
      vertex 35 -53.0587 33.4619
    endloop
  endfacet
  facet normal 0 0 -1
    outer loop
      vertex 34.8087 -53.25 33.4619
      vertex 34.8647 -97.1147 33.4619
      vertex 34.8087 -97.1571 33.4619
    endloop
  endfacet
  facet normal 0 0 -1
    outer loop
      vertex 35 -53.0587 33.4619
      vertex 34.8087 -53.25 33.4619
      vertex 34.8647 -53.1147 33.4619
    endloop
  endfacet
  facet normal -0.382727 -0.923862 0
    outer loop
      vertex 65 -52.7881 -8.19134
      vertex 65.3266 -52.9234 33.1913
      vertex 65 -52.7881 33.1913
    endloop
  endfacet
  facet normal -0.382727 -0.923862 -0
    outer loop
      vertex 65.3266 -52.9234 33.1913
      vertex 65 -52.7881 -8.19134
      vertex 65.3266 -52.9234 -8.19134
    endloop
  endfacet
  facet normal 0.678591 -0.281119 0.678591
    outer loop
      vertex 34.8087 -53.25 -8.46194
      vertex 34.6734 -52.9234 -8.19134
      vertex 34.5381 -53.25 -8.19134
    endloop
  endfacet
  facet normal -0.67878 -0.280944 -0.678475
    outer loop
      vertex 65.3266 -52.9234 33.1913
      vertex 65.1913 -53.25 33.4619
      vertex 65.1353 -53.1147 33.4619
    endloop
  endfacet
  facet normal -0.281119 -0.678591 -0.678591
    outer loop
      vertex 65 -52.7881 33.1913
      vertex 65.3266 -52.9234 33.1913
      vertex 65 -53.0587 33.4619
    endloop
  endfacet
  facet normal 0.281119 -0.678591 0.678591
    outer loop
      vertex 35 -53.0587 -8.46194
      vertex 35 -52.7881 -8.19134
      vertex 34.6734 -52.9234 -8.19134
    endloop
  endfacet
  facet normal 0.280944 -0.67878 -0.678475
    outer loop
      vertex 35 -53.0587 33.4619
      vertex 34.8647 -53.1147 33.4619
      vertex 34.6734 -52.9234 33.1913
    endloop
  endfacet
  facet normal -0.67878 -0.280944 0.678475
    outer loop
      vertex 65.1913 -53.25 -8.46194
      vertex 65.3266 -52.9234 -8.19134
      vertex 65.1353 -53.1147 -8.46194
    endloop
  endfacet
  facet normal 0.707107 -1.61408e-06 -0.707107
    outer loop
      vertex 34.8087 -53.25 33.4619
      vertex 34.6057 -97.0587 33.259
      vertex 34.5381 -53.25 33.1913
    endloop
  endfacet
  facet normal 0.706933 0 -0.707281
    outer loop
      vertex 34.6057 -97.0587 33.259
      vertex 34.8087 -53.25 33.4619
      vertex 34.8087 -97.1571 33.4619
    endloop
  endfacet
  facet normal 0.707629 0 -0.706584
    outer loop
      vertex 34.5381 -53.25 33.1913
      vertex 34.6057 -97.0587 33.259
      vertex 34.5381 -97.194 33.1913
    endloop
  endfacet
  facet normal 0 -1 0
    outer loop
      vertex 35 -52.7881 -8.19134
      vertex 65 -52.7881 33.1913
      vertex 35 -52.7881 33.1913
    endloop
  endfacet
  facet normal 0 -1 -0
    outer loop
      vertex 65 -52.7881 33.1913
      vertex 35 -52.7881 -8.19134
      vertex 65 -52.7881 -8.19134
    endloop
  endfacet
  facet normal -0.707107 -8.07039e-07 0.707107
    outer loop
      vertex 65.1913 -53.25 -8.46194
      vertex 65.3943 -97.0587 -8.25899
      vertex 65.4619 -53.25 -8.19134
    endloop
  endfacet
  facet normal -0.70702 0 0.707194
    outer loop
      vertex 65.3943 -97.0587 -8.25899
      vertex 65.1913 -53.25 -8.46194
      vertex 65.1913 -97.1571 -8.46194
    endloop
  endfacet
  facet normal -0.707368 0 0.706845
    outer loop
      vertex 65.4619 -53.25 -8.19134
      vertex 65.3943 -97.0587 -8.25899
      vertex 65.4619 -97.194 -8.19134
    endloop
  endfacet
  facet normal 0.923862 -0.382727 0
    outer loop
      vertex 34.5381 -53.25 33.1913
      vertex 34.6734 -52.9234 -8.19134
      vertex 34.6734 -52.9234 33.1913
    endloop
  endfacet
  facet normal 0.923862 -0.382727 0
    outer loop
      vertex 34.6734 -52.9234 -8.19134
      vertex 34.5381 -53.25 33.1913
      vertex 34.5381 -53.25 -8.19134
    endloop
  endfacet
  facet normal 0.382727 -0.923862 0
    outer loop
      vertex 34.6734 -52.9234 -8.19134
      vertex 35 -52.7881 33.1913
      vertex 34.6734 -52.9234 33.1913
    endloop
  endfacet
  facet normal 0.382727 -0.923862 0
    outer loop
      vertex 35 -52.7881 33.1913
      vertex 34.6734 -52.9234 -8.19134
      vertex 35 -52.7881 -8.19134
    endloop
  endfacet
  facet normal 0.281119 -0.678591 -0.678591
    outer loop
      vertex 35 -52.7881 33.1913
      vertex 35 -53.0587 33.4619
      vertex 34.6734 -52.9234 33.1913
    endloop
  endfacet
  facet normal -0.923862 -0.382727 0
    outer loop
      vertex 65.4619 -53.25 -8.19134
      vertex 65.3266 -52.9234 33.1913
      vertex 65.3266 -52.9234 -8.19134
    endloop
  endfacet
  facet normal -0.923862 -0.382727 0
    outer loop
      vertex 65.3266 -52.9234 33.1913
      vertex 65.4619 -53.25 -8.19134
      vertex 65.4619 -53.25 33.1913
    endloop
  endfacet
  facet normal 1 -0 0
    outer loop
      vertex 34.5381 -97.194 33.1913
      vertex 34.5381 -53.25 -8.19134
      vertex 34.5381 -53.25 33.1913
    endloop
  endfacet
  facet normal 1 0 0
    outer loop
      vertex 34.5381 -53.25 -8.19134
      vertex 34.5381 -97.194 33.1913
      vertex 34.5381 -97.194 -8.19134
    endloop
  endfacet
  facet normal 0.280944 -0.67878 0.678475
    outer loop
      vertex 34.8647 -53.1147 -8.46194
      vertex 35 -53.0587 -8.46194
      vertex 34.6734 -52.9234 -8.19134
    endloop
  endfacet
  facet normal 0.67878 -0.280944 0.678475
    outer loop
      vertex 34.8087 -53.25 -8.46194
      vertex 34.8647 -53.1147 -8.46194
      vertex 34.6734 -52.9234 -8.19134
    endloop
  endfacet
  facet normal 0.67878 -0.280944 -0.678475
    outer loop
      vertex 34.8647 -53.1147 33.4619
      vertex 34.8087 -53.25 33.4619
      vertex 34.6734 -52.9234 33.1913
    endloop
  endfacet
  facet normal 0 -0.707107 0.707107
    outer loop
      vertex 35 -53.0587 -8.46194
      vertex 65 -52.7881 -8.19134
      vertex 35 -52.7881 -8.19134
    endloop
  endfacet
  facet normal 0 -0.707107 0.707107
    outer loop
      vertex 65 -52.7881 -8.19134
      vertex 35 -53.0587 -8.46194
      vertex 65 -53.0587 -8.46194
    endloop
  endfacet
  facet normal 0 0 1
    outer loop
      vertex 65 -53.0587 -8.46194
      vertex 65.1913 -53.25 -8.46194
      vertex 65.1353 -53.1147 -8.46194
    endloop
  endfacet
  facet normal 0 0 1
    outer loop
      vertex 65.1913 -53.25 -8.46194
      vertex 65.1353 -97.1147 -8.46194
      vertex 65.1913 -97.1571 -8.46194
    endloop
  endfacet
  facet normal 0 0 1
    outer loop
      vertex 34.8087 -53.25 -8.46194
      vertex 65.1913 -53.25 -8.46194
      vertex 65 -53.0587 -8.46194
    endloop
  endfacet
  facet normal 0 0 1
    outer loop
      vertex 65.1913 -53.25 -8.46194
      vertex 65 -97.0587 -8.46194
      vertex 65.1353 -97.1147 -8.46194
    endloop
  endfacet
  facet normal 0 0 1
    outer loop
      vertex 34.8087 -53.25 -8.46194
      vertex 65 -53.0587 -8.46194
      vertex 35 -53.0587 -8.46194
    endloop
  endfacet
  facet normal 0 0 1
    outer loop
      vertex 65.1913 -53.25 -8.46194
      vertex 34.8087 -53.25 -8.46194
      vertex 65 -97.0587 -8.46194
    endloop
  endfacet
  facet normal 0 0 1
    outer loop
      vertex 34.8087 -53.25 -8.46194
      vertex 35 -53.0587 -8.46194
      vertex 34.8647 -53.1147 -8.46194
    endloop
  endfacet
  facet normal 0 0 1
    outer loop
      vertex 65 -97.0587 -8.46194
      vertex 34.8087 -53.25 -8.46194
      vertex 35 -97.0587 -8.46194
    endloop
  endfacet
  facet normal 0 0 1
    outer loop
      vertex 35 -97.0587 -8.46194
      vertex 34.8087 -53.25 -8.46194
      vertex 34.8647 -97.1147 -8.46194
    endloop
  endfacet
  facet normal 0 0 1
    outer loop
      vertex 34.8647 -97.1147 -8.46194
      vertex 34.8087 -53.25 -8.46194
      vertex 34.8087 -97.1571 -8.46194
    endloop
  endfacet
  facet normal 0 -0.447214 -0.894427
    outer loop
      vertex 66 -99.0587 34.4619
      vertex 35 -97.0587 33.4619
      vertex 65 -97.0587 33.4619
    endloop
  endfacet
  facet normal 0 -0.447214 -0.894427
    outer loop
      vertex 35 -97.0587 33.4619
      vertex 66 -99.0587 34.4619
      vertex 34 -99.0587 34.4619
    endloop
  endfacet
  facet normal 0.67878 -0.280944 -0.678475
    outer loop
      vertex 33.8647 -99.1147 34.4619
      vertex 33.8087 -99.25 34.4619
      vertex 33.6734 -98.9234 34.1913
    endloop
  endfacet
  facet normal 0 -0.447214 0.894427
    outer loop
      vertex 35 -97.0587 -8.46194
      vertex 66 -99.0587 -9.46194
      vertex 65 -97.0587 -8.46194
    endloop
  endfacet
  facet normal 0 -0.447214 0.894427
    outer loop
      vertex 66 -99.0587 -9.46194
      vertex 35 -97.0587 -8.46194
      vertex 34 -99.0587 -9.46194
    endloop
  endfacet
  facet normal 0.215552 -0.520788 0.826025
    outer loop
      vertex 34.8647 -97.1147 -8.46194
      vertex 34 -99.0587 -9.46194
      vertex 35 -97.0587 -8.46194
    endloop
  endfacet
  facet normal 0.215552 -0.520788 0.826025
    outer loop
      vertex 34 -99.0587 -9.46194
      vertex 34.8647 -97.1147 -8.46194
      vertex 33.8647 -99.1147 -9.46194
    endloop
  endfacet
  facet normal -0.67878 -0.280944 0.678475
    outer loop
      vertex 66.1913 -99.25 -9.46194
      vertex 66.3266 -98.9234 -9.19134
      vertex 66.1353 -99.1147 -9.46194
    endloop
  endfacet
  facet normal 0.678591 -0.281119 0.678591
    outer loop
      vertex 33.8087 -99.25 -9.46194
      vertex 33.6734 -98.9234 -9.19134
      vertex 33.5381 -99.25 -9.19134
    endloop
  endfacet
  facet normal -0.429033 -0.566353 -0.703686
    outer loop
      vertex 65.1913 -97.1571 33.4619
      vertex 66.3266 -98.9234 34.1913
      vertex 66.1353 -99.1147 34.4619
    endloop
  endfacet
  facet normal -0.428922 -0.566321 -0.703781
    outer loop
      vertex 66.3266 -98.9234 34.1913
      vertex 65.1913 -97.1571 33.4619
      vertex 65.3943 -97.0587 33.259
    endloop
  endfacet
  facet normal -0.428788 -0.566324 -0.70386
    outer loop
      vertex 65.1913 -97.1571 33.4619
      vertex 66.1353 -99.1147 34.4619
      vertex 65.1353 -97.1147 33.4619
    endloop
  endfacet
  facet normal -0.429009 -0.566346 0.703707
    outer loop
      vertex 65.1913 -97.1571 -8.46194
      vertex 66.3266 -98.9234 -9.19134
      vertex 65.3943 -97.0587 -8.25899
    endloop
  endfacet
  facet normal -0.429033 -0.566353 0.703686
    outer loop
      vertex 66.3266 -98.9234 -9.19134
      vertex 65.1913 -97.1571 -8.46194
      vertex 66.1353 -99.1147 -9.46194
    endloop
  endfacet
  facet normal -0.428788 -0.566324 0.70386
    outer loop
      vertex 66.1353 -99.1147 -9.46194
      vertex 65.1913 -97.1571 -8.46194
      vertex 65.1353 -97.1147 -8.46194
    endloop
  endfacet
  facet normal -0.894427 -0.447214 0
    outer loop
      vertex 65.4619 -97.194 -8.19134
      vertex 66.3266 -98.9234 -9.19134
      vertex 65.4619 -97.194 33.1913
    endloop
  endfacet
  facet normal -0.894498 -0.447072 -0.000306576
    outer loop
      vertex 66.3266 -98.9234 -9.19134
      vertex 65.4619 -97.194 -8.19134
      vertex 65.3943 -97.0587 -8.25899
    endloop
  endfacet
  facet normal -0.894498 -0.447072 0.000306471
    outer loop
      vertex 65.4619 -97.194 33.1913
      vertex 66.3266 -98.9234 34.1913
      vertex 65.3943 -97.0587 33.259
    endloop
  endfacet
  facet normal -0.894427 -0.447214 -0
    outer loop
      vertex 66.3266 -98.9234 34.1913
      vertex 65.4619 -97.194 33.1913
      vertex 66.3266 -98.9234 -9.19134
    endloop
  endfacet
  facet normal 0.923862 -0.382727 0
    outer loop
      vertex 33.5381 -99.25 34.1913
      vertex 33.6734 -98.9234 -9.19134
      vertex 33.6734 -98.9234 34.1913
    endloop
  endfacet
  facet normal 0.923862 -0.382727 0
    outer loop
      vertex 33.6734 -98.9234 -9.19134
      vertex 33.5381 -99.25 34.1913
      vertex 33.5381 -99.25 -9.19134
    endloop
  endfacet
  facet normal -0.215552 -0.520788 0.826025
    outer loop
      vertex 65.1353 -97.1147 -8.46194
      vertex 66 -99.0587 -9.46194
      vertex 66.1353 -99.1147 -9.46194
    endloop
  endfacet
  facet normal -0.215552 -0.520788 0.826025
    outer loop
      vertex 66 -99.0587 -9.46194
      vertex 65.1353 -97.1147 -8.46194
      vertex 65 -97.0587 -8.46194
    endloop
  endfacet
  facet normal 0.428788 -0.566324 -0.70386
    outer loop
      vertex 33.8647 -99.1147 34.4619
      vertex 34.8087 -97.1571 33.4619
      vertex 34.8647 -97.1147 33.4619
    endloop
  endfacet
  facet normal 0.429033 -0.566353 -0.703686
    outer loop
      vertex 33.6734 -98.9234 34.1913
      vertex 34.8087 -97.1571 33.4619
      vertex 33.8647 -99.1147 34.4619
    endloop
  endfacet
  facet normal 0.428922 -0.566321 -0.703781
    outer loop
      vertex 34.8087 -97.1571 33.4619
      vertex 33.6734 -98.9234 34.1913
      vertex 34.6057 -97.0587 33.259
    endloop
  endfacet
  facet normal -0.678591 -0.281119 -0.678591
    outer loop
      vertex 66.3266 -98.9234 34.1913
      vertex 66.4619 -99.25 34.1913
      vertex 66.1913 -99.25 34.4619
    endloop
  endfacet
  facet normal -0.678591 -0.281119 0.678591
    outer loop
      vertex 66.4619 -99.25 -9.19134
      vertex 66.3266 -98.9234 -9.19134
      vertex 66.1913 -99.25 -9.46194
    endloop
  endfacet
  facet normal 0.894427 -0.447214 0
    outer loop
      vertex 34.5381 -97.194 33.1913
      vertex 33.6734 -98.9234 34.1913
      vertex 34.5381 -97.194 -8.19134
    endloop
  endfacet
  facet normal 0.894498 -0.447072 0.000306471
    outer loop
      vertex 33.6734 -98.9234 34.1913
      vertex 34.5381 -97.194 33.1913
      vertex 34.6057 -97.0587 33.259
    endloop
  endfacet
  facet normal 0.894498 -0.447072 -0.000306576
    outer loop
      vertex 34.5381 -97.194 -8.19134
      vertex 33.6734 -98.9234 -9.19134
      vertex 34.6057 -97.0587 -8.25899
    endloop
  endfacet
  facet normal 0.894427 -0.447214 0
    outer loop
      vertex 33.6734 -98.9234 -9.19134
      vertex 34.5381 -97.194 -8.19134
      vertex 33.6734 -98.9234 34.1913
    endloop
  endfacet
  facet normal 0.67878 -0.280944 0.678475
    outer loop
      vertex 33.8087 -99.25 -9.46194
      vertex 33.8647 -99.1147 -9.46194
      vertex 33.6734 -98.9234 -9.19134
    endloop
  endfacet
  facet normal 0.215552 -0.520788 -0.826025
    outer loop
      vertex 34 -99.0587 34.4619
      vertex 34.8647 -97.1147 33.4619
      vertex 35 -97.0587 33.4619
    endloop
  endfacet
  facet normal 0.215552 -0.520788 -0.826025
    outer loop
      vertex 34.8647 -97.1147 33.4619
      vertex 34 -99.0587 34.4619
      vertex 33.8647 -99.1147 34.4619
    endloop
  endfacet
  facet normal 0.678591 -0.281119 -0.678591
    outer loop
      vertex 33.6734 -98.9234 34.1913
      vertex 33.8087 -99.25 34.4619
      vertex 33.5381 -99.25 34.1913
    endloop
  endfacet
  facet normal -0.923862 -0.382727 0
    outer loop
      vertex 66.4619 -99.25 -9.19134
      vertex 66.3266 -98.9234 34.1913
      vertex 66.3266 -98.9234 -9.19134
    endloop
  endfacet
  facet normal -0.923862 -0.382727 0
    outer loop
      vertex 66.3266 -98.9234 34.1913
      vertex 66.4619 -99.25 -9.19134
      vertex 66.4619 -99.25 34.1913
    endloop
  endfacet
  facet normal 0.428788 -0.566324 0.70386
    outer loop
      vertex 34.8087 -97.1571 -8.46194
      vertex 33.8647 -99.1147 -9.46194
      vertex 34.8647 -97.1147 -8.46194
    endloop
  endfacet
  facet normal 0.429009 -0.566346 0.703707
    outer loop
      vertex 33.6734 -98.9234 -9.19134
      vertex 34.8087 -97.1571 -8.46194
      vertex 34.6057 -97.0587 -8.25899
    endloop
  endfacet
  facet normal 0.429033 -0.566353 0.703686
    outer loop
      vertex 34.8087 -97.1571 -8.46194
      vertex 33.6734 -98.9234 -9.19134
      vertex 33.8647 -99.1147 -9.46194
    endloop
  endfacet
  facet normal 0 0 1
    outer loop
      vertex 66 -99.0587 -9.46194
      vertex 66.1913 -99.25 -9.46194
      vertex 66.1353 -99.1147 -9.46194
    endloop
  endfacet
  facet normal -0 0 1
    outer loop
      vertex 34 -99.0587 -9.46194
      vertex 66.1913 -99.25 -9.46194
      vertex 66 -99.0587 -9.46194
    endloop
  endfacet
  facet normal 0 0 1
    outer loop
      vertex 33.8087 -99.25 -9.46194
      vertex 34 -99.0587 -9.46194
      vertex 33.8647 -99.1147 -9.46194
    endloop
  endfacet
  facet normal 0 0 1
    outer loop
      vertex 34 -99.0587 -9.46194
      vertex 33.8087 -99.25 -9.46194
      vertex 66.1913 -99.25 -9.46194
    endloop
  endfacet
  facet normal -0.215552 -0.520788 -0.826025
    outer loop
      vertex 66 -99.0587 34.4619
      vertex 65.1353 -97.1147 33.4619
      vertex 66.1353 -99.1147 34.4619
    endloop
  endfacet
  facet normal -0.215552 -0.520788 -0.826025
    outer loop
      vertex 65.1353 -97.1147 33.4619
      vertex 66 -99.0587 34.4619
      vertex 65 -97.0587 33.4619
    endloop
  endfacet
  facet normal -0.67878 -0.280944 -0.678475
    outer loop
      vertex 66.3266 -98.9234 34.1913
      vertex 66.1913 -99.25 34.4619
      vertex 66.1353 -99.1147 34.4619
    endloop
  endfacet
  facet normal 0 0 -1
    outer loop
      vertex 66.1913 -99.25 34.4619
      vertex 66 -99.0587 34.4619
      vertex 66.1353 -99.1147 34.4619
    endloop
  endfacet
  facet normal 0 0 -1
    outer loop
      vertex 66.1913 -99.25 34.4619
      vertex 34 -99.0587 34.4619
      vertex 66 -99.0587 34.4619
    endloop
  endfacet
  facet normal 0 0 -1
    outer loop
      vertex 33.8087 -99.25 34.4619
      vertex 34 -99.0587 34.4619
      vertex 66.1913 -99.25 34.4619
    endloop
  endfacet
  facet normal 0 0 -1
    outer loop
      vertex 34 -99.0587 34.4619
      vertex 33.8087 -99.25 34.4619
      vertex 33.8647 -99.1147 34.4619
    endloop
  endfacet
  facet normal 1 -0 0
    outer loop
      vertex 150 -99.25 35
      vertex 150 -51.25 -10
      vertex 150 -51.25 35
    endloop
  endfacet
  facet normal 1 0 0
    outer loop
      vertex 150 -51.25 -10
      vertex 150 -99.25 35
      vertex 150 -99.25 -10
    endloop
  endfacet
  facet normal -0 0 1
    outer loop
      vertex 33 -51.25 35
      vertex 150 -99.25 35
      vertex 150 -51.25 35
    endloop
  endfacet
  facet normal 0 0 1
    outer loop
      vertex 150 -99.25 35
      vertex 33 -51.25 35
      vertex 33 -99.25 35
    endloop
  endfacet
  facet normal 0 0 -1
    outer loop
      vertex 33 -99.25 -10
      vertex 150 -51.25 -10
      vertex 150 -99.25 -10
    endloop
  endfacet
  facet normal -0 0 -1
    outer loop
      vertex 150 -51.25 -10
      vertex 33 -99.25 -10
      vertex 33 -51.25 -10
    endloop
  endfacet
  facet normal -1 0 0
    outer loop
      vertex 33 -99.25 -10
      vertex 33 -51.25 35
      vertex 33 -51.25 -10
    endloop
  endfacet
  facet normal -1 -0 0
    outer loop
      vertex 33 -51.25 35
      vertex 33 -99.25 -10
      vertex 33 -99.25 35
    endloop
  endfacet
  facet normal 0 1 -0
    outer loop
      vertex 150 -51.25 -10
      vertex 33 -51.25 35
      vertex 150 -51.25 35
    endloop
  endfacet
  facet normal 0 1 0
    outer loop
      vertex 33 -51.25 35
      vertex 150 -51.25 -10
      vertex 33 -51.25 -10
    endloop
  endfacet
  facet normal 0 -1 0
    outer loop
      vertex 66.4619 -99.25 34.1913
      vertex 66.8087 -99.25 34.4619
      vertex 66.1913 -99.25 34.4619
    endloop
  endfacet
  facet normal 0 -1 0
    outer loop
      vertex 66.4619 -99.25 34.1913
      vertex 66.5381 -99.25 34.1913
      vertex 66.8087 -99.25 34.4619
    endloop
  endfacet
  facet normal 0 -1 0
    outer loop
      vertex 66.4619 -99.25 34.1913
      vertex 66.5381 -99.25 11.8087
      vertex 66.5381 -99.25 34.1913
    endloop
  endfacet
  facet normal 0 -1 0
    outer loop
      vertex 66.8087 -99.25 11.5381
      vertex 66.8087 -99.25 11.4619
      vertex 149.191 -99.25 11.5381
    endloop
  endfacet
  facet normal 0 -1 0
    outer loop
      vertex 66.5381 -99.25 11.8087
      vertex 66.8087 -99.25 11.4619
      vertex 66.8087 -99.25 11.5381
    endloop
  endfacet
  facet normal 0 -1 0
    outer loop
      vertex 66.5381 -99.25 11.8087
      vertex 66.5381 -99.25 11.1913
      vertex 66.8087 -99.25 11.4619
    endloop
  endfacet
  facet normal 0 -1 0
    outer loop
      vertex 66.4619 -99.25 34.1913
      vertex 66.5381 -99.25 11.1913
      vertex 66.5381 -99.25 11.8087
    endloop
  endfacet
  facet normal 0 -1 0
    outer loop
      vertex 66.4619 -99.25 -9.19134
      vertex 66.5381 -99.25 11.1913
      vertex 66.4619 -99.25 34.1913
    endloop
  endfacet
  facet normal 0 -1 0
    outer loop
      vertex 66.4619 -99.25 -9.19134
      vertex 66.5381 -99.25 -9.19134
      vertex 66.5381 -99.25 11.1913
    endloop
  endfacet
  facet normal 0 -1 0
    outer loop
      vertex 66.1913 -99.25 -9.46194
      vertex 66.5381 -99.25 -9.19134
      vertex 66.4619 -99.25 -9.19134
    endloop
  endfacet
  facet normal 0 -1 -0
    outer loop
      vertex 66.5381 -99.25 -9.19134
      vertex 66.1913 -99.25 -9.46194
      vertex 66.8087 -99.25 -9.46194
    endloop
  endfacet
  facet normal 0 -1 0
    outer loop
      vertex 66.1913 -99.25 34.4619
      vertex 33 -99.25 35
      vertex 33.8087 -99.25 34.4619
    endloop
  endfacet
  facet normal 0 -1 0
    outer loop
      vertex 33 -99.25 35
      vertex 33.5381 -99.25 34.1913
      vertex 33.8087 -99.25 34.4619
    endloop
  endfacet
  facet normal 0 -1 0
    outer loop
      vertex 33 -99.25 35
      vertex 33.5381 -99.25 -9.19134
      vertex 33.5381 -99.25 34.1913
    endloop
  endfacet
  facet normal 0 -1 0
    outer loop
      vertex 33 -99.25 -10
      vertex 66.1913 -99.25 -9.46194
      vertex 33.8087 -99.25 -9.46194
    endloop
  endfacet
  facet normal 0 -1 -0
    outer loop
      vertex 66.1913 -99.25 -9.46194
      vertex 33 -99.25 -10
      vertex 66.8087 -99.25 -9.46194
    endloop
  endfacet
  facet normal 0 -1 0
    outer loop
      vertex 150 -99.25 -10
      vertex 66.8087 -99.25 -9.46194
      vertex 33 -99.25 -10
    endloop
  endfacet
  facet normal 0 -1 -0
    outer loop
      vertex 33.5381 -99.25 -9.19134
      vertex 33 -99.25 -10
      vertex 33.8087 -99.25 -9.46194
    endloop
  endfacet
  facet normal 0 -1 0
    outer loop
      vertex 33 -99.25 -10
      vertex 33.5381 -99.25 -9.19134
      vertex 33 -99.25 35
    endloop
  endfacet
  facet normal 0 -1 0
    outer loop
      vertex 33 -99.25 35
      vertex 66.1913 -99.25 34.4619
      vertex 150 -99.25 35
    endloop
  endfacet
  facet normal 0 -1 0
    outer loop
      vertex 66.8087 -99.25 34.4619
      vertex 150 -99.25 35
      vertex 66.1913 -99.25 34.4619
    endloop
  endfacet
  facet normal 0 -1 0
    outer loop
      vertex 149.191 -99.25 34.4619
      vertex 150 -99.25 35
      vertex 66.8087 -99.25 34.4619
    endloop
  endfacet
  facet normal 0 -1 0
    outer loop
      vertex 149.462 -99.25 34.1913
      vertex 150 -99.25 35
      vertex 149.191 -99.25 34.4619
    endloop
  endfacet
  facet normal 0 -1 0
    outer loop
      vertex 149.462 -99.25 11.8087
      vertex 150 -99.25 35
      vertex 149.462 -99.25 34.1913
    endloop
  endfacet
  facet normal 0 -1 0
    outer loop
      vertex 149.191 -99.25 11.4619
      vertex 149.191 -99.25 11.5381
      vertex 66.8087 -99.25 11.4619
    endloop
  endfacet
  facet normal 0 -1 0
    outer loop
      vertex 149.191 -99.25 11.4619
      vertex 149.462 -99.25 11.8087
      vertex 149.191 -99.25 11.5381
    endloop
  endfacet
  facet normal 0 -1 0
    outer loop
      vertex 149.462 -99.25 11.1913
      vertex 149.462 -99.25 11.8087
      vertex 149.191 -99.25 11.4619
    endloop
  endfacet
  facet normal 0 -1 0
    outer loop
      vertex 149.462 -99.25 11.1913
      vertex 150 -99.25 35
      vertex 149.462 -99.25 11.8087
    endloop
  endfacet
  facet normal 0 -1 0
    outer loop
      vertex 150 -99.25 -10
      vertex 149.462 -99.25 11.1913
      vertex 149.462 -99.25 -9.19134
    endloop
  endfacet
  facet normal 0 -1 0
    outer loop
      vertex 149.462 -99.25 11.1913
      vertex 150 -99.25 -10
      vertex 150 -99.25 35
    endloop
  endfacet
  facet normal 0 -1 0
    outer loop
      vertex 149.191 -99.25 -9.46194
      vertex 150 -99.25 -10
      vertex 149.462 -99.25 -9.19134
    endloop
  endfacet
  facet normal 0 -1 0
    outer loop
      vertex 66.8087 -99.25 -9.46194
      vertex 150 -99.25 -10
      vertex 149.191 -99.25 -9.46194
    endloop
  endfacet
endsolid OpenSCAD_Model
