solid OpenSCAD_Model
  facet normal -0.382727 0.923862 0
    outer loop
      vertex 23.5 35.9619 -9
      vertex 23.1734 35.8266 6.96194
      vertex 23.5 35.9619 6.96194
    endloop
  endfacet
  facet normal -0.382727 0.923862 0
    outer loop
      vertex 23.1734 35.8266 6.96194
      vertex 23.5 35.9619 -9
      vertex 23.1734 35.8266 -9
    endloop
  endfacet
  facet normal -1 0 0
    outer loop
      vertex 23.0381 22.5 -9
      vertex 23.0381 35.5 6.96194
      vertex 23.0381 35.5 -9
    endloop
  endfacet
  facet normal -1 -0 0
    outer loop
      vertex 23.0381 35.5 6.96194
      vertex 23.0381 22.5 -9
      vertex 23.0381 22.5 6.96194
    endloop
  endfacet
  facet normal -0.923862 0.382727 0
    outer loop
      vertex 23.0381 35.5 -9
      vertex 23.1734 35.8266 6.96194
      vertex 23.1734 35.8266 -9
    endloop
  endfacet
  facet normal -0.923862 0.382727 0
    outer loop
      vertex 23.1734 35.8266 6.96194
      vertex 23.0381 35.5 -9
      vertex 23.0381 35.5 6.96194
    endloop
  endfacet
  facet normal 0 1 0
    outer loop
      vertex 25.4619 35.9619 6.69134
      vertex 23.5 35.9619 6.96194
      vertex 25.1913 35.9619 6.96194
    endloop
  endfacet
  facet normal 0 1 0
    outer loop
      vertex 23.5 35.9619 -9
      vertex 25.4619 35.9619 6.69134
      vertex 25.4619 35.9619 -9
    endloop
  endfacet
  facet normal 0 1 0
    outer loop
      vertex 25.4619 35.9619 6.69134
      vertex 23.5 35.9619 -9
      vertex 23.5 35.9619 6.96194
    endloop
  endfacet
  facet normal -0.382727 -0.923862 0
    outer loop
      vertex 23.1734 22.1734 -9
      vertex 23.5 22.0381 6.96194
      vertex 23.1734 22.1734 6.96194
    endloop
  endfacet
  facet normal -0.382727 -0.923862 -0
    outer loop
      vertex 23.5 22.0381 6.96194
      vertex 23.1734 22.1734 -9
      vertex 23.5 22.0381 -9
    endloop
  endfacet
  facet normal -0.923862 -0.382727 0
    outer loop
      vertex 23.1734 22.1734 -9
      vertex 23.0381 22.5 6.96194
      vertex 23.0381 22.5 -9
    endloop
  endfacet
  facet normal -0.923862 -0.382727 0
    outer loop
      vertex 23.0381 22.5 6.96194
      vertex 23.1734 22.1734 -9
      vertex 23.1734 22.1734 6.96194
    endloop
  endfacet
  facet normal 0 -1 0
    outer loop
      vertex 23.5 22.0381 6.96194
      vertex 25.4619 22.0381 6.69134
      vertex 25.1913 22.0381 6.96194
    endloop
  endfacet
  facet normal 0 -1 0
    outer loop
      vertex 23.5 22.0381 -9
      vertex 25.4619 22.0381 6.69134
      vertex 23.5 22.0381 6.96194
    endloop
  endfacet
  facet normal 0 -1 -0
    outer loop
      vertex 25.4619 22.0381 6.69134
      vertex 23.5 22.0381 -9
      vertex 25.4619 22.0381 -9
    endloop
  endfacet
  facet normal 0 1 0
    outer loop
      vertex -63.5 35.9619 6.96194
      vertex -65.4619 35.9619 6.69134
      vertex -65.1913 35.9619 6.96194
    endloop
  endfacet
  facet normal 0 1 -0
    outer loop
      vertex -63.5 35.9619 -9
      vertex -65.4619 35.9619 6.69134
      vertex -63.5 35.9619 6.96194
    endloop
  endfacet
  facet normal 0 1 0
    outer loop
      vertex -65.4619 35.9619 6.69134
      vertex -63.5 35.9619 -9
      vertex -65.4619 35.9619 -9
    endloop
  endfacet
  facet normal 1 -0 0
    outer loop
      vertex -63.0381 22.5 6.96194
      vertex -63.0381 35.5 -9
      vertex -63.0381 35.5 6.96194
    endloop
  endfacet
  facet normal 1 0 0
    outer loop
      vertex -63.0381 35.5 -9
      vertex -63.0381 22.5 6.96194
      vertex -63.0381 22.5 -9
    endloop
  endfacet
  facet normal 0.382727 -0.923862 0
    outer loop
      vertex -63.5 22.0381 -9
      vertex -63.1734 22.1734 6.96194
      vertex -63.5 22.0381 6.96194
    endloop
  endfacet
  facet normal 0.382727 -0.923862 0
    outer loop
      vertex -63.1734 22.1734 6.96194
      vertex -63.5 22.0381 -9
      vertex -63.1734 22.1734 -9
    endloop
  endfacet
  facet normal 0 -1 0
    outer loop
      vertex -65.4619 22.0381 6.69134
      vertex -63.5 22.0381 6.96194
      vertex -65.1913 22.0381 6.96194
    endloop
  endfacet
  facet normal 0 -1 0
    outer loop
      vertex -63.5 22.0381 -9
      vertex -65.4619 22.0381 6.69134
      vertex -65.4619 22.0381 -9
    endloop
  endfacet
  facet normal 0 -1 0
    outer loop
      vertex -65.4619 22.0381 6.69134
      vertex -63.5 22.0381 -9
      vertex -63.5 22.0381 6.96194
    endloop
  endfacet
  facet normal 0.923862 -0.382727 0
    outer loop
      vertex -63.1734 22.1734 6.96194
      vertex -63.0381 22.5 -9
      vertex -63.0381 22.5 6.96194
    endloop
  endfacet
  facet normal 0.923862 -0.382727 0
    outer loop
      vertex -63.0381 22.5 -9
      vertex -63.1734 22.1734 6.96194
      vertex -63.1734 22.1734 -9
    endloop
  endfacet
  facet normal 0.923862 0.382727 0
    outer loop
      vertex -63.0381 35.5 6.96194
      vertex -63.1734 35.8266 -9
      vertex -63.1734 35.8266 6.96194
    endloop
  endfacet
  facet normal 0.923862 0.382727 0
    outer loop
      vertex -63.1734 35.8266 -9
      vertex -63.0381 35.5 6.96194
      vertex -63.0381 35.5 -9
    endloop
  endfacet
  facet normal 0.382727 0.923862 -0
    outer loop
      vertex -63.1734 35.8266 -9
      vertex -63.5 35.9619 6.96194
      vertex -63.1734 35.8266 6.96194
    endloop
  endfacet
  facet normal 0.382727 0.923862 0
    outer loop
      vertex -63.5 35.9619 6.96194
      vertex -63.1734 35.8266 -9
      vertex -63.5 35.9619 -9
    endloop
  endfacet
  facet normal -0.382727 0.923862 0
    outer loop
      vertex 23.5 -8.03806 -9
      vertex 23.1734 -8.17336 6.96194
      vertex 23.5 -8.03806 6.96194
    endloop
  endfacet
  facet normal -0.382727 0.923862 0
    outer loop
      vertex 23.1734 -8.17336 6.96194
      vertex 23.5 -8.03806 -9
      vertex 23.1734 -8.17336 -9
    endloop
  endfacet
  facet normal -1 0 0
    outer loop
      vertex 23.0381 -21.5 -9
      vertex 23.0381 -8.5 6.96194
      vertex 23.0381 -8.5 -9
    endloop
  endfacet
  facet normal -1 -0 0
    outer loop
      vertex 23.0381 -8.5 6.96194
      vertex 23.0381 -21.5 -9
      vertex 23.0381 -21.5 6.96194
    endloop
  endfacet
  facet normal -0.923878 0.382687 0
    outer loop
      vertex 23.0381 -8.5 -9
      vertex 23.1734 -8.17336 6.96194
      vertex 23.1734 -8.17336 -9
    endloop
  endfacet
  facet normal -0.923878 0.382687 0
    outer loop
      vertex 23.1734 -8.17336 6.96194
      vertex 23.0381 -8.5 -9
      vertex 23.0381 -8.5 6.96194
    endloop
  endfacet
  facet normal 0 1 0
    outer loop
      vertex 25.4619 -8.03806 6.69134
      vertex 23.5 -8.03806 6.96194
      vertex 25.1913 -8.03806 6.96194
    endloop
  endfacet
  facet normal 0 1 0
    outer loop
      vertex 23.5 -8.03806 -9
      vertex 25.4619 -8.03806 6.69134
      vertex 25.4619 -8.03806 -9
    endloop
  endfacet
  facet normal 0 1 0
    outer loop
      vertex 25.4619 -8.03806 6.69134
      vertex 23.5 -8.03806 -9
      vertex 23.5 -8.03806 6.96194
    endloop
  endfacet
  facet normal -0.382727 -0.923862 0
    outer loop
      vertex 23.1734 -21.8266 -9
      vertex 23.5 -21.9619 6.96194
      vertex 23.1734 -21.8266 6.96194
    endloop
  endfacet
  facet normal -0.382727 -0.923862 -0
    outer loop
      vertex 23.5 -21.9619 6.96194
      vertex 23.1734 -21.8266 -9
      vertex 23.5 -21.9619 -9
    endloop
  endfacet
  facet normal -0.923862 -0.382727 0
    outer loop
      vertex 23.1734 -21.8266 -9
      vertex 23.0381 -21.5 6.96194
      vertex 23.0381 -21.5 -9
    endloop
  endfacet
  facet normal -0.923862 -0.382727 0
    outer loop
      vertex 23.0381 -21.5 6.96194
      vertex 23.1734 -21.8266 -9
      vertex 23.1734 -21.8266 6.96194
    endloop
  endfacet
  facet normal 0 -1 0
    outer loop
      vertex 23.5 -21.9619 6.96194
      vertex 25.4619 -21.9619 6.69134
      vertex 25.1913 -21.9619 6.96194
    endloop
  endfacet
  facet normal 0 -1 0
    outer loop
      vertex 23.5 -21.9619 -9
      vertex 25.4619 -21.9619 6.69134
      vertex 23.5 -21.9619 6.96194
    endloop
  endfacet
  facet normal 0 -1 -0
    outer loop
      vertex 25.4619 -21.9619 6.69134
      vertex 23.5 -21.9619 -9
      vertex 25.4619 -21.9619 -9
    endloop
  endfacet
  facet normal 0.923862 -0.382727 0
    outer loop
      vertex -63.1734 -21.8266 6.96194
      vertex -63.0381 -21.5 -9
      vertex -63.0381 -21.5 6.96194
    endloop
  endfacet
  facet normal 0.923862 -0.382727 0
    outer loop
      vertex -63.0381 -21.5 -9
      vertex -63.1734 -21.8266 6.96194
      vertex -63.1734 -21.8266 -9
    endloop
  endfacet
  facet normal 0 1 0
    outer loop
      vertex -63.5 -8.03806 6.96194
      vertex -65.4619 -8.03806 6.69134
      vertex -65.1913 -8.03806 6.96194
    endloop
  endfacet
  facet normal 0 1 -0
    outer loop
      vertex -63.5 -8.03806 -9
      vertex -65.4619 -8.03806 6.69134
      vertex -63.5 -8.03806 6.96194
    endloop
  endfacet
  facet normal 0 1 0
    outer loop
      vertex -65.4619 -8.03806 6.69134
      vertex -63.5 -8.03806 -9
      vertex -65.4619 -8.03806 -9
    endloop
  endfacet
  facet normal 1 -0 0
    outer loop
      vertex -63.0381 -21.5 6.96194
      vertex -63.0381 -8.5 -9
      vertex -63.0381 -8.5 6.96194
    endloop
  endfacet
  facet normal 1 0 0
    outer loop
      vertex -63.0381 -8.5 -9
      vertex -63.0381 -21.5 6.96194
      vertex -63.0381 -21.5 -9
    endloop
  endfacet
  facet normal 0.382727 -0.923862 0
    outer loop
      vertex -63.5 -21.9619 -9
      vertex -63.1734 -21.8266 6.96194
      vertex -63.5 -21.9619 6.96194
    endloop
  endfacet
  facet normal 0.382727 -0.923862 0
    outer loop
      vertex -63.1734 -21.8266 6.96194
      vertex -63.5 -21.9619 -9
      vertex -63.1734 -21.8266 -9
    endloop
  endfacet
  facet normal 0 -1 0
    outer loop
      vertex -65.4619 -21.9619 6.69134
      vertex -63.5 -21.9619 6.96194
      vertex -65.1913 -21.9619 6.96194
    endloop
  endfacet
  facet normal 0 -1 0
    outer loop
      vertex -63.5 -21.9619 -9
      vertex -65.4619 -21.9619 6.69134
      vertex -65.4619 -21.9619 -9
    endloop
  endfacet
  facet normal 0 -1 0
    outer loop
      vertex -65.4619 -21.9619 6.69134
      vertex -63.5 -21.9619 -9
      vertex -63.5 -21.9619 6.96194
    endloop
  endfacet
  facet normal 0.923878 0.382687 0
    outer loop
      vertex -63.0381 -8.5 6.96194
      vertex -63.1734 -8.17336 -9
      vertex -63.1734 -8.17336 6.96194
    endloop
  endfacet
  facet normal 0.923878 0.382687 0
    outer loop
      vertex -63.1734 -8.17336 -9
      vertex -63.0381 -8.5 6.96194
      vertex -63.0381 -8.5 -9
    endloop
  endfacet
  facet normal 0.382727 0.923862 -0
    outer loop
      vertex -63.1734 -8.17336 -9
      vertex -63.5 -8.03806 6.96194
      vertex -63.1734 -8.17336 6.96194
    endloop
  endfacet
  facet normal 0.382727 0.923862 0
    outer loop
      vertex -63.5 -8.03806 6.96194
      vertex -63.1734 -8.17336 -9
      vertex -63.5 -8.03806 -9
    endloop
  endfacet
  facet normal -0.281119 0.678591 -0.678591
    outer loop
      vertex 25 -38.1913 6.96194
      vertex 25.3266 -38.3266 6.69134
      vertex 25 -38.4619 6.69134
    endloop
  endfacet
  facet normal 0.678591 0.281119 -0.678591
    outer loop
      vertex -65.1913 -38 6.96194
      vertex -65.3266 -38.3266 6.69134
      vertex -65.4619 -38 6.69134
    endloop
  endfacet
  facet normal -1 0 0
    outer loop
      vertex 25.4619 -38 -9
      vertex 25.4619 -21.9619 6.69134
      vertex 25.4619 -21.9619 -9
    endloop
  endfacet
  facet normal -1 -0 0
    outer loop
      vertex 25.4619 -21.9619 6.69134
      vertex 25.4619 -38 -9
      vertex 25.4619 -38 6.69134
    endloop
  endfacet
  facet normal -1 0 0
    outer loop
      vertex 25.4619 35.9619 -9
      vertex 25.4619 50.5 6.69134
      vertex 25.4619 50.5 -9
    endloop
  endfacet
  facet normal -1 -0 0
    outer loop
      vertex 25.4619 50.5 6.69134
      vertex 25.4619 35.9619 -9
      vertex 25.4619 35.9619 6.69134
    endloop
  endfacet
  facet normal -1 0 0
    outer loop
      vertex 25.4619 -8.03806 -9
      vertex 25.4619 22.0381 6.69134
      vertex 25.4619 22.0381 -9
    endloop
  endfacet
  facet normal -1 -0 0
    outer loop
      vertex 25.4619 22.0381 6.69134
      vertex 25.4619 -8.03806 -9
      vertex 25.4619 -8.03806 6.69134
    endloop
  endfacet
  facet normal -0.382727 0.923862 0
    outer loop
      vertex 25.3266 -38.3266 -9
      vertex 25 -38.4619 6.69134
      vertex 25.3266 -38.3266 6.69134
    endloop
  endfacet
  facet normal -0.382727 0.923862 0
    outer loop
      vertex 25 -38.4619 6.69134
      vertex 25.3266 -38.3266 -9
      vertex 25 -38.4619 -9
    endloop
  endfacet
  facet normal -0.67878 0.280944 -0.678475
    outer loop
      vertex 25.1913 -38 6.96194
      vertex 25.3266 -38.3266 6.69134
      vertex 25.1353 -38.1353 6.96194
    endloop
  endfacet
  facet normal 0.281119 0.678591 -0.678591
    outer loop
      vertex -65 -38.1913 6.96194
      vertex -65 -38.4619 6.69134
      vertex -65.3266 -38.3266 6.69134
    endloop
  endfacet
  facet normal 0.707107 0 -0.707107
    outer loop
      vertex -65.1913 -38 6.96194
      vertex -65.4619 -21.9619 6.69134
      vertex -65.1913 -21.9619 6.96194
    endloop
  endfacet
  facet normal 0.707107 0 -0.707107
    outer loop
      vertex -65.4619 -21.9619 6.69134
      vertex -65.1913 -38 6.96194
      vertex -65.4619 -38 6.69134
    endloop
  endfacet
  facet normal 0.707107 0 -0.707107
    outer loop
      vertex -65.1913 35.9619 6.96194
      vertex -65.4619 50.5 6.69134
      vertex -65.1913 50.5 6.96194
    endloop
  endfacet
  facet normal 0.707107 0 -0.707107
    outer loop
      vertex -65.4619 50.5 6.69134
      vertex -65.1913 35.9619 6.96194
      vertex -65.4619 35.9619 6.69134
    endloop
  endfacet
  facet normal 0.707107 0 -0.707107
    outer loop
      vertex -65.1913 -8.03806 6.96194
      vertex -65.4619 22.0381 6.69134
      vertex -65.1913 22.0381 6.96194
    endloop
  endfacet
  facet normal 0.707107 0 -0.707107
    outer loop
      vertex -65.4619 22.0381 6.69134
      vertex -65.1913 -8.03806 6.96194
      vertex -65.4619 -8.03806 6.69134
    endloop
  endfacet
  facet normal 0.67878 0.280944 -0.678475
    outer loop
      vertex -65.1913 -38 6.96194
      vertex -65.1353 -38.1353 6.96194
      vertex -65.3266 -38.3266 6.69134
    endloop
  endfacet
  facet normal 0 0.707107 -0.707107
    outer loop
      vertex 20.4619 -38.4619 6.69134
      vertex 25 -38.1913 6.96194
      vertex 25 -38.4619 6.69134
    endloop
  endfacet
  facet normal 0 0.707107 -0.707107
    outer loop
      vertex 25 -38.1913 6.96194
      vertex 20.4619 -38.4619 6.69134
      vertex 20.1913 -38.1913 6.96194
    endloop
  endfacet
  facet normal 0 0.707107 -0.707107
    outer loop
      vertex -60.4619 -38.4619 6.69134
      vertex -65 -38.1913 6.96194
      vertex -60.1913 -38.1913 6.96194
    endloop
  endfacet
  facet normal 0 0.707107 -0.707107
    outer loop
      vertex -65 -38.1913 6.96194
      vertex -60.4619 -38.4619 6.69134
      vertex -65 -38.4619 6.69134
    endloop
  endfacet
  facet normal 0 1 -0
    outer loop
      vertex -60.4619 -38.4619 -9
      vertex -65 -38.4619 6.69134
      vertex -60.4619 -38.4619 6.69134
    endloop
  endfacet
  facet normal 0 1 0
    outer loop
      vertex -65 -38.4619 6.69134
      vertex -60.4619 -38.4619 -9
      vertex -65 -38.4619 -9
    endloop
  endfacet
  facet normal 0 1 -0
    outer loop
      vertex 25 -38.4619 -9
      vertex 20.4619 -38.4619 6.69134
      vertex 25 -38.4619 6.69134
    endloop
  endfacet
  facet normal 0 1 0
    outer loop
      vertex 20.4619 -38.4619 6.69134
      vertex 25 -38.4619 -9
      vertex 20.4619 -38.4619 -9
    endloop
  endfacet
  facet normal 0.280944 0.67878 -0.678475
    outer loop
      vertex -65.1353 -38.1353 6.96194
      vertex -65 -38.1913 6.96194
      vertex -65.3266 -38.3266 6.69134
    endloop
  endfacet
  facet normal -0.280944 0.67878 -0.678475
    outer loop
      vertex 25.1353 -38.1353 6.96194
      vertex 25.3266 -38.3266 6.69134
      vertex 25 -38.1913 6.96194
    endloop
  endfacet
  facet normal 0 0 -1
    outer loop
      vertex 20.1913 -46.5 6.96194
      vertex -60.1913 -46.5 6.96194
      vertex 20.1913 -38.1913 6.96194
    endloop
  endfacet
  facet normal 0 0 -1
    outer loop
      vertex 25 -38.1913 6.96194
      vertex 25.1913 -38 6.96194
      vertex 25.1353 -38.1353 6.96194
    endloop
  endfacet
  facet normal 0 0 -1
    outer loop
      vertex 25.1913 -38 6.96194
      vertex 25 -38.1913 6.96194
      vertex 20.1913 -38.1913 6.96194
    endloop
  endfacet
  facet normal 0 0 -1
    outer loop
      vertex 25.1913 -38 6.96194
      vertex 23.5 -21.9619 6.96194
      vertex 25.1913 -21.9619 6.96194
    endloop
  endfacet
  facet normal -0 0 -1
    outer loop
      vertex 25.1913 -38 6.96194
      vertex 20.1913 -38.1913 6.96194
      vertex 23.5 -21.9619 6.96194
    endloop
  endfacet
  facet normal -0 0 -1
    outer loop
      vertex 23.5 -21.9619 6.96194
      vertex 20.1913 -38.1913 6.96194
      vertex 23.1734 -21.8266 6.96194
    endloop
  endfacet
  facet normal 0 0 -1
    outer loop
      vertex -63.0381 -8.5 6.96194
      vertex 23.0381 -8.5 6.96194
      vertex 23.0381 -21.5 6.96194
    endloop
  endfacet
  facet normal 0 0 -1
    outer loop
      vertex 23.0381 -8.5 6.96194
      vertex -63.0381 -8.5 6.96194
      vertex 23.0381 22.5 6.96194
    endloop
  endfacet
  facet normal 0 0 -1
    outer loop
      vertex -63.0381 -21.5 6.96194
      vertex 23.0381 -21.5 6.96194
      vertex 20.1913 -38.1913 6.96194
    endloop
  endfacet
  facet normal -0 0 -1
    outer loop
      vertex 23.1734 -21.8266 6.96194
      vertex 20.1913 -38.1913 6.96194
      vertex 23.0381 -21.5 6.96194
    endloop
  endfacet
  facet normal 0 0 -1
    outer loop
      vertex 23.5 -8.03806 6.96194
      vertex 25.1913 22.0381 6.96194
      vertex 25.1913 -8.03806 6.96194
    endloop
  endfacet
  facet normal 0 0 -1
    outer loop
      vertex 23.5 -8.03806 6.96194
      vertex 23.5 22.0381 6.96194
      vertex 25.1913 22.0381 6.96194
    endloop
  endfacet
  facet normal 0 0 -1
    outer loop
      vertex 23.1734 -8.17336 6.96194
      vertex 23.5 22.0381 6.96194
      vertex 23.5 -8.03806 6.96194
    endloop
  endfacet
  facet normal 0 0 -1
    outer loop
      vertex 23.1734 -8.17336 6.96194
      vertex 23.1734 22.1734 6.96194
      vertex 23.5 22.0381 6.96194
    endloop
  endfacet
  facet normal 0 0 -1
    outer loop
      vertex 23.0381 -8.5 6.96194
      vertex 23.1734 22.1734 6.96194
      vertex 23.1734 -8.17336 6.96194
    endloop
  endfacet
  facet normal -0 0 -1
    outer loop
      vertex 23.1734 22.1734 6.96194
      vertex 23.0381 -8.5 6.96194
      vertex 23.0381 22.5 6.96194
    endloop
  endfacet
  facet normal 0 0 -1
    outer loop
      vertex 23.5 35.9619 6.96194
      vertex 25.1913 50.5 6.96194
      vertex 25.1913 35.9619 6.96194
    endloop
  endfacet
  facet normal 0 0 -1
    outer loop
      vertex 23.1734 35.8266 6.96194
      vertex 25.1913 50.5 6.96194
      vertex 23.5 35.9619 6.96194
    endloop
  endfacet
  facet normal 0 0 -1
    outer loop
      vertex 23.0381 35.5 6.96194
      vertex 25.1913 50.5 6.96194
      vertex 23.1734 35.8266 6.96194
    endloop
  endfacet
  facet normal 0 0 -1
    outer loop
      vertex -60.1913 -38.1913 6.96194
      vertex 20.1913 -38.1913 6.96194
      vertex -60.1913 -46.5 6.96194
    endloop
  endfacet
  facet normal 0 0 -1
    outer loop
      vertex -63.0381 -21.5 6.96194
      vertex 20.1913 -38.1913 6.96194
      vertex -60.1913 -38.1913 6.96194
    endloop
  endfacet
  facet normal 0 0 -1
    outer loop
      vertex 23.0381 -21.5 6.96194
      vertex -63.0381 -21.5 6.96194
      vertex -63.0381 -8.5 6.96194
    endloop
  endfacet
  facet normal 0 0 -1
    outer loop
      vertex -63.0381 22.5 6.96194
      vertex 23.0381 22.5 6.96194
      vertex -63.0381 -8.5 6.96194
    endloop
  endfacet
  facet normal 0 0 -1
    outer loop
      vertex 23.0381 22.5 6.96194
      vertex -63.0381 22.5 6.96194
      vertex 23.0381 35.5 6.96194
    endloop
  endfacet
  facet normal 0 0 -1
    outer loop
      vertex -63.0381 35.5 6.96194
      vertex 23.0381 35.5 6.96194
      vertex -63.0381 22.5 6.96194
    endloop
  endfacet
  facet normal 0 0 -1
    outer loop
      vertex 23.0381 35.5 6.96194
      vertex -63.0381 35.5 6.96194
      vertex 25.1913 50.5 6.96194
    endloop
  endfacet
  facet normal 0 0 -1
    outer loop
      vertex -65.1913 50.5 6.96194
      vertex -63.0381 35.5 6.96194
      vertex -63.1734 35.8266 6.96194
    endloop
  endfacet
  facet normal 0 0 -1
    outer loop
      vertex -65.1913 50.5 6.96194
      vertex -63.1734 35.8266 6.96194
      vertex -63.5 35.9619 6.96194
    endloop
  endfacet
  facet normal 0 0 -1
    outer loop
      vertex -65.1913 50.5 6.96194
      vertex -63.5 35.9619 6.96194
      vertex -65.1913 35.9619 6.96194
    endloop
  endfacet
  facet normal 0 0 -1
    outer loop
      vertex -63.0381 35.5 6.96194
      vertex -65.1913 50.5 6.96194
      vertex 25.1913 50.5 6.96194
    endloop
  endfacet
  facet normal 0 0 -1
    outer loop
      vertex -63.1734 -8.17336 6.96194
      vertex -63.0381 22.5 6.96194
      vertex -63.0381 -8.5 6.96194
    endloop
  endfacet
  facet normal 0 0 -1
    outer loop
      vertex -63.1734 -8.17336 6.96194
      vertex -63.1734 22.1734 6.96194
      vertex -63.0381 22.5 6.96194
    endloop
  endfacet
  facet normal 0 0 -1
    outer loop
      vertex -63.5 -8.03806 6.96194
      vertex -63.1734 22.1734 6.96194
      vertex -63.1734 -8.17336 6.96194
    endloop
  endfacet
  facet normal 0 0 -1
    outer loop
      vertex -63.5 -8.03806 6.96194
      vertex -63.5 22.0381 6.96194
      vertex -63.1734 22.1734 6.96194
    endloop
  endfacet
  facet normal 0 0 -1
    outer loop
      vertex -65.1913 -8.03806 6.96194
      vertex -63.5 22.0381 6.96194
      vertex -63.5 -8.03806 6.96194
    endloop
  endfacet
  facet normal -0 0 -1
    outer loop
      vertex -63.5 22.0381 6.96194
      vertex -65.1913 -8.03806 6.96194
      vertex -65.1913 22.0381 6.96194
    endloop
  endfacet
  facet normal 0 0 -1
    outer loop
      vertex -60.1913 -38.1913 6.96194
      vertex -63.1734 -21.8266 6.96194
      vertex -63.0381 -21.5 6.96194
    endloop
  endfacet
  facet normal 0 0 -1
    outer loop
      vertex -60.1913 -38.1913 6.96194
      vertex -63.5 -21.9619 6.96194
      vertex -63.1734 -21.8266 6.96194
    endloop
  endfacet
  facet normal 0 0 -1
    outer loop
      vertex -65.1913 -38 6.96194
      vertex -60.1913 -38.1913 6.96194
      vertex -65 -38.1913 6.96194
    endloop
  endfacet
  facet normal 0 0 -1
    outer loop
      vertex -65.1913 -38 6.96194
      vertex -65 -38.1913 6.96194
      vertex -65.1353 -38.1353 6.96194
    endloop
  endfacet
  facet normal 0 0 -1
    outer loop
      vertex -60.1913 -38.1913 6.96194
      vertex -65.1913 -38 6.96194
      vertex -63.5 -21.9619 6.96194
    endloop
  endfacet
  facet normal -0 0 -1
    outer loop
      vertex -63.5 -21.9619 6.96194
      vertex -65.1913 -38 6.96194
      vertex -65.1913 -21.9619 6.96194
    endloop
  endfacet
  facet normal -0.678591 0.281119 -0.678591
    outer loop
      vertex 25.4619 -38 6.69134
      vertex 25.3266 -38.3266 6.69134
      vertex 25.1913 -38 6.96194
    endloop
  endfacet
  facet normal 0.923862 0.382727 0
    outer loop
      vertex -65.3266 -38.3266 6.69134
      vertex -65.4619 -38 -9
      vertex -65.4619 -38 6.69134
    endloop
  endfacet
  facet normal 0.923862 0.382727 0
    outer loop
      vertex -65.4619 -38 -9
      vertex -65.3266 -38.3266 6.69134
      vertex -65.3266 -38.3266 -9
    endloop
  endfacet
  facet normal -0.707107 0 -0.707107
    outer loop
      vertex 25.4619 -38 6.69134
      vertex 25.1913 -21.9619 6.96194
      vertex 25.4619 -21.9619 6.69134
    endloop
  endfacet
  facet normal -0.707107 -0 -0.707107
    outer loop
      vertex 25.1913 -21.9619 6.96194
      vertex 25.4619 -38 6.69134
      vertex 25.1913 -38 6.96194
    endloop
  endfacet
  facet normal -0.707107 0 -0.707107
    outer loop
      vertex 25.4619 35.9619 6.69134
      vertex 25.1913 50.5 6.96194
      vertex 25.4619 50.5 6.69134
    endloop
  endfacet
  facet normal -0.707107 -0 -0.707107
    outer loop
      vertex 25.1913 50.5 6.96194
      vertex 25.4619 35.9619 6.69134
      vertex 25.1913 35.9619 6.96194
    endloop
  endfacet
  facet normal -0.707107 0 -0.707107
    outer loop
      vertex 25.4619 -8.03806 6.69134
      vertex 25.1913 22.0381 6.96194
      vertex 25.4619 22.0381 6.69134
    endloop
  endfacet
  facet normal -0.707107 -0 -0.707107
    outer loop
      vertex 25.1913 22.0381 6.96194
      vertex 25.4619 -8.03806 6.69134
      vertex 25.1913 -8.03806 6.96194
    endloop
  endfacet
  facet normal 1 -0 0
    outer loop
      vertex -65.4619 -38 6.69134
      vertex -65.4619 -21.9619 -9
      vertex -65.4619 -21.9619 6.69134
    endloop
  endfacet
  facet normal 1 0 0
    outer loop
      vertex -65.4619 -21.9619 -9
      vertex -65.4619 -38 6.69134
      vertex -65.4619 -38 -9
    endloop
  endfacet
  facet normal 1 -0 0
    outer loop
      vertex -65.4619 35.9619 6.69134
      vertex -65.4619 50.5 -9
      vertex -65.4619 50.5 6.69134
    endloop
  endfacet
  facet normal 1 0 0
    outer loop
      vertex -65.4619 50.5 -9
      vertex -65.4619 35.9619 6.69134
      vertex -65.4619 35.9619 -9
    endloop
  endfacet
  facet normal 1 -0 0
    outer loop
      vertex -65.4619 -8.03806 6.69134
      vertex -65.4619 22.0381 -9
      vertex -65.4619 22.0381 6.69134
    endloop
  endfacet
  facet normal 1 0 0
    outer loop
      vertex -65.4619 22.0381 -9
      vertex -65.4619 -8.03806 6.69134
      vertex -65.4619 -8.03806 -9
    endloop
  endfacet
  facet normal -0.923862 0.382727 0
    outer loop
      vertex 25.3266 -38.3266 -9
      vertex 25.4619 -38 6.69134
      vertex 25.4619 -38 -9
    endloop
  endfacet
  facet normal -0.923862 0.382727 0
    outer loop
      vertex 25.4619 -38 6.69134
      vertex 25.3266 -38.3266 -9
      vertex 25.3266 -38.3266 6.69134
    endloop
  endfacet
  facet normal 0.382727 0.923862 -0
    outer loop
      vertex -65 -38.4619 -9
      vertex -65.3266 -38.3266 6.69134
      vertex -65 -38.4619 6.69134
    endloop
  endfacet
  facet normal 0.382727 0.923862 0
    outer loop
      vertex -65.3266 -38.3266 6.69134
      vertex -65 -38.4619 -9
      vertex -65.3266 -38.3266 -9
    endloop
  endfacet
  facet normal -1 0 0
    outer loop
      vertex 20.4619 -46.5 -9
      vertex 20.4619 -38.4619 6.69134
      vertex 20.4619 -38.4619 -9
    endloop
  endfacet
  facet normal -1 -0 0
    outer loop
      vertex 20.4619 -38.4619 6.69134
      vertex 20.4619 -46.5 -9
      vertex 20.4619 -46.5 6.69134
    endloop
  endfacet
  facet normal 0.707107 0 -0.707107
    outer loop
      vertex -60.1913 -46.5 6.96194
      vertex -60.4619 -38.4619 6.69134
      vertex -60.1913 -38.1913 6.96194
    endloop
  endfacet
  facet normal 0.707107 0 -0.707107
    outer loop
      vertex -60.4619 -38.4619 6.69134
      vertex -60.1913 -46.5 6.96194
      vertex -60.4619 -46.5 6.69134
    endloop
  endfacet
  facet normal 1 -0 0
    outer loop
      vertex -60.4619 -46.5 6.69134
      vertex -60.4619 -38.4619 -9
      vertex -60.4619 -38.4619 6.69134
    endloop
  endfacet
  facet normal 1 0 0
    outer loop
      vertex -60.4619 -38.4619 -9
      vertex -60.4619 -46.5 6.69134
      vertex -60.4619 -46.5 -9
    endloop
  endfacet
  facet normal -0.707107 0 -0.707107
    outer loop
      vertex 20.1913 -46.5 6.96194
      vertex 20.4619 -38.4619 6.69134
      vertex 20.4619 -46.5 6.69134
    endloop
  endfacet
  facet normal -0.707107 0 -0.707107
    outer loop
      vertex 20.4619 -38.4619 6.69134
      vertex 20.1913 -46.5 6.96194
      vertex 20.1913 -38.1913 6.96194
    endloop
  endfacet
  facet normal 1 -0 0
    outer loop
      vertex 27 -46.5 9
      vertex 27 50.5 -9
      vertex 27 50.5 9
    endloop
  endfacet
  facet normal 1 0 0
    outer loop
      vertex 27 50.5 -9
      vertex 27 -46.5 9
      vertex 27 -46.5 -9
    endloop
  endfacet
  facet normal -0 0 1
    outer loop
      vertex -67 50.5 9
      vertex 27 -46.5 9
      vertex 27 50.5 9
    endloop
  endfacet
  facet normal 0 0 1
    outer loop
      vertex 27 -46.5 9
      vertex -67 50.5 9
      vertex -67 -46.5 9
    endloop
  endfacet
  facet normal 0 0 -1
    outer loop
      vertex 23.0381 22.5 -9
      vertex 25.4619 22.0381 -9
      vertex 23.5 22.0381 -9
    endloop
  endfacet
  facet normal 0 0 -1
    outer loop
      vertex 25.4619 22.0381 -9
      vertex 23.0381 22.5 -9
      vertex 25.4619 35.9619 -9
    endloop
  endfacet
  facet normal 0 0 -1
    outer loop
      vertex 23.0381 22.5 -9
      vertex 23.5 22.0381 -9
      vertex 23.1734 22.1734 -9
    endloop
  endfacet
  facet normal 0 0 -1
    outer loop
      vertex 23.0381 35.5 -9
      vertex 25.4619 35.9619 -9
      vertex 23.0381 22.5 -9
    endloop
  endfacet
  facet normal -0 0 -1
    outer loop
      vertex 25.4619 35.9619 -9
      vertex 23.0381 35.5 -9
      vertex 23.5 35.9619 -9
    endloop
  endfacet
  facet normal 0 0 -1
    outer loop
      vertex 23.5 35.9619 -9
      vertex 23.0381 35.5 -9
      vertex 23.1734 35.8266 -9
    endloop
  endfacet
  facet normal 0 0 -1
    outer loop
      vertex 23.0381 -21.5 -9
      vertex 25.4619 -21.9619 -9
      vertex 23.5 -21.9619 -9
    endloop
  endfacet
  facet normal 0 0 -1
    outer loop
      vertex 25.4619 -21.9619 -9
      vertex 23.0381 -21.5 -9
      vertex 25.4619 -8.03806 -9
    endloop
  endfacet
  facet normal 0 0 -1
    outer loop
      vertex 23.0381 -21.5 -9
      vertex 23.5 -21.9619 -9
      vertex 23.1734 -21.8266 -9
    endloop
  endfacet
  facet normal 0 0 -1
    outer loop
      vertex 23.0381 -8.5 -9
      vertex 25.4619 -8.03806 -9
      vertex 23.0381 -21.5 -9
    endloop
  endfacet
  facet normal -0 0 -1
    outer loop
      vertex 25.4619 -8.03806 -9
      vertex 23.0381 -8.5 -9
      vertex 23.5 -8.03806 -9
    endloop
  endfacet
  facet normal 0 0 -1
    outer loop
      vertex 23.5 -8.03806 -9
      vertex 23.0381 -8.5 -9
      vertex 23.1734 -8.17336 -9
    endloop
  endfacet
  facet normal 0 0 -1
    outer loop
      vertex 25.4619 -21.9619 -9
      vertex 27 -46.5 -9
      vertex 25.4619 -38 -9
    endloop
  endfacet
  facet normal 0 0 -1
    outer loop
      vertex 27 -46.5 -9
      vertex 25.3266 -38.3266 -9
      vertex 25.4619 -38 -9
    endloop
  endfacet
  facet normal 0 0 -1
    outer loop
      vertex 27 -46.5 -9
      vertex 25 -38.4619 -9
      vertex 25.3266 -38.3266 -9
    endloop
  endfacet
  facet normal 0 0 -1
    outer loop
      vertex 20.4619 -46.5 -9
      vertex 25 -38.4619 -9
      vertex 27 -46.5 -9
    endloop
  endfacet
  facet normal -0 0 -1
    outer loop
      vertex 25 -38.4619 -9
      vertex 20.4619 -46.5 -9
      vertex 20.4619 -38.4619 -9
    endloop
  endfacet
  facet normal 0 0 -1
    outer loop
      vertex 25.4619 -8.03806 -9
      vertex 27 -46.5 -9
      vertex 25.4619 -21.9619 -9
    endloop
  endfacet
  facet normal 0 0 -1
    outer loop
      vertex 27 -46.5 -9
      vertex 25.4619 -8.03806 -9
      vertex 27 50.5 -9
    endloop
  endfacet
  facet normal 0 0 -1
    outer loop
      vertex 25.4619 22.0381 -9
      vertex 27 50.5 -9
      vertex 25.4619 -8.03806 -9
    endloop
  endfacet
  facet normal 0 0 -1
    outer loop
      vertex 25.4619 35.9619 -9
      vertex 27 50.5 -9
      vertex 25.4619 22.0381 -9
    endloop
  endfacet
  facet normal -0 0 -1
    outer loop
      vertex 27 50.5 -9
      vertex 25.4619 35.9619 -9
      vertex 25.4619 50.5 -9
    endloop
  endfacet
  facet normal 0 0 -1
    outer loop
      vertex -60.4619 -46.5 -9
      vertex -65 -38.4619 -9
      vertex -60.4619 -38.4619 -9
    endloop
  endfacet
  facet normal 0 0 -1
    outer loop
      vertex -67 -46.5 -9
      vertex -65 -38.4619 -9
      vertex -60.4619 -46.5 -9
    endloop
  endfacet
  facet normal 0 0 -1
    outer loop
      vertex -67 -46.5 -9
      vertex -65.4619 -21.9619 -9
      vertex -65.4619 -38 -9
    endloop
  endfacet
  facet normal -0 0 -1
    outer loop
      vertex -65.4619 -21.9619 -9
      vertex -67 -46.5 -9
      vertex -65.4619 -8.03806 -9
    endloop
  endfacet
  facet normal 0 0 -1
    outer loop
      vertex -67 50.5 -9
      vertex -65.4619 -8.03806 -9
      vertex -67 -46.5 -9
    endloop
  endfacet
  facet normal 0 0 -1
    outer loop
      vertex -65.4619 -8.03806 -9
      vertex -67 50.5 -9
      vertex -65.4619 22.0381 -9
    endloop
  endfacet
  facet normal -0 0 -1
    outer loop
      vertex -65 -38.4619 -9
      vertex -67 -46.5 -9
      vertex -65.3266 -38.3266 -9
    endloop
  endfacet
  facet normal 0 0 -1
    outer loop
      vertex -67 -46.5 -9
      vertex -65.4619 -38 -9
      vertex -65.3266 -38.3266 -9
    endloop
  endfacet
  facet normal 0 0 -1
    outer loop
      vertex -65.4619 22.0381 -9
      vertex -67 50.5 -9
      vertex -65.4619 35.9619 -9
    endloop
  endfacet
  facet normal 0 0 -1
    outer loop
      vertex -65.4619 35.9619 -9
      vertex -67 50.5 -9
      vertex -65.4619 50.5 -9
    endloop
  endfacet
  facet normal 0 0 -1
    outer loop
      vertex -63.5 -21.9619 -9
      vertex -63.0381 -21.5 -9
      vertex -63.1734 -21.8266 -9
    endloop
  endfacet
  facet normal -0 0 -1
    outer loop
      vertex -63.0381 -21.5 -9
      vertex -65.4619 -21.9619 -9
      vertex -63.0381 -8.5 -9
    endloop
  endfacet
  facet normal 0 0 -1
    outer loop
      vertex -63.0381 -21.5 -9
      vertex -63.5 -21.9619 -9
      vertex -65.4619 -21.9619 -9
    endloop
  endfacet
  facet normal 0 0 -1
    outer loop
      vertex -65.4619 -8.03806 -9
      vertex -63.0381 -8.5 -9
      vertex -65.4619 -21.9619 -9
    endloop
  endfacet
  facet normal -0 -0 -1
    outer loop
      vertex -63.5 -8.03806 -9
      vertex -63.0381 -8.5 -9
      vertex -65.4619 -8.03806 -9
    endloop
  endfacet
  facet normal 0 0 -1
    outer loop
      vertex -63.0381 -8.5 -9
      vertex -63.5 -8.03806 -9
      vertex -63.1734 -8.17336 -9
    endloop
  endfacet
  facet normal 0 0 -1
    outer loop
      vertex -63.5 22.0381 -9
      vertex -63.0381 22.5 -9
      vertex -63.1734 22.1734 -9
    endloop
  endfacet
  facet normal -0 0 -1
    outer loop
      vertex -63.0381 22.5 -9
      vertex -65.4619 22.0381 -9
      vertex -63.0381 35.5 -9
    endloop
  endfacet
  facet normal 0 0 -1
    outer loop
      vertex -63.0381 22.5 -9
      vertex -63.5 22.0381 -9
      vertex -65.4619 22.0381 -9
    endloop
  endfacet
  facet normal 0 0 -1
    outer loop
      vertex -65.4619 35.9619 -9
      vertex -63.0381 35.5 -9
      vertex -65.4619 22.0381 -9
    endloop
  endfacet
  facet normal -0 -0 -1
    outer loop
      vertex -63.5 35.9619 -9
      vertex -63.0381 35.5 -9
      vertex -65.4619 35.9619 -9
    endloop
  endfacet
  facet normal 0 0 -1
    outer loop
      vertex -63.0381 35.5 -9
      vertex -63.5 35.9619 -9
      vertex -63.1734 35.8266 -9
    endloop
  endfacet
  facet normal -1 0 0
    outer loop
      vertex -67 -46.5 -9
      vertex -67 50.5 9
      vertex -67 50.5 -9
    endloop
  endfacet
  facet normal -1 -0 0
    outer loop
      vertex -67 50.5 9
      vertex -67 -46.5 -9
      vertex -67 -46.5 9
    endloop
  endfacet
  facet normal 0 1 0
    outer loop
      vertex 27 50.5 9
      vertex 25.1913 50.5 6.96194
      vertex -67 50.5 9
    endloop
  endfacet
  facet normal 0 1 0
    outer loop
      vertex 27 50.5 9
      vertex 25.4619 50.5 6.69134
      vertex 25.1913 50.5 6.96194
    endloop
  endfacet
  facet normal 0 1 -0
    outer loop
      vertex 27 50.5 -9
      vertex 25.4619 50.5 6.69134
      vertex 27 50.5 9
    endloop
  endfacet
  facet normal 0 1 0
    outer loop
      vertex 25.4619 50.5 6.69134
      vertex 27 50.5 -9
      vertex 25.4619 50.5 -9
    endloop
  endfacet
  facet normal 0 1 -0
    outer loop
      vertex -65.1913 50.5 6.96194
      vertex -67 50.5 9
      vertex 25.1913 50.5 6.96194
    endloop
  endfacet
  facet normal 0 1 -0
    outer loop
      vertex -65.4619 50.5 6.69134
      vertex -67 50.5 9
      vertex -65.1913 50.5 6.96194
    endloop
  endfacet
  facet normal 0 1 0
    outer loop
      vertex -67 50.5 -9
      vertex -65.4619 50.5 6.69134
      vertex -65.4619 50.5 -9
    endloop
  endfacet
  facet normal 0 1 0
    outer loop
      vertex -65.4619 50.5 6.69134
      vertex -67 50.5 -9
      vertex -67 50.5 9
    endloop
  endfacet
  facet normal 0 -1 0
    outer loop
      vertex -67 -46.5 9
      vertex -60.1913 -46.5 6.96194
      vertex 27 -46.5 9
    endloop
  endfacet
  facet normal 0 -1 0
    outer loop
      vertex -67 -46.5 9
      vertex -60.4619 -46.5 6.69134
      vertex -60.1913 -46.5 6.96194
    endloop
  endfacet
  facet normal 0 -1 0
    outer loop
      vertex -67 -46.5 -9
      vertex -60.4619 -46.5 6.69134
      vertex -67 -46.5 9
    endloop
  endfacet
  facet normal 0 -1 -0
    outer loop
      vertex -60.4619 -46.5 6.69134
      vertex -67 -46.5 -9
      vertex -60.4619 -46.5 -9
    endloop
  endfacet
  facet normal 0 -1 0
    outer loop
      vertex 20.1913 -46.5 6.96194
      vertex 27 -46.5 9
      vertex -60.1913 -46.5 6.96194
    endloop
  endfacet
  facet normal 0 -1 0
    outer loop
      vertex 20.4619 -46.5 6.69134
      vertex 27 -46.5 9
      vertex 20.1913 -46.5 6.96194
    endloop
  endfacet
  facet normal 0 -1 0
    outer loop
      vertex 27 -46.5 -9
      vertex 20.4619 -46.5 6.69134
      vertex 20.4619 -46.5 -9
    endloop
  endfacet
  facet normal 0 -1 0
    outer loop
      vertex 20.4619 -46.5 6.69134
      vertex 27 -46.5 -9
      vertex 27 -46.5 9
    endloop
  endfacet
endsolid OpenSCAD_Model
