<?xml version="1.0" standalone="no"?>
 <!DOCTYPE svg PUBLIC "-//W3C//DTD SVG 1.1//EN" 
 "http://www.w3.org/Graphics/SVG/1.1/DTD/svg11.dtd"> 
<svg
  xmlns:svg="http://www.w3.org/2000/svg"
  xmlns="http://www.w3.org/2000/svg"
  xmlns:xlink="http://www.w3.org/1999/xlink"
  version="1.1"
  width="25.392380cm" height="10.739120cm" viewBox="0 0 253923800 107391200">
<title>SVG Picture created as pcb-top-plate-Edge_Cuts.svg date 2022/05/02 19:38:03 </title>
  <desc>Picture generated by PCBNEW </desc>
<g style="fill:#000000; fill-opacity:1.000000;stroke:#000000; stroke-opacity:1.000000;
stroke-linecap:round; stroke-linejoin:round;"
 transform="translate(0 0) scale(1 1)">
</g>
<g style="fill:#000000; fill-opacity:0.0; 
stroke:#000000; stroke-width:0.000000; stroke-opacity:1; 
stroke-linecap:round; stroke-linejoin:round;">
</g>
<g style="fill:#000000; fill-opacity:0.0; 
stroke:#000000; stroke-width:100000.000000; stroke-opacity:1; 
stroke-linecap:round; stroke-linejoin:round;">
<path d="M135453840.000000,101665468.000000 C135453840.000000,101665468.000000 135453840.000000,100206363.000000 135453840.000000,100206363.000000" />
<path d="M135703846.000000,101915475.000000 C135565762.000000,101915475.000000 135453840.000000,101803531.000000 135453840.000000,101665468.000000" />
<path d="M153729748.000000,78561323.000000 C153729748.000000,78561323.000000 139942433.000000,80992376.000000 139942433.000000,80992376.000000" />
<path d="M151298674.000000,64774008.000000 C151298674.000000,64774008.000000 153729748.000000,78561323.000000 153729748.000000,78561323.000000" />
<path d="M187604317.000000,51264367.000000 C187604317.000000,51264367.000000 190035392.000000,65051683.000000 190035392.000000,65051683.000000" />
<path d="M119975865.000000,102187379.000000 C119975865.000000,102187379.000000 119975865.000000,100206363.000000 119975865.000000,100206363.000000" />
<path d="M133975851.000000,102187379.000000 C133975851.000000,102187379.000000 119975865.000000,102187379.000000 119975865.000000,102187379.000000" />
<path d="M173817002.000000,53695442.000000 C173817002.000000,53695442.000000 187604317.000000,51264367.000000 187604317.000000,51264367.000000" />
<path d="M194110789.000000,87727000.000000 C194110789.000000,87727000.000000 180110782.000000,87727000.000000 180110782.000000,87727000.000000" />
<path d="M170906004.000000,96833550.000000 C170906004.000000,96833550.000000 157383035.000000,100457015.000000 157383035.000000,100457015.000000" />
<path d="M167282539.000000,83310581.000000 C167282539.000000,83310581.000000 170906004.000000,96833550.000000 170906004.000000,96833550.000000" />
<path d="M111192702.000000,92906012.000000 C111192702.000000,92906012.000000 111192702.000000,87150635.000000 111192702.000000,87150635.000000" />
<path d="M110357331.000000,92906012.000000 C110357331.000000,92906012.000000 111192702.000000,92906012.000000 111192702.000000,92906012.000000" />
<path d="M110357331.000000,97796088.000000 C110357331.000000,97796088.000000 110357331.000000,92906012.000000 110357331.000000,92906012.000000" />
<path d="M111192702.000000,97796088.000000 C111192702.000000,97796088.000000 110357331.000000,97796088.000000 110357331.000000,97796088.000000" />
<path d="M171882559.000000,71806503.000000 C171882559.000000,71806503.000000 158095244.000000,74237578.000000 158095244.000000,74237578.000000" />
<path d="M169451485.000000,58019188.000000 C169451485.000000,58019188.000000 171882559.000000,71806503.000000 171882559.000000,71806503.000000" />
<path d="M251161786.000000,70165346.000000 C252793706.000000,69877852.000000 253883476.000000,68321724.000000 253595724.000000,66689869.000000" />
<path d="M232372407.000000,73475436.000000 C232372407.000000,73475436.000000 251161786.000000,70165346.000000 251161786.000000,70165346.000000" />
<path d="M231610460.000000,73462237.000000 C231861262.000000,73515421.000000 232119925.000000,73519900.000000 232372407.000000,73475436.000000" />
<path d="M223193338.000000,71677010.000000 C223193338.000000,71677010.000000 231610460.000000,73462237.000000 231610460.000000,73462237.000000" />
<path d="M222426976.000000,71664608.000000 C222680837.000000,71619283.000000 222941071.000000,71623504.000000 223193338.000000,71677010.000000" />
<path d="M200096104.000000,75650347.000000 C200096104.000000,75650347.000000 222426976.000000,71664608.000000 222426976.000000,71664608.000000" />
<path d="M199271800.000000,76634783.000000 C199271800.000000,76150295.000000 199619131.000000,75735484.000000 200096104.000000,75650347.000000" />
<path d="M199271800.000000,91895199.000000 C199271800.000000,91895199.000000 199271800.000000,76634783.000000 199271800.000000,76634783.000000" />
<path d="M198271818.000000,92895203.000000 C198824089.000000,92895203.000000 199271800.000000,92447491.000000 199271800.000000,91895199.000000" />
<path d="M180851844.000000,92895203.000000 C180851844.000000,92895203.000000 198271818.000000,92895203.000000 198271818.000000,92895203.000000" />
<path d="M179919343.000000,93534031.000000 C180068472.000000,93148999.000000 180438928.000000,92895203.000000 180851844.000000,92895203.000000" />
<path d="M177412325.000000,100007086.000000 C177412325.000000,100007086.000000 179919343.000000,93534031.000000 179919343.000000,93534031.000000" />
<path d="M176738464.000000,100611915.000000 C177046714.000000,100529362.000000 177297065.000000,100304677.000000 177412325.000000,100007086.000000" />
<path d="M151598698.000000,107342943.000000 C151598698.000000,107342943.000000 176738464.000000,100611915.000000 176738464.000000,100611915.000000" />
<path d="M102412036.000000,107342943.000000 C102412036.000000,107342943.000000 151598698.000000,107342943.000000 151598698.000000,107342943.000000" />
<path d="M77225697.000000,100611635.000000 C77225697.000000,100611635.000000 102412036.000000,107342943.000000 102412036.000000,107342943.000000" />
<path d="M76551686.000000,100007430.000000 C76667118.000000,100304806.000000 76917512.000000,100529254.000000 77225697.000000,100611635.000000" />
<path d="M74038381.000000,93533299.000000 C74038381.000000,93533299.000000 76551686.000000,100007430.000000 76551686.000000,100007430.000000" />
<path d="M73106159.000000,92895203.000000 C73518796.000000,92895203.000000 73889057.000000,93148654.000000 74038381.000000,93533299.000000" />
<path d="M55703970.000000,92895203.000000 C55703970.000000,92895203.000000 73106159.000000,92895203.000000 73106159.000000,92895203.000000" />
<path d="M54703967.000000,91895199.000000 C54703967.000000,92447491.000000 55151678.000000,92895203.000000 55703970.000000,92895203.000000" />
<path d="M54703967.000000,76643934.000000 C54703967.000000,76643934.000000 54703967.000000,91895199.000000 54703967.000000,91895199.000000" />
<path d="M53880158.000000,75659584.000000 C54356895.000000,75744915.000000 54703967.000000,76159618.000000 54703967.000000,76643934.000000" />
<path d="M31575426.000000,71666933.000000 C31575426.000000,71666933.000000 53880158.000000,75659584.000000 53880158.000000,75659584.000000" />
<path d="M30810335.000000,71678668.000000 C31062236.000000,71625549.000000 31322017.000000,71621566.000000 31575426.000000,71666933.000000" />
<path d="M22349245.000000,73462969.000000 C22349245.000000,73462969.000000 30810335.000000,71678668.000000 30810335.000000,71678668.000000" />
<path d="M21589860.000000,73475716.000000 C21841481.000000,73520007.000000 22099260.000000,73515679.000000 22349245.000000,73462969.000000" />
<path d="M2781748.000000,70165238.000000 C2781748.000000,70165238.000000 21589860.000000,73475716.000000 21589860.000000,73475716.000000" />
<path d="M347638.000000,66688232.000000 C58960.000000,68320712.000000 1149053.000000,69877852.000000 2781748.000000,70165238.000000" />
<path d="M10156750.000000,11219590.000000 C10156750.000000,11219590.000000 347638.000000,66688232.000000 347638.000000,66688232.000000" />
<path d="M13110920.000000,8742006.000000 C11655582.000000,8742006.000000 10410159.000000,9786516.000000 10156750.000000,11219590.000000" />
<path d="M74220648.000000,8742135.000000 C74220648.000000,8742135.000000 13110920.000000,8742006.000000 13110920.000000,8742006.000000" />
<path d="M92207405.000000,11945428.000000 C92207405.000000,11945428.000000 74220648.000000,8742135.000000 74220648.000000,8742135.000000" />
<path d="M92949953.000000,12533075.000000 C92816757.000000,12224998.000000 92537876.000000,12004275.000000 92207405.000000,11945428.000000" />
<path d="M93776000.000000,14443574.000000 C93776000.000000,14443574.000000 92949953.000000,12533075.000000 92949953.000000,12533075.000000" />
<path d="M94520012.000000,15031480.000000 C94188938.000000,14973043.000000 93909412.000000,14752147.000000 93776000.000000,14443574.000000" />
<path d="M106836422.000000,17205938.000000 C106836422.000000,17205938.000000 94520012.000000,15031480.000000 94520012.000000,15031480.000000" />
<path d="M107468511.000000,17598722.000000 C107316195.000000,17391349.000000 107089809.000000,17250681.000000 106836422.000000,17205938.000000" />
<path d="M108040698.000000,18377701.000000 C108040698.000000,18377701.000000 107468511.000000,17598722.000000 107468511.000000,17598722.000000" />
<path d="M108672507.000000,18770442.000000 C108419228.000000,18725656.000000 108192971.000000,18584988.000000 108040698.000000,18377701.000000" />
<path d="M141279518.000000,24536886.000000 C141279518.000000,24536886.000000 108672507.000000,18770442.000000 108672507.000000,18770442.000000" />
<path d="M143017353.000000,23323631.000000 C142871841.000000,24138116.000000 142094283.000000,24680977.000000 141279518.000000,24536886.000000" />
<path d="M145932033.000000,7009920.000000 C145932033.000000,7009920.000000 143017353.000000,23323631.000000 143017353.000000,23323631.000000" />
<path d="M147088939.000000,6200774.000000 C146546250.000000,6105733.000000 146028926.000000,6467554.000000 145932033.000000,7009920.000000" />
<path d="M161600672.000000,8742135.000000 C161600672.000000,8742135.000000 147088939.000000,6200774.000000 147088939.000000,6200774.000000" />
<path d="M240860003.000000,8742135.000000 C240860003.000000,8742135.000000 161600672.000000,8742135.000000 161600672.000000,8742135.000000" />
<path d="M243814409.000000,11221161.000000 C243561582.000000,9787420.000000 242315878.000000,8742135.000000 240860003.000000,8742135.000000" />
<path d="M253595724.000000,66689869.000000 C253595724.000000,66689869.000000 243814409.000000,11221161.000000 243814409.000000,11221161.000000" />
<path d="M225306086.000000,16590773.000000 C225306086.000000,16590773.000000 239093401.000000,14159699.000000 239093401.000000,14159699.000000" />
<path d="M227737160.000000,30378088.000000 C227737160.000000,30378088.000000 225306086.000000,16590773.000000 225306086.000000,16590773.000000" />
<path d="M241524475.000000,27947014.000000 C241524475.000000,27947014.000000 227737160.000000,30378088.000000 227737160.000000,30378088.000000" />
<path d="M239093401.000000,14159699.000000 C239093401.000000,14159699.000000 241524475.000000,27947014.000000 241524475.000000,27947014.000000" />
<path d="M205937737.000000,16451936.000000 C205937737.000000,16451936.000000 219725031.000000,14020861.000000 219725031.000000,14020861.000000" />
<path d="M208368812.000000,30239251.000000 C208368812.000000,30239251.000000 205937737.000000,16451936.000000 205937737.000000,16451936.000000" />
<path d="M222156106.000000,27808176.000000 C222156106.000000,27808176.000000 208368812.000000,30239251.000000 208368812.000000,30239251.000000" />
<path d="M219725031.000000,14020861.000000 C219725031.000000,14020861.000000 222156106.000000,27808176.000000 222156106.000000,27808176.000000" />
<path d="M203664685.000000,32642614.000000 C203664685.000000,32642614.000000 206095759.000000,46429930.000000 206095759.000000,46429930.000000" />
<path d="M189877370.000000,35073689.000000 C189877370.000000,35073689.000000 203664685.000000,32642614.000000 203664685.000000,32642614.000000" />
<path d="M192308444.000000,48861004.000000 C192308444.000000,48861004.000000 189877370.000000,35073689.000000 189877370.000000,35073689.000000" />
<path d="M206095759.000000,46429930.000000 C206095759.000000,46429930.000000 192308444.000000,48861004.000000 192308444.000000,48861004.000000" />
<path d="M186569367.000000,16313099.000000 C186569367.000000,16313099.000000 200356682.000000,13882024.000000 200356682.000000,13882024.000000" />
<path d="M189000442.000000,30100414.000000 C189000442.000000,30100414.000000 186569367.000000,16313099.000000 186569367.000000,16313099.000000" />
<path d="M202787757.000000,27669339.000000 C202787757.000000,27669339.000000 189000442.000000,30100414.000000 189000442.000000,30100414.000000" />
<path d="M200356682.000000,13882024.000000 C200356682.000000,13882024.000000 202787757.000000,27669339.000000 202787757.000000,27669339.000000" />
<path d="M167201019.000000,16174261.000000 C167201019.000000,16174261.000000 180988334.000000,13743187.000000 180988334.000000,13743187.000000" />
<path d="M169632094.000000,29961576.000000 C169632094.000000,29961576.000000 167201019.000000,16174261.000000 167201019.000000,16174261.000000" />
<path d="M183419409.000000,27530502.000000 C183419409.000000,27530502.000000 169632094.000000,29961576.000000 169632094.000000,29961576.000000" />
<path d="M180988334.000000,13743187.000000 C180988334.000000,13743187.000000 183419409.000000,27530502.000000 183419409.000000,27530502.000000" />
<path d="M166143504.000000,39258597.000000 C166143504.000000,39258597.000000 168574579.000000,53045912.000000 168574579.000000,53045912.000000" />
<path d="M152356189.000000,41689672.000000 C152356189.000000,41689672.000000 166143504.000000,39258597.000000 166143504.000000,39258597.000000" />
<path d="M154787263.000000,55476987.000000 C154787263.000000,55476987.000000 152356189.000000,41689672.000000 152356189.000000,41689672.000000" />
<path d="M168574579.000000,53045912.000000 C168574579.000000,53045912.000000 154787263.000000,55476987.000000 154787263.000000,55476987.000000" />
<path d="M149048186.000000,22929082.000000 C149048186.000000,22929082.000000 162835502.000000,20498007.000000 162835502.000000,20498007.000000" />
<path d="M151479261.000000,36716397.000000 C151479261.000000,36716397.000000 149048186.000000,22929082.000000 149048186.000000,22929082.000000" />
<path d="M165266576.000000,34285322.000000 C165266576.000000,34285322.000000 151479261.000000,36716397.000000 151479261.000000,36716397.000000" />
<path d="M162835502.000000,20498007.000000 C162835502.000000,20498007.000000 165266576.000000,34285322.000000 165266576.000000,34285322.000000" />
<path d="M147990671.000000,46013418.000000 C147990671.000000,46013418.000000 150421746.000000,59800733.000000 150421746.000000,59800733.000000" />
<path d="M134203378.000000,48444492.000000 C134203378.000000,48444492.000000 147990671.000000,46013418.000000 147990671.000000,46013418.000000" />
<path d="M136634431.000000,62231807.000000 C136634431.000000,62231807.000000 134203378.000000,48444492.000000 134203378.000000,48444492.000000" />
<path d="M150421746.000000,59800733.000000 C150421746.000000,59800733.000000 136634431.000000,62231807.000000 136634431.000000,62231807.000000" />
<path d="M130895375.000000,29683902.000000 C130895375.000000,29683902.000000 144682691.000000,27252827.000000 144682691.000000,27252827.000000" />
<path d="M133326450.000000,43471217.000000 C133326450.000000,43471217.000000 130895375.000000,29683902.000000 130895375.000000,29683902.000000" />
<path d="M147113765.000000,41040142.000000 C147113765.000000,41040142.000000 133326450.000000,43471217.000000 133326450.000000,43471217.000000" />
<path d="M144682691.000000,27252827.000000 C144682691.000000,27252827.000000 147113765.000000,41040142.000000 147113765.000000,41040142.000000" />
<path d="M106824450.000000,41039087.000000 C106824450.000000,41039087.000000 109255525.000000,27251794.000000 109255525.000000,27251794.000000" />
<path d="M120611765.000000,43470162.000000 C120611765.000000,43470162.000000 106824450.000000,41039087.000000 106824450.000000,41039087.000000" />
<path d="M123042836.000000,29682868.000000 C123042836.000000,29682868.000000 120611765.000000,43470162.000000 120611765.000000,43470162.000000" />
<path d="M109255525.000000,27251794.000000 C109255525.000000,27251794.000000 123042836.000000,29682868.000000 123042836.000000,29682868.000000" />
<path d="M105947544.000000,46012384.000000 C105947544.000000,46012384.000000 119734859.000000,48443459.000000 119734859.000000,48443459.000000" />
<path d="M103516470.000000,59799678.000000 C103516470.000000,59799678.000000 105947544.000000,46012384.000000 105947544.000000,46012384.000000" />
<path d="M117303785.000000,62230752.000000 C117303785.000000,62230752.000000 103516470.000000,59799678.000000 103516470.000000,59799678.000000" />
<path d="M119734859.000000,48443459.000000 C119734859.000000,48443459.000000 117303785.000000,62230752.000000 117303785.000000,62230752.000000" />
<path d="M88671639.000000,34284288.000000 C88671639.000000,34284288.000000 91102714.000000,20496973.000000 91102714.000000,20496973.000000" />
<path d="M102458954.000000,36715363.000000 C102458954.000000,36715363.000000 88671639.000000,34284288.000000 88671639.000000,34284288.000000" />
<path d="M104890029.000000,22928048.000000 C104890029.000000,22928048.000000 102458954.000000,36715363.000000 102458954.000000,36715363.000000" />
<path d="M91102714.000000,20496973.000000 C91102714.000000,20496973.000000 104890029.000000,22928048.000000 104890029.000000,22928048.000000" />
<path d="M87794733.000000,39257564.000000 C87794733.000000,39257564.000000 101582027.000000,41688638.000000 101582027.000000,41688638.000000" />
<path d="M85363658.000000,53044857.000000 C85363658.000000,53044857.000000 87794733.000000,39257564.000000 87794733.000000,39257564.000000" />
<path d="M99150952.000000,55475932.000000 C99150952.000000,55475932.000000 85363658.000000,53044857.000000 85363658.000000,53044857.000000" />
<path d="M101582027.000000,41688638.000000 C101582027.000000,41688638.000000 99150952.000000,55475932.000000 99150952.000000,55475932.000000" />
<path d="M70518828.000000,27529468.000000 C70518828.000000,27529468.000000 72949903.000000,13742153.000000 72949903.000000,13742153.000000" />
<path d="M84306122.000000,29960543.000000 C84306122.000000,29960543.000000 70518828.000000,27529468.000000 70518828.000000,27529468.000000" />
<path d="M86737197.000000,16173228.000000 C86737197.000000,16173228.000000 84306122.000000,29960543.000000 84306122.000000,29960543.000000" />
<path d="M72949903.000000,13742153.000000 C72949903.000000,13742153.000000 86737197.000000,16173228.000000 86737197.000000,16173228.000000" />
<path d="M51150458.000000,27668306.000000 C51150458.000000,27668306.000000 53581533.000000,13880990.000000 53581533.000000,13880990.000000" />
<path d="M64937773.000000,30099380.000000 C64937773.000000,30099380.000000 51150458.000000,27668306.000000 51150458.000000,27668306.000000" />
<path d="M67368848.000000,16312065.000000 C67368848.000000,16312065.000000 64937773.000000,30099380.000000 64937773.000000,30099380.000000" />
<path d="M53581533.000000,13880990.000000 C53581533.000000,13880990.000000 67368848.000000,16312065.000000 67368848.000000,16312065.000000" />
<path d="M50273552.000000,32641581.000000 C50273552.000000,32641581.000000 64060846.000000,35072656.000000 64060846.000000,35072656.000000" />
<path d="M47842478.000000,46428874.000000 C47842478.000000,46428874.000000 50273552.000000,32641581.000000 50273552.000000,32641581.000000" />
<path d="M61629771.000000,48859949.000000 C61629771.000000,48859949.000000 47842478.000000,46428874.000000 47842478.000000,46428874.000000" />
<path d="M64060846.000000,35072656.000000 C64060846.000000,35072656.000000 61629771.000000,48859949.000000 61629771.000000,48859949.000000" />
<path d="M31782110.000000,27807121.000000 C31782110.000000,27807121.000000 34213185.000000,14019828.000000 34213185.000000,14019828.000000" />
<path d="M45569404.000000,30238196.000000 C45569404.000000,30238196.000000 31782110.000000,27807121.000000 31782110.000000,27807121.000000" />
<path d="M48000478.000000,16450902.000000 C48000478.000000,16450902.000000 45569404.000000,30238196.000000 45569404.000000,30238196.000000" />
<path d="M34213185.000000,14019828.000000 C34213185.000000,14019828.000000 48000478.000000,16450902.000000 48000478.000000,16450902.000000" />
<path d="M12413740.000000,27945959.000000 C12413740.000000,27945959.000000 14844815.000000,14158665.000000 14844815.000000,14158665.000000" />
<path d="M26201055.000000,30377033.000000 C26201055.000000,30377033.000000 12413740.000000,27945959.000000 12413740.000000,27945959.000000" />
<path d="M28632130.000000,16589740.000000 C28632130.000000,16589740.000000 26201055.000000,30377033.000000 26201055.000000,30377033.000000" />
<path d="M14844815.000000,14158665.000000 C14844815.000000,14158665.000000 28632130.000000,16589740.000000 28632130.000000,16589740.000000" />
<path d="M22016147.000000,54110921.000000 C22016147.000000,54110921.000000 19585072.000000,67898214.000000 19585072.000000,67898214.000000" />
<path d="M8228832.000000,51679846.000000 C8228832.000000,51679846.000000 22016147.000000,54110921.000000 22016147.000000,54110921.000000" />
<path d="M5797757.000000,65467140.000000 C5797757.000000,65467140.000000 8228832.000000,51679846.000000 8228832.000000,51679846.000000" />
<path d="M19585072.000000,67898214.000000 C19585072.000000,67898214.000000 5797757.000000,65467140.000000 5797757.000000,65467140.000000" />
<path d="M22893075.000000,49137624.000000 C22893075.000000,49137624.000000 9105759.000000,46706549.000000 9105759.000000,46706549.000000" />
<path d="M25324149.000000,35350330.000000 C25324149.000000,35350330.000000 22893075.000000,49137624.000000 22893075.000000,49137624.000000" />
<path d="M11536834.000000,32919256.000000 C11536834.000000,32919256.000000 25324149.000000,35350330.000000 25324149.000000,35350330.000000" />
<path d="M9105759.000000,46706549.000000 C9105759.000000,46706549.000000 11536834.000000,32919256.000000 11536834.000000,32919256.000000" />
<path d="M41384495.000000,53972083.000000 C41384495.000000,53972083.000000 38953421.000000,67759377.000000 38953421.000000,67759377.000000" />
<path d="M27597202.000000,51541009.000000 C27597202.000000,51541009.000000 41384495.000000,53972083.000000 41384495.000000,53972083.000000" />
<path d="M25166127.000000,65328302.000000 C25166127.000000,65328302.000000 27597202.000000,51541009.000000 27597202.000000,51541009.000000" />
<path d="M38953421.000000,67759377.000000 C38953421.000000,67759377.000000 25166127.000000,65328302.000000 25166127.000000,65328302.000000" />
<path d="M42261423.000000,48998787.000000 C42261423.000000,48998787.000000 28474108.000000,46567712.000000 28474108.000000,46567712.000000" />
<path d="M44692498.000000,35211493.000000 C44692498.000000,35211493.000000 42261423.000000,48998787.000000 42261423.000000,48998787.000000" />
<path d="M30905182.000000,32780418.000000 C30905182.000000,32780418.000000 44692498.000000,35211493.000000 44692498.000000,35211493.000000" />
<path d="M28474108.000000,46567712.000000 C28474108.000000,46567712.000000 30905182.000000,32780418.000000 30905182.000000,32780418.000000" />
<path d="M58321791.000000,67620540.000000 C58321791.000000,67620540.000000 44534475.000000,65189465.000000 44534475.000000,65189465.000000" />
<path d="M137511358.000000,67205083.000000 C137511358.000000,67205083.000000 151298674.000000,64774008.000000 151298674.000000,64774008.000000" />
<path d="M139942433.000000,80992376.000000 C139942433.000000,80992376.000000 137511358.000000,67205083.000000 137511358.000000,67205083.000000" />
<path d="M133975851.000000,88187394.000000 C133975851.000000,88187394.000000 133975851.000000,88935496.000000 133975851.000000,88935496.000000" />
<path d="M119975865.000000,88187394.000000 C119975865.000000,88187394.000000 133975851.000000,88187394.000000 133975851.000000,88187394.000000" />
<path d="M119975865.000000,88935496.000000 C119975865.000000,88935496.000000 119975865.000000,88187394.000000 119975865.000000,88187394.000000" />
<path d="M135453840.000000,87150635.000000 C135453840.000000,86874489.000000 135677706.000000,86650623.000000 135953831.000000,86650623.000000" />
<path d="M135453840.000000,88935496.000000 C135453840.000000,88935496.000000 135453840.000000,87150635.000000 135453840.000000,87150635.000000" />
<path d="M133975851.000000,88935496.000000 C133975851.000000,88935496.000000 135453840.000000,88935496.000000 135453840.000000,88935496.000000" />
<path d="M211676793.000000,48999842.000000 C211676793.000000,48999842.000000 209245718.000000,35212526.000000 209245718.000000,35212526.000000" />
<path d="M225464108.000000,46568767.000000 C225464108.000000,46568767.000000 211676793.000000,48999842.000000 211676793.000000,48999842.000000" />
<path d="M118517643.000000,100206363.000000 C118517643.000000,100206363.000000 118517643.000000,101665468.000000 118517643.000000,101665468.000000" />
<path d="M119975865.000000,100206363.000000 C119975865.000000,100206363.000000 118517643.000000,100206363.000000 118517643.000000,100206363.000000" />
<path d="M155664169.000000,60450262.000000 C155664169.000000,60450262.000000 169451485.000000,58019188.000000 169451485.000000,58019188.000000" />
<path d="M158095244.000000,74237578.000000 C158095244.000000,74237578.000000 155664169.000000,60450262.000000 155664169.000000,60450262.000000" />
<path d="M60752865.000000,53833246.000000 C60752865.000000,53833246.000000 58321791.000000,67620540.000000 58321791.000000,67620540.000000" />
<path d="M46965550.000000,51402171.000000 C46965550.000000,51402171.000000 60752865.000000,53833246.000000 60752865.000000,53833246.000000" />
<path d="M44534475.000000,65189465.000000 C44534475.000000,65189465.000000 46965550.000000,51402171.000000 46965550.000000,51402171.000000" />
<path d="M73828790.000000,73727014.000000 C73828790.000000,73727014.000000 73828790.000000,87727000.000000 73828790.000000,87727000.000000" />
<path d="M59828783.000000,73727014.000000 C59828783.000000,73727014.000000 73828790.000000,73727014.000000 73828790.000000,73727014.000000" />
<path d="M59828783.000000,87727000.000000 C59828783.000000,87727000.000000 59828783.000000,73727014.000000 59828783.000000,73727014.000000" />
<path d="M73828790.000000,87727000.000000 C73828790.000000,87727000.000000 59828783.000000,87727000.000000 59828783.000000,87727000.000000" />
<path d="M80121214.000000,53694409.000000 C80121214.000000,53694409.000000 77690139.000000,67481702.000000 77690139.000000,67481702.000000" />
<path d="M172940074.000000,48722167.000000 C172940074.000000,48722167.000000 170509000.000000,34934852.000000 170509000.000000,34934852.000000" />
<path d="M186727390.000000,46291092.000000 C186727390.000000,46291092.000000 172940074.000000,48722167.000000 172940074.000000,48722167.000000" />
<path d="M80998141.000000,48721133.000000 C80998141.000000,48721133.000000 67210826.000000,46290059.000000 67210826.000000,46290059.000000" />
<path d="M83429216.000000,34933818.000000 C83429216.000000,34933818.000000 80998141.000000,48721133.000000 80998141.000000,48721133.000000" />
<path d="M69641901.000000,32502743.000000 C69641901.000000,32502743.000000 83429216.000000,34933818.000000 83429216.000000,34933818.000000" />
<path d="M67210826.000000,46290059.000000 C67210826.000000,46290059.000000 69641901.000000,32502743.000000 69641901.000000,32502743.000000" />
<path d="M82055656.000000,71805448.000000 C82055656.000000,71805448.000000 84486731.000000,58018154.000000 84486731.000000,58018154.000000" />
<path d="M95842971.000000,74236523.000000 C95842971.000000,74236523.000000 82055656.000000,71805448.000000 82055656.000000,71805448.000000" />
<path d="M98274046.000000,60449229.000000 C98274046.000000,60449229.000000 95842971.000000,74236523.000000 95842971.000000,74236523.000000" />
<path d="M84486731.000000,58018154.000000 C84486731.000000,58018154.000000 98274046.000000,60449229.000000 98274046.000000,60449229.000000" />
<path d="M100180239.000000,86935317.000000 C100180239.000000,86935317.000000 96556774.000000,100458285.000000 96556774.000000,100458285.000000" />
<path d="M86657270.000000,83311851.000000 C86657270.000000,83311851.000000 100180239.000000,86935317.000000 100180239.000000,86935317.000000" />
<path d="M83033805.000000,96834820.000000 C83033805.000000,96834820.000000 86657270.000000,83311851.000000 86657270.000000,83311851.000000" />
<path d="M96556774.000000,100458285.000000 C96556774.000000,100458285.000000 83033805.000000,96834820.000000 83033805.000000,96834820.000000" />
<path d="M113995782.000000,80991343.000000 C113995782.000000,80991343.000000 100208489.000000,78560268.000000 100208489.000000,78560268.000000" />
<path d="M116426857.000000,67204049.000000 C116426857.000000,67204049.000000 113995782.000000,80991343.000000 113995782.000000,80991343.000000" />
<path d="M102639542.000000,64772974.000000 C102639542.000000,64772974.000000 116426857.000000,67204049.000000 116426857.000000,67204049.000000" />
<path d="M100208489.000000,78560268.000000 C100208489.000000,78560268.000000 102639542.000000,64772974.000000 102639542.000000,64772974.000000" />
<path d="M143604570.000000,92906012.000000 C143604570.000000,92906012.000000 143604570.000000,97796088.000000 143604570.000000,97796088.000000" />
<path d="M142769220.000000,92906012.000000 C142769220.000000,92906012.000000 143604570.000000,92906012.000000 143604570.000000,92906012.000000" />
<path d="M142769220.000000,87150635.000000 C142769220.000000,87150635.000000 142769220.000000,92906012.000000 142769220.000000,92906012.000000" />
<path d="M242401381.000000,32920289.000000 C242401381.000000,32920289.000000 244832456.000000,46707604.000000 244832456.000000,46707604.000000" />
<path d="M66333920.000000,51263334.000000 C66333920.000000,51263334.000000 80121214.000000,53694409.000000 80121214.000000,53694409.000000" />
<path d="M63902845.000000,65050628.000000 C63902845.000000,65050628.000000 66333920.000000,51263334.000000 66333920.000000,51263334.000000" />
<path d="M77690139.000000,67481702.000000 C77690139.000000,67481702.000000 63902845.000000,65050628.000000 63902845.000000,65050628.000000" />
<path d="M142269207.000000,86650623.000000 C142545353.000000,86650623.000000 142769220.000000,86874489.000000 142769220.000000,87150635.000000" />
<path d="M135953831.000000,86650623.000000 C135953831.000000,86650623.000000 142269207.000000,86650623.000000 142269207.000000,86650623.000000" />
<path d="M228614088.000000,35351364.000000 C228614088.000000,35351364.000000 242401381.000000,32920289.000000 242401381.000000,32920289.000000" />
<path d="M111192702.000000,101665468.000000 C111192702.000000,101665468.000000 111192702.000000,97796088.000000 111192702.000000,97796088.000000" />
<path d="M118517643.000000,101665468.000000 C118517643.000000,101803531.000000 118405720.000000,101915475.000000 118267636.000000,101915475.000000" />
<path d="M231922068.000000,54111954.000000 C231922068.000000,54111954.000000 245709384.000000,51680879.000000 245709384.000000,51680879.000000" />
<path d="M223033033.000000,32781452.000000 C223033033.000000,32781452.000000 225464108.000000,46568767.000000 225464108.000000,46568767.000000" />
<path d="M248140458.000000,65468173.000000 C248140458.000000,65468173.000000 234353143.000000,67899248.000000 234353143.000000,67899248.000000" />
<path d="M184296315.000000,32503777.000000 C184296315.000000,32503777.000000 186727390.000000,46291092.000000 186727390.000000,46291092.000000" />
<path d="M118517643.000000,88935496.000000 C118517643.000000,88935496.000000 119975865.000000,88935496.000000 119975865.000000,88935496.000000" />
<path d="M193185350.000000,53834279.000000 C193185350.000000,53834279.000000 206972665.000000,51403205.000000 206972665.000000,51403205.000000" />
<path d="M209245718.000000,35212526.000000 C209245718.000000,35212526.000000 223033033.000000,32781452.000000 223033033.000000,32781452.000000" />
<path d="M142769220.000000,97796088.000000 C142769220.000000,97796088.000000 142769220.000000,101665468.000000 142769220.000000,101665468.000000" />
<path d="M143604570.000000,97796088.000000 C143604570.000000,97796088.000000 142769220.000000,97796088.000000 142769220.000000,97796088.000000" />
<path d="M194110789.000000,73727014.000000 C194110789.000000,73727014.000000 194110789.000000,87727000.000000 194110789.000000,87727000.000000" />
<path d="M209403740.000000,65190520.000000 C209403740.000000,65190520.000000 195616425.000000,67621595.000000 195616425.000000,67621595.000000" />
<path d="M226341014.000000,51542042.000000 C226341014.000000,51542042.000000 228772088.000000,65329357.000000 228772088.000000,65329357.000000" />
<path d="M234353143.000000,67899248.000000 C234353143.000000,67899248.000000 231922068.000000,54111954.000000 231922068.000000,54111954.000000" />
<path d="M244832456.000000,46707604.000000 C244832456.000000,46707604.000000 231045162.000000,49138679.000000 231045162.000000,49138679.000000" />
<path d="M245709384.000000,51680879.000000 C245709384.000000,51680879.000000 248140458.000000,65468173.000000 248140458.000000,65468173.000000" />
<path d="M153759570.000000,86934046.000000 C153759570.000000,86934046.000000 167282539.000000,83310581.000000 167282539.000000,83310581.000000" />
<path d="M157383035.000000,100457015.000000 C157383035.000000,100457015.000000 153759570.000000,86934046.000000 153759570.000000,86934046.000000" />
<path d="M111192702.000000,87150635.000000 C111192702.000000,86874489.000000 111416547.000000,86650623.000000 111692693.000000,86650623.000000" />
<path d="M118517643.000000,87150635.000000 C118517643.000000,87150635.000000 118517643.000000,88935496.000000 118517643.000000,88935496.000000" />
<path d="M118017652.000000,86650623.000000 C118293776.000000,86650623.000000 118517643.000000,86874489.000000 118517643.000000,87150635.000000" />
<path d="M111692693.000000,86650623.000000 C111692693.000000,86650623.000000 118017652.000000,86650623.000000 118017652.000000,86650623.000000" />
<path d="M231045162.000000,49138679.000000 C231045162.000000,49138679.000000 228614088.000000,35351364.000000 228614088.000000,35351364.000000" />
<path d="M170509000.000000,34934852.000000 C170509000.000000,34934852.000000 184296315.000000,32503777.000000 184296315.000000,32503777.000000" />
<path d="M212553720.000000,53973117.000000 C212553720.000000,53973117.000000 226341014.000000,51542042.000000 226341014.000000,51542042.000000" />
<path d="M142519214.000000,101915475.000000 C142519214.000000,101915475.000000 135703846.000000,101915475.000000 135703846.000000,101915475.000000" />
<path d="M142769220.000000,101665468.000000 C142769220.000000,101803531.000000 142657276.000000,101915475.000000 142519214.000000,101915475.000000" />
<path d="M133975851.000000,100206363.000000 C133975851.000000,100206363.000000 133975851.000000,102187379.000000 133975851.000000,102187379.000000" />
<path d="M135453840.000000,100206363.000000 C135453840.000000,100206363.000000 133975851.000000,100206363.000000 133975851.000000,100206363.000000" />
<path d="M176248077.000000,67482757.000000 C176248077.000000,67482757.000000 173817002.000000,53695442.000000 173817002.000000,53695442.000000" />
<path d="M195616425.000000,67621595.000000 C195616425.000000,67621595.000000 193185350.000000,53834279.000000 193185350.000000,53834279.000000" />
<path d="M111442687.000000,101915475.000000 C111304625.000000,101915475.000000 111192702.000000,101803531.000000 111192702.000000,101665468.000000" />
<path d="M118267636.000000,101915475.000000 C118267636.000000,101915475.000000 111442687.000000,101915475.000000 111442687.000000,101915475.000000" />
<path d="M228772088.000000,65329357.000000 C228772088.000000,65329357.000000 214984795.000000,67760432.000000 214984795.000000,67760432.000000" />
<path d="M180110782.000000,87727000.000000 C180110782.000000,87727000.000000 180110782.000000,73727014.000000 180110782.000000,73727014.000000" />
<path d="M206972665.000000,51403205.000000 C206972665.000000,51403205.000000 209403740.000000,65190520.000000 209403740.000000,65190520.000000" />
<path d="M214984795.000000,67760432.000000 C214984795.000000,67760432.000000 212553720.000000,53973117.000000 212553720.000000,53973117.000000" />
<path d="M190035392.000000,65051683.000000 C190035392.000000,65051683.000000 176248077.000000,67482757.000000 176248077.000000,67482757.000000" />
<path d="M180110782.000000,73727014.000000 C180110782.000000,73727014.000000 194110789.000000,73727014.000000 194110789.000000,73727014.000000" />
<g >
</g>
<g >
</g>
<g >
</g>
<g >
</g>
<g >
</g>
<g >
</g>
<g >
</g>
<g >
</g>
<g >
</g>
<g >
</g>
<g >
</g>
<g >
</g>
<g >
</g>
<g >
</g>
<g >
</g>
<g >
</g>
<g >
</g>
<g >
</g>
<g >
</g>
<g >
</g>
<g >
</g>
<g >
</g>
<g >
</g>
<g >
</g>
<g >
</g>
<g >
</g>
<g >
</g>
<g >
</g>
<g >
</g>
<g >
</g>
<g >
</g>
<g >
</g>
<g >
</g>
<g >
</g>
<g >
</g>
<g >
</g>
<g >
</g>
<g >
</g>
<g >
</g>
<g >
</g>
<g >
</g>
<g >
</g>
<g >
</g>
<g >
</g>
<g >
</g>
<g >
</g>
<g >
</g>
</g> 
</svg>
