<?xml version="1.0" encoding="UTF-8" standalone="no"?>
<svg
   version="1.1"
   width="25.392380cm"
   height="10.739120cm"
   viewBox="0 0 253923800 107391200"
   id="svg1741"
   sodipodi:docname="pcb-top-plate-Edge_Cuts.cleaned.svg"
   inkscape:version="1.1.2 (0a00cf5339, 2022-02-04)"
   xmlns:inkscape="http://www.inkscape.org/namespaces/inkscape"
   xmlns:sodipodi="http://sodipodi.sourceforge.net/DTD/sodipodi-0.dtd"
   xmlns="http://www.w3.org/2000/svg"
   xmlns:svg="http://www.w3.org/2000/svg"
   xmlns:rdf="http://www.w3.org/1999/02/22-rdf-syntax-ns#"
   xmlns:cc="http://creativecommons.org/ns#"
   xmlns:dc="http://purl.org/dc/elements/1.1/">
  <defs
     id="defs1745" />
  <sodipodi:namedview
     id="namedview1743"
     pagecolor="#ffffff"
     bordercolor="#666666"
     borderopacity="1.0"
     inkscape:pageshadow="2"
     inkscape:pageopacity="0.0"
     inkscape:pagecheckerboard="0"
     inkscape:document-units="cm"
     showgrid="false"
     inkscape:zoom="1.4400154"
     inkscape:cx="276.38594"
     inkscape:cy="219.09489"
     inkscape:window-width="2554"
     inkscape:window-height="1416"
     inkscape:window-x="1920"
     inkscape:window-y="0"
     inkscape:window-maximized="1"
     inkscape:current-layer="g1739" />
  <title
     id="title1149">SVG Picture created as pcb-top-plate-Edge_Cuts.svg date 2022/05/02 19:38:03 </title>
  <desc
     id="desc1151">Picture generated by PCBNEW </desc>
  <g
     style="fill:#000000; fill-opacity:1.000000;stroke:#000000; stroke-opacity:1.000000; stroke-linecap:round; stroke-linejoin:round;"
     transform="translate(0 0) scale(1 1)"
     id="g1153" />
  <g
     style="fill:#000000; fill-opacity:0.0;  stroke:#000000; stroke-width:0.000000; stroke-opacity:1;  stroke-linecap:round; stroke-linejoin:round;"
     id="g1155" />
  <g
     style="fill:#000000; fill-opacity:0.0;  stroke:#000000; stroke-width:100000.000000; stroke-opacity:1;  stroke-linecap:round; stroke-linejoin:round;"
     id="g1739">
    <path
       d="M135453840.000000,101665468.000000 C135453840.000000,101665468.000000 135453840.000000,100206363.000000 135453840.000000,100206363.000000"
       id="path1157" />
    <path
       d="M135703846.000000,101915475.000000 C135565762.000000,101915475.000000 135453840.000000,101803531.000000 135453840.000000,101665468.000000"
       id="path1159" />
    <path
       d="M153729748.000000,78561323.000000 C153729748.000000,78561323.000000 139942433.000000,80992376.000000 139942433.000000,80992376.000000"
       id="path1161" />
    <path
       d="M151298674.000000,64774008.000000 C151298674.000000,64774008.000000 153729748.000000,78561323.000000 153729748.000000,78561323.000000"
       id="path1163" />
    <path
       d="M187604317.000000,51264367.000000 C187604317.000000,51264367.000000 190035392.000000,65051683.000000 190035392.000000,65051683.000000"
       id="path1165" />
    <path
       d="M119975865.000000,102187379.000000 C119975865.000000,102187379.000000 119975865.000000,100206363.000000 119975865.000000,100206363.000000"
       id="path1167" />
    <path
       d="M133975851.000000,102187379.000000 C133975851.000000,102187379.000000 119975865.000000,102187379.000000 119975865.000000,102187379.000000"
       id="path1169" />
    <path
       d="M173817002.000000,53695442.000000 C173817002.000000,53695442.000000 187604317.000000,51264367.000000 187604317.000000,51264367.000000"
       id="path1171" />
    <path
       d="M194110789.000000,87727000.000000 C194110789.000000,87727000.000000 180110782.000000,87727000.000000 180110782.000000,87727000.000000"
       id="path1173" />
    <path
       d="M170906004.000000,96833550.000000 C170906004.000000,96833550.000000 157383035.000000,100457015.000000 157383035.000000,100457015.000000"
       id="path1175" />
    <path
       d="M167282539.000000,83310581.000000 C167282539.000000,83310581.000000 170906004.000000,96833550.000000 170906004.000000,96833550.000000"
       id="path1177" />
    <path
       d="M111192702.000000,92906012.000000 C111192702.000000,92906012.000000 111192702.000000,87150635.000000 111192702.000000,87150635.000000"
       id="path1179" />
    <path
       d="M110357331.000000,92906012.000000 C110357331.000000,92906012.000000 111192702.000000,92906012.000000 111192702.000000,92906012.000000"
       id="path1181" />
    <path
       d="M110357331.000000,97796088.000000 C110357331.000000,97796088.000000 110357331.000000,92906012.000000 110357331.000000,92906012.000000"
       id="path1183" />
    <path
       d="M111192702.000000,97796088.000000 C111192702.000000,97796088.000000 110357331.000000,97796088.000000 110357331.000000,97796088.000000"
       id="path1185" />
    <path
       d="M171882559.000000,71806503.000000 C171882559.000000,71806503.000000 158095244.000000,74237578.000000 158095244.000000,74237578.000000"
       id="path1187" />
    <path
       d="M169451485.000000,58019188.000000 C169451485.000000,58019188.000000 171882559.000000,71806503.000000 171882559.000000,71806503.000000"
       id="path1189" />
    <path
       d="M225306086.000000,16590773.000000 C225306086.000000,16590773.000000 239093401.000000,14159699.000000 239093401.000000,14159699.000000"
       id="path1287" />
    <path
       d="M227737160.000000,30378088.000000 C227737160.000000,30378088.000000 225306086.000000,16590773.000000 225306086.000000,16590773.000000"
       id="path1289" />
    <path
       d="M241524475.000000,27947014.000000 C241524475.000000,27947014.000000 227737160.000000,30378088.000000 227737160.000000,30378088.000000"
       id="path1291" />
    <path
       d="M239093401.000000,14159699.000000 C239093401.000000,14159699.000000 241524475.000000,27947014.000000 241524475.000000,27947014.000000"
       id="path1293" />
    <path
       d="M205937737.000000,16451936.000000 C205937737.000000,16451936.000000 219725031.000000,14020861.000000 219725031.000000,14020861.000000"
       id="path1295" />
    <path
       d="M208368812.000000,30239251.000000 C208368812.000000,30239251.000000 205937737.000000,16451936.000000 205937737.000000,16451936.000000"
       id="path1297" />
    <path
       d="M222156106.000000,27808176.000000 C222156106.000000,27808176.000000 208368812.000000,30239251.000000 208368812.000000,30239251.000000"
       id="path1299" />
    <path
       d="M219725031.000000,14020861.000000 C219725031.000000,14020861.000000 222156106.000000,27808176.000000 222156106.000000,27808176.000000"
       id="path1301" />
    <path
       d="M203664685.000000,32642614.000000 C203664685.000000,32642614.000000 206095759.000000,46429930.000000 206095759.000000,46429930.000000"
       id="path1303" />
    <path
       d="M189877370.000000,35073689.000000 C189877370.000000,35073689.000000 203664685.000000,32642614.000000 203664685.000000,32642614.000000"
       id="path1305" />
    <path
       d="M192308444.000000,48861004.000000 C192308444.000000,48861004.000000 189877370.000000,35073689.000000 189877370.000000,35073689.000000"
       id="path1307" />
    <path
       d="M206095759.000000,46429930.000000 C206095759.000000,46429930.000000 192308444.000000,48861004.000000 192308444.000000,48861004.000000"
       id="path1309" />
    <path
       d="M186569367.000000,16313099.000000 C186569367.000000,16313099.000000 200356682.000000,13882024.000000 200356682.000000,13882024.000000"
       id="path1311" />
    <path
       d="M189000442.000000,30100414.000000 C189000442.000000,30100414.000000 186569367.000000,16313099.000000 186569367.000000,16313099.000000"
       id="path1313" />
    <path
       d="M202787757.000000,27669339.000000 C202787757.000000,27669339.000000 189000442.000000,30100414.000000 189000442.000000,30100414.000000"
       id="path1315" />
    <path
       d="M200356682.000000,13882024.000000 C200356682.000000,13882024.000000 202787757.000000,27669339.000000 202787757.000000,27669339.000000"
       id="path1317" />
    <path
       d="M167201019.000000,16174261.000000 C167201019.000000,16174261.000000 180988334.000000,13743187.000000 180988334.000000,13743187.000000"
       id="path1319" />
    <path
       d="M169632094.000000,29961576.000000 C169632094.000000,29961576.000000 167201019.000000,16174261.000000 167201019.000000,16174261.000000"
       id="path1321" />
    <path
       d="M183419409.000000,27530502.000000 C183419409.000000,27530502.000000 169632094.000000,29961576.000000 169632094.000000,29961576.000000"
       id="path1323" />
    <path
       d="M180988334.000000,13743187.000000 C180988334.000000,13743187.000000 183419409.000000,27530502.000000 183419409.000000,27530502.000000"
       id="path1325" />
    <path
       d="M166143504.000000,39258597.000000 C166143504.000000,39258597.000000 168574579.000000,53045912.000000 168574579.000000,53045912.000000"
       id="path1327" />
    <path
       d="M152356189.000000,41689672.000000 C152356189.000000,41689672.000000 166143504.000000,39258597.000000 166143504.000000,39258597.000000"
       id="path1329" />
    <path
       d="M154787263.000000,55476987.000000 C154787263.000000,55476987.000000 152356189.000000,41689672.000000 152356189.000000,41689672.000000"
       id="path1331" />
    <path
       d="M168574579.000000,53045912.000000 C168574579.000000,53045912.000000 154787263.000000,55476987.000000 154787263.000000,55476987.000000"
       id="path1333" />
    <path
       d="M149048186.000000,22929082.000000 C149048186.000000,22929082.000000 162835502.000000,20498007.000000 162835502.000000,20498007.000000"
       id="path1335" />
    <path
       d="M151479261.000000,36716397.000000 C151479261.000000,36716397.000000 149048186.000000,22929082.000000 149048186.000000,22929082.000000"
       id="path1337" />
    <path
       d="M165266576.000000,34285322.000000 C165266576.000000,34285322.000000 151479261.000000,36716397.000000 151479261.000000,36716397.000000"
       id="path1339" />
    <path
       d="M162835502.000000,20498007.000000 C162835502.000000,20498007.000000 165266576.000000,34285322.000000 165266576.000000,34285322.000000"
       id="path1341" />
    <path
       d="M147990671.000000,46013418.000000 C147990671.000000,46013418.000000 150421746.000000,59800733.000000 150421746.000000,59800733.000000"
       id="path1343" />
    <path
       d="M134203378.000000,48444492.000000 C134203378.000000,48444492.000000 147990671.000000,46013418.000000 147990671.000000,46013418.000000"
       id="path1345" />
    <path
       d="M136634431.000000,62231807.000000 C136634431.000000,62231807.000000 134203378.000000,48444492.000000 134203378.000000,48444492.000000"
       id="path1347" />
    <path
       d="M150421746.000000,59800733.000000 C150421746.000000,59800733.000000 136634431.000000,62231807.000000 136634431.000000,62231807.000000"
       id="path1349" />
    <path
       d="M130895375.000000,29683902.000000 C130895375.000000,29683902.000000 144682691.000000,27252827.000000 144682691.000000,27252827.000000"
       id="path1351" />
    <path
       d="M133326450.000000,43471217.000000 C133326450.000000,43471217.000000 130895375.000000,29683902.000000 130895375.000000,29683902.000000"
       id="path1353" />
    <path
       d="M147113765.000000,41040142.000000 C147113765.000000,41040142.000000 133326450.000000,43471217.000000 133326450.000000,43471217.000000"
       id="path1355" />
    <path
       d="M144682691.000000,27252827.000000 C144682691.000000,27252827.000000 147113765.000000,41040142.000000 147113765.000000,41040142.000000"
       id="path1357" />
    <path
       d="M106824450.000000,41039087.000000 C106824450.000000,41039087.000000 109255525.000000,27251794.000000 109255525.000000,27251794.000000"
       id="path1359" />
    <path
       d="M120611765.000000,43470162.000000 C120611765.000000,43470162.000000 106824450.000000,41039087.000000 106824450.000000,41039087.000000"
       id="path1361" />
    <path
       d="M123042836.000000,29682868.000000 C123042836.000000,29682868.000000 120611765.000000,43470162.000000 120611765.000000,43470162.000000"
       id="path1363" />
    <path
       d="M109255525.000000,27251794.000000 C109255525.000000,27251794.000000 123042836.000000,29682868.000000 123042836.000000,29682868.000000"
       id="path1365" />
    <path
       d="M105947544.000000,46012384.000000 C105947544.000000,46012384.000000 119734859.000000,48443459.000000 119734859.000000,48443459.000000"
       id="path1367" />
    <path
       d="M103516470.000000,59799678.000000 C103516470.000000,59799678.000000 105947544.000000,46012384.000000 105947544.000000,46012384.000000"
       id="path1369" />
    <path
       d="M117303785.000000,62230752.000000 C117303785.000000,62230752.000000 103516470.000000,59799678.000000 103516470.000000,59799678.000000"
       id="path1371" />
    <path
       d="M119734859.000000,48443459.000000 C119734859.000000,48443459.000000 117303785.000000,62230752.000000 117303785.000000,62230752.000000"
       id="path1373" />
    <path
       d="M88671639.000000,34284288.000000 C88671639.000000,34284288.000000 91102714.000000,20496973.000000 91102714.000000,20496973.000000"
       id="path1375" />
    <path
       d="M102458954.000000,36715363.000000 C102458954.000000,36715363.000000 88671639.000000,34284288.000000 88671639.000000,34284288.000000"
       id="path1377" />
    <path
       d="M104890029.000000,22928048.000000 C104890029.000000,22928048.000000 102458954.000000,36715363.000000 102458954.000000,36715363.000000"
       id="path1379" />
    <path
       d="M91102714.000000,20496973.000000 C91102714.000000,20496973.000000 104890029.000000,22928048.000000 104890029.000000,22928048.000000"
       id="path1381" />
    <path
       d="M87794733.000000,39257564.000000 C87794733.000000,39257564.000000 101582027.000000,41688638.000000 101582027.000000,41688638.000000"
       id="path1383" />
    <path
       d="M85363658.000000,53044857.000000 C85363658.000000,53044857.000000 87794733.000000,39257564.000000 87794733.000000,39257564.000000"
       id="path1385" />
    <path
       d="M99150952.000000,55475932.000000 C99150952.000000,55475932.000000 85363658.000000,53044857.000000 85363658.000000,53044857.000000"
       id="path1387" />
    <path
       d="M101582027.000000,41688638.000000 C101582027.000000,41688638.000000 99150952.000000,55475932.000000 99150952.000000,55475932.000000"
       id="path1389" />
    <path
       d="M70518828.000000,27529468.000000 C70518828.000000,27529468.000000 72949903.000000,13742153.000000 72949903.000000,13742153.000000"
       id="path1391" />
    <path
       d="M84306122.000000,29960543.000000 C84306122.000000,29960543.000000 70518828.000000,27529468.000000 70518828.000000,27529468.000000"
       id="path1393" />
    <path
       d="M86737197.000000,16173228.000000 C86737197.000000,16173228.000000 84306122.000000,29960543.000000 84306122.000000,29960543.000000"
       id="path1395" />
    <path
       d="M72949903.000000,13742153.000000 C72949903.000000,13742153.000000 86737197.000000,16173228.000000 86737197.000000,16173228.000000"
       id="path1397" />
    <path
       d="M51150458.000000,27668306.000000 C51150458.000000,27668306.000000 53581533.000000,13880990.000000 53581533.000000,13880990.000000"
       id="path1399" />
    <path
       d="M64937773.000000,30099380.000000 C64937773.000000,30099380.000000 51150458.000000,27668306.000000 51150458.000000,27668306.000000"
       id="path1401" />
    <path
       d="M67368848.000000,16312065.000000 C67368848.000000,16312065.000000 64937773.000000,30099380.000000 64937773.000000,30099380.000000"
       id="path1403" />
    <path
       d="M53581533.000000,13880990.000000 C53581533.000000,13880990.000000 67368848.000000,16312065.000000 67368848.000000,16312065.000000"
       id="path1405" />
    <path
       d="M50273552.000000,32641581.000000 C50273552.000000,32641581.000000 64060846.000000,35072656.000000 64060846.000000,35072656.000000"
       id="path1407" />
    <path
       d="M47842478.000000,46428874.000000 C47842478.000000,46428874.000000 50273552.000000,32641581.000000 50273552.000000,32641581.000000"
       id="path1409" />
    <path
       d="M61629771.000000,48859949.000000 C61629771.000000,48859949.000000 47842478.000000,46428874.000000 47842478.000000,46428874.000000"
       id="path1411" />
    <path
       d="M64060846.000000,35072656.000000 C64060846.000000,35072656.000000 61629771.000000,48859949.000000 61629771.000000,48859949.000000"
       id="path1413" />
    <path
       d="M31782110.000000,27807121.000000 C31782110.000000,27807121.000000 34213185.000000,14019828.000000 34213185.000000,14019828.000000"
       id="path1415" />
    <path
       d="M45569404.000000,30238196.000000 C45569404.000000,30238196.000000 31782110.000000,27807121.000000 31782110.000000,27807121.000000"
       id="path1417" />
    <path
       d="M48000478.000000,16450902.000000 C48000478.000000,16450902.000000 45569404.000000,30238196.000000 45569404.000000,30238196.000000"
       id="path1419" />
    <path
       d="M34213185.000000,14019828.000000 C34213185.000000,14019828.000000 48000478.000000,16450902.000000 48000478.000000,16450902.000000"
       id="path1421" />
    <path
       d="M12413740.000000,27945959.000000 C12413740.000000,27945959.000000 14844815.000000,14158665.000000 14844815.000000,14158665.000000"
       id="path1423" />
    <path
       d="M26201055.000000,30377033.000000 C26201055.000000,30377033.000000 12413740.000000,27945959.000000 12413740.000000,27945959.000000"
       id="path1425" />
    <path
       d="M28632130.000000,16589740.000000 C28632130.000000,16589740.000000 26201055.000000,30377033.000000 26201055.000000,30377033.000000"
       id="path1427" />
    <path
       d="M14844815.000000,14158665.000000 C14844815.000000,14158665.000000 28632130.000000,16589740.000000 28632130.000000,16589740.000000"
       id="path1429" />
    <path
       d="M22016147.000000,54110921.000000 C22016147.000000,54110921.000000 19585072.000000,67898214.000000 19585072.000000,67898214.000000"
       id="path1431" />
    <path
       d="M8228832.000000,51679846.000000 C8228832.000000,51679846.000000 22016147.000000,54110921.000000 22016147.000000,54110921.000000"
       id="path1433" />
    <path
       d="M5797757.000000,65467140.000000 C5797757.000000,65467140.000000 8228832.000000,51679846.000000 8228832.000000,51679846.000000"
       id="path1435" />
    <path
       d="M19585072.000000,67898214.000000 C19585072.000000,67898214.000000 5797757.000000,65467140.000000 5797757.000000,65467140.000000"
       id="path1437" />
    <path
       d="M22893075.000000,49137624.000000 C22893075.000000,49137624.000000 9105759.000000,46706549.000000 9105759.000000,46706549.000000"
       id="path1439" />
    <path
       d="M25324149.000000,35350330.000000 C25324149.000000,35350330.000000 22893075.000000,49137624.000000 22893075.000000,49137624.000000"
       id="path1441" />
    <path
       d="M11536834.000000,32919256.000000 C11536834.000000,32919256.000000 25324149.000000,35350330.000000 25324149.000000,35350330.000000"
       id="path1443" />
    <path
       d="M9105759.000000,46706549.000000 C9105759.000000,46706549.000000 11536834.000000,32919256.000000 11536834.000000,32919256.000000"
       id="path1445" />
    <path
       d="M41384495.000000,53972083.000000 C41384495.000000,53972083.000000 38953421.000000,67759377.000000 38953421.000000,67759377.000000"
       id="path1447" />
    <path
       d="M27597202.000000,51541009.000000 C27597202.000000,51541009.000000 41384495.000000,53972083.000000 41384495.000000,53972083.000000"
       id="path1449" />
    <path
       d="M25166127.000000,65328302.000000 C25166127.000000,65328302.000000 27597202.000000,51541009.000000 27597202.000000,51541009.000000"
       id="path1451" />
    <path
       d="M38953421.000000,67759377.000000 C38953421.000000,67759377.000000 25166127.000000,65328302.000000 25166127.000000,65328302.000000"
       id="path1453" />
    <path
       d="M42261423.000000,48998787.000000 C42261423.000000,48998787.000000 28474108.000000,46567712.000000 28474108.000000,46567712.000000"
       id="path1455" />
    <path
       d="M44692498.000000,35211493.000000 C44692498.000000,35211493.000000 42261423.000000,48998787.000000 42261423.000000,48998787.000000"
       id="path1457" />
    <path
       d="M30905182.000000,32780418.000000 C30905182.000000,32780418.000000 44692498.000000,35211493.000000 44692498.000000,35211493.000000"
       id="path1459" />
    <path
       d="M28474108.000000,46567712.000000 C28474108.000000,46567712.000000 30905182.000000,32780418.000000 30905182.000000,32780418.000000"
       id="path1461" />
    <path
       d="M58321791.000000,67620540.000000 C58321791.000000,67620540.000000 44534475.000000,65189465.000000 44534475.000000,65189465.000000"
       id="path1463" />
    <path
       d="M137511358.000000,67205083.000000 C137511358.000000,67205083.000000 151298674.000000,64774008.000000 151298674.000000,64774008.000000"
       id="path1465" />
    <path
       d="M139942433.000000,80992376.000000 C139942433.000000,80992376.000000 137511358.000000,67205083.000000 137511358.000000,67205083.000000"
       id="path1467" />
    <path
       d="M133975851.000000,88187394.000000 C133975851.000000,88187394.000000 133975851.000000,88935496.000000 133975851.000000,88935496.000000"
       id="path1469" />
    <path
       d="M119975865.000000,88187394.000000 C119975865.000000,88187394.000000 133975851.000000,88187394.000000 133975851.000000,88187394.000000"
       id="path1471" />
    <path
       d="M119975865.000000,88935496.000000 C119975865.000000,88935496.000000 119975865.000000,88187394.000000 119975865.000000,88187394.000000"
       id="path1473" />
    <path
       d="M135453840.000000,87150635.000000 C135453840.000000,86874489.000000 135677706.000000,86650623.000000 135953831.000000,86650623.000000"
       id="path1475" />
    <path
       d="M135453840.000000,88935496.000000 C135453840.000000,88935496.000000 135453840.000000,87150635.000000 135453840.000000,87150635.000000"
       id="path1477" />
    <path
       d="M133975851.000000,88935496.000000 C133975851.000000,88935496.000000 135453840.000000,88935496.000000 135453840.000000,88935496.000000"
       id="path1479" />
    <path
       d="M211676793.000000,48999842.000000 C211676793.000000,48999842.000000 209245718.000000,35212526.000000 209245718.000000,35212526.000000"
       id="path1481" />
    <path
       d="M225464108.000000,46568767.000000 C225464108.000000,46568767.000000 211676793.000000,48999842.000000 211676793.000000,48999842.000000"
       id="path1483" />
    <path
       d="M118517643.000000,100206363.000000 C118517643.000000,100206363.000000 118517643.000000,101665468.000000 118517643.000000,101665468.000000"
       id="path1485" />
    <path
       d="M119975865.000000,100206363.000000 C119975865.000000,100206363.000000 118517643.000000,100206363.000000 118517643.000000,100206363.000000"
       id="path1487" />
    <path
       d="M155664169.000000,60450262.000000 C155664169.000000,60450262.000000 169451485.000000,58019188.000000 169451485.000000,58019188.000000"
       id="path1489" />
    <path
       d="M158095244.000000,74237578.000000 C158095244.000000,74237578.000000 155664169.000000,60450262.000000 155664169.000000,60450262.000000"
       id="path1491" />
    <path
       d="M60752865.000000,53833246.000000 C60752865.000000,53833246.000000 58321791.000000,67620540.000000 58321791.000000,67620540.000000"
       id="path1493" />
    <path
       d="M46965550.000000,51402171.000000 C46965550.000000,51402171.000000 60752865.000000,53833246.000000 60752865.000000,53833246.000000"
       id="path1495" />
    <path
       d="M44534475.000000,65189465.000000 C44534475.000000,65189465.000000 46965550.000000,51402171.000000 46965550.000000,51402171.000000"
       id="path1497" />
    <path
       d="M73828790.000000,73727014.000000 C73828790.000000,73727014.000000 73828790.000000,87727000.000000 73828790.000000,87727000.000000"
       id="path1499" />
    <path
       d="M59828783.000000,73727014.000000 C59828783.000000,73727014.000000 73828790.000000,73727014.000000 73828790.000000,73727014.000000"
       id="path1501" />
    <path
       d="M59828783.000000,87727000.000000 C59828783.000000,87727000.000000 59828783.000000,73727014.000000 59828783.000000,73727014.000000"
       id="path1503" />
    <path
       d="M73828790.000000,87727000.000000 C73828790.000000,87727000.000000 59828783.000000,87727000.000000 59828783.000000,87727000.000000"
       id="path1505" />
    <path
       d="M80121214.000000,53694409.000000 C80121214.000000,53694409.000000 77690139.000000,67481702.000000 77690139.000000,67481702.000000"
       id="path1507" />
    <path
       d="M172940074.000000,48722167.000000 C172940074.000000,48722167.000000 170509000.000000,34934852.000000 170509000.000000,34934852.000000"
       id="path1509" />
    <path
       d="M186727390.000000,46291092.000000 C186727390.000000,46291092.000000 172940074.000000,48722167.000000 172940074.000000,48722167.000000"
       id="path1511" />
    <path
       d="M80998141.000000,48721133.000000 C80998141.000000,48721133.000000 67210826.000000,46290059.000000 67210826.000000,46290059.000000"
       id="path1513" />
    <path
       d="M83429216.000000,34933818.000000 C83429216.000000,34933818.000000 80998141.000000,48721133.000000 80998141.000000,48721133.000000"
       id="path1515" />
    <path
       d="M69641901.000000,32502743.000000 C69641901.000000,32502743.000000 83429216.000000,34933818.000000 83429216.000000,34933818.000000"
       id="path1517" />
    <path
       d="M67210826.000000,46290059.000000 C67210826.000000,46290059.000000 69641901.000000,32502743.000000 69641901.000000,32502743.000000"
       id="path1519" />
    <path
       d="M82055656.000000,71805448.000000 C82055656.000000,71805448.000000 84486731.000000,58018154.000000 84486731.000000,58018154.000000"
       id="path1521" />
    <path
       d="M95842971.000000,74236523.000000 C95842971.000000,74236523.000000 82055656.000000,71805448.000000 82055656.000000,71805448.000000"
       id="path1523" />
    <path
       d="M98274046.000000,60449229.000000 C98274046.000000,60449229.000000 95842971.000000,74236523.000000 95842971.000000,74236523.000000"
       id="path1525" />
    <path
       d="M84486731.000000,58018154.000000 C84486731.000000,58018154.000000 98274046.000000,60449229.000000 98274046.000000,60449229.000000"
       id="path1527" />
    <path
       d="M100180239.000000,86935317.000000 C100180239.000000,86935317.000000 96556774.000000,100458285.000000 96556774.000000,100458285.000000"
       id="path1529" />
    <path
       d="M86657270.000000,83311851.000000 C86657270.000000,83311851.000000 100180239.000000,86935317.000000 100180239.000000,86935317.000000"
       id="path1531" />
    <path
       d="M83033805.000000,96834820.000000 C83033805.000000,96834820.000000 86657270.000000,83311851.000000 86657270.000000,83311851.000000"
       id="path1533" />
    <path
       d="M96556774.000000,100458285.000000 C96556774.000000,100458285.000000 83033805.000000,96834820.000000 83033805.000000,96834820.000000"
       id="path1535" />
    <path
       d="M113995782.000000,80991343.000000 C113995782.000000,80991343.000000 100208489.000000,78560268.000000 100208489.000000,78560268.000000"
       id="path1537" />
    <path
       d="M116426857.000000,67204049.000000 C116426857.000000,67204049.000000 113995782.000000,80991343.000000 113995782.000000,80991343.000000"
       id="path1539" />
    <path
       d="M102639542.000000,64772974.000000 C102639542.000000,64772974.000000 116426857.000000,67204049.000000 116426857.000000,67204049.000000"
       id="path1541" />
    <path
       d="M100208489.000000,78560268.000000 C100208489.000000,78560268.000000 102639542.000000,64772974.000000 102639542.000000,64772974.000000"
       id="path1543" />
    <path
       d="M143604570.000000,92906012.000000 C143604570.000000,92906012.000000 143604570.000000,97796088.000000 143604570.000000,97796088.000000"
       id="path1545" />
    <path
       d="M142769220.000000,92906012.000000 C142769220.000000,92906012.000000 143604570.000000,92906012.000000 143604570.000000,92906012.000000"
       id="path1547" />
    <path
       d="M142769220.000000,87150635.000000 C142769220.000000,87150635.000000 142769220.000000,92906012.000000 142769220.000000,92906012.000000"
       id="path1549" />
    <path
       d="M242401381.000000,32920289.000000 C242401381.000000,32920289.000000 244832456.000000,46707604.000000 244832456.000000,46707604.000000"
       id="path1551" />
    <path
       d="M66333920.000000,51263334.000000 C66333920.000000,51263334.000000 80121214.000000,53694409.000000 80121214.000000,53694409.000000"
       id="path1553" />
    <path
       d="M63902845.000000,65050628.000000 C63902845.000000,65050628.000000 66333920.000000,51263334.000000 66333920.000000,51263334.000000"
       id="path1555" />
    <path
       d="M77690139.000000,67481702.000000 C77690139.000000,67481702.000000 63902845.000000,65050628.000000 63902845.000000,65050628.000000"
       id="path1557" />
    <path
       d="M142269207.000000,86650623.000000 C142545353.000000,86650623.000000 142769220.000000,86874489.000000 142769220.000000,87150635.000000"
       id="path1559" />
    <path
       d="M135953831.000000,86650623.000000 C135953831.000000,86650623.000000 142269207.000000,86650623.000000 142269207.000000,86650623.000000"
       id="path1561" />
    <path
       d="M228614088.000000,35351364.000000 C228614088.000000,35351364.000000 242401381.000000,32920289.000000 242401381.000000,32920289.000000"
       id="path1563" />
    <path
       d="M111192702.000000,101665468.000000 C111192702.000000,101665468.000000 111192702.000000,97796088.000000 111192702.000000,97796088.000000"
       id="path1565" />
    <path
       d="M118517643.000000,101665468.000000 C118517643.000000,101803531.000000 118405720.000000,101915475.000000 118267636.000000,101915475.000000"
       id="path1567" />
    <path
       d="M231922068.000000,54111954.000000 C231922068.000000,54111954.000000 245709384.000000,51680879.000000 245709384.000000,51680879.000000"
       id="path1569" />
    <path
       d="M223033033.000000,32781452.000000 C223033033.000000,32781452.000000 225464108.000000,46568767.000000 225464108.000000,46568767.000000"
       id="path1571" />
    <path
       d="M248140458.000000,65468173.000000 C248140458.000000,65468173.000000 234353143.000000,67899248.000000 234353143.000000,67899248.000000"
       id="path1573" />
    <path
       d="M184296315.000000,32503777.000000 C184296315.000000,32503777.000000 186727390.000000,46291092.000000 186727390.000000,46291092.000000"
       id="path1575" />
    <path
       d="M118517643.000000,88935496.000000 C118517643.000000,88935496.000000 119975865.000000,88935496.000000 119975865.000000,88935496.000000"
       id="path1577" />
    <path
       d="M193185350.000000,53834279.000000 C193185350.000000,53834279.000000 206972665.000000,51403205.000000 206972665.000000,51403205.000000"
       id="path1579" />
    <path
       d="M209245718.000000,35212526.000000 C209245718.000000,35212526.000000 223033033.000000,32781452.000000 223033033.000000,32781452.000000"
       id="path1581" />
    <path
       d="M142769220.000000,97796088.000000 C142769220.000000,97796088.000000 142769220.000000,101665468.000000 142769220.000000,101665468.000000"
       id="path1583" />
    <path
       d="M143604570.000000,97796088.000000 C143604570.000000,97796088.000000 142769220.000000,97796088.000000 142769220.000000,97796088.000000"
       id="path1585" />
    <path
       d="M194110789.000000,73727014.000000 C194110789.000000,73727014.000000 194110789.000000,87727000.000000 194110789.000000,87727000.000000"
       id="path1587" />
    <path
       d="M209403740.000000,65190520.000000 C209403740.000000,65190520.000000 195616425.000000,67621595.000000 195616425.000000,67621595.000000"
       id="path1589" />
    <path
       d="M226341014.000000,51542042.000000 C226341014.000000,51542042.000000 228772088.000000,65329357.000000 228772088.000000,65329357.000000"
       id="path1591" />
    <path
       d="M234353143.000000,67899248.000000 C234353143.000000,67899248.000000 231922068.000000,54111954.000000 231922068.000000,54111954.000000"
       id="path1593" />
    <path
       d="M244832456.000000,46707604.000000 C244832456.000000,46707604.000000 231045162.000000,49138679.000000 231045162.000000,49138679.000000"
       id="path1595" />
    <path
       d="M245709384.000000,51680879.000000 C245709384.000000,51680879.000000 248140458.000000,65468173.000000 248140458.000000,65468173.000000"
       id="path1597" />
    <path
       d="M153759570.000000,86934046.000000 C153759570.000000,86934046.000000 167282539.000000,83310581.000000 167282539.000000,83310581.000000"
       id="path1599" />
    <path
       d="M157383035.000000,100457015.000000 C157383035.000000,100457015.000000 153759570.000000,86934046.000000 153759570.000000,86934046.000000"
       id="path1601" />
    <path
       d="M111192702.000000,87150635.000000 C111192702.000000,86874489.000000 111416547.000000,86650623.000000 111692693.000000,86650623.000000"
       id="path1603" />
    <path
       d="M118517643.000000,87150635.000000 C118517643.000000,87150635.000000 118517643.000000,88935496.000000 118517643.000000,88935496.000000"
       id="path1605" />
    <path
       d="M118017652.000000,86650623.000000 C118293776.000000,86650623.000000 118517643.000000,86874489.000000 118517643.000000,87150635.000000"
       id="path1607" />
    <path
       d="M111692693.000000,86650623.000000 C111692693.000000,86650623.000000 118017652.000000,86650623.000000 118017652.000000,86650623.000000"
       id="path1609" />
    <path
       d="M231045162.000000,49138679.000000 C231045162.000000,49138679.000000 228614088.000000,35351364.000000 228614088.000000,35351364.000000"
       id="path1611" />
    <path
       d="M170509000.000000,34934852.000000 C170509000.000000,34934852.000000 184296315.000000,32503777.000000 184296315.000000,32503777.000000"
       id="path1613" />
    <path
       d="M212553720.000000,53973117.000000 C212553720.000000,53973117.000000 226341014.000000,51542042.000000 226341014.000000,51542042.000000"
       id="path1615" />
    <path
       d="M142519214.000000,101915475.000000 C142519214.000000,101915475.000000 135703846.000000,101915475.000000 135703846.000000,101915475.000000"
       id="path1617" />
    <path
       d="M142769220.000000,101665468.000000 C142769220.000000,101803531.000000 142657276.000000,101915475.000000 142519214.000000,101915475.000000"
       id="path1619" />
    <path
       d="M133975851.000000,100206363.000000 C133975851.000000,100206363.000000 133975851.000000,102187379.000000 133975851.000000,102187379.000000"
       id="path1621" />
    <path
       d="M135453840.000000,100206363.000000 C135453840.000000,100206363.000000 133975851.000000,100206363.000000 133975851.000000,100206363.000000"
       id="path1623" />
    <path
       d="M176248077.000000,67482757.000000 C176248077.000000,67482757.000000 173817002.000000,53695442.000000 173817002.000000,53695442.000000"
       id="path1625" />
    <path
       d="M195616425.000000,67621595.000000 C195616425.000000,67621595.000000 193185350.000000,53834279.000000 193185350.000000,53834279.000000"
       id="path1627" />
    <path
       d="M111442687.000000,101915475.000000 C111304625.000000,101915475.000000 111192702.000000,101803531.000000 111192702.000000,101665468.000000"
       id="path1629" />
    <path
       d="M118267636.000000,101915475.000000 C118267636.000000,101915475.000000 111442687.000000,101915475.000000 111442687.000000,101915475.000000"
       id="path1631" />
    <path
       d="M228772088.000000,65329357.000000 C228772088.000000,65329357.000000 214984795.000000,67760432.000000 214984795.000000,67760432.000000"
       id="path1633" />
    <path
       d="M180110782.000000,87727000.000000 C180110782.000000,87727000.000000 180110782.000000,73727014.000000 180110782.000000,73727014.000000"
       id="path1635" />
    <path
       d="M206972665.000000,51403205.000000 C206972665.000000,51403205.000000 209403740.000000,65190520.000000 209403740.000000,65190520.000000"
       id="path1637" />
    <path
       d="M214984795.000000,67760432.000000 C214984795.000000,67760432.000000 212553720.000000,53973117.000000 212553720.000000,53973117.000000"
       id="path1639" />
    <path
       d="M190035392.000000,65051683.000000 C190035392.000000,65051683.000000 176248077.000000,67482757.000000 176248077.000000,67482757.000000"
       id="path1641" />
    <path
       d="M180110782.000000,73727014.000000 C180110782.000000,73727014.000000 194110789.000000,73727014.000000 194110789.000000,73727014.000000"
       id="path1643" />
    <g
       id="g1645" />
    <g
       id="g1647" />
    <g
       id="g1649" />
    <g
       id="g1651" />
    <g
       id="g1653" />
    <g
       id="g1655" />
    <g
       id="g1657" />
    <g
       id="g1659" />
    <g
       id="g1661" />
    <g
       id="g1663" />
    <g
       id="g1665" />
    <g
       id="g1667" />
    <g
       id="g1669" />
    <g
       id="g1671" />
    <g
       id="g1673" />
    <g
       id="g1675" />
    <g
       id="g1677" />
    <g
       id="g1679" />
    <g
       id="g1681" />
    <g
       id="g1683" />
    <g
       id="g1685" />
    <g
       id="g1687" />
    <g
       id="g1689" />
    <g
       id="g1691" />
    <g
       id="g1693" />
    <g
       id="g1695" />
    <g
       id="g1697" />
    <g
       id="g1699" />
    <g
       id="g1701" />
    <g
       id="g1703" />
    <g
       id="g1705" />
    <g
       id="g1707" />
    <g
       id="g1709" />
    <g
       id="g1711" />
    <g
       id="g1713" />
    <g
       id="g1715" />
    <g
       id="g1717" />
    <g
       id="g1719" />
    <g
       id="g1721" />
    <g
       id="g1723" />
    <g
       id="g1725" />
    <g
       id="g1727" />
    <g
       id="g1729" />
    <g
       id="g1731" />
    <g
       id="g1733" />
    <g
       id="g1735" />
    <g
       id="g1737" />
  </g>
  <metadata
     id="metadata3903">
    <rdf:RDF>
      <cc:Work
         rdf:about="">
        <dc:title>SVG Picture created as pcb-top-plate-Edge_Cuts.svg date 2022/05/02 19:38:03 </dc:title>
      </cc:Work>
    </rdf:RDF>
  </metadata>
</svg>
