<?xml version="1.0"?>
<!DOCTYPE svg PUBLIC "-//W3C//DTD SVG 1.1//EN" "http://www.w3.org/Graphics/SVG/1.1/DTD/svg11.dtd">
<svg width="247.18955502mm" height="93.29208001999999mm" viewBox="0 0 247.18955502 93.29208001999999" xmlns="http://www.w3.org/2000/svg" version="1.1">
<g id="Sketch001" transform="translate(-3.374330,-11.318726) scale(1,-1)">
<path id="Sketch001_w0000"  d="M 135.45383999999999 -101.66546799999999 C 135.45383999999999 -101.66546799999999 135.45383999999999 -100.206363 135.45383999999999 -100.206363 C 135.45383999999999 -100.206363 133.975851 -100.206363 133.975851 -100.206363 C 133.975851 -100.206363 133.975851 -102.18737899999999 133.975851 -102.18737899999999 C 133.975851 -102.18737899999999 119.975865 -102.18737899999999 119.975865 -102.18737899999999 C 119.975865 -102.18737899999999 119.975865 -100.206363 119.975865 -100.206363 C 119.975865 -100.206363 118.51764299999999 -100.206363 118.51764299999999 -100.206363 C 118.51764299999999 -100.206363 118.51764299999999 -101.66546799999999 118.51764299999999 -101.66546799999999 C 118.51764299999999 -101.80353099999999 118.40571999999999 -101.915475 118.267636 -101.915475 C 118.267636 -101.915475 111.44268699999999 -101.915475 111.44268699999999 -101.915475 C 111.304625 -101.915475 111.192702 -101.80353099999999 111.192702 -101.66546799999999 C 111.192702 -101.66546799999999 111.192702 -97.796088 111.192702 -97.796088 C 111.192702 -97.796088 110.357331 -97.796088 110.357331 -97.796088 C 110.357331 -97.796088 110.357331 -92.90601199999999 110.357331 -92.90601199999999 C 110.357331 -92.90601199999999 111.192702 -92.90601199999999 111.192702 -92.90601199999999 C 111.192702 -92.90601199999999 111.192702 -87.150635 111.192702 -87.150635 C 111.192702 -86.874489 111.416547 -86.650623 111.69269299999999 -86.650623 C 111.69269299999999 -86.650623 118.017652 -86.650623 118.017652 -86.650623 C 118.293776 -86.650623 118.51764299999999 -86.874489 118.51764299999999 -87.150635 C 118.51764299999999 -87.150635 118.51764299999999 -88.935496 118.51764299999999 -88.935496 C 118.51764299999999 -88.935496 119.975865 -88.935496 119.975865 -88.935496 C 119.975865 -88.935496 119.975865 -88.187394 119.975865 -88.187394 C 119.975865 -88.187394 133.975851 -88.187394 133.975851 -88.187394 C 133.975851 -88.187394 133.975851 -88.935496 133.975851 -88.935496 C 133.975851 -88.935496 135.45383999999999 -88.935496 135.45383999999999 -88.935496 C 135.45383999999999 -88.935496 135.45383999999999 -87.150635 135.45383999999999 -87.150635 C 135.45383999999999 -86.874489 135.677706 -86.650623 135.95383099999998 -86.650623 C 135.95383099999998 -86.650623 142.269207 -86.650623 142.269207 -86.650623 C 142.545353 -86.650623 142.76922 -86.874489 142.76922 -87.150635 C 142.76922 -87.150635 142.76922 -92.90601199999999 142.76922 -92.90601199999999 C 142.76922 -92.90601199999999 143.60457 -92.90601199999999 143.60457 -92.90601199999999 C 143.60457 -92.90601199999999 143.60457 -97.796088 143.60457 -97.796088 C 143.60457 -97.796088 142.76922 -97.796088 142.76922 -97.796088 C 142.76922 -97.796088 142.76922 -101.66546799999999 142.76922 -101.66546799999999 C 142.76922 -101.80353099999999 142.657276 -101.915475 142.519214 -101.915475 C 142.519214 -101.915475 135.703846 -101.915475 135.703846 -101.915475 C 135.565762 -101.915475 135.45383999999999 -101.80353099999999 135.45383999999999 -101.66546799999999 " stroke="#191919" stroke-width="0.35 px" style="stroke-width:0.35;stroke-miterlimit:4;stroke-dasharray:none;fill:none;fill-opacity:1;fill-rule: evenodd"/>
<path id="Sketch001_w0001"  d="M 153.729748 -78.561323 C 153.729748 -78.561323 139.942433 -80.992376 139.942433 -80.992376 C 139.942433 -80.992376 137.511358 -67.205083 137.511358 -67.205083 C 137.511358 -67.205083 151.298674 -64.774008 151.298674 -64.774008 C 151.298674 -64.774008 153.729748 -78.561323 153.729748 -78.561323 " stroke="#191919" stroke-width="0.35 px" style="stroke-width:0.35;stroke-miterlimit:4;stroke-dasharray:none;fill:none;fill-opacity:1;fill-rule: evenodd"/>
<path id="Sketch001_w0002"  d="M 187.60431699999998 -51.264367 C 187.60431699999998 -51.264367 190.035392 -65.051683 190.035392 -65.051683 C 190.035392 -65.051683 176.248077 -67.48275699999999 176.248077 -67.48275699999999 C 176.248077 -67.48275699999999 173.817002 -53.695442 173.817002 -53.695442 C 173.817002 -53.695442 187.60431699999998 -51.264367 187.60431699999998 -51.264367 " stroke="#191919" stroke-width="0.35 px" style="stroke-width:0.35;stroke-miterlimit:4;stroke-dasharray:none;fill:none;fill-opacity:1;fill-rule: evenodd"/>
<path id="Sketch001_w0003"  d="M 194.11078899999998 -87.72699999999999 C 194.11078899999998 -87.72699999999999 180.110782 -87.72699999999999 180.110782 -87.72699999999999 C 180.110782 -87.72699999999999 180.110782 -73.727014 180.110782 -73.727014 C 180.110782 -73.727014 194.11078899999998 -73.727014 194.11078899999998 -73.727014 C 194.11078899999998 -73.727014 194.11078899999998 -87.72699999999999 194.11078899999998 -87.72699999999999 " stroke="#191919" stroke-width="0.35 px" style="stroke-width:0.35;stroke-miterlimit:4;stroke-dasharray:none;fill:none;fill-opacity:1;fill-rule: evenodd"/>
<path id="Sketch001_w0004"  d="M 170.906004 -96.83355 C 170.906004 -96.83355 157.383035 -100.457015 157.383035 -100.457015 C 157.383035 -100.457015 153.75957 -86.934046 153.75957 -86.934046 C 153.75957 -86.934046 167.28253899999999 -83.310581 167.28253899999999 -83.310581 C 167.28253899999999 -83.310581 170.906004 -96.83355 170.906004 -96.83355 " stroke="#191919" stroke-width="0.35 px" style="stroke-width:0.35;stroke-miterlimit:4;stroke-dasharray:none;fill:none;fill-opacity:1;fill-rule: evenodd"/>
<path id="Sketch001_w0005"  d="M 171.882559 -71.80650299999999 C 171.882559 -71.80650299999999 158.09524399999998 -74.237578 158.09524399999998 -74.237578 C 158.09524399999998 -74.237578 155.664169 -60.450261999999995 155.664169 -60.450261999999995 C 155.664169 -60.450261999999995 169.451485 -58.019188 169.451485 -58.019188 C 169.451485 -58.019188 171.882559 -71.80650299999999 171.882559 -71.80650299999999 " stroke="#191919" stroke-width="0.35 px" style="stroke-width:0.35;stroke-miterlimit:4;stroke-dasharray:none;fill:none;fill-opacity:1;fill-rule: evenodd"/>
<path id="Sketch001_w0006"  d="M 225.306086 -16.590773 C 225.306086 -16.590773 239.093401 -14.159699 239.093401 -14.159699 C 239.093401 -14.159699 241.524475 -27.947014 241.524475 -27.947014 C 241.524475 -27.947014 227.73716 -30.378087999999998 227.73716 -30.378087999999998 C 227.73716 -30.378087999999998 225.306086 -16.590773 225.306086 -16.590773 " stroke="#191919" stroke-width="0.35 px" style="stroke-width:0.35;stroke-miterlimit:4;stroke-dasharray:none;fill:none;fill-opacity:1;fill-rule: evenodd"/>
<path id="Sketch001_w0007"  d="M 205.937737 -16.451936 C 205.937737 -16.451936 219.725031 -14.020861 219.725031 -14.020861 C 219.725031 -14.020861 222.156106 -27.808176 222.156106 -27.808176 C 222.156106 -27.808176 208.368812 -30.239251 208.368812 -30.239251 C 208.368812 -30.239251 205.937737 -16.451936 205.937737 -16.451936 " stroke="#191919" stroke-width="0.35 px" style="stroke-width:0.35;stroke-miterlimit:4;stroke-dasharray:none;fill:none;fill-opacity:1;fill-rule: evenodd"/>
<path id="Sketch001_w0008"  d="M 203.664685 -32.642614 C 203.664685 -32.642614 206.095759 -46.42993 206.095759 -46.42993 C 206.095759 -46.42993 192.30844399999998 -48.861004 192.30844399999998 -48.861004 C 192.30844399999998 -48.861004 189.87736999999998 -35.073689 189.87736999999998 -35.073689 C 189.87736999999998 -35.073689 203.664685 -32.642614 203.664685 -32.642614 " stroke="#191919" stroke-width="0.35 px" style="stroke-width:0.35;stroke-miterlimit:4;stroke-dasharray:none;fill:none;fill-opacity:1;fill-rule: evenodd"/>
<path id="Sketch001_w0009"  d="M 186.569367 -16.313098999999998 C 186.569367 -16.313098999999998 200.35668199999998 -13.882024 200.35668199999998 -13.882024 C 200.35668199999998 -13.882024 202.787757 -27.669338999999997 202.787757 -27.669338999999997 C 202.787757 -27.669338999999997 189.000442 -30.100413999999997 189.000442 -30.100413999999997 C 189.000442 -30.100413999999997 186.569367 -16.313098999999998 186.569367 -16.313098999999998 " stroke="#191919" stroke-width="0.35 px" style="stroke-width:0.35;stroke-miterlimit:4;stroke-dasharray:none;fill:none;fill-opacity:1;fill-rule: evenodd"/>
<path id="Sketch001_w0010"  d="M 167.201019 -16.174260999999998 C 167.201019 -16.174260999999998 180.98833399999998 -13.743186999999999 180.98833399999998 -13.743186999999999 C 180.98833399999998 -13.743186999999999 183.419409 -27.530502 183.419409 -27.530502 C 183.419409 -27.530502 169.632094 -29.961575999999997 169.632094 -29.961575999999997 C 169.632094 -29.961575999999997 167.201019 -16.174260999999998 167.201019 -16.174260999999998 " stroke="#191919" stroke-width="0.35 px" style="stroke-width:0.35;stroke-miterlimit:4;stroke-dasharray:none;fill:none;fill-opacity:1;fill-rule: evenodd"/>
<path id="Sketch001_w0011"  d="M 166.14350399999998 -39.258597 C 166.14350399999998 -39.258597 168.574579 -53.045911999999994 168.574579 -53.045911999999994 C 168.574579 -53.045911999999994 154.787263 -55.476986999999994 154.787263 -55.476986999999994 C 154.787263 -55.476986999999994 152.356189 -41.689672 152.356189 -41.689672 C 152.356189 -41.689672 166.14350399999998 -39.258597 166.14350399999998 -39.258597 " stroke="#191919" stroke-width="0.35 px" style="stroke-width:0.35;stroke-miterlimit:4;stroke-dasharray:none;fill:none;fill-opacity:1;fill-rule: evenodd"/>
<path id="Sketch001_w0012"  d="M 149.048186 -22.929081999999998 C 149.048186 -22.929081999999998 162.835502 -20.498006999999998 162.835502 -20.498006999999998 C 162.835502 -20.498006999999998 165.266576 -34.285322 165.266576 -34.285322 C 165.266576 -34.285322 151.47926099999998 -36.716397 151.47926099999998 -36.716397 C 151.47926099999998 -36.716397 149.048186 -22.929081999999998 149.048186 -22.929081999999998 " stroke="#191919" stroke-width="0.35 px" style="stroke-width:0.35;stroke-miterlimit:4;stroke-dasharray:none;fill:none;fill-opacity:1;fill-rule: evenodd"/>
<path id="Sketch001_w0013"  d="M 147.990671 -46.013417999999994 C 147.990671 -46.013417999999994 150.42174599999998 -59.800732999999994 150.42174599999998 -59.800732999999994 C 150.42174599999998 -59.800732999999994 136.634431 -62.231806999999996 136.634431 -62.231806999999996 C 136.634431 -62.231806999999996 134.203378 -48.444492 134.203378 -48.444492 C 134.203378 -48.444492 147.990671 -46.013417999999994 147.990671 -46.013417999999994 " stroke="#191919" stroke-width="0.35 px" style="stroke-width:0.35;stroke-miterlimit:4;stroke-dasharray:none;fill:none;fill-opacity:1;fill-rule: evenodd"/>
<path id="Sketch001_w0014"  d="M 130.895375 -29.683902 C 130.895375 -29.683902 144.682691 -27.252827 144.682691 -27.252827 C 144.682691 -27.252827 147.113765 -41.040141999999996 147.113765 -41.040141999999996 C 147.113765 -41.040141999999996 133.32645 -43.471216999999996 133.32645 -43.471216999999996 C 133.32645 -43.471216999999996 130.895375 -29.683902 130.895375 -29.683902 " stroke="#191919" stroke-width="0.35 px" style="stroke-width:0.35;stroke-miterlimit:4;stroke-dasharray:none;fill:none;fill-opacity:1;fill-rule: evenodd"/>
<path id="Sketch001_w0015"  d="M 106.82445 -41.039086999999995 C 106.82445 -41.039086999999995 109.25552499999999 -27.251794 109.25552499999999 -27.251794 C 109.25552499999999 -27.251794 123.042836 -29.682868 123.042836 -29.682868 C 123.042836 -29.682868 120.61176499999999 -43.470161999999995 120.61176499999999 -43.470161999999995 C 120.61176499999999 -43.470161999999995 106.82445 -41.039086999999995 106.82445 -41.039086999999995 " stroke="#191919" stroke-width="0.35 px" style="stroke-width:0.35;stroke-miterlimit:4;stroke-dasharray:none;fill:none;fill-opacity:1;fill-rule: evenodd"/>
<path id="Sketch001_w0016"  d="M 105.947544 -46.012384 C 105.947544 -46.012384 119.734859 -48.443459 119.734859 -48.443459 C 119.734859 -48.443459 117.30378499999999 -62.230751999999995 117.30378499999999 -62.230751999999995 C 117.30378499999999 -62.230751999999995 103.51647 -59.799678 103.51647 -59.799678 C 103.51647 -59.799678 105.947544 -46.012384 105.947544 -46.012384 " stroke="#191919" stroke-width="0.35 px" style="stroke-width:0.35;stroke-miterlimit:4;stroke-dasharray:none;fill:none;fill-opacity:1;fill-rule: evenodd"/>
<path id="Sketch001_w0017"  d="M 88.671639 -34.284288 C 88.671639 -34.284288 91.10271399999999 -20.496973 91.10271399999999 -20.496973 C 91.10271399999999 -20.496973 104.890029 -22.928048 104.890029 -22.928048 C 104.890029 -22.928048 102.45895399999999 -36.715362999999996 102.45895399999999 -36.715362999999996 C 102.45895399999999 -36.715362999999996 88.671639 -34.284288 88.671639 -34.284288 " stroke="#191919" stroke-width="0.35 px" style="stroke-width:0.35;stroke-miterlimit:4;stroke-dasharray:none;fill:none;fill-opacity:1;fill-rule: evenodd"/>
<path id="Sketch001_w0018"  d="M 87.794733 -39.257563999999995 C 87.794733 -39.257563999999995 101.582027 -41.688638 101.582027 -41.688638 C 101.582027 -41.688638 99.15095199999999 -55.475932 99.15095199999999 -55.475932 C 99.15095199999999 -55.475932 85.363658 -53.044857 85.363658 -53.044857 C 85.363658 -53.044857 87.794733 -39.257563999999995 87.794733 -39.257563999999995 " stroke="#191919" stroke-width="0.35 px" style="stroke-width:0.35;stroke-miterlimit:4;stroke-dasharray:none;fill:none;fill-opacity:1;fill-rule: evenodd"/>
<path id="Sketch001_w0019"  d="M 70.518828 -27.529467999999998 C 70.518828 -27.529467999999998 72.94990299999999 -13.742153 72.94990299999999 -13.742153 C 72.94990299999999 -13.742153 86.737197 -16.173227999999998 86.737197 -16.173227999999998 C 86.737197 -16.173227999999998 84.306122 -29.960542999999998 84.306122 -29.960542999999998 C 84.306122 -29.960542999999998 70.518828 -27.529467999999998 70.518828 -27.529467999999998 " stroke="#191919" stroke-width="0.35 px" style="stroke-width:0.35;stroke-miterlimit:4;stroke-dasharray:none;fill:none;fill-opacity:1;fill-rule: evenodd"/>
<path id="Sketch001_w0020"  d="M 51.150458 -27.668305999999998 C 51.150458 -27.668305999999998 53.581533 -13.880989999999999 53.581533 -13.880989999999999 C 53.581533 -13.880989999999999 67.368848 -16.312065 67.368848 -16.312065 C 67.368848 -16.312065 64.93777299999999 -30.09938 64.93777299999999 -30.09938 C 64.93777299999999 -30.09938 51.150458 -27.668305999999998 51.150458 -27.668305999999998 " stroke="#191919" stroke-width="0.35 px" style="stroke-width:0.35;stroke-miterlimit:4;stroke-dasharray:none;fill:none;fill-opacity:1;fill-rule: evenodd"/>
<path id="Sketch001_w0021"  d="M 50.273551999999995 -32.641580999999995 C 50.273551999999995 -32.641580999999995 64.060846 -35.072655999999995 64.060846 -35.072655999999995 C 64.060846 -35.072655999999995 61.629771 -48.859949 61.629771 -48.859949 C 61.629771 -48.859949 47.842478 -46.428874 47.842478 -46.428874 C 47.842478 -46.428874 50.273551999999995 -32.641580999999995 50.273551999999995 -32.641580999999995 " stroke="#191919" stroke-width="0.35 px" style="stroke-width:0.35;stroke-miterlimit:4;stroke-dasharray:none;fill:none;fill-opacity:1;fill-rule: evenodd"/>
<path id="Sketch001_w0022"  d="M 31.78211 -27.807121 C 31.78211 -27.807121 34.213184999999996 -14.019827999999999 34.213184999999996 -14.019827999999999 C 34.213184999999996 -14.019827999999999 48.000478 -16.450902 48.000478 -16.450902 C 48.000478 -16.450902 45.569404 -30.238196 45.569404 -30.238196 C 45.569404 -30.238196 31.78211 -27.807121 31.78211 -27.807121 " stroke="#191919" stroke-width="0.35 px" style="stroke-width:0.35;stroke-miterlimit:4;stroke-dasharray:none;fill:none;fill-opacity:1;fill-rule: evenodd"/>
<path id="Sketch001_w0023"  d="M 12.413739999999999 -27.945959 C 12.413739999999999 -27.945959 14.844814999999999 -14.158665 14.844814999999999 -14.158665 C 14.844814999999999 -14.158665 28.63213 -16.58974 28.63213 -16.58974 C 28.63213 -16.58974 26.201055 -30.377032999999997 26.201055 -30.377032999999997 C 26.201055 -30.377032999999997 12.413739999999999 -27.945959 12.413739999999999 -27.945959 " stroke="#191919" stroke-width="0.35 px" style="stroke-width:0.35;stroke-miterlimit:4;stroke-dasharray:none;fill:none;fill-opacity:1;fill-rule: evenodd"/>
<path id="Sketch001_w0024"  d="M 22.016147 -54.110921 C 22.016147 -54.110921 19.585072 -67.898214 19.585072 -67.898214 C 19.585072 -67.898214 5.797757 -65.46714 5.797757 -65.46714 C 5.797757 -65.46714 8.228831999999999 -51.679846 8.228831999999999 -51.679846 C 8.228831999999999 -51.679846 22.016147 -54.110921 22.016147 -54.110921 " stroke="#191919" stroke-width="0.35 px" style="stroke-width:0.35;stroke-miterlimit:4;stroke-dasharray:none;fill:none;fill-opacity:1;fill-rule: evenodd"/>
<path id="Sketch001_w0025"  d="M 22.893075 -49.137623999999995 C 22.893075 -49.137623999999995 9.105758999999999 -46.706548999999995 9.105758999999999 -46.706548999999995 C 9.105758999999999 -46.706548999999995 11.536833999999999 -32.919256 11.536833999999999 -32.919256 C 11.536833999999999 -32.919256 25.324149 -35.35033 25.324149 -35.35033 C 25.324149 -35.35033 22.893075 -49.137623999999995 22.893075 -49.137623999999995 " stroke="#191919" stroke-width="0.35 px" style="stroke-width:0.35;stroke-miterlimit:4;stroke-dasharray:none;fill:none;fill-opacity:1;fill-rule: evenodd"/>
<path id="Sketch001_w0026"  d="M 41.384495 -53.972083 C 41.384495 -53.972083 38.953421 -67.759377 38.953421 -67.759377 C 38.953421 -67.759377 25.166127 -65.328302 25.166127 -65.328302 C 25.166127 -65.328302 27.597202 -51.541008999999995 27.597202 -51.541008999999995 C 27.597202 -51.541008999999995 41.384495 -53.972083 41.384495 -53.972083 " stroke="#191919" stroke-width="0.35 px" style="stroke-width:0.35;stroke-miterlimit:4;stroke-dasharray:none;fill:none;fill-opacity:1;fill-rule: evenodd"/>
<path id="Sketch001_w0027"  d="M 42.261423 -48.998787 C 42.261423 -48.998787 28.474107999999998 -46.567712 28.474107999999998 -46.567712 C 28.474107999999998 -46.567712 30.905182 -32.780418 30.905182 -32.780418 C 30.905182 -32.780418 44.692498 -35.211493 44.692498 -35.211493 C 44.692498 -35.211493 42.261423 -48.998787 42.261423 -48.998787 " stroke="#191919" stroke-width="0.35 px" style="stroke-width:0.35;stroke-miterlimit:4;stroke-dasharray:none;fill:none;fill-opacity:1;fill-rule: evenodd"/>
<path id="Sketch001_w0028"  d="M 58.321791 -67.62053999999999 C 58.321791 -67.62053999999999 44.534475 -65.189465 44.534475 -65.189465 C 44.534475 -65.189465 46.96555 -51.402170999999996 46.96555 -51.402170999999996 C 46.96555 -51.402170999999996 60.752865 -53.833245999999995 60.752865 -53.833245999999995 C 60.752865 -53.833245999999995 58.321791 -67.62053999999999 58.321791 -67.62053999999999 " stroke="#191919" stroke-width="0.35 px" style="stroke-width:0.35;stroke-miterlimit:4;stroke-dasharray:none;fill:none;fill-opacity:1;fill-rule: evenodd"/>
<path id="Sketch001_w0029"  d="M 211.676793 -48.999842 C 211.676793 -48.999842 209.24571799999998 -35.212526 209.24571799999998 -35.212526 C 209.24571799999998 -35.212526 223.033033 -32.781452 223.033033 -32.781452 C 223.033033 -32.781452 225.46410799999998 -46.568767 225.46410799999998 -46.568767 C 225.46410799999998 -46.568767 211.676793 -48.999842 211.676793 -48.999842 " stroke="#191919" stroke-width="0.35 px" style="stroke-width:0.35;stroke-miterlimit:4;stroke-dasharray:none;fill:none;fill-opacity:1;fill-rule: evenodd"/>
<path id="Sketch001_w0030"  d="M 73.82879 -73.727014 C 73.82879 -73.727014 73.82879 -87.72699999999999 73.82879 -87.72699999999999 C 73.82879 -87.72699999999999 59.828782999999994 -87.72699999999999 59.828782999999994 -87.72699999999999 C 59.828782999999994 -87.72699999999999 59.828782999999994 -73.727014 59.828782999999994 -73.727014 C 59.828782999999994 -73.727014 73.82879 -73.727014 73.82879 -73.727014 " stroke="#191919" stroke-width="0.35 px" style="stroke-width:0.35;stroke-miterlimit:4;stroke-dasharray:none;fill:none;fill-opacity:1;fill-rule: evenodd"/>
<path id="Sketch001_w0031"  d="M 80.121214 -53.694409 C 80.121214 -53.694409 77.690139 -67.481702 77.690139 -67.481702 C 77.690139 -67.481702 63.902845 -65.050628 63.902845 -65.050628 C 63.902845 -65.050628 66.33391999999999 -51.263334 66.33391999999999 -51.263334 C 66.33391999999999 -51.263334 80.121214 -53.694409 80.121214 -53.694409 " stroke="#191919" stroke-width="0.35 px" style="stroke-width:0.35;stroke-miterlimit:4;stroke-dasharray:none;fill:none;fill-opacity:1;fill-rule: evenodd"/>
<path id="Sketch001_w0032"  d="M 172.94007399999998 -48.722167 C 172.94007399999998 -48.722167 170.509 -34.934852 170.509 -34.934852 C 170.509 -34.934852 184.296315 -32.503777 184.296315 -32.503777 C 184.296315 -32.503777 186.72738999999999 -46.291092 186.72738999999999 -46.291092 C 186.72738999999999 -46.291092 172.94007399999998 -48.722167 172.94007399999998 -48.722167 " stroke="#191919" stroke-width="0.35 px" style="stroke-width:0.35;stroke-miterlimit:4;stroke-dasharray:none;fill:none;fill-opacity:1;fill-rule: evenodd"/>
<path id="Sketch001_w0033"  d="M 80.99814099999999 -48.721132999999995 C 80.99814099999999 -48.721132999999995 67.210826 -46.290059 67.210826 -46.290059 C 67.210826 -46.290059 69.64190099999999 -32.502742999999995 69.64190099999999 -32.502742999999995 C 69.64190099999999 -32.502742999999995 83.429216 -34.933817999999995 83.429216 -34.933817999999995 C 83.429216 -34.933817999999995 80.99814099999999 -48.721132999999995 80.99814099999999 -48.721132999999995 " stroke="#191919" stroke-width="0.35 px" style="stroke-width:0.35;stroke-miterlimit:4;stroke-dasharray:none;fill:none;fill-opacity:1;fill-rule: evenodd"/>
<path id="Sketch001_w0034"  d="M 82.055656 -71.805448 C 82.055656 -71.805448 84.48673099999999 -58.018153999999996 84.48673099999999 -58.018153999999996 C 84.48673099999999 -58.018153999999996 98.274046 -60.449228999999995 98.274046 -60.449228999999995 C 98.274046 -60.449228999999995 95.84297099999999 -74.23652299999999 95.84297099999999 -74.23652299999999 C 95.84297099999999 -74.23652299999999 82.055656 -71.805448 82.055656 -71.805448 " stroke="#191919" stroke-width="0.35 px" style="stroke-width:0.35;stroke-miterlimit:4;stroke-dasharray:none;fill:none;fill-opacity:1;fill-rule: evenodd"/>
<path id="Sketch001_w0035"  d="M 100.180239 -86.935317 C 100.180239 -86.935317 96.55677399999999 -100.45828499999999 96.55677399999999 -100.45828499999999 C 96.55677399999999 -100.45828499999999 83.033805 -96.83482 83.033805 -96.83482 C 83.033805 -96.83482 86.65727 -83.31185099999999 86.65727 -83.31185099999999 C 86.65727 -83.31185099999999 100.180239 -86.935317 100.180239 -86.935317 " stroke="#191919" stroke-width="0.35 px" style="stroke-width:0.35;stroke-miterlimit:4;stroke-dasharray:none;fill:none;fill-opacity:1;fill-rule: evenodd"/>
<path id="Sketch001_w0036"  d="M 113.99578199999999 -80.991343 C 113.99578199999999 -80.991343 100.208489 -78.560268 100.208489 -78.560268 C 100.208489 -78.560268 102.63954199999999 -64.77297399999999 102.63954199999999 -64.77297399999999 C 102.63954199999999 -64.77297399999999 116.426857 -67.204049 116.426857 -67.204049 C 116.426857 -67.204049 113.99578199999999 -80.991343 113.99578199999999 -80.991343 " stroke="#191919" stroke-width="0.35 px" style="stroke-width:0.35;stroke-miterlimit:4;stroke-dasharray:none;fill:none;fill-opacity:1;fill-rule: evenodd"/>
<path id="Sketch001_w0037"  d="M 242.401381 -32.920289 C 242.401381 -32.920289 244.83245599999998 -46.707603999999996 244.83245599999998 -46.707603999999996 C 244.83245599999998 -46.707603999999996 231.04516199999998 -49.138678999999996 231.04516199999998 -49.138678999999996 C 231.04516199999998 -49.138678999999996 228.61408799999998 -35.351364 228.61408799999998 -35.351364 C 228.61408799999998 -35.351364 242.401381 -32.920289 242.401381 -32.920289 " stroke="#191919" stroke-width="0.35 px" style="stroke-width:0.35;stroke-miterlimit:4;stroke-dasharray:none;fill:none;fill-opacity:1;fill-rule: evenodd"/>
<path id="Sketch001_w0038"  d="M 231.922068 -54.111954 C 231.922068 -54.111954 245.709384 -51.680879 245.709384 -51.680879 C 245.709384 -51.680879 248.140458 -65.468173 248.140458 -65.468173 C 248.140458 -65.468173 234.353143 -67.899248 234.353143 -67.899248 C 234.353143 -67.899248 231.922068 -54.111954 231.922068 -54.111954 " stroke="#191919" stroke-width="0.35 px" style="stroke-width:0.35;stroke-miterlimit:4;stroke-dasharray:none;fill:none;fill-opacity:1;fill-rule: evenodd"/>
<path id="Sketch001_w0039"  d="M 193.18535 -53.834278999999995 C 193.18535 -53.834278999999995 206.97266499999998 -51.403205 206.97266499999998 -51.403205 C 206.97266499999998 -51.403205 209.40374 -65.19051999999999 209.40374 -65.19051999999999 C 209.40374 -65.19051999999999 195.616425 -67.621595 195.616425 -67.621595 C 195.616425 -67.621595 193.18535 -53.834278999999995 193.18535 -53.834278999999995 " stroke="#191919" stroke-width="0.35 px" style="stroke-width:0.35;stroke-miterlimit:4;stroke-dasharray:none;fill:none;fill-opacity:1;fill-rule: evenodd"/>
<path id="Sketch001_w0040"  d="M 226.341014 -51.542041999999995 C 226.341014 -51.542041999999995 228.772088 -65.329357 228.772088 -65.329357 C 228.772088 -65.329357 214.984795 -67.760432 214.984795 -67.760432 C 214.984795 -67.760432 212.55372 -53.973116999999995 212.55372 -53.973116999999995 C 212.55372 -53.973116999999995 226.341014 -51.542041999999995 226.341014 -51.542041999999995 " stroke="#191919" stroke-width="0.35 px" style="stroke-width:0.35;stroke-miterlimit:4;stroke-dasharray:none;fill:none;fill-opacity:1;fill-rule: evenodd"/>
<title>b'Sketch001'</title>
</g>
</svg>