<?xml version="1.0"?>
<!DOCTYPE svg PUBLIC "-//W3C//DTD SVG 1.1//EN" "http://www.w3.org/Graphics/SVG/1.1/DTD/svg11.dtd">
<svg width="258.39935907488245mm" height="112.1373337413825mm" viewBox="0 0 258.39935907488245 112.1373337413825" xmlns="http://www.w3.org/2000/svg" version="1.1">
<g id="Sketch" transform="translate(2.234303,2.238694) scale(1,-1)">
<path id="Sketch_w0000"  d="M 13.101961 -8.764381 C 11.646642 -8.764377999999999 10.401219 -9.808881999999999 10.147791999999999 -11.241964999999999 C 10.147791999999999 -11.241964999999999 0.338686 -66.710588 0.338686 -66.710588 C 0.049999999999999996 -68.343052 1.1401059999999998 -69.900207 2.7727999999999997 -70.187585 C 2.7727999999999997 -70.187585 21.580901 -73.498088 21.580901 -73.498088 C 21.832521999999997 -73.542377 22.090298999999998 -73.538044 22.34029 -73.485326 C 22.34029 -73.485326 30.801374 -71.701027 30.801374 -71.701027 C 31.053274 -71.64790599999999 31.31306 -71.643917 31.566471999999997 -71.689279 C 31.566471999999997 -71.689279 53.871221 -75.68194 53.871221 -75.68194 C 54.347957 -75.767279 54.695017 -76.18198 54.695017 -76.666294 C 54.695017 -76.666294 54.695017 -91.91755099999999 54.695017 -91.91755099999999 C 54.695017 -92.469836 55.142731999999995 -92.91755099999999 55.695017 -92.91755099999999 C 55.695017 -92.91755099999999 73.09720399999999 -92.91755099999999 73.09720399999999 -92.91755099999999 C 73.509835 -92.91755099999999 73.880096 -93.170996 74.02942399999999 -93.555658 C 74.02942399999999 -93.555658 76.542723 -100.029792 76.542723 -100.029792 C 76.658166 -100.327169 76.90856099999999 -100.551625 77.21674399999999 -100.63399 C 77.21674399999999 -100.63399 102.403086 -107.365313 102.403086 -107.365313 C 102.403086 -107.365313 151.589748 -107.365313 151.589748 -107.365313 C 151.589748 -107.365313 176.729503 -100.634266 176.729503 -100.634266 C 177.037762 -100.55173099999999 177.288119 -100.327029 177.403371 -100.029451 C 177.403371 -100.029451 179.910392 -93.556392 179.910392 -93.556392 C 180.059521 -93.17134399999999 180.429978 -92.91755099999999 180.842896 -92.91755099999999 C 180.842896 -92.91755099999999 198.26285 -92.91755099999999 198.26285 -92.91755099999999 C 198.815135 -92.91755099999999 199.26285 -92.469836 199.26285 -91.91755099999999 C 199.26285 -91.91755099999999 199.26285 -76.657141 199.26285 -76.657141 C 199.26285 -76.172637 199.610176 -75.75783 200.087142 -75.672698 C 200.087142 -75.672698 222.418013 -71.686966 222.418013 -71.686966 C 222.67188299999998 -71.641654 222.93212 -71.645866 223.18438999999998 -71.699372 C 223.18438999999998 -71.699372 231.601505 -73.48460399999999 231.601505 -73.48460399999999 C 231.852297 -73.537796 232.110977 -73.54227399999999 232.36345899999998 -73.497795 C 232.36345899999998 -73.497795 251.152832 -70.187696 251.152832 -70.187696 C 252.78475 -69.90020299999999 253.87452 -68.344084 253.58675799999997 -66.712214 C 253.58675799999997 -66.712214 243.805467 -11.243526 243.805467 -11.243526 C 243.552642 -9.80978 242.306918 -8.764505 240.85105 -8.764505 C 240.85105 -8.764505 161.591722 -8.764505 161.591722 -8.764505 C 161.591722 -8.764505 113.240259 -0.307743 113.240259 -0.307743 C 112.696342 -0.211832 112.177664 -0.5750299999999999 112.08178099999999 -1.118952 C 112.08178099999999 -1.118952 109.342508 -16.658344 109.342508 -16.658344 C 109.246506 -17.202949999999998 108.726709 -17.56624 108.18228099999999 -17.469237 C 108.18228099999999 -17.469237 94.479815 -15.027807999999999 94.479815 -15.027807999999999 C 94.150036 -14.96905 93.87158 -14.749077999999999 93.738078 -14.441858 C 93.738078 -14.441858 92.908243 -12.532207 92.908243 -12.532207 C 92.77460599999999 -12.224675999999999 92.495733 -12.004591999999999 92.16556399999999 -11.94609 C 92.16556399999999 -11.94609 74.209445 -8.764505 74.209445 -8.764505 C 74.209445 -8.764505 13.101961 -8.764381 13.101961 -8.764381 " stroke="#191919" stroke-width="0.35 px" style="stroke-width:0.35;stroke-miterlimit:4;stroke-dasharray:none;fill:none;fill-opacity:1;fill-rule: evenodd"/>
<title>b'Sketch'</title>
</g>
</svg>