<?xml version="1.0" standalone="no"?>
 <!DOCTYPE svg PUBLIC "-//W3C//DTD SVG 1.1//EN" 
 "http://www.w3.org/Graphics/SVG/1.1/DTD/svg11.dtd"> 
<svg
  xmlns:svg="http://www.w3.org/2000/svg"
  xmlns="http://www.w3.org/2000/svg"
  xmlns:xlink="http://www.w3.org/1999/xlink"
  version="1.1"
  width="25.392380cm" height="10.746740cm" viewBox="0 0 253923800 107467400">
<title>SVG Picture created as reviung41-Nutzer_5.svg date 2022/05/08 13:22:25 </title>
  <desc>Picture generated by PCBNEW </desc>
<g style="fill:#000000; fill-opacity:1.000000;stroke:#000000; stroke-opacity:1.000000;
stroke-linecap:round; stroke-linejoin:round;"
 transform="translate(0 0) scale(1 1)">
</g>
<g style="fill:#000000; fill-opacity:0.0; 
stroke:#000000; stroke-width:0.000000; stroke-opacity:1; 
stroke-linecap:round; stroke-linejoin:round;">
</g>
<g style="fill:#000000; fill-opacity:0.0; 
stroke:#000000; stroke-width:100000.000000; stroke-opacity:1; 
stroke-linecap:round; stroke-linejoin:round;">
<path style="fill:#000000; fill-opacity:0.0; 
stroke:#000000; stroke-width:100000.000000; stroke-opacity:1; 
stroke-linecap:round; stroke-linejoin:round;fill:none"
d="M 135467017.000000,69849835.000000
118703017.000000,69849835.000000
123529017.000000,42417835.000000
130641017.000000,42417835.000000
Z" /> 
</g>
<g style="fill:#000000; fill-opacity:1.0; 
stroke:#000000; stroke-width:120000.000000; stroke-opacity:1; 
stroke-linecap:round; stroke-linejoin:round;">
<path style="fill:#000000; fill-opacity:1.0; 
stroke:#000000; stroke-width:120000.000000; stroke-opacity:1; 
stroke-linecap:round; stroke-linejoin:round;fill-rule:evenodd;"
d="M 13083594.000000,24547125.000000
12475825.000000,27993952.000000
26263134.000000,30425027.000000
26870903.000000,26978199.000000
29332922.000000,27412320.000000
28291033.000000,33321166.000000
9579686.000000,30021851.000000
10621575.000000,24113004.000000
Z" /> 
<path style="fill:#000000; fill-opacity:1.0; 
stroke:#000000; stroke-width:120000.000000; stroke-opacity:1; 
stroke-linecap:round; stroke-linejoin:round;fill-rule:evenodd;"
d="M 32473594.000000,24437125.000000
31865825.000000,27883952.000000
45653134.000000,30315027.000000
46260903.000000,26868199.000000
48722922.000000,27302320.000000
47681033.000000,33211166.000000
28969686.000000,29911851.000000
30011575.000000,24003004.000000
Z" /> 
<path style="fill:#000000; fill-opacity:1.0; 
stroke:#000000; stroke-width:120000.000000; stroke-opacity:1; 
stroke-linecap:round; stroke-linejoin:round;fill-rule:evenodd;"
d="M 51823594.000000,24277125.000000
51215825.000000,27723952.000000
65003134.000000,30155027.000000
65610903.000000,26708199.000000
68072922.000000,27142320.000000
67031033.000000,33051166.000000
48319686.000000,29751851.000000
49361575.000000,23843004.000000
Z" /> 
<path style="fill:#000000; fill-opacity:1.0; 
stroke:#000000; stroke-width:120000.000000; stroke-opacity:1; 
stroke-linecap:round; stroke-linejoin:round;fill-rule:evenodd;"
d="M 71193594.000000,24137125.000000
70585825.000000,27583952.000000
84373134.000000,30015027.000000
84980903.000000,26568199.000000
87442922.000000,27002320.000000
86401033.000000,32911166.000000
67689686.000000,29611851.000000
68731575.000000,23703004.000000
Z" /> 
<path style="fill:#000000; fill-opacity:1.0; 
stroke:#000000; stroke-width:120000.000000; stroke-opacity:1; 
stroke-linecap:round; stroke-linejoin:round;fill-rule:evenodd;"
d="M 89343594.000000,30927125.000000
88735825.000000,34373952.000000
102523134.000000,36805027.000000
103130903.000000,33358199.000000
105592922.000000,33792320.000000
104551033.000000,39701166.000000
85839686.000000,36401851.000000
86881575.000000,30493004.000000
Z" /> 
<path style="fill:#000000; fill-opacity:1.0; 
stroke:#000000; stroke-width:120000.000000; stroke-opacity:1; 
stroke-linecap:round; stroke-linejoin:round;fill-rule:evenodd;"
d="M 107513594.000000,37637125.000000
106905825.000000,41083952.000000
120693134.000000,43515027.000000
121300903.000000,40068199.000000
123762922.000000,40502320.000000
122721033.000000,46411166.000000
104009686.000000,43111851.000000
105051575.000000,37203004.000000
Z" /> 
<path style="fill:#000000; fill-opacity:1.0; 
stroke:#000000; stroke-width:120000.000000; stroke-opacity:1; 
stroke-linecap:round; stroke-linejoin:round;fill-rule:evenodd;"
d="M 9753594.000000,43277125.000000
9145825.000000,46723952.000000
22933134.000000,49155027.000000
23540903.000000,45708199.000000
26002922.000000,46142320.000000
24961033.000000,52051166.000000
6249686.000000,48751851.000000
7291575.000000,42843004.000000
Z" /> 
<path style="fill:#000000; fill-opacity:1.0; 
stroke:#000000; stroke-width:120000.000000; stroke-opacity:1; 
stroke-linecap:round; stroke-linejoin:round;fill-rule:evenodd;"
d="M 29113594.000000,43157125.000000
28505825.000000,46603952.000000
42293134.000000,49035027.000000
42900903.000000,45588199.000000
45362922.000000,46022320.000000
44321033.000000,51931166.000000
25609686.000000,48631851.000000
26651575.000000,42723004.000000
Z" /> 
<path style="fill:#000000; fill-opacity:1.0; 
stroke:#000000; stroke-width:120000.000000; stroke-opacity:1; 
stroke-linecap:round; stroke-linejoin:round;fill-rule:evenodd;"
d="M 48513594.000000,42997125.000000
47905825.000000,46443952.000000
61693134.000000,48875027.000000
62300903.000000,45428199.000000
64762922.000000,45862320.000000
63721033.000000,51771166.000000
45009686.000000,48471851.000000
46051575.000000,42563004.000000
Z" /> 
<path style="fill:#000000; fill-opacity:1.0; 
stroke:#000000; stroke-width:120000.000000; stroke-opacity:1; 
stroke-linecap:round; stroke-linejoin:round;fill-rule:evenodd;"
d="M 67873594.000000,42887125.000000
67265825.000000,46333952.000000
81053134.000000,48765027.000000
81660903.000000,45318199.000000
84122922.000000,45752320.000000
83081033.000000,51661166.000000
64369686.000000,48361851.000000
65411575.000000,42453004.000000
Z" /> 
<path style="fill:#000000; fill-opacity:1.0; 
stroke:#000000; stroke-width:120000.000000; stroke-opacity:1; 
stroke-linecap:round; stroke-linejoin:round;fill-rule:evenodd;"
d="M 86023594.000000,49667125.000000
85415825.000000,53113952.000000
99203134.000000,55545027.000000
99810903.000000,52098199.000000
102272922.000000,52532320.000000
101231033.000000,58441166.000000
82519686.000000,55141851.000000
83561575.000000,49233004.000000
Z" /> 
<path style="fill:#000000; fill-opacity:1.0; 
stroke:#000000; stroke-width:120000.000000; stroke-opacity:1; 
stroke-linecap:round; stroke-linejoin:round;fill-rule:evenodd;"
d="M 104173594.000000,56387125.000000
103565825.000000,59833952.000000
117353134.000000,62265027.000000
117960903.000000,58818199.000000
120422922.000000,59252320.000000
119381033.000000,65161166.000000
100669686.000000,61861851.000000
101711575.000000,55953004.000000
Z" /> 
<path style="fill:#000000; fill-opacity:1.0; 
stroke:#000000; stroke-width:120000.000000; stroke-opacity:1; 
stroke-linecap:round; stroke-linejoin:round;fill-rule:evenodd;"
d="M 6433594.000000,62067125.000000
5825825.000000,65513952.000000
19613134.000000,67945027.000000
20220903.000000,64498199.000000
22682922.000000,64932320.000000
21641033.000000,70841166.000000
2929686.000000,67541851.000000
3971575.000000,61633004.000000
Z" /> 
<path style="fill:#000000; fill-opacity:1.0; 
stroke:#000000; stroke-width:120000.000000; stroke-opacity:1; 
stroke-linecap:round; stroke-linejoin:round;fill-rule:evenodd;"
d="M 25833594.000000,61907125.000000
25225825.000000,65353952.000000
39013134.000000,67785027.000000
39620903.000000,64338199.000000
42082922.000000,64772320.000000
41041033.000000,70681166.000000
22329686.000000,67381851.000000
23371575.000000,61473004.000000
Z" /> 
<path style="fill:#000000; fill-opacity:1.0; 
stroke:#000000; stroke-width:120000.000000; stroke-opacity:1; 
stroke-linecap:round; stroke-linejoin:round;fill-rule:evenodd;"
d="M 45173594.000000,61797125.000000
44565825.000000,65243952.000000
58353134.000000,67675027.000000
58960903.000000,64228199.000000
61422922.000000,64662320.000000
60381033.000000,70571166.000000
41669686.000000,67271851.000000
42711575.000000,61363004.000000
Z" /> 
<path style="fill:#000000; fill-opacity:1.0; 
stroke:#000000; stroke-width:120000.000000; stroke-opacity:1; 
stroke-linecap:round; stroke-linejoin:round;fill-rule:evenodd;"
d="M 64558214.000000,61645496.000000
63950445.000000,65092323.000000
77737754.000000,67523398.000000
78345523.000000,64076570.000000
80807542.000000,64510691.000000
79765653.000000,70419537.000000
61054306.000000,67120222.000000
62096195.000000,61211375.000000
Z" /> 
<path style="fill:#000000; fill-opacity:1.0; 
stroke:#000000; stroke-width:120000.000000; stroke-opacity:1; 
stroke-linecap:round; stroke-linejoin:round;fill-rule:evenodd;"
d="M 82713594.000000,68397125.000000
82105825.000000,71843952.000000
95893134.000000,74275027.000000
96500903.000000,70828199.000000
98962922.000000,71262320.000000
97921033.000000,77171166.000000
79209686.000000,73871851.000000
80251575.000000,67963004.000000
Z" /> 
<path style="fill:#000000; fill-opacity:1.0; 
stroke:#000000; stroke-width:120000.000000; stroke-opacity:1; 
stroke-linecap:round; stroke-linejoin:round;fill-rule:evenodd;"
d="M 100863594.000000,75157125.000000
100255825.000000,78603952.000000
114043134.000000,81035027.000000
114650903.000000,77588199.000000
117112922.000000,78022320.000000
116071033.000000,83931166.000000
97359686.000000,80631851.000000
98401575.000000,74723004.000000
Z" /> 
<path style="fill:#000000; fill-opacity:1.0; 
stroke:#000000; stroke-width:120000.000000; stroke-opacity:1; 
stroke-linecap:round; stroke-linejoin:round;fill-rule:evenodd;"
d="M 150080348.000000,43111851.000000
131369001.000000,46411166.000000
130327112.000000,40502320.000000
132789131.000000,40068199.000000
133396900.000000,43515027.000000
147184209.000000,41083952.000000
146576440.000000,37637125.000000
149038459.000000,37203004.000000
Z" /> 
<path style="fill:#000000; fill-opacity:1.0; 
stroke:#000000; stroke-width:120000.000000; stroke-opacity:1; 
stroke-linecap:round; stroke-linejoin:round;fill-rule:evenodd;"
d="M 168230348.000000,36331851.000000
149519001.000000,39631166.000000
148477112.000000,33722320.000000
150939131.000000,33288199.000000
151546900.000000,36735027.000000
165334209.000000,34303952.000000
164726440.000000,30857125.000000
167188459.000000,30423004.000000
Z" /> 
<path style="fill:#000000; fill-opacity:1.0; 
stroke:#000000; stroke-width:120000.000000; stroke-opacity:1; 
stroke-linecap:round; stroke-linejoin:round;fill-rule:evenodd;"
d="M 186360348.000000,29591851.000000
167649001.000000,32891166.000000
166607112.000000,26982320.000000
169069131.000000,26548199.000000
169676900.000000,29995027.000000
183464209.000000,27563952.000000
182856440.000000,24117125.000000
185318459.000000,23683004.000000
Z" /> 
<path style="fill:#000000; fill-opacity:1.0; 
stroke:#000000; stroke-width:120000.000000; stroke-opacity:1; 
stroke-linecap:round; stroke-linejoin:round;fill-rule:evenodd;"
d="M 205750348.000000,29731851.000000
187039001.000000,33031166.000000
185997112.000000,27122320.000000
188459131.000000,26688199.000000
189066900.000000,30135027.000000
202854209.000000,27703952.000000
202246440.000000,24257125.000000
204708459.000000,23823004.000000
Z" /> 
<path style="fill:#000000; fill-opacity:1.0; 
stroke:#000000; stroke-width:120000.000000; stroke-opacity:1; 
stroke-linecap:round; stroke-linejoin:round;fill-rule:evenodd;"
d="M 225120348.000000,29861851.000000
206409001.000000,33161166.000000
205367112.000000,27252320.000000
207829131.000000,26818199.000000
208436900.000000,30265027.000000
222224209.000000,27833952.000000
221616440.000000,24387125.000000
224078459.000000,23953004.000000
Z" /> 
<path style="fill:#000000; fill-opacity:1.0; 
stroke:#000000; stroke-width:120000.000000; stroke-opacity:1; 
stroke-linecap:round; stroke-linejoin:round;fill-rule:evenodd;"
d="M 244460348.000000,30021851.000000
225749001.000000,33321166.000000
224707112.000000,27412320.000000
227169131.000000,26978199.000000
227776900.000000,30425027.000000
241564209.000000,27993952.000000
240956440.000000,24547125.000000
243418459.000000,24113004.000000
Z" /> 
<path style="fill:#000000; fill-opacity:1.0; 
stroke:#000000; stroke-width:120000.000000; stroke-opacity:1; 
stroke-linecap:round; stroke-linejoin:round;fill-rule:evenodd;"
d="M 153350348.000000,61841851.000000
134639001.000000,65141166.000000
133597112.000000,59232320.000000
136059131.000000,58798199.000000
136666900.000000,62245027.000000
150454209.000000,59813952.000000
149846440.000000,56367125.000000
152308459.000000,55933004.000000
Z" /> 
<path style="fill:#000000; fill-opacity:1.0; 
stroke:#000000; stroke-width:120000.000000; stroke-opacity:1; 
stroke-linecap:round; stroke-linejoin:round;fill-rule:evenodd;"
d="M 171520348.000000,55101851.000000
152809001.000000,58401166.000000
151767112.000000,52492320.000000
154229131.000000,52058199.000000
154836900.000000,55505027.000000
168624209.000000,53073952.000000
168016440.000000,49627125.000000
170478459.000000,49193004.000000
Z" /> 
<path style="fill:#000000; fill-opacity:1.0; 
stroke:#000000; stroke-width:120000.000000; stroke-opacity:1; 
stroke-linecap:round; stroke-linejoin:round;fill-rule:evenodd;"
d="M 189650348.000000,48331851.000000
170939001.000000,51631166.000000
169897112.000000,45722320.000000
172359131.000000,45288199.000000
172966900.000000,48735027.000000
186754209.000000,46303952.000000
186146440.000000,42857125.000000
188608459.000000,42423004.000000
Z" /> 
<path style="fill:#000000; fill-opacity:1.0; 
stroke:#000000; stroke-width:120000.000000; stroke-opacity:1; 
stroke-linecap:round; stroke-linejoin:round;fill-rule:evenodd;"
d="M 209080348.000000,48471851.000000
190369001.000000,51771166.000000
189327112.000000,45862320.000000
191789131.000000,45428199.000000
192396900.000000,48875027.000000
206184209.000000,46443952.000000
205576440.000000,42997125.000000
208038459.000000,42563004.000000
Z" /> 
<path style="fill:#000000; fill-opacity:1.0; 
stroke:#000000; stroke-width:120000.000000; stroke-opacity:1; 
stroke-linecap:round; stroke-linejoin:round;fill-rule:evenodd;"
d="M 228410348.000000,48631851.000000
209699001.000000,51931166.000000
208657112.000000,46022320.000000
211119131.000000,45588199.000000
211726900.000000,49035027.000000
225514209.000000,46603952.000000
224906440.000000,43157125.000000
227368459.000000,42723004.000000
Z" /> 
<path style="fill:#000000; fill-opacity:1.0; 
stroke:#000000; stroke-width:120000.000000; stroke-opacity:1; 
stroke-linecap:round; stroke-linejoin:round;fill-rule:evenodd;"
d="M 247800348.000000,48751851.000000
229089001.000000,52051166.000000
228047112.000000,46142320.000000
230509131.000000,45708199.000000
231116900.000000,49155027.000000
244904209.000000,46723952.000000
244296440.000000,43277125.000000
246758459.000000,42843004.000000
Z" /> 
<path style="fill:#000000; fill-opacity:1.0; 
stroke:#000000; stroke-width:120000.000000; stroke-opacity:1; 
stroke-linecap:round; stroke-linejoin:round;fill-rule:evenodd;"
d="M 156700348.000000,80611851.000000
137989001.000000,83911166.000000
136947112.000000,78002320.000000
139409131.000000,77568199.000000
140016900.000000,81015027.000000
153804209.000000,78583952.000000
153196440.000000,75137125.000000
155658459.000000,74703004.000000
Z" /> 
<path style="fill:#000000; fill-opacity:1.0; 
stroke:#000000; stroke-width:120000.000000; stroke-opacity:1; 
stroke-linecap:round; stroke-linejoin:round;fill-rule:evenodd;"
d="M 174830348.000000,73851851.000000
156119001.000000,77151166.000000
155077112.000000,71242320.000000
157539131.000000,70808199.000000
158146900.000000,74255027.000000
171934209.000000,71823952.000000
171326440.000000,68377125.000000
173788459.000000,67943004.000000
Z" /> 
<path style="fill:#000000; fill-opacity:1.0; 
stroke:#000000; stroke-width:120000.000000; stroke-opacity:1; 
stroke-linecap:round; stroke-linejoin:round;fill-rule:evenodd;"
d="M 192980348.000000,67131851.000000
174269001.000000,70431166.000000
173227112.000000,64522320.000000
175689131.000000,64088199.000000
176296900.000000,67535027.000000
190084209.000000,65103952.000000
189476440.000000,61657125.000000
191938459.000000,61223004.000000
Z" /> 
<path style="fill:#000000; fill-opacity:1.0; 
stroke:#000000; stroke-width:120000.000000; stroke-opacity:1; 
stroke-linecap:round; stroke-linejoin:round;fill-rule:evenodd;"
d="M 212370348.000000,67241851.000000
193659001.000000,70541166.000000
192617112.000000,64632320.000000
195079131.000000,64198199.000000
195686900.000000,67645027.000000
209474209.000000,65213952.000000
208866440.000000,61767125.000000
211328459.000000,61333004.000000
Z" /> 
<path style="fill:#000000; fill-opacity:1.0; 
stroke:#000000; stroke-width:120000.000000; stroke-opacity:1; 
stroke-linecap:round; stroke-linejoin:round;fill-rule:evenodd;"
d="M 231720348.000000,67401851.000000
213009001.000000,70701166.000000
211967112.000000,64792320.000000
214429131.000000,64358199.000000
215036900.000000,67805027.000000
228824209.000000,65373952.000000
228216440.000000,61927125.000000
230678459.000000,61493004.000000
Z" /> 
<path style="fill:#000000; fill-opacity:1.0; 
stroke:#000000; stroke-width:120000.000000; stroke-opacity:1; 
stroke-linecap:round; stroke-linejoin:round;fill-rule:evenodd;"
d="M 251090348.000000,67541851.000000
232379001.000000,70841166.000000
231337112.000000,64932320.000000
233799131.000000,64498199.000000
234406900.000000,67945027.000000
248194209.000000,65513952.000000
247586440.000000,62067125.000000
250048459.000000,61633004.000000
Z" /> 
<path style="fill:#000000; fill-opacity:1.0; 
stroke:#000000; stroke-width:120000.000000; stroke-opacity:1; 
stroke-linecap:round; stroke-linejoin:round;fill-rule:evenodd;"
d="M 59835017.000000,87785835.000000
73835017.000000,87785835.000000
73835017.000000,84285835.000000
76335017.000000,84285835.000000
76335017.000000,90285835.000000
57335017.000000,90285835.000000
57335017.000000,84285835.000000
59835017.000000,84285835.000000
Z" /> 
<path style="fill:#000000; fill-opacity:1.0; 
stroke:#000000; stroke-width:120000.000000; stroke-opacity:1; 
stroke-linecap:round; stroke-linejoin:round;fill-rule:evenodd;"
d="M 83939931.000000,93499724.000000
83034064.000000,96880464.000000
96557025.000000,100503931.000000
97462892.000000,97123191.000000
99877707.000000,97770238.000000
98324792.000000,103565793.000000
79972202.000000,98648231.000000
81525116.000000,92852676.000000
Z" /> 
<path style="fill:#000000; fill-opacity:1.0; 
stroke:#000000; stroke-width:120000.000000; stroke-opacity:1; 
stroke-linecap:round; stroke-linejoin:round;fill-rule:evenodd;"
d="M 173970093.000000,98643349.000000
155617503.000000,103560911.000000
154064588.000000,97765356.000000
156479403.000000,97118309.000000
157385270.000000,100499049.000000
170908231.000000,96875582.000000
170002364.000000,93494842.000000
172417179.000000,92847794.000000
Z" /> 
<path style="fill:#000000; fill-opacity:1.0; 
stroke:#000000; stroke-width:120000.000000; stroke-opacity:1; 
stroke-linecap:round; stroke-linejoin:round;fill-rule:evenodd;"
d="M 180075017.000000,87765835.000000
194075017.000000,87765835.000000
194075017.000000,84265835.000000
196575017.000000,84265835.000000
196575017.000000,90265835.000000
177575017.000000,90265835.000000
177575017.000000,84265835.000000
180075017.000000,84265835.000000
Z" /> 
<g >
</g>
<g >
</g>
<g >
</g>
<g >
</g>
<g >
</g>
<g >
</g>
<g >
</g>
<g >
</g>
<g >
</g>
<g >
</g>
<g >
</g>
<g >
</g>
<g >
</g>
<g >
</g>
<g >
</g>
<g >
</g>
<g >
</g>
<g >
</g>
<g >
</g>
<g >
</g>
<g >
</g>
<g >
</g>
<g >
</g>
<g >
</g>
<g >
</g>
<g >
</g>
<g >
</g>
<g >
</g>
<g >
</g>
<g >
</g>
<g >
</g>
<g >
</g>
<g >
</g>
<g >
</g>
<g >
</g>
<g >
</g>
<g >
</g>
<g >
</g>
<g >
</g>
<g >
</g>
<g >
</g>
<g >
</g>
<g >
</g>
<g >
</g>
<g >
</g>
<g >
</g>
<g >
</g>
<g >
</g>
<g >
</g>
<g >
</g>
<g >
</g>
<g >
</g>
<g >
</g>
<g >
</g>
<g >
</g>
<g >
</g>
<g >
</g>
<g >
</g>
<g >
</g>
<g >
</g>
<g >
</g>
<g >
</g>
<g >
</g>
<g >
</g>
<g >
</g>
<g >
</g>
<g >
</g>
<g >
</g>
<g >
</g>
<g >
</g>
<g >
</g>
<g >
</g>
<g >
</g>
<g >
</g>
<g >
</g>
<g >
</g>
<g >
</g>
<g >
</g>
<g >
</g>
<g >
</g>
<g >
</g>
<g >
</g>
<g >
</g>
<g >
</g>
<g >
</g>
<g >
</g>
<g >
</g>
<g >
</g>
<g >
</g>
<g >
</g>
<g >
</g>
<g >
</g>
<g >
</g>
<g >
</g>
<g >
</g>
<g >
</g>
<g >
</g>
<g >
</g>
<g >
</g>
<g >
</g>
<g >
</g>
<g >
</g>
<g >
</g>
<g >
</g>
<g >
</g>
<g >
</g>
<g >
</g>
<g >
</g>
<g >
</g>
<g >
</g>
<g >
</g>
<g >
</g>
<g >
</g>
<g >
</g>
</g> 
</svg>
