<?xml version="1.0" standalone="no"?>
 <!DOCTYPE svg PUBLIC "-//W3C//DTD SVG 1.1//EN" 
 "http://www.w3.org/Graphics/SVG/1.1/DTD/svg11.dtd"> 
<svg
  xmlns:svg="http://www.w3.org/2000/svg"
  xmlns="http://www.w3.org/2000/svg"
  xmlns:xlink="http://www.w3.org/1999/xlink"
  version="1.1"
  width="25.392380cm" height="10.746740cm" viewBox="0 0 253923800 107467400">
<title>SVG Picture created as reviung41-Nutzer_3.svg date 2022/05/03 15:55:00 </title>
  <desc>Picture generated by PCBNEW </desc>
<g style="fill:#000000; fill-opacity:1.000000;stroke:#000000; stroke-opacity:1.000000;
stroke-linecap:round; stroke-linejoin:round;"
 transform="translate(0 0) scale(1 1)">
</g>
<g style="fill:#000000; fill-opacity:0.0; 
stroke:#000000; stroke-width:0.000000; stroke-opacity:1; 
stroke-linecap:round; stroke-linejoin:round;">
</g>
<g style="fill:#000000; fill-opacity:0.0; 
stroke:#000000; stroke-width:100000.000000; stroke-opacity:1; 
stroke-linecap:round; stroke-linejoin:round;">
</g>
<g style="fill:#000000; fill-opacity:1.0; 
stroke:#000000; stroke-width:100000.000000; stroke-opacity:1; 
stroke-linecap:round; stroke-linejoin:round;">
<path style="fill:#000000; fill-opacity:1.0; 
stroke:#000000; stroke-width:100000.000000; stroke-opacity:1; 
stroke-linecap:round; stroke-linejoin:round;fill-rule:evenodd;"
d="M 144961569.000000,8078353.000000
142623917.000000,21335835.000000
111106130.000000,15778399.000000
113443781.000000,2520917.000000
Z" /> 
<path style="fill:#000000; fill-opacity:1.0; 
stroke:#000000; stroke-width:100000.000000; stroke-opacity:1; 
stroke-linecap:round; stroke-linejoin:round;fill-rule:evenodd;"
d="M 161534649.000000,9885060.000000
161770292.000000,11474120.000000
161417439.000000,13475250.000000
160652516.000000,14887883.000000
153148282.000000,13564684.000000
152912639.000000,11975624.000000
153265493.000000,9974494.000000
154030415.000000,8561860.000000
Z" /> 
</g>
<g style="fill:#000000; fill-opacity:1.0; 
stroke:#000000; stroke-width:120000.000000; stroke-opacity:1; 
stroke-linecap:round; stroke-linejoin:round;">
<path style="fill:#000000; fill-opacity:1.0; 
stroke:#000000; stroke-width:120000.000000; stroke-opacity:1; 
stroke-linecap:round; stroke-linejoin:round;fill-rule:evenodd;"
d="M 118025017.000000,99715835.000000
118025017.000000,103715835.000000
117025017.000000,104715835.000000
112525017.000000,104715835.000000
111525017.000000,103715835.000000
111525017.000000,99715835.000000
112525017.000000,98715835.000000
117025017.000000,98715835.000000
Z" /> 
<path style="fill:#000000; fill-opacity:1.0; 
stroke:#000000; stroke-width:120000.000000; stroke-opacity:1; 
stroke-linecap:round; stroke-linejoin:round;fill-rule:evenodd;"
d="M 142525017.000000,85215835.000000
142525017.000000,89215835.000000
141525017.000000,90215835.000000
137025017.000000,90215835.000000
136025017.000000,89215835.000000
136025017.000000,85215835.000000
137025017.000000,84215835.000000
141525017.000000,84215835.000000
Z" /> 
<path style="fill:#000000; fill-opacity:1.0; 
stroke:#000000; stroke-width:120000.000000; stroke-opacity:1; 
stroke-linecap:round; stroke-linejoin:round;fill-rule:evenodd;"
d="M 142525017.000000,99715835.000000
142525017.000000,103715835.000000
141525017.000000,104715835.000000
137025017.000000,104715835.000000
136025017.000000,103715835.000000
136025017.000000,99715835.000000
137025017.000000,98715835.000000
141525017.000000,98715835.000000
Z" /> 
<path style="fill:#000000; fill-opacity:1.0; 
stroke:#000000; stroke-width:120000.000000; stroke-opacity:1; 
stroke-linecap:round; stroke-linejoin:round;fill-rule:evenodd;"
d="M 118025017.000000,85215835.000000
118025017.000000,89215835.000000
117025017.000000,90215835.000000
112525017.000000,90215835.000000
111525017.000000,89215835.000000
111525017.000000,85215835.000000
112525017.000000,84215835.000000
117025017.000000,84215835.000000
Z" /> 
<path style="fill:#000000; fill-opacity:1.0; 
stroke:#000000; stroke-width:120000.000000; stroke-opacity:1; 
stroke-linecap:round; stroke-linejoin:round;fill-rule:evenodd;"
d="M 130025017.000000,90215835.000000
130025017.000000,100215835.000000
129025017.000000,103215835.000000
125025017.000000,103215835.000000
124025017.000000,100233482.000000
124025017.000000,90215835.000000
125025017.000000,87215835.000000
129025017.000000,87215835.000000
Z" /> 
<path style="fill:#000000; fill-opacity:1.0; 
stroke:#000000; stroke-width:120000.000000; stroke-opacity:1; 
stroke-linecap:round; stroke-linejoin:round;fill-rule:evenodd;"
d="M 190075017.000000,75765835.000000
190075017.000000,85765835.000000
189075017.000000,88765835.000000
185075017.000000,88765835.000000
184075017.000000,85783482.000000
184075017.000000,75765835.000000
185075017.000000,72765835.000000
189075017.000000,72765835.000000
Z" /> 
<path style="fill:#000000; fill-opacity:1.0; 
stroke:#000000; stroke-width:120000.000000; stroke-opacity:1; 
stroke-linecap:round; stroke-linejoin:round;fill-rule:evenodd;"
d="M 163938699.000000,86319749.000000
166526890.000000,95979007.000000
166337421.000000,99135604.000000
162473718.000000,100170880.000000
160735902.000000,97548967.000000
158143144.000000,87872663.000000
158332613.000000,84716066.000000
162196316.000000,83680790.000000
Z" /> 
<path style="fill:#000000; fill-opacity:1.0; 
stroke:#000000; stroke-width:120000.000000; stroke-opacity:1; 
stroke-linecap:round; stroke-linejoin:round;fill-rule:evenodd;"
d="M 95609682.000000,84720948.000000
95799151.000000,87877545.000000
93210960.000000,97536803.000000
91468577.000000,100175762.000000
87604874.000000,99140486.000000
87410838.000000,96000935.000000
90003596.000000,86324631.000000
91745979.000000,83685672.000000
Z" /> 
<path style="fill:#000000; fill-opacity:1.0; 
stroke:#000000; stroke-width:120000.000000; stroke-opacity:1; 
stroke-linecap:round; stroke-linejoin:round;fill-rule:evenodd;"
d="M 69835017.000000,75785835.000000
69835017.000000,85785835.000000
68835017.000000,88785835.000000
64835017.000000,88785835.000000
63835017.000000,85803482.000000
63835017.000000,75785835.000000
64835017.000000,72785835.000000
68835017.000000,72785835.000000
Z" /> 
<path style="fill:#000000; fill-opacity:1.0; 
stroke:#000000; stroke-width:120000.000000; stroke-opacity:1; 
stroke-linecap:round; stroke-linejoin:round;fill-rule:evenodd;"
d="M 242171199.000000,54390852.000000
243907681.000000,64238929.000000
243443818.000000,67367001.000000
239504587.000000,68061593.000000
238001899.000000,65298197.000000
236262353.000000,55432741.000000
236726216.000000,52304669.000000
240665447.000000,51610077.000000
Z" /> 
<path style="fill:#000000; fill-opacity:1.0; 
stroke:#000000; stroke-width:120000.000000; stroke-opacity:1; 
stroke-linecap:round; stroke-linejoin:round;fill-rule:evenodd;"
d="M 222801199.000000,54250852.000000
224537681.000000,64098929.000000
224073818.000000,67227001.000000
220134587.000000,67921593.000000
218631899.000000,65158197.000000
216892353.000000,55292741.000000
217356216.000000,52164669.000000
221295447.000000,51470077.000000
Z" /> 
<path style="fill:#000000; fill-opacity:1.0; 
stroke:#000000; stroke-width:120000.000000; stroke-opacity:1; 
stroke-linecap:round; stroke-linejoin:round;fill-rule:evenodd;"
d="M 203451199.000000,54090852.000000
205187681.000000,63938929.000000
204723818.000000,67067001.000000
200784587.000000,67761593.000000
199281899.000000,64998197.000000
197542353.000000,55132741.000000
198006216.000000,52004669.000000
201945447.000000,51310077.000000
Z" /> 
<path style="fill:#000000; fill-opacity:1.0; 
stroke:#000000; stroke-width:120000.000000; stroke-opacity:1; 
stroke-linecap:round; stroke-linejoin:round;fill-rule:evenodd;"
d="M 184061199.000000,53980852.000000
185797681.000000,63828929.000000
185333818.000000,66957001.000000
181394587.000000,67651593.000000
179891899.000000,64888197.000000
178152353.000000,55022741.000000
178616216.000000,51894669.000000
182555447.000000,51200077.000000
Z" /> 
<path style="fill:#000000; fill-opacity:1.0; 
stroke:#000000; stroke-width:120000.000000; stroke-opacity:1; 
stroke-linecap:round; stroke-linejoin:round;fill-rule:evenodd;"
d="M 165911199.000000,60700852.000000
167647681.000000,70548929.000000
167183818.000000,73677001.000000
163244587.000000,74371593.000000
161741899.000000,71608197.000000
160002353.000000,61742741.000000
160466216.000000,58614669.000000
164405447.000000,57920077.000000
Z" /> 
<path style="fill:#000000; fill-opacity:1.0; 
stroke:#000000; stroke-width:120000.000000; stroke-opacity:1; 
stroke-linecap:round; stroke-linejoin:round;fill-rule:evenodd;"
d="M 147781199.000000,67460852.000000
149517681.000000,77308929.000000
149053818.000000,80437001.000000
145114587.000000,81131593.000000
143611899.000000,78368197.000000
141872353.000000,68502741.000000
142336216.000000,65374669.000000
146275447.000000,64680077.000000
Z" /> 
<path style="fill:#000000; fill-opacity:1.0; 
stroke:#000000; stroke-width:120000.000000; stroke-opacity:1; 
stroke-linecap:round; stroke-linejoin:round;fill-rule:evenodd;"
d="M 238881199.000000,35600852.000000
240617681.000000,45448929.000000
240153818.000000,48577001.000000
236214587.000000,49271593.000000
234711899.000000,46508197.000000
232972353.000000,36642741.000000
233436216.000000,33514669.000000
237375447.000000,32820077.000000
Z" /> 
<path style="fill:#000000; fill-opacity:1.0; 
stroke:#000000; stroke-width:120000.000000; stroke-opacity:1; 
stroke-linecap:round; stroke-linejoin:round;fill-rule:evenodd;"
d="M 219491199.000000,35480852.000000
221227681.000000,45328929.000000
220763818.000000,48457001.000000
216824587.000000,49151593.000000
215321899.000000,46388197.000000
213582353.000000,36522741.000000
214046216.000000,33394669.000000
217985447.000000,32700077.000000
Z" /> 
<path style="fill:#000000; fill-opacity:1.0; 
stroke:#000000; stroke-width:120000.000000; stroke-opacity:1; 
stroke-linecap:round; stroke-linejoin:round;fill-rule:evenodd;"
d="M 200161199.000000,35320852.000000
201897681.000000,45168929.000000
201433818.000000,48297001.000000
197494587.000000,48991593.000000
195991899.000000,46228197.000000
194252353.000000,36362741.000000
194716216.000000,33234669.000000
198655447.000000,32540077.000000
Z" /> 
<path style="fill:#000000; fill-opacity:1.0; 
stroke:#000000; stroke-width:120000.000000; stroke-opacity:1; 
stroke-linecap:round; stroke-linejoin:round;fill-rule:evenodd;"
d="M 180731199.000000,35180852.000000
182467681.000000,45028929.000000
182003818.000000,48157001.000000
178064587.000000,48851593.000000
176561899.000000,46088197.000000
174822353.000000,36222741.000000
175286216.000000,33094669.000000
179225447.000000,32400077.000000
Z" /> 
<path style="fill:#000000; fill-opacity:1.0; 
stroke:#000000; stroke-width:120000.000000; stroke-opacity:1; 
stroke-linecap:round; stroke-linejoin:round;fill-rule:evenodd;"
d="M 162601199.000000,41950852.000000
164337681.000000,51798929.000000
163873818.000000,54927001.000000
159934587.000000,55621593.000000
158431899.000000,52858197.000000
156692353.000000,42992741.000000
157156216.000000,39864669.000000
161095447.000000,39170077.000000
Z" /> 
<path style="fill:#000000; fill-opacity:1.0; 
stroke:#000000; stroke-width:120000.000000; stroke-opacity:1; 
stroke-linecap:round; stroke-linejoin:round;fill-rule:evenodd;"
d="M 144431199.000000,48690852.000000
146167681.000000,58538929.000000
145703818.000000,61667001.000000
141764587.000000,62361593.000000
140261899.000000,59598197.000000
138522353.000000,49732741.000000
138986216.000000,46604669.000000
142925447.000000,45910077.000000
Z" /> 
<path style="fill:#000000; fill-opacity:1.0; 
stroke:#000000; stroke-width:120000.000000; stroke-opacity:1; 
stroke-linecap:round; stroke-linejoin:round;fill-rule:evenodd;"
d="M 235541199.000000,16870852.000000
237277681.000000,26718929.000000
236813818.000000,29847001.000000
232874587.000000,30541593.000000
231371899.000000,27778197.000000
229632353.000000,17912741.000000
230096216.000000,14784669.000000
234035447.000000,14090077.000000
Z" /> 
<path style="fill:#000000; fill-opacity:1.0; 
stroke:#000000; stroke-width:120000.000000; stroke-opacity:1; 
stroke-linecap:round; stroke-linejoin:round;fill-rule:evenodd;"
d="M 216201199.000000,16710852.000000
217937681.000000,26558929.000000
217473818.000000,29687001.000000
213534587.000000,30381593.000000
212031899.000000,27618197.000000
210292353.000000,17752741.000000
210756216.000000,14624669.000000
214695447.000000,13930077.000000
Z" /> 
<path style="fill:#000000; fill-opacity:1.0; 
stroke:#000000; stroke-width:120000.000000; stroke-opacity:1; 
stroke-linecap:round; stroke-linejoin:round;fill-rule:evenodd;"
d="M 196831199.000000,16580852.000000
198567681.000000,26428929.000000
198103818.000000,29557001.000000
194164587.000000,30251593.000000
192661899.000000,27488197.000000
190922353.000000,17622741.000000
191386216.000000,14494669.000000
195325447.000000,13800077.000000
Z" /> 
<path style="fill:#000000; fill-opacity:1.0; 
stroke:#000000; stroke-width:120000.000000; stroke-opacity:1; 
stroke-linecap:round; stroke-linejoin:round;fill-rule:evenodd;"
d="M 177441199.000000,16440852.000000
179177681.000000,26288929.000000
178713818.000000,29417001.000000
174774587.000000,30111593.000000
173271899.000000,27348197.000000
171532353.000000,17482741.000000
171996216.000000,14354669.000000
175935447.000000,13660077.000000
Z" /> 
<path style="fill:#000000; fill-opacity:1.0; 
stroke:#000000; stroke-width:120000.000000; stroke-opacity:1; 
stroke-linecap:round; stroke-linejoin:round;fill-rule:evenodd;"
d="M 159311199.000000,23180852.000000
161047681.000000,33028929.000000
160583818.000000,36157001.000000
156644587.000000,36851593.000000
155141899.000000,34088197.000000
153402353.000000,24222741.000000
153866216.000000,21094669.000000
157805447.000000,20400077.000000
Z" /> 
<path style="fill:#000000; fill-opacity:1.0; 
stroke:#000000; stroke-width:120000.000000; stroke-opacity:1; 
stroke-linecap:round; stroke-linejoin:round;fill-rule:evenodd;"
d="M 141161199.000000,29960852.000000
142897681.000000,39808929.000000
142433818.000000,42937001.000000
138494587.000000,43631593.000000
136991899.000000,40868197.000000
135252353.000000,31002741.000000
135716216.000000,27874669.000000
139655447.000000,27180077.000000
Z" /> 
<path style="fill:#000000; fill-opacity:1.0; 
stroke:#000000; stroke-width:120000.000000; stroke-opacity:1; 
stroke-linecap:round; stroke-linejoin:round;fill-rule:evenodd;"
d="M 111723818.000000,65394669.000000
112187681.000000,68522741.000000
110451199.000000,78370818.000000
108945447.000000,81151593.000000
105006216.000000,80457001.000000
104539288.000000,77346308.000000
106278835.000000,67480852.000000
107784587.000000,64700077.000000
Z" /> 
<path style="fill:#000000; fill-opacity:1.0; 
stroke:#000000; stroke-width:120000.000000; stroke-opacity:1; 
stroke-linecap:round; stroke-linejoin:round;fill-rule:evenodd;"
d="M 93573818.000000,58634669.000000
94037681.000000,61762741.000000
92301199.000000,71610818.000000
90795447.000000,74391593.000000
86856216.000000,73697001.000000
86389288.000000,70586308.000000
88128835.000000,60720852.000000
89634587.000000,57940077.000000
Z" /> 
<path style="fill:#000000; fill-opacity:1.0; 
stroke:#000000; stroke-width:120000.000000; stroke-opacity:1; 
stroke-linecap:round; stroke-linejoin:round;fill-rule:evenodd;"
d="M 75418438.000000,51883040.000000
75882301.000000,55011112.000000
74145819.000000,64859189.000000
72640067.000000,67639964.000000
68700836.000000,66945372.000000
68233908.000000,63834679.000000
69973455.000000,53969223.000000
71479207.000000,51188448.000000
Z" /> 
<path style="fill:#000000; fill-opacity:1.0; 
stroke:#000000; stroke-width:120000.000000; stroke-opacity:1; 
stroke-linecap:round; stroke-linejoin:round;fill-rule:evenodd;"
d="M 56033818.000000,52034669.000000
56497681.000000,55162741.000000
54761199.000000,65010818.000000
53255447.000000,67791593.000000
49316216.000000,67097001.000000
48849288.000000,63986308.000000
50588835.000000,54120852.000000
52094587.000000,51340077.000000
Z" /> 
<path style="fill:#000000; fill-opacity:1.0; 
stroke:#000000; stroke-width:120000.000000; stroke-opacity:1; 
stroke-linecap:round; stroke-linejoin:round;fill-rule:evenodd;"
d="M 36693818.000000,52144669.000000
37157681.000000,55272741.000000
35421199.000000,65120818.000000
33915447.000000,67901593.000000
29976216.000000,67207001.000000
29509288.000000,64096308.000000
31248835.000000,54230852.000000
32754587.000000,51450077.000000
Z" /> 
<path style="fill:#000000; fill-opacity:1.0; 
stroke:#000000; stroke-width:120000.000000; stroke-opacity:1; 
stroke-linecap:round; stroke-linejoin:round;fill-rule:evenodd;"
d="M 17293818.000000,52304669.000000
17757681.000000,55432741.000000
16021199.000000,65280818.000000
14515447.000000,68061593.000000
10576216.000000,67367001.000000
10109288.000000,64256308.000000
11848835.000000,54390852.000000
13354587.000000,51610077.000000
Z" /> 
<path style="fill:#000000; fill-opacity:1.0; 
stroke:#000000; stroke-width:120000.000000; stroke-opacity:1; 
stroke-linecap:round; stroke-linejoin:round;fill-rule:evenodd;"
d="M 115033818.000000,46624669.000000
115497681.000000,49752741.000000
113761199.000000,59600818.000000
112255447.000000,62381593.000000
108316216.000000,61687001.000000
107849288.000000,58576308.000000
109588835.000000,48710852.000000
111094587.000000,45930077.000000
Z" /> 
<path style="fill:#000000; fill-opacity:1.0; 
stroke:#000000; stroke-width:120000.000000; stroke-opacity:1; 
stroke-linecap:round; stroke-linejoin:round;fill-rule:evenodd;"
d="M 96883818.000000,39904669.000000
97347681.000000,43032741.000000
95611199.000000,52880818.000000
94105447.000000,55661593.000000
90166216.000000,54967001.000000
89699288.000000,51856308.000000
91438835.000000,41990852.000000
92944587.000000,39210077.000000
Z" /> 
<path style="fill:#000000; fill-opacity:1.0; 
stroke:#000000; stroke-width:120000.000000; stroke-opacity:1; 
stroke-linecap:round; stroke-linejoin:round;fill-rule:evenodd;"
d="M 78733818.000000,33124669.000000
79197681.000000,36252741.000000
77461199.000000,46100818.000000
75955447.000000,48881593.000000
72016216.000000,48187001.000000
71549288.000000,45076308.000000
73288835.000000,35210852.000000
74794587.000000,32430077.000000
Z" /> 
<path style="fill:#000000; fill-opacity:1.0; 
stroke:#000000; stroke-width:120000.000000; stroke-opacity:1; 
stroke-linecap:round; stroke-linejoin:round;fill-rule:evenodd;"
d="M 59373818.000000,33234669.000000
59837681.000000,36362741.000000
58101199.000000,46210818.000000
56595447.000000,48991593.000000
52656216.000000,48297001.000000
52189288.000000,45186308.000000
53928835.000000,35320852.000000
55434587.000000,32540077.000000
Z" /> 
<path style="fill:#000000; fill-opacity:1.0; 
stroke:#000000; stroke-width:120000.000000; stroke-opacity:1; 
stroke-linecap:round; stroke-linejoin:round;fill-rule:evenodd;"
d="M 39973818.000000,33394669.000000
40437681.000000,36522741.000000
38701199.000000,46370818.000000
37195447.000000,49151593.000000
33256216.000000,48457001.000000
32789288.000000,45346308.000000
34528835.000000,35480852.000000
36034587.000000,32700077.000000
Z" /> 
<path style="fill:#000000; fill-opacity:1.0; 
stroke:#000000; stroke-width:120000.000000; stroke-opacity:1; 
stroke-linecap:round; stroke-linejoin:round;fill-rule:evenodd;"
d="M 20613818.000000,33514669.000000
21077681.000000,36642741.000000
19341199.000000,46490818.000000
17835447.000000,49271593.000000
13896216.000000,48577001.000000
13429288.000000,45466308.000000
15168835.000000,35600852.000000
16674587.000000,32820077.000000
Z" /> 
<path style="fill:#000000; fill-opacity:1.0; 
stroke:#000000; stroke-width:120000.000000; stroke-opacity:1; 
stroke-linecap:round; stroke-linejoin:round;fill-rule:evenodd;"
d="M 118373818.000000,27874669.000000
118837681.000000,31002741.000000
117101199.000000,40850818.000000
115595447.000000,43631593.000000
111656216.000000,42937001.000000
111189288.000000,39826308.000000
112928835.000000,29960852.000000
114434587.000000,27180077.000000
Z" /> 
<path style="fill:#000000; fill-opacity:1.0; 
stroke:#000000; stroke-width:120000.000000; stroke-opacity:1; 
stroke-linecap:round; stroke-linejoin:round;fill-rule:evenodd;"
d="M 100203818.000000,21164669.000000
100667681.000000,24292741.000000
98931199.000000,34140818.000000
97425447.000000,36921593.000000
93486216.000000,36227001.000000
93019288.000000,33116308.000000
94758835.000000,23250852.000000
96264587.000000,20470077.000000
Z" /> 
<path style="fill:#000000; fill-opacity:1.0; 
stroke:#000000; stroke-width:120000.000000; stroke-opacity:1; 
stroke-linecap:round; stroke-linejoin:round;fill-rule:evenodd;"
d="M 82053818.000000,14374669.000000
82517681.000000,17502741.000000
80781199.000000,27350818.000000
79275447.000000,30131593.000000
75336216.000000,29437001.000000
74869288.000000,26326308.000000
76608835.000000,16460852.000000
78114587.000000,13680077.000000
Z" /> 
<path style="fill:#000000; fill-opacity:1.0; 
stroke:#000000; stroke-width:120000.000000; stroke-opacity:1; 
stroke-linecap:round; stroke-linejoin:round;fill-rule:evenodd;"
d="M 62683818.000000,14514669.000000
63147681.000000,17642741.000000
61411199.000000,27490818.000000
59905447.000000,30271593.000000
55966216.000000,29577001.000000
55499288.000000,26466308.000000
57238835.000000,16600852.000000
58744587.000000,13820077.000000
Z" /> 
<path style="fill:#000000; fill-opacity:1.0; 
stroke:#000000; stroke-width:120000.000000; stroke-opacity:1; 
stroke-linecap:round; stroke-linejoin:round;fill-rule:evenodd;"
d="M 43333818.000000,14674669.000000
43797681.000000,17802741.000000
42061199.000000,27650818.000000
40555447.000000,30431593.000000
36616216.000000,29737001.000000
36149288.000000,26626308.000000
37888835.000000,16760852.000000
39394587.000000,13980077.000000
Z" /> 
<path style="fill:#000000; fill-opacity:1.0; 
stroke:#000000; stroke-width:120000.000000; stroke-opacity:1; 
stroke-linecap:round; stroke-linejoin:round;fill-rule:evenodd;"
d="M 23943818.000000,14784669.000000
24407681.000000,17912741.000000
22671199.000000,27760818.000000
21165447.000000,30541593.000000
17226216.000000,29847001.000000
16759288.000000,26736308.000000
18498835.000000,16870852.000000
20004587.000000,14090077.000000
Z" /> 
<g >
</g>
<g >
</g>
<g >
</g>
<g >
</g>
<g >
</g>
<g >
</g>
<g >
</g>
<g >
</g>
<g >
</g>
<g >
</g>
<g >
</g>
<g >
</g>
<g >
</g>
<g >
</g>
<g >
</g>
<g >
</g>
<g >
</g>
<g >
</g>
<g >
</g>
<g >
</g>
<g >
</g>
<g >
</g>
<g >
</g>
<g >
</g>
<g >
</g>
<g >
</g>
<g >
</g>
<g >
</g>
<g >
</g>
<g >
</g>
<g >
</g>
<g >
</g>
<g >
</g>
<g >
</g>
<g >
</g>
<g >
</g>
<g >
</g>
<g >
</g>
<g >
</g>
<g >
</g>
<g >
</g>
<g >
</g>
<g >
</g>
<g >
</g>
<g >
</g>
<g >
</g>
<g >
</g>
<g >
</g>
<g >
</g>
<g >
</g>
<g >
</g>
<g >
</g>
<g >
</g>
<g >
</g>
<g >
</g>
<g >
</g>
<g >
</g>
<g >
</g>
<g >
</g>
<g >
</g>
<g >
</g>
<g >
</g>
<g >
</g>
<g >
</g>
<g >
</g>
<g >
</g>
<g >
</g>
<g >
</g>
<g >
</g>
<g >
</g>
<g >
</g>
<g >
</g>
<g >
</g>
<g >
</g>
<g >
</g>
<g >
</g>
<g >
</g>
<g >
</g>
<g >
</g>
<g >
</g>
<g >
</g>
<g >
</g>
<g >
</g>
<g >
</g>
<g >
</g>
<g >
</g>
<g >
</g>
<g >
</g>
<g >
</g>
<g >
</g>
<g >
</g>
<g >
</g>
<g >
</g>
<g >
</g>
<g >
</g>
<g >
</g>
<g >
</g>
<g >
</g>
<g >
</g>
<g >
</g>
<g >
</g>
<g >
</g>
<g >
</g>
<g >
</g>
<g >
</g>
<g >
</g>
<g >
</g>
<g >
</g>
<g >
</g>
<g >
</g>
<g >
</g>
<g >
</g>
<g >
</g>
<g >
</g>
</g> 
</svg>
