<?xml version="1.0" standalone="no"?>
 <!DOCTYPE svg PUBLIC "-//W3C//DTD SVG 1.1//EN" 
 "http://www.w3.org/Graphics/SVG/1.1/DTD/svg11.dtd"> 
<svg
  xmlns:svg="http://www.w3.org/2000/svg"
  xmlns="http://www.w3.org/2000/svg"
  xmlns:xlink="http://www.w3.org/1999/xlink"
  version="1.1"
  width="25.392380cm" height="10.746740cm" viewBox="0 0 253923800 107467400">
<title>SVG Picture created as reviung41-Nutzer_3.svg date 2022/05/08 10:20:32 </title>
  <desc>Picture generated by PCBNEW </desc>
<g style="fill:#000000; fill-opacity:1.000000;stroke:#000000; stroke-opacity:1.000000;
stroke-linecap:round; stroke-linejoin:round;"
 transform="translate(0 0) scale(1 1)">
</g>
<g style="fill:#000000; fill-opacity:0.0; 
stroke:#000000; stroke-width:0.000000; stroke-opacity:1; 
stroke-linecap:round; stroke-linejoin:round;">
</g>
<g style="fill:#000000; fill-opacity:0.0; 
stroke:#000000; stroke-width:100000.000000; stroke-opacity:1; 
stroke-linecap:round; stroke-linejoin:round;">
</g>
<g style="fill:#000000; fill-opacity:1.0; 
stroke:#000000; stroke-width:100000.000000; stroke-opacity:1; 
stroke-linecap:round; stroke-linejoin:round;">
<path style="fill:#000000; fill-opacity:1.0; 
stroke:#000000; stroke-width:100000.000000; stroke-opacity:1; 
stroke-linecap:round; stroke-linejoin:round;fill-rule:evenodd;"
d="M 130387017.000000,66801835.000000
123529017.000000,66801835.000000
123529017.000000,61467835.000000
130387017.000000,61467835.000000
Z" /> 
<path style="fill:#000000; fill-opacity:1.0; 
stroke:#000000; stroke-width:100000.000000; stroke-opacity:1; 
stroke-linecap:round; stroke-linejoin:round;fill-rule:evenodd;"
d="M 144961569.000000,8078353.000000
142623917.000000,21335835.000000
111106130.000000,15778399.000000
113443781.000000,2520917.000000
Z" /> 
<path style="fill:#000000; fill-opacity:1.0; 
stroke:#000000; stroke-width:100000.000000; stroke-opacity:1; 
stroke-linecap:round; stroke-linejoin:round;fill-rule:evenodd;"
d="M 161534649.000000,9885060.000000
161770292.000000,11474120.000000
161417439.000000,13475250.000000
160652516.000000,14887883.000000
153148282.000000,13564684.000000
152912639.000000,11975624.000000
153265493.000000,9974494.000000
154030415.000000,8561860.000000
Z" /> 
</g>
<g style="fill:#000000; fill-opacity:1.0; 
stroke:#000000; stroke-width:120000.000000; stroke-opacity:1; 
stroke-linecap:round; stroke-linejoin:round;">
<path style="fill:#000000; fill-opacity:1.0; 
stroke:#000000; stroke-width:120000.000000; stroke-opacity:1; 
stroke-linecap:round; stroke-linejoin:round;fill-rule:evenodd;"
d="M 118025017.000000,99715835.000000
118025017.000000,103715835.000000
117025017.000000,104715835.000000
112525017.000000,104715835.000000
111525017.000000,103715835.000000
111525017.000000,99715835.000000
112525017.000000,98715835.000000
117025017.000000,98715835.000000
Z" /> 
</g>
<g style="fill:#000000; fill-opacity:0.0; 
stroke:#000000; stroke-width:120000.000000; stroke-opacity:1; 
stroke-linecap:round; stroke-linejoin:round;">
<path style="fill:#000000; fill-opacity:0.0; 
stroke:#000000; stroke-width:120000.000000; stroke-opacity:1; 
stroke-linecap:round; stroke-linejoin:round;fill:none"
d="M 130525017.000000,90215835.000000
130525017.000000,100215835.000000
129525017.000000,103715835.000000
124525017.000000,103715835.000000
123525017.000000,100233482.000000
123525017.000000,90215835.000000
124525017.000000,86715835.000000
129525017.000000,86715835.000000
Z" /> 
</g>
<g style="fill:#000000; fill-opacity:1.0; 
stroke:#000000; stroke-width:120000.000000; stroke-opacity:1; 
stroke-linecap:round; stroke-linejoin:round;">
<path style="fill:#000000; fill-opacity:1.0; 
stroke:#000000; stroke-width:120000.000000; stroke-opacity:1; 
stroke-linecap:round; stroke-linejoin:round;fill-rule:evenodd;"
d="M 140525017.000000,84215835.000000
141525017.000000,84215835.000000
142525017.000000,85215835.000000
142525017.000000,89215835.000000
141525017.000000,90215835.000000
137025017.000000,90215835.000000
136025017.000000,89215835.000000
136025017.000000,87215835.000000
118025017.000000,87215835.000000
118025017.000000,89215835.000000
117025017.000000,90215835.000000
112525017.000000,90215835.000000
111525017.000000,89215835.000000
111525017.000000,85215835.000000
112525017.000000,84215835.000000
113525017.000000,84215835.000000
114025017.000000,83715835.000000
140025017.000000,83715835.000000
Z" /> 
<path style="fill:#000000; fill-opacity:1.0; 
stroke:#000000; stroke-width:120000.000000; stroke-opacity:1; 
stroke-linecap:round; stroke-linejoin:round;fill-rule:evenodd;"
d="M 142525017.000000,99715835.000000
142525017.000000,103715835.000000
141525017.000000,104715835.000000
137025017.000000,104715835.000000
136025017.000000,103715835.000000
136025017.000000,99715835.000000
137025017.000000,98715835.000000
141525017.000000,98715835.000000
Z" /> 
</g>
<g style="fill:#000000; fill-opacity:0.0; 
stroke:#000000; stroke-width:120000.000000; stroke-opacity:1; 
stroke-linecap:round; stroke-linejoin:round;">
<path style="fill:#000000; fill-opacity:0.0; 
stroke:#000000; stroke-width:120000.000000; stroke-opacity:1; 
stroke-linecap:round; stroke-linejoin:round;fill:none"
d="M 24523046.000000,14379090.000000
24900085.000000,17999565.000000
23163603.000000,27847642.000000
21571027.000000,31120821.000000
16646988.000000,30252580.000000
16266885.000000,26649484.000000
18006431.000000,16784028.000000
19599007.000000,13510849.000000
Z" /> 
<path style="fill:#000000; fill-opacity:0.0; 
stroke:#000000; stroke-width:120000.000000; stroke-opacity:1; 
stroke-linecap:round; stroke-linejoin:round;fill:none"
d="M 43913046.000000,14269090.000000
44290085.000000,17889565.000000
42553603.000000,27737642.000000
40961027.000000,31010821.000000
36036988.000000,30142580.000000
35656885.000000,26539484.000000
37396431.000000,16674028.000000
38989007.000000,13400849.000000
Z" /> 
<path style="fill:#000000; fill-opacity:0.0; 
stroke:#000000; stroke-width:120000.000000; stroke-opacity:1; 
stroke-linecap:round; stroke-linejoin:round;fill:none"
d="M 63263046.000000,14109090.000000
63640085.000000,17729565.000000
61903603.000000,27577642.000000
60311027.000000,30850821.000000
55386988.000000,29982580.000000
55006885.000000,26379484.000000
56746431.000000,16514028.000000
58339007.000000,13240849.000000
Z" /> 
<path style="fill:#000000; fill-opacity:0.0; 
stroke:#000000; stroke-width:120000.000000; stroke-opacity:1; 
stroke-linecap:round; stroke-linejoin:round;fill:none"
d="M 82633046.000000,13969090.000000
83010085.000000,17589565.000000
81273603.000000,27437642.000000
79681027.000000,30710821.000000
74756988.000000,29842580.000000
74376885.000000,26239484.000000
76116431.000000,16374028.000000
77709007.000000,13100849.000000
Z" /> 
<path style="fill:#000000; fill-opacity:0.0; 
stroke:#000000; stroke-width:120000.000000; stroke-opacity:1; 
stroke-linecap:round; stroke-linejoin:round;fill:none"
d="M 100783046.000000,20759090.000000
101160085.000000,24379565.000000
99423603.000000,34227642.000000
97831027.000000,37500821.000000
92906988.000000,36632580.000000
92526885.000000,33029484.000000
94266431.000000,23164028.000000
95859007.000000,19890849.000000
Z" /> 
<path style="fill:#000000; fill-opacity:0.0; 
stroke:#000000; stroke-width:120000.000000; stroke-opacity:1; 
stroke-linecap:round; stroke-linejoin:round;fill:none"
d="M 118953046.000000,27469090.000000
119330085.000000,31089565.000000
117593603.000000,40937642.000000
116001027.000000,44210821.000000
111076988.000000,43342580.000000
110696885.000000,39739484.000000
112436431.000000,29874028.000000
114029007.000000,26600849.000000
Z" /> 
<path style="fill:#000000; fill-opacity:0.0; 
stroke:#000000; stroke-width:120000.000000; stroke-opacity:1; 
stroke-linecap:round; stroke-linejoin:round;fill:none"
d="M 21193046.000000,33109090.000000
21570085.000000,36729565.000000
19833603.000000,46577642.000000
18241027.000000,49850821.000000
13316988.000000,48982580.000000
12936885.000000,45379484.000000
14676431.000000,35514028.000000
16269007.000000,32240849.000000
Z" /> 
<path style="fill:#000000; fill-opacity:0.0; 
stroke:#000000; stroke-width:120000.000000; stroke-opacity:1; 
stroke-linecap:round; stroke-linejoin:round;fill:none"
d="M 40553046.000000,32989090.000000
40930085.000000,36609565.000000
39193603.000000,46457642.000000
37601027.000000,49730821.000000
32676988.000000,48862580.000000
32296885.000000,45259484.000000
34036431.000000,35394028.000000
35629007.000000,32120849.000000
Z" /> 
<path style="fill:#000000; fill-opacity:0.0; 
stroke:#000000; stroke-width:120000.000000; stroke-opacity:1; 
stroke-linecap:round; stroke-linejoin:round;fill:none"
d="M 59953046.000000,32829090.000000
60330085.000000,36449565.000000
58593603.000000,46297642.000000
57001027.000000,49570821.000000
52076988.000000,48702580.000000
51696885.000000,45099484.000000
53436431.000000,35234028.000000
55029007.000000,31960849.000000
Z" /> 
<path style="fill:#000000; fill-opacity:0.0; 
stroke:#000000; stroke-width:120000.000000; stroke-opacity:1; 
stroke-linecap:round; stroke-linejoin:round;fill:none"
d="M 79313046.000000,32719090.000000
79690085.000000,36339565.000000
77953603.000000,46187642.000000
76361027.000000,49460821.000000
71436988.000000,48592580.000000
71056885.000000,44989484.000000
72796431.000000,35124028.000000
74389007.000000,31850849.000000
Z" /> 
<path style="fill:#000000; fill-opacity:0.0; 
stroke:#000000; stroke-width:120000.000000; stroke-opacity:1; 
stroke-linecap:round; stroke-linejoin:round;fill:none"
d="M 97463046.000000,39499090.000000
97840085.000000,43119565.000000
96103603.000000,52967642.000000
94511027.000000,56240821.000000
89586988.000000,55372580.000000
89206885.000000,51769484.000000
90946431.000000,41904028.000000
92539007.000000,38630849.000000
Z" /> 
<path style="fill:#000000; fill-opacity:0.0; 
stroke:#000000; stroke-width:120000.000000; stroke-opacity:1; 
stroke-linecap:round; stroke-linejoin:round;fill:none"
d="M 115613046.000000,46219090.000000
115990085.000000,49839565.000000
114253603.000000,59687642.000000
112661027.000000,62960821.000000
107736988.000000,62092580.000000
107356885.000000,58489484.000000
109096431.000000,48624028.000000
110689007.000000,45350849.000000
Z" /> 
<path style="fill:#000000; fill-opacity:0.0; 
stroke:#000000; stroke-width:120000.000000; stroke-opacity:1; 
stroke-linecap:round; stroke-linejoin:round;fill:none"
d="M 17873046.000000,51899090.000000
18250085.000000,55519565.000000
16513603.000000,65367642.000000
14921027.000000,68640821.000000
9996988.000000,67772580.000000
9616885.000000,64169484.000000
11356431.000000,54304028.000000
12949007.000000,51030849.000000
Z" /> 
<path style="fill:#000000; fill-opacity:0.0; 
stroke:#000000; stroke-width:120000.000000; stroke-opacity:1; 
stroke-linecap:round; stroke-linejoin:round;fill:none"
d="M 37273046.000000,51739090.000000
37650085.000000,55359565.000000
35913603.000000,65207642.000000
34321027.000000,68480821.000000
29396988.000000,67612580.000000
29016885.000000,64009484.000000
30756431.000000,54144028.000000
32349007.000000,50870849.000000
Z" /> 
<path style="fill:#000000; fill-opacity:0.0; 
stroke:#000000; stroke-width:120000.000000; stroke-opacity:1; 
stroke-linecap:round; stroke-linejoin:round;fill:none"
d="M 56613046.000000,51629090.000000
56990085.000000,55249565.000000
55253603.000000,65097642.000000
53661027.000000,68370821.000000
48736988.000000,67502580.000000
48356885.000000,63899484.000000
50096431.000000,54034028.000000
51689007.000000,50760849.000000
Z" /> 
<path style="fill:#000000; fill-opacity:0.0; 
stroke:#000000; stroke-width:120000.000000; stroke-opacity:1; 
stroke-linecap:round; stroke-linejoin:round;fill:none"
d="M 75997666.000000,51477461.000000
76374705.000000,55097936.000000
74638223.000000,64946013.000000
73045647.000000,68219192.000000
68121608.000000,67350951.000000
67741505.000000,63747855.000000
69481051.000000,53882399.000000
71073627.000000,50609220.000000
Z" /> 
<path style="fill:#000000; fill-opacity:0.0; 
stroke:#000000; stroke-width:120000.000000; stroke-opacity:1; 
stroke-linecap:round; stroke-linejoin:round;fill:none"
d="M 94153046.000000,58229090.000000
94530085.000000,61849565.000000
92793603.000000,71697642.000000
91201027.000000,74970821.000000
86276988.000000,74102580.000000
85896885.000000,70499484.000000
87636431.000000,60634028.000000
89229007.000000,57360849.000000
Z" /> 
<path style="fill:#000000; fill-opacity:0.0; 
stroke:#000000; stroke-width:120000.000000; stroke-opacity:1; 
stroke-linecap:round; stroke-linejoin:round;fill:none"
d="M 112303046.000000,64989090.000000
112680085.000000,68609565.000000
110943603.000000,78457642.000000
109351027.000000,81730821.000000
104426988.000000,80862580.000000
104046885.000000,77259484.000000
105786431.000000,67394028.000000
107379007.000000,64120849.000000
Z" /> 
<path style="fill:#000000; fill-opacity:0.0; 
stroke:#000000; stroke-width:120000.000000; stroke-opacity:1; 
stroke-linecap:round; stroke-linejoin:round;fill:none"
d="M 141653603.000000,29874028.000000
143390085.000000,39722105.000000
143013046.000000,43342580.000000
138089007.000000,44210821.000000
136499495.000000,40955021.000000
134759949.000000,31089565.000000
135136988.000000,27469090.000000
140061027.000000,26600849.000000
Z" /> 
<path style="fill:#000000; fill-opacity:0.0; 
stroke:#000000; stroke-width:120000.000000; stroke-opacity:1; 
stroke-linecap:round; stroke-linejoin:round;fill:none"
d="M 159803603.000000,23094028.000000
161540085.000000,32942105.000000
161163046.000000,36562580.000000
156239007.000000,37430821.000000
154649495.000000,34175021.000000
152909949.000000,24309565.000000
153286988.000000,20689090.000000
158211027.000000,19820849.000000
Z" /> 
<path style="fill:#000000; fill-opacity:0.0; 
stroke:#000000; stroke-width:120000.000000; stroke-opacity:1; 
stroke-linecap:round; stroke-linejoin:round;fill:none"
d="M 177933603.000000,16354028.000000
179670085.000000,26202105.000000
179293046.000000,29822580.000000
174369007.000000,30690821.000000
172779495.000000,27435021.000000
171039949.000000,17569565.000000
171416988.000000,13949090.000000
176341027.000000,13080849.000000
Z" /> 
<path style="fill:#000000; fill-opacity:0.0; 
stroke:#000000; stroke-width:120000.000000; stroke-opacity:1; 
stroke-linecap:round; stroke-linejoin:round;fill:none"
d="M 197323603.000000,16494028.000000
199060085.000000,26342105.000000
198683046.000000,29962580.000000
193759007.000000,30830821.000000
192169495.000000,27575021.000000
190429949.000000,17709565.000000
190806988.000000,14089090.000000
195731027.000000,13220849.000000
Z" /> 
<path style="fill:#000000; fill-opacity:0.0; 
stroke:#000000; stroke-width:120000.000000; stroke-opacity:1; 
stroke-linecap:round; stroke-linejoin:round;fill:none"
d="M 216693603.000000,16624028.000000
218430085.000000,26472105.000000
218053046.000000,30092580.000000
213129007.000000,30960821.000000
211539495.000000,27705021.000000
209799949.000000,17839565.000000
210176988.000000,14219090.000000
215101027.000000,13350849.000000
Z" /> 
<path style="fill:#000000; fill-opacity:0.0; 
stroke:#000000; stroke-width:120000.000000; stroke-opacity:1; 
stroke-linecap:round; stroke-linejoin:round;fill:none"
d="M 236033603.000000,16784028.000000
237770085.000000,26632105.000000
237393046.000000,30252580.000000
232469007.000000,31120821.000000
230879495.000000,27865021.000000
229139949.000000,17999565.000000
229516988.000000,14379090.000000
234441027.000000,13510849.000000
Z" /> 
<path style="fill:#000000; fill-opacity:0.0; 
stroke:#000000; stroke-width:120000.000000; stroke-opacity:1; 
stroke-linecap:round; stroke-linejoin:round;fill:none"
d="M 144923603.000000,48604028.000000
146660085.000000,58452105.000000
146283046.000000,62072580.000000
141359007.000000,62940821.000000
139769495.000000,59685021.000000
138029949.000000,49819565.000000
138406988.000000,46199090.000000
143331027.000000,45330849.000000
Z" /> 
<path style="fill:#000000; fill-opacity:0.0; 
stroke:#000000; stroke-width:120000.000000; stroke-opacity:1; 
stroke-linecap:round; stroke-linejoin:round;fill:none"
d="M 163093603.000000,41864028.000000
164830085.000000,51712105.000000
164453046.000000,55332580.000000
159529007.000000,56200821.000000
157939495.000000,52945021.000000
156199949.000000,43079565.000000
156576988.000000,39459090.000000
161501027.000000,38590849.000000
Z" /> 
<path style="fill:#000000; fill-opacity:0.0; 
stroke:#000000; stroke-width:120000.000000; stroke-opacity:1; 
stroke-linecap:round; stroke-linejoin:round;fill:none"
d="M 181223603.000000,35094028.000000
182960085.000000,44942105.000000
182583046.000000,48562580.000000
177659007.000000,49430821.000000
176069495.000000,46175021.000000
174329949.000000,36309565.000000
174706988.000000,32689090.000000
179631027.000000,31820849.000000
Z" /> 
<path style="fill:#000000; fill-opacity:0.0; 
stroke:#000000; stroke-width:120000.000000; stroke-opacity:1; 
stroke-linecap:round; stroke-linejoin:round;fill:none"
d="M 200653603.000000,35234028.000000
202390085.000000,45082105.000000
202013046.000000,48702580.000000
197089007.000000,49570821.000000
195499495.000000,46315021.000000
193759949.000000,36449565.000000
194136988.000000,32829090.000000
199061027.000000,31960849.000000
Z" /> 
<path style="fill:#000000; fill-opacity:0.0; 
stroke:#000000; stroke-width:120000.000000; stroke-opacity:1; 
stroke-linecap:round; stroke-linejoin:round;fill:none"
d="M 219983603.000000,35394028.000000
221720085.000000,45242105.000000
221343046.000000,48862580.000000
216419007.000000,49730821.000000
214829495.000000,46475021.000000
213089949.000000,36609565.000000
213466988.000000,32989090.000000
218391027.000000,32120849.000000
Z" /> 
<path style="fill:#000000; fill-opacity:0.0; 
stroke:#000000; stroke-width:120000.000000; stroke-opacity:1; 
stroke-linecap:round; stroke-linejoin:round;fill:none"
d="M 239373603.000000,35514028.000000
241110085.000000,45362105.000000
240733046.000000,48982580.000000
235809007.000000,49850821.000000
234219495.000000,46595021.000000
232479949.000000,36729565.000000
232856988.000000,33109090.000000
237781027.000000,32240849.000000
Z" /> 
<path style="fill:#000000; fill-opacity:0.0; 
stroke:#000000; stroke-width:120000.000000; stroke-opacity:1; 
stroke-linecap:round; stroke-linejoin:round;fill:none"
d="M 148273603.000000,67374028.000000
150010085.000000,77222105.000000
149633046.000000,80842580.000000
144709007.000000,81710821.000000
143119495.000000,78455021.000000
141379949.000000,68589565.000000
141756988.000000,64969090.000000
146681027.000000,64100849.000000
Z" /> 
<path style="fill:#000000; fill-opacity:0.0; 
stroke:#000000; stroke-width:120000.000000; stroke-opacity:1; 
stroke-linecap:round; stroke-linejoin:round;fill:none"
d="M 166403603.000000,60614028.000000
168140085.000000,70462105.000000
167763046.000000,74082580.000000
162839007.000000,74950821.000000
161249495.000000,71695021.000000
159509949.000000,61829565.000000
159886988.000000,58209090.000000
164811027.000000,57340849.000000
Z" /> 
<path style="fill:#000000; fill-opacity:0.0; 
stroke:#000000; stroke-width:120000.000000; stroke-opacity:1; 
stroke-linecap:round; stroke-linejoin:round;fill:none"
d="M 184553603.000000,53894028.000000
186290085.000000,63742105.000000
185913046.000000,67362580.000000
180989007.000000,68230821.000000
179399495.000000,64975021.000000
177659949.000000,55109565.000000
178036988.000000,51489090.000000
182961027.000000,50620849.000000
Z" /> 
<path style="fill:#000000; fill-opacity:0.0; 
stroke:#000000; stroke-width:120000.000000; stroke-opacity:1; 
stroke-linecap:round; stroke-linejoin:round;fill:none"
d="M 203943603.000000,54004028.000000
205680085.000000,63852105.000000
205303046.000000,67472580.000000
200379007.000000,68340821.000000
198789495.000000,65085021.000000
197049949.000000,55219565.000000
197426988.000000,51599090.000000
202351027.000000,50730849.000000
Z" /> 
<path style="fill:#000000; fill-opacity:0.0; 
stroke:#000000; stroke-width:120000.000000; stroke-opacity:1; 
stroke-linecap:round; stroke-linejoin:round;fill:none"
d="M 223293603.000000,54164028.000000
225030085.000000,64012105.000000
224653046.000000,67632580.000000
219729007.000000,68500821.000000
218139495.000000,65245021.000000
216399949.000000,55379565.000000
216776988.000000,51759090.000000
221701027.000000,50890849.000000
Z" /> 
<path style="fill:#000000; fill-opacity:0.0; 
stroke:#000000; stroke-width:120000.000000; stroke-opacity:1; 
stroke-linecap:round; stroke-linejoin:round;fill:none"
d="M 242663603.000000,54304028.000000
244400085.000000,64152105.000000
244023046.000000,67772580.000000
239099007.000000,68640821.000000
237509495.000000,65385021.000000
235769949.000000,55519565.000000
236146988.000000,51899090.000000
241071027.000000,51030849.000000
Z" /> 
<path style="fill:#000000; fill-opacity:0.0; 
stroke:#000000; stroke-width:120000.000000; stroke-opacity:1; 
stroke-linecap:round; stroke-linejoin:round;fill:none"
d="M 70335017.000000,75785835.000000
70335017.000000,85785835.000000
69335017.000000,89285835.000000
64335017.000000,89285835.000000
63335017.000000,85803482.000000
63335017.000000,75785835.000000
64335017.000000,72285835.000000
69335017.000000,72285835.000000
Z" /> 
<path style="fill:#000000; fill-opacity:0.0; 
stroke:#000000; stroke-width:120000.000000; stroke-opacity:1; 
stroke-linecap:round; stroke-linejoin:round;fill:none"
d="M 96222054.000000,84367395.000000
96282114.000000,88006955.000000
93693923.000000,97666213.000000
91822131.000000,100788134.000000
86992502.000000,99494039.000000
86927875.000000,95871525.000000
89520633.000000,86195221.000000
91392425.000000,83073300.000000
Z" /> 
<path style="fill:#000000; fill-opacity:0.0; 
stroke:#000000; stroke-width:120000.000000; stroke-opacity:1; 
stroke-linecap:round; stroke-linejoin:round;fill:none"
d="M 164421662.000000,86190339.000000
167009853.000000,95849597.000000
166949793.000000,99489157.000000
162120164.000000,100783252.000000
160252939.000000,97678376.000000
157660181.000000,88002073.000000
157720241.000000,84362513.000000
162549870.000000,83068418.000000
Z" /> 
<path style="fill:#000000; fill-opacity:0.0; 
stroke:#000000; stroke-width:120000.000000; stroke-opacity:1; 
stroke-linecap:round; stroke-linejoin:round;fill:none"
d="M 190575017.000000,75765835.000000
190575017.000000,85765835.000000
189575017.000000,89265835.000000
184575017.000000,89265835.000000
183575017.000000,85783482.000000
183575017.000000,75765835.000000
184575017.000000,72265835.000000
189575017.000000,72265835.000000
Z" /> 
<g >
</g>
<g >
</g>
<g >
</g>
<g >
</g>
<g >
</g>
<g >
</g>
<g >
</g>
<g >
</g>
<g >
</g>
<g >
</g>
<g >
</g>
<g >
</g>
<g >
</g>
<g >
</g>
<g >
</g>
<g >
</g>
<g >
</g>
<g >
</g>
<g >
</g>
<g >
</g>
<g >
</g>
<g >
</g>
<g >
</g>
<g >
</g>
<g >
</g>
<g >
</g>
<g >
</g>
<g >
</g>
<g >
</g>
<g >
</g>
<g >
</g>
<g >
</g>
<g >
</g>
<g >
</g>
<g >
</g>
<g >
</g>
<g >
</g>
<g >
</g>
<g >
</g>
<g >
</g>
<g >
</g>
<g >
</g>
<g >
</g>
<g >
</g>
<g >
</g>
<g >
</g>
<g >
</g>
<g >
</g>
<g >
</g>
<g >
</g>
<g >
</g>
<g >
</g>
<g >
</g>
<g >
</g>
<g >
</g>
<g >
</g>
<g >
</g>
<g >
</g>
<g >
</g>
<g >
</g>
<g >
</g>
<g >
</g>
<g >
</g>
<g >
</g>
<g >
</g>
<g >
</g>
<g >
</g>
<g >
</g>
<g >
</g>
<g >
</g>
<g >
</g>
<g >
</g>
<g >
</g>
<g >
</g>
<g >
</g>
<g >
</g>
<g >
</g>
<g >
</g>
<g >
</g>
<g >
</g>
<g >
</g>
<g >
</g>
<g >
</g>
<g >
</g>
<g >
</g>
<g >
</g>
<g >
</g>
<g >
</g>
<g >
</g>
<g >
</g>
<g >
</g>
<g >
</g>
<g >
</g>
<g >
</g>
<g >
</g>
<g >
</g>
<g >
</g>
<g >
</g>
<g >
</g>
<g >
</g>
<g >
</g>
<g >
</g>
<g >
</g>
<g >
</g>
<g >
</g>
<g >
</g>
<g >
</g>
<g >
</g>
<g >
</g>
<g >
</g>
<g >
</g>
<g >
</g>
<g >
</g>
<g >
</g>
</g> 
</svg>
