<?xml version="1.0" standalone="no"?>
 <!DOCTYPE svg PUBLIC "-//W3C//DTD SVG 1.1//EN" 
 "http://www.w3.org/Graphics/SVG/1.1/DTD/svg11.dtd"> 
<svg
  xmlns:svg="http://www.w3.org/2000/svg"
  xmlns="http://www.w3.org/2000/svg"
  xmlns:xlink="http://www.w3.org/1999/xlink"
  version="1.1"
  width="25.392380cm" height="10.746740cm" viewBox="0 0 253923800 107467400">
<title>SVG Picture created as reviung41-Edge_Cuts.svg date 2022/05/04 18:13:15 </title>
  <desc>Picture generated by PCBNEW </desc>
<g style="fill:#000000; fill-opacity:1.000000;stroke:#000000; stroke-opacity:1.000000;
stroke-linecap:round; stroke-linejoin:round;"
 transform="translate(0 0) scale(1 1)">
</g>
<g style="fill:#000000; fill-opacity:0.0; 
stroke:#000000; stroke-width:0.000000; stroke-opacity:1; 
stroke-linecap:round; stroke-linejoin:round;">
</g>
<g style="fill:#000000; fill-opacity:0.0; 
stroke:#000000; stroke-width:100000.000000; stroke-opacity:1; 
stroke-linecap:round; stroke-linejoin:round;">
<path d="M13101961.000000,8782665.000000 C11646642.000000,8782662.000000 10401219.000000,9827166.000000 10147792.000000,11260249.000000" />
<path d="M53871221.000000,75700224.000000 C54347957.000000,75785563.000000 54695017.000000,76200264.000000 54695017.000000,76684578.000000" />
<path d="M30801374.000000,71719311.000000 C31053274.000000,71666190.000000 31313060.000000,71662201.000000 31566472.000000,71707563.000000" />
<path d="M243805467.000000,11261810.000000 C243552642.000000,9828064.000000 242306918.000000,8782789.000000 240851050.000000,8782789.000000" />
<path d="M199262850.000000,91935835.000000 C199262850.000000,91935835.000000 199262850.000000,76675425.000000 199262850.000000,76675425.000000" />
<path d="M76542723.000000,100048076.000000 C76658166.000000,100345453.000000 76908561.000000,100569909.000000 77216744.000000,100652274.000000" />
<path d="M112081781.000000,1137236.000000 C112081781.000000,1137236.000000 109342508.000000,16676628.000000 109342508.000000,16676628.000000" />
<path d="M180842896.000000,92935835.000000 C180842896.000000,92935835.000000 198262850.000000,92935835.000000 198262850.000000,92935835.000000" />
<path d="M31566472.000000,71707563.000000 C31566472.000000,71707563.000000 53871221.000000,75700224.000000 53871221.000000,75700224.000000" />
<path d="M223184390.000000,71717656.000000 C223184390.000000,71717656.000000 231601505.000000,73502888.000000 231601505.000000,73502888.000000" />
<path d="M10147792.000000,11260249.000000 C10147792.000000,11260249.000000 338686.000000,66728872.000000 338686.000000,66728872.000000" />
<path d="M179910392.000000,93574676.000000 C180059521.000000,93189628.000000 180429978.000000,92935835.000000 180842896.000000,92935835.000000" />
<path d="M21580901.000000,73516372.000000 C21832522.000000,73560661.000000 22090299.000000,73556328.000000 22340290.000000,73503610.000000" />
<path d="M92908243.000000,12550491.000000 C92774606.000000,12242960.000000 92495733.000000,12022876.000000 92165564.000000,11964374.000000" />
<path d="M161591722.000000,8782789.000000 C161591722.000000,8782789.000000 113240259.000000,326027.000000 113240259.000000,326027.000000" />
<path d="M177403371.000000,100047735.000000 C177403371.000000,100047735.000000 179910392.000000,93574676.000000 179910392.000000,93574676.000000" />
<path d="M2772800.000000,70205869.000000 C2772800.000000,70205869.000000 21580901.000000,73516372.000000 21580901.000000,73516372.000000" />
<path d="M251152832.000000,70205980.000000 C252784750.000000,69918487.000000 253874520.000000,68362368.000000 253586758.000000,66730498.000000" />
<path d="M253586758.000000,66730498.000000 C253586758.000000,66730498.000000 243805467.000000,11261810.000000 243805467.000000,11261810.000000" />
<path d="M231601505.000000,73502888.000000 C231852297.000000,73556080.000000 232110977.000000,73560558.000000 232363459.000000,73516079.000000" />
<path d="M199262850.000000,76675425.000000 C199262850.000000,76190921.000000 199610176.000000,75776114.000000 200087142.000000,75690982.000000" />
<path d="M338686.000000,66728872.000000 C50000.000000,68361336.000000 1140106.000000,69918491.000000 2772800.000000,70205869.000000" />
<path d="M151589748.000000,107383597.000000 C151589748.000000,107383597.000000 176729503.000000,100652550.000000 176729503.000000,100652550.000000" />
<path d="M73097204.000000,92935835.000000 C73509835.000000,92935835.000000 73880096.000000,93189280.000000 74029424.000000,93573942.000000" />
<path d="M94479815.000000,15046092.000000 C94150036.000000,14987334.000000 93871580.000000,14767362.000000 93738078.000000,14460142.000000" />
<path d="M22340290.000000,73503610.000000 C22340290.000000,73503610.000000 30801374.000000,71719311.000000 30801374.000000,71719311.000000" />
<path d="M77216744.000000,100652274.000000 C77216744.000000,100652274.000000 102403086.000000,107383597.000000 102403086.000000,107383597.000000" />
<path d="M74029424.000000,93573942.000000 C74029424.000000,93573942.000000 76542723.000000,100048076.000000 76542723.000000,100048076.000000" />
<path d="M93738078.000000,14460142.000000 C93738078.000000,14460142.000000 92908243.000000,12550491.000000 92908243.000000,12550491.000000" />
<path d="M74209445.000000,8782789.000000 C74209445.000000,8782789.000000 13101961.000000,8782665.000000 13101961.000000,8782665.000000" />
<path d="M200087142.000000,75690982.000000 C200087142.000000,75690982.000000 222418013.000000,71705250.000000 222418013.000000,71705250.000000" />
<path d="M222418013.000000,71705250.000000 C222671883.000000,71659938.000000 222932120.000000,71664150.000000 223184390.000000,71717656.000000" />
<path d="M176729503.000000,100652550.000000 C177037762.000000,100570015.000000 177288119.000000,100345313.000000 177403371.000000,100047735.000000" />
<path d="M232363459.000000,73516079.000000 C232363459.000000,73516079.000000 251152832.000000,70205980.000000 251152832.000000,70205980.000000" />
<path d="M198262850.000000,92935835.000000 C198815135.000000,92935835.000000 199262850.000000,92488120.000000 199262850.000000,91935835.000000" />
<path d="M102403086.000000,107383597.000000 C102403086.000000,107383597.000000 151589748.000000,107383597.000000 151589748.000000,107383597.000000" />
<path d="M92165564.000000,11964374.000000 C92165564.000000,11964374.000000 74209445.000000,8782789.000000 74209445.000000,8782789.000000" />
<path d="M109342508.000000,16676628.000000 C109246506.000000,17221234.000000 108726709.000000,17584524.000000 108182281.000000,17487521.000000" />
<path d="M113240259.000000,326027.000000 C112696342.000000,230116.000000 112177664.000000,593314.000000 112081781.000000,1137236.000000" />
<path d="M54695017.000000,76684578.000000 C54695017.000000,76684578.000000 54695017.000000,91935835.000000 54695017.000000,91935835.000000" />
<path d="M108182281.000000,17487521.000000 C108182281.000000,17487521.000000 94479815.000000,15046092.000000 94479815.000000,15046092.000000" />
<path d="M240851050.000000,8782789.000000 C240851050.000000,8782789.000000 161591722.000000,8782789.000000 161591722.000000,8782789.000000" />
<path d="M55695017.000000,92935835.000000 C55695017.000000,92935835.000000 73097204.000000,92935835.000000 73097204.000000,92935835.000000" />
<path d="M54695017.000000,91935835.000000 C54695017.000000,92488120.000000 55142732.000000,92935835.000000 55695017.000000,92935835.000000" />
<g >
</g>
<g >
</g>
<g >
</g>
<g >
</g>
<g >
</g>
<g >
</g>
<g >
</g>
<g >
</g>
<g >
</g>
<g >
</g>
<g >
</g>
<g >
</g>
<g >
</g>
<g >
</g>
<g >
</g>
<g >
</g>
<g >
</g>
<g >
</g>
<g >
</g>
<g >
</g>
<g >
</g>
<g >
</g>
<g >
</g>
<g >
</g>
<g >
</g>
<g >
</g>
<g >
</g>
<g >
</g>
<g >
</g>
<g >
</g>
<g >
</g>
<g >
</g>
<g >
</g>
<g >
</g>
<g >
</g>
<g >
</g>
<g >
</g>
<g >
</g>
<g >
</g>
<g >
</g>
<g >
</g>
<g >
</g>
<g >
</g>
<g >
</g>
<g >
</g>
<g >
</g>
<g >
</g>
<g >
</g>
<g >
</g>
<g >
</g>
<g >
</g>
<g >
</g>
<g >
</g>
<g >
</g>
<g >
</g>
<g >
</g>
<g >
</g>
<g >
</g>
<g >
</g>
<g >
</g>
<g >
</g>
<g >
</g>
<g >
</g>
<g >
</g>
<g >
</g>
<g >
</g>
<g >
</g>
<g >
</g>
<g >
</g>
<g >
</g>
<g >
</g>
<g >
</g>
<g >
</g>
<g >
</g>
<g >
</g>
<g >
</g>
<g >
</g>
<g >
</g>
<g >
</g>
<g >
</g>
<g >
</g>
<g >
</g>
<g >
</g>
<g >
</g>
<g >
</g>
<g >
</g>
<g >
</g>
<g >
</g>
<g >
</g>
<g >
</g>
<g >
</g>
<g >
</g>
<g >
</g>
<g >
</g>
<g >
</g>
<g >
</g>
<g >
</g>
<g >
</g>
<g >
</g>
<g >
</g>
<g >
</g>
<g >
</g>
<g >
</g>
<g >
</g>
<g >
</g>
<g >
</g>
<g >
</g>
<g >
</g>
<g >
</g>
<g >
</g>
<g >
</g>
<g >
</g>
<g >
</g>
<g >
</g>
</g> 
</svg>
