<?xml version="1.0" standalone="no"?>
 <!DOCTYPE svg PUBLIC "-//W3C//DTD SVG 1.1//EN" 
 "http://www.w3.org/Graphics/SVG/1.1/DTD/svg11.dtd"> 
<svg
  xmlns:svg="http://www.w3.org/2000/svg"
  xmlns="http://www.w3.org/2000/svg"
  xmlns:xlink="http://www.w3.org/1999/xlink"
  version="1.1"
  width="151.5364mm" height="121.1326mm" viewBox="0.0000 0.0000 151.5364 121.1326">
<title>SVG Image created as taira-bottom-plate-User_Comments.svg date 2023/04/08 22:18:12 </title>
  <desc>Image generated by PCBNEW </desc>
<g style="fill:#000000; fill-opacity:1.0000;stroke:#000000; stroke-opacity:1.0000;
stroke-linecap:round; stroke-linejoin:round;"
 transform="translate(0 0) scale(1 1)">
</g>
<g style="fill:#000000; fill-opacity:0.0; 
stroke:#000000; stroke-width:0.0000; stroke-opacity:1; 
stroke-linecap:round; stroke-linejoin:round;">
<g >
</g>
<g >
</g>
<g >
</g>
<g >
</g>
<g >
</g>
<g >
</g>
<g >
</g>
<g >
</g>
<g >
</g>
<g >
</g>
<g >
</g>
<g style="fill:#000000; fill-opacity:0.0; 
stroke:#000000; stroke-width:0.0000; stroke-opacity:1; 
stroke-linecap:round; stroke-linejoin:round;">
<g >
</g>
<g style="fill:#000000; fill-opacity:1.0000; 
stroke:#000000; stroke-width:0.0000; stroke-opacity:1; 
stroke-linecap:round; stroke-linejoin:round;">
<path style="fill:#000000; fill-opacity:1.0000; 
stroke:#000000; stroke-width:0.0000; stroke-opacity:1; 
stroke-linecap:round; stroke-linejoin:round;fill-rule:evenodd;"
d="M 75.2669,0.0001
75.3072,0.0013
75.3417,0.0073
75.4201,0.0328
75.4547,0.0504
75.5198,0.0977
75.5472,0.1252
75.5946,0.1903
75.6122,0.2249
75.6377,0.3033
75.6437,0.3378
75.6449,0.3781
75.6450,0.3819
75.6450,2.0030
75.6469,2.0629
75.6839,2.1768
75.7543,2.2737
75.8512,2.3441
75.9651,2.3811
76.0250,2.3830
94.2581,2.3830
94.2619,2.3831
94.3022,2.3843
94.3367,2.3903
94.4151,2.4158
94.4497,2.4334
94.5148,2.4808
94.5422,2.5082
94.5896,2.5733
94.6072,2.6079
94.6327,2.6863
94.6387,2.7208
94.6399,2.7611
94.6400,2.7649
94.6400,5.3620
94.6419,5.4219
94.6789,5.5358
94.7493,5.6327
94.8462,5.7031
94.9601,5.7401
95.0200,5.7420
111.3631,5.7430
111.3650,5.7430
111.5065,5.7453
111.5208,5.7463
111.8024,5.7834
111.8183,5.7865
112.0918,5.8598
112.1071,5.8650
112.3687,5.9734
112.3832,5.9805
112.6284,6.1221
112.6419,6.1311
112.8665,6.3034
112.8787,6.3141
113.0789,6.5143
113.0896,6.5265
113.2619,6.7511
113.2709,6.7646
113.4125,7.0098
113.4196,7.0243
113.5280,7.2859
113.5332,7.3012
113.6065,7.5747
113.6096,7.5906
113.6467,7.8722
113.6477,7.8865
113.6500,8.0280
113.6500,8.0299
113.6500,18.6570
113.6524,18.8067
113.6914,19.1035
113.7689,19.3926
113.8835,19.6692
114.0332,19.9284
114.2154,20.1659
114.4271,20.3776
114.6646,20.5598
114.9238,20.7095
115.2004,20.8241
115.4895,20.9016
115.7863,20.9406
115.9360,20.9430
133.5031,20.9430
133.5050,20.9430
133.6465,20.9453
133.6608,20.9463
133.9424,20.9834
133.9583,20.9865
134.2318,21.0598
134.2471,21.0650
134.5087,21.1734
134.5232,21.1805
134.7684,21.3221
134.7819,21.3311
135.0065,21.5034
135.0187,21.5141
135.2189,21.7143
135.2296,21.7265
135.4019,21.9511
135.4109,21.9646
135.5525,22.2098
135.5596,22.2243
135.6680,22.4859
135.6732,22.5012
135.7465,22.7747
135.7496,22.7906
135.7867,23.0722
135.7877,23.0865
135.7900,23.2280
135.7900,23.2299
135.7900,81.2440
150.8704,89.9717
150.8813,89.9788
150.9676,90.0417
150.9807,90.0527
151.1428,90.2092
151.1557,90.2237
151.2906,90.4027
151.3010,90.4191
151.4063,90.6170
151.4141,90.6349
151.4871,90.8468
151.4919,90.8656
151.5309,91.0863
151.5327,91.1057
151.5367,91.3298
151.5355,91.3492
151.5043,91.5712
151.5001,91.5902
151.4346,91.8046
151.4275,91.8227
151.3288,92.0252
151.3202,92.0400
151.2570,92.1340
134.8394,120.5724
134.8296,120.5869
134.7691,120.6641
134.7574,120.6771
134.6041,120.8242
134.5887,120.8368
134.4149,120.9569
134.3978,120.9669
134.2070,121.0578
134.1885,121.0649
133.9857,121.1242
133.9663,121.1283
133.7567,121.1546
133.7369,121.1555
133.5257,121.1480
133.5060,121.1458
133.2987,121.1048
133.2796,121.0994
133.0815,121.0259
133.0635,121.0175
132.8787,120.9128
132.8641,120.9032
132.7795,120.8379
91.1200,96.7830
2.2869,96.7830
2.2850,96.7830
2.1435,96.7807
2.1292,96.7797
1.8476,96.7426
1.8317,96.7395
1.5582,96.6662
1.5429,96.6610
1.2813,96.5526
1.2668,96.5455
1.0216,96.4039
1.0081,96.3949
0.7835,96.2226
0.7713,96.2119
0.5711,96.0117
0.5604,95.9995
0.3881,95.7749
0.3791,95.7614
0.2375,95.5162
0.2304,95.5017
0.1220,95.2401
0.1168,95.2248
0.0435,94.9513
0.0404,94.9354
0.0033,94.6538
0.0023,94.6395
0.0000,94.4980
0.0000,94.4961
0.0000,9.4349
0.0000,9.4330
0.0023,9.2915
0.0033,9.2772
0.0404,8.9956
0.0435,8.9797
0.1168,8.7062
0.1220,8.6909
0.2304,8.4293
0.2375,8.4148
0.3791,8.1696
0.3881,8.1561
0.5604,7.9315
0.5711,7.9193
0.7713,7.7191
0.7835,7.7084
1.0081,7.5361
1.0216,7.5271
1.2668,7.3855
1.2813,7.3784
1.5429,7.2700
1.5582,7.2648
1.8317,7.1915
1.8476,7.1884
2.1292,7.1513
2.1435,7.1503
2.2850,7.1480
2.2869,7.1480
37.6260,7.1480
37.6859,7.1461
37.7998,7.1091
37.8967,7.0387
37.9671,6.9418
38.0041,6.8279
38.0060,6.7680
38.0060,2.7639
38.0061,2.7601
38.0073,2.7198
38.0133,2.6853
38.0388,2.6069
38.0564,2.5723
38.1037,2.5072
38.1312,2.4797
38.1963,2.4324
38.2309,2.4148
38.3093,2.3893
38.3438,2.3833
38.3841,2.3821
38.3879,2.3820
56.6220,2.3820
56.6819,2.3801
56.7958,2.3431
56.8927,2.2727
56.9631,2.1758
57.0001,2.0619
57.0020,2.0020
57.0020,0.3829
57.0021,0.3791
57.0033,0.3388
57.0093,0.3043
57.0348,0.2259
57.0524,0.1913
57.0998,0.1262
57.1272,0.0987
57.1923,0.0514
57.2269,0.0338
57.3053,0.0083
57.3398,0.0023
57.3801,0.0011
57.3839,0.0010
75.2631,0.0000
Z" /> 
</g>
</g>
</g> 
</svg>
